M48
; DRILL file {KiCad 8.0.4} date 2024-11-04T19:06:09-0700
; FORMAT={-:-/ absolute / inch / decimal}
; #@! TF.CreationDate,2024-11-04T19:06:09-07:00
; #@! TF.GenerationSoftware,Kicad,Pcbnew,8.0.4
; #@! TF.FileFunction,Plated,1,2,PTH
FMAT,2
INCH
; #@! TA.AperFunction,Plated,PTH,ViaDrill
T1C0.0118
; #@! TA.AperFunction,Plated,PTH,ComponentDrill
T2C0.0157
; #@! TA.AperFunction,Plated,PTH,ComponentDrill
T3C0.0354
; #@! TA.AperFunction,Plated,PTH,ComponentDrill
T4C0.0394
; #@! TA.AperFunction,Plated,PTH,ComponentDrill
T5C0.0433
; #@! TA.AperFunction,Plated,PTH,ComponentDrill
T6C0.0591
; #@! TA.AperFunction,Plated,PTH,ComponentDrill
T7C0.0630
; #@! TA.AperFunction,Plated,PTH,ComponentDrill
T8C0.0748
; #@! TA.AperFunction,Plated,PTH,ComponentDrill
T9C0.1181
; #@! TA.AperFunction,Plated,PTH,ComponentDrill
T10C0.1969
%
G90
G05
T1
X1.2598Y-2.4251
X1.2598Y-3.1721
X1.2598Y-3.9961
X1.2598Y-4.5383
X1.2598Y-4.7452
X1.2737Y-2.6905
X1.2737Y-3.4392
X1.2737Y-4.0613
X1.2737Y-4.9343
X1.3032Y-3.0543
X1.3036Y-2.3244
X1.3037Y-3.0897
X1.3048Y-3.8292
X1.3583Y-2.3426
X1.3583Y-3.0906
X1.3736Y-2.7339
X1.3737Y-4.2207
X1.374Y-3.4613
X1.375Y-4.9802
X1.4186Y-3.7276
X1.4685Y-2.2162
X1.4685Y-4.5946
X1.5082Y-2.5997
X1.6811Y-2.3507
X1.6811Y-4.5954
X1.6995Y-3.0986
X1.7289Y-3.7349
X1.7927Y-4.4644
X1.8497Y-4.2067
X1.8845Y-2.7106
X1.9082Y-2.9861
X2.0079Y-2.1853
X2.0079Y-2.8579
X2.0079Y-3.6817
X2.0079Y-4.4295
X2.0269Y-4.2998
X2.0515Y-2.0158
X2.0517Y-2.7741
X2.0523Y-3.5252
X2.1063Y-4.2717
X2.1229Y-2.4112
X2.1229Y-3.1706
X2.1229Y-3.8981
X2.1229Y-4.6576
X2.1229Y-4.8161
X2.126Y-3.5644
X2.1457Y-2.7757
X2.2165Y-1.9013
X2.2165Y-2.0356
X2.2165Y-3.397
X2.2165Y-3.5318
X2.2692Y-4.872
X2.4291Y-2.0829
X2.4291Y-2.7846
X2.4291Y-4.2802
X2.4299Y-2.3366
X2.4506Y-2.5763
X2.4506Y-3.237
X2.4506Y-4.124
X2.4766Y-4.1673
X2.4832Y-3.9764
X2.5041Y-3.6067
X2.5152Y-4.0076
X2.5647Y-2.0829
X2.5831Y-3.1378
X2.5911Y-1.9262
X2.6028Y-2.2501
X2.625Y-2.392
X2.6437Y-1.9421
X2.6645Y-3.4389
X2.6668Y-3.872
X2.6722Y-2.116
X2.7055Y-3.6156
X2.7071Y-2.0796
X2.7124Y-2.4272
X2.7191Y-3.8224
X2.72Y-4.8582
X2.7208Y-3.2063
X2.7233Y-4.6581
X2.7248Y-1.7075
X2.7411Y-3.4388
X2.7559Y-2.3317
X2.7559Y-3.0792
X2.7559Y-3.9578
X2.7563Y-1.5028
X2.7698Y-1.903
X2.7698Y-2.6507
X2.7698Y-5.0531
X2.7972Y-4.0219
X2.7997Y-3.7894
X2.8027Y-1.9167
X2.81Y-2.1476
X2.8105Y-1.9507
X2.8105Y-2.1122
X2.821Y-3.6835
X2.8543Y-2.3032
X2.8543Y-3.0512
X2.9172Y-3.7735
X2.9284Y-3.5255
X2.9533Y-4.7135
X2.9646Y-1.4286
X2.9646Y-1.5638
X2.9646Y-2.1476
X2.9646Y-4.5781
X3.0236Y-2.5987
X3.0533Y-3.5481
X3.113Y-2.8995
X3.1415Y-2.0215
X3.1772Y-3.6719
X3.1938Y-2.5104
X3.1986Y-3.5729
X3.1986Y-4.5284
X3.2246Y-4.602
X3.2285Y-2.1932
X3.2814Y-1.4327
X3.3173Y-2.933
X3.3464Y-3.4972
X3.3823Y-2.0241
X3.3823Y-2.5104
X3.4596Y-4.8228
X3.4845Y-2.0979
X3.5039Y-1.4254
X3.5039Y-1.5556
X3.5039Y-2.3039
X3.5039Y-2.8458
X3.5039Y-3.6694
X3.5039Y-3.7164
X3.5039Y-4.6571
X3.5137Y-2.9763
X3.581Y-4.4904
X3.587Y-3.5244
X3.6024Y-1.3977
X3.6024Y-2.1457
X3.6024Y-2.8938
X3.6024Y-3.6418
X3.6024Y-4.7048
X3.6173Y-4.0122
X3.619Y-2.5484
X3.6319Y-3.325
X3.7126Y-1.8406
X3.7126Y-3.4181
X3.9084Y-1.8888
X3.9164Y-2.5952
X3.9467Y-3.3505
X3.9467Y-4.1082
X4.0271Y-2.7676
X4.0521Y-2.0307
X4.0565Y-3.5236
X4.0653Y-1.2834
X4.0658Y-4.5865
X4.0991Y-1.9567
X4.1148Y-3.5633
X4.1169Y-2.3359
X4.1373Y-3.0223
X4.1469Y-3.7894
X4.1683Y-2.2646
X4.1683Y-3.4283
X4.1683Y-3.6177
X4.1831Y-3.863
X4.2033Y-4.541
X4.208Y-1.534
X4.208Y-3.7894
X4.2083Y-2.2914
X4.2366Y-4.5279
X4.2372Y-2.122
X4.2393Y-4.8325
X4.2431Y-4.022
X4.252Y-1.6368
X4.252Y-2.4613
X4.252Y-3.0033
X4.252Y-3.2092
X4.252Y-3.8808
X4.2658Y-1.9032
X4.2658Y-2.5257
X4.2658Y-3.3991
X4.2837Y-5.0635
X4.3029Y-4.6607
X4.3058Y-3.752
X4.3065Y-1.9566
X4.3223Y-2.0707
X4.343Y-4.6182
X4.3504Y-1.5552
X4.3504Y-3.0512
X4.3504Y-3.7993
X4.3668Y-2.6822
X4.3669Y-4.201
X4.3672Y-3.4416
X4.3701Y-2.3359
X4.3701Y-3.5983
X4.4413Y-3.8497
X4.4587Y-4.3076
X4.4606Y-2.3119
X4.4606Y-3.4859
X4.4631Y-4.6119
X4.4674Y-5.2084
X4.5942Y-4.5518
X4.6732Y-3.6723
X4.7246Y-2.9421
X4.8133Y-2.185
X4.8135Y-1.4369
X4.8172Y-2.8557
X4.8616Y-4.6186
X4.962Y-4.4551
X4.975Y-4.3917
X5.0Y-1.8731
X5.0Y-2.5675
X5.0Y-2.6212
X5.0Y-3.3159
X5.0Y-3.445
X5.0Y-3.8398
X5.0Y-4.0634
X5.0Y-4.1939
X5.0089Y-1.743
X5.0139Y-2.1396
X5.0139Y-2.8878
X5.0139Y-4.3838
X5.0482Y-3.6699
X5.0984Y-1.7914
X5.0984Y-2.5394
X5.0984Y-3.2875
X5.0984Y-4.0355
X5.1075Y-4.9707
X5.1142Y-2.9104
X5.115Y-3.6699
X5.1207Y-2.2151
X5.1418Y-4.8448
X5.1914Y-2.5675
X5.1969Y-3.7865
X5.2085Y-4.861
X5.2087Y-2.387
X5.2372Y-3.7275
X5.3839Y-2.9894
X5.3986Y-4.755
X5.4161Y-3.0988
X5.4686Y-3.1807
X5.4835Y-3.9173
X5.4887Y-1.8179
X5.5614Y-2.4193
X5.5716Y-3.013
X5.6351Y-4.5167
X5.6513Y-4.4857
X5.6526Y-2.3616
X5.6709Y-2.2417
X5.7136Y-2.5595
X5.7136Y-3.9129
X5.7154Y-4.8469
X5.7394Y-1.8736
X5.7474Y-4.05
X5.7483Y-3.8773
X5.7591Y-3.7394
X5.7685Y-4.7221
X5.7902Y-3.5728
X5.811Y-4.0772
X5.8135Y-2.4202
X5.8146Y-5.1106
X5.8222Y-4.3209
X5.8236Y-2.3728
X5.8571Y-5.292
X5.8579Y-2.7957
X5.872Y-2.4224
X5.8724Y-2.0874
X5.8814Y-4.755
X5.8972Y-2.3016
X5.8976Y-2.163
X5.9035Y-3.6343
X5.9091Y-5.2957
X5.9232Y-1.9087
X5.9461Y-2.1106
X5.9668Y-5.5294
X5.9854Y-5.1885
X5.9963Y-5.4013
X6.0657Y-4.8469
X6.132Y-5.6667
X6.1356Y-2.1799
X6.1506Y-5.2987
X6.3257Y-5.4951
X6.4807Y-1.8028
X6.5675Y-4.004
X6.5882Y-2.8776
X6.6243Y-3.8062
X6.6613Y-4.0122
X6.6713Y-3.8053
T2
X6.3081Y-1.6268
X6.3081Y-1.7268
X6.3081Y-1.8268
X6.3081Y-1.9268
X6.3081Y-2.0268
X6.3081Y-2.1268
X6.3081Y-2.2268
X6.3081Y-2.3268
X6.3081Y-2.4268
X6.3081Y-2.5268
X6.3081Y-2.6268
X6.3081Y-2.7268
X6.3681Y-1.6268
X6.3681Y-1.7268
X6.3681Y-1.8268
X6.3681Y-1.9268
X6.3681Y-2.0268
X6.3681Y-2.1268
X6.3681Y-2.2268
X6.3681Y-2.3268
X6.3681Y-2.4268
X6.3681Y-2.5268
X6.3681Y-2.6268
X6.3681Y-2.7268
T4
X6.163Y-3.4402
X6.163Y-4.011
X6.2614Y-3.4402
X6.3598Y-3.4402
X6.3598Y-4.011
T5
X6.0381Y-1.6268
X6.0381Y-1.6268
X6.0381Y-1.7268
X6.0381Y-1.8268
X6.0381Y-1.9268
X6.0381Y-2.0268
X6.0381Y-2.1268
X6.0381Y-2.2268
X6.0381Y-2.3268
X6.0381Y-2.4268
X6.0381Y-2.5268
X6.0381Y-2.6268
X6.0381Y-2.7268
X6.6381Y-1.6268
X6.6381Y-1.6268
X6.6381Y-1.7268
X6.6381Y-1.8268
X6.6381Y-1.9268
X6.6381Y-2.0268
X6.6381Y-2.1268
X6.6381Y-2.2268
X6.6381Y-2.3268
X6.6381Y-2.4268
X6.6381Y-2.5268
X6.6381Y-2.6268
X6.6381Y-2.7268
T7
X1.378Y-2.2776
X1.378Y-3.0256
X1.378Y-3.7736
X1.378Y-4.5217
X1.7717Y-2.2776
X1.7717Y-3.0256
X1.7717Y-3.7736
X1.7717Y-4.5217
X2.126Y-1.9626
X2.126Y-2.7106
X2.126Y-3.4587
X2.126Y-4.2067
X2.5197Y-1.9626
X2.5197Y-2.7106
X2.5197Y-3.4587
X2.5197Y-4.2067
X2.874Y-1.4902
X2.874Y-2.2382
X2.874Y-2.9862
X2.874Y-3.7343
X2.874Y-4.6398
X3.2677Y-1.4902
X3.2677Y-2.2382
X3.2677Y-2.9862
X3.2677Y-3.7343
X3.2677Y-4.6398
X3.622Y-1.3327
X3.622Y-2.0807
X3.622Y-2.8287
X3.622Y-3.5768
X3.622Y-4.6398
X4.0157Y-1.3327
X4.0157Y-2.0807
X4.0157Y-2.8287
X4.0157Y-3.5768
X4.0157Y-4.6398
X4.3701Y-1.4902
X4.3701Y-2.2382
X4.3701Y-2.9862
X4.3701Y-3.7343
X4.418Y-4.6556
X4.7638Y-1.4902
X4.7638Y-2.2382
X4.7638Y-2.9862
X4.7638Y-3.7343
X4.8102Y-4.6899
X5.1181Y-1.7264
X5.1181Y-2.4744
X5.1181Y-3.2224
X5.1181Y-3.9705
X5.2963Y-4.7924
X5.5118Y-1.7264
X5.5118Y-2.4744
X5.5118Y-3.2224
X5.5118Y-3.9705
X5.6663Y-4.9271
X6.1394Y-5.1924
X6.441Y-5.4454
T8
X1.3583Y-2.4803
X1.3583Y-3.2283
X1.3583Y-3.9764
X1.3583Y-4.7244
X1.7913Y-2.4803
X1.7913Y-3.2283
X1.7913Y-3.9764
X1.7913Y-4.7244
X2.1063Y-2.1654
X2.1063Y-2.9134
X2.1063Y-3.6614
X2.1063Y-4.4094
X2.5394Y-2.1654
X2.5394Y-2.9134
X2.5394Y-3.6614
X2.5394Y-4.4094
X2.8543Y-1.6929
X2.8543Y-2.4409
X2.8543Y-3.189
X2.8543Y-3.937
X2.8543Y-4.8425
X3.2874Y-1.6929
X3.2874Y-2.4409
X3.2874Y-3.189
X3.2874Y-3.937
X3.2874Y-4.8425
X3.6024Y-1.5354
X3.6024Y-2.2835
X3.6024Y-3.0315
X3.6024Y-3.7795
X3.6024Y-4.8425
X4.0354Y-1.5354
X4.0354Y-2.2835
X4.0354Y-3.0315
X4.0354Y-3.7795
X4.0354Y-4.8425
X4.3504Y-1.6929
X4.3504Y-2.4409
X4.3504Y-3.189
X4.3504Y-3.937
X4.3808Y-4.8559
X4.7835Y-1.6929
X4.7835Y-2.4409
X4.7835Y-3.189
X4.7835Y-3.937
X4.8122Y-4.8936
X5.0984Y-1.9291
X5.0984Y-2.6772
X5.0984Y-3.4252
X5.0984Y-4.1732
X5.2085Y-4.9762
X5.5315Y-1.9291
X5.5315Y-2.6772
X5.5315Y-3.4252
X5.5315Y-4.1732
X5.6154Y-5.1243
X5.994Y-5.335
X6.3258Y-5.6134
T9
X1.378Y-2.628
X1.378Y-3.376
X1.378Y-4.124
X1.378Y-4.872
X1.5748Y-2.7146
X1.5748Y-3.4626
X1.5748Y-4.2106
X1.5748Y-4.9587
X1.7717Y-2.628
X1.7717Y-3.376
X1.7717Y-4.124
X1.7717Y-4.872
X2.126Y-2.313
X2.126Y-3.061
X2.126Y-3.8091
X2.126Y-4.5571
X2.3228Y-2.3996
X2.3228Y-3.1476
X2.3228Y-3.8957
X2.3228Y-4.6437
X2.5197Y-2.313
X2.5197Y-3.061
X2.5197Y-3.8091
X2.5197Y-4.5571
X2.874Y-1.8406
X2.874Y-2.5886
X2.874Y-3.3366
X2.874Y-4.0846
X2.874Y-4.9902
X3.0709Y-1.9272
X3.0709Y-2.6752
X3.0709Y-3.4232
X3.0709Y-4.1713
X3.0709Y-5.0768
X3.2677Y-1.8406
X3.2677Y-2.5886
X3.2677Y-3.3366
X3.2677Y-4.0846
X3.2677Y-4.9902
X3.622Y-1.6831
X3.622Y-2.4311
X3.622Y-3.1791
X3.622Y-3.9272
X3.622Y-4.9902
X3.8189Y-1.7697
X3.8189Y-2.5177
X3.8189Y-3.2657
X3.8189Y-4.0138
X3.8189Y-5.0768
X4.0157Y-1.6831
X4.0157Y-2.4311
X4.0157Y-3.1791
X4.0157Y-3.9272
X4.0157Y-4.9902
X4.3701Y-1.8406
X4.3701Y-2.5886
X4.3701Y-3.3366
X4.3701Y-4.0846
X4.3875Y-5.0047
X4.5669Y-1.9272
X4.5669Y-2.6752
X4.5669Y-3.4232
X4.5669Y-4.1713
X4.576Y-5.1081
X4.7638Y-1.8406
X4.7638Y-2.5886
X4.7638Y-3.3366
X4.7638Y-4.0846
X4.7797Y-5.039
X5.1181Y-2.0768
X5.1181Y-2.8248
X5.1181Y-3.5728
X5.1181Y-4.3209
X5.1765Y-5.1217
X5.315Y-2.1634
X5.315Y-2.9114
X5.315Y-3.6594
X5.315Y-4.4075
X5.3318Y-5.2704
X5.5118Y-2.0768
X5.5118Y-2.8248
X5.5118Y-3.5728
X5.5118Y-4.3209
X5.5464Y-5.2563
X5.9142Y-5.4608
X6.0093Y-5.6537
X6.2158Y-5.7138
T10
X1.5748Y-2.4803
X1.5748Y-3.2283
X1.5748Y-3.9764
X1.5748Y-4.7244
X2.3228Y-2.1654
X2.3228Y-2.9134
X2.3228Y-3.6614
X2.3228Y-4.4094
X3.0709Y-1.6929
X3.0709Y-2.4409
X3.0709Y-3.189
X3.0709Y-3.937
X3.0709Y-4.8425
X3.8189Y-1.5354
X3.8189Y-2.2835
X3.8189Y-3.0315
X3.8189Y-3.7795
X3.8189Y-4.8425
X4.5669Y-1.6929
X4.5669Y-2.4409
X4.5669Y-3.189
X4.5669Y-3.937
X4.5965Y-4.8747
X5.315Y-1.9291
X5.315Y-2.6772
X5.315Y-3.4252
X5.315Y-4.1732
X5.4119Y-5.0503
X6.1599Y-5.4742
T3
G00X6.2992Y-3.0197
M15
G01X6.2756Y-3.0197
M16
G05
G00X6.2992Y-3.1102
M15
G01X6.2756Y-3.1102
M16
G05
G00X6.3425Y-2.9291
M15
G01X6.3189Y-2.9291
M16
G05
G00X6.3425Y-3.2008
M15
G01X6.3189Y-3.2008
M16
G05
G00X6.5Y-2.9291
M15
G01X6.4764Y-2.9291
M16
G05
G00X6.5Y-3.2008
M15
G01X6.4764Y-3.2008
M16
G05
G00X6.6181Y-2.9291
M15
G01X6.5945Y-2.9291
M16
G05
G00X6.6181Y-3.2008
M15
G01X6.5945Y-3.2008
M16
G05
T6
G00X6.0409Y-3.7098
M15
G01X6.0409Y-3.761
M16
G05
G00X6.4819Y-3.7098
M15
G01X6.4819Y-3.761
M16
G05
M30
