%TF.GenerationSoftware,KiCad,Pcbnew,8.0.4*%
%TF.CreationDate,2024-11-04T19:06:09-07:00*%
%TF.ProjectId,boost58,626f6f73-7435-4382-9e6b-696361645f70,0.1*%
%TF.SameCoordinates,Original*%
%TF.FileFunction,Profile,NP*%
%FSLAX46Y46*%
G04 Gerber Fmt 4.6, Leading zero omitted, Abs format (unit mm)*
G04 Created by KiCad (PCBNEW 8.0.4) date 2024-11-04 19:06:09*
%MOMM*%
%LPD*%
G01*
G04 APERTURE LIST*
%TA.AperFunction,Profile*%
%ADD10C,0.150000*%
%TD*%
%TA.AperFunction,Profile*%
%ADD11C,0.120000*%
%TD*%
G04 APERTURE END LIST*
D10*
X125220317Y-136605531D02*
G75*
G02*
X125322264Y-136628129I-34717J-397869D01*
G01*
X108500000Y-27400000D02*
X108500000Y-30600000D01*
X85500000Y-27400000D02*
G75*
G02*
X85900000Y-27000000I400000J0D01*
G01*
X151642885Y-119336973D02*
X172677892Y-136987439D01*
X125322263Y-136628132D02*
X142192442Y-142768375D01*
X85500000Y-30600000D02*
X85500000Y-27400000D01*
X157814522Y-155323203D02*
X172727195Y-137550972D01*
X157814522Y-155323203D02*
G75*
G02*
X157250984Y-155372511I-306422J257103D01*
G01*
X66500000Y-42600000D02*
X66500000Y-31400000D01*
X85500000Y-30600000D02*
G75*
G02*
X85100000Y-31000000I-400000J0D01*
G01*
X170100000Y-37000000D02*
G75*
G02*
X170500000Y-37400000I0J-400000D01*
G01*
X108100000Y-27000000D02*
G75*
G02*
X108500000Y-27400000I0J-400000D01*
G01*
X28900000Y-135000000D02*
X106851553Y-135000000D01*
X170100000Y-105000000D02*
X151900000Y-105000000D01*
X28900000Y-51000000D02*
X47100000Y-51000000D01*
X106886415Y-135001522D02*
X125220317Y-136605531D01*
X151642885Y-119336973D02*
G75*
G02*
X151499993Y-119030555I257215J306473D01*
G01*
X28500000Y-51400000D02*
G75*
G02*
X28900000Y-51000000I400000J0D01*
G01*
X47500000Y-43400000D02*
G75*
G02*
X47900000Y-43000000I400000J0D01*
G01*
X47500000Y-50600000D02*
X47500000Y-43400000D01*
X172677892Y-136987439D02*
G75*
G02*
X172727145Y-137550930I-256992J-306361D01*
G01*
X28900000Y-135000000D02*
G75*
G02*
X28500000Y-134600000I0J400000D01*
G01*
X127100000Y-31000000D02*
G75*
G02*
X127500000Y-31400000I0J-400000D01*
G01*
X151500000Y-105400000D02*
G75*
G02*
X151900000Y-105000000I400000J0D01*
G01*
X170500000Y-104600000D02*
X170500000Y-37400000D01*
X47500000Y-50600000D02*
G75*
G02*
X47100000Y-51000000I-400000J0D01*
G01*
X85900000Y-27000000D02*
X108100000Y-27000000D01*
X66500000Y-42600000D02*
G75*
G02*
X66100000Y-43000000I-400000J0D01*
G01*
X66500000Y-31400000D02*
G75*
G02*
X66900000Y-31000000I400000J0D01*
G01*
X127900000Y-37000000D02*
X170100000Y-37000000D01*
X151500000Y-119030555D02*
X151500000Y-105400000D01*
X28500000Y-134600000D02*
X28500000Y-51400000D01*
X47900000Y-43000000D02*
X66100000Y-43000000D01*
X108900000Y-31000000D02*
G75*
G02*
X108500000Y-30600000I0J400000D01*
G01*
X127900000Y-37000000D02*
G75*
G02*
X127500000Y-36600000I0J400000D01*
G01*
X106851553Y-135000000D02*
G75*
G02*
X106886415Y-135001526I-153J-402500D01*
G01*
X170500000Y-104600000D02*
G75*
G02*
X170100000Y-105000000I-400000J0D01*
G01*
X108900000Y-31000000D02*
X127100000Y-31000000D01*
X66900000Y-31000000D02*
X85100000Y-31000000D01*
X142312749Y-142837834D02*
X157250990Y-155372506D01*
X127500000Y-31400000D02*
X127500000Y-36600000D01*
X142192442Y-142768375D02*
G75*
G02*
X142312761Y-142837820I-136542J-375525D01*
G01*
%TO.C,L8*%
D11*
X57200000Y-48450000D02*
X60800000Y-48450000D01*
X60800000Y-51550000D01*
X57200000Y-51550000D01*
X57200000Y-48450000D01*
%TO.C,L11*%
X76200000Y-55450000D02*
X79800000Y-55450000D01*
X79800000Y-58550000D01*
X76200000Y-58550000D01*
X76200000Y-55450000D01*
%TO.C,L22*%
X133200000Y-80450000D02*
X136800000Y-80450000D01*
X136800000Y-83550000D01*
X133200000Y-83550000D01*
X133200000Y-80450000D01*
%TO.C,L25*%
X76200000Y-116450000D02*
X79800000Y-116450000D01*
X79800000Y-119550000D01*
X76200000Y-119550000D01*
X76200000Y-116450000D01*
%TO.C,L18*%
X114200000Y-74450000D02*
X117800000Y-74450000D01*
X117800000Y-77550000D01*
X114200000Y-77550000D01*
X114200000Y-74450000D01*
%TO.C,L6*%
X57200000Y-86450000D02*
X60800000Y-86450000D01*
X60800000Y-89550000D01*
X57200000Y-89550000D01*
X57200000Y-86450000D01*
%TO.C,L1*%
X38200000Y-113450000D02*
X41800000Y-113450000D01*
X41800000Y-116550000D01*
X38200000Y-116550000D01*
X38200000Y-113450000D01*
%TO.C,L24*%
X133200000Y-42450000D02*
X136800000Y-42450000D01*
X136800000Y-45550000D01*
X133200000Y-45550000D01*
X133200000Y-42450000D01*
%TO.C,L12*%
X76200000Y-36450000D02*
X79800000Y-36450000D01*
X79800000Y-39550000D01*
X76200000Y-39550000D01*
X76200000Y-36450000D01*
%TO.C,L19*%
X114200000Y-55450000D02*
X117800000Y-55450000D01*
X117800000Y-58550000D01*
X114200000Y-58550000D01*
X114200000Y-55450000D01*
%TO.C,L29*%
X162050501Y-135184449D02*
X160057859Y-137559187D01*
X157300099Y-135245151D01*
X159292741Y-132870413D01*
X162050501Y-135184449D01*
%TO.C,L27*%
X119114142Y-117450479D02*
X118843959Y-120538682D01*
X115257658Y-120224921D01*
X115527841Y-117136718D01*
X119114142Y-117450479D01*
%TO.C,L3*%
X38200000Y-75450000D02*
X41800000Y-75450000D01*
X41800000Y-78550000D01*
X38200000Y-78550000D01*
X38200000Y-75450000D01*
%TO.C,L13*%
X95200000Y-89450000D02*
X98800000Y-89450000D01*
X98800000Y-92550000D01*
X95200000Y-92550000D01*
X95200000Y-89450000D01*
%TO.C,L7*%
X57200000Y-67450000D02*
X60800000Y-67450000D01*
X60800000Y-70550000D01*
X57200000Y-70550000D01*
X57200000Y-67450000D01*
%TO.C,L21*%
X133200000Y-99450000D02*
X136800000Y-99450000D01*
X136800000Y-102550000D01*
X133200000Y-102550000D01*
X133200000Y-99450000D01*
%TO.C,L10*%
X76200000Y-74450000D02*
X79800000Y-74450000D01*
X79800000Y-77550000D01*
X76200000Y-77550000D01*
X76200000Y-74450000D01*
%TO.C,L15*%
X95200000Y-51450000D02*
X98800000Y-51450000D01*
X98800000Y-54550000D01*
X95200000Y-54550000D01*
X95200000Y-51450000D01*
%TO.C,L14*%
X95200000Y-70450000D02*
X98800000Y-70450000D01*
X98800000Y-73550000D01*
X95200000Y-73550000D01*
X95200000Y-70450000D01*
%TO.C,L5*%
X57200000Y-105450000D02*
X60800000Y-105450000D01*
X60800000Y-108550000D01*
X57200000Y-108550000D01*
X57200000Y-105450000D01*
%TO.C,L9*%
X76200000Y-93450000D02*
X79800000Y-93450000D01*
X79800000Y-96550000D01*
X76200000Y-96550000D01*
X76200000Y-93450000D01*
%TO.C,L16*%
X95200000Y-32450000D02*
X98800000Y-32450000D01*
X98800000Y-35550000D01*
X95200000Y-35550000D01*
X95200000Y-32450000D01*
%TO.C,L20*%
X114200000Y-36450000D02*
X117800000Y-36450000D01*
X117800000Y-39550000D01*
X114200000Y-39550000D01*
X114200000Y-36450000D01*
%TO.C,L4*%
X38200000Y-56450000D02*
X41800000Y-56450000D01*
X41800000Y-59550000D01*
X38200000Y-59550000D01*
X38200000Y-56450000D01*
%TO.C,L28*%
X141394778Y-122737513D02*
X140334515Y-125650560D01*
X136951622Y-124419287D01*
X138011885Y-121506240D01*
X141394778Y-122737513D01*
%TO.C,L2*%
X38200000Y-94450000D02*
X41800000Y-94450000D01*
X41800000Y-97550000D01*
X38200000Y-97550000D01*
X38200000Y-94450000D01*
%TO.C,L26*%
X95200000Y-116450000D02*
X98800000Y-116450000D01*
X98800000Y-119550000D01*
X95200000Y-119550000D01*
X95200000Y-116450000D01*
%TO.C,L17*%
X114200000Y-93450000D02*
X117800000Y-93450000D01*
X117800000Y-96550000D01*
X114200000Y-96550000D01*
X114200000Y-93450000D01*
%TO.C,L23*%
X133200000Y-61450000D02*
X136800000Y-61450000D01*
X136800000Y-64550000D01*
X133200000Y-64550000D01*
X133200000Y-61450000D01*
%TD*%
M02*
