%TF.GenerationSoftware,KiCad,Pcbnew,8.0.4*%
%TF.CreationDate,2024-11-04T19:06:09-07:00*%
%TF.ProjectId,boost58,626f6f73-7435-4382-9e6b-696361645f70,0.1*%
%TF.SameCoordinates,Original*%
%TF.FileFunction,Soldermask,Bot*%
%TF.FilePolarity,Negative*%
%FSLAX46Y46*%
G04 Gerber Fmt 4.6, Leading zero omitted, Abs format (unit mm)*
G04 Created by KiCad (PCBNEW 8.0.4) date 2024-11-04 19:06:09*
%MOMM*%
%LPD*%
G01*
G04 APERTURE LIST*
G04 Aperture macros list*
%AMRoundRect*
0 Rectangle with rounded corners*
0 $1 Rounding radius*
0 $2 $3 $4 $5 $6 $7 $8 $9 X,Y pos of 4 corners*
0 Add a 4 corners polygon primitive as box body*
4,1,4,$2,$3,$4,$5,$6,$7,$8,$9,$2,$3,0*
0 Add four circle primitives for the rounded corners*
1,1,$1+$1,$2,$3*
1,1,$1+$1,$4,$5*
1,1,$1+$1,$6,$7*
1,1,$1+$1,$8,$9*
0 Add four rect primitives between the rounded corners*
20,1,$1+$1,$2,$3,$4,$5,0*
20,1,$1+$1,$4,$5,$6,$7,0*
20,1,$1+$1,$6,$7,$8,$9,0*
20,1,$1+$1,$8,$9,$2,$3,0*%
%AMFreePoly0*
4,1,14,0.635355,0.435355,0.650000,0.400000,0.650000,0.200000,0.635355,0.164645,0.035355,-0.435355,0.000000,-0.450000,-0.035355,-0.435355,-0.635355,0.164645,-0.650000,0.200000,-0.650000,0.400000,-0.635355,0.435355,-0.600000,0.450000,0.600000,0.450000,0.635355,0.435355,0.635355,0.435355,$1*%
%AMFreePoly1*
4,1,16,0.635355,1.035355,0.650000,1.000000,0.650000,-0.250000,0.635355,-0.285355,0.600000,-0.300000,-0.600000,-0.300000,-0.635355,-0.285355,-0.650000,-0.250000,-0.650000,1.000000,-0.635355,1.035355,-0.600000,1.050000,-0.564645,1.035355,0.000000,0.470710,0.564645,1.035355,0.600000,1.050000,0.635355,1.035355,0.635355,1.035355,$1*%
G04 Aperture macros list end*
%ADD10C,0.250000*%
%ADD11C,0.100000*%
%ADD12C,3.300000*%
%ADD13RoundRect,0.050000X0.500000X-1.300000X0.500000X1.300000X-0.500000X1.300000X-0.500000X-1.300000X0*%
%ADD14RoundRect,0.050000X0.600000X-1.000000X0.600000X1.000000X-0.600000X1.000000X-0.600000X-1.000000X0*%
%ADD15RoundRect,0.050000X-1.000000X1.600000X-1.000000X-1.600000X1.000000X-1.600000X1.000000X1.600000X0*%
%ADD16C,1.600000*%
%ADD17RoundRect,0.050000X-1.000000X1.000000X-1.000000X-1.000000X1.000000X-1.000000X1.000000X1.000000X0*%
%ADD18C,2.100000*%
%ADD19RoundRect,0.050000X0.500000X-0.775000X0.500000X0.775000X-0.500000X0.775000X-0.500000X-0.775000X0*%
%ADD20O,2.300000X1.700000*%
%ADD21RoundRect,0.050000X-0.500000X1.300000X-0.500000X-1.300000X0.500000X-1.300000X0.500000X1.300000X0*%
%ADD22RoundRect,0.050000X-0.600000X1.000000X-0.600000X-1.000000X0.600000X-1.000000X0.600000X1.000000X0*%
%ADD23C,1.700000*%
%ADD24RoundRect,0.050000X-0.800000X0.800000X-0.800000X-0.800000X0.800000X-0.800000X0.800000X0.800000X0*%
%ADD25FreePoly0,270.000000*%
%ADD26FreePoly0,90.000000*%
%ADD27FreePoly1,90.000000*%
%ADD28FreePoly1,270.000000*%
%ADD29C,2.300000*%
%ADD30C,2.000000*%
%ADD31C,3.400000*%
%ADD32C,5.400000*%
%ADD33RoundRect,0.215000X1.085000X0.860000X-1.085000X0.860000X-1.085000X-0.860000X1.085000X-0.860000X0*%
%ADD34RoundRect,0.225000X1.150000X0.900000X-1.150000X0.900000X-1.150000X-0.900000X1.150000X-0.900000X0*%
%ADD35RoundRect,0.050000X-0.170372X0.730393X-0.748881X0.040953X0.170372X-0.730393X0.748881X-0.040953X0*%
%ADD36RoundRect,0.050000X-0.700000X-0.500000X0.700000X-0.500000X0.700000X0.500000X-0.700000X0.500000X0*%
%ADD37RoundRect,0.050000X-0.600000X0.450000X-0.600000X-0.450000X0.600000X-0.450000X0.600000X0.450000X0*%
%ADD38RoundRect,0.050000X-0.558497X0.500581X-0.636937X-0.395994X0.558497X-0.500581X0.636937X0.395994X0*%
%ADD39RoundRect,0.050000X-0.857625X0.066929X0.214837X-0.832974X0.857625X-0.066929X-0.214837X0.832974X0*%
%ADD40RoundRect,0.215000X1.383956X-0.038626X-0.278361X1.356223X-1.383956X0.038626X0.278361X-1.356223X0*%
%ADD41RoundRect,0.225000X1.459460X-0.049766X-0.302442X1.428646X-1.459460X0.049766X0.302442X-1.428646X0*%
%ADD42RoundRect,0.050000X-0.740914X-0.437088X0.653758X-0.559106X0.740914X0.437088X-0.653758X0.559106X0*%
%ADD43RoundRect,0.050000X-0.828795X-0.230432X0.486775X-0.709260X0.828795X0.230432X-0.486775X0.709260X0*%
%ADD44RoundRect,0.215000X1.313704X0.437044X-0.725429X1.179228X-1.313704X-0.437044X0.725429X-1.179228X0*%
%ADD45RoundRect,0.225000X1.388465X0.452400X-0.772828X1.239047X-1.388465X-0.452400X0.772828X-1.239047X0*%
%ADD46RoundRect,0.050000X-0.409907X0.628074X-0.717725X-0.217650X0.409907X-0.628074X0.717725X0.217650X0*%
%ADD47RoundRect,0.215000X1.155825X0.762163X-1.005917X0.951291X-1.155825X-0.762163X1.005917X-0.951291X0*%
%ADD48RoundRect,0.225000X1.224064X0.796346X-1.067184X0.996804X-1.224064X-0.796346X1.067184X-0.996804X0*%
G04 APERTURE END LIST*
D10*
%TO.C,MCU1*%
X160351000Y-41320000D02*
G75*
G02*
X160101000Y-41320000I-125000J0D01*
G01*
X160101000Y-41320000D02*
G75*
G02*
X160351000Y-41320000I125000J0D01*
G01*
X160351000Y-43860000D02*
G75*
G02*
X160101000Y-43860000I-125000J0D01*
G01*
X160101000Y-43860000D02*
G75*
G02*
X160351000Y-43860000I125000J0D01*
G01*
X160351000Y-46400000D02*
G75*
G02*
X160101000Y-46400000I-125000J0D01*
G01*
X160101000Y-46400000D02*
G75*
G02*
X160351000Y-46400000I125000J0D01*
G01*
X160351000Y-48940000D02*
G75*
G02*
X160101000Y-48940000I-125000J0D01*
G01*
X160101000Y-48940000D02*
G75*
G02*
X160351000Y-48940000I125000J0D01*
G01*
X160351000Y-51480000D02*
G75*
G02*
X160101000Y-51480000I-125000J0D01*
G01*
X160101000Y-51480000D02*
G75*
G02*
X160351000Y-51480000I125000J0D01*
G01*
X160351000Y-54020000D02*
G75*
G02*
X160101000Y-54020000I-125000J0D01*
G01*
X160101000Y-54020000D02*
G75*
G02*
X160351000Y-54020000I125000J0D01*
G01*
X160351000Y-56560000D02*
G75*
G02*
X160101000Y-56560000I-125000J0D01*
G01*
X160101000Y-56560000D02*
G75*
G02*
X160351000Y-56560000I125000J0D01*
G01*
X160351000Y-59100000D02*
G75*
G02*
X160101000Y-59100000I-125000J0D01*
G01*
X160101000Y-59100000D02*
G75*
G02*
X160351000Y-59100000I125000J0D01*
G01*
X160351000Y-61640000D02*
G75*
G02*
X160101000Y-61640000I-125000J0D01*
G01*
X160101000Y-61640000D02*
G75*
G02*
X160351000Y-61640000I125000J0D01*
G01*
X160351000Y-64180000D02*
G75*
G02*
X160101000Y-64180000I-125000J0D01*
G01*
X160101000Y-64180000D02*
G75*
G02*
X160351000Y-64180000I125000J0D01*
G01*
X160351000Y-66720000D02*
G75*
G02*
X160101000Y-66720000I-125000J0D01*
G01*
X160101000Y-66720000D02*
G75*
G02*
X160351000Y-66720000I125000J0D01*
G01*
X160351000Y-69260000D02*
G75*
G02*
X160101000Y-69260000I-125000J0D01*
G01*
X160101000Y-69260000D02*
G75*
G02*
X160351000Y-69260000I125000J0D01*
G01*
X161875000Y-41320000D02*
G75*
G02*
X161625000Y-41320000I-125000J0D01*
G01*
X161625000Y-41320000D02*
G75*
G02*
X161875000Y-41320000I125000J0D01*
G01*
X161875000Y-43860000D02*
G75*
G02*
X161625000Y-43860000I-125000J0D01*
G01*
X161625000Y-43860000D02*
G75*
G02*
X161875000Y-43860000I125000J0D01*
G01*
X161875000Y-46400000D02*
G75*
G02*
X161625000Y-46400000I-125000J0D01*
G01*
X161625000Y-46400000D02*
G75*
G02*
X161875000Y-46400000I125000J0D01*
G01*
X161875000Y-48940000D02*
G75*
G02*
X161625000Y-48940000I-125000J0D01*
G01*
X161625000Y-48940000D02*
G75*
G02*
X161875000Y-48940000I125000J0D01*
G01*
X161875000Y-51480000D02*
G75*
G02*
X161625000Y-51480000I-125000J0D01*
G01*
X161625000Y-51480000D02*
G75*
G02*
X161875000Y-51480000I125000J0D01*
G01*
X161875000Y-54020000D02*
G75*
G02*
X161625000Y-54020000I-125000J0D01*
G01*
X161625000Y-54020000D02*
G75*
G02*
X161875000Y-54020000I125000J0D01*
G01*
X161875000Y-56560000D02*
G75*
G02*
X161625000Y-56560000I-125000J0D01*
G01*
X161625000Y-56560000D02*
G75*
G02*
X161875000Y-56560000I125000J0D01*
G01*
X161875000Y-59100000D02*
G75*
G02*
X161625000Y-59100000I-125000J0D01*
G01*
X161625000Y-59100000D02*
G75*
G02*
X161875000Y-59100000I125000J0D01*
G01*
X161875000Y-61640000D02*
G75*
G02*
X161625000Y-61640000I-125000J0D01*
G01*
X161625000Y-61640000D02*
G75*
G02*
X161875000Y-61640000I125000J0D01*
G01*
X161875000Y-64180000D02*
G75*
G02*
X161625000Y-64180000I-125000J0D01*
G01*
X161625000Y-64180000D02*
G75*
G02*
X161875000Y-64180000I125000J0D01*
G01*
X161875000Y-66720000D02*
G75*
G02*
X161625000Y-66720000I-125000J0D01*
G01*
X161625000Y-66720000D02*
G75*
G02*
X161875000Y-66720000I125000J0D01*
G01*
X161875000Y-69260000D02*
G75*
G02*
X161625000Y-69260000I-125000J0D01*
G01*
X161625000Y-69260000D02*
G75*
G02*
X161875000Y-69260000I125000J0D01*
G01*
D11*
X155908000Y-41828000D02*
X154892000Y-41828000D01*
X154892000Y-40812000D01*
X155908000Y-40812000D01*
X155908000Y-41828000D01*
G36*
X155908000Y-41828000D02*
G01*
X154892000Y-41828000D01*
X154892000Y-40812000D01*
X155908000Y-40812000D01*
X155908000Y-41828000D01*
G37*
X155908000Y-44368000D02*
X154892000Y-44368000D01*
X154892000Y-43352000D01*
X155908000Y-43352000D01*
X155908000Y-44368000D01*
G36*
X155908000Y-44368000D02*
G01*
X154892000Y-44368000D01*
X154892000Y-43352000D01*
X155908000Y-43352000D01*
X155908000Y-44368000D01*
G37*
X155908000Y-46908000D02*
X154892000Y-46908000D01*
X154892000Y-45892000D01*
X155908000Y-45892000D01*
X155908000Y-46908000D01*
G36*
X155908000Y-46908000D02*
G01*
X154892000Y-46908000D01*
X154892000Y-45892000D01*
X155908000Y-45892000D01*
X155908000Y-46908000D01*
G37*
X155908000Y-49448000D02*
X154892000Y-49448000D01*
X154892000Y-48432000D01*
X155908000Y-48432000D01*
X155908000Y-49448000D01*
G36*
X155908000Y-49448000D02*
G01*
X154892000Y-49448000D01*
X154892000Y-48432000D01*
X155908000Y-48432000D01*
X155908000Y-49448000D01*
G37*
X155908000Y-51988000D02*
X154892000Y-51988000D01*
X154892000Y-50972000D01*
X155908000Y-50972000D01*
X155908000Y-51988000D01*
G36*
X155908000Y-51988000D02*
G01*
X154892000Y-51988000D01*
X154892000Y-50972000D01*
X155908000Y-50972000D01*
X155908000Y-51988000D01*
G37*
X155908000Y-54528000D02*
X154892000Y-54528000D01*
X154892000Y-53512000D01*
X155908000Y-53512000D01*
X155908000Y-54528000D01*
G36*
X155908000Y-54528000D02*
G01*
X154892000Y-54528000D01*
X154892000Y-53512000D01*
X155908000Y-53512000D01*
X155908000Y-54528000D01*
G37*
X155908000Y-57068000D02*
X154892000Y-57068000D01*
X154892000Y-56052000D01*
X155908000Y-56052000D01*
X155908000Y-57068000D01*
G36*
X155908000Y-57068000D02*
G01*
X154892000Y-57068000D01*
X154892000Y-56052000D01*
X155908000Y-56052000D01*
X155908000Y-57068000D01*
G37*
X155908000Y-59608000D02*
X154892000Y-59608000D01*
X154892000Y-58592000D01*
X155908000Y-58592000D01*
X155908000Y-59608000D01*
G36*
X155908000Y-59608000D02*
G01*
X154892000Y-59608000D01*
X154892000Y-58592000D01*
X155908000Y-58592000D01*
X155908000Y-59608000D01*
G37*
X155908000Y-62148000D02*
X154892000Y-62148000D01*
X154892000Y-61132000D01*
X155908000Y-61132000D01*
X155908000Y-62148000D01*
G36*
X155908000Y-62148000D02*
G01*
X154892000Y-62148000D01*
X154892000Y-61132000D01*
X155908000Y-61132000D01*
X155908000Y-62148000D01*
G37*
X155908000Y-64688000D02*
X154892000Y-64688000D01*
X154892000Y-63672000D01*
X155908000Y-63672000D01*
X155908000Y-64688000D01*
G36*
X155908000Y-64688000D02*
G01*
X154892000Y-64688000D01*
X154892000Y-63672000D01*
X155908000Y-63672000D01*
X155908000Y-64688000D01*
G37*
X155908000Y-67228000D02*
X154892000Y-67228000D01*
X154892000Y-66212000D01*
X155908000Y-66212000D01*
X155908000Y-67228000D01*
G36*
X155908000Y-67228000D02*
G01*
X154892000Y-67228000D01*
X154892000Y-66212000D01*
X155908000Y-66212000D01*
X155908000Y-67228000D01*
G37*
X155908000Y-69768000D02*
X154892000Y-69768000D01*
X154892000Y-68752000D01*
X155908000Y-68752000D01*
X155908000Y-69768000D01*
G36*
X155908000Y-69768000D02*
G01*
X154892000Y-69768000D01*
X154892000Y-68752000D01*
X155908000Y-68752000D01*
X155908000Y-69768000D01*
G37*
X167084000Y-41828000D02*
X166068000Y-41828000D01*
X166068000Y-40812000D01*
X167084000Y-40812000D01*
X167084000Y-41828000D01*
G36*
X167084000Y-41828000D02*
G01*
X166068000Y-41828000D01*
X166068000Y-40812000D01*
X167084000Y-40812000D01*
X167084000Y-41828000D01*
G37*
X167084000Y-44368000D02*
X166068000Y-44368000D01*
X166068000Y-43352000D01*
X167084000Y-43352000D01*
X167084000Y-44368000D01*
G36*
X167084000Y-44368000D02*
G01*
X166068000Y-44368000D01*
X166068000Y-43352000D01*
X167084000Y-43352000D01*
X167084000Y-44368000D01*
G37*
X167084000Y-46908000D02*
X166068000Y-46908000D01*
X166068000Y-45892000D01*
X167084000Y-45892000D01*
X167084000Y-46908000D01*
G36*
X167084000Y-46908000D02*
G01*
X166068000Y-46908000D01*
X166068000Y-45892000D01*
X167084000Y-45892000D01*
X167084000Y-46908000D01*
G37*
X167084000Y-49448000D02*
X166068000Y-49448000D01*
X166068000Y-48432000D01*
X167084000Y-48432000D01*
X167084000Y-49448000D01*
G36*
X167084000Y-49448000D02*
G01*
X166068000Y-49448000D01*
X166068000Y-48432000D01*
X167084000Y-48432000D01*
X167084000Y-49448000D01*
G37*
X167084000Y-51988000D02*
X166068000Y-51988000D01*
X166068000Y-50972000D01*
X167084000Y-50972000D01*
X167084000Y-51988000D01*
G36*
X167084000Y-51988000D02*
G01*
X166068000Y-51988000D01*
X166068000Y-50972000D01*
X167084000Y-50972000D01*
X167084000Y-51988000D01*
G37*
X167084000Y-54528000D02*
X166068000Y-54528000D01*
X166068000Y-53512000D01*
X167084000Y-53512000D01*
X167084000Y-54528000D01*
G36*
X167084000Y-54528000D02*
G01*
X166068000Y-54528000D01*
X166068000Y-53512000D01*
X167084000Y-53512000D01*
X167084000Y-54528000D01*
G37*
X167084000Y-57068000D02*
X166068000Y-57068000D01*
X166068000Y-56052000D01*
X167084000Y-56052000D01*
X167084000Y-57068000D01*
G36*
X167084000Y-57068000D02*
G01*
X166068000Y-57068000D01*
X166068000Y-56052000D01*
X167084000Y-56052000D01*
X167084000Y-57068000D01*
G37*
X167084000Y-59608000D02*
X166068000Y-59608000D01*
X166068000Y-58592000D01*
X167084000Y-58592000D01*
X167084000Y-59608000D01*
G36*
X167084000Y-59608000D02*
G01*
X166068000Y-59608000D01*
X166068000Y-58592000D01*
X167084000Y-58592000D01*
X167084000Y-59608000D01*
G37*
X167084000Y-62148000D02*
X166068000Y-62148000D01*
X166068000Y-61132000D01*
X167084000Y-61132000D01*
X167084000Y-62148000D01*
G36*
X167084000Y-62148000D02*
G01*
X166068000Y-62148000D01*
X166068000Y-61132000D01*
X167084000Y-61132000D01*
X167084000Y-62148000D01*
G37*
X167084000Y-64688000D02*
X166068000Y-64688000D01*
X166068000Y-63672000D01*
X167084000Y-63672000D01*
X167084000Y-64688000D01*
G36*
X167084000Y-64688000D02*
G01*
X166068000Y-64688000D01*
X166068000Y-63672000D01*
X167084000Y-63672000D01*
X167084000Y-64688000D01*
G37*
X167084000Y-67228000D02*
X166068000Y-67228000D01*
X166068000Y-66212000D01*
X167084000Y-66212000D01*
X167084000Y-67228000D01*
G36*
X167084000Y-67228000D02*
G01*
X166068000Y-67228000D01*
X166068000Y-66212000D01*
X167084000Y-66212000D01*
X167084000Y-67228000D01*
G37*
X167084000Y-69768000D02*
X166068000Y-69768000D01*
X166068000Y-68752000D01*
X167084000Y-68752000D01*
X167084000Y-69768000D01*
G36*
X167084000Y-69768000D02*
G01*
X166068000Y-69768000D01*
X166068000Y-68752000D01*
X167084000Y-68752000D01*
X167084000Y-69768000D01*
G37*
%TD*%
D12*
%TO.C,M3_4*%
X90000000Y-48500000D03*
%TD*%
D13*
%TO.C,U_3*%
X105875000Y-93700000D03*
X107625000Y-93700000D03*
X107625000Y-89300000D03*
X105875000Y-89300000D03*
D14*
X105150000Y-94000000D03*
X108350000Y-94000000D03*
X108350000Y-89000000D03*
X105150000Y-89000000D03*
%TD*%
D15*
%TO.C,Rotary1*%
X164640000Y-94880000D03*
X153440000Y-94880000D03*
D16*
X161540000Y-101880000D03*
X156540000Y-101880000D03*
D17*
X161540000Y-87380000D03*
D18*
X156540000Y-87380000D03*
X159040000Y-87380000D03*
%TD*%
D19*
%TO.C,RST1*%
X169450000Y-95375000D03*
X167750000Y-95375000D03*
X169450000Y-100625000D03*
X167750000Y-100625000D03*
%TD*%
D16*
%TO.C,TRRS1*%
X169400000Y-76700000D03*
X162400000Y-76700000D03*
X169400000Y-79000000D03*
X162400000Y-79000000D03*
D20*
X159700000Y-76700000D03*
X159700000Y-79000000D03*
X160800000Y-74400000D03*
X160800000Y-81300000D03*
X164800000Y-74400000D03*
X164800000Y-81300000D03*
X167800000Y-74400000D03*
X167800000Y-81300000D03*
%TD*%
D12*
%TO.C,M3_2*%
X51000000Y-64500000D03*
%TD*%
D13*
%TO.C,U_4*%
X105875000Y-55700000D03*
X107625000Y-55700000D03*
X107625000Y-51300000D03*
X105875000Y-51300000D03*
D14*
X105150000Y-56000000D03*
X108350000Y-56000000D03*
X108350000Y-51000000D03*
X105150000Y-51000000D03*
%TD*%
D12*
%TO.C,M3_3*%
X90000000Y-109500000D03*
%TD*%
D21*
%TO.C,U_6*%
X146875000Y-58800000D03*
X145125000Y-58800000D03*
X145125000Y-63200000D03*
X146875000Y-63200000D03*
D22*
X147600000Y-58500000D03*
X144400000Y-58500000D03*
X144400000Y-63500000D03*
X147600000Y-63500000D03*
%TD*%
D23*
%TO.C,MCU1*%
X168608000Y-41320000D03*
D24*
X168608000Y-41320000D03*
D25*
X166830000Y-41320000D03*
D26*
X155146000Y-41320000D03*
D23*
X153368000Y-41320000D03*
X168608000Y-43860000D03*
D25*
X166830000Y-43860000D03*
D26*
X155146000Y-43860000D03*
D23*
X153368000Y-43860000D03*
X168608000Y-46400000D03*
D25*
X166830000Y-46400000D03*
D26*
X155146000Y-46400000D03*
D23*
X153368000Y-46400000D03*
X168608000Y-48940000D03*
D25*
X166830000Y-48940000D03*
D26*
X155146000Y-48940000D03*
D23*
X153368000Y-48940000D03*
X168608000Y-51480000D03*
D25*
X166830000Y-51480000D03*
D26*
X155146000Y-51480000D03*
D23*
X153368000Y-51480000D03*
X168608000Y-54020000D03*
D25*
X166830000Y-54020000D03*
D26*
X155146000Y-54020000D03*
D23*
X153368000Y-54020000D03*
X168608000Y-56560000D03*
D25*
X166830000Y-56560000D03*
D26*
X155146000Y-56560000D03*
D23*
X153368000Y-56560000D03*
X168608000Y-59100000D03*
D25*
X166830000Y-59100000D03*
D26*
X155146000Y-59100000D03*
D23*
X153368000Y-59100000D03*
X168608000Y-61640000D03*
D25*
X166830000Y-61640000D03*
D26*
X155146000Y-61640000D03*
D23*
X153368000Y-61640000D03*
X168608000Y-64180000D03*
D25*
X166830000Y-64180000D03*
D26*
X155146000Y-64180000D03*
D23*
X153368000Y-64180000D03*
X168608000Y-66720000D03*
D25*
X166830000Y-66720000D03*
D26*
X155146000Y-66720000D03*
D23*
X153368000Y-66720000D03*
X168608000Y-69260000D03*
D25*
X166830000Y-69260000D03*
D26*
X155146000Y-69260000D03*
D23*
X153368000Y-69260000D03*
D27*
X156162000Y-41320000D03*
X156162000Y-43860000D03*
X156162000Y-46400000D03*
X156162000Y-48940000D03*
X156162000Y-51480000D03*
X156162000Y-54020000D03*
X156162000Y-56560000D03*
X156162000Y-59100000D03*
X156162000Y-61640000D03*
X156162000Y-64180000D03*
X156162000Y-66720000D03*
X156162000Y-69260000D03*
D28*
X165814000Y-69260000D03*
X165814000Y-66720000D03*
X165814000Y-64180000D03*
X165814000Y-61640000D03*
X165814000Y-59100000D03*
X165814000Y-56560000D03*
X165814000Y-54020000D03*
X165814000Y-51480000D03*
X165814000Y-48940000D03*
X165814000Y-46400000D03*
X165814000Y-43860000D03*
X165814000Y-41320000D03*
%TD*%
D21*
%TO.C,U_5*%
X146875000Y-96800000D03*
X145125000Y-96800000D03*
X145125000Y-101200000D03*
X146875000Y-101200000D03*
D22*
X147600000Y-96500000D03*
X144400000Y-96500000D03*
X144400000Y-101500000D03*
X147600000Y-101500000D03*
%TD*%
D12*
%TO.C,M3_1*%
X51000000Y-121500000D03*
%TD*%
D21*
%TO.C,U_1*%
X69625000Y-89150000D03*
X67875000Y-89150000D03*
X67875000Y-93550000D03*
X69625000Y-93550000D03*
D22*
X70350000Y-88850000D03*
X67150000Y-88850000D03*
X67150000Y-93850000D03*
X70350000Y-93850000D03*
%TD*%
D12*
%TO.C,M3_5*%
X146000000Y-117000000D03*
%TD*%
%TO.C,M3_6*%
X146000000Y-43000000D03*
%TD*%
D21*
%TO.C,U_2*%
X69625000Y-51150000D03*
X67875000Y-51150000D03*
X67875000Y-55550000D03*
X69625000Y-55550000D03*
D22*
X70350000Y-50850000D03*
X67150000Y-50850000D03*
X67150000Y-55850000D03*
X70350000Y-55850000D03*
%TD*%
D29*
%TO.C,SW26*%
X102500000Y-123000000D03*
D30*
X102000000Y-117850000D03*
D31*
X97000000Y-128950000D03*
D32*
X97000000Y-123000000D03*
D30*
X92000000Y-117850000D03*
D29*
X91500000Y-123000000D03*
D33*
X88752500Y-126750000D03*
D31*
X102000000Y-126750000D03*
D34*
X100245000Y-128950000D03*
D31*
X92000000Y-126750000D03*
%TD*%
D35*
%TO.C,D29*%
X152743400Y-131030027D03*
X150622200Y-133557973D03*
%TD*%
D36*
%TO.C,L8*%
X61700000Y-50700000D03*
X61700000Y-49300000D03*
X56300000Y-49300000D03*
X56300000Y-50700000D03*
%TD*%
D37*
%TO.C,D15*%
X89000000Y-54250000D03*
X89000000Y-57550000D03*
%TD*%
D36*
%TO.C,L11*%
X80700000Y-57700000D03*
X80700000Y-56300000D03*
X75300000Y-56300000D03*
X75300000Y-57700000D03*
%TD*%
D29*
%TO.C,SW22*%
X140500000Y-87000000D03*
D30*
X140000000Y-81850000D03*
D31*
X135000000Y-92950000D03*
D32*
X135000000Y-87000000D03*
D30*
X130000000Y-81850000D03*
D29*
X129500000Y-87000000D03*
D33*
X126752500Y-90750000D03*
D31*
X140000000Y-90750000D03*
D34*
X138245000Y-92950000D03*
D31*
X130000000Y-90750000D03*
%TD*%
D36*
%TO.C,L22*%
X137700000Y-82700000D03*
X137700000Y-81300000D03*
X132300000Y-81300000D03*
X132300000Y-82700000D03*
%TD*%
D37*
%TO.C,D26*%
X89000000Y-119250000D03*
X89000000Y-122550000D03*
%TD*%
D29*
%TO.C,SW20*%
X121500000Y-43000000D03*
D30*
X121000000Y-37850000D03*
D31*
X116000000Y-48950000D03*
D32*
X116000000Y-43000000D03*
D30*
X111000000Y-37850000D03*
D29*
X110500000Y-43000000D03*
D33*
X107752500Y-46750000D03*
D31*
X121000000Y-46750000D03*
D34*
X119245000Y-48950000D03*
D31*
X111000000Y-46750000D03*
%TD*%
D36*
%TO.C,L25*%
X80700000Y-118700000D03*
X80700000Y-117300000D03*
X75300000Y-117300000D03*
X75300000Y-118700000D03*
%TD*%
D29*
%TO.C,SW21*%
X140500000Y-106000000D03*
D30*
X140000000Y-100850000D03*
D31*
X135000000Y-111950000D03*
D32*
X135000000Y-106000000D03*
D30*
X130000000Y-100850000D03*
D29*
X129500000Y-106000000D03*
D33*
X126752500Y-109750000D03*
D31*
X140000000Y-109750000D03*
D34*
X138245000Y-111950000D03*
D31*
X130000000Y-109750000D03*
%TD*%
D36*
%TO.C,L18*%
X118700000Y-76700000D03*
X118700000Y-75300000D03*
X113300000Y-75300000D03*
X113300000Y-76700000D03*
%TD*%
D29*
%TO.C,SW15*%
X102500000Y-58000000D03*
D30*
X102000000Y-52850000D03*
D31*
X97000000Y-63950000D03*
D32*
X97000000Y-58000000D03*
D30*
X92000000Y-52850000D03*
D29*
X91500000Y-58000000D03*
D33*
X88752500Y-61750000D03*
D31*
X102000000Y-61750000D03*
D34*
X100245000Y-63950000D03*
D31*
X92000000Y-61750000D03*
%TD*%
D29*
%TO.C,SW9*%
X83500000Y-100000000D03*
D30*
X83000000Y-94850000D03*
D31*
X78000000Y-105950000D03*
D32*
X78000000Y-100000000D03*
D30*
X73000000Y-94850000D03*
D29*
X72500000Y-100000000D03*
D33*
X69752500Y-103750000D03*
D31*
X83000000Y-103750000D03*
D34*
X81245000Y-105950000D03*
D31*
X73000000Y-103750000D03*
%TD*%
D36*
%TO.C,L6*%
X61700000Y-88700000D03*
X61700000Y-87300000D03*
X56300000Y-87300000D03*
X56300000Y-88700000D03*
%TD*%
D37*
%TO.C,D22*%
X127000000Y-83250000D03*
X127000000Y-86550000D03*
%TD*%
D29*
%TO.C,SW14*%
X102500000Y-77000000D03*
D30*
X102000000Y-71850000D03*
D31*
X97000000Y-82950000D03*
D32*
X97000000Y-77000000D03*
D30*
X92000000Y-71850000D03*
D29*
X91500000Y-77000000D03*
D33*
X88752500Y-80750000D03*
D31*
X102000000Y-80750000D03*
D34*
X100245000Y-82950000D03*
D31*
X92000000Y-80750000D03*
%TD*%
D36*
%TO.C,L1*%
X42700000Y-115700000D03*
X42700000Y-114300000D03*
X37300000Y-114300000D03*
X37300000Y-115700000D03*
%TD*%
D29*
%TO.C,SW11*%
X83500000Y-62000000D03*
D30*
X83000000Y-56850000D03*
D31*
X78000000Y-67950000D03*
D32*
X78000000Y-62000000D03*
D30*
X73000000Y-56850000D03*
D29*
X72500000Y-62000000D03*
D33*
X69752500Y-65750000D03*
D31*
X83000000Y-65750000D03*
D34*
X81245000Y-67950000D03*
D31*
X73000000Y-65750000D03*
%TD*%
D36*
%TO.C,L24*%
X137700000Y-44700000D03*
X137700000Y-43300000D03*
X132300000Y-43300000D03*
X132300000Y-44700000D03*
%TD*%
D38*
%TO.C,D27*%
X109107407Y-119385679D03*
X108819793Y-122673121D03*
%TD*%
D36*
%TO.C,L12*%
X80700000Y-38700000D03*
X80700000Y-37300000D03*
X75300000Y-37300000D03*
X75300000Y-38700000D03*
%TD*%
D37*
%TO.C,D25*%
X70000000Y-119250000D03*
X70000000Y-122550000D03*
%TD*%
D29*
%TO.C,SW7*%
X64500000Y-74000000D03*
D30*
X64000000Y-68850000D03*
D31*
X59000000Y-79950000D03*
D32*
X59000000Y-74000000D03*
D30*
X54000000Y-68850000D03*
D29*
X53500000Y-74000000D03*
D33*
X50752500Y-77750000D03*
D31*
X64000000Y-77750000D03*
D34*
X62245000Y-79950000D03*
D31*
X54000000Y-77750000D03*
%TD*%
D29*
%TO.C,SW17*%
X121500000Y-100000000D03*
D30*
X121000000Y-94850000D03*
D31*
X116000000Y-105950000D03*
D32*
X116000000Y-100000000D03*
D30*
X111000000Y-94850000D03*
D29*
X110500000Y-100000000D03*
D33*
X107752500Y-103750000D03*
D31*
X121000000Y-103750000D03*
D34*
X119245000Y-105950000D03*
D31*
X111000000Y-103750000D03*
%TD*%
D37*
%TO.C,D24*%
X127000000Y-45250000D03*
X127000000Y-48550000D03*
%TD*%
D36*
%TO.C,L19*%
X118700000Y-57700000D03*
X118700000Y-56300000D03*
X113300000Y-56300000D03*
X113300000Y-57700000D03*
%TD*%
D29*
%TO.C,SW18*%
X121500000Y-81000000D03*
D30*
X121000000Y-75850000D03*
D31*
X116000000Y-86950000D03*
D32*
X116000000Y-81000000D03*
D30*
X111000000Y-75850000D03*
D29*
X110500000Y-81000000D03*
D33*
X107752500Y-84750000D03*
D31*
X121000000Y-84750000D03*
D34*
X119245000Y-86950000D03*
D31*
X111000000Y-84750000D03*
%TD*%
D29*
%TO.C,SW13*%
X102500000Y-96000000D03*
D30*
X102000000Y-90850000D03*
D31*
X97000000Y-101950000D03*
D32*
X97000000Y-96000000D03*
D30*
X92000000Y-90850000D03*
D29*
X91500000Y-96000000D03*
D33*
X88752500Y-99750000D03*
D31*
X102000000Y-99750000D03*
D34*
X100245000Y-101950000D03*
D31*
X92000000Y-99750000D03*
%TD*%
D37*
%TO.C,D8*%
X51000000Y-51250000D03*
X51000000Y-54550000D03*
%TD*%
%TO.C,D16*%
X89000000Y-35250000D03*
X89000000Y-38550000D03*
%TD*%
%TO.C,D5*%
X51000000Y-108250000D03*
X51000000Y-111550000D03*
%TD*%
%TO.C,D23*%
X127000000Y-64250000D03*
X127000000Y-67550000D03*
%TD*%
D29*
%TO.C,SW3*%
X45500000Y-82000000D03*
D30*
X45000000Y-76850000D03*
D31*
X40000000Y-87950000D03*
D32*
X40000000Y-82000000D03*
D30*
X35000000Y-76850000D03*
D29*
X34500000Y-82000000D03*
D33*
X31752500Y-85750000D03*
D31*
X45000000Y-85750000D03*
D34*
X43245000Y-87950000D03*
D31*
X35000000Y-85750000D03*
%TD*%
D37*
%TO.C,D6*%
X51000000Y-89250000D03*
X51000000Y-92550000D03*
%TD*%
D39*
%TO.C,L29*%
X161293669Y-137486558D03*
X162193571Y-136414095D03*
X158056931Y-132943042D03*
X157157029Y-134015505D03*
%TD*%
D29*
%TO.C,SW29*%
X160674544Y-142580332D03*
D30*
X163601878Y-138313809D03*
D31*
X152636714Y-143602964D03*
D32*
X156461300Y-139045000D03*
D30*
X155941434Y-131885933D03*
D29*
X152248056Y-135509668D03*
D40*
X147732895Y-136616276D03*
D31*
X157881069Y-145131605D03*
D41*
X155122528Y-145688810D03*
D31*
X150220624Y-138703729D03*
%TD*%
D37*
%TO.C,D2*%
X32000000Y-97250000D03*
X32000000Y-100550000D03*
%TD*%
D29*
%TO.C,SW24*%
X140500000Y-49000000D03*
D30*
X140000000Y-43850000D03*
D31*
X135000000Y-54950000D03*
D32*
X135000000Y-49000000D03*
D30*
X130000000Y-43850000D03*
D29*
X129500000Y-49000000D03*
D33*
X126752500Y-52750000D03*
D31*
X140000000Y-52750000D03*
D34*
X138245000Y-54950000D03*
D31*
X130000000Y-52750000D03*
%TD*%
D37*
%TO.C,D20*%
X108000000Y-39250000D03*
X108000000Y-42550000D03*
%TD*%
%TO.C,D11*%
X70000000Y-58250000D03*
X70000000Y-61550000D03*
%TD*%
%TO.C,D10*%
X70000000Y-77250000D03*
X70000000Y-80550000D03*
%TD*%
D42*
%TO.C,L27*%
X119814617Y-119770357D03*
X119936635Y-118375684D03*
X114557183Y-117905043D03*
X114435165Y-119299716D03*
%TD*%
D29*
%TO.C,SW4*%
X45500000Y-63000000D03*
D30*
X45000000Y-57850000D03*
D31*
X40000000Y-68950000D03*
D32*
X40000000Y-63000000D03*
D30*
X35000000Y-57850000D03*
D29*
X34500000Y-63000000D03*
D33*
X31752500Y-66750000D03*
D31*
X45000000Y-66750000D03*
D34*
X43245000Y-68950000D03*
D31*
X35000000Y-66750000D03*
%TD*%
D29*
%TO.C,SW1*%
X45500000Y-120000000D03*
D30*
X45000000Y-114850000D03*
D31*
X40000000Y-125950000D03*
D32*
X40000000Y-120000000D03*
D30*
X35000000Y-114850000D03*
D29*
X34500000Y-120000000D03*
D33*
X31752500Y-123750000D03*
D31*
X45000000Y-123750000D03*
D34*
X43245000Y-125950000D03*
D31*
X35000000Y-123750000D03*
%TD*%
D29*
%TO.C,SW8*%
X64500000Y-55000000D03*
D30*
X64000000Y-49850000D03*
D31*
X59000000Y-60950000D03*
D32*
X59000000Y-55000000D03*
D30*
X54000000Y-49850000D03*
D29*
X53500000Y-55000000D03*
D33*
X50752500Y-58750000D03*
D31*
X64000000Y-58750000D03*
D34*
X62245000Y-60950000D03*
D31*
X54000000Y-58750000D03*
%TD*%
D29*
%TO.C,SW23*%
X140500000Y-68000000D03*
D30*
X140000000Y-62850000D03*
D31*
X135000000Y-73950000D03*
D32*
X135000000Y-68000000D03*
D30*
X130000000Y-62850000D03*
D29*
X129500000Y-68000000D03*
D33*
X126752500Y-71750000D03*
D31*
X140000000Y-71750000D03*
D34*
X138245000Y-73950000D03*
D31*
X130000000Y-71750000D03*
%TD*%
D36*
%TO.C,L3*%
X42700000Y-77700000D03*
X42700000Y-76300000D03*
X37300000Y-76300000D03*
X37300000Y-77700000D03*
%TD*%
D29*
%TO.C,SW25*%
X83500000Y-123000000D03*
D30*
X83000000Y-117850000D03*
D31*
X78000000Y-128950000D03*
D32*
X78000000Y-123000000D03*
D30*
X73000000Y-117850000D03*
D29*
X72500000Y-123000000D03*
D33*
X69752500Y-126750000D03*
D31*
X83000000Y-126750000D03*
D34*
X81245000Y-128950000D03*
D31*
X73000000Y-126750000D03*
%TD*%
D36*
%TO.C,L13*%
X99700000Y-91700000D03*
X99700000Y-90300000D03*
X94300000Y-90300000D03*
X94300000Y-91700000D03*
%TD*%
%TO.C,L7*%
X61700000Y-69700000D03*
X61700000Y-68300000D03*
X56300000Y-68300000D03*
X56300000Y-69700000D03*
%TD*%
%TO.C,L21*%
X137700000Y-101700000D03*
X137700000Y-100300000D03*
X132300000Y-100300000D03*
X132300000Y-101700000D03*
%TD*%
%TO.C,L10*%
X80700000Y-76700000D03*
X80700000Y-75300000D03*
X75300000Y-75300000D03*
X75300000Y-76700000D03*
%TD*%
%TO.C,L15*%
X99700000Y-53700000D03*
X99700000Y-52300000D03*
X94300000Y-52300000D03*
X94300000Y-53700000D03*
%TD*%
D29*
%TO.C,SW16*%
X102500000Y-39000000D03*
D30*
X102000000Y-33850000D03*
D31*
X97000000Y-44950000D03*
D32*
X97000000Y-39000000D03*
D30*
X92000000Y-33850000D03*
D29*
X91500000Y-39000000D03*
D33*
X88752500Y-42750000D03*
D31*
X102000000Y-42750000D03*
D34*
X100245000Y-44950000D03*
D31*
X92000000Y-42750000D03*
%TD*%
D37*
%TO.C,D4*%
X32000000Y-59250000D03*
X32000000Y-62550000D03*
%TD*%
%TO.C,D9*%
X70000000Y-96250000D03*
X70000000Y-99550000D03*
%TD*%
%TO.C,D21*%
X127000000Y-102250000D03*
X127000000Y-105550000D03*
%TD*%
%TO.C,D19*%
X108000000Y-58250000D03*
X108000000Y-61550000D03*
%TD*%
D36*
%TO.C,L14*%
X99700000Y-72700000D03*
X99700000Y-71300000D03*
X94300000Y-71300000D03*
X94300000Y-72700000D03*
%TD*%
%TO.C,L5*%
X61700000Y-107700000D03*
X61700000Y-106300000D03*
X56300000Y-106300000D03*
X56300000Y-107700000D03*
%TD*%
D37*
%TO.C,D17*%
X108000000Y-96250000D03*
X108000000Y-99550000D03*
%TD*%
D36*
%TO.C,L9*%
X80700000Y-95700000D03*
X80700000Y-94300000D03*
X75300000Y-94300000D03*
X75300000Y-95700000D03*
%TD*%
%TO.C,L16*%
X99700000Y-34700000D03*
X99700000Y-33300000D03*
X94300000Y-33300000D03*
X94300000Y-34700000D03*
%TD*%
D37*
%TO.C,D12*%
X70000000Y-39250000D03*
X70000000Y-42550000D03*
%TD*%
%TO.C,D14*%
X89000000Y-73250000D03*
X89000000Y-76550000D03*
%TD*%
%TO.C,D18*%
X108000000Y-77250000D03*
X108000000Y-80550000D03*
%TD*%
D29*
%TO.C,SW6*%
X64500000Y-93000000D03*
D30*
X64000000Y-87850000D03*
D31*
X59000000Y-98950000D03*
D32*
X59000000Y-93000000D03*
D30*
X54000000Y-87850000D03*
D29*
X53500000Y-93000000D03*
D33*
X50752500Y-96750000D03*
D31*
X64000000Y-96750000D03*
D34*
X62245000Y-98950000D03*
D31*
X54000000Y-96750000D03*
%TD*%
D36*
%TO.C,L20*%
X118700000Y-38700000D03*
X118700000Y-37300000D03*
X113300000Y-37300000D03*
X113300000Y-38700000D03*
%TD*%
%TO.C,L4*%
X42700000Y-58700000D03*
X42700000Y-57300000D03*
X37300000Y-57300000D03*
X37300000Y-58700000D03*
%TD*%
D43*
%TO.C,L28*%
X141470956Y-125159639D03*
X141949784Y-123844070D03*
X136875444Y-121997161D03*
X136396616Y-123312730D03*
%TD*%
D29*
%TO.C,SW28*%
X142631409Y-130158011D03*
D30*
X143922967Y-125147584D03*
D31*
X135428080Y-133868071D03*
D32*
X137463100Y-128276900D03*
D30*
X134526041Y-121727382D03*
D29*
X132294791Y-126395789D03*
D44*
X128430410Y-128979936D03*
D31*
X140878988Y-133510848D03*
D45*
X138477383Y-134977926D03*
D31*
X131482061Y-130090647D03*
%TD*%
D36*
%TO.C,L2*%
X42700000Y-96700000D03*
X42700000Y-95300000D03*
X37300000Y-95300000D03*
X37300000Y-96700000D03*
%TD*%
%TO.C,L26*%
X99700000Y-118700000D03*
X99700000Y-117300000D03*
X94300000Y-117300000D03*
X94300000Y-118700000D03*
%TD*%
D37*
%TO.C,D1*%
X32000000Y-116250000D03*
X32000000Y-119550000D03*
%TD*%
D36*
%TO.C,L17*%
X118700000Y-95700000D03*
X118700000Y-94300000D03*
X113300000Y-94300000D03*
X113300000Y-95700000D03*
%TD*%
%TO.C,L23*%
X137700000Y-63700000D03*
X137700000Y-62300000D03*
X132300000Y-62300000D03*
X132300000Y-63700000D03*
%TD*%
D46*
%TO.C,D28*%
X131228133Y-122016907D03*
X130099467Y-125117893D03*
%TD*%
D29*
%TO.C,SW12*%
X83500000Y-43000000D03*
D30*
X83000000Y-37850000D03*
D31*
X78000000Y-48950000D03*
D32*
X78000000Y-43000000D03*
D30*
X73000000Y-37850000D03*
D29*
X72500000Y-43000000D03*
D33*
X69752500Y-46750000D03*
D31*
X83000000Y-46750000D03*
D34*
X81245000Y-48950000D03*
D31*
X73000000Y-46750000D03*
%TD*%
D37*
%TO.C,D7*%
X51000000Y-70250000D03*
X51000000Y-73550000D03*
%TD*%
D29*
%TO.C,SW10*%
X83500000Y-81000000D03*
D30*
X83000000Y-75850000D03*
D31*
X78000000Y-86950000D03*
D32*
X78000000Y-81000000D03*
D30*
X73000000Y-75850000D03*
D29*
X72500000Y-81000000D03*
D33*
X69752500Y-84750000D03*
D31*
X83000000Y-84750000D03*
D34*
X81245000Y-86950000D03*
D31*
X73000000Y-84750000D03*
%TD*%
D29*
%TO.C,SW19*%
X121500000Y-62000000D03*
D30*
X121000000Y-56850000D03*
D31*
X116000000Y-67950000D03*
D32*
X116000000Y-62000000D03*
D30*
X111000000Y-56850000D03*
D29*
X110500000Y-62000000D03*
D33*
X107752500Y-65750000D03*
D31*
X121000000Y-65750000D03*
D34*
X119245000Y-67950000D03*
D31*
X111000000Y-65750000D03*
%TD*%
D37*
%TO.C,D3*%
X32000000Y-78250000D03*
X32000000Y-81550000D03*
%TD*%
%TO.C,D13*%
X89000000Y-92250000D03*
X89000000Y-95550000D03*
%TD*%
D29*
%TO.C,SW2*%
X45500000Y-101000000D03*
D30*
X45000000Y-95850000D03*
D31*
X40000000Y-106950000D03*
D32*
X40000000Y-101000000D03*
D30*
X35000000Y-95850000D03*
D29*
X34500000Y-101000000D03*
D33*
X31752500Y-104750000D03*
D31*
X45000000Y-104750000D03*
D34*
X43245000Y-106950000D03*
D31*
X35000000Y-104750000D03*
%TD*%
D29*
%TO.C,SW5*%
X64500000Y-112000000D03*
D30*
X64000000Y-106850000D03*
D31*
X59000000Y-117950000D03*
D32*
X59000000Y-112000000D03*
D30*
X54000000Y-106850000D03*
D29*
X53500000Y-112000000D03*
D33*
X50752500Y-115750000D03*
D31*
X64000000Y-115750000D03*
D34*
X62245000Y-117950000D03*
D31*
X54000000Y-115750000D03*
%TD*%
D29*
%TO.C,SW27*%
X122229271Y-124297957D03*
D30*
X122180026Y-119123976D03*
D31*
X116231623Y-129745958D03*
D32*
X116750200Y-123818600D03*
D30*
X112218079Y-118252419D03*
D29*
X111271129Y-123339243D03*
D47*
X108207250Y-126835513D03*
D31*
X121404339Y-127990109D03*
D48*
X119464275Y-130028779D03*
D31*
X111442389Y-127118551D03*
%TD*%
M02*
