0
SECTION
2
HEADER
9
$INSUNITS
70
4
0
ENDSEC
0
SECTION
2
TABLES
0
TABLE
2
LTYPE
0
LTYPE
72
65
70
64
2
CONTINUOUS
3
______
73
0
40
0
0
ENDTAB
0
TABLE
2
LAYER
0
ENDTAB
0
ENDSEC
0
SECTION
2
ENTITIES
0
LINE
8
0
10
179
20
-132
11
258.0023551
21
-132
0
LINE
8
0
10
178
20
-131
11
178
21
-54
0
LINE
8
0
10
179
20
-53
11
199
21
-53
0
LINE
8
0
10
201
20
-41
11
219
21
-41
0
LINE
8
0
10
200
20
-52
11
200
21
-42
0
LINE
8
0
10
221
20
-29
11
239
21
-29
0
LINE
8
0
10
220
20
-40
11
220
21
-30
0
LINE
8
0
10
241
20
-25
11
259
21
-25
0
LINE
8
0
10
260
20
-26
11
260
21
-28
0
LINE
8
0
10
240
20
-28
11
240
21
-26
0
LINE
8
0
10
261
20
-29
11
279
21
-29
0
LINE
8
0
10
280
20
-30
11
280
21
-34
0
LINE
8
0
10
308
20
-114
11
308
21
-118.9877595
0
LINE
8
0
10
324
20
-112
11
324
21
-36
0
LINE
8
0
10
323
20
-113
11
309
21
-113
0
LINE
8
0
10
281
20
-35
11
323
21
-35
0
LINE
8
0
10
258.0895108
20
-132.0038053
11
278.4570478
21
-133.7857339
0
LINE
8
0
10
278.7119122
20
-133.842236
11
294.6134583
21
-139.6299255
0
LINE
8
0
10
308.3572124
20
-119.7538039
11
325.189257
21
-133.8775663
0
LINE
8
0
10
311.1711864
20
-152.1393761
11
325.3125138
21
-135.2863983
0
LINE
8
0
10
294.9142257
20
-139.8035737
11
309.7623544
21
-152.2626329
0
ARC
8
0
10
179
20
-131
40
1
50
180
51
270
0
ARC
8
0
10
179
20
-54
40
1
50
90
51
180
0
ARC
8
0
10
199
20
-52
40
1
50
270
51
0
0
ARC
8
0
10
201
20
-42
40
1
50
90
51
180
0
ARC
8
0
10
219
20
-40
40
1
50
270
51
0
0
ARC
8
0
10
221
20
-30
40
1
50
90
51
180
0
ARC
8
0
10
239
20
-28
40
1
50
270
51
0
0
ARC
8
0
10
241
20
-26
40
1
50
90
51
180
0
ARC
8
0
10
259
20
-26
40
1
50
0
51
90
0
ARC
8
0
10
261
20
-28
40
1
50
180
51
270
0
ARC
8
0
10
279
20
-30
40
1
50
0
51
90
0
ARC
8
0
10
281
20
-34
40
1
50
180
51
270
0
ARC
8
0
10
323
20
-36
40
1
50
0
51
90
0
ARC
8
0
10
323
20
-112
40
1
50
270
51
0
0
ARC
8
0
10
309
20
-114
40
1
50
90
51
180
0
ARC
8
0
10
309
20
-118.9877595
40
1
50
180
51
229.9999988
0
ARC
8
0
10
324.5464694
20
-134.6436107
40
1
50
319.9999988
51
49.9999988
0
ARC
8
0
10
310.405142
20
-151.4965885
40
1
50
229.9999988
51
319.9999988
0
ARC
8
0
10
294.2714381
20
-140.5696181
40
1
50
49.9999988
51
69.9999965
0
ARC
8
0
10
278.3698921
20
-134.7819286
40
1
50
70.0000019
51
85.0000024
0
ARC
8
0
10
258.0023551
20
-133
40
1
50
85.0000024
51
90
0
CIRCLE
8
0
10
200
20
-120
40
1.6
0
CIRCLE
8
0
10
200
20
-63
40
1.6
0
CIRCLE
8
0
10
240
20
-109
40
1.6
0
CIRCLE
8
0
10
240
20
-50
40
1.6
0
CIRCLE
8
0
10
296.4819992
20
-115.83393
40
1.6
0
CIRCLE
8
0
10
300
20
-56
40
1.6
0
ENDSEC
0
EOF