0
SECTION
2
HEADER
9
$INSUNITS
70
4
0
ENDSEC
0
SECTION
2
TABLES
0
TABLE
2
LTYPE
0
LTYPE
72
65
70
64
2
CONTINUOUS
3
______
73
0
40
0
0
ENDTAB
0
TABLE
2
LAYER
0
ENDTAB
0
ENDSEC
0
SECTION
2
ENTITIES
0
LINE
8
0
10
29.1
20
-133.4
11
106.807892
21
-133.4
0
LINE
8
0
10
106.8950477
20
-133.4038053
11
125.0543034
21
-134.9925344
0
LINE
8
0
10
125.3091678
20
-135.0490365
11
141.8899408
21
-141.0839444
0
LINE
8
0
10
142.1907083
20
-141.2575926
11
156.8406657
21
-153.5503663
0
LINE
8
0
10
158.2494977
20
-153.4271095
11
172.9050551
21
-135.9612962
0
LINE
8
0
10
152.2572124
20
-117.3302917
11
172.7817983
21
-134.5524642
0
LINE
8
0
10
151.9
20
-116.5642473
11
151.9
21
-104.4
0
LINE
8
0
10
152.9
20
-103.4
11
169.9
21
-103.4
0
LINE
8
0
10
170.9
20
-102.4
11
170.9
21
-35.6
0
LINE
8
0
10
128.9
20
-34.6
11
169.9
21
-34.6
0
LINE
8
0
10
127.9
20
-33.6
11
127.9
21
-29.6
0
LINE
8
0
10
109.9
20
-28.6
11
126.9
21
-28.6
0
LINE
8
0
10
108.9
20
-27.6
11
108.9
21
-25.6
0
LINE
8
0
10
86.1
20
-24.6
11
107.9
21
-24.6
0
LINE
8
0
10
85.1
20
-27.6
11
85.1
21
-25.6
0
LINE
8
0
10
67.1
20
-28.6
11
84.1
21
-28.6
0
LINE
8
0
10
66.1
20
-39.6
11
66.1
21
-29.6
0
LINE
8
0
10
48.1
20
-40.6
11
65.1
21
-40.6
0
LINE
8
0
10
47.1
20
-51.6
11
47.1
21
-41.6
0
LINE
8
0
10
29.1
20
-52.6
11
46.1
21
-52.6
0
LINE
8
0
10
28.1
20
-132.4
11
28.1
21
-53.6
0
ARC
8
0
10
106.807892
20
-134.4
40
1
50
85.0000024
51
90
0
ARC
8
0
10
124.9671477
20
-135.9887291
40
1
50
70.0000019
51
85.0000024
0
ARC
8
0
10
141.5479207
20
-142.023637
40
1
50
49.9999988
51
70.0000019
0
ARC
8
0
10
157.4834533
20
-152.7843219
40
1
50
229.9999988
51
319.9999988
0
ARC
8
0
10
172.1390107
20
-135.3185086
40
1
50
319.9999988
51
49.9999988
0
ARC
8
0
10
152.9
20
-116.5642473
40
1
50
180
51
229.9999988
0
ARC
8
0
10
152.9
20
-104.4
40
1
50
90
51
180
0
ARC
8
0
10
169.9
20
-102.4
40
1
50
270
51
0
0
ARC
8
0
10
169.9
20
-35.6
40
1
50
0
51
90
0
ARC
8
0
10
128.9
20
-33.6
40
1
50
180
51
270
0
ARC
8
0
10
126.9
20
-29.6
40
1
50
0
51
90
0
ARC
8
0
10
109.9
20
-27.6
40
1
50
180
51
270
0
ARC
8
0
10
107.9
20
-25.6
40
1
50
0
51
90
0
ARC
8
0
10
86.1
20
-25.6
40
1
50
90
51
180
0
ARC
8
0
10
84.1
20
-27.6
40
1
50
270
51
0
0
ARC
8
0
10
67.1
20
-29.6
40
1
50
90
51
180
0
ARC
8
0
10
65.1
20
-39.6
40
1
50
270
51
0
0
ARC
8
0
10
48.1
20
-41.6
40
1
50
90
51
180
0
ARC
8
0
10
46.1
20
-51.6
40
1
50
270
51
0
0
ARC
8
0
10
29.1
20
-53.6
40
1
50
90
51
180
0
ARC
8
0
10
29.1
20
-132.4
40
1
50
180
51
270
0
CIRCLE
8
0
10
51
20
-120
40
3.2
0
CIRCLE
8
0
10
51
20
-63
40
3.2
0
CIRCLE
8
0
10
88
20
-110
40
3.2
0
CIRCLE
8
0
10
88
20
-50
40
3.2
0
CIRCLE
8
0
10
145
20
-115
40
3.2
0
CIRCLE
8
0
10
145
20
-41
40
3.2
0
ENDSEC
0
EOF