0
SECTION
2
HEADER
9
$INSUNITS
70
4
0
ENDSEC
0
SECTION
2
TABLES
0
TABLE
2
LTYPE
0
LTYPE
72
65
70
64
2
CONTINUOUS
3
______
73
0
40
0
0
ENDTAB
0
TABLE
2
LAYER
0
ENDTAB
0
ENDSEC
0
SECTION
2
ENTITIES
0
LINE
8
0
10
28.6
20
-132.4
11
107.9848904
21
-132.4
0
LINE
8
0
10
108.0720461
20
-132.4038053
11
128.369725
21
-134.179622
0
LINE
8
0
10
128.6245894
20
-134.2361241
11
144.4103729
21
-139.9816795
0
LINE
8
0
10
144.7111404
20
-140.1553277
11
160.2712837
21
-153.2118383
0
LINE
8
0
10
160.2712838
20
-153.2118383
11
160.5777015
21
-153.4689533
0
LINE
8
0
10
160.5777015
20
-153.4689533
11
175.8760466
21
-135.2370955
0
LINE
8
0
10
158.7572124
20
-119.5672808
11
175.7527898
21
-133.8282635
0
LINE
8
0
10
158.4
20
-118.8012364
11
158.4
21
-104.4
0
LINE
8
0
10
159.4
20
-103.4
11
173.4
21
-103.4
0
LINE
8
0
10
174.4
20
-102.4
11
174.4
21
-35.6
0
LINE
8
0
10
131.4
20
-34.6
11
173.4
21
-34.6
0
LINE
8
0
10
130.4
20
-33.6
11
130.4
21
-29.6
0
LINE
8
0
10
111.4
20
-28.6
11
129.4
21
-28.6
0
LINE
8
0
10
110.4
20
-27.6
11
110.4
21
-25.6
0
LINE
8
0
10
90.6
20
-24.6
11
109.4
21
-24.6
0
LINE
8
0
10
89.6
20
-27.6
11
89.6
21
-25.6
0
LINE
8
0
10
70.6
20
-28.6
11
88.6
21
-28.6
0
LINE
8
0
10
69.6
20
-39.6
11
69.6
21
-29.6
0
LINE
8
0
10
50.6
20
-40.6
11
68.6
21
-40.6
0
LINE
8
0
10
49.6
20
-51.6
11
49.6
21
-41.6
0
LINE
8
0
10
28.6
20
-52.6
11
48.6
21
-52.6
0
LINE
8
0
10
27.6
20
-131.4
11
27.6
21
-53.6
0
ARC
8
0
10
107.9848904
20
-133.4
40
1
50
85.0000024
51
90
0
ARC
8
0
10
128.2825693
20
-135.1758167
40
1
50
70.0000019
51
85.0000024
0
ARC
8
0
10
144.0683528
20
-140.9213721
40
1
50
49.9999988
51
70.0000019
0
ARC
8
0
10
175.1100022
20
-134.5943079
40
1
50
319.9999988
51
49.9999988
0
ARC
8
0
10
159.4
20
-118.8012364
40
1
50
180
51
229.9999988
0
ARC
8
0
10
159.4
20
-104.4
40
1
50
90
51
180
0
ARC
8
0
10
173.4
20
-102.4
40
1
50
270
51
0
0
ARC
8
0
10
173.4
20
-35.6
40
1
50
0
51
90
0
ARC
8
0
10
131.4
20
-33.6
40
1
50
180
51
270
0
ARC
8
0
10
129.4
20
-29.6
40
1
50
0
51
90
0
ARC
8
0
10
111.4
20
-27.6
40
1
50
180
51
270
0
ARC
8
0
10
109.4
20
-25.6
40
1
50
0
51
90
0
ARC
8
0
10
90.6
20
-25.6
40
1
50
90
51
180
0
ARC
8
0
10
88.6
20
-27.6
40
1
50
270
51
0
0
ARC
8
0
10
70.6
20
-29.6
40
1
50
90
51
180
0
ARC
8
0
10
68.6
20
-39.6
40
1
50
270
51
0
0
ARC
8
0
10
50.6
20
-41.6
40
1
50
90
51
180
0
ARC
8
0
10
48.6
20
-51.6
40
1
50
270
51
0
0
ARC
8
0
10
28.6
20
-53.6
40
1
50
90
51
180
0
ARC
8
0
10
28.6
20
-131.4
40
1
50
180
51
270
0
CIRCLE
8
0
10
51
20
-120
40
3.2
0
CIRCLE
8
0
10
51
20
-63
40
3.2
0
CIRCLE
8
0
10
90
20
-109
40
3.2
0
CIRCLE
8
0
10
90
20
-50
40
3.2
0
CIRCLE
8
0
10
150
20
-115
40
3.2
0
CIRCLE
8
0
10
150
20
-41
40
3.2
0
ENDSEC
0
EOF