0
SECTION
2
HEADER
9
$INSUNITS
70
4
0
ENDSEC
0
SECTION
2
TABLES
0
TABLE
2
LTYPE
0
LTYPE
72
65
70
64
2
CONTINUOUS
3
______
73
0
40
0
0
ENDTAB
0
TABLE
2
LAYER
0
ENDTAB
0
ENDSEC
0
SECTION
2
ENTITIES
0
LINE
8
0
10
29
20
-132
11
108.0023551
21
-132
0
LINE
8
0
10
28
20
-131
11
28
21
-54
0
LINE
8
0
10
29
20
-53
11
49
21
-53
0
LINE
8
0
10
51
20
-41
11
69
21
-41
0
LINE
8
0
10
50
20
-52
11
50
21
-42
0
LINE
8
0
10
71
20
-29
11
89
21
-29
0
LINE
8
0
10
70
20
-40
11
70
21
-30
0
LINE
8
0
10
91
20
-25
11
109
21
-25
0
LINE
8
0
10
110
20
-26
11
110
21
-28
0
LINE
8
0
10
90
20
-28
11
90
21
-26
0
LINE
8
0
10
111
20
-29
11
129
21
-29
0
LINE
8
0
10
130
20
-30
11
130
21
-34
0
LINE
8
0
10
158
20
-114
11
158
21
-118.9877595
0
LINE
8
0
10
174
20
-112
11
174
21
-36
0
LINE
8
0
10
173
20
-113
11
159
21
-113
0
LINE
8
0
10
131
20
-35
11
173
21
-35
0
LINE
8
0
10
108.0895108
20
-132.0038053
11
128.4570478
21
-133.7857339
0
LINE
8
0
10
128.7119122
20
-133.842236
11
144.6134583
21
-139.6299255
0
LINE
8
0
10
158.3572124
20
-119.7538039
11
175.189257
21
-133.8775663
0
LINE
8
0
10
161.1711864
20
-152.1393761
11
175.3125138
21
-135.2863983
0
LINE
8
0
10
144.9142257
20
-139.8035737
11
159.7623544
21
-152.2626329
0
ARC
8
0
10
29
20
-131
40
1
50
180
51
270
0
ARC
8
0
10
29
20
-54
40
1
50
90
51
180
0
ARC
8
0
10
49
20
-52
40
1
50
270
51
0
0
ARC
8
0
10
51
20
-42
40
1
50
90
51
180
0
ARC
8
0
10
69
20
-40
40
1
50
270
51
0
0
ARC
8
0
10
71
20
-30
40
1
50
90
51
180
0
ARC
8
0
10
89
20
-28
40
1
50
270
51
0
0
ARC
8
0
10
91
20
-26
40
1
50
90
51
180
0
ARC
8
0
10
109
20
-26
40
1
50
0
51
90
0
ARC
8
0
10
111
20
-28
40
1
50
180
51
270
0
ARC
8
0
10
129
20
-30
40
1
50
0
51
90
0
ARC
8
0
10
131
20
-34
40
1
50
180
51
270
0
ARC
8
0
10
173
20
-36
40
1
50
0
51
90
0
ARC
8
0
10
173
20
-112
40
1
50
270
51
0
0
ARC
8
0
10
159
20
-114
40
1
50
90
51
180
0
ARC
8
0
10
159
20
-118.9877595
40
1
50
180
51
229.9999988
0
ARC
8
0
10
174.5464694
20
-134.6436107
40
1
50
319.9999988
51
49.9999988
0
ARC
8
0
10
160.405142
20
-151.4965885
40
1
50
229.9999988
51
319.9999988
0
ARC
8
0
10
144.2714381
20
-140.5696181
40
1
50
49.9999988
51
69.9999965
0
ARC
8
0
10
128.3698921
20
-134.7819286
40
1
50
70.0000019
51
85.0000024
0
ARC
8
0
10
108.0023551
20
-133
40
1
50
85.0000024
51
90
0
ENDSEC
0
EOF