0
SECTION
2
HEADER
9
$INSUNITS
70
4
0
ENDSEC
0
SECTION
2
TABLES
0
TABLE
2
LTYPE
0
LTYPE
72
65
70
64
2
CONTINUOUS
3
______
73
0
40
0
0
ENDTAB
0
TABLE
2
LAYER
0
ENDTAB
0
ENDSEC
0
SECTION
2
ENTITIES
0
LINE
8
0
10
26.5
20
-135.4
11
106.7467663
21
-135.4
0
LINE
8
0
10
106.7816286
20
-135.4015221
11
124.6963794
21
-136.9688596
0
LINE
8
0
10
124.7983252
20
-136.9914605
11
140.9739298
21
-142.8788992
0
LINE
8
0
10
141.0942368
20
-142.9483584
11
157.5468059
21
-156.753703
0
LINE
8
0
10
158.1103387
20
-156.7044002
11
174.8228166
21
-136.7872448
0
LINE
8
0
10
174.8228166
20
-136.7872447
11
176.1083918
21
-135.2551559
0
LINE
8
0
10
154.042885
20
-116.2178342
11
176.059089
21
-134.6916231
0
LINE
8
0
10
153.9
20
-115.9114164
11
153.9
21
-105.8
0
LINE
8
0
10
154.3
20
-105.4
11
172.5
21
-105.4
0
LINE
8
0
10
172.9
20
-105
11
172.9
21
-100.4
0
LINE
8
0
10
172.9
20
-68.6
11
172.9
21
-33
0
LINE
8
0
10
130.3
20
-32.6
11
155.6
21
-32.6
0
LINE
8
0
10
166.4
20
-32.6
11
172.5
21
-32.6
0
LINE
8
0
10
129.9
20
-32.2
11
129.9
21
-27
0
LINE
8
0
10
111.3
20
-26.6
11
129.5
21
-26.6
0
LINE
8
0
10
110.9
20
-26.2
11
110.9
21
-23
0
LINE
8
0
10
83.5
20
-22.6
11
110.5
21
-22.6
0
LINE
8
0
10
83.1
20
-26.2
11
83.1
21
-23
0
LINE
8
0
10
64.5
20
-26.6
11
82.7
21
-26.6
0
LINE
8
0
10
64.1
20
-38.2
11
64.1
21
-27
0
LINE
8
0
10
45.5
20
-38.6
11
63.7
21
-38.6
0
LINE
8
0
10
45.1
20
-50.2
11
45.1
21
-39
0
LINE
8
0
10
26.5
20
-50.6
11
44.7
21
-50.6
0
LINE
8
0
10
26.1
20
-135
11
26.1
21
-51
0
LINE
8
0
10
28.5
20
-133.4
11
106.8340883
21
-133.4
0
LINE
8
0
10
106.8689506
20
-133.4015221
11
125.1329944
21
-134.9994189
0
LINE
8
0
10
125.2349401
20
-135.0220198
11
141.9893567
21
-141.1201288
0
LINE
8
0
10
142.1096637
20
-141.1895881
11
157.3002923
21
-153.9360389
0
LINE
8
0
10
157.8638251
20
-153.8867361
11
173.2907277
21
-135.5016695
0
LINE
8
0
10
152.042885
20
-117.1504496
11
173.2414249
21
-134.9381367
0
LINE
8
0
10
151.9
20
-116.8440318
11
151.9
21
-103.8
0
LINE
8
0
10
152.3
20
-103.4
11
170.5
21
-103.4
0
LINE
8
0
10
170.9
20
-103
11
170.9
21
-100.4
0
LINE
8
0
10
170.9
20
-68.6
11
170.9
21
-35
0
LINE
8
0
10
128.3
20
-34.6
11
155.6
21
-34.6
0
LINE
8
0
10
166.4
20
-34.6
11
170.5
21
-34.6
0
LINE
8
0
10
127.9
20
-34.2
11
127.9
21
-29
0
LINE
8
0
10
109.3
20
-28.6
11
127.5
21
-28.6
0
LINE
8
0
10
108.9
20
-28.2
11
108.9
21
-25
0
LINE
8
0
10
85.5
20
-24.6
11
108.5
21
-24.6
0
LINE
8
0
10
85.1
20
-28.2
11
85.1
21
-25
0
LINE
8
0
10
66.5
20
-28.6
11
84.7
21
-28.6
0
LINE
8
0
10
66.1
20
-40.2
11
66.1
21
-29
0
LINE
8
0
10
47.5
20
-40.6
11
65.7
21
-40.6
0
LINE
8
0
10
47.1
20
-52.2
11
47.1
21
-41
0
LINE
8
0
10
28.5
20
-52.6
11
46.7
21
-52.6
0
LINE
8
0
10
28.1
20
-133
11
28.1
21
-53
0
LINE
8
0
10
171.3
20
-100
11
172.5
21
-100
0
LINE
8
0
10
172.5
20
-69
11
171.3
21
-69
0
LINE
8
0
10
166
20
-34.2
11
166
21
-33
0
LINE
8
0
10
156
20
-33
11
156
21
-34.2
0
ARC
8
0
10
106.7467663
20
-135.8
40
0.4
50
85.0000024
51
90
0
ARC
8
0
10
124.6615172
20
-137.3673376
40
0.4
50
70.0000019
51
85.0000024
0
ARC
8
0
10
140.8371218
20
-143.2547762
40
0.4
50
49.9999988
51
70.0000019
0
ARC
8
0
10
157.803921
20
-156.4472852
40
0.4
50
229.9999988
51
319.9999988
0
ARC
8
0
10
175.801974
20
-134.9980409
40
0.4
50
319.9999988
51
49.9999988
0
ARC
8
0
10
154.3
20
-115.9114164
40
0.4
50
180
51
229.9999988
0
ARC
8
0
10
154.3
20
-105.8
40
0.4
50
90
51
180
0
ARC
8
0
10
172.5
20
-105
40
0.4
50
270
51
0
0
ARC
8
0
10
172.5
20
-100.4
40
0.4
50
0
51
90
0
ARC
8
0
10
171.3
20
-100.4
40
0.4
50
90
51
180
0
ARC
8
0
10
170.5
20
-103
40
0.4
50
270
51
0
0
ARC
8
0
10
152.3
20
-103.8
40
0.4
50
90
51
180
0
ARC
8
0
10
152.3
20
-116.8440318
40
0.4
50
180
51
229.9999988
0
ARC
8
0
10
172.9843099
20
-135.2445545
40
0.4
50
319.9999988
51
49.9999988
0
ARC
8
0
10
157.5574074
20
-153.6296211
40
0.4
50
229.9999988
51
319.9999988
0
ARC
8
0
10
141.8525487
20
-141.4960058
40
0.4
50
49.9999988
51
70.0000019
0
ARC
8
0
10
125.0981321
20
-135.3978968
40
0.4
50
70.0000019
51
85.0000024
0
ARC
8
0
10
106.8340883
20
-133.8
40
0.4
50
85.0000024
51
90
0
ARC
8
0
10
28.5
20
-133
40
0.4
50
180
51
270
0
ARC
8
0
10
28.5
20
-53
40
0.4
50
90
51
180
0
ARC
8
0
10
46.7
20
-52.2
40
0.4
50
270
51
0
0
ARC
8
0
10
47.5
20
-41
40
0.4
50
90
51
180
0
ARC
8
0
10
65.7
20
-40.2
40
0.4
50
270
51
0
0
ARC
8
0
10
66.5
20
-29
40
0.4
50
90
51
180
0
ARC
8
0
10
84.7
20
-28.2
40
0.4
50
270
51
0
0
ARC
8
0
10
85.5
20
-25
40
0.4
50
90
51
180
0
ARC
8
0
10
108.5
20
-25
40
0.4
50
0
51
90
0
ARC
8
0
10
109.3
20
-28.2
40
0.4
50
180
51
270
0
ARC
8
0
10
127.5
20
-29
40
0.4
50
0
51
90
0
ARC
8
0
10
128.3
20
-34.2
40
0.4
50
180
51
270
0
ARC
8
0
10
155.6
20
-34.2
40
0.4
50
270
51
0
0
ARC
8
0
10
155.6
20
-33
40
0.4
50
0
51
90
0
ARC
8
0
10
130.3
20
-32.2
40
0.4
50
180
51
270
0
ARC
8
0
10
129.5
20
-27
40
0.4
50
0
51
90
0
ARC
8
0
10
111.3
20
-26.2
40
0.4
50
180
51
270
0
ARC
8
0
10
110.5
20
-23
40
0.4
50
0
51
90
0
ARC
8
0
10
83.5
20
-23
40
0.4
50
90
51
180
0
ARC
8
0
10
82.7
20
-26.2
40
0.4
50
270
51
0
0
ARC
8
0
10
64.5
20
-27
40
0.4
50
90
51
180
0
ARC
8
0
10
63.7
20
-38.2
40
0.4
50
270
51
0
0
ARC
8
0
10
45.5
20
-39
40
0.4
50
90
51
180
0
ARC
8
0
10
44.7
20
-50.2
40
0.4
50
270
51
0
0
ARC
8
0
10
26.5
20
-51
40
0.4
50
90
51
180
0
ARC
8
0
10
26.5
20
-135
40
0.4
50
180
51
270
0
ARC
8
0
10
172.5
20
-33
40
0.4
50
0
51
90
0
ARC
8
0
10
166.4
20
-33
40
0.4
50
90
51
180
0
ARC
8
0
10
166.4
20
-34.2
40
0.4
50
180
51
270
0
ARC
8
0
10
170.5
20
-35
40
0.4
50
0
51
90
0
ARC
8
0
10
171.3
20
-68.6
40
0.4
50
180
51
270
0
ARC
8
0
10
172.5
20
-68.6
40
0.4
50
270
51
0
0
ENDSEC
0
EOF