0
SECTION
2
HEADER
9
$INSUNITS
70
4
0
ENDSEC
0
SECTION
2
TABLES
0
TABLE
2
LTYPE
0
LTYPE
72
65
70
64
2
CONTINUOUS
3
______
73
0
40
0
0
ENDTAB
0
TABLE
2
LAYER
0
ENDTAB
0
ENDSEC
0
SECTION
2
ENTITIES
0
LINE
8
0
10
26.6
20
-134.4
11
107.8975685
21
-134.4
0
LINE
8
0
10
107.9847242
20
-134.4038053
11
127.9331104
21
-136.1490629
0
LINE
8
0
10
128.1879748
20
-136.205565
11
143.394946
21
-141.7404499
0
LINE
8
0
10
143.6957135
20
-141.9140981
11
160.0581708
21
-155.6438298
0
LINE
8
0
10
161.4670028
20
-155.520573
11
178.6937107
21
-134.9905819
0
LINE
8
0
10
160.7572124
20
-118.6346654
11
178.5704539
21
-133.5817499
0
LINE
8
0
10
160.4
20
-116.4
11
160.4
21
-117.868621
0
LINE
8
0
10
161.4
20
-115.4
11
175.4
21
-115.4
0
LINE
8
0
10
176.4
20
-114.4
11
176.4
21
-111.5
0
LINE
8
0
10
176.4
20
-70.5
11
176.4
21
-33.6
0
LINE
8
0
10
133.4
20
-32.6
11
157
21
-32.6
0
LINE
8
0
10
168
20
-32.6
11
175.4
21
-32.6
0
LINE
8
0
10
132.4
20
-31.6
11
132.4
21
-27.6
0
LINE
8
0
10
113.4
20
-26.6
11
131.4
21
-26.6
0
LINE
8
0
10
112.4
20
-25.6
11
112.4
21
-23.6
0
LINE
8
0
10
88.6
20
-22.6
11
111.4
21
-22.6
0
LINE
8
0
10
87.6
20
-25.6
11
87.6
21
-23.6
0
LINE
8
0
10
68.6
20
-26.6
11
86.6
21
-26.6
0
LINE
8
0
10
67.6
20
-37.6
11
67.6
21
-27.6
0
LINE
8
0
10
48.6
20
-38.6
11
66.6
21
-38.6
0
LINE
8
0
10
47.6
20
-49.6
11
47.6
21
-39.6
0
LINE
8
0
10
26.6
20
-50.6
11
46.6
21
-50.6
0
LINE
8
0
10
25.6
20
-133.4
11
25.6
21
-51.6
0
LINE
8
0
10
28.6
20
-132.4
11
107.9848904
21
-132.4
0
LINE
8
0
10
108.0720461
20
-132.4038053
11
128.369725
21
-134.179622
0
LINE
8
0
10
128.6245894
20
-134.2361241
11
144.4103729
21
-139.9816795
0
LINE
8
0
10
144.7111404
20
-140.1553277
11
160.2712837
21
-153.2118383
0
LINE
8
0
10
160.2712838
20
-153.2118383
11
160.5777015
21
-153.4689533
0
LINE
8
0
10
160.5777015
20
-153.4689533
11
175.8760466
21
-135.2370955
0
LINE
8
0
10
158.7572124
20
-119.5672808
11
175.7527898
21
-133.8282635
0
LINE
8
0
10
158.4
20
-114.4
11
158.4
21
-118.8012364
0
LINE
8
0
10
159.4
20
-113.4
11
173.4
21
-113.4
0
LINE
8
0
10
174.4
20
-112.4
11
174.4
21
-110.5
0
LINE
8
0
10
174.4
20
-69.5
11
174.4
21
-35.6
0
LINE
8
0
10
131.4
20
-34.6
11
156
21
-34.6
0
LINE
8
0
10
167
20
-34.6
11
173.4
21
-34.6
0
LINE
8
0
10
130.4
20
-33.6
11
130.4
21
-29.6
0
LINE
8
0
10
111.4
20
-28.6
11
129.4
21
-28.6
0
LINE
8
0
10
110.4
20
-27.6
11
110.4
21
-25.6
0
LINE
8
0
10
90.6
20
-24.6
11
109.4
21
-24.6
0
LINE
8
0
10
89.6
20
-27.6
11
89.6
21
-25.6
0
LINE
8
0
10
70.6
20
-28.6
11
88.6
21
-28.6
0
LINE
8
0
10
69.6
20
-39.6
11
69.6
21
-29.6
0
LINE
8
0
10
50.6
20
-40.6
11
68.6
21
-40.6
0
LINE
8
0
10
49.6
20
-51.6
11
49.6
21
-41.6
0
LINE
8
0
10
28.6
20
-52.6
11
48.6
21
-52.6
0
LINE
8
0
10
27.6
20
-131.4
11
27.6
21
-53.6
0
LINE
8
0
10
174.4
20
-110.5
11
175.4
21
-110.5
0
LINE
8
0
10
176.4
20
-70.5
11
175.4
21
-70.5
0
LINE
8
0
10
167
20
-34.6
11
167
21
-33.6
0
LINE
8
0
10
157
20
-32.6
11
157
21
-33.6
0
ARC
8
0
10
107.8975685
20
-135.4
40
1
50
85.0000024
51
90
0
ARC
8
0
10
127.8459547
20
-137.1452576
40
1
50
70.0000019
51
85.0000024
0
ARC
8
0
10
143.0529259
20
-142.6801425
40
1
50
49.9999988
51
70.0000019
0
ARC
8
0
10
160.7009584
20
-154.8777854
40
1
50
229.9999988
51
319.9999988
0
ARC
8
0
10
177.9276663
20
-134.3477943
40
1
50
319.9999988
51
49.9999988
0
ARC
8
0
10
161.4
20
-117.868621
40
1
50
180
51
229.9999988
0
ARC
8
0
10
161.4
20
-116.4
40
1
50
90
51
180
0
ARC
8
0
10
175.4
20
-114.4
40
1
50
270
51
0
0
ARC
8
0
10
175.4
20
-111.5
40
1
50
0
51
90
0
ARC
8
0
10
173.4
20
-112.4
40
1
50
270
51
0
0
ARC
8
0
10
159.4
20
-114.4
40
1
50
90
51
180
0
ARC
8
0
10
159.4
20
-118.8012364
40
1
50
180
51
229.9999988
0
ARC
8
0
10
175.1100022
20
-134.5943079
40
1
50
319.9999988
51
49.9999988
0
ARC
8
0
10
144.0683528
20
-140.9213721
40
1
50
49.9999988
51
70.0000019
0
ARC
8
0
10
128.2825693
20
-135.1758167
40
1
50
70.0000019
51
85.0000024
0
ARC
8
0
10
107.9848904
20
-133.4
40
1
50
85.0000024
51
90
0
ARC
8
0
10
28.6
20
-131.4
40
1
50
180
51
270
0
ARC
8
0
10
28.6
20
-53.6
40
1
50
90
51
180
0
ARC
8
0
10
48.6
20
-51.6
40
1
50
270
51
0
0
ARC
8
0
10
50.6
20
-41.6
40
1
50
90
51
180
0
ARC
8
0
10
68.6
20
-39.6
40
1
50
270
51
0
0
ARC
8
0
10
70.6
20
-29.6
40
1
50
90
51
180
0
ARC
8
0
10
88.6
20
-27.6
40
1
50
270
51
0
0
ARC
8
0
10
90.6
20
-25.6
40
1
50
90
51
180
0
ARC
8
0
10
109.4
20
-25.6
40
1
50
0
51
90
0
ARC
8
0
10
111.4
20
-27.6
40
1
50
180
51
270
0
ARC
8
0
10
129.4
20
-29.6
40
1
50
0
51
90
0
ARC
8
0
10
131.4
20
-33.6
40
1
50
180
51
270
0
ARC
8
0
10
156
20
-33.6
40
1
50
270
51
0
0
ARC
8
0
10
133.4
20
-31.6
40
1
50
180
51
270
0
ARC
8
0
10
131.4
20
-27.6
40
1
50
0
51
90
0
ARC
8
0
10
113.4
20
-25.6
40
1
50
180
51
270
0
ARC
8
0
10
111.4
20
-23.6
40
1
50
0
51
90
0
ARC
8
0
10
88.6
20
-23.6
40
1
50
90
51
180
0
ARC
8
0
10
86.6
20
-25.6
40
1
50
270
51
0
0
ARC
8
0
10
68.6
20
-27.6
40
1
50
90
51
180
0
ARC
8
0
10
66.6
20
-37.6
40
1
50
270
51
0
0
ARC
8
0
10
48.6
20
-39.6
40
1
50
90
51
180
0
ARC
8
0
10
46.6
20
-49.6
40
1
50
270
51
0
0
ARC
8
0
10
26.6
20
-51.6
40
1
50
90
51
180
0
ARC
8
0
10
26.6
20
-133.4
40
1
50
180
51
270
0
ARC
8
0
10
175.4
20
-33.6
40
1
50
0
51
90
0
ARC
8
0
10
168
20
-33.6
40
1
50
90
51
180
0
ARC
8
0
10
173.4
20
-35.6
40
1
50
0
51
90
0
ARC
8
0
10
175.4
20
-69.5
40
1
50
180
51
270
0
ENDSEC
0
EOF