0
SECTION
2
HEADER
9
$INSUNITS
70
4
0
ENDSEC
0
SECTION
2
TABLES
0
TABLE
2
LTYPE
0
LTYPE
72
65
70
64
2
CONTINUOUS
3
______
73
0
40
0
0
ENDTAB
0
TABLE
2
LAYER
0
ENDTAB
0
ENDSEC
0
SECTION
2
ENTITIES
0
LINE
8
0
10
26
20
-134.4
11
107.9237648
21
-134.4
0
LINE
8
0
10
107.9586271
20
-134.4015221
11
128.0118014
21
-136.1559475
0
LINE
8
0
10
128.1137471
20
-136.1785483
11
143.4943618
21
-141.7766343
0
LINE
8
0
10
143.6146689
20
-141.8460935
11
160.5177974
21
-156.0295024
0
LINE
8
0
10
161.0813302
20
-155.9801996
11
179.0793833
21
-134.5309553
0
LINE
8
0
10
160.542885
20
-118.4548234
11
179.0300805
21
-133.9674225
0
LINE
8
0
10
160.4
20
-118.1484056
11
160.4
21
-105.8
0
LINE
8
0
10
160.8
20
-105.4
11
173
21
-105.4
0
LINE
8
0
10
176.4
20
-70.1
11
176.4
21
-33
0
LINE
8
0
10
132.8
20
-32.6
11
156.6
21
-32.6
0
LINE
8
0
10
167.4
20
-32.6
11
176
21
-32.6
0
LINE
8
0
10
132.4
20
-32.2
11
132.4
21
-27
0
LINE
8
0
10
112.8
20
-26.6
11
132
21
-26.6
0
LINE
8
0
10
112.4
20
-26.2
11
112.4
21
-23
0
LINE
8
0
10
88
20
-22.6
11
112
21
-22.6
0
LINE
8
0
10
87.6
20
-26.2
11
87.6
21
-23
0
LINE
8
0
10
68
20
-26.6
11
87.2
21
-26.6
0
LINE
8
0
10
67.6
20
-38.2
11
67.6
21
-27
0
LINE
8
0
10
48
20
-38.6
11
67.2
21
-38.6
0
LINE
8
0
10
47.6
20
-50.2
11
47.6
21
-39
0
LINE
8
0
10
26
20
-50.6
11
47.2
21
-50.6
0
LINE
8
0
10
25.6
20
-134
11
25.6
21
-51
0
LINE
8
0
10
28
20
-132.4
11
108.0110867
21
-132.4
0
LINE
8
0
10
108.045949
20
-132.4015221
11
128.448416
21
-134.1865066
0
LINE
8
0
10
128.5503617
20
-134.2091075
11
144.5097887
21
-140.0178639
0
LINE
8
0
10
144.6300957
20
-140.0873232
11
160.2712837
21
-153.2118383
0
LINE
8
0
10
160.2712838
20
-153.2118383
11
160.5777015
21
-153.4689533
0
LINE
8
0
10
160.5777015
20
-153.4689533
11
176.2617192
21
-134.7774689
0
LINE
8
0
10
158.542885
20
-119.3874388
11
176.2124164
21
-134.2139361
0
LINE
8
0
10
158.4
20
-119.081021
11
158.4
21
-103.8
0
LINE
8
0
10
158.8
20
-103.4
11
173
21
-103.4
0
LINE
8
0
10
174.4
20
-70.1
11
174.4
21
-35
0
LINE
8
0
10
130.8
20
-34.6
11
156.6
21
-34.6
0
LINE
8
0
10
167.4
20
-34.6
11
174
21
-34.6
0
LINE
8
0
10
130.4
20
-34.2
11
130.4
21
-29
0
LINE
8
0
10
110.8
20
-28.6
11
130
21
-28.6
0
LINE
8
0
10
110.4
20
-28.2
11
110.4
21
-25
0
LINE
8
0
10
90
20
-24.6
11
110
21
-24.6
0
LINE
8
0
10
89.6
20
-28.2
11
89.6
21
-25
0
LINE
8
0
10
70
20
-28.6
11
89.2
21
-28.6
0
LINE
8
0
10
69.6
20
-40.2
11
69.6
21
-29
0
LINE
8
0
10
50
20
-40.6
11
69.2
21
-40.6
0
LINE
8
0
10
49.6
20
-52.2
11
49.6
21
-41
0
LINE
8
0
10
28
20
-52.6
11
49.2
21
-52.6
0
LINE
8
0
10
27.6
20
-132
11
27.6
21
-53
0
LINE
8
0
10
176
20
-70.5
11
174.8
21
-70.5
0
LINE
8
0
10
173.4
20
-103.8
11
173.4
21
-105
0
LINE
8
0
10
167
20
-34.2
11
167
21
-33
0
LINE
8
0
10
157
20
-33
11
157
21
-34.2
0
ARC
8
0
10
107.9237648
20
-134.8
40
0.4
50
85.0000024
51
90
0
ARC
8
0
10
127.9769391
20
-136.5544254
40
0.4
50
70.0000019
51
85.0000024
0
ARC
8
0
10
143.3575538
20
-142.1525113
40
0.4
50
49.9999988
51
70.0000019
0
ARC
8
0
10
160.7749125
20
-155.7230846
40
0.4
50
229.9999988
51
319.9999988
0
ARC
8
0
10
178.7729655
20
-134.2738402
40
0.4
50
319.9999988
51
49.9999988
0
ARC
8
0
10
160.8
20
-118.1484056
40
0.4
50
180
51
229.9999988
0
ARC
8
0
10
160.8
20
-105.8
40
0.4
50
90
51
180
0
ARC
8
0
10
173
20
-105
40
0.4
50
270
51
0
0
ARC
8
0
10
173
20
-103.8
40
0.4
50
0
51
90
0
ARC
8
0
10
158.8
20
-103.8
40
0.4
50
90
51
180
0
ARC
8
0
10
158.8
20
-119.081021
40
0.4
50
180
51
229.9999988
0
ARC
8
0
10
175.9553014
20
-134.5203538
40
0.4
50
319.9999988
51
49.9999988
0
ARC
8
0
10
144.3729807
20
-140.3937409
40
0.4
50
49.9999988
51
70.0000019
0
ARC
8
0
10
128.4135537
20
-134.5849845
40
0.4
50
70.0000019
51
85.0000024
0
ARC
8
0
10
108.0110867
20
-132.8
40
0.4
50
85.0000024
51
90
0
ARC
8
0
10
28
20
-132
40
0.4
50
180
51
270
0
ARC
8
0
10
28
20
-53
40
0.4
50
90
51
180
0
ARC
8
0
10
49.2
20
-52.2
40
0.4
50
270
51
0
0
ARC
8
0
10
50
20
-41
40
0.4
50
90
51
180
0
ARC
8
0
10
69.2
20
-40.2
40
0.4
50
270
51
0
0
ARC
8
0
10
70
20
-29
40
0.4
50
90
51
180
0
ARC
8
0
10
89.2
20
-28.2
40
0.4
50
270
51
0
0
ARC
8
0
10
90
20
-25
40
0.4
50
90
51
180
0
ARC
8
0
10
110
20
-25
40
0.4
50
0
51
90
0
ARC
8
0
10
110.8
20
-28.2
40
0.4
50
180
51
270
0
ARC
8
0
10
130
20
-29
40
0.4
50
0
51
90
0
ARC
8
0
10
130.8
20
-34.2
40
0.4
50
180
51
270
0
ARC
8
0
10
156.6
20
-34.2
40
0.4
50
270
51
0
0
ARC
8
0
10
156.6
20
-33
40
0.4
50
0
51
90
0
ARC
8
0
10
132.8
20
-32.2
40
0.4
50
180
51
270
0
ARC
8
0
10
132
20
-27
40
0.4
50
0
51
90
0
ARC
8
0
10
112.8
20
-26.2
40
0.4
50
180
51
270
0
ARC
8
0
10
112
20
-23
40
0.4
50
0
51
90
0
ARC
8
0
10
88
20
-23
40
0.4
50
90
51
180
0
ARC
8
0
10
87.2
20
-26.2
40
0.4
50
270
51
0
0
ARC
8
0
10
68
20
-27
40
0.4
50
90
51
180
0
ARC
8
0
10
67.2
20
-38.2
40
0.4
50
270
51
0
0
ARC
8
0
10
48
20
-39
40
0.4
50
90
51
180
0
ARC
8
0
10
47.2
20
-50.2
40
0.4
50
270
51
0
0
ARC
8
0
10
26
20
-51
40
0.4
50
90
51
180
0
ARC
8
0
10
26
20
-134
40
0.4
50
180
51
270
0
ARC
8
0
10
176
20
-33
40
0.4
50
0
51
90
0
ARC
8
0
10
167.4
20
-33
40
0.4
50
90
51
180
0
ARC
8
0
10
167.4
20
-34.2
40
0.4
50
180
51
270
0
ARC
8
0
10
174
20
-35
40
0.4
50
0
51
90
0
ARC
8
0
10
174.8
20
-70.1
40
0.4
50
180
51
270
0
ARC
8
0
10
176
20
-70.1
40
0.4
50
270
51
0
0
ENDSEC
0
EOF