0
SECTION
2
HEADER
9
$INSUNITS
70
4
0
ENDSEC
0
SECTION
2
TABLES
0
TABLE
2
LTYPE
0
LTYPE
72
65
70
64
2
CONTINUOUS
3
______
73
0
40
0
0
ENDTAB
0
TABLE
2
LAYER
0
ENDTAB
0
ENDSEC
0
SECTION
2
ENTITIES
0
LINE
8
0
10
29.5
20
-133
11
106.8253566
21
-133
0
LINE
8
0
10
28.5
20
-132
11
28.5
21
-54
0
LINE
8
0
10
29.5
20
-53
11
46.5
21
-53
0
LINE
8
0
10
48.5
20
-41
11
65.5
21
-41
0
LINE
8
0
10
47.5
20
-52
11
47.5
21
-42
0
LINE
8
0
10
67.5
20
-29
11
84.5
21
-29
0
LINE
8
0
10
66.5
20
-40
11
66.5
21
-30
0
LINE
8
0
10
86.5
20
-25
11
107.5
21
-25
0
LINE
8
0
10
108.5
20
-26
11
108.5
21
-28
0
LINE
8
0
10
85.5
20
-28
11
85.5
21
-26
0
LINE
8
0
10
109.5
20
-29
11
126.5
21
-29
0
LINE
8
0
10
127.5
20
-30
11
127.5
21
-34
0
LINE
8
0
10
151.5
20
-116.7507703
11
151.5
21
-104
0
LINE
8
0
10
128.5
20
-35
11
151.5
21
-35
0
LINE
8
0
10
106.9125123
20
-133.0038053
11
125.141626
21
-134.5986461
0
LINE
8
0
10
125.3964904
20
-134.6551482
11
142.093026
21
-140.7321902
0
LINE
8
0
10
151.8572124
20
-117.5168147
11
172.2182655
21
-134.6017669
0
LINE
8
0
10
158.2001949
20
-152.8635767
11
172.3415223
21
-136.0105989
0
LINE
8
0
10
142.3937935
20
-140.9058384
11
156.7913629
21
-152.9868335
0
ARC
8
0
10
106.8253566
20
-134
40
1
50
85.0000024
51
90
0
ARC
8
0
10
125.0544703
20
-135.5948408
40
1
50
70.0000019
51
85.0000024
0
ARC
8
0
10
141.7510059
20
-141.6718828
40
1
50
49.9999988
51
70.0000019
0
ARC
8
0
10
157.4341505
20
-152.2207891
40
1
50
229.9999988
51
319.9999988
0
ARC
8
0
10
171.5754779
20
-135.3678113
40
1
50
319.9999988
51
49.9999988
0
ARC
8
0
10
152.5
20
-116.7507703
40
1
50
180
51
229.9999988
0
ARC
8
0
10
152.5
20
-104
40
1
50
149.9999999
51
180
0
ARC
8
0
10
128.5
20
-34
40
1
50
180
51
270
0
ARC
8
0
10
126.5
20
-30
40
1
50
0
51
90
0
ARC
8
0
10
109.5
20
-28
40
1
50
180
51
270
0
ARC
8
0
10
107.5
20
-26
40
1
50
0
51
90
0
ARC
8
0
10
86.5
20
-26
40
1
50
90
51
180
0
ARC
8
0
10
84.5
20
-28
40
1
50
270
51
0
0
ARC
8
0
10
67.5
20
-30
40
1
50
90
51
180
0
ARC
8
0
10
65.5
20
-40
40
1
50
270
51
0
0
ARC
8
0
10
48.5
20
-42
40
1
50
90
51
180
0
ARC
8
0
10
46.5
20
-52
40
1
50
270
51
0
0
ARC
8
0
10
29.5
20
-54
40
1
50
90
51
180
0
ARC
8
0
10
29.5
20
-132
40
1
50
180
51
270
0
CIRCLE
8
0
10
51
20
-120
40
1.6
0
CIRCLE
8
0
10
51
20
-63
40
1.6
0
CIRCLE
8
0
10
88
20
-110
40
1.6
0
CIRCLE
8
0
10
88
20
-50
40
1.6
0
CIRCLE
8
0
10
145
20
-115
40
1.6
0
CIRCLE
8
0
10
145
20
-41
40
1.6
0
LINE
8
0
10
151.5
20
-103.5
11
151.6339746
21
-103.5
0
LINE
8
0
10
151.5
20
-35
11
151.5
21
-103.5
0
LINE
8
0
10
32.7
20
-127.3
11
47.3
21
-127.3
0
LINE
8
0
10
47.3
20
-127.3
11
47.3
21
-112.7
0
LINE
8
0
10
47.3
20
-112.7
11
32.7
21
-112.7
0
LINE
8
0
10
32.7
20
-112.7
11
32.7
21
-127.3
0
LINE
8
0
10
32.7
20
-108.3
11
47.3
21
-108.3
0
LINE
8
0
10
47.3
20
-108.3
11
47.3
21
-93.7
0
LINE
8
0
10
47.3
20
-93.7
11
32.7
21
-93.7
0
LINE
8
0
10
32.7
20
-93.7
11
32.7
21
-108.3
0
LINE
8
0
10
32.7
20
-89.3
11
47.3
21
-89.3
0
LINE
8
0
10
47.3
20
-89.3
11
47.3
21
-74.7
0
LINE
8
0
10
47.3
20
-74.7
11
32.7
21
-74.7
0
LINE
8
0
10
32.7
20
-74.7
11
32.7
21
-89.3
0
LINE
8
0
10
32.7
20
-70.3
11
47.3
21
-70.3
0
LINE
8
0
10
47.3
20
-70.3
11
47.3
21
-55.7
0
LINE
8
0
10
47.3
20
-55.7
11
32.7
21
-55.7
0
LINE
8
0
10
32.7
20
-55.7
11
32.7
21
-70.3
0
LINE
8
0
10
51.7
20
-117.3
11
66.3
21
-117.3
0
LINE
8
0
10
66.3
20
-117.3
11
66.3
21
-102.7
0
LINE
8
0
10
66.3
20
-102.7
11
51.7
21
-102.7
0
LINE
8
0
10
51.7
20
-102.7
11
51.7
21
-117.3
0
LINE
8
0
10
51.7
20
-98.3
11
66.3
21
-98.3
0
LINE
8
0
10
66.3
20
-98.3
11
66.3
21
-83.7
0
LINE
8
0
10
66.3
20
-83.7
11
51.7
21
-83.7
0
LINE
8
0
10
51.7
20
-83.7
11
51.7
21
-98.3
0
LINE
8
0
10
51.7
20
-79.3
11
66.3
21
-79.3
0
LINE
8
0
10
66.3
20
-79.3
11
66.3
21
-64.7
0
LINE
8
0
10
66.3
20
-64.7
11
51.7
21
-64.7
0
LINE
8
0
10
51.7
20
-64.7
11
51.7
21
-79.3
0
LINE
8
0
10
51.7
20
-60.3
11
66.3
21
-60.3
0
LINE
8
0
10
66.3
20
-60.3
11
66.3
21
-45.7
0
LINE
8
0
10
66.3
20
-45.7
11
51.7
21
-45.7
0
LINE
8
0
10
51.7
20
-45.7
11
51.7
21
-60.3
0
LINE
8
0
10
70.7
20
-105.3
11
85.3
21
-105.3
0
LINE
8
0
10
85.3
20
-105.3
11
85.3
21
-90.7
0
LINE
8
0
10
85.3
20
-90.7
11
70.7
21
-90.7
0
LINE
8
0
10
70.7
20
-90.7
11
70.7
21
-105.3
0
LINE
8
0
10
70.7
20
-86.3
11
85.3
21
-86.3
0
LINE
8
0
10
85.3
20
-86.3
11
85.3
21
-71.7
0
LINE
8
0
10
85.3
20
-71.7
11
70.7
21
-71.7
0
LINE
8
0
10
70.7
20
-71.7
11
70.7
21
-86.3
0
LINE
8
0
10
70.7
20
-67.3
11
85.3
21
-67.3
0
LINE
8
0
10
85.3
20
-67.3
11
85.3
21
-52.7
0
LINE
8
0
10
85.3
20
-52.7
11
70.7
21
-52.7
0
LINE
8
0
10
70.7
20
-52.7
11
70.7
21
-67.3
0
LINE
8
0
10
70.7
20
-48.3
11
85.3
21
-48.3
0
LINE
8
0
10
85.3
20
-48.3
11
85.3
21
-33.7
0
LINE
8
0
10
85.3
20
-33.7
11
70.7
21
-33.7
0
LINE
8
0
10
70.7
20
-33.7
11
70.7
21
-48.3
0
LINE
8
0
10
89.7
20
-101.3
11
104.3
21
-101.3
0
LINE
8
0
10
104.3
20
-101.3
11
104.3
21
-86.7
0
LINE
8
0
10
104.3
20
-86.7
11
89.7
21
-86.7
0
LINE
8
0
10
89.7
20
-86.7
11
89.7
21
-101.3
0
LINE
8
0
10
89.7
20
-82.3
11
104.3
21
-82.3
0
LINE
8
0
10
104.3
20
-82.3
11
104.3
21
-67.7
0
LINE
8
0
10
104.3
20
-67.7
11
89.7
21
-67.7
0
LINE
8
0
10
89.7
20
-67.7
11
89.7
21
-82.3
0
LINE
8
0
10
89.7
20
-63.3
11
104.3
21
-63.3
0
LINE
8
0
10
104.3
20
-63.3
11
104.3
21
-48.7
0
LINE
8
0
10
104.3
20
-48.7
11
89.7
21
-48.7
0
LINE
8
0
10
89.7
20
-48.7
11
89.7
21
-63.3
0
LINE
8
0
10
89.7
20
-44.3
11
104.3
21
-44.3
0
LINE
8
0
10
104.3
20
-44.3
11
104.3
21
-29.7
0
LINE
8
0
10
104.3
20
-29.7
11
89.7
21
-29.7
0
LINE
8
0
10
89.7
20
-29.7
11
89.7
21
-44.3
0
LINE
8
0
10
108.7
20
-105.3
11
123.3
21
-105.3
0
LINE
8
0
10
123.3
20
-105.3
11
123.3
21
-90.7
0
LINE
8
0
10
123.3
20
-90.7
11
108.7
21
-90.7
0
LINE
8
0
10
108.7
20
-90.7
11
108.7
21
-105.3
0
LINE
8
0
10
108.7
20
-86.3
11
123.3
21
-86.3
0
LINE
8
0
10
123.3
20
-86.3
11
123.3
21
-71.7
0
LINE
8
0
10
123.3
20
-71.7
11
108.7
21
-71.7
0
LINE
8
0
10
108.7
20
-71.7
11
108.7
21
-86.3
0
LINE
8
0
10
108.7
20
-67.3
11
123.3
21
-67.3
0
LINE
8
0
10
123.3
20
-67.3
11
123.3
21
-52.7
0
LINE
8
0
10
123.3
20
-52.7
11
108.7
21
-52.7
0
LINE
8
0
10
108.7
20
-52.7
11
108.7
21
-67.3
0
LINE
8
0
10
108.7
20
-48.3
11
123.3
21
-48.3
0
LINE
8
0
10
123.3
20
-48.3
11
123.3
21
-33.7
0
LINE
8
0
10
123.3
20
-33.7
11
108.7
21
-33.7
0
LINE
8
0
10
108.7
20
-33.7
11
108.7
21
-48.3
0
LINE
8
0
10
127.7
20
-111.3
11
142.3
21
-111.3
0
LINE
8
0
10
142.3
20
-111.3
11
142.3
21
-96.7
0
LINE
8
0
10
142.3
20
-96.7
11
127.7
21
-96.7
0
LINE
8
0
10
127.7
20
-96.7
11
127.7
21
-111.3
0
LINE
8
0
10
127.7
20
-92.3
11
142.3
21
-92.3
0
LINE
8
0
10
142.3
20
-92.3
11
142.3
21
-77.7
0
LINE
8
0
10
142.3
20
-77.7
11
127.7
21
-77.7
0
LINE
8
0
10
127.7
20
-77.7
11
127.7
21
-92.3
0
LINE
8
0
10
127.7
20
-73.3
11
142.3
21
-73.3
0
LINE
8
0
10
142.3
20
-73.3
11
142.3
21
-58.7
0
LINE
8
0
10
142.3
20
-58.7
11
127.7
21
-58.7
0
LINE
8
0
10
127.7
20
-58.7
11
127.7
21
-73.3
0
LINE
8
0
10
127.7
20
-54.3
11
142.3
21
-54.3
0
LINE
8
0
10
142.3
20
-54.3
11
142.3
21
-39.7
0
LINE
8
0
10
142.3
20
-39.7
11
127.7
21
-39.7
0
LINE
8
0
10
127.7
20
-39.7
11
127.7
21
-54.3
0
LINE
8
0
10
70.7
20
-128.3
11
85.3
21
-128.3
0
LINE
8
0
10
85.3
20
-128.3
11
85.3
21
-113.7
0
LINE
8
0
10
85.3
20
-113.7
11
70.7
21
-113.7
0
LINE
8
0
10
70.7
20
-113.7
11
70.7
21
-128.3
0
LINE
8
0
10
89.7
20
-128.3
11
104.3
21
-128.3
0
LINE
8
0
10
104.3
20
-128.3
11
104.3
21
-113.7
0
LINE
8
0
10
104.3
20
-113.7
11
89.7
21
-113.7
0
LINE
8
0
10
89.7
20
-113.7
11
89.7
21
-128.3
0
LINE
8
0
10
108.8416958
20
-128.4546338
11
123.3861384
21
-129.7271076
0
LINE
8
0
10
123.3861384
20
-129.7271076
11
124.6586122
21
-115.182665
0
LINE
8
0
10
124.6586122
20
-115.182665
11
110.1141696
21
-113.9101912
0
LINE
8
0
10
110.1141696
20
-113.9101912
11
108.8416958
21
-128.4546338
0
LINE
8
0
10
128.1066109
20
-130.6399159
11
141.8261232
21
-135.63341
0
LINE
8
0
10
141.8261232
20
-135.63341
11
146.8196173
21
-121.9138977
0
LINE
8
0
10
146.8196173
20
-121.9138977
11
133.100105
21
-116.9204036
0
LINE
8
0
10
133.100105
20
-116.9204036
11
128.1066109
21
-130.6399159
0
LINE
8
0
10
146.1768735
20
-137.9448052
11
157.3611224
21
-147.3295043
0
LINE
8
0
10
157.3611224
20
-147.3295043
11
166.7458215
21
-136.1452554
0
LINE
8
0
10
166.7458215
20
-136.1452554
11
155.5615726
21
-126.7605563
0
LINE
8
0
10
155.5615726
20
-126.7605563
11
146.1768735
21
-137.9448052
0
ENDSEC
0
EOF