0
SECTION
2
HEADER
9
$INSUNITS
70
4
0
ENDSEC
0
SECTION
2
TABLES
0
TABLE
2
LTYPE
0
LTYPE
72
65
70
64
2
CONTINUOUS
3
______
73
0
40
0
0
ENDTAB
0
TABLE
2
LAYER
0
ENDTAB
0
ENDSEC
0
SECTION
2
ENTITIES
0
LINE
8
0
10
29.5
20
-135
11
106.8253566
21
-135
0
LINE
8
0
10
28.5
20
-134
11
28.5
21
-52
0
LINE
8
0
10
29.5
20
-51
11
46.5
21
-51
0
LINE
8
0
10
48.5
20
-43
11
65.5
21
-43
0
LINE
8
0
10
47.5
20
-50
11
47.5
21
-44
0
LINE
8
0
10
67.5
20
-31
11
84.5
21
-31
0
LINE
8
0
10
66.5
20
-42
11
66.5
21
-32
0
LINE
8
0
10
86.5
20
-27
11
107.5
21
-27
0
LINE
8
0
10
108.5
20
-28
11
108.5
21
-30
0
LINE
8
0
10
85.5
20
-30
11
85.5
21
-28
0
LINE
8
0
10
109.5
20
-31
11
126.5
21
-31
0
LINE
8
0
10
127.5
20
-32
11
127.5
21
-36
0
LINE
8
0
10
151.5
20
-118.7507703
11
151.5
21
-106
0
LINE
8
0
10
128.5
20
-37
11
151.5
21
-37
0
LINE
8
0
10
106.9125123
20
-135.0038053
11
125.141626
21
-136.5986461
0
LINE
8
0
10
125.3964904
20
-136.6551482
11
142.093026
21
-142.7321902
0
LINE
8
0
10
151.8572124
20
-119.5168147
11
172.2182655
21
-136.6017669
0
LINE
8
0
10
158.2001949
20
-154.8635767
11
172.3415223
21
-138.0105989
0
LINE
8
0
10
142.3937935
20
-142.9058384
11
156.7913629
21
-154.9868335
0
ARC
8
0
10
106.8253566
20
-136
40
1
50
85.0000024
51
90
0
ARC
8
0
10
125.0544703
20
-137.5948408
40
1
50
70.0000019
51
85.0000024
0
ARC
8
0
10
141.7510059
20
-143.6718828
40
1
50
49.9999988
51
70.0000019
0
ARC
8
0
10
157.4341505
20
-154.2207891
40
1
50
229.9999988
51
319.9999988
0
ARC
8
0
10
171.5754779
20
-137.3678113
40
1
50
319.9999988
51
49.9999988
0
ARC
8
0
10
152.5
20
-118.7507703
40
1
50
180
51
229.9999988
0
ARC
8
0
10
152.5
20
-106
40
1
50
149.9999999
51
180
0
ARC
8
0
10
128.5
20
-36
40
1
50
180
51
270
0
ARC
8
0
10
126.5
20
-32
40
1
50
0
51
90
0
ARC
8
0
10
109.5
20
-30
40
1
50
180
51
270
0
ARC
8
0
10
107.5
20
-28
40
1
50
0
51
90
0
ARC
8
0
10
86.5
20
-28
40
1
50
90
51
180
0
ARC
8
0
10
84.5
20
-30
40
1
50
270
51
0
0
ARC
8
0
10
67.5
20
-32
40
1
50
90
51
180
0
ARC
8
0
10
65.5
20
-42
40
1
50
270
51
0
0
ARC
8
0
10
48.5
20
-44
40
1
50
90
51
180
0
ARC
8
0
10
46.5
20
-50
40
1
50
270
51
0
0
ARC
8
0
10
29.5
20
-52
40
1
50
90
51
180
0
ARC
8
0
10
29.5
20
-134
40
1
50
180
51
270
0
CIRCLE
8
0
10
51
20
-121.5
40
1.6
0
CIRCLE
8
0
10
51
20
-64.5
40
1.6
0
CIRCLE
8
0
10
90
20
-109.5
40
1.6
0
CIRCLE
8
0
10
90
20
-48.5
40
1.6
0
CIRCLE
8
0
10
146
20
-117
40
1.6
0
CIRCLE
8
0
10
146
20
-43
40
1.6
0
LINE
8
0
10
151.5
20
-105.5
11
151.6339746
21
-105.5
0
LINE
8
0
10
151.5
20
-37
11
151.5
21
-105.5
0
LINE
8
0
10
32.7
20
-127.3
11
47.3
21
-127.3
0
LINE
8
0
10
47.3
20
-127.3
11
47.3
21
-112.7
0
LINE
8
0
10
47.3
20
-112.7
11
32.7
21
-112.7
0
LINE
8
0
10
32.7
20
-112.7
11
32.7
21
-127.3
0
LINE
8
0
10
32.7
20
-108.3
11
47.3
21
-108.3
0
LINE
8
0
10
47.3
20
-108.3
11
47.3
21
-93.7
0
LINE
8
0
10
47.3
20
-93.7
11
32.7
21
-93.7
0
LINE
8
0
10
32.7
20
-93.7
11
32.7
21
-108.3
0
LINE
8
0
10
32.7
20
-89.3
11
47.3
21
-89.3
0
LINE
8
0
10
47.3
20
-89.3
11
47.3
21
-74.7
0
LINE
8
0
10
47.3
20
-74.7
11
32.7
21
-74.7
0
LINE
8
0
10
32.7
20
-74.7
11
32.7
21
-89.3
0
LINE
8
0
10
32.7
20
-70.3
11
47.3
21
-70.3
0
LINE
8
0
10
47.3
20
-70.3
11
47.3
21
-55.7
0
LINE
8
0
10
47.3
20
-55.7
11
32.7
21
-55.7
0
LINE
8
0
10
32.7
20
-55.7
11
32.7
21
-70.3
0
LINE
8
0
10
51.7
20
-119.3
11
66.3
21
-119.3
0
LINE
8
0
10
66.3
20
-119.3
11
66.3
21
-104.7
0
LINE
8
0
10
66.3
20
-104.7
11
51.7
21
-104.7
0
LINE
8
0
10
51.7
20
-104.7
11
51.7
21
-119.3
0
LINE
8
0
10
51.7
20
-100.3
11
66.3
21
-100.3
0
LINE
8
0
10
66.3
20
-100.3
11
66.3
21
-85.7
0
LINE
8
0
10
66.3
20
-85.7
11
51.7
21
-85.7
0
LINE
8
0
10
51.7
20
-85.7
11
51.7
21
-100.3
0
LINE
8
0
10
51.7
20
-81.3
11
66.3
21
-81.3
0
LINE
8
0
10
66.3
20
-81.3
11
66.3
21
-66.7
0
LINE
8
0
10
66.3
20
-66.7
11
51.7
21
-66.7
0
LINE
8
0
10
51.7
20
-66.7
11
51.7
21
-81.3
0
LINE
8
0
10
51.7
20
-62.3
11
66.3
21
-62.3
0
LINE
8
0
10
66.3
20
-62.3
11
66.3
21
-47.7
0
LINE
8
0
10
66.3
20
-47.7
11
51.7
21
-47.7
0
LINE
8
0
10
51.7
20
-47.7
11
51.7
21
-62.3
0
LINE
8
0
10
70.7
20
-107.3
11
85.3
21
-107.3
0
LINE
8
0
10
85.3
20
-107.3
11
85.3
21
-92.7
0
LINE
8
0
10
85.3
20
-92.7
11
70.7
21
-92.7
0
LINE
8
0
10
70.7
20
-92.7
11
70.7
21
-107.3
0
LINE
8
0
10
70.7
20
-88.3
11
85.3
21
-88.3
0
LINE
8
0
10
85.3
20
-88.3
11
85.3
21
-73.7
0
LINE
8
0
10
85.3
20
-73.7
11
70.7
21
-73.7
0
LINE
8
0
10
70.7
20
-73.7
11
70.7
21
-88.3
0
LINE
8
0
10
70.7
20
-69.3
11
85.3
21
-69.3
0
LINE
8
0
10
85.3
20
-69.3
11
85.3
21
-54.7
0
LINE
8
0
10
85.3
20
-54.7
11
70.7
21
-54.7
0
LINE
8
0
10
70.7
20
-54.7
11
70.7
21
-69.3
0
LINE
8
0
10
70.7
20
-50.3
11
85.3
21
-50.3
0
LINE
8
0
10
85.3
20
-50.3
11
85.3
21
-35.7
0
LINE
8
0
10
85.3
20
-35.7
11
70.7
21
-35.7
0
LINE
8
0
10
70.7
20
-35.7
11
70.7
21
-50.3
0
LINE
8
0
10
89.7
20
-103.3
11
104.3
21
-103.3
0
LINE
8
0
10
104.3
20
-103.3
11
104.3
21
-88.7
0
LINE
8
0
10
104.3
20
-88.7
11
89.7
21
-88.7
0
LINE
8
0
10
89.7
20
-88.7
11
89.7
21
-103.3
0
LINE
8
0
10
89.7
20
-84.3
11
104.3
21
-84.3
0
LINE
8
0
10
104.3
20
-84.3
11
104.3
21
-69.7
0
LINE
8
0
10
104.3
20
-69.7
11
89.7
21
-69.7
0
LINE
8
0
10
89.7
20
-69.7
11
89.7
21
-84.3
0
LINE
8
0
10
89.7
20
-65.3
11
104.3
21
-65.3
0
LINE
8
0
10
104.3
20
-65.3
11
104.3
21
-50.7
0
LINE
8
0
10
104.3
20
-50.7
11
89.7
21
-50.7
0
LINE
8
0
10
89.7
20
-50.7
11
89.7
21
-65.3
0
LINE
8
0
10
89.7
20
-46.3
11
104.3
21
-46.3
0
LINE
8
0
10
104.3
20
-46.3
11
104.3
21
-31.7
0
LINE
8
0
10
104.3
20
-31.7
11
89.7
21
-31.7
0
LINE
8
0
10
89.7
20
-31.7
11
89.7
21
-46.3
0
LINE
8
0
10
108.7
20
-107.3
11
123.3
21
-107.3
0
LINE
8
0
10
123.3
20
-107.3
11
123.3
21
-92.7
0
LINE
8
0
10
123.3
20
-92.7
11
108.7
21
-92.7
0
LINE
8
0
10
108.7
20
-92.7
11
108.7
21
-107.3
0
LINE
8
0
10
108.7
20
-88.3
11
123.3
21
-88.3
0
LINE
8
0
10
123.3
20
-88.3
11
123.3
21
-73.7
0
LINE
8
0
10
123.3
20
-73.7
11
108.7
21
-73.7
0
LINE
8
0
10
108.7
20
-73.7
11
108.7
21
-88.3
0
LINE
8
0
10
108.7
20
-69.3
11
123.3
21
-69.3
0
LINE
8
0
10
123.3
20
-69.3
11
123.3
21
-54.7
0
LINE
8
0
10
123.3
20
-54.7
11
108.7
21
-54.7
0
LINE
8
0
10
108.7
20
-54.7
11
108.7
21
-69.3
0
LINE
8
0
10
108.7
20
-50.3
11
123.3
21
-50.3
0
LINE
8
0
10
123.3
20
-50.3
11
123.3
21
-35.7
0
LINE
8
0
10
123.3
20
-35.7
11
108.7
21
-35.7
0
LINE
8
0
10
108.7
20
-35.7
11
108.7
21
-50.3
0
LINE
8
0
10
127.7
20
-113.3
11
142.3
21
-113.3
0
LINE
8
0
10
142.3
20
-113.3
11
142.3
21
-98.7
0
LINE
8
0
10
142.3
20
-98.7
11
127.7
21
-98.7
0
LINE
8
0
10
127.7
20
-98.7
11
127.7
21
-113.3
0
LINE
8
0
10
127.7
20
-94.3
11
142.3
21
-94.3
0
LINE
8
0
10
142.3
20
-94.3
11
142.3
21
-79.7
0
LINE
8
0
10
142.3
20
-79.7
11
127.7
21
-79.7
0
LINE
8
0
10
127.7
20
-79.7
11
127.7
21
-94.3
0
LINE
8
0
10
127.7
20
-75.3
11
142.3
21
-75.3
0
LINE
8
0
10
142.3
20
-75.3
11
142.3
21
-60.7
0
LINE
8
0
10
142.3
20
-60.7
11
127.7
21
-60.7
0
LINE
8
0
10
127.7
20
-60.7
11
127.7
21
-75.3
0
LINE
8
0
10
127.7
20
-56.3
11
142.3
21
-56.3
0
LINE
8
0
10
142.3
20
-56.3
11
142.3
21
-41.7
0
LINE
8
0
10
142.3
20
-41.7
11
127.7
21
-41.7
0
LINE
8
0
10
127.7
20
-41.7
11
127.7
21
-56.3
0
LINE
8
0
10
70.7
20
-130.3
11
85.3
21
-130.3
0
LINE
8
0
10
85.3
20
-130.3
11
85.3
21
-115.7
0
LINE
8
0
10
85.3
20
-115.7
11
70.7
21
-115.7
0
LINE
8
0
10
70.7
20
-115.7
11
70.7
21
-130.3
0
LINE
8
0
10
89.7
20
-130.3
11
104.3
21
-130.3
0
LINE
8
0
10
104.3
20
-130.3
11
104.3
21
-115.7
0
LINE
8
0
10
104.3
20
-115.7
11
89.7
21
-115.7
0
LINE
8
0
10
89.7
20
-115.7
11
89.7
21
-130.3
0
LINE
8
0
10
108.8416958
20
-130.4546338
11
123.3861384
21
-131.7271076
0
LINE
8
0
10
123.3861384
20
-131.7271076
11
124.6586122
21
-117.182665
0
LINE
8
0
10
124.6586122
20
-117.182665
11
110.1141696
21
-115.9101912
0
LINE
8
0
10
110.1141696
20
-115.9101912
11
108.8416958
21
-130.4546338
0
LINE
8
0
10
128.1066109
20
-132.6399159
11
141.8261232
21
-137.63341
0
LINE
8
0
10
141.8261232
20
-137.63341
11
146.8196173
21
-123.9138977
0
LINE
8
0
10
146.8196173
20
-123.9138977
11
133.100105
21
-118.9204036
0
LINE
8
0
10
133.100105
20
-118.9204036
11
128.1066109
21
-132.6399159
0
LINE
8
0
10
146.1768735
20
-139.9448052
11
157.3611224
21
-149.3295043
0
LINE
8
0
10
157.3611224
20
-149.3295043
11
166.7458215
21
-138.1452554
0
LINE
8
0
10
166.7458215
20
-138.1452554
11
155.5615726
21
-128.7605563
0
LINE
8
0
10
155.5615726
20
-128.7605563
11
146.1768735
21
-139.9448052
0
ENDSEC
0
EOF