0
SECTION
2
HEADER
9
$INSUNITS
70
4
0
ENDSEC
0
SECTION
2
TABLES
0
TABLE
2
LTYPE
0
LTYPE
72
65
70
64
2
CONTINUOUS
3
______
73
0
40
0
0
ENDTAB
0
TABLE
2
LAYER
0
ENDTAB
0
ENDSEC
0
SECTION
2
ENTITIES
0
LINE
8
0
10
29
20
-132
11
108.0023551
21
-132
0
LINE
8
0
10
28
20
-131
11
28
21
-54
0
LINE
8
0
10
29
20
-53
11
49
21
-53
0
LINE
8
0
10
51
20
-41
11
69
21
-41
0
LINE
8
0
10
50
20
-52
11
50
21
-42
0
LINE
8
0
10
71
20
-29
11
89
21
-29
0
LINE
8
0
10
70
20
-40
11
70
21
-30
0
LINE
8
0
10
91
20
-25
11
109
21
-25
0
LINE
8
0
10
110
20
-26
11
110
21
-28
0
LINE
8
0
10
90
20
-28
11
90
21
-26
0
LINE
8
0
10
111
20
-29
11
129
21
-29
0
LINE
8
0
10
130
20
-30
11
130
21
-34
0
LINE
8
0
10
131
20
-35
11
153
21
-35
0
LINE
8
0
10
108.0895108
20
-132.0038053
11
128.4570478
21
-133.7857339
0
LINE
8
0
10
128.7119122
20
-133.842236
11
144.6134583
21
-139.6299255
0
LINE
8
0
10
159.8423711
20
-121
11
175.189257
21
-133.8775663
0
LINE
8
0
10
161.1711864
20
-152.1393761
11
175.3125138
21
-135.2863983
0
LINE
8
0
10
144.9142257
20
-139.8035737
11
159.7623544
21
-152.2626329
0
ARC
8
0
10
29
20
-131
40
1
50
180
51
270
0
ARC
8
0
10
29
20
-54
40
1
50
90
51
180
0
ARC
8
0
10
49
20
-52
40
1
50
270
51
0
0
ARC
8
0
10
51
20
-42
40
1
50
90
51
180
0
ARC
8
0
10
69
20
-40
40
1
50
270
51
0
0
ARC
8
0
10
71
20
-30
40
1
50
90
51
180
0
ARC
8
0
10
89
20
-28
40
1
50
270
51
0
0
ARC
8
0
10
91
20
-26
40
1
50
90
51
180
0
ARC
8
0
10
109
20
-26
40
1
50
0
51
90
0
ARC
8
0
10
111
20
-28
40
1
50
180
51
270
0
ARC
8
0
10
129
20
-30
40
1
50
0
51
90
0
ARC
8
0
10
131
20
-34
40
1
50
180
51
270
0
ARC
8
0
10
174.5464694
20
-134.6436107
40
1
50
319.9999988
51
49.9999988
0
ARC
8
0
10
160.405142
20
-151.4965885
40
1
50
229.9999988
51
319.9999988
0
ARC
8
0
10
144.2714381
20
-140.5696181
40
1
50
49.9999988
51
69.9999965
0
ARC
8
0
10
128.3698921
20
-134.7819286
40
1
50
70.0000019
51
85.0000024
0
ARC
8
0
10
108.0023551
20
-133
40
1
50
85.0000024
51
90
0
CIRCLE
8
0
10
50
20
-120
40
1.6
0
CIRCLE
8
0
10
50
20
-63
40
1.6
0
CIRCLE
8
0
10
90
20
-109
40
1.6
0
CIRCLE
8
0
10
90
20
-50
40
1.6
0
CIRCLE
8
0
10
146.4819992
20
-115.83393
40
1.6
0
CIRCLE
8
0
10
150
20
-56
40
1.6
0
LINE
8
0
10
153
20
-121
11
159.8423711
21
-121
0
LINE
8
0
10
153
20
-35
11
153
21
-121
0
LINE
8
0
10
32.75
20
-127.25
11
47.25
21
-127.25
0
LINE
8
0
10
47.25
20
-127.25
11
47.25
21
-112.75
0
LINE
8
0
10
47.25
20
-112.75
11
32.75
21
-112.75
0
LINE
8
0
10
32.75
20
-112.75
11
32.75
21
-127.25
0
LINE
8
0
10
32.75
20
-108.25
11
47.25
21
-108.25
0
LINE
8
0
10
47.25
20
-108.25
11
47.25
21
-93.75
0
LINE
8
0
10
47.25
20
-93.75
11
32.75
21
-93.75
0
LINE
8
0
10
32.75
20
-93.75
11
32.75
21
-108.25
0
LINE
8
0
10
32.75
20
-89.25
11
47.25
21
-89.25
0
LINE
8
0
10
47.25
20
-89.25
11
47.25
21
-74.75
0
LINE
8
0
10
47.25
20
-74.75
11
32.75
21
-74.75
0
LINE
8
0
10
32.75
20
-74.75
11
32.75
21
-89.25
0
LINE
8
0
10
32.75
20
-70.25
11
47.25
21
-70.25
0
LINE
8
0
10
47.25
20
-70.25
11
47.25
21
-55.75
0
LINE
8
0
10
47.25
20
-55.75
11
32.75
21
-55.75
0
LINE
8
0
10
32.75
20
-55.75
11
32.75
21
-70.25
0
LINE
8
0
10
52.75
20
-117.25
11
67.25
21
-117.25
0
LINE
8
0
10
67.25
20
-117.25
11
67.25
21
-102.75
0
LINE
8
0
10
67.25
20
-102.75
11
52.75
21
-102.75
0
LINE
8
0
10
52.75
20
-102.75
11
52.75
21
-117.25
0
LINE
8
0
10
52.75
20
-98.25
11
67.25
21
-98.25
0
LINE
8
0
10
67.25
20
-98.25
11
67.25
21
-83.75
0
LINE
8
0
10
67.25
20
-83.75
11
52.75
21
-83.75
0
LINE
8
0
10
52.75
20
-83.75
11
52.75
21
-98.25
0
LINE
8
0
10
52.75
20
-79.25
11
67.25
21
-79.25
0
LINE
8
0
10
67.25
20
-79.25
11
67.25
21
-64.75
0
LINE
8
0
10
67.25
20
-64.75
11
52.75
21
-64.75
0
LINE
8
0
10
52.75
20
-64.75
11
52.75
21
-79.25
0
LINE
8
0
10
52.75
20
-60.25
11
67.25
21
-60.25
0
LINE
8
0
10
67.25
20
-60.25
11
67.25
21
-45.75
0
LINE
8
0
10
67.25
20
-45.75
11
52.75
21
-45.75
0
LINE
8
0
10
52.75
20
-45.75
11
52.75
21
-60.25
0
LINE
8
0
10
72.75
20
-105.25
11
87.25
21
-105.25
0
LINE
8
0
10
87.25
20
-105.25
11
87.25
21
-90.75
0
LINE
8
0
10
87.25
20
-90.75
11
72.75
21
-90.75
0
LINE
8
0
10
72.75
20
-90.75
11
72.75
21
-105.25
0
LINE
8
0
10
72.75
20
-86.25
11
87.25
21
-86.25
0
LINE
8
0
10
87.25
20
-86.25
11
87.25
21
-71.75
0
LINE
8
0
10
87.25
20
-71.75
11
72.75
21
-71.75
0
LINE
8
0
10
72.75
20
-71.75
11
72.75
21
-86.25
0
LINE
8
0
10
72.75
20
-67.25
11
87.25
21
-67.25
0
LINE
8
0
10
87.25
20
-67.25
11
87.25
21
-52.75
0
LINE
8
0
10
87.25
20
-52.75
11
72.75
21
-52.75
0
LINE
8
0
10
72.75
20
-52.75
11
72.75
21
-67.25
0
LINE
8
0
10
72.75
20
-48.25
11
87.25
21
-48.25
0
LINE
8
0
10
87.25
20
-48.25
11
87.25
21
-33.75
0
LINE
8
0
10
87.25
20
-33.75
11
72.75
21
-33.75
0
LINE
8
0
10
72.75
20
-33.75
11
72.75
21
-48.25
0
LINE
8
0
10
92.75
20
-101.25
11
107.25
21
-101.25
0
LINE
8
0
10
107.25
20
-101.25
11
107.25
21
-86.75
0
LINE
8
0
10
107.25
20
-86.75
11
92.75
21
-86.75
0
LINE
8
0
10
92.75
20
-86.75
11
92.75
21
-101.25
0
LINE
8
0
10
92.75
20
-82.25
11
107.25
21
-82.25
0
LINE
8
0
10
107.25
20
-82.25
11
107.25
21
-67.75
0
LINE
8
0
10
107.25
20
-67.75
11
92.75
21
-67.75
0
LINE
8
0
10
92.75
20
-67.75
11
92.75
21
-82.25
0
LINE
8
0
10
92.75
20
-63.25
11
107.25
21
-63.25
0
LINE
8
0
10
107.25
20
-63.25
11
107.25
21
-48.75
0
LINE
8
0
10
107.25
20
-48.75
11
92.75
21
-48.75
0
LINE
8
0
10
92.75
20
-48.75
11
92.75
21
-63.25
0
LINE
8
0
10
92.75
20
-44.25
11
107.25
21
-44.25
0
LINE
8
0
10
107.25
20
-44.25
11
107.25
21
-29.75
0
LINE
8
0
10
107.25
20
-29.75
11
92.75
21
-29.75
0
LINE
8
0
10
92.75
20
-29.75
11
92.75
21
-44.25
0
LINE
8
0
10
112.75
20
-105.25
11
127.25
21
-105.25
0
LINE
8
0
10
127.25
20
-105.25
11
127.25
21
-90.75
0
LINE
8
0
10
127.25
20
-90.75
11
112.75
21
-90.75
0
LINE
8
0
10
112.75
20
-90.75
11
112.75
21
-105.25
0
LINE
8
0
10
112.75
20
-86.25
11
127.25
21
-86.25
0
LINE
8
0
10
127.25
20
-86.25
11
127.25
21
-71.75
0
LINE
8
0
10
127.25
20
-71.75
11
112.75
21
-71.75
0
LINE
8
0
10
112.75
20
-71.75
11
112.75
21
-86.25
0
LINE
8
0
10
112.75
20
-67.25
11
127.25
21
-67.25
0
LINE
8
0
10
127.25
20
-67.25
11
127.25
21
-52.75
0
LINE
8
0
10
127.25
20
-52.75
11
112.75
21
-52.75
0
LINE
8
0
10
112.75
20
-52.75
11
112.75
21
-67.25
0
LINE
8
0
10
112.75
20
-48.25
11
127.25
21
-48.25
0
LINE
8
0
10
127.25
20
-48.25
11
127.25
21
-33.75
0
LINE
8
0
10
127.25
20
-33.75
11
112.75
21
-33.75
0
LINE
8
0
10
112.75
20
-33.75
11
112.75
21
-48.25
0
LINE
8
0
10
132.75
20
-111.25
11
147.25
21
-111.25
0
LINE
8
0
10
147.25
20
-111.25
11
147.25
21
-96.75
0
LINE
8
0
10
147.25
20
-96.75
11
132.75
21
-96.75
0
LINE
8
0
10
132.75
20
-96.75
11
132.75
21
-111.25
0
LINE
8
0
10
132.75
20
-92.25
11
147.25
21
-92.25
0
LINE
8
0
10
147.25
20
-92.25
11
147.25
21
-77.75
0
LINE
8
0
10
147.25
20
-77.75
11
132.75
21
-77.75
0
LINE
8
0
10
132.75
20
-77.75
11
132.75
21
-92.25
0
LINE
8
0
10
132.75
20
-73.25
11
147.25
21
-73.25
0
LINE
8
0
10
147.25
20
-73.25
11
147.25
21
-58.75
0
LINE
8
0
10
147.25
20
-58.75
11
132.75
21
-58.75
0
LINE
8
0
10
132.75
20
-58.75
11
132.75
21
-73.25
0
LINE
8
0
10
132.75
20
-54.25
11
147.25
21
-54.25
0
LINE
8
0
10
147.25
20
-54.25
11
147.25
21
-39.75
0
LINE
8
0
10
147.25
20
-39.75
11
132.75
21
-39.75
0
LINE
8
0
10
132.75
20
-39.75
11
132.75
21
-54.25
0
LINE
8
0
10
72.75
20
-127.25
11
87.25
21
-127.25
0
LINE
8
0
10
87.25
20
-127.25
11
87.25
21
-112.75
0
LINE
8
0
10
87.25
20
-112.75
11
72.75
21
-112.75
0
LINE
8
0
10
72.75
20
-112.75
11
72.75
21
-127.25
0
LINE
8
0
10
92.75
20
-127.25
11
107.25
21
-127.25
0
LINE
8
0
10
107.25
20
-127.25
11
107.25
21
-112.75
0
LINE
8
0
10
107.25
20
-112.75
11
92.75
21
-112.75
0
LINE
8
0
10
92.75
20
-112.75
11
92.75
21
-127.25
0
LINE
8
0
10
112.1457093
20
-127.5905324
11
126.5905324
21
-128.8542907
0
LINE
8
0
10
126.5905324
20
-128.8542907
11
127.8542907
21
-114.4094676
0
LINE
8
0
10
127.8542907
20
-114.4094676
11
113.4094676
21
-113.1457093
0
LINE
8
0
10
113.4094676
20
-113.1457093
11
112.1457093
21
-127.5905324
0
LINE
8
0
10
131.5479749
20
-129.819634
11
145.1735179
21
-134.778926
0
LINE
8
0
10
145.1735179
20
-134.778926
11
150.1328099
21
-121.153383
0
LINE
8
0
10
150.1328099
20
-121.153383
11
136.5072669
21
-116.194091
0
LINE
8
0
10
136.5072669
20
-116.194091
11
131.5479749
21
-129.819634
0
LINE
8
0
10
148.8352844
20
-136.8930479
11
159.9429288
21
-146.2134683
0
LINE
8
0
10
159.9429288
20
-146.2134683
11
169.2633492
21
-135.1058239
0
LINE
8
0
10
169.2633492
20
-135.1058239
11
158.1557048
21
-125.7854035
0
LINE
8
0
10
158.1557048
20
-125.7854035
11
148.8352844
21
-136.8930479
0
ENDSEC
0
EOF