0
SECTION
2
HEADER
9
$INSUNITS
70
4
0
ENDSEC
0
SECTION
2
TABLES
0
TABLE
2
LTYPE
0
LTYPE
72
65
70
64
2
CONTINUOUS
3
______
73
0
40
0
0
ENDTAB
0
TABLE
2
LAYER
0
ENDTAB
0
ENDSEC
0
SECTION
2
ENTITIES
0
LINE
8
0
10
29
20
-132
11
108.0023551
21
-132
0
LINE
8
0
10
28
20
-131
11
28
21
-54
0
LINE
8
0
10
29
20
-53
11
49
21
-53
0
LINE
8
0
10
51
20
-41
11
69
21
-41
0
LINE
8
0
10
50
20
-52
11
50
21
-42
0
LINE
8
0
10
71
20
-29
11
89
21
-29
0
LINE
8
0
10
70
20
-40
11
70
21
-30
0
LINE
8
0
10
91
20
-25
11
109
21
-25
0
LINE
8
0
10
110
20
-26
11
110
21
-28
0
LINE
8
0
10
90
20
-28
11
90
21
-26
0
LINE
8
0
10
111
20
-29
11
129
21
-29
0
LINE
8
0
10
130
20
-30
11
130
21
-34
0
LINE
8
0
10
158
20
-118.934309
11
158
21
-118.9877595
0
LINE
8
0
10
131
20
-35
11
153
21
-35
0
LINE
8
0
10
108.0895108
20
-132.0038053
11
128.4570478
21
-133.7857339
0
LINE
8
0
10
128.7119122
20
-133.842236
11
144.6134582
21
-139.6299254
0
LINE
8
0
10
159.8423711
20
-121
11
175.189257
21
-133.8775663
0
LINE
8
0
10
161.1711864
20
-152.1393761
11
175.3125138
21
-135.2863983
0
LINE
8
0
10
144.9142257
20
-139.8035736
11
159.7623544
21
-152.2626329
0
ARC
8
0
10
108.0023551
20
-133
40
1
50
85.0000024
51
90
0
ARC
8
0
10
128.3698921
20
-134.7819286
40
1
50
70.0000019
51
85.0000024
0
ARC
8
0
10
144.2714381
20
-140.569618
40
1
50
49.9999988
51
70.0000019
0
ARC
8
0
10
160.405142
20
-151.4965885
40
1
50
229.9999988
51
319.9999988
0
ARC
8
0
10
174.5464694
20
-134.6436107
40
1
50
319.9999988
51
49.9999988
0
ARC
8
0
10
159
20
-118.9877595
40
1
50
180
51
229.9999988
0
ARC
8
0
10
131
20
-34
40
1
50
180
51
270
0
ARC
8
0
10
129
20
-30
40
1
50
0
51
90
0
ARC
8
0
10
111
20
-28
40
1
50
180
51
270
0
ARC
8
0
10
109
20
-26
40
1
50
0
51
90
0
ARC
8
0
10
91
20
-26
40
1
50
90
51
180
0
ARC
8
0
10
89
20
-28
40
1
50
270
51
0
0
ARC
8
0
10
71
20
-30
40
1
50
90
51
180
0
ARC
8
0
10
69
20
-40
40
1
50
270
51
0
0
ARC
8
0
10
51
20
-42
40
1
50
90
51
180
0
ARC
8
0
10
49
20
-52
40
1
50
270
51
0
0
ARC
8
0
10
29
20
-54
40
1
50
90
51
180
0
ARC
8
0
10
29
20
-131
40
1
50
180
51
270
0
CIRCLE
8
0
10
50
20
-120
40
1.6
0
CIRCLE
8
0
10
50
20
-63
40
1.6
0
CIRCLE
8
0
10
90
20
-109
40
1.6
0
CIRCLE
8
0
10
90
20
-50
40
1.6
0
CIRCLE
8
0
10
146.4819992
20
-115.83393
40
1.6
0
CIRCLE
8
0
10
150
20
-56
40
1.6
0
LINE
8
0
10
153
20
-113.5
11
153.0001353
21
-113.5
0
LINE
8
0
10
153
20
-113.5
11
153
21
-35
0
LINE
8
0
10
153.0004348
20
-114.6062302
11
153.0001353
21
-113.5
0
LINE
8
0
10
158
20
-118.934309
11
153.0004348
21
-114.6062302
0
LINE
8
0
10
32.7
20
-127.3
11
47.3
21
-127.3
0
LINE
8
0
10
47.3
20
-127.3
11
47.3
21
-112.7
0
LINE
8
0
10
47.3
20
-112.7
11
32.7
21
-112.7
0
LINE
8
0
10
32.7
20
-112.7
11
32.7
21
-127.3
0
LINE
8
0
10
32.7
20
-108.3
11
47.3
21
-108.3
0
LINE
8
0
10
47.3
20
-108.3
11
47.3
21
-93.7
0
LINE
8
0
10
47.3
20
-93.7
11
32.7
21
-93.7
0
LINE
8
0
10
32.7
20
-93.7
11
32.7
21
-108.3
0
LINE
8
0
10
32.7
20
-89.3
11
47.3
21
-89.3
0
LINE
8
0
10
47.3
20
-89.3
11
47.3
21
-74.7
0
LINE
8
0
10
47.3
20
-74.7
11
32.7
21
-74.7
0
LINE
8
0
10
32.7
20
-74.7
11
32.7
21
-89.3
0
LINE
8
0
10
32.7
20
-70.3
11
47.3
21
-70.3
0
LINE
8
0
10
47.3
20
-70.3
11
47.3
21
-55.7
0
LINE
8
0
10
47.3
20
-55.7
11
32.7
21
-55.7
0
LINE
8
0
10
32.7
20
-55.7
11
32.7
21
-70.3
0
LINE
8
0
10
52.7
20
-117.3
11
67.3
21
-117.3
0
LINE
8
0
10
67.3
20
-117.3
11
67.3
21
-102.7
0
LINE
8
0
10
67.3
20
-102.7
11
52.7
21
-102.7
0
LINE
8
0
10
52.7
20
-102.7
11
52.7
21
-117.3
0
LINE
8
0
10
52.7
20
-98.3
11
67.3
21
-98.3
0
LINE
8
0
10
67.3
20
-98.3
11
67.3
21
-83.7
0
LINE
8
0
10
67.3
20
-83.7
11
52.7
21
-83.7
0
LINE
8
0
10
52.7
20
-83.7
11
52.7
21
-98.3
0
LINE
8
0
10
52.7
20
-79.3
11
67.3
21
-79.3
0
LINE
8
0
10
67.3
20
-79.3
11
67.3
21
-64.7
0
LINE
8
0
10
67.3
20
-64.7
11
52.7
21
-64.7
0
LINE
8
0
10
52.7
20
-64.7
11
52.7
21
-79.3
0
LINE
8
0
10
52.7
20
-60.3
11
67.3
21
-60.3
0
LINE
8
0
10
67.3
20
-60.3
11
67.3
21
-45.7
0
LINE
8
0
10
67.3
20
-45.7
11
52.7
21
-45.7
0
LINE
8
0
10
52.7
20
-45.7
11
52.7
21
-60.3
0
LINE
8
0
10
72.7
20
-105.3
11
87.3
21
-105.3
0
LINE
8
0
10
87.3
20
-105.3
11
87.3
21
-90.7
0
LINE
8
0
10
87.3
20
-90.7
11
72.7
21
-90.7
0
LINE
8
0
10
72.7
20
-90.7
11
72.7
21
-105.3
0
LINE
8
0
10
72.7
20
-86.3
11
87.3
21
-86.3
0
LINE
8
0
10
87.3
20
-86.3
11
87.3
21
-71.7
0
LINE
8
0
10
87.3
20
-71.7
11
72.7
21
-71.7
0
LINE
8
0
10
72.7
20
-71.7
11
72.7
21
-86.3
0
LINE
8
0
10
72.7
20
-67.3
11
87.3
21
-67.3
0
LINE
8
0
10
87.3
20
-67.3
11
87.3
21
-52.7
0
LINE
8
0
10
87.3
20
-52.7
11
72.7
21
-52.7
0
LINE
8
0
10
72.7
20
-52.7
11
72.7
21
-67.3
0
LINE
8
0
10
72.7
20
-48.3
11
87.3
21
-48.3
0
LINE
8
0
10
87.3
20
-48.3
11
87.3
21
-33.7
0
LINE
8
0
10
87.3
20
-33.7
11
72.7
21
-33.7
0
LINE
8
0
10
72.7
20
-33.7
11
72.7
21
-48.3
0
LINE
8
0
10
92.7
20
-101.3
11
107.3
21
-101.3
0
LINE
8
0
10
107.3
20
-101.3
11
107.3
21
-86.7
0
LINE
8
0
10
107.3
20
-86.7
11
92.7
21
-86.7
0
LINE
8
0
10
92.7
20
-86.7
11
92.7
21
-101.3
0
LINE
8
0
10
92.7
20
-82.3
11
107.3
21
-82.3
0
LINE
8
0
10
107.3
20
-82.3
11
107.3
21
-67.7
0
LINE
8
0
10
107.3
20
-67.7
11
92.7
21
-67.7
0
LINE
8
0
10
92.7
20
-67.7
11
92.7
21
-82.3
0
LINE
8
0
10
92.7
20
-63.3
11
107.3
21
-63.3
0
LINE
8
0
10
107.3
20
-63.3
11
107.3
21
-48.7
0
LINE
8
0
10
107.3
20
-48.7
11
92.7
21
-48.7
0
LINE
8
0
10
92.7
20
-48.7
11
92.7
21
-63.3
0
LINE
8
0
10
92.7
20
-44.3
11
107.3
21
-44.3
0
LINE
8
0
10
107.3
20
-44.3
11
107.3
21
-29.7
0
LINE
8
0
10
107.3
20
-29.7
11
92.7
21
-29.7
0
LINE
8
0
10
92.7
20
-29.7
11
92.7
21
-44.3
0
LINE
8
0
10
112.7
20
-105.3
11
127.3
21
-105.3
0
LINE
8
0
10
127.3
20
-105.3
11
127.3
21
-90.7
0
LINE
8
0
10
127.3
20
-90.7
11
112.7
21
-90.7
0
LINE
8
0
10
112.7
20
-90.7
11
112.7
21
-105.3
0
LINE
8
0
10
112.7
20
-86.3
11
127.3
21
-86.3
0
LINE
8
0
10
127.3
20
-86.3
11
127.3
21
-71.7
0
LINE
8
0
10
127.3
20
-71.7
11
112.7
21
-71.7
0
LINE
8
0
10
112.7
20
-71.7
11
112.7
21
-86.3
0
LINE
8
0
10
112.7
20
-67.3
11
127.3
21
-67.3
0
LINE
8
0
10
127.3
20
-67.3
11
127.3
21
-52.7
0
LINE
8
0
10
127.3
20
-52.7
11
112.7
21
-52.7
0
LINE
8
0
10
112.7
20
-52.7
11
112.7
21
-67.3
0
LINE
8
0
10
112.7
20
-48.3
11
127.3
21
-48.3
0
LINE
8
0
10
127.3
20
-48.3
11
127.3
21
-33.7
0
LINE
8
0
10
127.3
20
-33.7
11
112.7
21
-33.7
0
LINE
8
0
10
112.7
20
-33.7
11
112.7
21
-48.3
0
LINE
8
0
10
132.7
20
-111.3
11
147.3
21
-111.3
0
LINE
8
0
10
147.3
20
-111.3
11
147.3
21
-96.7
0
LINE
8
0
10
147.3
20
-96.7
11
132.7
21
-96.7
0
LINE
8
0
10
132.7
20
-96.7
11
132.7
21
-111.3
0
LINE
8
0
10
132.7
20
-92.3
11
147.3
21
-92.3
0
LINE
8
0
10
147.3
20
-92.3
11
147.3
21
-77.7
0
LINE
8
0
10
147.3
20
-77.7
11
132.7
21
-77.7
0
LINE
8
0
10
132.7
20
-77.7
11
132.7
21
-92.3
0
LINE
8
0
10
132.7
20
-73.3
11
147.3
21
-73.3
0
LINE
8
0
10
147.3
20
-73.3
11
147.3
21
-58.7
0
LINE
8
0
10
147.3
20
-58.7
11
132.7
21
-58.7
0
LINE
8
0
10
132.7
20
-58.7
11
132.7
21
-73.3
0
LINE
8
0
10
132.7
20
-54.3
11
147.3
21
-54.3
0
LINE
8
0
10
147.3
20
-54.3
11
147.3
21
-39.7
0
LINE
8
0
10
147.3
20
-39.7
11
132.7
21
-39.7
0
LINE
8
0
10
132.7
20
-39.7
11
132.7
21
-54.3
0
LINE
8
0
10
72.7
20
-127.3
11
87.3
21
-127.3
0
LINE
8
0
10
87.3
20
-127.3
11
87.3
21
-112.7
0
LINE
8
0
10
87.3
20
-112.7
11
72.7
21
-112.7
0
LINE
8
0
10
72.7
20
-112.7
11
72.7
21
-127.3
0
LINE
8
0
10
92.7
20
-127.3
11
107.3
21
-127.3
0
LINE
8
0
10
107.3
20
-127.3
11
107.3
21
-112.7
0
LINE
8
0
10
107.3
20
-112.7
11
92.7
21
-112.7
0
LINE
8
0
10
92.7
20
-112.7
11
92.7
21
-127.3
0
LINE
8
0
10
112.0915418
20
-127.6359844
11
126.6359844
21
-128.9084582
0
LINE
8
0
10
126.6359844
20
-128.9084582
11
127.9084582
21
-114.3640156
0
LINE
8
0
10
127.9084582
20
-114.3640156
11
113.3640156
21
-113.0915418
0
LINE
8
0
10
113.3640156
20
-113.0915418
11
112.0915418
21
-127.6359844
0
LINE
8
0
10
131.4838892
20
-129.8495176
11
145.2034015
21
-134.8430117
0
LINE
8
0
10
145.2034015
20
-134.8430117
11
150.1968956
21
-121.1234994
0
LINE
8
0
10
150.1968956
20
-121.1234994
11
136.4773833
21
-116.1300053
0
LINE
8
0
10
136.4773833
20
-116.1300053
11
131.4838892
21
-129.8495176
0
LINE
8
0
10
148.7648428
20
-136.8992108
11
159.9490917
21
-146.2839099
0
LINE
8
0
10
159.9490917
20
-146.2839099
11
169.3337908
21
-135.099661
0
LINE
8
0
10
169.3337908
20
-135.099661
11
158.1495419
21
-125.7149619
0
LINE
8
0
10
158.1495419
20
-125.7149619
11
148.7648428
21
-136.8992108
0
ENDSEC
0
EOF