0
SECTION
2
HEADER
9
$INSUNITS
70
4
0
ENDSEC
0
SECTION
2
TABLES
0
TABLE
2
LTYPE
0
LTYPE
72
65
70
64
2
CONTINUOUS
3
______
73
0
40
0
0
ENDTAB
0
TABLE
2
LAYER
0
ENDTAB
0
ENDSEC
0
SECTION
2
ENTITIES
0
LINE
8
0
10
32.25
20
-128.25
11
47.75
21
-128.25
0
LINE
8
0
10
48.75
20
-127.25
11
48.75
21
-112.75
0
LINE
8
0
10
47.75
20
-111.75
11
32.25
21
-111.75
0
LINE
8
0
10
31.25
20
-112.75
11
31.25
21
-127.25
0
LINE
8
0
10
32.25
20
-109.25
11
47.75
21
-109.25
0
LINE
8
0
10
48.75
20
-108.25
11
48.75
21
-93.75
0
LINE
8
0
10
47.75
20
-92.75
11
32.25
21
-92.75
0
LINE
8
0
10
31.25
20
-93.75
11
31.25
21
-108.25
0
LINE
8
0
10
32.25
20
-90.25
11
47.75
21
-90.25
0
LINE
8
0
10
48.75
20
-89.25
11
48.75
21
-74.75
0
LINE
8
0
10
47.75
20
-73.75
11
32.25
21
-73.75
0
LINE
8
0
10
31.25
20
-74.75
11
31.25
21
-89.25
0
LINE
8
0
10
32.25
20
-71.25
11
47.75
21
-71.25
0
LINE
8
0
10
48.75
20
-70.25
11
48.75
21
-55.75
0
LINE
8
0
10
47.75
20
-54.75
11
32.25
21
-54.75
0
LINE
8
0
10
31.25
20
-55.75
11
31.25
21
-70.25
0
LINE
8
0
10
52.25
20
-118.25
11
67.75
21
-118.25
0
LINE
8
0
10
68.75
20
-117.25
11
68.75
21
-102.75
0
LINE
8
0
10
67.75
20
-101.75
11
52.25
21
-101.75
0
LINE
8
0
10
51.25
20
-102.75
11
51.25
21
-117.25
0
LINE
8
0
10
52.25
20
-99.25
11
67.75
21
-99.25
0
LINE
8
0
10
68.75
20
-98.25
11
68.75
21
-83.75
0
LINE
8
0
10
67.75
20
-82.75
11
52.25
21
-82.75
0
LINE
8
0
10
51.25
20
-83.75
11
51.25
21
-98.25
0
LINE
8
0
10
52.25
20
-80.25
11
67.75
21
-80.25
0
LINE
8
0
10
68.75
20
-79.25
11
68.75
21
-64.75
0
LINE
8
0
10
67.75
20
-63.75
11
52.25
21
-63.75
0
LINE
8
0
10
51.25
20
-64.75
11
51.25
21
-79.25
0
LINE
8
0
10
52.25
20
-61.25
11
67.75
21
-61.25
0
LINE
8
0
10
68.75
20
-60.25
11
68.75
21
-45.75
0
LINE
8
0
10
67.75
20
-44.75
11
52.25
21
-44.75
0
LINE
8
0
10
51.25
20
-45.75
11
51.25
21
-60.25
0
LINE
8
0
10
72.25
20
-106.25
11
87.75
21
-106.25
0
LINE
8
0
10
88.75
20
-105.25
11
88.75
21
-90.75
0
LINE
8
0
10
87.75
20
-89.75
11
72.25
21
-89.75
0
LINE
8
0
10
71.25
20
-90.75
11
71.25
21
-105.25
0
LINE
8
0
10
72.25
20
-87.25
11
87.75
21
-87.25
0
LINE
8
0
10
88.75
20
-86.25
11
88.75
21
-71.75
0
LINE
8
0
10
87.75
20
-70.75
11
72.25
21
-70.75
0
LINE
8
0
10
71.25
20
-71.75
11
71.25
21
-86.25
0
LINE
8
0
10
72.25
20
-68.25
11
87.75
21
-68.25
0
LINE
8
0
10
88.75
20
-67.25
11
88.75
21
-52.75
0
LINE
8
0
10
87.75
20
-51.75
11
72.25
21
-51.75
0
LINE
8
0
10
71.25
20
-52.75
11
71.25
21
-67.25
0
LINE
8
0
10
72.25
20
-49.25
11
87.75
21
-49.25
0
LINE
8
0
10
88.75
20
-48.25
11
88.75
21
-33.75
0
LINE
8
0
10
87.75
20
-32.75
11
72.25
21
-32.75
0
LINE
8
0
10
71.25
20
-33.75
11
71.25
21
-48.25
0
LINE
8
0
10
92.25
20
-102.25
11
107.75
21
-102.25
0
LINE
8
0
10
108.75
20
-101.25
11
108.75
21
-86.75
0
LINE
8
0
10
107.75
20
-85.75
11
92.25
21
-85.75
0
LINE
8
0
10
91.25
20
-86.75
11
91.25
21
-101.25
0
LINE
8
0
10
92.25
20
-83.25
11
107.75
21
-83.25
0
LINE
8
0
10
108.75
20
-82.25
11
108.75
21
-67.75
0
LINE
8
0
10
107.75
20
-66.75
11
92.25
21
-66.75
0
LINE
8
0
10
91.25
20
-67.75
11
91.25
21
-82.25
0
LINE
8
0
10
92.25
20
-64.25
11
107.75
21
-64.25
0
LINE
8
0
10
108.75
20
-63.25
11
108.75
21
-48.75
0
LINE
8
0
10
107.75
20
-47.75
11
92.25
21
-47.75
0
LINE
8
0
10
91.25
20
-48.75
11
91.25
21
-63.25
0
LINE
8
0
10
92.25
20
-45.25
11
107.75
21
-45.25
0
LINE
8
0
10
108.75
20
-44.25
11
108.75
21
-29.75
0
LINE
8
0
10
107.75
20
-28.75
11
92.25
21
-28.75
0
LINE
8
0
10
91.25
20
-29.75
11
91.25
21
-44.25
0
LINE
8
0
10
112.25
20
-106.25
11
127.75
21
-106.25
0
LINE
8
0
10
128.75
20
-105.25
11
128.75
21
-90.75
0
LINE
8
0
10
127.75
20
-89.75
11
112.25
21
-89.75
0
LINE
8
0
10
111.25
20
-90.75
11
111.25
21
-105.25
0
LINE
8
0
10
112.25
20
-87.25
11
127.75
21
-87.25
0
LINE
8
0
10
128.75
20
-86.25
11
128.75
21
-71.75
0
LINE
8
0
10
127.75
20
-70.75
11
112.25
21
-70.75
0
LINE
8
0
10
111.25
20
-71.75
11
111.25
21
-86.25
0
LINE
8
0
10
112.25
20
-68.25
11
127.75
21
-68.25
0
LINE
8
0
10
128.75
20
-67.25
11
128.75
21
-52.75
0
LINE
8
0
10
127.75
20
-51.75
11
112.25
21
-51.75
0
LINE
8
0
10
111.25
20
-52.75
11
111.25
21
-67.25
0
LINE
8
0
10
112.25
20
-49.25
11
127.75
21
-49.25
0
LINE
8
0
10
128.75
20
-48.25
11
128.75
21
-33.75
0
LINE
8
0
10
127.75
20
-32.75
11
112.25
21
-32.75
0
LINE
8
0
10
111.25
20
-33.75
11
111.25
21
-48.25
0
LINE
8
0
10
132.25
20
-112.25
11
147.75
21
-112.25
0
LINE
8
0
10
148.75
20
-111.25
11
148.75
21
-96.75
0
LINE
8
0
10
147.75
20
-95.75
11
132.25
21
-95.75
0
LINE
8
0
10
131.25
20
-96.75
11
131.25
21
-111.25
0
LINE
8
0
10
132.25
20
-93.25
11
147.75
21
-93.25
0
LINE
8
0
10
148.75
20
-92.25
11
148.75
21
-77.75
0
LINE
8
0
10
147.75
20
-76.75
11
132.25
21
-76.75
0
LINE
8
0
10
131.25
20
-77.75
11
131.25
21
-92.25
0
LINE
8
0
10
132.25
20
-74.25
11
147.75
21
-74.25
0
LINE
8
0
10
148.75
20
-73.25
11
148.75
21
-58.75
0
LINE
8
0
10
147.75
20
-57.75
11
132.25
21
-57.75
0
LINE
8
0
10
131.25
20
-58.75
11
131.25
21
-73.25
0
LINE
8
0
10
132.25
20
-55.25
11
147.75
21
-55.25
0
LINE
8
0
10
148.75
20
-54.25
11
148.75
21
-39.75
0
LINE
8
0
10
147.75
20
-38.75
11
132.25
21
-38.75
0
LINE
8
0
10
131.25
20
-39.75
11
131.25
21
-54.25
0
LINE
8
0
10
72.25
20
-128.25
11
87.75
21
-128.25
0
LINE
8
0
10
88.75
20
-127.25
11
88.75
21
-112.75
0
LINE
8
0
10
87.75
20
-111.75
11
72.25
21
-111.75
0
LINE
8
0
10
71.25
20
-112.75
11
71.25
21
-127.25
0
LINE
8
0
10
92.25
20
-128.25
11
107.75
21
-128.25
0
LINE
8
0
10
108.75
20
-127.25
11
108.75
21
-112.75
0
LINE
8
0
10
107.75
20
-111.75
11
92.25
21
-111.75
0
LINE
8
0
10
91.25
20
-112.75
11
91.25
21
-127.25
0
LINE
8
0
10
111.5604562
20
-128.5431492
11
127.001474
21
-129.8940633
0
LINE
8
0
10
128.0848244
20
-128.9850243
11
129.3485828
21
-114.5402012
0
LINE
8
0
10
128.4395438
20
-113.4568508
11
112.998526
21
-112.1059367
0
LINE
8
0
10
111.9151756
20
-113.0149757
11
110.6514172
21
-127.4597988
0
LINE
8
0
10
130.7361084
20
-130.5883165
11
145.301344
21
-135.8896288
0
LINE
8
0
10
146.5830567
20
-135.2919563
11
151.5423489
21
-121.6664132
0
LINE
8
0
10
150.9446764
20
-120.3847005
11
136.3794408
21
-115.0833882
0
LINE
8
0
10
135.0977281
20
-115.6810607
11
130.1384359
21
-129.3066038
0
LINE
8
0
10
147.8094745
20
-137.3376986
11
159.6831635
21
-147.3009065
0
LINE
8
0
10
161.0919955
20
-147.1776497
11
170.4124159
21
-136.0700052
0
LINE
8
0
10
170.2891591
20
-134.6611732
11
158.4154701
21
-124.6979653
0
LINE
8
0
10
157.0066381
20
-124.8212221
11
147.6862177
21
-135.9288666
0
ARC
8
0
10
160.3259511
20
-146.5348621
40
1
50
229.9999988
51
319.9999988
0
ARC
8
0
10
169.6463715
20
-135.4272176
40
1
50
319.9999988
51
49.9999988
0
ARC
8
0
10
157.7726825
20
-125.4640097
40
1
50
49.9999988
51
139.9999988
0
ARC
8
0
10
148.4522621
20
-136.5716542
40
1
50
139.9999988
51
229.9999988
0
ARC
8
0
10
145.6433641
20
-134.9499362
40
1
50
250.0000019
51
340.0000019
0
ARC
8
0
10
150.6026563
20
-121.3243931
40
1
50
340.0000019
51
70.0000019
0
ARC
8
0
10
136.0374207
20
-116.0230808
40
1
50
70.0000019
51
160.0000019
0
ARC
8
0
10
131.0781285
20
-129.6486239
40
1
50
160.0000019
51
250.0000019
0
ARC
8
0
10
47.75
20
-127.25
40
1
50
270
51
0
0
ARC
8
0
10
47.75
20
-112.75
40
1
50
0
51
90
0
ARC
8
0
10
32.25
20
-112.75
40
1
50
90
51
180
0
ARC
8
0
10
32.25
20
-127.25
40
1
50
180
51
270
0
ARC
8
0
10
47.75
20
-108.25
40
1
50
270
51
0
0
ARC
8
0
10
47.75
20
-93.75
40
1
50
0
51
90
0
ARC
8
0
10
32.25
20
-93.75
40
1
50
90
51
180
0
ARC
8
0
10
32.25
20
-108.25
40
1
50
180
51
270
0
ARC
8
0
10
47.75
20
-89.25
40
1
50
270
51
0
0
ARC
8
0
10
47.75
20
-74.75
40
1
50
0
51
90
0
ARC
8
0
10
32.25
20
-74.75
40
1
50
90
51
180
0
ARC
8
0
10
32.25
20
-89.25
40
1
50
180
51
270
0
ARC
8
0
10
47.75
20
-70.25
40
1
50
270
51
0
0
ARC
8
0
10
47.75
20
-55.75
40
1
50
0
51
90
0
ARC
8
0
10
32.25
20
-55.75
40
1
50
90
51
180
0
ARC
8
0
10
32.25
20
-70.25
40
1
50
180
51
270
0
ARC
8
0
10
67.75
20
-117.25
40
1
50
270
51
0
0
ARC
8
0
10
67.75
20
-102.75
40
1
50
0
51
90
0
ARC
8
0
10
52.25
20
-102.75
40
1
50
90
51
180
0
ARC
8
0
10
52.25
20
-117.25
40
1
50
180
51
270
0
ARC
8
0
10
67.75
20
-98.25
40
1
50
270
51
0
0
ARC
8
0
10
67.75
20
-83.75
40
1
50
0
51
90
0
ARC
8
0
10
52.25
20
-83.75
40
1
50
90
51
180
0
ARC
8
0
10
52.25
20
-98.25
40
1
50
180
51
270
0
ARC
8
0
10
67.75
20
-79.25
40
1
50
270
51
0
0
ARC
8
0
10
67.75
20
-64.75
40
1
50
0
51
90
0
ARC
8
0
10
52.25
20
-64.75
40
1
50
90
51
180
0
ARC
8
0
10
52.25
20
-79.25
40
1
50
180
51
270
0
ARC
8
0
10
67.75
20
-60.25
40
1
50
270
51
0
0
ARC
8
0
10
67.75
20
-45.75
40
1
50
0
51
90
0
ARC
8
0
10
52.25
20
-45.75
40
1
50
90
51
180
0
ARC
8
0
10
52.25
20
-60.25
40
1
50
180
51
270
0
ARC
8
0
10
87.75
20
-105.25
40
1
50
270
51
0
0
ARC
8
0
10
87.75
20
-90.75
40
1
50
0
51
90
0
ARC
8
0
10
72.25
20
-90.75
40
1
50
90
51
180
0
ARC
8
0
10
72.25
20
-105.25
40
1
50
180
51
270
0
ARC
8
0
10
87.75
20
-86.25
40
1
50
270
51
0
0
ARC
8
0
10
87.75
20
-71.75
40
1
50
0
51
90
0
ARC
8
0
10
72.25
20
-71.75
40
1
50
90
51
180
0
ARC
8
0
10
72.25
20
-86.25
40
1
50
180
51
270
0
ARC
8
0
10
87.75
20
-67.25
40
1
50
270
51
0
0
ARC
8
0
10
87.75
20
-52.75
40
1
50
0
51
90
0
ARC
8
0
10
72.25
20
-52.75
40
1
50
90
51
180
0
ARC
8
0
10
72.25
20
-67.25
40
1
50
180
51
270
0
ARC
8
0
10
87.75
20
-48.25
40
1
50
270
51
0
0
ARC
8
0
10
87.75
20
-33.75
40
1
50
0
51
90
0
ARC
8
0
10
72.25
20
-33.75
40
1
50
90
51
180
0
ARC
8
0
10
72.25
20
-48.25
40
1
50
180
51
270
0
ARC
8
0
10
107.75
20
-101.25
40
1
50
270
51
0
0
ARC
8
0
10
107.75
20
-86.75
40
1
50
0
51
90
0
ARC
8
0
10
92.25
20
-86.75
40
1
50
90
51
180
0
ARC
8
0
10
92.25
20
-101.25
40
1
50
180
51
270
0
ARC
8
0
10
107.75
20
-82.25
40
1
50
270
51
0
0
ARC
8
0
10
107.75
20
-67.75
40
1
50
0
51
90
0
ARC
8
0
10
92.25
20
-67.75
40
1
50
90
51
180
0
ARC
8
0
10
92.25
20
-82.25
40
1
50
180
51
270
0
ARC
8
0
10
107.75
20
-63.25
40
1
50
270
51
0
0
ARC
8
0
10
107.75
20
-48.75
40
1
50
0
51
90
0
ARC
8
0
10
92.25
20
-48.75
40
1
50
90
51
180
0
ARC
8
0
10
92.25
20
-63.25
40
1
50
180
51
270
0
ARC
8
0
10
107.75
20
-44.25
40
1
50
270
51
0
0
ARC
8
0
10
107.75
20
-29.75
40
1
50
0
51
90
0
ARC
8
0
10
92.25
20
-29.75
40
1
50
90
51
180
0
ARC
8
0
10
92.25
20
-44.25
40
1
50
180
51
270
0
ARC
8
0
10
127.75
20
-105.25
40
1
50
270
51
0
0
ARC
8
0
10
127.75
20
-90.75
40
1
50
0
51
90
0
ARC
8
0
10
112.25
20
-90.75
40
1
50
90
51
180
0
ARC
8
0
10
112.25
20
-105.25
40
1
50
180
51
270
0
ARC
8
0
10
127.75
20
-86.25
40
1
50
270
51
0
0
ARC
8
0
10
127.75
20
-71.75
40
1
50
0
51
90
0
ARC
8
0
10
112.25
20
-71.75
40
1
50
90
51
180
0
ARC
8
0
10
112.25
20
-86.25
40
1
50
180
51
270
0
ARC
8
0
10
127.75
20
-67.25
40
1
50
270
51
0
0
ARC
8
0
10
127.75
20
-52.75
40
1
50
0
51
90
0
ARC
8
0
10
112.25
20
-52.75
40
1
50
90
51
180
0
ARC
8
0
10
112.25
20
-67.25
40
1
50
180
51
270
0
ARC
8
0
10
127.75
20
-48.25
40
1
50
270
51
0
0
ARC
8
0
10
127.75
20
-33.75
40
1
50
0
51
90
0
ARC
8
0
10
112.25
20
-33.75
40
1
50
90
51
180
0
ARC
8
0
10
112.25
20
-48.25
40
1
50
180
51
270
0
ARC
8
0
10
147.75
20
-111.25
40
1
50
270
51
0
0
ARC
8
0
10
147.75
20
-96.75
40
1
50
0
51
90
0
ARC
8
0
10
132.25
20
-96.75
40
1
50
90
51
180
0
ARC
8
0
10
132.25
20
-111.25
40
1
50
180
51
270
0
ARC
8
0
10
147.75
20
-92.25
40
1
50
270
51
0
0
ARC
8
0
10
147.75
20
-77.75
40
1
50
0
51
90
0
ARC
8
0
10
132.25
20
-77.75
40
1
50
90
51
180
0
ARC
8
0
10
132.25
20
-92.25
40
1
50
180
51
270
0
ARC
8
0
10
147.75
20
-73.25
40
1
50
270
51
0
0
ARC
8
0
10
147.75
20
-58.75
40
1
50
0
51
90
0
ARC
8
0
10
132.25
20
-58.75
40
1
50
90
51
180
0
ARC
8
0
10
132.25
20
-73.25
40
1
50
180
51
270
0
ARC
8
0
10
147.75
20
-54.25
40
1
50
270
51
0
0
ARC
8
0
10
147.75
20
-39.75
40
1
50
0
51
90
0
ARC
8
0
10
132.25
20
-39.75
40
1
50
90
51
180
0
ARC
8
0
10
132.25
20
-54.25
40
1
50
180
51
270
0
ARC
8
0
10
87.75
20
-127.25
40
1
50
270
51
0
0
ARC
8
0
10
87.75
20
-112.75
40
1
50
0
51
90
0
ARC
8
0
10
72.25
20
-112.75
40
1
50
90
51
180
0
ARC
8
0
10
72.25
20
-127.25
40
1
50
180
51
270
0
ARC
8
0
10
107.75
20
-127.25
40
1
50
270
51
0
0
ARC
8
0
10
107.75
20
-112.75
40
1
50
0
51
90
0
ARC
8
0
10
92.25
20
-112.75
40
1
50
90
51
180
0
ARC
8
0
10
92.25
20
-127.25
40
1
50
180
51
270
0
ARC
8
0
10
127.0886297
20
-128.8978686
40
1
50
265.0000024
51
355.0000024
0
ARC
8
0
10
128.3523881
20
-114.4530455
40
1
50
355.0000024
51
85.0000024
0
ARC
8
0
10
112.9113703
20
-113.1021314
40
1
50
85.0000024
51
175.0000024
0
ARC
8
0
10
111.6476119
20
-127.5469545
40
1
50
175.0000024
51
265.0000024
0
ENDSEC
0
EOF