0
SECTION
2
HEADER
9
$INSUNITS
70
4
0
ENDSEC
0
SECTION
2
TABLES
0
TABLE
2
LTYPE
0
LTYPE
72
65
70
64
2
CONTINUOUS
3
______
73
0
40
0
0
ENDTAB
0
TABLE
2
LAYER
0
ENDTAB
0
ENDSEC
0
SECTION
2
ENTITIES
0
LINE
8
0
10
29.5
20
-135
11
106.8253566
21
-135
0
LINE
8
0
10
28.5
20
-134
11
28.5
21
-52
0
LINE
8
0
10
29.5
20
-51
11
46.5
21
-51
0
LINE
8
0
10
48.5
20
-43
11
65.5
21
-43
0
LINE
8
0
10
47.5
20
-50
11
47.5
21
-44
0
LINE
8
0
10
67.5
20
-31
11
84.5
21
-31
0
LINE
8
0
10
66.5
20
-42
11
66.5
21
-32
0
LINE
8
0
10
86.5
20
-27
11
107.5
21
-27
0
LINE
8
0
10
108.5
20
-28
11
108.5
21
-30
0
LINE
8
0
10
85.5
20
-30
11
85.5
21
-28
0
LINE
8
0
10
109.5
20
-31
11
126.5
21
-31
0
LINE
8
0
10
127.5
20
-32
11
127.5
21
-36
0
LINE
8
0
10
151.5
20
-118.7507703
11
151.5
21
-106
0
LINE
8
0
10
128.5
20
-37
11
151.5
21
-37
0
LINE
8
0
10
106.9125123
20
-135.0038053
11
125.141626
21
-136.5986461
0
LINE
8
0
10
125.3964904
20
-136.6551482
11
142.093026
21
-142.7321902
0
LINE
8
0
10
151.8572124
20
-119.5168147
11
172.2182655
21
-136.6017669
0
LINE
8
0
10
158.2001949
20
-154.8635767
11
172.3415223
21
-138.0105989
0
LINE
8
0
10
142.3937935
20
-142.9058384
11
156.7913629
21
-154.9868335
0
ARC
8
0
10
106.8253566
20
-136
40
1
50
85.0000024
51
90
0
ARC
8
0
10
125.0544703
20
-137.5948408
40
1
50
70.0000019
51
85.0000024
0
ARC
8
0
10
141.7510059
20
-143.6718828
40
1
50
49.9999988
51
70.0000019
0
ARC
8
0
10
157.4341505
20
-154.2207891
40
1
50
229.9999988
51
319.9999988
0
ARC
8
0
10
171.5754779
20
-137.3678113
40
1
50
319.9999988
51
49.9999988
0
ARC
8
0
10
152.5
20
-118.7507703
40
1
50
180
51
229.9999988
0
ARC
8
0
10
152.5
20
-106
40
1
50
149.9999999
51
180
0
ARC
8
0
10
128.5
20
-36
40
1
50
180
51
270
0
ARC
8
0
10
126.5
20
-32
40
1
50
0
51
90
0
ARC
8
0
10
109.5
20
-30
40
1
50
180
51
270
0
ARC
8
0
10
107.5
20
-28
40
1
50
0
51
90
0
ARC
8
0
10
86.5
20
-28
40
1
50
90
51
180
0
ARC
8
0
10
84.5
20
-30
40
1
50
270
51
0
0
ARC
8
0
10
67.5
20
-32
40
1
50
90
51
180
0
ARC
8
0
10
65.5
20
-42
40
1
50
270
51
0
0
ARC
8
0
10
48.5
20
-44
40
1
50
90
51
180
0
ARC
8
0
10
46.5
20
-50
40
1
50
270
51
0
0
ARC
8
0
10
29.5
20
-52
40
1
50
90
51
180
0
ARC
8
0
10
29.5
20
-134
40
1
50
180
51
270
0
LINE
8
0
10
33.1
20
-126.9
11
46.9
21
-126.9
0
LINE
8
0
10
46.9
20
-126.9
11
46.9
21
-113.1
0
LINE
8
0
10
46.9
20
-113.1
11
33.1
21
-113.1
0
LINE
8
0
10
33.1
20
-113.1
11
33.1
21
-126.9
0
LINE
8
0
10
33.1
20
-107.9
11
46.9
21
-107.9
0
LINE
8
0
10
46.9
20
-107.9
11
46.9
21
-94.1
0
LINE
8
0
10
46.9
20
-94.1
11
33.1
21
-94.1
0
LINE
8
0
10
33.1
20
-94.1
11
33.1
21
-107.9
0
LINE
8
0
10
33.1
20
-88.9
11
46.9
21
-88.9
0
LINE
8
0
10
46.9
20
-88.9
11
46.9
21
-75.1
0
LINE
8
0
10
46.9
20
-75.1
11
33.1
21
-75.1
0
LINE
8
0
10
33.1
20
-75.1
11
33.1
21
-88.9
0
LINE
8
0
10
33.1
20
-69.9
11
46.9
21
-69.9
0
LINE
8
0
10
46.9
20
-69.9
11
46.9
21
-56.1
0
LINE
8
0
10
46.9
20
-56.1
11
33.1
21
-56.1
0
LINE
8
0
10
33.1
20
-56.1
11
33.1
21
-69.9
0
LINE
8
0
10
52.1
20
-118.9
11
65.9
21
-118.9
0
LINE
8
0
10
65.9
20
-118.9
11
65.9
21
-105.1
0
LINE
8
0
10
65.9
20
-105.1
11
52.1
21
-105.1
0
LINE
8
0
10
52.1
20
-105.1
11
52.1
21
-118.9
0
LINE
8
0
10
52.1
20
-99.9
11
65.9
21
-99.9
0
LINE
8
0
10
65.9
20
-99.9
11
65.9
21
-86.1
0
LINE
8
0
10
65.9
20
-86.1
11
52.1
21
-86.1
0
LINE
8
0
10
52.1
20
-86.1
11
52.1
21
-99.9
0
LINE
8
0
10
52.1
20
-80.9
11
65.9
21
-80.9
0
LINE
8
0
10
65.9
20
-80.9
11
65.9
21
-67.1
0
LINE
8
0
10
65.9
20
-67.1
11
52.1
21
-67.1
0
LINE
8
0
10
52.1
20
-67.1
11
52.1
21
-80.9
0
LINE
8
0
10
52.1
20
-61.9
11
65.9
21
-61.9
0
LINE
8
0
10
65.9
20
-61.9
11
65.9
21
-48.1
0
LINE
8
0
10
65.9
20
-48.1
11
52.1
21
-48.1
0
LINE
8
0
10
52.1
20
-48.1
11
52.1
21
-61.9
0
LINE
8
0
10
71.1
20
-106.9
11
84.9
21
-106.9
0
LINE
8
0
10
84.9
20
-106.9
11
84.9
21
-93.1
0
LINE
8
0
10
84.9
20
-93.1
11
71.1
21
-93.1
0
LINE
8
0
10
71.1
20
-93.1
11
71.1
21
-106.9
0
LINE
8
0
10
71.1
20
-87.9
11
84.9
21
-87.9
0
LINE
8
0
10
84.9
20
-87.9
11
84.9
21
-74.1
0
LINE
8
0
10
84.9
20
-74.1
11
71.1
21
-74.1
0
LINE
8
0
10
71.1
20
-74.1
11
71.1
21
-87.9
0
LINE
8
0
10
71.1
20
-68.9
11
84.9
21
-68.9
0
LINE
8
0
10
84.9
20
-68.9
11
84.9
21
-55.1
0
LINE
8
0
10
84.9
20
-55.1
11
71.1
21
-55.1
0
LINE
8
0
10
71.1
20
-55.1
11
71.1
21
-68.9
0
LINE
8
0
10
71.1
20
-49.9
11
84.9
21
-49.9
0
LINE
8
0
10
84.9
20
-49.9
11
84.9
21
-36.1
0
LINE
8
0
10
84.9
20
-36.1
11
71.1
21
-36.1
0
LINE
8
0
10
71.1
20
-36.1
11
71.1
21
-49.9
0
LINE
8
0
10
90.1
20
-102.9
11
103.9
21
-102.9
0
LINE
8
0
10
103.9
20
-102.9
11
103.9
21
-89.1
0
LINE
8
0
10
103.9
20
-89.1
11
90.1
21
-89.1
0
LINE
8
0
10
90.1
20
-89.1
11
90.1
21
-102.9
0
LINE
8
0
10
90.1
20
-83.9
11
103.9
21
-83.9
0
LINE
8
0
10
103.9
20
-83.9
11
103.9
21
-70.1
0
LINE
8
0
10
103.9
20
-70.1
11
90.1
21
-70.1
0
LINE
8
0
10
90.1
20
-70.1
11
90.1
21
-83.9
0
LINE
8
0
10
90.1
20
-64.9
11
103.9
21
-64.9
0
LINE
8
0
10
103.9
20
-64.9
11
103.9
21
-51.1
0
LINE
8
0
10
103.9
20
-51.1
11
90.1
21
-51.1
0
LINE
8
0
10
90.1
20
-51.1
11
90.1
21
-64.9
0
LINE
8
0
10
90.1
20
-45.9
11
103.9
21
-45.9
0
LINE
8
0
10
103.9
20
-45.9
11
103.9
21
-32.1
0
LINE
8
0
10
103.9
20
-32.1
11
90.1
21
-32.1
0
LINE
8
0
10
90.1
20
-32.1
11
90.1
21
-45.9
0
LINE
8
0
10
109.1
20
-106.9
11
122.9
21
-106.9
0
LINE
8
0
10
122.9
20
-106.9
11
122.9
21
-93.1
0
LINE
8
0
10
122.9
20
-93.1
11
109.1
21
-93.1
0
LINE
8
0
10
109.1
20
-93.1
11
109.1
21
-106.9
0
LINE
8
0
10
109.1
20
-87.9
11
122.9
21
-87.9
0
LINE
8
0
10
122.9
20
-87.9
11
122.9
21
-74.1
0
LINE
8
0
10
122.9
20
-74.1
11
109.1
21
-74.1
0
LINE
8
0
10
109.1
20
-74.1
11
109.1
21
-87.9
0
LINE
8
0
10
109.1
20
-68.9
11
122.9
21
-68.9
0
LINE
8
0
10
122.9
20
-68.9
11
122.9
21
-55.1
0
LINE
8
0
10
122.9
20
-55.1
11
109.1
21
-55.1
0
LINE
8
0
10
109.1
20
-55.1
11
109.1
21
-68.9
0
LINE
8
0
10
109.1
20
-49.9
11
122.9
21
-49.9
0
LINE
8
0
10
122.9
20
-49.9
11
122.9
21
-36.1
0
LINE
8
0
10
122.9
20
-36.1
11
109.1
21
-36.1
0
LINE
8
0
10
109.1
20
-36.1
11
109.1
21
-49.9
0
LINE
8
0
10
128.1
20
-112.9
11
141.9
21
-112.9
0
LINE
8
0
10
141.9
20
-112.9
11
141.9
21
-99.1
0
LINE
8
0
10
141.9
20
-99.1
11
128.1
21
-99.1
0
LINE
8
0
10
128.1
20
-99.1
11
128.1
21
-112.9
0
LINE
8
0
10
128.1
20
-93.9
11
141.9
21
-93.9
0
LINE
8
0
10
141.9
20
-93.9
11
141.9
21
-80.1
0
LINE
8
0
10
141.9
20
-80.1
11
128.1
21
-80.1
0
LINE
8
0
10
128.1
20
-80.1
11
128.1
21
-93.9
0
LINE
8
0
10
128.1
20
-74.9
11
141.9
21
-74.9
0
LINE
8
0
10
141.9
20
-74.9
11
141.9
21
-61.1
0
LINE
8
0
10
141.9
20
-61.1
11
128.1
21
-61.1
0
LINE
8
0
10
128.1
20
-61.1
11
128.1
21
-74.9
0
LINE
8
0
10
128.1
20
-55.9
11
141.9
21
-55.9
0
LINE
8
0
10
141.9
20
-55.9
11
141.9
21
-42.1
0
LINE
8
0
10
141.9
20
-42.1
11
128.1
21
-42.1
0
LINE
8
0
10
128.1
20
-42.1
11
128.1
21
-55.9
0
LINE
8
0
10
71.1
20
-129.9
11
84.9
21
-129.9
0
LINE
8
0
10
84.9
20
-129.9
11
84.9
21
-116.1
0
LINE
8
0
10
84.9
20
-116.1
11
71.1
21
-116.1
0
LINE
8
0
10
71.1
20
-116.1
11
71.1
21
-129.9
0
LINE
8
0
10
90.1
20
-129.9
11
103.9
21
-129.9
0
LINE
8
0
10
103.9
20
-129.9
11
103.9
21
-116.1
0
LINE
8
0
10
103.9
20
-116.1
11
90.1
21
-116.1
0
LINE
8
0
10
90.1
20
-116.1
11
90.1
21
-129.9
0
LINE
8
0
10
109.275036
20
-130.0910182
11
123.0225228
21
-131.2937674
0
LINE
8
0
10
123.0225228
20
-131.2937674
11
124.225272
21
-117.5462806
0
LINE
8
0
10
124.225272
20
-117.5462806
11
110.4777852
21
-116.3435314
0
LINE
8
0
10
110.4777852
20
-116.3435314
11
109.275036
21
-130.0910182
0
LINE
8
0
10
128.619296
20
-132.4008469
11
141.5870542
21
-137.1207249
0
LINE
8
0
10
141.5870542
20
-137.1207249
11
146.3069322
21
-124.1529667
0
LINE
8
0
10
146.3069322
20
-124.1529667
11
133.339174
21
-119.4330887
0
LINE
8
0
10
133.339174
20
-119.4330887
11
128.619296
21
-132.4008469
0
LINE
8
0
10
146.7404063
20
-139.8955025
11
157.3118197
21
-148.7659715
0
LINE
8
0
10
157.3118197
20
-148.7659715
11
166.1822887
21
-138.1945581
0
LINE
8
0
10
166.1822887
20
-138.1945581
11
155.6108753
21
-129.3240891
0
LINE
8
0
10
155.6108753
20
-129.3240891
11
146.7404063
21
-139.8955025
0
CIRCLE
8
0
10
51
20
-121.5
40
1.6
0
CIRCLE
8
0
10
51
20
-64.5
40
1.6
0
CIRCLE
8
0
10
90
20
-109.5
40
1.6
0
CIRCLE
8
0
10
90
20
-48.5
40
1.6
0
CIRCLE
8
0
10
146
20
-117
40
1.6
0
CIRCLE
8
0
10
146
20
-43
40
1.6
0
LINE
8
0
10
151.5
20
-105.5
11
151.6339746
21
-105.5
0
LINE
8
0
10
151.5
20
-37
11
151.5
21
-105.5
0
ENDSEC
0
EOF