0
SECTION
2
HEADER
9
$INSUNITS
70
4
0
ENDSEC
0
SECTION
2
TABLES
0
TABLE
2
LTYPE
0
LTYPE
72
65
70
64
2
CONTINUOUS
3
______
73
0
40
0
0
ENDTAB
0
TABLE
2
LAYER
0
ENDTAB
0
ENDSEC
0
SECTION
2
ENTITIES
0
LINE
8
0
10
29
20
-132
11
108.0023551
21
-132
0
LINE
8
0
10
28
20
-131
11
28
21
-54
0
LINE
8
0
10
29
20
-53
11
49
21
-53
0
LINE
8
0
10
51
20
-41
11
69
21
-41
0
LINE
8
0
10
50
20
-52
11
50
21
-42
0
LINE
8
0
10
71
20
-29
11
89
21
-29
0
LINE
8
0
10
70
20
-40
11
70
21
-30
0
LINE
8
0
10
91
20
-25
11
109
21
-25
0
LINE
8
0
10
110
20
-26
11
110
21
-28
0
LINE
8
0
10
90
20
-28
11
90
21
-26
0
LINE
8
0
10
111
20
-29
11
129
21
-29
0
LINE
8
0
10
130
20
-30
11
130
21
-34
0
LINE
8
0
10
158
20
-118.9877595
11
158
21
-104
0
LINE
8
0
10
131
20
-35
11
153
21
-35
0
LINE
8
0
10
108.0895108
20
-132.0038053
11
128.4570478
21
-133.7857339
0
LINE
8
0
10
128.7119122
20
-133.842236
11
144.6134583
21
-139.6299255
0
LINE
8
0
10
158.3572124
20
-119.7538039
11
175.189257
21
-133.8775663
0
LINE
8
0
10
161.1711864
20
-152.1393761
11
175.3125138
21
-135.2863983
0
LINE
8
0
10
144.9142257
20
-139.8035737
11
159.7623544
21
-152.2626329
0
ARC
8
0
10
29
20
-131
40
1
50
180
51
270
0
ARC
8
0
10
29
20
-54
40
1
50
90
51
180
0
ARC
8
0
10
49
20
-52
40
1
50
270
51
0
0
ARC
8
0
10
51
20
-42
40
1
50
90
51
180
0
ARC
8
0
10
69
20
-40
40
1
50
270
51
0
0
ARC
8
0
10
71
20
-30
40
1
50
90
51
180
0
ARC
8
0
10
89
20
-28
40
1
50
270
51
0
0
ARC
8
0
10
91
20
-26
40
1
50
90
51
180
0
ARC
8
0
10
109
20
-26
40
1
50
0
51
90
0
ARC
8
0
10
111
20
-28
40
1
50
180
51
270
0
ARC
8
0
10
129
20
-30
40
1
50
0
51
90
0
ARC
8
0
10
131
20
-34
40
1
50
180
51
270
0
ARC
8
0
10
159
20
-118.9877595
40
1
50
180
51
229.9999988
0
ARC
8
0
10
174.5464694
20
-134.6436107
40
1
50
319.9999988
51
49.9999988
0
ARC
8
0
10
160.405142
20
-151.4965885
40
1
50
229.9999988
51
319.9999988
0
ARC
8
0
10
144.2714381
20
-140.5696181
40
1
50
49.9999988
51
69.9999965
0
ARC
8
0
10
128.3698921
20
-134.7819286
40
1
50
70.0000019
51
85.0000024
0
ARC
8
0
10
108.0023551
20
-133
40
1
50
85.0000024
51
90
0
ARC
8
0
10
159
20
-104
40
1
50
90
51
180
0
LINE
8
0
10
33.1
20
-126.9
11
46.9
21
-126.9
0
LINE
8
0
10
46.9
20
-126.9
11
46.9
21
-113.1
0
LINE
8
0
10
46.9
20
-113.1
11
33.1
21
-113.1
0
LINE
8
0
10
33.1
20
-113.1
11
33.1
21
-126.9
0
LINE
8
0
10
33.1
20
-107.9
11
46.9
21
-107.9
0
LINE
8
0
10
46.9
20
-107.9
11
46.9
21
-94.1
0
LINE
8
0
10
46.9
20
-94.1
11
33.1
21
-94.1
0
LINE
8
0
10
33.1
20
-94.1
11
33.1
21
-107.9
0
LINE
8
0
10
33.1
20
-88.9
11
46.9
21
-88.9
0
LINE
8
0
10
46.9
20
-88.9
11
46.9
21
-75.1
0
LINE
8
0
10
46.9
20
-75.1
11
33.1
21
-75.1
0
LINE
8
0
10
33.1
20
-75.1
11
33.1
21
-88.9
0
LINE
8
0
10
33.1
20
-69.9
11
46.9
21
-69.9
0
LINE
8
0
10
46.9
20
-69.9
11
46.9
21
-56.1
0
LINE
8
0
10
46.9
20
-56.1
11
33.1
21
-56.1
0
LINE
8
0
10
33.1
20
-56.1
11
33.1
21
-69.9
0
LINE
8
0
10
53.1
20
-116.9
11
66.9
21
-116.9
0
LINE
8
0
10
66.9
20
-116.9
11
66.9
21
-103.1
0
LINE
8
0
10
66.9
20
-103.1
11
53.1
21
-103.1
0
LINE
8
0
10
53.1
20
-103.1
11
53.1
21
-116.9
0
LINE
8
0
10
53.1
20
-97.9
11
66.9
21
-97.9
0
LINE
8
0
10
66.9
20
-97.9
11
66.9
21
-84.1
0
LINE
8
0
10
66.9
20
-84.1
11
53.1
21
-84.1
0
LINE
8
0
10
53.1
20
-84.1
11
53.1
21
-97.9
0
LINE
8
0
10
53.1
20
-78.9
11
66.9
21
-78.9
0
LINE
8
0
10
66.9
20
-78.9
11
66.9
21
-65.1
0
LINE
8
0
10
66.9
20
-65.1
11
53.1
21
-65.1
0
LINE
8
0
10
53.1
20
-65.1
11
53.1
21
-78.9
0
LINE
8
0
10
53.1
20
-59.9
11
66.9
21
-59.9
0
LINE
8
0
10
66.9
20
-59.9
11
66.9
21
-46.1
0
LINE
8
0
10
66.9
20
-46.1
11
53.1
21
-46.1
0
LINE
8
0
10
53.1
20
-46.1
11
53.1
21
-59.9
0
LINE
8
0
10
73.1
20
-104.9
11
86.9
21
-104.9
0
LINE
8
0
10
86.9
20
-104.9
11
86.9
21
-91.1
0
LINE
8
0
10
86.9
20
-91.1
11
73.1
21
-91.1
0
LINE
8
0
10
73.1
20
-91.1
11
73.1
21
-104.9
0
LINE
8
0
10
73.1
20
-85.9
11
86.9
21
-85.9
0
LINE
8
0
10
86.9
20
-85.9
11
86.9
21
-72.1
0
LINE
8
0
10
86.9
20
-72.1
11
73.1
21
-72.1
0
LINE
8
0
10
73.1
20
-72.1
11
73.1
21
-85.9
0
LINE
8
0
10
73.1
20
-66.9
11
86.9
21
-66.9
0
LINE
8
0
10
86.9
20
-66.9
11
86.9
21
-53.1
0
LINE
8
0
10
86.9
20
-53.1
11
73.1
21
-53.1
0
LINE
8
0
10
73.1
20
-53.1
11
73.1
21
-66.9
0
LINE
8
0
10
73.1
20
-47.9
11
86.9
21
-47.9
0
LINE
8
0
10
86.9
20
-47.9
11
86.9
21
-34.1
0
LINE
8
0
10
86.9
20
-34.1
11
73.1
21
-34.1
0
LINE
8
0
10
73.1
20
-34.1
11
73.1
21
-47.9
0
LINE
8
0
10
93.1
20
-100.9
11
106.9
21
-100.9
0
LINE
8
0
10
106.9
20
-100.9
11
106.9
21
-87.1
0
LINE
8
0
10
106.9
20
-87.1
11
93.1
21
-87.1
0
LINE
8
0
10
93.1
20
-87.1
11
93.1
21
-100.9
0
LINE
8
0
10
93.1
20
-81.9
11
106.9
21
-81.9
0
LINE
8
0
10
106.9
20
-81.9
11
106.9
21
-68.1
0
LINE
8
0
10
106.9
20
-68.1
11
93.1
21
-68.1
0
LINE
8
0
10
93.1
20
-68.1
11
93.1
21
-81.9
0
LINE
8
0
10
93.1
20
-62.9
11
106.9
21
-62.9
0
LINE
8
0
10
106.9
20
-62.9
11
106.9
21
-49.1
0
LINE
8
0
10
106.9
20
-49.1
11
93.1
21
-49.1
0
LINE
8
0
10
93.1
20
-49.1
11
93.1
21
-62.9
0
LINE
8
0
10
93.1
20
-43.9
11
106.9
21
-43.9
0
LINE
8
0
10
106.9
20
-43.9
11
106.9
21
-30.1
0
LINE
8
0
10
106.9
20
-30.1
11
93.1
21
-30.1
0
LINE
8
0
10
93.1
20
-30.1
11
93.1
21
-43.9
0
LINE
8
0
10
113.1
20
-104.9
11
126.9
21
-104.9
0
LINE
8
0
10
126.9
20
-104.9
11
126.9
21
-91.1
0
LINE
8
0
10
126.9
20
-91.1
11
113.1
21
-91.1
0
LINE
8
0
10
113.1
20
-91.1
11
113.1
21
-104.9
0
LINE
8
0
10
113.1
20
-85.9
11
126.9
21
-85.9
0
LINE
8
0
10
126.9
20
-85.9
11
126.9
21
-72.1
0
LINE
8
0
10
126.9
20
-72.1
11
113.1
21
-72.1
0
LINE
8
0
10
113.1
20
-72.1
11
113.1
21
-85.9
0
LINE
8
0
10
113.1
20
-66.9
11
126.9
21
-66.9
0
LINE
8
0
10
126.9
20
-66.9
11
126.9
21
-53.1
0
LINE
8
0
10
126.9
20
-53.1
11
113.1
21
-53.1
0
LINE
8
0
10
113.1
20
-53.1
11
113.1
21
-66.9
0
LINE
8
0
10
113.1
20
-47.9
11
126.9
21
-47.9
0
LINE
8
0
10
126.9
20
-47.9
11
126.9
21
-34.1
0
LINE
8
0
10
126.9
20
-34.1
11
113.1
21
-34.1
0
LINE
8
0
10
113.1
20
-34.1
11
113.1
21
-47.9
0
LINE
8
0
10
133.1
20
-110.9
11
146.9
21
-110.9
0
LINE
8
0
10
146.9
20
-110.9
11
146.9
21
-97.1
0
LINE
8
0
10
146.9
20
-97.1
11
133.1
21
-97.1
0
LINE
8
0
10
133.1
20
-97.1
11
133.1
21
-110.9
0
LINE
8
0
10
133.1
20
-91.9
11
146.9
21
-91.9
0
LINE
8
0
10
146.9
20
-91.9
11
146.9
21
-78.1
0
LINE
8
0
10
146.9
20
-78.1
11
133.1
21
-78.1
0
LINE
8
0
10
133.1
20
-78.1
11
133.1
21
-91.9
0
LINE
8
0
10
133.1
20
-72.9
11
146.9
21
-72.9
0
LINE
8
0
10
146.9
20
-72.9
11
146.9
21
-59.1
0
LINE
8
0
10
146.9
20
-59.1
11
133.1
21
-59.1
0
LINE
8
0
10
133.1
20
-59.1
11
133.1
21
-72.9
0
LINE
8
0
10
133.1
20
-53.9
11
146.9
21
-53.9
0
LINE
8
0
10
146.9
20
-53.9
11
146.9
21
-40.1
0
LINE
8
0
10
146.9
20
-40.1
11
133.1
21
-40.1
0
LINE
8
0
10
133.1
20
-40.1
11
133.1
21
-53.9
0
LINE
8
0
10
73.1
20
-126.9
11
86.9
21
-126.9
0
LINE
8
0
10
86.9
20
-126.9
11
86.9
21
-113.1
0
LINE
8
0
10
86.9
20
-113.1
11
73.1
21
-113.1
0
LINE
8
0
10
73.1
20
-113.1
11
73.1
21
-126.9
0
LINE
8
0
10
93.1
20
-126.9
11
106.9
21
-126.9
0
LINE
8
0
10
106.9
20
-126.9
11
106.9
21
-113.1
0
LINE
8
0
10
106.9
20
-113.1
11
93.1
21
-113.1
0
LINE
8
0
10
93.1
20
-113.1
11
93.1
21
-126.9
0
LINE
8
0
10
112.524882
20
-127.2723688
11
126.2723688
21
-128.475118
0
LINE
8
0
10
126.2723688
20
-128.475118
11
127.475118
21
-114.7276312
0
LINE
8
0
10
127.475118
20
-114.7276312
11
113.7276312
21
-113.524882
0
LINE
8
0
10
113.7276312
20
-113.524882
11
112.524882
21
-127.2723688
0
LINE
8
0
10
131.9965743
20
-129.6104486
11
144.9643325
21
-134.3303266
0
LINE
8
0
10
144.9643325
20
-134.3303266
11
149.6842105
21
-121.3625684
0
LINE
8
0
10
149.6842105
20
-121.3625684
11
136.7164523
21
-116.6426904
0
LINE
8
0
10
136.7164523
20
-116.6426904
11
131.9965743
21
-129.6104486
0
LINE
8
0
10
149.3283756
20
-136.8499081
11
159.899789
21
-145.7203771
0
LINE
8
0
10
159.899789
20
-145.7203771
11
168.770258
21
-135.1489637
0
LINE
8
0
10
168.770258
20
-135.1489637
11
158.1988446
21
-126.2784947
0
LINE
8
0
10
158.1988446
20
-126.2784947
11
149.3283756
21
-136.8499081
0
CIRCLE
8
0
10
51
20
-120
40
1.6
0
CIRCLE
8
0
10
51
20
-63
40
1.6
0
CIRCLE
8
0
10
90
20
-109
40
1.6
0
CIRCLE
8
0
10
90
20
-50
40
1.6
0
CIRCLE
8
0
10
150
20
-115
40
1.6
0
CIRCLE
8
0
10
150
20
-41
40
1.6
0
LINE
8
0
10
153
20
-103
11
159
21
-103
0
LINE
8
0
10
153
20
-35
11
153
21
-103
0
ENDSEC
0
EOF