0
SECTION
2
HEADER
9
$INSUNITS
70
4
0
ENDSEC
0
SECTION
2
TABLES
0
TABLE
2
LTYPE
0
LTYPE
72
65
70
64
2
CONTINUOUS
3
______
73
0
40
0
0
ENDTAB
0
TABLE
2
LAYER
0
ENDTAB
0
ENDSEC
0
SECTION
2
ENTITIES
0
LINE
8
0
10
29.5
20
-133
11
106.8253566
21
-133
0
LINE
8
0
10
28.5
20
-132
11
28.5
21
-54
0
LINE
8
0
10
29.5
20
-53
11
46.5
21
-53
0
LINE
8
0
10
48.5
20
-41
11
65.5
21
-41
0
LINE
8
0
10
47.5
20
-52
11
47.5
21
-42
0
LINE
8
0
10
67.5
20
-29
11
84.5
21
-29
0
LINE
8
0
10
66.5
20
-40
11
66.5
21
-30
0
LINE
8
0
10
86.5
20
-25
11
107.5
21
-25
0
LINE
8
0
10
108.5
20
-26
11
108.5
21
-28
0
LINE
8
0
10
85.5
20
-28
11
85.5
21
-26
0
LINE
8
0
10
109.5
20
-29
11
126.5
21
-29
0
LINE
8
0
10
127.5
20
-30
11
127.5
21
-34
0
LINE
8
0
10
151.5
20
-116.7507703
11
151.5
21
-104
0
LINE
8
0
10
128.5
20
-35
11
151.5
21
-35
0
LINE
8
0
10
106.9125123
20
-133.0038053
11
125.141626
21
-134.5986461
0
LINE
8
0
10
125.3964904
20
-134.6551482
11
142.093026
21
-140.7321902
0
LINE
8
0
10
151.8572124
20
-117.5168147
11
172.2182655
21
-134.6017669
0
LINE
8
0
10
158.2001949
20
-152.8635767
11
172.3415223
21
-136.0105989
0
LINE
8
0
10
142.3937935
20
-140.9058384
11
156.7913629
21
-152.9868335
0
ARC
8
0
10
106.8253566
20
-134
40
1
50
85.0000024
51
90
0
ARC
8
0
10
125.0544703
20
-135.5948408
40
1
50
70.0000019
51
85.0000024
0
ARC
8
0
10
141.7510059
20
-141.6718828
40
1
50
49.9999988
51
70.0000019
0
ARC
8
0
10
157.4341505
20
-152.2207891
40
1
50
229.9999988
51
319.9999988
0
ARC
8
0
10
171.5754779
20
-135.3678113
40
1
50
319.9999988
51
49.9999988
0
ARC
8
0
10
152.5
20
-116.7507703
40
1
50
180
51
229.9999988
0
ARC
8
0
10
152.5
20
-104
40
1
50
149.9999999
51
180
0
ARC
8
0
10
128.5
20
-34
40
1
50
180
51
270
0
ARC
8
0
10
126.5
20
-30
40
1
50
0
51
90
0
ARC
8
0
10
109.5
20
-28
40
1
50
180
51
270
0
ARC
8
0
10
107.5
20
-26
40
1
50
0
51
90
0
ARC
8
0
10
86.5
20
-26
40
1
50
90
51
180
0
ARC
8
0
10
84.5
20
-28
40
1
50
270
51
0
0
ARC
8
0
10
67.5
20
-30
40
1
50
90
51
180
0
ARC
8
0
10
65.5
20
-40
40
1
50
270
51
0
0
ARC
8
0
10
48.5
20
-42
40
1
50
90
51
180
0
ARC
8
0
10
46.5
20
-52
40
1
50
270
51
0
0
ARC
8
0
10
29.5
20
-54
40
1
50
90
51
180
0
ARC
8
0
10
29.5
20
-132
40
1
50
180
51
270
0
LINE
8
0
10
33.1
20
-126.9
11
46.9
21
-126.9
0
LINE
8
0
10
46.9
20
-126.9
11
46.9
21
-113.1
0
LINE
8
0
10
46.9
20
-113.1
11
33.1
21
-113.1
0
LINE
8
0
10
33.1
20
-113.1
11
33.1
21
-126.9
0
LINE
8
0
10
33.1
20
-107.9
11
46.9
21
-107.9
0
LINE
8
0
10
46.9
20
-107.9
11
46.9
21
-94.1
0
LINE
8
0
10
46.9
20
-94.1
11
33.1
21
-94.1
0
LINE
8
0
10
33.1
20
-94.1
11
33.1
21
-107.9
0
LINE
8
0
10
33.1
20
-88.9
11
46.9
21
-88.9
0
LINE
8
0
10
46.9
20
-88.9
11
46.9
21
-75.1
0
LINE
8
0
10
46.9
20
-75.1
11
33.1
21
-75.1
0
LINE
8
0
10
33.1
20
-75.1
11
33.1
21
-88.9
0
LINE
8
0
10
33.1
20
-69.9
11
46.9
21
-69.9
0
LINE
8
0
10
46.9
20
-69.9
11
46.9
21
-56.1
0
LINE
8
0
10
46.9
20
-56.1
11
33.1
21
-56.1
0
LINE
8
0
10
33.1
20
-56.1
11
33.1
21
-69.9
0
LINE
8
0
10
52.1
20
-116.9
11
65.9
21
-116.9
0
LINE
8
0
10
65.9
20
-116.9
11
65.9
21
-103.1
0
LINE
8
0
10
65.9
20
-103.1
11
52.1
21
-103.1
0
LINE
8
0
10
52.1
20
-103.1
11
52.1
21
-116.9
0
LINE
8
0
10
52.1
20
-97.9
11
65.9
21
-97.9
0
LINE
8
0
10
65.9
20
-97.9
11
65.9
21
-84.1
0
LINE
8
0
10
65.9
20
-84.1
11
52.1
21
-84.1
0
LINE
8
0
10
52.1
20
-84.1
11
52.1
21
-97.9
0
LINE
8
0
10
52.1
20
-78.9
11
65.9
21
-78.9
0
LINE
8
0
10
65.9
20
-78.9
11
65.9
21
-65.1
0
LINE
8
0
10
65.9
20
-65.1
11
52.1
21
-65.1
0
LINE
8
0
10
52.1
20
-65.1
11
52.1
21
-78.9
0
LINE
8
0
10
52.1
20
-59.9
11
65.9
21
-59.9
0
LINE
8
0
10
65.9
20
-59.9
11
65.9
21
-46.1
0
LINE
8
0
10
65.9
20
-46.1
11
52.1
21
-46.1
0
LINE
8
0
10
52.1
20
-46.1
11
52.1
21
-59.9
0
LINE
8
0
10
71.1
20
-104.9
11
84.9
21
-104.9
0
LINE
8
0
10
84.9
20
-104.9
11
84.9
21
-91.1
0
LINE
8
0
10
84.9
20
-91.1
11
71.1
21
-91.1
0
LINE
8
0
10
71.1
20
-91.1
11
71.1
21
-104.9
0
LINE
8
0
10
71.1
20
-85.9
11
84.9
21
-85.9
0
LINE
8
0
10
84.9
20
-85.9
11
84.9
21
-72.1
0
LINE
8
0
10
84.9
20
-72.1
11
71.1
21
-72.1
0
LINE
8
0
10
71.1
20
-72.1
11
71.1
21
-85.9
0
LINE
8
0
10
71.1
20
-66.9
11
84.9
21
-66.9
0
LINE
8
0
10
84.9
20
-66.9
11
84.9
21
-53.1
0
LINE
8
0
10
84.9
20
-53.1
11
71.1
21
-53.1
0
LINE
8
0
10
71.1
20
-53.1
11
71.1
21
-66.9
0
LINE
8
0
10
71.1
20
-47.9
11
84.9
21
-47.9
0
LINE
8
0
10
84.9
20
-47.9
11
84.9
21
-34.1
0
LINE
8
0
10
84.9
20
-34.1
11
71.1
21
-34.1
0
LINE
8
0
10
71.1
20
-34.1
11
71.1
21
-47.9
0
LINE
8
0
10
90.1
20
-100.9
11
103.9
21
-100.9
0
LINE
8
0
10
103.9
20
-100.9
11
103.9
21
-87.1
0
LINE
8
0
10
103.9
20
-87.1
11
90.1
21
-87.1
0
LINE
8
0
10
90.1
20
-87.1
11
90.1
21
-100.9
0
LINE
8
0
10
90.1
20
-81.9
11
103.9
21
-81.9
0
LINE
8
0
10
103.9
20
-81.9
11
103.9
21
-68.1
0
LINE
8
0
10
103.9
20
-68.1
11
90.1
21
-68.1
0
LINE
8
0
10
90.1
20
-68.1
11
90.1
21
-81.9
0
LINE
8
0
10
90.1
20
-62.9
11
103.9
21
-62.9
0
LINE
8
0
10
103.9
20
-62.9
11
103.9
21
-49.1
0
LINE
8
0
10
103.9
20
-49.1
11
90.1
21
-49.1
0
LINE
8
0
10
90.1
20
-49.1
11
90.1
21
-62.9
0
LINE
8
0
10
90.1
20
-43.9
11
103.9
21
-43.9
0
LINE
8
0
10
103.9
20
-43.9
11
103.9
21
-30.1
0
LINE
8
0
10
103.9
20
-30.1
11
90.1
21
-30.1
0
LINE
8
0
10
90.1
20
-30.1
11
90.1
21
-43.9
0
LINE
8
0
10
109.1
20
-104.9
11
122.9
21
-104.9
0
LINE
8
0
10
122.9
20
-104.9
11
122.9
21
-91.1
0
LINE
8
0
10
122.9
20
-91.1
11
109.1
21
-91.1
0
LINE
8
0
10
109.1
20
-91.1
11
109.1
21
-104.9
0
LINE
8
0
10
109.1
20
-85.9
11
122.9
21
-85.9
0
LINE
8
0
10
122.9
20
-85.9
11
122.9
21
-72.1
0
LINE
8
0
10
122.9
20
-72.1
11
109.1
21
-72.1
0
LINE
8
0
10
109.1
20
-72.1
11
109.1
21
-85.9
0
LINE
8
0
10
109.1
20
-66.9
11
122.9
21
-66.9
0
LINE
8
0
10
122.9
20
-66.9
11
122.9
21
-53.1
0
LINE
8
0
10
122.9
20
-53.1
11
109.1
21
-53.1
0
LINE
8
0
10
109.1
20
-53.1
11
109.1
21
-66.9
0
LINE
8
0
10
109.1
20
-47.9
11
122.9
21
-47.9
0
LINE
8
0
10
122.9
20
-47.9
11
122.9
21
-34.1
0
LINE
8
0
10
122.9
20
-34.1
11
109.1
21
-34.1
0
LINE
8
0
10
109.1
20
-34.1
11
109.1
21
-47.9
0
LINE
8
0
10
128.1
20
-110.9
11
141.9
21
-110.9
0
LINE
8
0
10
141.9
20
-110.9
11
141.9
21
-97.1
0
LINE
8
0
10
141.9
20
-97.1
11
128.1
21
-97.1
0
LINE
8
0
10
128.1
20
-97.1
11
128.1
21
-110.9
0
LINE
8
0
10
128.1
20
-91.9
11
141.9
21
-91.9
0
LINE
8
0
10
141.9
20
-91.9
11
141.9
21
-78.1
0
LINE
8
0
10
141.9
20
-78.1
11
128.1
21
-78.1
0
LINE
8
0
10
128.1
20
-78.1
11
128.1
21
-91.9
0
LINE
8
0
10
128.1
20
-72.9
11
141.9
21
-72.9
0
LINE
8
0
10
141.9
20
-72.9
11
141.9
21
-59.1
0
LINE
8
0
10
141.9
20
-59.1
11
128.1
21
-59.1
0
LINE
8
0
10
128.1
20
-59.1
11
128.1
21
-72.9
0
LINE
8
0
10
128.1
20
-53.9
11
141.9
21
-53.9
0
LINE
8
0
10
141.9
20
-53.9
11
141.9
21
-40.1
0
LINE
8
0
10
141.9
20
-40.1
11
128.1
21
-40.1
0
LINE
8
0
10
128.1
20
-40.1
11
128.1
21
-53.9
0
LINE
8
0
10
71.1
20
-127.9
11
84.9
21
-127.9
0
LINE
8
0
10
84.9
20
-127.9
11
84.9
21
-114.1
0
LINE
8
0
10
84.9
20
-114.1
11
71.1
21
-114.1
0
LINE
8
0
10
71.1
20
-114.1
11
71.1
21
-127.9
0
LINE
8
0
10
90.1
20
-127.9
11
103.9
21
-127.9
0
LINE
8
0
10
103.9
20
-127.9
11
103.9
21
-114.1
0
LINE
8
0
10
103.9
20
-114.1
11
90.1
21
-114.1
0
LINE
8
0
10
90.1
20
-114.1
11
90.1
21
-127.9
0
LINE
8
0
10
109.275036
20
-128.0910182
11
123.0225228
21
-129.2937674
0
LINE
8
0
10
123.0225228
20
-129.2937674
11
124.225272
21
-115.5462806
0
LINE
8
0
10
124.225272
20
-115.5462806
11
110.4777852
21
-114.3435314
0
LINE
8
0
10
110.4777852
20
-114.3435314
11
109.275036
21
-128.0910182
0
LINE
8
0
10
128.619296
20
-130.4008469
11
141.5870542
21
-135.1207249
0
LINE
8
0
10
141.5870542
20
-135.1207249
11
146.3069322
21
-122.1529667
0
LINE
8
0
10
146.3069322
20
-122.1529667
11
133.339174
21
-117.4330887
0
LINE
8
0
10
133.339174
20
-117.4330887
11
128.619296
21
-130.4008469
0
LINE
8
0
10
146.7404063
20
-137.8955025
11
157.3118197
21
-146.7659715
0
LINE
8
0
10
157.3118197
20
-146.7659715
11
166.1822887
21
-136.1945581
0
LINE
8
0
10
166.1822887
20
-136.1945581
11
155.6108753
21
-127.3240891
0
LINE
8
0
10
155.6108753
20
-127.3240891
11
146.7404063
21
-137.8955025
0
CIRCLE
8
0
10
51
20
-120
40
1.6
0
CIRCLE
8
0
10
51
20
-63
40
1.6
0
CIRCLE
8
0
10
88
20
-110
40
1.6
0
CIRCLE
8
0
10
88
20
-50
40
1.6
0
CIRCLE
8
0
10
145
20
-115
40
1.6
0
CIRCLE
8
0
10
145
20
-41
40
1.6
0
LINE
8
0
10
151.5
20
-103.5
11
151.6339746
21
-103.5
0
LINE
8
0
10
151.5
20
-35
11
151.5
21
-103.5
0
ENDSEC
0
EOF