M48
; DRILL file {KiCad 8.0.4} date 2024-11-01T23:58:43-0600
; FORMAT={-:-/ absolute / metric / decimal}
; #@! TF.CreationDate,2024-11-01T23:58:43-06:00
; #@! TF.GenerationSoftware,Kicad,Pcbnew,8.0.4
; #@! TF.FileFunction,Plated,1,2,PTH
FMAT,2
METRIC
; #@! TA.AperFunction,Plated,PTH,ViaDrill
T1C0.300
; #@! TA.AperFunction,Plated,PTH,ComponentDrill
T2C0.400
; #@! TA.AperFunction,Plated,PTH,ComponentDrill
T3C0.900
; #@! TA.AperFunction,Plated,PTH,ComponentDrill
T4C1.000
; #@! TA.AperFunction,Plated,PTH,ComponentDrill
T5C1.100
; #@! TA.AperFunction,Plated,PTH,ComponentDrill
T6C1.500
; #@! TA.AperFunction,Plated,PTH,ComponentDrill
T7C1.600
; #@! TA.AperFunction,Plated,PTH,ComponentDrill
T8C1.900
; #@! TA.AperFunction,Plated,PTH,ComponentDrill
T9C3.000
; #@! TA.AperFunction,Plated,PTH,ComponentDrill
T10C5.000
%
G90
G05
T1
X32.0Y-61.597
X32.0Y-80.571
X32.0Y-101.502
X32.0Y-115.274
X32.0Y-120.529
X32.352Y-68.34
X32.352Y-87.355
X32.352Y-103.156
X32.352Y-125.33
X33.101Y-77.58
X33.112Y-59.04
X33.114Y-78.479
X33.142Y-97.263
X34.5Y-59.502
X34.5Y-78.502
X34.89Y-69.44
X34.893Y-107.207
X34.9Y-87.917
X34.925Y-126.498
X36.032Y-94.682
X37.3Y-56.292
X37.3Y-116.703
X38.309Y-66.034
X42.7Y-59.708
X42.7Y-116.722
X43.168Y-78.705
X43.914Y-94.867
X45.533Y-113.397
X46.983Y-106.85
X47.866Y-68.85
X48.468Y-75.846
X51.0Y-55.507
X51.0Y-72.592
X51.0Y-93.514
X51.0Y-112.51
X51.482Y-109.214
X52.108Y-51.203
X52.113Y-70.462
X52.129Y-89.541
X53.5Y-108.502
X53.921Y-61.244
X53.921Y-80.534
X53.921Y-99.011
X53.921Y-118.302
X53.921Y-122.329
X54.0Y-90.536
X54.5Y-70.502
X56.3Y-48.294
X56.3Y-51.704
X56.3Y-86.284
X56.3Y-89.708
X57.637Y-123.75
X61.7Y-52.905
X61.7Y-70.73
X61.7Y-108.717
X61.72Y-59.35
X62.245Y-65.437
X62.245Y-82.22
X62.245Y-104.75
X62.905Y-105.849
X63.074Y-101.0
X63.604Y-91.61
X63.887Y-101.794
X65.142Y-52.905
X65.611Y-79.7
X65.815Y-48.924
X66.11Y-57.152
X66.676Y-60.756
X67.15Y-49.33
X67.679Y-87.347
X67.737Y-98.35
X67.875Y-53.747
X68.719Y-91.836
X68.761Y-52.822
X68.894Y-61.652
X69.066Y-97.089
X69.089Y-123.399
X69.108Y-81.441
X69.171Y-118.316
X69.21Y-43.37
X69.625Y-87.346
X70.0Y-59.225
X70.0Y-78.212
X70.0Y-100.529
X70.01Y-38.17
X70.352Y-48.335
X70.352Y-67.328
X70.352Y-128.35
X71.048Y-102.157
X71.113Y-96.25
X71.19Y-48.684
X71.374Y-54.548
X71.386Y-49.548
X71.386Y-53.651
X71.653Y-93.56
X72.5Y-58.502
X72.5Y-77.502
X74.096Y-95.847
X74.38Y-89.549
X75.013Y-119.723
X75.3Y-36.287
X75.3Y-39.719
X75.3Y-54.548
X75.3Y-116.284
X76.8Y-66.008
X77.553Y-90.121
X79.071Y-73.646
X79.793Y-51.345
X80.7Y-93.267
X81.123Y-63.765
X81.245Y-90.752
X81.245Y-115.022
X81.905Y-116.891
X82.003Y-55.707
X83.348Y-36.392
X84.26Y-74.498
X84.999Y-88.83
X85.911Y-51.411
X85.911Y-63.765
X87.874Y-122.5
X88.507Y-53.287
X89.0Y-36.206
X89.0Y-39.511
X89.0Y-58.518
X89.0Y-72.284
X89.0Y-93.204
X89.0Y-94.397
X89.0Y-118.29
X89.249Y-75.598
X90.958Y-114.057
X91.11Y-89.52
X91.5Y-35.502
X91.5Y-54.502
X91.5Y-73.502
X91.5Y-92.502
X91.5Y-119.502
X91.879Y-101.91
X91.924Y-64.728
X92.251Y-84.454
X94.3Y-46.751
X94.3Y-86.819
X99.272Y-47.974
X99.477Y-65.918
X100.245Y-85.104
X100.245Y-104.348
X102.288Y-70.298
X102.924Y-51.58
X103.034Y-89.498
X103.258Y-32.598
X103.271Y-116.498
X104.116Y-49.701
X104.516Y-90.508
X104.568Y-59.332
X105.088Y-76.767
X105.331Y-96.25
X105.875Y-57.522
X105.875Y-87.079
X105.875Y-91.889
X106.25Y-98.12
X106.765Y-115.342
X106.882Y-38.964
X106.882Y-96.25
X106.892Y-58.202
X107.61Y-115.008
X107.625Y-53.898
X107.677Y-122.745
X107.774Y-102.16
X108.0Y-41.576
X108.0Y-62.517
X108.0Y-76.284
X108.0Y-81.514
X108.0Y-98.572
X108.352Y-48.341
X108.352Y-64.152
X108.352Y-86.336
X108.805Y-128.614
X109.293Y-118.383
X109.368Y-95.302
X109.385Y-49.698
X109.786Y-52.596
X110.313Y-117.302
X110.5Y-39.502
X110.5Y-77.502
X110.5Y-96.502
X110.916Y-68.127
X110.918Y-106.706
X110.927Y-87.417
X111.0Y-59.332
X111.0Y-91.396
X112.808Y-97.783
X113.251Y-109.413
X113.3Y-58.722
X113.3Y-88.542
X113.362Y-117.141
X113.471Y-132.293
X116.693Y-115.616
X118.7Y-93.275
X120.005Y-74.729
X122.258Y-55.498
X122.262Y-36.498
X122.358Y-72.535
X123.485Y-117.313
X126.035Y-113.16
X126.364Y-111.548
X127.0Y-47.578
X127.0Y-65.213
X127.0Y-66.578
X127.0Y-84.223
X127.0Y-87.503
X127.0Y-97.532
X127.0Y-103.21
X127.0Y-106.526
X127.226Y-44.272
X127.352Y-54.347
X127.352Y-73.35
X127.352Y-111.348
X128.225Y-93.214
X129.5Y-45.502
X129.5Y-64.502
X129.5Y-83.502
X129.5Y-102.502
X129.73Y-126.255
X129.9Y-73.924
X129.922Y-93.214
X130.065Y-56.264
X130.602Y-123.057
X131.862Y-65.213
X132.0Y-96.178
X132.295Y-123.469
X132.3Y-60.629
X133.025Y-94.679
X136.75Y-75.931
X137.124Y-120.778
X137.57Y-78.71
X138.902Y-80.789
X139.28Y-99.498
X139.413Y-46.174
X141.259Y-61.45
X141.519Y-76.531
X143.131Y-114.725
X143.543Y-113.936
X143.575Y-59.985
X144.04Y-56.94
X145.125Y-65.01
X145.125Y-99.387
X145.17Y-123.11
X145.78Y-47.59
X145.983Y-102.87
X146.006Y-98.483
X146.282Y-94.981
X146.52Y-119.941
X147.07Y-90.75
X147.6Y-103.561
X147.662Y-61.473
X147.691Y-129.809
X147.884Y-109.75
X147.92Y-60.27
X148.771Y-134.416
X148.79Y-71.01
X149.15Y-61.53
X149.16Y-53.02
X149.388Y-120.778
X149.79Y-58.46
X149.8Y-54.94
X149.95Y-92.31
X150.09Y-134.51
X150.45Y-48.48
X151.03Y-53.61
X151.556Y-140.448
X152.029Y-131.788
X152.307Y-137.194
X154.07Y-123.11
X155.752Y-143.934
X155.844Y-55.369
X156.224Y-134.588
X160.674Y-139.575
X164.61Y-45.79
X166.814Y-101.702
X167.341Y-73.092
X168.258Y-96.678
X169.197Y-101.91
X169.45Y-96.654
T2
X160.226Y-41.32
X160.226Y-43.86
X160.226Y-46.4
X160.226Y-48.94
X160.226Y-51.48
X160.226Y-54.02
X160.226Y-56.56
X160.226Y-59.1
X160.226Y-61.64
X160.226Y-64.18
X160.226Y-66.72
X160.226Y-69.26
X161.75Y-41.32
X161.75Y-43.86
X161.75Y-46.4
X161.75Y-48.94
X161.75Y-51.48
X161.75Y-54.02
X161.75Y-56.56
X161.75Y-59.1
X161.75Y-61.64
X161.75Y-64.18
X161.75Y-66.72
X161.75Y-69.26
T4
X156.54Y-87.38
X156.54Y-101.88
X159.04Y-87.38
X161.54Y-87.38
X161.54Y-101.88
T5
X153.368Y-41.32
X153.368Y-41.32
X153.368Y-43.86
X153.368Y-46.4
X153.368Y-48.94
X153.368Y-51.48
X153.368Y-54.02
X153.368Y-56.56
X153.368Y-59.1
X153.368Y-61.64
X153.368Y-64.18
X153.368Y-66.72
X153.368Y-69.26
X168.608Y-41.32
X168.608Y-41.32
X168.608Y-43.86
X168.608Y-46.4
X168.608Y-48.94
X168.608Y-51.48
X168.608Y-54.02
X168.608Y-56.56
X168.608Y-59.1
X168.608Y-61.64
X168.608Y-64.18
X168.608Y-66.72
X168.608Y-69.26
T7
X35.0Y-57.85
X35.0Y-76.85
X35.0Y-95.85
X35.0Y-114.85
X45.0Y-57.85
X45.0Y-76.85
X45.0Y-95.85
X45.0Y-114.85
X54.0Y-49.85
X54.0Y-68.85
X54.0Y-87.85
X54.0Y-106.85
X64.0Y-49.85
X64.0Y-68.85
X64.0Y-87.85
X64.0Y-106.85
X73.0Y-37.85
X73.0Y-56.85
X73.0Y-75.85
X73.0Y-94.85
X73.0Y-117.85
X83.0Y-37.85
X83.0Y-56.85
X83.0Y-75.85
X83.0Y-94.85
X83.0Y-117.85
X92.0Y-33.85
X92.0Y-52.85
X92.0Y-71.85
X92.0Y-90.85
X92.0Y-117.85
X102.0Y-33.85
X102.0Y-52.85
X102.0Y-71.85
X102.0Y-90.85
X102.0Y-117.85
X111.0Y-37.85
X111.0Y-56.85
X111.0Y-75.85
X111.0Y-94.85
X112.218Y-118.252
X121.0Y-37.85
X121.0Y-56.85
X121.0Y-75.85
X121.0Y-94.85
X122.18Y-119.124
X130.0Y-43.85
X130.0Y-62.85
X130.0Y-81.85
X130.0Y-100.85
X134.526Y-121.727
X140.0Y-43.85
X140.0Y-62.85
X140.0Y-81.85
X140.0Y-100.85
X143.923Y-125.148
X155.941Y-131.886
X163.602Y-138.314
T8
X34.5Y-63.0
X34.5Y-82.0
X34.5Y-101.0
X34.5Y-120.0
X45.5Y-63.0
X45.5Y-82.0
X45.5Y-101.0
X45.5Y-120.0
X53.5Y-55.0
X53.5Y-74.0
X53.5Y-93.0
X53.5Y-112.0
X64.5Y-55.0
X64.5Y-74.0
X64.5Y-93.0
X64.5Y-112.0
X72.5Y-43.0
X72.5Y-62.0
X72.5Y-81.0
X72.5Y-100.0
X72.5Y-123.0
X83.5Y-43.0
X83.5Y-62.0
X83.5Y-81.0
X83.5Y-100.0
X83.5Y-123.0
X91.5Y-39.0
X91.5Y-58.0
X91.5Y-77.0
X91.5Y-96.0
X91.5Y-123.0
X102.5Y-39.0
X102.5Y-58.0
X102.5Y-77.0
X102.5Y-96.0
X102.5Y-123.0
X110.5Y-43.0
X110.5Y-62.0
X110.5Y-81.0
X110.5Y-100.0
X111.271Y-123.339
X121.5Y-43.0
X121.5Y-62.0
X121.5Y-81.0
X121.5Y-100.0
X122.229Y-124.298
X129.5Y-49.0
X129.5Y-68.0
X129.5Y-87.0
X129.5Y-106.0
X132.295Y-126.396
X140.5Y-49.0
X140.5Y-68.0
X140.5Y-87.0
X140.5Y-106.0
X142.631Y-130.158
X152.248Y-135.51
X160.675Y-142.58
T9
X35.0Y-66.75
X35.0Y-85.75
X35.0Y-104.75
X35.0Y-123.75
X40.0Y-68.95
X40.0Y-87.95
X40.0Y-106.95
X40.0Y-125.95
X45.0Y-66.75
X45.0Y-85.75
X45.0Y-104.75
X45.0Y-123.75
X54.0Y-58.75
X54.0Y-77.75
X54.0Y-96.75
X54.0Y-115.75
X59.0Y-60.95
X59.0Y-79.95
X59.0Y-98.95
X59.0Y-117.95
X64.0Y-58.75
X64.0Y-77.75
X64.0Y-96.75
X64.0Y-115.75
X73.0Y-46.75
X73.0Y-65.75
X73.0Y-84.75
X73.0Y-103.75
X73.0Y-126.75
X78.0Y-48.95
X78.0Y-67.95
X78.0Y-86.95
X78.0Y-105.95
X78.0Y-128.95
X83.0Y-46.75
X83.0Y-65.75
X83.0Y-84.75
X83.0Y-103.75
X83.0Y-126.75
X92.0Y-42.75
X92.0Y-61.75
X92.0Y-80.75
X92.0Y-99.75
X92.0Y-126.75
X97.0Y-44.95
X97.0Y-63.95
X97.0Y-82.95
X97.0Y-101.95
X97.0Y-128.95
X102.0Y-42.75
X102.0Y-61.75
X102.0Y-80.75
X102.0Y-99.75
X102.0Y-126.75
X111.0Y-46.75
X111.0Y-65.75
X111.0Y-84.75
X111.0Y-103.75
X111.442Y-127.119
X116.0Y-48.95
X116.0Y-67.95
X116.0Y-86.95
X116.0Y-105.95
X116.232Y-129.746
X121.0Y-46.75
X121.0Y-65.75
X121.0Y-84.75
X121.0Y-103.75
X121.404Y-127.99
X130.0Y-52.75
X130.0Y-71.75
X130.0Y-90.75
X130.0Y-109.75
X131.482Y-130.091
X135.0Y-54.95
X135.0Y-73.95
X135.0Y-92.95
X135.0Y-111.95
X135.428Y-133.868
X140.0Y-52.75
X140.0Y-71.75
X140.0Y-90.75
X140.0Y-109.75
X140.879Y-133.511
X150.221Y-138.704
X152.637Y-143.603
X157.881Y-145.132
T10
X40.0Y-63.0
X40.0Y-82.0
X40.0Y-101.0
X40.0Y-120.0
X59.0Y-55.0
X59.0Y-74.0
X59.0Y-93.0
X59.0Y-112.0
X78.0Y-43.0
X78.0Y-62.0
X78.0Y-81.0
X78.0Y-100.0
X78.0Y-123.0
X97.0Y-39.0
X97.0Y-58.0
X97.0Y-77.0
X97.0Y-96.0
X97.0Y-123.0
X116.0Y-43.0
X116.0Y-62.0
X116.0Y-81.0
X116.0Y-100.0
X116.75Y-123.819
X135.0Y-49.0
X135.0Y-68.0
X135.0Y-87.0
X135.0Y-106.0
X137.463Y-128.277
X156.461Y-139.045
T3
G00X160.0Y-76.7
M15
G01X159.4Y-76.7
M16
G05
G00X160.0Y-79.0
M15
G01X159.4Y-79.0
M16
G05
G00X161.1Y-74.4
M15
G01X160.5Y-74.4
M16
G05
G00X161.1Y-81.3
M15
G01X160.5Y-81.3
M16
G05
G00X165.1Y-74.4
M15
G01X164.5Y-74.4
M16
G05
G00X165.1Y-81.3
M15
G01X164.5Y-81.3
M16
G05
G00X168.1Y-74.4
M15
G01X167.5Y-74.4
M16
G05
G00X168.1Y-81.3
M15
G01X167.5Y-81.3
M16
G05
T6
G00X153.44Y-94.23
M15
G01X153.44Y-95.53
M16
G05
G00X164.64Y-94.23
M15
G01X164.64Y-95.53
M16
G05
M30
