%TF.GenerationSoftware,KiCad,Pcbnew,8.0.4*%
%TF.CreationDate,2024-08-10T13:55:05-06:00*%
%TF.ProjectId,staggered_col58,73746167-6765-4726-9564-5f636f6c3538,0.1*%
%TF.SameCoordinates,Original*%
%TF.FileFunction,Legend,Bot*%
%TF.FilePolarity,Positive*%
%FSLAX46Y46*%
G04 Gerber Fmt 4.6, Leading zero omitted, Abs format (unit mm)*
G04 Created by KiCad (PCBNEW 8.0.4) date 2024-08-10 13:55:05*
%MOMM*%
%LPD*%
G01*
G04 APERTURE LIST*
%ADD10C,0.150000*%
%ADD11C,0.100000*%
%ADD12C,0.120000*%
%ADD13R,1.752600X1.752600*%
%ADD14C,1.752600*%
G04 APERTURE END LIST*
D10*
X153000000Y-121000000D02*
X174000000Y-121000000D01*
X174000000Y-121000000D02*
X174000000Y-35000000D01*
X174000000Y-35000000D02*
X153000000Y-35000000D01*
X153000000Y-35000000D02*
X153000000Y-121000000D01*
X41333332Y-112207200D02*
X41190475Y-112254819D01*
X41190475Y-112254819D02*
X40952380Y-112254819D01*
X40952380Y-112254819D02*
X40857142Y-112207200D01*
X40857142Y-112207200D02*
X40809523Y-112159580D01*
X40809523Y-112159580D02*
X40761904Y-112064342D01*
X40761904Y-112064342D02*
X40761904Y-111969104D01*
X40761904Y-111969104D02*
X40809523Y-111873866D01*
X40809523Y-111873866D02*
X40857142Y-111826247D01*
X40857142Y-111826247D02*
X40952380Y-111778628D01*
X40952380Y-111778628D02*
X41142856Y-111731009D01*
X41142856Y-111731009D02*
X41238094Y-111683390D01*
X41238094Y-111683390D02*
X41285713Y-111635771D01*
X41285713Y-111635771D02*
X41333332Y-111540533D01*
X41333332Y-111540533D02*
X41333332Y-111445295D01*
X41333332Y-111445295D02*
X41285713Y-111350057D01*
X41285713Y-111350057D02*
X41238094Y-111302438D01*
X41238094Y-111302438D02*
X41142856Y-111254819D01*
X41142856Y-111254819D02*
X40904761Y-111254819D01*
X40904761Y-111254819D02*
X40761904Y-111302438D01*
X40428570Y-111254819D02*
X40190475Y-112254819D01*
X40190475Y-112254819D02*
X39999999Y-111540533D01*
X39999999Y-111540533D02*
X39809523Y-112254819D01*
X39809523Y-112254819D02*
X39571428Y-111254819D01*
X38666666Y-112254819D02*
X39238094Y-112254819D01*
X38952380Y-112254819D02*
X38952380Y-111254819D01*
X38952380Y-111254819D02*
X39047618Y-111397676D01*
X39047618Y-111397676D02*
X39142856Y-111492914D01*
X39142856Y-111492914D02*
X39238094Y-111540533D01*
X41333332Y-93207200D02*
X41190475Y-93254819D01*
X41190475Y-93254819D02*
X40952380Y-93254819D01*
X40952380Y-93254819D02*
X40857142Y-93207200D01*
X40857142Y-93207200D02*
X40809523Y-93159580D01*
X40809523Y-93159580D02*
X40761904Y-93064342D01*
X40761904Y-93064342D02*
X40761904Y-92969104D01*
X40761904Y-92969104D02*
X40809523Y-92873866D01*
X40809523Y-92873866D02*
X40857142Y-92826247D01*
X40857142Y-92826247D02*
X40952380Y-92778628D01*
X40952380Y-92778628D02*
X41142856Y-92731009D01*
X41142856Y-92731009D02*
X41238094Y-92683390D01*
X41238094Y-92683390D02*
X41285713Y-92635771D01*
X41285713Y-92635771D02*
X41333332Y-92540533D01*
X41333332Y-92540533D02*
X41333332Y-92445295D01*
X41333332Y-92445295D02*
X41285713Y-92350057D01*
X41285713Y-92350057D02*
X41238094Y-92302438D01*
X41238094Y-92302438D02*
X41142856Y-92254819D01*
X41142856Y-92254819D02*
X40904761Y-92254819D01*
X40904761Y-92254819D02*
X40761904Y-92302438D01*
X40428570Y-92254819D02*
X40190475Y-93254819D01*
X40190475Y-93254819D02*
X39999999Y-92540533D01*
X39999999Y-92540533D02*
X39809523Y-93254819D01*
X39809523Y-93254819D02*
X39571428Y-92254819D01*
X39238094Y-92350057D02*
X39190475Y-92302438D01*
X39190475Y-92302438D02*
X39095237Y-92254819D01*
X39095237Y-92254819D02*
X38857142Y-92254819D01*
X38857142Y-92254819D02*
X38761904Y-92302438D01*
X38761904Y-92302438D02*
X38714285Y-92350057D01*
X38714285Y-92350057D02*
X38666666Y-92445295D01*
X38666666Y-92445295D02*
X38666666Y-92540533D01*
X38666666Y-92540533D02*
X38714285Y-92683390D01*
X38714285Y-92683390D02*
X39285713Y-93254819D01*
X39285713Y-93254819D02*
X38666666Y-93254819D01*
X41333332Y-74207200D02*
X41190475Y-74254819D01*
X41190475Y-74254819D02*
X40952380Y-74254819D01*
X40952380Y-74254819D02*
X40857142Y-74207200D01*
X40857142Y-74207200D02*
X40809523Y-74159580D01*
X40809523Y-74159580D02*
X40761904Y-74064342D01*
X40761904Y-74064342D02*
X40761904Y-73969104D01*
X40761904Y-73969104D02*
X40809523Y-73873866D01*
X40809523Y-73873866D02*
X40857142Y-73826247D01*
X40857142Y-73826247D02*
X40952380Y-73778628D01*
X40952380Y-73778628D02*
X41142856Y-73731009D01*
X41142856Y-73731009D02*
X41238094Y-73683390D01*
X41238094Y-73683390D02*
X41285713Y-73635771D01*
X41285713Y-73635771D02*
X41333332Y-73540533D01*
X41333332Y-73540533D02*
X41333332Y-73445295D01*
X41333332Y-73445295D02*
X41285713Y-73350057D01*
X41285713Y-73350057D02*
X41238094Y-73302438D01*
X41238094Y-73302438D02*
X41142856Y-73254819D01*
X41142856Y-73254819D02*
X40904761Y-73254819D01*
X40904761Y-73254819D02*
X40761904Y-73302438D01*
X40428570Y-73254819D02*
X40190475Y-74254819D01*
X40190475Y-74254819D02*
X39999999Y-73540533D01*
X39999999Y-73540533D02*
X39809523Y-74254819D01*
X39809523Y-74254819D02*
X39571428Y-73254819D01*
X39285713Y-73254819D02*
X38666666Y-73254819D01*
X38666666Y-73254819D02*
X38999999Y-73635771D01*
X38999999Y-73635771D02*
X38857142Y-73635771D01*
X38857142Y-73635771D02*
X38761904Y-73683390D01*
X38761904Y-73683390D02*
X38714285Y-73731009D01*
X38714285Y-73731009D02*
X38666666Y-73826247D01*
X38666666Y-73826247D02*
X38666666Y-74064342D01*
X38666666Y-74064342D02*
X38714285Y-74159580D01*
X38714285Y-74159580D02*
X38761904Y-74207200D01*
X38761904Y-74207200D02*
X38857142Y-74254819D01*
X38857142Y-74254819D02*
X39142856Y-74254819D01*
X39142856Y-74254819D02*
X39238094Y-74207200D01*
X39238094Y-74207200D02*
X39285713Y-74159580D01*
X41333332Y-55207200D02*
X41190475Y-55254819D01*
X41190475Y-55254819D02*
X40952380Y-55254819D01*
X40952380Y-55254819D02*
X40857142Y-55207200D01*
X40857142Y-55207200D02*
X40809523Y-55159580D01*
X40809523Y-55159580D02*
X40761904Y-55064342D01*
X40761904Y-55064342D02*
X40761904Y-54969104D01*
X40761904Y-54969104D02*
X40809523Y-54873866D01*
X40809523Y-54873866D02*
X40857142Y-54826247D01*
X40857142Y-54826247D02*
X40952380Y-54778628D01*
X40952380Y-54778628D02*
X41142856Y-54731009D01*
X41142856Y-54731009D02*
X41238094Y-54683390D01*
X41238094Y-54683390D02*
X41285713Y-54635771D01*
X41285713Y-54635771D02*
X41333332Y-54540533D01*
X41333332Y-54540533D02*
X41333332Y-54445295D01*
X41333332Y-54445295D02*
X41285713Y-54350057D01*
X41285713Y-54350057D02*
X41238094Y-54302438D01*
X41238094Y-54302438D02*
X41142856Y-54254819D01*
X41142856Y-54254819D02*
X40904761Y-54254819D01*
X40904761Y-54254819D02*
X40761904Y-54302438D01*
X40428570Y-54254819D02*
X40190475Y-55254819D01*
X40190475Y-55254819D02*
X39999999Y-54540533D01*
X39999999Y-54540533D02*
X39809523Y-55254819D01*
X39809523Y-55254819D02*
X39571428Y-54254819D01*
X38761904Y-54588152D02*
X38761904Y-55254819D01*
X38999999Y-54207200D02*
X39238094Y-54921485D01*
X39238094Y-54921485D02*
X38619047Y-54921485D01*
X61333332Y-102207200D02*
X61190475Y-102254819D01*
X61190475Y-102254819D02*
X60952380Y-102254819D01*
X60952380Y-102254819D02*
X60857142Y-102207200D01*
X60857142Y-102207200D02*
X60809523Y-102159580D01*
X60809523Y-102159580D02*
X60761904Y-102064342D01*
X60761904Y-102064342D02*
X60761904Y-101969104D01*
X60761904Y-101969104D02*
X60809523Y-101873866D01*
X60809523Y-101873866D02*
X60857142Y-101826247D01*
X60857142Y-101826247D02*
X60952380Y-101778628D01*
X60952380Y-101778628D02*
X61142856Y-101731009D01*
X61142856Y-101731009D02*
X61238094Y-101683390D01*
X61238094Y-101683390D02*
X61285713Y-101635771D01*
X61285713Y-101635771D02*
X61333332Y-101540533D01*
X61333332Y-101540533D02*
X61333332Y-101445295D01*
X61333332Y-101445295D02*
X61285713Y-101350057D01*
X61285713Y-101350057D02*
X61238094Y-101302438D01*
X61238094Y-101302438D02*
X61142856Y-101254819D01*
X61142856Y-101254819D02*
X60904761Y-101254819D01*
X60904761Y-101254819D02*
X60761904Y-101302438D01*
X60428570Y-101254819D02*
X60190475Y-102254819D01*
X60190475Y-102254819D02*
X59999999Y-101540533D01*
X59999999Y-101540533D02*
X59809523Y-102254819D01*
X59809523Y-102254819D02*
X59571428Y-101254819D01*
X58714285Y-101254819D02*
X59190475Y-101254819D01*
X59190475Y-101254819D02*
X59238094Y-101731009D01*
X59238094Y-101731009D02*
X59190475Y-101683390D01*
X59190475Y-101683390D02*
X59095237Y-101635771D01*
X59095237Y-101635771D02*
X58857142Y-101635771D01*
X58857142Y-101635771D02*
X58761904Y-101683390D01*
X58761904Y-101683390D02*
X58714285Y-101731009D01*
X58714285Y-101731009D02*
X58666666Y-101826247D01*
X58666666Y-101826247D02*
X58666666Y-102064342D01*
X58666666Y-102064342D02*
X58714285Y-102159580D01*
X58714285Y-102159580D02*
X58761904Y-102207200D01*
X58761904Y-102207200D02*
X58857142Y-102254819D01*
X58857142Y-102254819D02*
X59095237Y-102254819D01*
X59095237Y-102254819D02*
X59190475Y-102207200D01*
X59190475Y-102207200D02*
X59238094Y-102159580D01*
X61333332Y-83207200D02*
X61190475Y-83254819D01*
X61190475Y-83254819D02*
X60952380Y-83254819D01*
X60952380Y-83254819D02*
X60857142Y-83207200D01*
X60857142Y-83207200D02*
X60809523Y-83159580D01*
X60809523Y-83159580D02*
X60761904Y-83064342D01*
X60761904Y-83064342D02*
X60761904Y-82969104D01*
X60761904Y-82969104D02*
X60809523Y-82873866D01*
X60809523Y-82873866D02*
X60857142Y-82826247D01*
X60857142Y-82826247D02*
X60952380Y-82778628D01*
X60952380Y-82778628D02*
X61142856Y-82731009D01*
X61142856Y-82731009D02*
X61238094Y-82683390D01*
X61238094Y-82683390D02*
X61285713Y-82635771D01*
X61285713Y-82635771D02*
X61333332Y-82540533D01*
X61333332Y-82540533D02*
X61333332Y-82445295D01*
X61333332Y-82445295D02*
X61285713Y-82350057D01*
X61285713Y-82350057D02*
X61238094Y-82302438D01*
X61238094Y-82302438D02*
X61142856Y-82254819D01*
X61142856Y-82254819D02*
X60904761Y-82254819D01*
X60904761Y-82254819D02*
X60761904Y-82302438D01*
X60428570Y-82254819D02*
X60190475Y-83254819D01*
X60190475Y-83254819D02*
X59999999Y-82540533D01*
X59999999Y-82540533D02*
X59809523Y-83254819D01*
X59809523Y-83254819D02*
X59571428Y-82254819D01*
X58761904Y-82254819D02*
X58952380Y-82254819D01*
X58952380Y-82254819D02*
X59047618Y-82302438D01*
X59047618Y-82302438D02*
X59095237Y-82350057D01*
X59095237Y-82350057D02*
X59190475Y-82492914D01*
X59190475Y-82492914D02*
X59238094Y-82683390D01*
X59238094Y-82683390D02*
X59238094Y-83064342D01*
X59238094Y-83064342D02*
X59190475Y-83159580D01*
X59190475Y-83159580D02*
X59142856Y-83207200D01*
X59142856Y-83207200D02*
X59047618Y-83254819D01*
X59047618Y-83254819D02*
X58857142Y-83254819D01*
X58857142Y-83254819D02*
X58761904Y-83207200D01*
X58761904Y-83207200D02*
X58714285Y-83159580D01*
X58714285Y-83159580D02*
X58666666Y-83064342D01*
X58666666Y-83064342D02*
X58666666Y-82826247D01*
X58666666Y-82826247D02*
X58714285Y-82731009D01*
X58714285Y-82731009D02*
X58761904Y-82683390D01*
X58761904Y-82683390D02*
X58857142Y-82635771D01*
X58857142Y-82635771D02*
X59047618Y-82635771D01*
X59047618Y-82635771D02*
X59142856Y-82683390D01*
X59142856Y-82683390D02*
X59190475Y-82731009D01*
X59190475Y-82731009D02*
X59238094Y-82826247D01*
X61333332Y-64207200D02*
X61190475Y-64254819D01*
X61190475Y-64254819D02*
X60952380Y-64254819D01*
X60952380Y-64254819D02*
X60857142Y-64207200D01*
X60857142Y-64207200D02*
X60809523Y-64159580D01*
X60809523Y-64159580D02*
X60761904Y-64064342D01*
X60761904Y-64064342D02*
X60761904Y-63969104D01*
X60761904Y-63969104D02*
X60809523Y-63873866D01*
X60809523Y-63873866D02*
X60857142Y-63826247D01*
X60857142Y-63826247D02*
X60952380Y-63778628D01*
X60952380Y-63778628D02*
X61142856Y-63731009D01*
X61142856Y-63731009D02*
X61238094Y-63683390D01*
X61238094Y-63683390D02*
X61285713Y-63635771D01*
X61285713Y-63635771D02*
X61333332Y-63540533D01*
X61333332Y-63540533D02*
X61333332Y-63445295D01*
X61333332Y-63445295D02*
X61285713Y-63350057D01*
X61285713Y-63350057D02*
X61238094Y-63302438D01*
X61238094Y-63302438D02*
X61142856Y-63254819D01*
X61142856Y-63254819D02*
X60904761Y-63254819D01*
X60904761Y-63254819D02*
X60761904Y-63302438D01*
X60428570Y-63254819D02*
X60190475Y-64254819D01*
X60190475Y-64254819D02*
X59999999Y-63540533D01*
X59999999Y-63540533D02*
X59809523Y-64254819D01*
X59809523Y-64254819D02*
X59571428Y-63254819D01*
X59285713Y-63254819D02*
X58619047Y-63254819D01*
X58619047Y-63254819D02*
X59047618Y-64254819D01*
X61333332Y-45207200D02*
X61190475Y-45254819D01*
X61190475Y-45254819D02*
X60952380Y-45254819D01*
X60952380Y-45254819D02*
X60857142Y-45207200D01*
X60857142Y-45207200D02*
X60809523Y-45159580D01*
X60809523Y-45159580D02*
X60761904Y-45064342D01*
X60761904Y-45064342D02*
X60761904Y-44969104D01*
X60761904Y-44969104D02*
X60809523Y-44873866D01*
X60809523Y-44873866D02*
X60857142Y-44826247D01*
X60857142Y-44826247D02*
X60952380Y-44778628D01*
X60952380Y-44778628D02*
X61142856Y-44731009D01*
X61142856Y-44731009D02*
X61238094Y-44683390D01*
X61238094Y-44683390D02*
X61285713Y-44635771D01*
X61285713Y-44635771D02*
X61333332Y-44540533D01*
X61333332Y-44540533D02*
X61333332Y-44445295D01*
X61333332Y-44445295D02*
X61285713Y-44350057D01*
X61285713Y-44350057D02*
X61238094Y-44302438D01*
X61238094Y-44302438D02*
X61142856Y-44254819D01*
X61142856Y-44254819D02*
X60904761Y-44254819D01*
X60904761Y-44254819D02*
X60761904Y-44302438D01*
X60428570Y-44254819D02*
X60190475Y-45254819D01*
X60190475Y-45254819D02*
X59999999Y-44540533D01*
X59999999Y-44540533D02*
X59809523Y-45254819D01*
X59809523Y-45254819D02*
X59571428Y-44254819D01*
X59047618Y-44683390D02*
X59142856Y-44635771D01*
X59142856Y-44635771D02*
X59190475Y-44588152D01*
X59190475Y-44588152D02*
X59238094Y-44492914D01*
X59238094Y-44492914D02*
X59238094Y-44445295D01*
X59238094Y-44445295D02*
X59190475Y-44350057D01*
X59190475Y-44350057D02*
X59142856Y-44302438D01*
X59142856Y-44302438D02*
X59047618Y-44254819D01*
X59047618Y-44254819D02*
X58857142Y-44254819D01*
X58857142Y-44254819D02*
X58761904Y-44302438D01*
X58761904Y-44302438D02*
X58714285Y-44350057D01*
X58714285Y-44350057D02*
X58666666Y-44445295D01*
X58666666Y-44445295D02*
X58666666Y-44492914D01*
X58666666Y-44492914D02*
X58714285Y-44588152D01*
X58714285Y-44588152D02*
X58761904Y-44635771D01*
X58761904Y-44635771D02*
X58857142Y-44683390D01*
X58857142Y-44683390D02*
X59047618Y-44683390D01*
X59047618Y-44683390D02*
X59142856Y-44731009D01*
X59142856Y-44731009D02*
X59190475Y-44778628D01*
X59190475Y-44778628D02*
X59238094Y-44873866D01*
X59238094Y-44873866D02*
X59238094Y-45064342D01*
X59238094Y-45064342D02*
X59190475Y-45159580D01*
X59190475Y-45159580D02*
X59142856Y-45207200D01*
X59142856Y-45207200D02*
X59047618Y-45254819D01*
X59047618Y-45254819D02*
X58857142Y-45254819D01*
X58857142Y-45254819D02*
X58761904Y-45207200D01*
X58761904Y-45207200D02*
X58714285Y-45159580D01*
X58714285Y-45159580D02*
X58666666Y-45064342D01*
X58666666Y-45064342D02*
X58666666Y-44873866D01*
X58666666Y-44873866D02*
X58714285Y-44778628D01*
X58714285Y-44778628D02*
X58761904Y-44731009D01*
X58761904Y-44731009D02*
X58857142Y-44683390D01*
X81333332Y-90207200D02*
X81190475Y-90254819D01*
X81190475Y-90254819D02*
X80952380Y-90254819D01*
X80952380Y-90254819D02*
X80857142Y-90207200D01*
X80857142Y-90207200D02*
X80809523Y-90159580D01*
X80809523Y-90159580D02*
X80761904Y-90064342D01*
X80761904Y-90064342D02*
X80761904Y-89969104D01*
X80761904Y-89969104D02*
X80809523Y-89873866D01*
X80809523Y-89873866D02*
X80857142Y-89826247D01*
X80857142Y-89826247D02*
X80952380Y-89778628D01*
X80952380Y-89778628D02*
X81142856Y-89731009D01*
X81142856Y-89731009D02*
X81238094Y-89683390D01*
X81238094Y-89683390D02*
X81285713Y-89635771D01*
X81285713Y-89635771D02*
X81333332Y-89540533D01*
X81333332Y-89540533D02*
X81333332Y-89445295D01*
X81333332Y-89445295D02*
X81285713Y-89350057D01*
X81285713Y-89350057D02*
X81238094Y-89302438D01*
X81238094Y-89302438D02*
X81142856Y-89254819D01*
X81142856Y-89254819D02*
X80904761Y-89254819D01*
X80904761Y-89254819D02*
X80761904Y-89302438D01*
X80428570Y-89254819D02*
X80190475Y-90254819D01*
X80190475Y-90254819D02*
X79999999Y-89540533D01*
X79999999Y-89540533D02*
X79809523Y-90254819D01*
X79809523Y-90254819D02*
X79571428Y-89254819D01*
X79142856Y-90254819D02*
X78952380Y-90254819D01*
X78952380Y-90254819D02*
X78857142Y-90207200D01*
X78857142Y-90207200D02*
X78809523Y-90159580D01*
X78809523Y-90159580D02*
X78714285Y-90016723D01*
X78714285Y-90016723D02*
X78666666Y-89826247D01*
X78666666Y-89826247D02*
X78666666Y-89445295D01*
X78666666Y-89445295D02*
X78714285Y-89350057D01*
X78714285Y-89350057D02*
X78761904Y-89302438D01*
X78761904Y-89302438D02*
X78857142Y-89254819D01*
X78857142Y-89254819D02*
X79047618Y-89254819D01*
X79047618Y-89254819D02*
X79142856Y-89302438D01*
X79142856Y-89302438D02*
X79190475Y-89350057D01*
X79190475Y-89350057D02*
X79238094Y-89445295D01*
X79238094Y-89445295D02*
X79238094Y-89683390D01*
X79238094Y-89683390D02*
X79190475Y-89778628D01*
X79190475Y-89778628D02*
X79142856Y-89826247D01*
X79142856Y-89826247D02*
X79047618Y-89873866D01*
X79047618Y-89873866D02*
X78857142Y-89873866D01*
X78857142Y-89873866D02*
X78761904Y-89826247D01*
X78761904Y-89826247D02*
X78714285Y-89778628D01*
X78714285Y-89778628D02*
X78666666Y-89683390D01*
X81809523Y-71207200D02*
X81666666Y-71254819D01*
X81666666Y-71254819D02*
X81428571Y-71254819D01*
X81428571Y-71254819D02*
X81333333Y-71207200D01*
X81333333Y-71207200D02*
X81285714Y-71159580D01*
X81285714Y-71159580D02*
X81238095Y-71064342D01*
X81238095Y-71064342D02*
X81238095Y-70969104D01*
X81238095Y-70969104D02*
X81285714Y-70873866D01*
X81285714Y-70873866D02*
X81333333Y-70826247D01*
X81333333Y-70826247D02*
X81428571Y-70778628D01*
X81428571Y-70778628D02*
X81619047Y-70731009D01*
X81619047Y-70731009D02*
X81714285Y-70683390D01*
X81714285Y-70683390D02*
X81761904Y-70635771D01*
X81761904Y-70635771D02*
X81809523Y-70540533D01*
X81809523Y-70540533D02*
X81809523Y-70445295D01*
X81809523Y-70445295D02*
X81761904Y-70350057D01*
X81761904Y-70350057D02*
X81714285Y-70302438D01*
X81714285Y-70302438D02*
X81619047Y-70254819D01*
X81619047Y-70254819D02*
X81380952Y-70254819D01*
X81380952Y-70254819D02*
X81238095Y-70302438D01*
X80904761Y-70254819D02*
X80666666Y-71254819D01*
X80666666Y-71254819D02*
X80476190Y-70540533D01*
X80476190Y-70540533D02*
X80285714Y-71254819D01*
X80285714Y-71254819D02*
X80047619Y-70254819D01*
X79142857Y-71254819D02*
X79714285Y-71254819D01*
X79428571Y-71254819D02*
X79428571Y-70254819D01*
X79428571Y-70254819D02*
X79523809Y-70397676D01*
X79523809Y-70397676D02*
X79619047Y-70492914D01*
X79619047Y-70492914D02*
X79714285Y-70540533D01*
X78523809Y-70254819D02*
X78428571Y-70254819D01*
X78428571Y-70254819D02*
X78333333Y-70302438D01*
X78333333Y-70302438D02*
X78285714Y-70350057D01*
X78285714Y-70350057D02*
X78238095Y-70445295D01*
X78238095Y-70445295D02*
X78190476Y-70635771D01*
X78190476Y-70635771D02*
X78190476Y-70873866D01*
X78190476Y-70873866D02*
X78238095Y-71064342D01*
X78238095Y-71064342D02*
X78285714Y-71159580D01*
X78285714Y-71159580D02*
X78333333Y-71207200D01*
X78333333Y-71207200D02*
X78428571Y-71254819D01*
X78428571Y-71254819D02*
X78523809Y-71254819D01*
X78523809Y-71254819D02*
X78619047Y-71207200D01*
X78619047Y-71207200D02*
X78666666Y-71159580D01*
X78666666Y-71159580D02*
X78714285Y-71064342D01*
X78714285Y-71064342D02*
X78761904Y-70873866D01*
X78761904Y-70873866D02*
X78761904Y-70635771D01*
X78761904Y-70635771D02*
X78714285Y-70445295D01*
X78714285Y-70445295D02*
X78666666Y-70350057D01*
X78666666Y-70350057D02*
X78619047Y-70302438D01*
X78619047Y-70302438D02*
X78523809Y-70254819D01*
X81809523Y-52207200D02*
X81666666Y-52254819D01*
X81666666Y-52254819D02*
X81428571Y-52254819D01*
X81428571Y-52254819D02*
X81333333Y-52207200D01*
X81333333Y-52207200D02*
X81285714Y-52159580D01*
X81285714Y-52159580D02*
X81238095Y-52064342D01*
X81238095Y-52064342D02*
X81238095Y-51969104D01*
X81238095Y-51969104D02*
X81285714Y-51873866D01*
X81285714Y-51873866D02*
X81333333Y-51826247D01*
X81333333Y-51826247D02*
X81428571Y-51778628D01*
X81428571Y-51778628D02*
X81619047Y-51731009D01*
X81619047Y-51731009D02*
X81714285Y-51683390D01*
X81714285Y-51683390D02*
X81761904Y-51635771D01*
X81761904Y-51635771D02*
X81809523Y-51540533D01*
X81809523Y-51540533D02*
X81809523Y-51445295D01*
X81809523Y-51445295D02*
X81761904Y-51350057D01*
X81761904Y-51350057D02*
X81714285Y-51302438D01*
X81714285Y-51302438D02*
X81619047Y-51254819D01*
X81619047Y-51254819D02*
X81380952Y-51254819D01*
X81380952Y-51254819D02*
X81238095Y-51302438D01*
X80904761Y-51254819D02*
X80666666Y-52254819D01*
X80666666Y-52254819D02*
X80476190Y-51540533D01*
X80476190Y-51540533D02*
X80285714Y-52254819D01*
X80285714Y-52254819D02*
X80047619Y-51254819D01*
X79142857Y-52254819D02*
X79714285Y-52254819D01*
X79428571Y-52254819D02*
X79428571Y-51254819D01*
X79428571Y-51254819D02*
X79523809Y-51397676D01*
X79523809Y-51397676D02*
X79619047Y-51492914D01*
X79619047Y-51492914D02*
X79714285Y-51540533D01*
X78190476Y-52254819D02*
X78761904Y-52254819D01*
X78476190Y-52254819D02*
X78476190Y-51254819D01*
X78476190Y-51254819D02*
X78571428Y-51397676D01*
X78571428Y-51397676D02*
X78666666Y-51492914D01*
X78666666Y-51492914D02*
X78761904Y-51540533D01*
X81809523Y-33207200D02*
X81666666Y-33254819D01*
X81666666Y-33254819D02*
X81428571Y-33254819D01*
X81428571Y-33254819D02*
X81333333Y-33207200D01*
X81333333Y-33207200D02*
X81285714Y-33159580D01*
X81285714Y-33159580D02*
X81238095Y-33064342D01*
X81238095Y-33064342D02*
X81238095Y-32969104D01*
X81238095Y-32969104D02*
X81285714Y-32873866D01*
X81285714Y-32873866D02*
X81333333Y-32826247D01*
X81333333Y-32826247D02*
X81428571Y-32778628D01*
X81428571Y-32778628D02*
X81619047Y-32731009D01*
X81619047Y-32731009D02*
X81714285Y-32683390D01*
X81714285Y-32683390D02*
X81761904Y-32635771D01*
X81761904Y-32635771D02*
X81809523Y-32540533D01*
X81809523Y-32540533D02*
X81809523Y-32445295D01*
X81809523Y-32445295D02*
X81761904Y-32350057D01*
X81761904Y-32350057D02*
X81714285Y-32302438D01*
X81714285Y-32302438D02*
X81619047Y-32254819D01*
X81619047Y-32254819D02*
X81380952Y-32254819D01*
X81380952Y-32254819D02*
X81238095Y-32302438D01*
X80904761Y-32254819D02*
X80666666Y-33254819D01*
X80666666Y-33254819D02*
X80476190Y-32540533D01*
X80476190Y-32540533D02*
X80285714Y-33254819D01*
X80285714Y-33254819D02*
X80047619Y-32254819D01*
X79142857Y-33254819D02*
X79714285Y-33254819D01*
X79428571Y-33254819D02*
X79428571Y-32254819D01*
X79428571Y-32254819D02*
X79523809Y-32397676D01*
X79523809Y-32397676D02*
X79619047Y-32492914D01*
X79619047Y-32492914D02*
X79714285Y-32540533D01*
X78761904Y-32350057D02*
X78714285Y-32302438D01*
X78714285Y-32302438D02*
X78619047Y-32254819D01*
X78619047Y-32254819D02*
X78380952Y-32254819D01*
X78380952Y-32254819D02*
X78285714Y-32302438D01*
X78285714Y-32302438D02*
X78238095Y-32350057D01*
X78238095Y-32350057D02*
X78190476Y-32445295D01*
X78190476Y-32445295D02*
X78190476Y-32540533D01*
X78190476Y-32540533D02*
X78238095Y-32683390D01*
X78238095Y-32683390D02*
X78809523Y-33254819D01*
X78809523Y-33254819D02*
X78190476Y-33254819D01*
X101809523Y-86207200D02*
X101666666Y-86254819D01*
X101666666Y-86254819D02*
X101428571Y-86254819D01*
X101428571Y-86254819D02*
X101333333Y-86207200D01*
X101333333Y-86207200D02*
X101285714Y-86159580D01*
X101285714Y-86159580D02*
X101238095Y-86064342D01*
X101238095Y-86064342D02*
X101238095Y-85969104D01*
X101238095Y-85969104D02*
X101285714Y-85873866D01*
X101285714Y-85873866D02*
X101333333Y-85826247D01*
X101333333Y-85826247D02*
X101428571Y-85778628D01*
X101428571Y-85778628D02*
X101619047Y-85731009D01*
X101619047Y-85731009D02*
X101714285Y-85683390D01*
X101714285Y-85683390D02*
X101761904Y-85635771D01*
X101761904Y-85635771D02*
X101809523Y-85540533D01*
X101809523Y-85540533D02*
X101809523Y-85445295D01*
X101809523Y-85445295D02*
X101761904Y-85350057D01*
X101761904Y-85350057D02*
X101714285Y-85302438D01*
X101714285Y-85302438D02*
X101619047Y-85254819D01*
X101619047Y-85254819D02*
X101380952Y-85254819D01*
X101380952Y-85254819D02*
X101238095Y-85302438D01*
X100904761Y-85254819D02*
X100666666Y-86254819D01*
X100666666Y-86254819D02*
X100476190Y-85540533D01*
X100476190Y-85540533D02*
X100285714Y-86254819D01*
X100285714Y-86254819D02*
X100047619Y-85254819D01*
X99142857Y-86254819D02*
X99714285Y-86254819D01*
X99428571Y-86254819D02*
X99428571Y-85254819D01*
X99428571Y-85254819D02*
X99523809Y-85397676D01*
X99523809Y-85397676D02*
X99619047Y-85492914D01*
X99619047Y-85492914D02*
X99714285Y-85540533D01*
X98809523Y-85254819D02*
X98190476Y-85254819D01*
X98190476Y-85254819D02*
X98523809Y-85635771D01*
X98523809Y-85635771D02*
X98380952Y-85635771D01*
X98380952Y-85635771D02*
X98285714Y-85683390D01*
X98285714Y-85683390D02*
X98238095Y-85731009D01*
X98238095Y-85731009D02*
X98190476Y-85826247D01*
X98190476Y-85826247D02*
X98190476Y-86064342D01*
X98190476Y-86064342D02*
X98238095Y-86159580D01*
X98238095Y-86159580D02*
X98285714Y-86207200D01*
X98285714Y-86207200D02*
X98380952Y-86254819D01*
X98380952Y-86254819D02*
X98666666Y-86254819D01*
X98666666Y-86254819D02*
X98761904Y-86207200D01*
X98761904Y-86207200D02*
X98809523Y-86159580D01*
X101809523Y-67207200D02*
X101666666Y-67254819D01*
X101666666Y-67254819D02*
X101428571Y-67254819D01*
X101428571Y-67254819D02*
X101333333Y-67207200D01*
X101333333Y-67207200D02*
X101285714Y-67159580D01*
X101285714Y-67159580D02*
X101238095Y-67064342D01*
X101238095Y-67064342D02*
X101238095Y-66969104D01*
X101238095Y-66969104D02*
X101285714Y-66873866D01*
X101285714Y-66873866D02*
X101333333Y-66826247D01*
X101333333Y-66826247D02*
X101428571Y-66778628D01*
X101428571Y-66778628D02*
X101619047Y-66731009D01*
X101619047Y-66731009D02*
X101714285Y-66683390D01*
X101714285Y-66683390D02*
X101761904Y-66635771D01*
X101761904Y-66635771D02*
X101809523Y-66540533D01*
X101809523Y-66540533D02*
X101809523Y-66445295D01*
X101809523Y-66445295D02*
X101761904Y-66350057D01*
X101761904Y-66350057D02*
X101714285Y-66302438D01*
X101714285Y-66302438D02*
X101619047Y-66254819D01*
X101619047Y-66254819D02*
X101380952Y-66254819D01*
X101380952Y-66254819D02*
X101238095Y-66302438D01*
X100904761Y-66254819D02*
X100666666Y-67254819D01*
X100666666Y-67254819D02*
X100476190Y-66540533D01*
X100476190Y-66540533D02*
X100285714Y-67254819D01*
X100285714Y-67254819D02*
X100047619Y-66254819D01*
X99142857Y-67254819D02*
X99714285Y-67254819D01*
X99428571Y-67254819D02*
X99428571Y-66254819D01*
X99428571Y-66254819D02*
X99523809Y-66397676D01*
X99523809Y-66397676D02*
X99619047Y-66492914D01*
X99619047Y-66492914D02*
X99714285Y-66540533D01*
X98285714Y-66588152D02*
X98285714Y-67254819D01*
X98523809Y-66207200D02*
X98761904Y-66921485D01*
X98761904Y-66921485D02*
X98142857Y-66921485D01*
X101809523Y-48207200D02*
X101666666Y-48254819D01*
X101666666Y-48254819D02*
X101428571Y-48254819D01*
X101428571Y-48254819D02*
X101333333Y-48207200D01*
X101333333Y-48207200D02*
X101285714Y-48159580D01*
X101285714Y-48159580D02*
X101238095Y-48064342D01*
X101238095Y-48064342D02*
X101238095Y-47969104D01*
X101238095Y-47969104D02*
X101285714Y-47873866D01*
X101285714Y-47873866D02*
X101333333Y-47826247D01*
X101333333Y-47826247D02*
X101428571Y-47778628D01*
X101428571Y-47778628D02*
X101619047Y-47731009D01*
X101619047Y-47731009D02*
X101714285Y-47683390D01*
X101714285Y-47683390D02*
X101761904Y-47635771D01*
X101761904Y-47635771D02*
X101809523Y-47540533D01*
X101809523Y-47540533D02*
X101809523Y-47445295D01*
X101809523Y-47445295D02*
X101761904Y-47350057D01*
X101761904Y-47350057D02*
X101714285Y-47302438D01*
X101714285Y-47302438D02*
X101619047Y-47254819D01*
X101619047Y-47254819D02*
X101380952Y-47254819D01*
X101380952Y-47254819D02*
X101238095Y-47302438D01*
X100904761Y-47254819D02*
X100666666Y-48254819D01*
X100666666Y-48254819D02*
X100476190Y-47540533D01*
X100476190Y-47540533D02*
X100285714Y-48254819D01*
X100285714Y-48254819D02*
X100047619Y-47254819D01*
X99142857Y-48254819D02*
X99714285Y-48254819D01*
X99428571Y-48254819D02*
X99428571Y-47254819D01*
X99428571Y-47254819D02*
X99523809Y-47397676D01*
X99523809Y-47397676D02*
X99619047Y-47492914D01*
X99619047Y-47492914D02*
X99714285Y-47540533D01*
X98238095Y-47254819D02*
X98714285Y-47254819D01*
X98714285Y-47254819D02*
X98761904Y-47731009D01*
X98761904Y-47731009D02*
X98714285Y-47683390D01*
X98714285Y-47683390D02*
X98619047Y-47635771D01*
X98619047Y-47635771D02*
X98380952Y-47635771D01*
X98380952Y-47635771D02*
X98285714Y-47683390D01*
X98285714Y-47683390D02*
X98238095Y-47731009D01*
X98238095Y-47731009D02*
X98190476Y-47826247D01*
X98190476Y-47826247D02*
X98190476Y-48064342D01*
X98190476Y-48064342D02*
X98238095Y-48159580D01*
X98238095Y-48159580D02*
X98285714Y-48207200D01*
X98285714Y-48207200D02*
X98380952Y-48254819D01*
X98380952Y-48254819D02*
X98619047Y-48254819D01*
X98619047Y-48254819D02*
X98714285Y-48207200D01*
X98714285Y-48207200D02*
X98761904Y-48159580D01*
X101809523Y-29207200D02*
X101666666Y-29254819D01*
X101666666Y-29254819D02*
X101428571Y-29254819D01*
X101428571Y-29254819D02*
X101333333Y-29207200D01*
X101333333Y-29207200D02*
X101285714Y-29159580D01*
X101285714Y-29159580D02*
X101238095Y-29064342D01*
X101238095Y-29064342D02*
X101238095Y-28969104D01*
X101238095Y-28969104D02*
X101285714Y-28873866D01*
X101285714Y-28873866D02*
X101333333Y-28826247D01*
X101333333Y-28826247D02*
X101428571Y-28778628D01*
X101428571Y-28778628D02*
X101619047Y-28731009D01*
X101619047Y-28731009D02*
X101714285Y-28683390D01*
X101714285Y-28683390D02*
X101761904Y-28635771D01*
X101761904Y-28635771D02*
X101809523Y-28540533D01*
X101809523Y-28540533D02*
X101809523Y-28445295D01*
X101809523Y-28445295D02*
X101761904Y-28350057D01*
X101761904Y-28350057D02*
X101714285Y-28302438D01*
X101714285Y-28302438D02*
X101619047Y-28254819D01*
X101619047Y-28254819D02*
X101380952Y-28254819D01*
X101380952Y-28254819D02*
X101238095Y-28302438D01*
X100904761Y-28254819D02*
X100666666Y-29254819D01*
X100666666Y-29254819D02*
X100476190Y-28540533D01*
X100476190Y-28540533D02*
X100285714Y-29254819D01*
X100285714Y-29254819D02*
X100047619Y-28254819D01*
X99142857Y-29254819D02*
X99714285Y-29254819D01*
X99428571Y-29254819D02*
X99428571Y-28254819D01*
X99428571Y-28254819D02*
X99523809Y-28397676D01*
X99523809Y-28397676D02*
X99619047Y-28492914D01*
X99619047Y-28492914D02*
X99714285Y-28540533D01*
X98285714Y-28254819D02*
X98476190Y-28254819D01*
X98476190Y-28254819D02*
X98571428Y-28302438D01*
X98571428Y-28302438D02*
X98619047Y-28350057D01*
X98619047Y-28350057D02*
X98714285Y-28492914D01*
X98714285Y-28492914D02*
X98761904Y-28683390D01*
X98761904Y-28683390D02*
X98761904Y-29064342D01*
X98761904Y-29064342D02*
X98714285Y-29159580D01*
X98714285Y-29159580D02*
X98666666Y-29207200D01*
X98666666Y-29207200D02*
X98571428Y-29254819D01*
X98571428Y-29254819D02*
X98380952Y-29254819D01*
X98380952Y-29254819D02*
X98285714Y-29207200D01*
X98285714Y-29207200D02*
X98238095Y-29159580D01*
X98238095Y-29159580D02*
X98190476Y-29064342D01*
X98190476Y-29064342D02*
X98190476Y-28826247D01*
X98190476Y-28826247D02*
X98238095Y-28731009D01*
X98238095Y-28731009D02*
X98285714Y-28683390D01*
X98285714Y-28683390D02*
X98380952Y-28635771D01*
X98380952Y-28635771D02*
X98571428Y-28635771D01*
X98571428Y-28635771D02*
X98666666Y-28683390D01*
X98666666Y-28683390D02*
X98714285Y-28731009D01*
X98714285Y-28731009D02*
X98761904Y-28826247D01*
X121809523Y-90207200D02*
X121666666Y-90254819D01*
X121666666Y-90254819D02*
X121428571Y-90254819D01*
X121428571Y-90254819D02*
X121333333Y-90207200D01*
X121333333Y-90207200D02*
X121285714Y-90159580D01*
X121285714Y-90159580D02*
X121238095Y-90064342D01*
X121238095Y-90064342D02*
X121238095Y-89969104D01*
X121238095Y-89969104D02*
X121285714Y-89873866D01*
X121285714Y-89873866D02*
X121333333Y-89826247D01*
X121333333Y-89826247D02*
X121428571Y-89778628D01*
X121428571Y-89778628D02*
X121619047Y-89731009D01*
X121619047Y-89731009D02*
X121714285Y-89683390D01*
X121714285Y-89683390D02*
X121761904Y-89635771D01*
X121761904Y-89635771D02*
X121809523Y-89540533D01*
X121809523Y-89540533D02*
X121809523Y-89445295D01*
X121809523Y-89445295D02*
X121761904Y-89350057D01*
X121761904Y-89350057D02*
X121714285Y-89302438D01*
X121714285Y-89302438D02*
X121619047Y-89254819D01*
X121619047Y-89254819D02*
X121380952Y-89254819D01*
X121380952Y-89254819D02*
X121238095Y-89302438D01*
X120904761Y-89254819D02*
X120666666Y-90254819D01*
X120666666Y-90254819D02*
X120476190Y-89540533D01*
X120476190Y-89540533D02*
X120285714Y-90254819D01*
X120285714Y-90254819D02*
X120047619Y-89254819D01*
X119142857Y-90254819D02*
X119714285Y-90254819D01*
X119428571Y-90254819D02*
X119428571Y-89254819D01*
X119428571Y-89254819D02*
X119523809Y-89397676D01*
X119523809Y-89397676D02*
X119619047Y-89492914D01*
X119619047Y-89492914D02*
X119714285Y-89540533D01*
X118809523Y-89254819D02*
X118142857Y-89254819D01*
X118142857Y-89254819D02*
X118571428Y-90254819D01*
X121809523Y-71207200D02*
X121666666Y-71254819D01*
X121666666Y-71254819D02*
X121428571Y-71254819D01*
X121428571Y-71254819D02*
X121333333Y-71207200D01*
X121333333Y-71207200D02*
X121285714Y-71159580D01*
X121285714Y-71159580D02*
X121238095Y-71064342D01*
X121238095Y-71064342D02*
X121238095Y-70969104D01*
X121238095Y-70969104D02*
X121285714Y-70873866D01*
X121285714Y-70873866D02*
X121333333Y-70826247D01*
X121333333Y-70826247D02*
X121428571Y-70778628D01*
X121428571Y-70778628D02*
X121619047Y-70731009D01*
X121619047Y-70731009D02*
X121714285Y-70683390D01*
X121714285Y-70683390D02*
X121761904Y-70635771D01*
X121761904Y-70635771D02*
X121809523Y-70540533D01*
X121809523Y-70540533D02*
X121809523Y-70445295D01*
X121809523Y-70445295D02*
X121761904Y-70350057D01*
X121761904Y-70350057D02*
X121714285Y-70302438D01*
X121714285Y-70302438D02*
X121619047Y-70254819D01*
X121619047Y-70254819D02*
X121380952Y-70254819D01*
X121380952Y-70254819D02*
X121238095Y-70302438D01*
X120904761Y-70254819D02*
X120666666Y-71254819D01*
X120666666Y-71254819D02*
X120476190Y-70540533D01*
X120476190Y-70540533D02*
X120285714Y-71254819D01*
X120285714Y-71254819D02*
X120047619Y-70254819D01*
X119142857Y-71254819D02*
X119714285Y-71254819D01*
X119428571Y-71254819D02*
X119428571Y-70254819D01*
X119428571Y-70254819D02*
X119523809Y-70397676D01*
X119523809Y-70397676D02*
X119619047Y-70492914D01*
X119619047Y-70492914D02*
X119714285Y-70540533D01*
X118571428Y-70683390D02*
X118666666Y-70635771D01*
X118666666Y-70635771D02*
X118714285Y-70588152D01*
X118714285Y-70588152D02*
X118761904Y-70492914D01*
X118761904Y-70492914D02*
X118761904Y-70445295D01*
X118761904Y-70445295D02*
X118714285Y-70350057D01*
X118714285Y-70350057D02*
X118666666Y-70302438D01*
X118666666Y-70302438D02*
X118571428Y-70254819D01*
X118571428Y-70254819D02*
X118380952Y-70254819D01*
X118380952Y-70254819D02*
X118285714Y-70302438D01*
X118285714Y-70302438D02*
X118238095Y-70350057D01*
X118238095Y-70350057D02*
X118190476Y-70445295D01*
X118190476Y-70445295D02*
X118190476Y-70492914D01*
X118190476Y-70492914D02*
X118238095Y-70588152D01*
X118238095Y-70588152D02*
X118285714Y-70635771D01*
X118285714Y-70635771D02*
X118380952Y-70683390D01*
X118380952Y-70683390D02*
X118571428Y-70683390D01*
X118571428Y-70683390D02*
X118666666Y-70731009D01*
X118666666Y-70731009D02*
X118714285Y-70778628D01*
X118714285Y-70778628D02*
X118761904Y-70873866D01*
X118761904Y-70873866D02*
X118761904Y-71064342D01*
X118761904Y-71064342D02*
X118714285Y-71159580D01*
X118714285Y-71159580D02*
X118666666Y-71207200D01*
X118666666Y-71207200D02*
X118571428Y-71254819D01*
X118571428Y-71254819D02*
X118380952Y-71254819D01*
X118380952Y-71254819D02*
X118285714Y-71207200D01*
X118285714Y-71207200D02*
X118238095Y-71159580D01*
X118238095Y-71159580D02*
X118190476Y-71064342D01*
X118190476Y-71064342D02*
X118190476Y-70873866D01*
X118190476Y-70873866D02*
X118238095Y-70778628D01*
X118238095Y-70778628D02*
X118285714Y-70731009D01*
X118285714Y-70731009D02*
X118380952Y-70683390D01*
X121809523Y-52207200D02*
X121666666Y-52254819D01*
X121666666Y-52254819D02*
X121428571Y-52254819D01*
X121428571Y-52254819D02*
X121333333Y-52207200D01*
X121333333Y-52207200D02*
X121285714Y-52159580D01*
X121285714Y-52159580D02*
X121238095Y-52064342D01*
X121238095Y-52064342D02*
X121238095Y-51969104D01*
X121238095Y-51969104D02*
X121285714Y-51873866D01*
X121285714Y-51873866D02*
X121333333Y-51826247D01*
X121333333Y-51826247D02*
X121428571Y-51778628D01*
X121428571Y-51778628D02*
X121619047Y-51731009D01*
X121619047Y-51731009D02*
X121714285Y-51683390D01*
X121714285Y-51683390D02*
X121761904Y-51635771D01*
X121761904Y-51635771D02*
X121809523Y-51540533D01*
X121809523Y-51540533D02*
X121809523Y-51445295D01*
X121809523Y-51445295D02*
X121761904Y-51350057D01*
X121761904Y-51350057D02*
X121714285Y-51302438D01*
X121714285Y-51302438D02*
X121619047Y-51254819D01*
X121619047Y-51254819D02*
X121380952Y-51254819D01*
X121380952Y-51254819D02*
X121238095Y-51302438D01*
X120904761Y-51254819D02*
X120666666Y-52254819D01*
X120666666Y-52254819D02*
X120476190Y-51540533D01*
X120476190Y-51540533D02*
X120285714Y-52254819D01*
X120285714Y-52254819D02*
X120047619Y-51254819D01*
X119142857Y-52254819D02*
X119714285Y-52254819D01*
X119428571Y-52254819D02*
X119428571Y-51254819D01*
X119428571Y-51254819D02*
X119523809Y-51397676D01*
X119523809Y-51397676D02*
X119619047Y-51492914D01*
X119619047Y-51492914D02*
X119714285Y-51540533D01*
X118666666Y-52254819D02*
X118476190Y-52254819D01*
X118476190Y-52254819D02*
X118380952Y-52207200D01*
X118380952Y-52207200D02*
X118333333Y-52159580D01*
X118333333Y-52159580D02*
X118238095Y-52016723D01*
X118238095Y-52016723D02*
X118190476Y-51826247D01*
X118190476Y-51826247D02*
X118190476Y-51445295D01*
X118190476Y-51445295D02*
X118238095Y-51350057D01*
X118238095Y-51350057D02*
X118285714Y-51302438D01*
X118285714Y-51302438D02*
X118380952Y-51254819D01*
X118380952Y-51254819D02*
X118571428Y-51254819D01*
X118571428Y-51254819D02*
X118666666Y-51302438D01*
X118666666Y-51302438D02*
X118714285Y-51350057D01*
X118714285Y-51350057D02*
X118761904Y-51445295D01*
X118761904Y-51445295D02*
X118761904Y-51683390D01*
X118761904Y-51683390D02*
X118714285Y-51778628D01*
X118714285Y-51778628D02*
X118666666Y-51826247D01*
X118666666Y-51826247D02*
X118571428Y-51873866D01*
X118571428Y-51873866D02*
X118380952Y-51873866D01*
X118380952Y-51873866D02*
X118285714Y-51826247D01*
X118285714Y-51826247D02*
X118238095Y-51778628D01*
X118238095Y-51778628D02*
X118190476Y-51683390D01*
X121809523Y-33207200D02*
X121666666Y-33254819D01*
X121666666Y-33254819D02*
X121428571Y-33254819D01*
X121428571Y-33254819D02*
X121333333Y-33207200D01*
X121333333Y-33207200D02*
X121285714Y-33159580D01*
X121285714Y-33159580D02*
X121238095Y-33064342D01*
X121238095Y-33064342D02*
X121238095Y-32969104D01*
X121238095Y-32969104D02*
X121285714Y-32873866D01*
X121285714Y-32873866D02*
X121333333Y-32826247D01*
X121333333Y-32826247D02*
X121428571Y-32778628D01*
X121428571Y-32778628D02*
X121619047Y-32731009D01*
X121619047Y-32731009D02*
X121714285Y-32683390D01*
X121714285Y-32683390D02*
X121761904Y-32635771D01*
X121761904Y-32635771D02*
X121809523Y-32540533D01*
X121809523Y-32540533D02*
X121809523Y-32445295D01*
X121809523Y-32445295D02*
X121761904Y-32350057D01*
X121761904Y-32350057D02*
X121714285Y-32302438D01*
X121714285Y-32302438D02*
X121619047Y-32254819D01*
X121619047Y-32254819D02*
X121380952Y-32254819D01*
X121380952Y-32254819D02*
X121238095Y-32302438D01*
X120904761Y-32254819D02*
X120666666Y-33254819D01*
X120666666Y-33254819D02*
X120476190Y-32540533D01*
X120476190Y-32540533D02*
X120285714Y-33254819D01*
X120285714Y-33254819D02*
X120047619Y-32254819D01*
X119714285Y-32350057D02*
X119666666Y-32302438D01*
X119666666Y-32302438D02*
X119571428Y-32254819D01*
X119571428Y-32254819D02*
X119333333Y-32254819D01*
X119333333Y-32254819D02*
X119238095Y-32302438D01*
X119238095Y-32302438D02*
X119190476Y-32350057D01*
X119190476Y-32350057D02*
X119142857Y-32445295D01*
X119142857Y-32445295D02*
X119142857Y-32540533D01*
X119142857Y-32540533D02*
X119190476Y-32683390D01*
X119190476Y-32683390D02*
X119761904Y-33254819D01*
X119761904Y-33254819D02*
X119142857Y-33254819D01*
X118523809Y-32254819D02*
X118428571Y-32254819D01*
X118428571Y-32254819D02*
X118333333Y-32302438D01*
X118333333Y-32302438D02*
X118285714Y-32350057D01*
X118285714Y-32350057D02*
X118238095Y-32445295D01*
X118238095Y-32445295D02*
X118190476Y-32635771D01*
X118190476Y-32635771D02*
X118190476Y-32873866D01*
X118190476Y-32873866D02*
X118238095Y-33064342D01*
X118238095Y-33064342D02*
X118285714Y-33159580D01*
X118285714Y-33159580D02*
X118333333Y-33207200D01*
X118333333Y-33207200D02*
X118428571Y-33254819D01*
X118428571Y-33254819D02*
X118523809Y-33254819D01*
X118523809Y-33254819D02*
X118619047Y-33207200D01*
X118619047Y-33207200D02*
X118666666Y-33159580D01*
X118666666Y-33159580D02*
X118714285Y-33064342D01*
X118714285Y-33064342D02*
X118761904Y-32873866D01*
X118761904Y-32873866D02*
X118761904Y-32635771D01*
X118761904Y-32635771D02*
X118714285Y-32445295D01*
X118714285Y-32445295D02*
X118666666Y-32350057D01*
X118666666Y-32350057D02*
X118619047Y-32302438D01*
X118619047Y-32302438D02*
X118523809Y-32254819D01*
X141809523Y-96207200D02*
X141666666Y-96254819D01*
X141666666Y-96254819D02*
X141428571Y-96254819D01*
X141428571Y-96254819D02*
X141333333Y-96207200D01*
X141333333Y-96207200D02*
X141285714Y-96159580D01*
X141285714Y-96159580D02*
X141238095Y-96064342D01*
X141238095Y-96064342D02*
X141238095Y-95969104D01*
X141238095Y-95969104D02*
X141285714Y-95873866D01*
X141285714Y-95873866D02*
X141333333Y-95826247D01*
X141333333Y-95826247D02*
X141428571Y-95778628D01*
X141428571Y-95778628D02*
X141619047Y-95731009D01*
X141619047Y-95731009D02*
X141714285Y-95683390D01*
X141714285Y-95683390D02*
X141761904Y-95635771D01*
X141761904Y-95635771D02*
X141809523Y-95540533D01*
X141809523Y-95540533D02*
X141809523Y-95445295D01*
X141809523Y-95445295D02*
X141761904Y-95350057D01*
X141761904Y-95350057D02*
X141714285Y-95302438D01*
X141714285Y-95302438D02*
X141619047Y-95254819D01*
X141619047Y-95254819D02*
X141380952Y-95254819D01*
X141380952Y-95254819D02*
X141238095Y-95302438D01*
X140904761Y-95254819D02*
X140666666Y-96254819D01*
X140666666Y-96254819D02*
X140476190Y-95540533D01*
X140476190Y-95540533D02*
X140285714Y-96254819D01*
X140285714Y-96254819D02*
X140047619Y-95254819D01*
X139714285Y-95350057D02*
X139666666Y-95302438D01*
X139666666Y-95302438D02*
X139571428Y-95254819D01*
X139571428Y-95254819D02*
X139333333Y-95254819D01*
X139333333Y-95254819D02*
X139238095Y-95302438D01*
X139238095Y-95302438D02*
X139190476Y-95350057D01*
X139190476Y-95350057D02*
X139142857Y-95445295D01*
X139142857Y-95445295D02*
X139142857Y-95540533D01*
X139142857Y-95540533D02*
X139190476Y-95683390D01*
X139190476Y-95683390D02*
X139761904Y-96254819D01*
X139761904Y-96254819D02*
X139142857Y-96254819D01*
X138190476Y-96254819D02*
X138761904Y-96254819D01*
X138476190Y-96254819D02*
X138476190Y-95254819D01*
X138476190Y-95254819D02*
X138571428Y-95397676D01*
X138571428Y-95397676D02*
X138666666Y-95492914D01*
X138666666Y-95492914D02*
X138761904Y-95540533D01*
X141809523Y-77207200D02*
X141666666Y-77254819D01*
X141666666Y-77254819D02*
X141428571Y-77254819D01*
X141428571Y-77254819D02*
X141333333Y-77207200D01*
X141333333Y-77207200D02*
X141285714Y-77159580D01*
X141285714Y-77159580D02*
X141238095Y-77064342D01*
X141238095Y-77064342D02*
X141238095Y-76969104D01*
X141238095Y-76969104D02*
X141285714Y-76873866D01*
X141285714Y-76873866D02*
X141333333Y-76826247D01*
X141333333Y-76826247D02*
X141428571Y-76778628D01*
X141428571Y-76778628D02*
X141619047Y-76731009D01*
X141619047Y-76731009D02*
X141714285Y-76683390D01*
X141714285Y-76683390D02*
X141761904Y-76635771D01*
X141761904Y-76635771D02*
X141809523Y-76540533D01*
X141809523Y-76540533D02*
X141809523Y-76445295D01*
X141809523Y-76445295D02*
X141761904Y-76350057D01*
X141761904Y-76350057D02*
X141714285Y-76302438D01*
X141714285Y-76302438D02*
X141619047Y-76254819D01*
X141619047Y-76254819D02*
X141380952Y-76254819D01*
X141380952Y-76254819D02*
X141238095Y-76302438D01*
X140904761Y-76254819D02*
X140666666Y-77254819D01*
X140666666Y-77254819D02*
X140476190Y-76540533D01*
X140476190Y-76540533D02*
X140285714Y-77254819D01*
X140285714Y-77254819D02*
X140047619Y-76254819D01*
X139714285Y-76350057D02*
X139666666Y-76302438D01*
X139666666Y-76302438D02*
X139571428Y-76254819D01*
X139571428Y-76254819D02*
X139333333Y-76254819D01*
X139333333Y-76254819D02*
X139238095Y-76302438D01*
X139238095Y-76302438D02*
X139190476Y-76350057D01*
X139190476Y-76350057D02*
X139142857Y-76445295D01*
X139142857Y-76445295D02*
X139142857Y-76540533D01*
X139142857Y-76540533D02*
X139190476Y-76683390D01*
X139190476Y-76683390D02*
X139761904Y-77254819D01*
X139761904Y-77254819D02*
X139142857Y-77254819D01*
X138761904Y-76350057D02*
X138714285Y-76302438D01*
X138714285Y-76302438D02*
X138619047Y-76254819D01*
X138619047Y-76254819D02*
X138380952Y-76254819D01*
X138380952Y-76254819D02*
X138285714Y-76302438D01*
X138285714Y-76302438D02*
X138238095Y-76350057D01*
X138238095Y-76350057D02*
X138190476Y-76445295D01*
X138190476Y-76445295D02*
X138190476Y-76540533D01*
X138190476Y-76540533D02*
X138238095Y-76683390D01*
X138238095Y-76683390D02*
X138809523Y-77254819D01*
X138809523Y-77254819D02*
X138190476Y-77254819D01*
X141809523Y-58207200D02*
X141666666Y-58254819D01*
X141666666Y-58254819D02*
X141428571Y-58254819D01*
X141428571Y-58254819D02*
X141333333Y-58207200D01*
X141333333Y-58207200D02*
X141285714Y-58159580D01*
X141285714Y-58159580D02*
X141238095Y-58064342D01*
X141238095Y-58064342D02*
X141238095Y-57969104D01*
X141238095Y-57969104D02*
X141285714Y-57873866D01*
X141285714Y-57873866D02*
X141333333Y-57826247D01*
X141333333Y-57826247D02*
X141428571Y-57778628D01*
X141428571Y-57778628D02*
X141619047Y-57731009D01*
X141619047Y-57731009D02*
X141714285Y-57683390D01*
X141714285Y-57683390D02*
X141761904Y-57635771D01*
X141761904Y-57635771D02*
X141809523Y-57540533D01*
X141809523Y-57540533D02*
X141809523Y-57445295D01*
X141809523Y-57445295D02*
X141761904Y-57350057D01*
X141761904Y-57350057D02*
X141714285Y-57302438D01*
X141714285Y-57302438D02*
X141619047Y-57254819D01*
X141619047Y-57254819D02*
X141380952Y-57254819D01*
X141380952Y-57254819D02*
X141238095Y-57302438D01*
X140904761Y-57254819D02*
X140666666Y-58254819D01*
X140666666Y-58254819D02*
X140476190Y-57540533D01*
X140476190Y-57540533D02*
X140285714Y-58254819D01*
X140285714Y-58254819D02*
X140047619Y-57254819D01*
X139714285Y-57350057D02*
X139666666Y-57302438D01*
X139666666Y-57302438D02*
X139571428Y-57254819D01*
X139571428Y-57254819D02*
X139333333Y-57254819D01*
X139333333Y-57254819D02*
X139238095Y-57302438D01*
X139238095Y-57302438D02*
X139190476Y-57350057D01*
X139190476Y-57350057D02*
X139142857Y-57445295D01*
X139142857Y-57445295D02*
X139142857Y-57540533D01*
X139142857Y-57540533D02*
X139190476Y-57683390D01*
X139190476Y-57683390D02*
X139761904Y-58254819D01*
X139761904Y-58254819D02*
X139142857Y-58254819D01*
X138809523Y-57254819D02*
X138190476Y-57254819D01*
X138190476Y-57254819D02*
X138523809Y-57635771D01*
X138523809Y-57635771D02*
X138380952Y-57635771D01*
X138380952Y-57635771D02*
X138285714Y-57683390D01*
X138285714Y-57683390D02*
X138238095Y-57731009D01*
X138238095Y-57731009D02*
X138190476Y-57826247D01*
X138190476Y-57826247D02*
X138190476Y-58064342D01*
X138190476Y-58064342D02*
X138238095Y-58159580D01*
X138238095Y-58159580D02*
X138285714Y-58207200D01*
X138285714Y-58207200D02*
X138380952Y-58254819D01*
X138380952Y-58254819D02*
X138666666Y-58254819D01*
X138666666Y-58254819D02*
X138761904Y-58207200D01*
X138761904Y-58207200D02*
X138809523Y-58159580D01*
X141809523Y-39207200D02*
X141666666Y-39254819D01*
X141666666Y-39254819D02*
X141428571Y-39254819D01*
X141428571Y-39254819D02*
X141333333Y-39207200D01*
X141333333Y-39207200D02*
X141285714Y-39159580D01*
X141285714Y-39159580D02*
X141238095Y-39064342D01*
X141238095Y-39064342D02*
X141238095Y-38969104D01*
X141238095Y-38969104D02*
X141285714Y-38873866D01*
X141285714Y-38873866D02*
X141333333Y-38826247D01*
X141333333Y-38826247D02*
X141428571Y-38778628D01*
X141428571Y-38778628D02*
X141619047Y-38731009D01*
X141619047Y-38731009D02*
X141714285Y-38683390D01*
X141714285Y-38683390D02*
X141761904Y-38635771D01*
X141761904Y-38635771D02*
X141809523Y-38540533D01*
X141809523Y-38540533D02*
X141809523Y-38445295D01*
X141809523Y-38445295D02*
X141761904Y-38350057D01*
X141761904Y-38350057D02*
X141714285Y-38302438D01*
X141714285Y-38302438D02*
X141619047Y-38254819D01*
X141619047Y-38254819D02*
X141380952Y-38254819D01*
X141380952Y-38254819D02*
X141238095Y-38302438D01*
X140904761Y-38254819D02*
X140666666Y-39254819D01*
X140666666Y-39254819D02*
X140476190Y-38540533D01*
X140476190Y-38540533D02*
X140285714Y-39254819D01*
X140285714Y-39254819D02*
X140047619Y-38254819D01*
X139714285Y-38350057D02*
X139666666Y-38302438D01*
X139666666Y-38302438D02*
X139571428Y-38254819D01*
X139571428Y-38254819D02*
X139333333Y-38254819D01*
X139333333Y-38254819D02*
X139238095Y-38302438D01*
X139238095Y-38302438D02*
X139190476Y-38350057D01*
X139190476Y-38350057D02*
X139142857Y-38445295D01*
X139142857Y-38445295D02*
X139142857Y-38540533D01*
X139142857Y-38540533D02*
X139190476Y-38683390D01*
X139190476Y-38683390D02*
X139761904Y-39254819D01*
X139761904Y-39254819D02*
X139142857Y-39254819D01*
X138285714Y-38588152D02*
X138285714Y-39254819D01*
X138523809Y-38207200D02*
X138761904Y-38921485D01*
X138761904Y-38921485D02*
X138142857Y-38921485D01*
X81809523Y-112207200D02*
X81666666Y-112254819D01*
X81666666Y-112254819D02*
X81428571Y-112254819D01*
X81428571Y-112254819D02*
X81333333Y-112207200D01*
X81333333Y-112207200D02*
X81285714Y-112159580D01*
X81285714Y-112159580D02*
X81238095Y-112064342D01*
X81238095Y-112064342D02*
X81238095Y-111969104D01*
X81238095Y-111969104D02*
X81285714Y-111873866D01*
X81285714Y-111873866D02*
X81333333Y-111826247D01*
X81333333Y-111826247D02*
X81428571Y-111778628D01*
X81428571Y-111778628D02*
X81619047Y-111731009D01*
X81619047Y-111731009D02*
X81714285Y-111683390D01*
X81714285Y-111683390D02*
X81761904Y-111635771D01*
X81761904Y-111635771D02*
X81809523Y-111540533D01*
X81809523Y-111540533D02*
X81809523Y-111445295D01*
X81809523Y-111445295D02*
X81761904Y-111350057D01*
X81761904Y-111350057D02*
X81714285Y-111302438D01*
X81714285Y-111302438D02*
X81619047Y-111254819D01*
X81619047Y-111254819D02*
X81380952Y-111254819D01*
X81380952Y-111254819D02*
X81238095Y-111302438D01*
X80904761Y-111254819D02*
X80666666Y-112254819D01*
X80666666Y-112254819D02*
X80476190Y-111540533D01*
X80476190Y-111540533D02*
X80285714Y-112254819D01*
X80285714Y-112254819D02*
X80047619Y-111254819D01*
X79714285Y-111350057D02*
X79666666Y-111302438D01*
X79666666Y-111302438D02*
X79571428Y-111254819D01*
X79571428Y-111254819D02*
X79333333Y-111254819D01*
X79333333Y-111254819D02*
X79238095Y-111302438D01*
X79238095Y-111302438D02*
X79190476Y-111350057D01*
X79190476Y-111350057D02*
X79142857Y-111445295D01*
X79142857Y-111445295D02*
X79142857Y-111540533D01*
X79142857Y-111540533D02*
X79190476Y-111683390D01*
X79190476Y-111683390D02*
X79761904Y-112254819D01*
X79761904Y-112254819D02*
X79142857Y-112254819D01*
X78238095Y-111254819D02*
X78714285Y-111254819D01*
X78714285Y-111254819D02*
X78761904Y-111731009D01*
X78761904Y-111731009D02*
X78714285Y-111683390D01*
X78714285Y-111683390D02*
X78619047Y-111635771D01*
X78619047Y-111635771D02*
X78380952Y-111635771D01*
X78380952Y-111635771D02*
X78285714Y-111683390D01*
X78285714Y-111683390D02*
X78238095Y-111731009D01*
X78238095Y-111731009D02*
X78190476Y-111826247D01*
X78190476Y-111826247D02*
X78190476Y-112064342D01*
X78190476Y-112064342D02*
X78238095Y-112159580D01*
X78238095Y-112159580D02*
X78285714Y-112207200D01*
X78285714Y-112207200D02*
X78380952Y-112254819D01*
X78380952Y-112254819D02*
X78619047Y-112254819D01*
X78619047Y-112254819D02*
X78714285Y-112207200D01*
X78714285Y-112207200D02*
X78761904Y-112159580D01*
X101809523Y-112207200D02*
X101666666Y-112254819D01*
X101666666Y-112254819D02*
X101428571Y-112254819D01*
X101428571Y-112254819D02*
X101333333Y-112207200D01*
X101333333Y-112207200D02*
X101285714Y-112159580D01*
X101285714Y-112159580D02*
X101238095Y-112064342D01*
X101238095Y-112064342D02*
X101238095Y-111969104D01*
X101238095Y-111969104D02*
X101285714Y-111873866D01*
X101285714Y-111873866D02*
X101333333Y-111826247D01*
X101333333Y-111826247D02*
X101428571Y-111778628D01*
X101428571Y-111778628D02*
X101619047Y-111731009D01*
X101619047Y-111731009D02*
X101714285Y-111683390D01*
X101714285Y-111683390D02*
X101761904Y-111635771D01*
X101761904Y-111635771D02*
X101809523Y-111540533D01*
X101809523Y-111540533D02*
X101809523Y-111445295D01*
X101809523Y-111445295D02*
X101761904Y-111350057D01*
X101761904Y-111350057D02*
X101714285Y-111302438D01*
X101714285Y-111302438D02*
X101619047Y-111254819D01*
X101619047Y-111254819D02*
X101380952Y-111254819D01*
X101380952Y-111254819D02*
X101238095Y-111302438D01*
X100904761Y-111254819D02*
X100666666Y-112254819D01*
X100666666Y-112254819D02*
X100476190Y-111540533D01*
X100476190Y-111540533D02*
X100285714Y-112254819D01*
X100285714Y-112254819D02*
X100047619Y-111254819D01*
X99714285Y-111350057D02*
X99666666Y-111302438D01*
X99666666Y-111302438D02*
X99571428Y-111254819D01*
X99571428Y-111254819D02*
X99333333Y-111254819D01*
X99333333Y-111254819D02*
X99238095Y-111302438D01*
X99238095Y-111302438D02*
X99190476Y-111350057D01*
X99190476Y-111350057D02*
X99142857Y-111445295D01*
X99142857Y-111445295D02*
X99142857Y-111540533D01*
X99142857Y-111540533D02*
X99190476Y-111683390D01*
X99190476Y-111683390D02*
X99761904Y-112254819D01*
X99761904Y-112254819D02*
X99142857Y-112254819D01*
X98285714Y-111254819D02*
X98476190Y-111254819D01*
X98476190Y-111254819D02*
X98571428Y-111302438D01*
X98571428Y-111302438D02*
X98619047Y-111350057D01*
X98619047Y-111350057D02*
X98714285Y-111492914D01*
X98714285Y-111492914D02*
X98761904Y-111683390D01*
X98761904Y-111683390D02*
X98761904Y-112064342D01*
X98761904Y-112064342D02*
X98714285Y-112159580D01*
X98714285Y-112159580D02*
X98666666Y-112207200D01*
X98666666Y-112207200D02*
X98571428Y-112254819D01*
X98571428Y-112254819D02*
X98380952Y-112254819D01*
X98380952Y-112254819D02*
X98285714Y-112207200D01*
X98285714Y-112207200D02*
X98238095Y-112159580D01*
X98238095Y-112159580D02*
X98190476Y-112064342D01*
X98190476Y-112064342D02*
X98190476Y-111826247D01*
X98190476Y-111826247D02*
X98238095Y-111731009D01*
X98238095Y-111731009D02*
X98285714Y-111683390D01*
X98285714Y-111683390D02*
X98380952Y-111635771D01*
X98380952Y-111635771D02*
X98571428Y-111635771D01*
X98571428Y-111635771D02*
X98666666Y-111683390D01*
X98666666Y-111683390D02*
X98714285Y-111731009D01*
X98714285Y-111731009D02*
X98761904Y-111826247D01*
X122481825Y-113394563D02*
X122335361Y-113429550D01*
X122335361Y-113429550D02*
X122098172Y-113408799D01*
X122098172Y-113408799D02*
X122007446Y-113353061D01*
X122007446Y-113353061D02*
X121964159Y-113301473D01*
X121964159Y-113301473D02*
X121925021Y-113202447D01*
X121925021Y-113202447D02*
X121933322Y-113107571D01*
X121933322Y-113107571D02*
X121989060Y-113016845D01*
X121989060Y-113016845D02*
X122040648Y-112973558D01*
X122040648Y-112973558D02*
X122139674Y-112934421D01*
X122139674Y-112934421D02*
X122333576Y-112903584D01*
X122333576Y-112903584D02*
X122432602Y-112864447D01*
X122432602Y-112864447D02*
X122484190Y-112821159D01*
X122484190Y-112821159D02*
X122539929Y-112730434D01*
X122539929Y-112730434D02*
X122548229Y-112635558D01*
X122548229Y-112635558D02*
X122509092Y-112536532D01*
X122509092Y-112536532D02*
X122465804Y-112484944D01*
X122465804Y-112484944D02*
X122375079Y-112429205D01*
X122375079Y-112429205D02*
X122137890Y-112408454D01*
X122137890Y-112408454D02*
X121991426Y-112443441D01*
X121663511Y-112366951D02*
X121339166Y-113342395D01*
X121339166Y-113342395D02*
X121211669Y-112614226D01*
X121211669Y-112614226D02*
X120959663Y-113309192D01*
X120959663Y-113309192D02*
X120809630Y-112292246D01*
X120469265Y-112358070D02*
X120425977Y-112306482D01*
X120425977Y-112306482D02*
X120335252Y-112250744D01*
X120335252Y-112250744D02*
X120098062Y-112229992D01*
X120098062Y-112229992D02*
X119999036Y-112269130D01*
X119999036Y-112269130D02*
X119947448Y-112312417D01*
X119947448Y-112312417D02*
X119891710Y-112403143D01*
X119891710Y-112403143D02*
X119883409Y-112498018D01*
X119883409Y-112498018D02*
X119918396Y-112644482D01*
X119918396Y-112644482D02*
X120437847Y-113263539D01*
X120437847Y-113263539D02*
X119821155Y-113209586D01*
X119576246Y-112184339D02*
X118912116Y-112126235D01*
X118912116Y-112126235D02*
X119251901Y-113159783D01*
X145206090Y-118782557D02*
X145055562Y-118778444D01*
X145055562Y-118778444D02*
X144831825Y-118697011D01*
X144831825Y-118697011D02*
X144758617Y-118619690D01*
X144758617Y-118619690D02*
X144730157Y-118558656D01*
X144730157Y-118558656D02*
X144717983Y-118452875D01*
X144717983Y-118452875D02*
X144750556Y-118363381D01*
X144750556Y-118363381D02*
X144827877Y-118290173D01*
X144827877Y-118290173D02*
X144888911Y-118261712D01*
X144888911Y-118261712D02*
X144994692Y-118249538D01*
X144994692Y-118249538D02*
X145189968Y-118269938D01*
X145189968Y-118269938D02*
X145295749Y-118257764D01*
X145295749Y-118257764D02*
X145356783Y-118229303D01*
X145356783Y-118229303D02*
X145434103Y-118156095D01*
X145434103Y-118156095D02*
X145466677Y-118066601D01*
X145466677Y-118066601D02*
X145454503Y-117960819D01*
X145454503Y-117960819D02*
X145426042Y-117899785D01*
X145426042Y-117899785D02*
X145352834Y-117822465D01*
X145352834Y-117822465D02*
X145129098Y-117741032D01*
X145129098Y-117741032D02*
X144978570Y-117736919D01*
X144681625Y-117578165D02*
X144115869Y-118436424D01*
X144115869Y-118436424D02*
X144181180Y-117700068D01*
X144181180Y-117700068D02*
X143757891Y-118306131D01*
X143757891Y-118306131D02*
X143876175Y-117285005D01*
X143530371Y-117260493D02*
X143501910Y-117199459D01*
X143501910Y-117199459D02*
X143428702Y-117122138D01*
X143428702Y-117122138D02*
X143204966Y-117040705D01*
X143204966Y-117040705D02*
X143099185Y-117052879D01*
X143099185Y-117052879D02*
X143038151Y-117081339D01*
X143038151Y-117081339D02*
X142960830Y-117154547D01*
X142960830Y-117154547D02*
X142928257Y-117244041D01*
X142928257Y-117244041D02*
X142924144Y-117394570D01*
X142924144Y-117394570D02*
X143265671Y-118126977D01*
X143265671Y-118126977D02*
X142683956Y-117915251D01*
X142342429Y-117182843D02*
X142448211Y-117170669D01*
X142448211Y-117170669D02*
X142509244Y-117142209D01*
X142509244Y-117142209D02*
X142586565Y-117069001D01*
X142586565Y-117069001D02*
X142602852Y-117024254D01*
X142602852Y-117024254D02*
X142590678Y-116918472D01*
X142590678Y-116918472D02*
X142562217Y-116857438D01*
X142562217Y-116857438D02*
X142489009Y-116780118D01*
X142489009Y-116780118D02*
X142310020Y-116714971D01*
X142310020Y-116714971D02*
X142204239Y-116727145D01*
X142204239Y-116727145D02*
X142143205Y-116755606D01*
X142143205Y-116755606D02*
X142065885Y-116828813D01*
X142065885Y-116828813D02*
X142049598Y-116873561D01*
X142049598Y-116873561D02*
X142061772Y-116979342D01*
X142061772Y-116979342D02*
X142090232Y-117040376D01*
X142090232Y-117040376D02*
X142163440Y-117117697D01*
X142163440Y-117117697D02*
X142342429Y-117182843D01*
X142342429Y-117182843D02*
X142415637Y-117260164D01*
X142415637Y-117260164D02*
X142444098Y-117321198D01*
X142444098Y-117321198D02*
X142456272Y-117426979D01*
X142456272Y-117426979D02*
X142391125Y-117605968D01*
X142391125Y-117605968D02*
X142313804Y-117679176D01*
X142313804Y-117679176D02*
X142252770Y-117707636D01*
X142252770Y-117707636D02*
X142146989Y-117719810D01*
X142146989Y-117719810D02*
X141968000Y-117654664D01*
X141968000Y-117654664D02*
X141894792Y-117577343D01*
X141894792Y-117577343D02*
X141866332Y-117516309D01*
X141866332Y-117516309D02*
X141854158Y-117410528D01*
X141854158Y-117410528D02*
X141919304Y-117231539D01*
X141919304Y-117231539D02*
X141996625Y-117158331D01*
X141996625Y-117158331D02*
X142057659Y-117129870D01*
X142057659Y-117129870D02*
X142163440Y-117117697D01*
X165444590Y-131192908D02*
X165304546Y-131137560D01*
X165304546Y-131137560D02*
X165122155Y-130984515D01*
X165122155Y-130984515D02*
X165079807Y-130886819D01*
X165079807Y-130886819D02*
X165073938Y-130819732D01*
X165073938Y-130819732D02*
X165098677Y-130716166D01*
X165098677Y-130716166D02*
X165159895Y-130643210D01*
X165159895Y-130643210D02*
X165257591Y-130600862D01*
X165257591Y-130600862D02*
X165324678Y-130594992D01*
X165324678Y-130594992D02*
X165428244Y-130619732D01*
X165428244Y-130619732D02*
X165604766Y-130705689D01*
X165604766Y-130705689D02*
X165708332Y-130730429D01*
X165708332Y-130730429D02*
X165775419Y-130724560D01*
X165775419Y-130724560D02*
X165873115Y-130682212D01*
X165873115Y-130682212D02*
X165934333Y-130609255D01*
X165934333Y-130609255D02*
X165959073Y-130505690D01*
X165959073Y-130505690D02*
X165953203Y-130438603D01*
X165953203Y-130438603D02*
X165910855Y-130340906D01*
X165910855Y-130340906D02*
X165728464Y-130187862D01*
X165728464Y-130187862D02*
X165588420Y-130132513D01*
X165363681Y-129881772D02*
X164538502Y-130494772D01*
X164538502Y-130494772D02*
X164851722Y-129825162D01*
X164851722Y-129825162D02*
X164246675Y-130249901D01*
X164246675Y-130249901D02*
X164707071Y-129330812D01*
X164390505Y-129189506D02*
X164384636Y-129122418D01*
X164384636Y-129122418D02*
X164342288Y-129024722D01*
X164342288Y-129024722D02*
X164159897Y-128871678D01*
X164159897Y-128871678D02*
X164056331Y-128846938D01*
X164056331Y-128846938D02*
X163989244Y-128852807D01*
X163989244Y-128852807D02*
X163891548Y-128895155D01*
X163891548Y-128895155D02*
X163830330Y-128968112D01*
X163830330Y-128968112D02*
X163774982Y-129108156D01*
X163774982Y-129108156D02*
X163845414Y-129913202D01*
X163845414Y-129913202D02*
X163371196Y-129515286D01*
X163006413Y-129209197D02*
X162860500Y-129086761D01*
X162860500Y-129086761D02*
X162818152Y-128989065D01*
X162818152Y-128989065D02*
X162812283Y-128921978D01*
X162812283Y-128921978D02*
X162831153Y-128751325D01*
X162831153Y-128751325D02*
X162917110Y-128574803D01*
X162917110Y-128574803D02*
X163161982Y-128282976D01*
X163161982Y-128282976D02*
X163259678Y-128240629D01*
X163259678Y-128240629D02*
X163326765Y-128234759D01*
X163326765Y-128234759D02*
X163430331Y-128259499D01*
X163430331Y-128259499D02*
X163576244Y-128381935D01*
X163576244Y-128381935D02*
X163618592Y-128479631D01*
X163618592Y-128479631D02*
X163624461Y-128546718D01*
X163624461Y-128546718D02*
X163599721Y-128650284D01*
X163599721Y-128650284D02*
X163446677Y-128832675D01*
X163446677Y-128832675D02*
X163348981Y-128875023D01*
X163348981Y-128875023D02*
X163281893Y-128880892D01*
X163281893Y-128880892D02*
X163178328Y-128856153D01*
X163178328Y-128856153D02*
X163032415Y-128733717D01*
X163032415Y-128733717D02*
X162990067Y-128636021D01*
X162990067Y-128636021D02*
X162984197Y-128568934D01*
X162984197Y-128568934D02*
X163008937Y-128465368D01*
X40738094Y-130154819D02*
X40738094Y-129154819D01*
X40738094Y-129154819D02*
X40499999Y-129154819D01*
X40499999Y-129154819D02*
X40357142Y-129202438D01*
X40357142Y-129202438D02*
X40261904Y-129297676D01*
X40261904Y-129297676D02*
X40214285Y-129392914D01*
X40214285Y-129392914D02*
X40166666Y-129583390D01*
X40166666Y-129583390D02*
X40166666Y-129726247D01*
X40166666Y-129726247D02*
X40214285Y-129916723D01*
X40214285Y-129916723D02*
X40261904Y-130011961D01*
X40261904Y-130011961D02*
X40357142Y-130107200D01*
X40357142Y-130107200D02*
X40499999Y-130154819D01*
X40499999Y-130154819D02*
X40738094Y-130154819D01*
X39214285Y-130154819D02*
X39785713Y-130154819D01*
X39499999Y-130154819D02*
X39499999Y-129154819D01*
X39499999Y-129154819D02*
X39595237Y-129297676D01*
X39595237Y-129297676D02*
X39690475Y-129392914D01*
X39690475Y-129392914D02*
X39785713Y-129440533D01*
X40738094Y-111154819D02*
X40738094Y-110154819D01*
X40738094Y-110154819D02*
X40499999Y-110154819D01*
X40499999Y-110154819D02*
X40357142Y-110202438D01*
X40357142Y-110202438D02*
X40261904Y-110297676D01*
X40261904Y-110297676D02*
X40214285Y-110392914D01*
X40214285Y-110392914D02*
X40166666Y-110583390D01*
X40166666Y-110583390D02*
X40166666Y-110726247D01*
X40166666Y-110726247D02*
X40214285Y-110916723D01*
X40214285Y-110916723D02*
X40261904Y-111011961D01*
X40261904Y-111011961D02*
X40357142Y-111107200D01*
X40357142Y-111107200D02*
X40499999Y-111154819D01*
X40499999Y-111154819D02*
X40738094Y-111154819D01*
X39785713Y-110250057D02*
X39738094Y-110202438D01*
X39738094Y-110202438D02*
X39642856Y-110154819D01*
X39642856Y-110154819D02*
X39404761Y-110154819D01*
X39404761Y-110154819D02*
X39309523Y-110202438D01*
X39309523Y-110202438D02*
X39261904Y-110250057D01*
X39261904Y-110250057D02*
X39214285Y-110345295D01*
X39214285Y-110345295D02*
X39214285Y-110440533D01*
X39214285Y-110440533D02*
X39261904Y-110583390D01*
X39261904Y-110583390D02*
X39833332Y-111154819D01*
X39833332Y-111154819D02*
X39214285Y-111154819D01*
X40738094Y-92154819D02*
X40738094Y-91154819D01*
X40738094Y-91154819D02*
X40499999Y-91154819D01*
X40499999Y-91154819D02*
X40357142Y-91202438D01*
X40357142Y-91202438D02*
X40261904Y-91297676D01*
X40261904Y-91297676D02*
X40214285Y-91392914D01*
X40214285Y-91392914D02*
X40166666Y-91583390D01*
X40166666Y-91583390D02*
X40166666Y-91726247D01*
X40166666Y-91726247D02*
X40214285Y-91916723D01*
X40214285Y-91916723D02*
X40261904Y-92011961D01*
X40261904Y-92011961D02*
X40357142Y-92107200D01*
X40357142Y-92107200D02*
X40499999Y-92154819D01*
X40499999Y-92154819D02*
X40738094Y-92154819D01*
X39833332Y-91154819D02*
X39214285Y-91154819D01*
X39214285Y-91154819D02*
X39547618Y-91535771D01*
X39547618Y-91535771D02*
X39404761Y-91535771D01*
X39404761Y-91535771D02*
X39309523Y-91583390D01*
X39309523Y-91583390D02*
X39261904Y-91631009D01*
X39261904Y-91631009D02*
X39214285Y-91726247D01*
X39214285Y-91726247D02*
X39214285Y-91964342D01*
X39214285Y-91964342D02*
X39261904Y-92059580D01*
X39261904Y-92059580D02*
X39309523Y-92107200D01*
X39309523Y-92107200D02*
X39404761Y-92154819D01*
X39404761Y-92154819D02*
X39690475Y-92154819D01*
X39690475Y-92154819D02*
X39785713Y-92107200D01*
X39785713Y-92107200D02*
X39833332Y-92059580D01*
X40738094Y-73154819D02*
X40738094Y-72154819D01*
X40738094Y-72154819D02*
X40499999Y-72154819D01*
X40499999Y-72154819D02*
X40357142Y-72202438D01*
X40357142Y-72202438D02*
X40261904Y-72297676D01*
X40261904Y-72297676D02*
X40214285Y-72392914D01*
X40214285Y-72392914D02*
X40166666Y-72583390D01*
X40166666Y-72583390D02*
X40166666Y-72726247D01*
X40166666Y-72726247D02*
X40214285Y-72916723D01*
X40214285Y-72916723D02*
X40261904Y-73011961D01*
X40261904Y-73011961D02*
X40357142Y-73107200D01*
X40357142Y-73107200D02*
X40499999Y-73154819D01*
X40499999Y-73154819D02*
X40738094Y-73154819D01*
X39309523Y-72488152D02*
X39309523Y-73154819D01*
X39547618Y-72107200D02*
X39785713Y-72821485D01*
X39785713Y-72821485D02*
X39166666Y-72821485D01*
X60738094Y-120154819D02*
X60738094Y-119154819D01*
X60738094Y-119154819D02*
X60499999Y-119154819D01*
X60499999Y-119154819D02*
X60357142Y-119202438D01*
X60357142Y-119202438D02*
X60261904Y-119297676D01*
X60261904Y-119297676D02*
X60214285Y-119392914D01*
X60214285Y-119392914D02*
X60166666Y-119583390D01*
X60166666Y-119583390D02*
X60166666Y-119726247D01*
X60166666Y-119726247D02*
X60214285Y-119916723D01*
X60214285Y-119916723D02*
X60261904Y-120011961D01*
X60261904Y-120011961D02*
X60357142Y-120107200D01*
X60357142Y-120107200D02*
X60499999Y-120154819D01*
X60499999Y-120154819D02*
X60738094Y-120154819D01*
X59261904Y-119154819D02*
X59738094Y-119154819D01*
X59738094Y-119154819D02*
X59785713Y-119631009D01*
X59785713Y-119631009D02*
X59738094Y-119583390D01*
X59738094Y-119583390D02*
X59642856Y-119535771D01*
X59642856Y-119535771D02*
X59404761Y-119535771D01*
X59404761Y-119535771D02*
X59309523Y-119583390D01*
X59309523Y-119583390D02*
X59261904Y-119631009D01*
X59261904Y-119631009D02*
X59214285Y-119726247D01*
X59214285Y-119726247D02*
X59214285Y-119964342D01*
X59214285Y-119964342D02*
X59261904Y-120059580D01*
X59261904Y-120059580D02*
X59309523Y-120107200D01*
X59309523Y-120107200D02*
X59404761Y-120154819D01*
X59404761Y-120154819D02*
X59642856Y-120154819D01*
X59642856Y-120154819D02*
X59738094Y-120107200D01*
X59738094Y-120107200D02*
X59785713Y-120059580D01*
X60738094Y-101154819D02*
X60738094Y-100154819D01*
X60738094Y-100154819D02*
X60499999Y-100154819D01*
X60499999Y-100154819D02*
X60357142Y-100202438D01*
X60357142Y-100202438D02*
X60261904Y-100297676D01*
X60261904Y-100297676D02*
X60214285Y-100392914D01*
X60214285Y-100392914D02*
X60166666Y-100583390D01*
X60166666Y-100583390D02*
X60166666Y-100726247D01*
X60166666Y-100726247D02*
X60214285Y-100916723D01*
X60214285Y-100916723D02*
X60261904Y-101011961D01*
X60261904Y-101011961D02*
X60357142Y-101107200D01*
X60357142Y-101107200D02*
X60499999Y-101154819D01*
X60499999Y-101154819D02*
X60738094Y-101154819D01*
X59309523Y-100154819D02*
X59499999Y-100154819D01*
X59499999Y-100154819D02*
X59595237Y-100202438D01*
X59595237Y-100202438D02*
X59642856Y-100250057D01*
X59642856Y-100250057D02*
X59738094Y-100392914D01*
X59738094Y-100392914D02*
X59785713Y-100583390D01*
X59785713Y-100583390D02*
X59785713Y-100964342D01*
X59785713Y-100964342D02*
X59738094Y-101059580D01*
X59738094Y-101059580D02*
X59690475Y-101107200D01*
X59690475Y-101107200D02*
X59595237Y-101154819D01*
X59595237Y-101154819D02*
X59404761Y-101154819D01*
X59404761Y-101154819D02*
X59309523Y-101107200D01*
X59309523Y-101107200D02*
X59261904Y-101059580D01*
X59261904Y-101059580D02*
X59214285Y-100964342D01*
X59214285Y-100964342D02*
X59214285Y-100726247D01*
X59214285Y-100726247D02*
X59261904Y-100631009D01*
X59261904Y-100631009D02*
X59309523Y-100583390D01*
X59309523Y-100583390D02*
X59404761Y-100535771D01*
X59404761Y-100535771D02*
X59595237Y-100535771D01*
X59595237Y-100535771D02*
X59690475Y-100583390D01*
X59690475Y-100583390D02*
X59738094Y-100631009D01*
X59738094Y-100631009D02*
X59785713Y-100726247D01*
X60738094Y-82154819D02*
X60738094Y-81154819D01*
X60738094Y-81154819D02*
X60499999Y-81154819D01*
X60499999Y-81154819D02*
X60357142Y-81202438D01*
X60357142Y-81202438D02*
X60261904Y-81297676D01*
X60261904Y-81297676D02*
X60214285Y-81392914D01*
X60214285Y-81392914D02*
X60166666Y-81583390D01*
X60166666Y-81583390D02*
X60166666Y-81726247D01*
X60166666Y-81726247D02*
X60214285Y-81916723D01*
X60214285Y-81916723D02*
X60261904Y-82011961D01*
X60261904Y-82011961D02*
X60357142Y-82107200D01*
X60357142Y-82107200D02*
X60499999Y-82154819D01*
X60499999Y-82154819D02*
X60738094Y-82154819D01*
X59833332Y-81154819D02*
X59166666Y-81154819D01*
X59166666Y-81154819D02*
X59595237Y-82154819D01*
X60738094Y-63154819D02*
X60738094Y-62154819D01*
X60738094Y-62154819D02*
X60499999Y-62154819D01*
X60499999Y-62154819D02*
X60357142Y-62202438D01*
X60357142Y-62202438D02*
X60261904Y-62297676D01*
X60261904Y-62297676D02*
X60214285Y-62392914D01*
X60214285Y-62392914D02*
X60166666Y-62583390D01*
X60166666Y-62583390D02*
X60166666Y-62726247D01*
X60166666Y-62726247D02*
X60214285Y-62916723D01*
X60214285Y-62916723D02*
X60261904Y-63011961D01*
X60261904Y-63011961D02*
X60357142Y-63107200D01*
X60357142Y-63107200D02*
X60499999Y-63154819D01*
X60499999Y-63154819D02*
X60738094Y-63154819D01*
X59595237Y-62583390D02*
X59690475Y-62535771D01*
X59690475Y-62535771D02*
X59738094Y-62488152D01*
X59738094Y-62488152D02*
X59785713Y-62392914D01*
X59785713Y-62392914D02*
X59785713Y-62345295D01*
X59785713Y-62345295D02*
X59738094Y-62250057D01*
X59738094Y-62250057D02*
X59690475Y-62202438D01*
X59690475Y-62202438D02*
X59595237Y-62154819D01*
X59595237Y-62154819D02*
X59404761Y-62154819D01*
X59404761Y-62154819D02*
X59309523Y-62202438D01*
X59309523Y-62202438D02*
X59261904Y-62250057D01*
X59261904Y-62250057D02*
X59214285Y-62345295D01*
X59214285Y-62345295D02*
X59214285Y-62392914D01*
X59214285Y-62392914D02*
X59261904Y-62488152D01*
X59261904Y-62488152D02*
X59309523Y-62535771D01*
X59309523Y-62535771D02*
X59404761Y-62583390D01*
X59404761Y-62583390D02*
X59595237Y-62583390D01*
X59595237Y-62583390D02*
X59690475Y-62631009D01*
X59690475Y-62631009D02*
X59738094Y-62678628D01*
X59738094Y-62678628D02*
X59785713Y-62773866D01*
X59785713Y-62773866D02*
X59785713Y-62964342D01*
X59785713Y-62964342D02*
X59738094Y-63059580D01*
X59738094Y-63059580D02*
X59690475Y-63107200D01*
X59690475Y-63107200D02*
X59595237Y-63154819D01*
X59595237Y-63154819D02*
X59404761Y-63154819D01*
X59404761Y-63154819D02*
X59309523Y-63107200D01*
X59309523Y-63107200D02*
X59261904Y-63059580D01*
X59261904Y-63059580D02*
X59214285Y-62964342D01*
X59214285Y-62964342D02*
X59214285Y-62773866D01*
X59214285Y-62773866D02*
X59261904Y-62678628D01*
X59261904Y-62678628D02*
X59309523Y-62631009D01*
X59309523Y-62631009D02*
X59404761Y-62583390D01*
X80738094Y-108154819D02*
X80738094Y-107154819D01*
X80738094Y-107154819D02*
X80499999Y-107154819D01*
X80499999Y-107154819D02*
X80357142Y-107202438D01*
X80357142Y-107202438D02*
X80261904Y-107297676D01*
X80261904Y-107297676D02*
X80214285Y-107392914D01*
X80214285Y-107392914D02*
X80166666Y-107583390D01*
X80166666Y-107583390D02*
X80166666Y-107726247D01*
X80166666Y-107726247D02*
X80214285Y-107916723D01*
X80214285Y-107916723D02*
X80261904Y-108011961D01*
X80261904Y-108011961D02*
X80357142Y-108107200D01*
X80357142Y-108107200D02*
X80499999Y-108154819D01*
X80499999Y-108154819D02*
X80738094Y-108154819D01*
X79690475Y-108154819D02*
X79499999Y-108154819D01*
X79499999Y-108154819D02*
X79404761Y-108107200D01*
X79404761Y-108107200D02*
X79357142Y-108059580D01*
X79357142Y-108059580D02*
X79261904Y-107916723D01*
X79261904Y-107916723D02*
X79214285Y-107726247D01*
X79214285Y-107726247D02*
X79214285Y-107345295D01*
X79214285Y-107345295D02*
X79261904Y-107250057D01*
X79261904Y-107250057D02*
X79309523Y-107202438D01*
X79309523Y-107202438D02*
X79404761Y-107154819D01*
X79404761Y-107154819D02*
X79595237Y-107154819D01*
X79595237Y-107154819D02*
X79690475Y-107202438D01*
X79690475Y-107202438D02*
X79738094Y-107250057D01*
X79738094Y-107250057D02*
X79785713Y-107345295D01*
X79785713Y-107345295D02*
X79785713Y-107583390D01*
X79785713Y-107583390D02*
X79738094Y-107678628D01*
X79738094Y-107678628D02*
X79690475Y-107726247D01*
X79690475Y-107726247D02*
X79595237Y-107773866D01*
X79595237Y-107773866D02*
X79404761Y-107773866D01*
X79404761Y-107773866D02*
X79309523Y-107726247D01*
X79309523Y-107726247D02*
X79261904Y-107678628D01*
X79261904Y-107678628D02*
X79214285Y-107583390D01*
X81214285Y-89154819D02*
X81214285Y-88154819D01*
X81214285Y-88154819D02*
X80976190Y-88154819D01*
X80976190Y-88154819D02*
X80833333Y-88202438D01*
X80833333Y-88202438D02*
X80738095Y-88297676D01*
X80738095Y-88297676D02*
X80690476Y-88392914D01*
X80690476Y-88392914D02*
X80642857Y-88583390D01*
X80642857Y-88583390D02*
X80642857Y-88726247D01*
X80642857Y-88726247D02*
X80690476Y-88916723D01*
X80690476Y-88916723D02*
X80738095Y-89011961D01*
X80738095Y-89011961D02*
X80833333Y-89107200D01*
X80833333Y-89107200D02*
X80976190Y-89154819D01*
X80976190Y-89154819D02*
X81214285Y-89154819D01*
X79690476Y-89154819D02*
X80261904Y-89154819D01*
X79976190Y-89154819D02*
X79976190Y-88154819D01*
X79976190Y-88154819D02*
X80071428Y-88297676D01*
X80071428Y-88297676D02*
X80166666Y-88392914D01*
X80166666Y-88392914D02*
X80261904Y-88440533D01*
X79071428Y-88154819D02*
X78976190Y-88154819D01*
X78976190Y-88154819D02*
X78880952Y-88202438D01*
X78880952Y-88202438D02*
X78833333Y-88250057D01*
X78833333Y-88250057D02*
X78785714Y-88345295D01*
X78785714Y-88345295D02*
X78738095Y-88535771D01*
X78738095Y-88535771D02*
X78738095Y-88773866D01*
X78738095Y-88773866D02*
X78785714Y-88964342D01*
X78785714Y-88964342D02*
X78833333Y-89059580D01*
X78833333Y-89059580D02*
X78880952Y-89107200D01*
X78880952Y-89107200D02*
X78976190Y-89154819D01*
X78976190Y-89154819D02*
X79071428Y-89154819D01*
X79071428Y-89154819D02*
X79166666Y-89107200D01*
X79166666Y-89107200D02*
X79214285Y-89059580D01*
X79214285Y-89059580D02*
X79261904Y-88964342D01*
X79261904Y-88964342D02*
X79309523Y-88773866D01*
X79309523Y-88773866D02*
X79309523Y-88535771D01*
X79309523Y-88535771D02*
X79261904Y-88345295D01*
X79261904Y-88345295D02*
X79214285Y-88250057D01*
X79214285Y-88250057D02*
X79166666Y-88202438D01*
X79166666Y-88202438D02*
X79071428Y-88154819D01*
X81214285Y-70154819D02*
X81214285Y-69154819D01*
X81214285Y-69154819D02*
X80976190Y-69154819D01*
X80976190Y-69154819D02*
X80833333Y-69202438D01*
X80833333Y-69202438D02*
X80738095Y-69297676D01*
X80738095Y-69297676D02*
X80690476Y-69392914D01*
X80690476Y-69392914D02*
X80642857Y-69583390D01*
X80642857Y-69583390D02*
X80642857Y-69726247D01*
X80642857Y-69726247D02*
X80690476Y-69916723D01*
X80690476Y-69916723D02*
X80738095Y-70011961D01*
X80738095Y-70011961D02*
X80833333Y-70107200D01*
X80833333Y-70107200D02*
X80976190Y-70154819D01*
X80976190Y-70154819D02*
X81214285Y-70154819D01*
X79690476Y-70154819D02*
X80261904Y-70154819D01*
X79976190Y-70154819D02*
X79976190Y-69154819D01*
X79976190Y-69154819D02*
X80071428Y-69297676D01*
X80071428Y-69297676D02*
X80166666Y-69392914D01*
X80166666Y-69392914D02*
X80261904Y-69440533D01*
X78738095Y-70154819D02*
X79309523Y-70154819D01*
X79023809Y-70154819D02*
X79023809Y-69154819D01*
X79023809Y-69154819D02*
X79119047Y-69297676D01*
X79119047Y-69297676D02*
X79214285Y-69392914D01*
X79214285Y-69392914D02*
X79309523Y-69440533D01*
X81214285Y-51154819D02*
X81214285Y-50154819D01*
X81214285Y-50154819D02*
X80976190Y-50154819D01*
X80976190Y-50154819D02*
X80833333Y-50202438D01*
X80833333Y-50202438D02*
X80738095Y-50297676D01*
X80738095Y-50297676D02*
X80690476Y-50392914D01*
X80690476Y-50392914D02*
X80642857Y-50583390D01*
X80642857Y-50583390D02*
X80642857Y-50726247D01*
X80642857Y-50726247D02*
X80690476Y-50916723D01*
X80690476Y-50916723D02*
X80738095Y-51011961D01*
X80738095Y-51011961D02*
X80833333Y-51107200D01*
X80833333Y-51107200D02*
X80976190Y-51154819D01*
X80976190Y-51154819D02*
X81214285Y-51154819D01*
X79690476Y-51154819D02*
X80261904Y-51154819D01*
X79976190Y-51154819D02*
X79976190Y-50154819D01*
X79976190Y-50154819D02*
X80071428Y-50297676D01*
X80071428Y-50297676D02*
X80166666Y-50392914D01*
X80166666Y-50392914D02*
X80261904Y-50440533D01*
X79309523Y-50250057D02*
X79261904Y-50202438D01*
X79261904Y-50202438D02*
X79166666Y-50154819D01*
X79166666Y-50154819D02*
X78928571Y-50154819D01*
X78928571Y-50154819D02*
X78833333Y-50202438D01*
X78833333Y-50202438D02*
X78785714Y-50250057D01*
X78785714Y-50250057D02*
X78738095Y-50345295D01*
X78738095Y-50345295D02*
X78738095Y-50440533D01*
X78738095Y-50440533D02*
X78785714Y-50583390D01*
X78785714Y-50583390D02*
X79357142Y-51154819D01*
X79357142Y-51154819D02*
X78738095Y-51154819D01*
X101214285Y-104154819D02*
X101214285Y-103154819D01*
X101214285Y-103154819D02*
X100976190Y-103154819D01*
X100976190Y-103154819D02*
X100833333Y-103202438D01*
X100833333Y-103202438D02*
X100738095Y-103297676D01*
X100738095Y-103297676D02*
X100690476Y-103392914D01*
X100690476Y-103392914D02*
X100642857Y-103583390D01*
X100642857Y-103583390D02*
X100642857Y-103726247D01*
X100642857Y-103726247D02*
X100690476Y-103916723D01*
X100690476Y-103916723D02*
X100738095Y-104011961D01*
X100738095Y-104011961D02*
X100833333Y-104107200D01*
X100833333Y-104107200D02*
X100976190Y-104154819D01*
X100976190Y-104154819D02*
X101214285Y-104154819D01*
X99690476Y-104154819D02*
X100261904Y-104154819D01*
X99976190Y-104154819D02*
X99976190Y-103154819D01*
X99976190Y-103154819D02*
X100071428Y-103297676D01*
X100071428Y-103297676D02*
X100166666Y-103392914D01*
X100166666Y-103392914D02*
X100261904Y-103440533D01*
X99357142Y-103154819D02*
X98738095Y-103154819D01*
X98738095Y-103154819D02*
X99071428Y-103535771D01*
X99071428Y-103535771D02*
X98928571Y-103535771D01*
X98928571Y-103535771D02*
X98833333Y-103583390D01*
X98833333Y-103583390D02*
X98785714Y-103631009D01*
X98785714Y-103631009D02*
X98738095Y-103726247D01*
X98738095Y-103726247D02*
X98738095Y-103964342D01*
X98738095Y-103964342D02*
X98785714Y-104059580D01*
X98785714Y-104059580D02*
X98833333Y-104107200D01*
X98833333Y-104107200D02*
X98928571Y-104154819D01*
X98928571Y-104154819D02*
X99214285Y-104154819D01*
X99214285Y-104154819D02*
X99309523Y-104107200D01*
X99309523Y-104107200D02*
X99357142Y-104059580D01*
X101214285Y-85154819D02*
X101214285Y-84154819D01*
X101214285Y-84154819D02*
X100976190Y-84154819D01*
X100976190Y-84154819D02*
X100833333Y-84202438D01*
X100833333Y-84202438D02*
X100738095Y-84297676D01*
X100738095Y-84297676D02*
X100690476Y-84392914D01*
X100690476Y-84392914D02*
X100642857Y-84583390D01*
X100642857Y-84583390D02*
X100642857Y-84726247D01*
X100642857Y-84726247D02*
X100690476Y-84916723D01*
X100690476Y-84916723D02*
X100738095Y-85011961D01*
X100738095Y-85011961D02*
X100833333Y-85107200D01*
X100833333Y-85107200D02*
X100976190Y-85154819D01*
X100976190Y-85154819D02*
X101214285Y-85154819D01*
X99690476Y-85154819D02*
X100261904Y-85154819D01*
X99976190Y-85154819D02*
X99976190Y-84154819D01*
X99976190Y-84154819D02*
X100071428Y-84297676D01*
X100071428Y-84297676D02*
X100166666Y-84392914D01*
X100166666Y-84392914D02*
X100261904Y-84440533D01*
X98833333Y-84488152D02*
X98833333Y-85154819D01*
X99071428Y-84107200D02*
X99309523Y-84821485D01*
X99309523Y-84821485D02*
X98690476Y-84821485D01*
X101214285Y-66154819D02*
X101214285Y-65154819D01*
X101214285Y-65154819D02*
X100976190Y-65154819D01*
X100976190Y-65154819D02*
X100833333Y-65202438D01*
X100833333Y-65202438D02*
X100738095Y-65297676D01*
X100738095Y-65297676D02*
X100690476Y-65392914D01*
X100690476Y-65392914D02*
X100642857Y-65583390D01*
X100642857Y-65583390D02*
X100642857Y-65726247D01*
X100642857Y-65726247D02*
X100690476Y-65916723D01*
X100690476Y-65916723D02*
X100738095Y-66011961D01*
X100738095Y-66011961D02*
X100833333Y-66107200D01*
X100833333Y-66107200D02*
X100976190Y-66154819D01*
X100976190Y-66154819D02*
X101214285Y-66154819D01*
X99690476Y-66154819D02*
X100261904Y-66154819D01*
X99976190Y-66154819D02*
X99976190Y-65154819D01*
X99976190Y-65154819D02*
X100071428Y-65297676D01*
X100071428Y-65297676D02*
X100166666Y-65392914D01*
X100166666Y-65392914D02*
X100261904Y-65440533D01*
X98785714Y-65154819D02*
X99261904Y-65154819D01*
X99261904Y-65154819D02*
X99309523Y-65631009D01*
X99309523Y-65631009D02*
X99261904Y-65583390D01*
X99261904Y-65583390D02*
X99166666Y-65535771D01*
X99166666Y-65535771D02*
X98928571Y-65535771D01*
X98928571Y-65535771D02*
X98833333Y-65583390D01*
X98833333Y-65583390D02*
X98785714Y-65631009D01*
X98785714Y-65631009D02*
X98738095Y-65726247D01*
X98738095Y-65726247D02*
X98738095Y-65964342D01*
X98738095Y-65964342D02*
X98785714Y-66059580D01*
X98785714Y-66059580D02*
X98833333Y-66107200D01*
X98833333Y-66107200D02*
X98928571Y-66154819D01*
X98928571Y-66154819D02*
X99166666Y-66154819D01*
X99166666Y-66154819D02*
X99261904Y-66107200D01*
X99261904Y-66107200D02*
X99309523Y-66059580D01*
X101214285Y-47154819D02*
X101214285Y-46154819D01*
X101214285Y-46154819D02*
X100976190Y-46154819D01*
X100976190Y-46154819D02*
X100833333Y-46202438D01*
X100833333Y-46202438D02*
X100738095Y-46297676D01*
X100738095Y-46297676D02*
X100690476Y-46392914D01*
X100690476Y-46392914D02*
X100642857Y-46583390D01*
X100642857Y-46583390D02*
X100642857Y-46726247D01*
X100642857Y-46726247D02*
X100690476Y-46916723D01*
X100690476Y-46916723D02*
X100738095Y-47011961D01*
X100738095Y-47011961D02*
X100833333Y-47107200D01*
X100833333Y-47107200D02*
X100976190Y-47154819D01*
X100976190Y-47154819D02*
X101214285Y-47154819D01*
X99690476Y-47154819D02*
X100261904Y-47154819D01*
X99976190Y-47154819D02*
X99976190Y-46154819D01*
X99976190Y-46154819D02*
X100071428Y-46297676D01*
X100071428Y-46297676D02*
X100166666Y-46392914D01*
X100166666Y-46392914D02*
X100261904Y-46440533D01*
X98833333Y-46154819D02*
X99023809Y-46154819D01*
X99023809Y-46154819D02*
X99119047Y-46202438D01*
X99119047Y-46202438D02*
X99166666Y-46250057D01*
X99166666Y-46250057D02*
X99261904Y-46392914D01*
X99261904Y-46392914D02*
X99309523Y-46583390D01*
X99309523Y-46583390D02*
X99309523Y-46964342D01*
X99309523Y-46964342D02*
X99261904Y-47059580D01*
X99261904Y-47059580D02*
X99214285Y-47107200D01*
X99214285Y-47107200D02*
X99119047Y-47154819D01*
X99119047Y-47154819D02*
X98928571Y-47154819D01*
X98928571Y-47154819D02*
X98833333Y-47107200D01*
X98833333Y-47107200D02*
X98785714Y-47059580D01*
X98785714Y-47059580D02*
X98738095Y-46964342D01*
X98738095Y-46964342D02*
X98738095Y-46726247D01*
X98738095Y-46726247D02*
X98785714Y-46631009D01*
X98785714Y-46631009D02*
X98833333Y-46583390D01*
X98833333Y-46583390D02*
X98928571Y-46535771D01*
X98928571Y-46535771D02*
X99119047Y-46535771D01*
X99119047Y-46535771D02*
X99214285Y-46583390D01*
X99214285Y-46583390D02*
X99261904Y-46631009D01*
X99261904Y-46631009D02*
X99309523Y-46726247D01*
X121214285Y-108154819D02*
X121214285Y-107154819D01*
X121214285Y-107154819D02*
X120976190Y-107154819D01*
X120976190Y-107154819D02*
X120833333Y-107202438D01*
X120833333Y-107202438D02*
X120738095Y-107297676D01*
X120738095Y-107297676D02*
X120690476Y-107392914D01*
X120690476Y-107392914D02*
X120642857Y-107583390D01*
X120642857Y-107583390D02*
X120642857Y-107726247D01*
X120642857Y-107726247D02*
X120690476Y-107916723D01*
X120690476Y-107916723D02*
X120738095Y-108011961D01*
X120738095Y-108011961D02*
X120833333Y-108107200D01*
X120833333Y-108107200D02*
X120976190Y-108154819D01*
X120976190Y-108154819D02*
X121214285Y-108154819D01*
X119690476Y-108154819D02*
X120261904Y-108154819D01*
X119976190Y-108154819D02*
X119976190Y-107154819D01*
X119976190Y-107154819D02*
X120071428Y-107297676D01*
X120071428Y-107297676D02*
X120166666Y-107392914D01*
X120166666Y-107392914D02*
X120261904Y-107440533D01*
X119357142Y-107154819D02*
X118690476Y-107154819D01*
X118690476Y-107154819D02*
X119119047Y-108154819D01*
X121214285Y-89154819D02*
X121214285Y-88154819D01*
X121214285Y-88154819D02*
X120976190Y-88154819D01*
X120976190Y-88154819D02*
X120833333Y-88202438D01*
X120833333Y-88202438D02*
X120738095Y-88297676D01*
X120738095Y-88297676D02*
X120690476Y-88392914D01*
X120690476Y-88392914D02*
X120642857Y-88583390D01*
X120642857Y-88583390D02*
X120642857Y-88726247D01*
X120642857Y-88726247D02*
X120690476Y-88916723D01*
X120690476Y-88916723D02*
X120738095Y-89011961D01*
X120738095Y-89011961D02*
X120833333Y-89107200D01*
X120833333Y-89107200D02*
X120976190Y-89154819D01*
X120976190Y-89154819D02*
X121214285Y-89154819D01*
X119690476Y-89154819D02*
X120261904Y-89154819D01*
X119976190Y-89154819D02*
X119976190Y-88154819D01*
X119976190Y-88154819D02*
X120071428Y-88297676D01*
X120071428Y-88297676D02*
X120166666Y-88392914D01*
X120166666Y-88392914D02*
X120261904Y-88440533D01*
X119119047Y-88583390D02*
X119214285Y-88535771D01*
X119214285Y-88535771D02*
X119261904Y-88488152D01*
X119261904Y-88488152D02*
X119309523Y-88392914D01*
X119309523Y-88392914D02*
X119309523Y-88345295D01*
X119309523Y-88345295D02*
X119261904Y-88250057D01*
X119261904Y-88250057D02*
X119214285Y-88202438D01*
X119214285Y-88202438D02*
X119119047Y-88154819D01*
X119119047Y-88154819D02*
X118928571Y-88154819D01*
X118928571Y-88154819D02*
X118833333Y-88202438D01*
X118833333Y-88202438D02*
X118785714Y-88250057D01*
X118785714Y-88250057D02*
X118738095Y-88345295D01*
X118738095Y-88345295D02*
X118738095Y-88392914D01*
X118738095Y-88392914D02*
X118785714Y-88488152D01*
X118785714Y-88488152D02*
X118833333Y-88535771D01*
X118833333Y-88535771D02*
X118928571Y-88583390D01*
X118928571Y-88583390D02*
X119119047Y-88583390D01*
X119119047Y-88583390D02*
X119214285Y-88631009D01*
X119214285Y-88631009D02*
X119261904Y-88678628D01*
X119261904Y-88678628D02*
X119309523Y-88773866D01*
X119309523Y-88773866D02*
X119309523Y-88964342D01*
X119309523Y-88964342D02*
X119261904Y-89059580D01*
X119261904Y-89059580D02*
X119214285Y-89107200D01*
X119214285Y-89107200D02*
X119119047Y-89154819D01*
X119119047Y-89154819D02*
X118928571Y-89154819D01*
X118928571Y-89154819D02*
X118833333Y-89107200D01*
X118833333Y-89107200D02*
X118785714Y-89059580D01*
X118785714Y-89059580D02*
X118738095Y-88964342D01*
X118738095Y-88964342D02*
X118738095Y-88773866D01*
X118738095Y-88773866D02*
X118785714Y-88678628D01*
X118785714Y-88678628D02*
X118833333Y-88631009D01*
X118833333Y-88631009D02*
X118928571Y-88583390D01*
X121214285Y-70154819D02*
X121214285Y-69154819D01*
X121214285Y-69154819D02*
X120976190Y-69154819D01*
X120976190Y-69154819D02*
X120833333Y-69202438D01*
X120833333Y-69202438D02*
X120738095Y-69297676D01*
X120738095Y-69297676D02*
X120690476Y-69392914D01*
X120690476Y-69392914D02*
X120642857Y-69583390D01*
X120642857Y-69583390D02*
X120642857Y-69726247D01*
X120642857Y-69726247D02*
X120690476Y-69916723D01*
X120690476Y-69916723D02*
X120738095Y-70011961D01*
X120738095Y-70011961D02*
X120833333Y-70107200D01*
X120833333Y-70107200D02*
X120976190Y-70154819D01*
X120976190Y-70154819D02*
X121214285Y-70154819D01*
X119690476Y-70154819D02*
X120261904Y-70154819D01*
X119976190Y-70154819D02*
X119976190Y-69154819D01*
X119976190Y-69154819D02*
X120071428Y-69297676D01*
X120071428Y-69297676D02*
X120166666Y-69392914D01*
X120166666Y-69392914D02*
X120261904Y-69440533D01*
X119214285Y-70154819D02*
X119023809Y-70154819D01*
X119023809Y-70154819D02*
X118928571Y-70107200D01*
X118928571Y-70107200D02*
X118880952Y-70059580D01*
X118880952Y-70059580D02*
X118785714Y-69916723D01*
X118785714Y-69916723D02*
X118738095Y-69726247D01*
X118738095Y-69726247D02*
X118738095Y-69345295D01*
X118738095Y-69345295D02*
X118785714Y-69250057D01*
X118785714Y-69250057D02*
X118833333Y-69202438D01*
X118833333Y-69202438D02*
X118928571Y-69154819D01*
X118928571Y-69154819D02*
X119119047Y-69154819D01*
X119119047Y-69154819D02*
X119214285Y-69202438D01*
X119214285Y-69202438D02*
X119261904Y-69250057D01*
X119261904Y-69250057D02*
X119309523Y-69345295D01*
X119309523Y-69345295D02*
X119309523Y-69583390D01*
X119309523Y-69583390D02*
X119261904Y-69678628D01*
X119261904Y-69678628D02*
X119214285Y-69726247D01*
X119214285Y-69726247D02*
X119119047Y-69773866D01*
X119119047Y-69773866D02*
X118928571Y-69773866D01*
X118928571Y-69773866D02*
X118833333Y-69726247D01*
X118833333Y-69726247D02*
X118785714Y-69678628D01*
X118785714Y-69678628D02*
X118738095Y-69583390D01*
X121214285Y-51154819D02*
X121214285Y-50154819D01*
X121214285Y-50154819D02*
X120976190Y-50154819D01*
X120976190Y-50154819D02*
X120833333Y-50202438D01*
X120833333Y-50202438D02*
X120738095Y-50297676D01*
X120738095Y-50297676D02*
X120690476Y-50392914D01*
X120690476Y-50392914D02*
X120642857Y-50583390D01*
X120642857Y-50583390D02*
X120642857Y-50726247D01*
X120642857Y-50726247D02*
X120690476Y-50916723D01*
X120690476Y-50916723D02*
X120738095Y-51011961D01*
X120738095Y-51011961D02*
X120833333Y-51107200D01*
X120833333Y-51107200D02*
X120976190Y-51154819D01*
X120976190Y-51154819D02*
X121214285Y-51154819D01*
X120261904Y-50250057D02*
X120214285Y-50202438D01*
X120214285Y-50202438D02*
X120119047Y-50154819D01*
X120119047Y-50154819D02*
X119880952Y-50154819D01*
X119880952Y-50154819D02*
X119785714Y-50202438D01*
X119785714Y-50202438D02*
X119738095Y-50250057D01*
X119738095Y-50250057D02*
X119690476Y-50345295D01*
X119690476Y-50345295D02*
X119690476Y-50440533D01*
X119690476Y-50440533D02*
X119738095Y-50583390D01*
X119738095Y-50583390D02*
X120309523Y-51154819D01*
X120309523Y-51154819D02*
X119690476Y-51154819D01*
X119071428Y-50154819D02*
X118976190Y-50154819D01*
X118976190Y-50154819D02*
X118880952Y-50202438D01*
X118880952Y-50202438D02*
X118833333Y-50250057D01*
X118833333Y-50250057D02*
X118785714Y-50345295D01*
X118785714Y-50345295D02*
X118738095Y-50535771D01*
X118738095Y-50535771D02*
X118738095Y-50773866D01*
X118738095Y-50773866D02*
X118785714Y-50964342D01*
X118785714Y-50964342D02*
X118833333Y-51059580D01*
X118833333Y-51059580D02*
X118880952Y-51107200D01*
X118880952Y-51107200D02*
X118976190Y-51154819D01*
X118976190Y-51154819D02*
X119071428Y-51154819D01*
X119071428Y-51154819D02*
X119166666Y-51107200D01*
X119166666Y-51107200D02*
X119214285Y-51059580D01*
X119214285Y-51059580D02*
X119261904Y-50964342D01*
X119261904Y-50964342D02*
X119309523Y-50773866D01*
X119309523Y-50773866D02*
X119309523Y-50535771D01*
X119309523Y-50535771D02*
X119261904Y-50345295D01*
X119261904Y-50345295D02*
X119214285Y-50250057D01*
X119214285Y-50250057D02*
X119166666Y-50202438D01*
X119166666Y-50202438D02*
X119071428Y-50154819D01*
X141214285Y-114154819D02*
X141214285Y-113154819D01*
X141214285Y-113154819D02*
X140976190Y-113154819D01*
X140976190Y-113154819D02*
X140833333Y-113202438D01*
X140833333Y-113202438D02*
X140738095Y-113297676D01*
X140738095Y-113297676D02*
X140690476Y-113392914D01*
X140690476Y-113392914D02*
X140642857Y-113583390D01*
X140642857Y-113583390D02*
X140642857Y-113726247D01*
X140642857Y-113726247D02*
X140690476Y-113916723D01*
X140690476Y-113916723D02*
X140738095Y-114011961D01*
X140738095Y-114011961D02*
X140833333Y-114107200D01*
X140833333Y-114107200D02*
X140976190Y-114154819D01*
X140976190Y-114154819D02*
X141214285Y-114154819D01*
X140261904Y-113250057D02*
X140214285Y-113202438D01*
X140214285Y-113202438D02*
X140119047Y-113154819D01*
X140119047Y-113154819D02*
X139880952Y-113154819D01*
X139880952Y-113154819D02*
X139785714Y-113202438D01*
X139785714Y-113202438D02*
X139738095Y-113250057D01*
X139738095Y-113250057D02*
X139690476Y-113345295D01*
X139690476Y-113345295D02*
X139690476Y-113440533D01*
X139690476Y-113440533D02*
X139738095Y-113583390D01*
X139738095Y-113583390D02*
X140309523Y-114154819D01*
X140309523Y-114154819D02*
X139690476Y-114154819D01*
X138738095Y-114154819D02*
X139309523Y-114154819D01*
X139023809Y-114154819D02*
X139023809Y-113154819D01*
X139023809Y-113154819D02*
X139119047Y-113297676D01*
X139119047Y-113297676D02*
X139214285Y-113392914D01*
X139214285Y-113392914D02*
X139309523Y-113440533D01*
X141214285Y-95154819D02*
X141214285Y-94154819D01*
X141214285Y-94154819D02*
X140976190Y-94154819D01*
X140976190Y-94154819D02*
X140833333Y-94202438D01*
X140833333Y-94202438D02*
X140738095Y-94297676D01*
X140738095Y-94297676D02*
X140690476Y-94392914D01*
X140690476Y-94392914D02*
X140642857Y-94583390D01*
X140642857Y-94583390D02*
X140642857Y-94726247D01*
X140642857Y-94726247D02*
X140690476Y-94916723D01*
X140690476Y-94916723D02*
X140738095Y-95011961D01*
X140738095Y-95011961D02*
X140833333Y-95107200D01*
X140833333Y-95107200D02*
X140976190Y-95154819D01*
X140976190Y-95154819D02*
X141214285Y-95154819D01*
X140261904Y-94250057D02*
X140214285Y-94202438D01*
X140214285Y-94202438D02*
X140119047Y-94154819D01*
X140119047Y-94154819D02*
X139880952Y-94154819D01*
X139880952Y-94154819D02*
X139785714Y-94202438D01*
X139785714Y-94202438D02*
X139738095Y-94250057D01*
X139738095Y-94250057D02*
X139690476Y-94345295D01*
X139690476Y-94345295D02*
X139690476Y-94440533D01*
X139690476Y-94440533D02*
X139738095Y-94583390D01*
X139738095Y-94583390D02*
X140309523Y-95154819D01*
X140309523Y-95154819D02*
X139690476Y-95154819D01*
X139309523Y-94250057D02*
X139261904Y-94202438D01*
X139261904Y-94202438D02*
X139166666Y-94154819D01*
X139166666Y-94154819D02*
X138928571Y-94154819D01*
X138928571Y-94154819D02*
X138833333Y-94202438D01*
X138833333Y-94202438D02*
X138785714Y-94250057D01*
X138785714Y-94250057D02*
X138738095Y-94345295D01*
X138738095Y-94345295D02*
X138738095Y-94440533D01*
X138738095Y-94440533D02*
X138785714Y-94583390D01*
X138785714Y-94583390D02*
X139357142Y-95154819D01*
X139357142Y-95154819D02*
X138738095Y-95154819D01*
X141214285Y-76154819D02*
X141214285Y-75154819D01*
X141214285Y-75154819D02*
X140976190Y-75154819D01*
X140976190Y-75154819D02*
X140833333Y-75202438D01*
X140833333Y-75202438D02*
X140738095Y-75297676D01*
X140738095Y-75297676D02*
X140690476Y-75392914D01*
X140690476Y-75392914D02*
X140642857Y-75583390D01*
X140642857Y-75583390D02*
X140642857Y-75726247D01*
X140642857Y-75726247D02*
X140690476Y-75916723D01*
X140690476Y-75916723D02*
X140738095Y-76011961D01*
X140738095Y-76011961D02*
X140833333Y-76107200D01*
X140833333Y-76107200D02*
X140976190Y-76154819D01*
X140976190Y-76154819D02*
X141214285Y-76154819D01*
X140261904Y-75250057D02*
X140214285Y-75202438D01*
X140214285Y-75202438D02*
X140119047Y-75154819D01*
X140119047Y-75154819D02*
X139880952Y-75154819D01*
X139880952Y-75154819D02*
X139785714Y-75202438D01*
X139785714Y-75202438D02*
X139738095Y-75250057D01*
X139738095Y-75250057D02*
X139690476Y-75345295D01*
X139690476Y-75345295D02*
X139690476Y-75440533D01*
X139690476Y-75440533D02*
X139738095Y-75583390D01*
X139738095Y-75583390D02*
X140309523Y-76154819D01*
X140309523Y-76154819D02*
X139690476Y-76154819D01*
X139357142Y-75154819D02*
X138738095Y-75154819D01*
X138738095Y-75154819D02*
X139071428Y-75535771D01*
X139071428Y-75535771D02*
X138928571Y-75535771D01*
X138928571Y-75535771D02*
X138833333Y-75583390D01*
X138833333Y-75583390D02*
X138785714Y-75631009D01*
X138785714Y-75631009D02*
X138738095Y-75726247D01*
X138738095Y-75726247D02*
X138738095Y-75964342D01*
X138738095Y-75964342D02*
X138785714Y-76059580D01*
X138785714Y-76059580D02*
X138833333Y-76107200D01*
X138833333Y-76107200D02*
X138928571Y-76154819D01*
X138928571Y-76154819D02*
X139214285Y-76154819D01*
X139214285Y-76154819D02*
X139309523Y-76107200D01*
X139309523Y-76107200D02*
X139357142Y-76059580D01*
X141214285Y-57154819D02*
X141214285Y-56154819D01*
X141214285Y-56154819D02*
X140976190Y-56154819D01*
X140976190Y-56154819D02*
X140833333Y-56202438D01*
X140833333Y-56202438D02*
X140738095Y-56297676D01*
X140738095Y-56297676D02*
X140690476Y-56392914D01*
X140690476Y-56392914D02*
X140642857Y-56583390D01*
X140642857Y-56583390D02*
X140642857Y-56726247D01*
X140642857Y-56726247D02*
X140690476Y-56916723D01*
X140690476Y-56916723D02*
X140738095Y-57011961D01*
X140738095Y-57011961D02*
X140833333Y-57107200D01*
X140833333Y-57107200D02*
X140976190Y-57154819D01*
X140976190Y-57154819D02*
X141214285Y-57154819D01*
X140261904Y-56250057D02*
X140214285Y-56202438D01*
X140214285Y-56202438D02*
X140119047Y-56154819D01*
X140119047Y-56154819D02*
X139880952Y-56154819D01*
X139880952Y-56154819D02*
X139785714Y-56202438D01*
X139785714Y-56202438D02*
X139738095Y-56250057D01*
X139738095Y-56250057D02*
X139690476Y-56345295D01*
X139690476Y-56345295D02*
X139690476Y-56440533D01*
X139690476Y-56440533D02*
X139738095Y-56583390D01*
X139738095Y-56583390D02*
X140309523Y-57154819D01*
X140309523Y-57154819D02*
X139690476Y-57154819D01*
X138833333Y-56488152D02*
X138833333Y-57154819D01*
X139071428Y-56107200D02*
X139309523Y-56821485D01*
X139309523Y-56821485D02*
X138690476Y-56821485D01*
X81214285Y-130154819D02*
X81214285Y-129154819D01*
X81214285Y-129154819D02*
X80976190Y-129154819D01*
X80976190Y-129154819D02*
X80833333Y-129202438D01*
X80833333Y-129202438D02*
X80738095Y-129297676D01*
X80738095Y-129297676D02*
X80690476Y-129392914D01*
X80690476Y-129392914D02*
X80642857Y-129583390D01*
X80642857Y-129583390D02*
X80642857Y-129726247D01*
X80642857Y-129726247D02*
X80690476Y-129916723D01*
X80690476Y-129916723D02*
X80738095Y-130011961D01*
X80738095Y-130011961D02*
X80833333Y-130107200D01*
X80833333Y-130107200D02*
X80976190Y-130154819D01*
X80976190Y-130154819D02*
X81214285Y-130154819D01*
X80261904Y-129250057D02*
X80214285Y-129202438D01*
X80214285Y-129202438D02*
X80119047Y-129154819D01*
X80119047Y-129154819D02*
X79880952Y-129154819D01*
X79880952Y-129154819D02*
X79785714Y-129202438D01*
X79785714Y-129202438D02*
X79738095Y-129250057D01*
X79738095Y-129250057D02*
X79690476Y-129345295D01*
X79690476Y-129345295D02*
X79690476Y-129440533D01*
X79690476Y-129440533D02*
X79738095Y-129583390D01*
X79738095Y-129583390D02*
X80309523Y-130154819D01*
X80309523Y-130154819D02*
X79690476Y-130154819D01*
X78785714Y-129154819D02*
X79261904Y-129154819D01*
X79261904Y-129154819D02*
X79309523Y-129631009D01*
X79309523Y-129631009D02*
X79261904Y-129583390D01*
X79261904Y-129583390D02*
X79166666Y-129535771D01*
X79166666Y-129535771D02*
X78928571Y-129535771D01*
X78928571Y-129535771D02*
X78833333Y-129583390D01*
X78833333Y-129583390D02*
X78785714Y-129631009D01*
X78785714Y-129631009D02*
X78738095Y-129726247D01*
X78738095Y-129726247D02*
X78738095Y-129964342D01*
X78738095Y-129964342D02*
X78785714Y-130059580D01*
X78785714Y-130059580D02*
X78833333Y-130107200D01*
X78833333Y-130107200D02*
X78928571Y-130154819D01*
X78928571Y-130154819D02*
X79166666Y-130154819D01*
X79166666Y-130154819D02*
X79261904Y-130107200D01*
X79261904Y-130107200D02*
X79309523Y-130059580D01*
X101214285Y-130154819D02*
X101214285Y-129154819D01*
X101214285Y-129154819D02*
X100976190Y-129154819D01*
X100976190Y-129154819D02*
X100833333Y-129202438D01*
X100833333Y-129202438D02*
X100738095Y-129297676D01*
X100738095Y-129297676D02*
X100690476Y-129392914D01*
X100690476Y-129392914D02*
X100642857Y-129583390D01*
X100642857Y-129583390D02*
X100642857Y-129726247D01*
X100642857Y-129726247D02*
X100690476Y-129916723D01*
X100690476Y-129916723D02*
X100738095Y-130011961D01*
X100738095Y-130011961D02*
X100833333Y-130107200D01*
X100833333Y-130107200D02*
X100976190Y-130154819D01*
X100976190Y-130154819D02*
X101214285Y-130154819D01*
X100261904Y-129250057D02*
X100214285Y-129202438D01*
X100214285Y-129202438D02*
X100119047Y-129154819D01*
X100119047Y-129154819D02*
X99880952Y-129154819D01*
X99880952Y-129154819D02*
X99785714Y-129202438D01*
X99785714Y-129202438D02*
X99738095Y-129250057D01*
X99738095Y-129250057D02*
X99690476Y-129345295D01*
X99690476Y-129345295D02*
X99690476Y-129440533D01*
X99690476Y-129440533D02*
X99738095Y-129583390D01*
X99738095Y-129583390D02*
X100309523Y-130154819D01*
X100309523Y-130154819D02*
X99690476Y-130154819D01*
X98833333Y-129154819D02*
X99023809Y-129154819D01*
X99023809Y-129154819D02*
X99119047Y-129202438D01*
X99119047Y-129202438D02*
X99166666Y-129250057D01*
X99166666Y-129250057D02*
X99261904Y-129392914D01*
X99261904Y-129392914D02*
X99309523Y-129583390D01*
X99309523Y-129583390D02*
X99309523Y-129964342D01*
X99309523Y-129964342D02*
X99261904Y-130059580D01*
X99261904Y-130059580D02*
X99214285Y-130107200D01*
X99214285Y-130107200D02*
X99119047Y-130154819D01*
X99119047Y-130154819D02*
X98928571Y-130154819D01*
X98928571Y-130154819D02*
X98833333Y-130107200D01*
X98833333Y-130107200D02*
X98785714Y-130059580D01*
X98785714Y-130059580D02*
X98738095Y-129964342D01*
X98738095Y-129964342D02*
X98738095Y-129726247D01*
X98738095Y-129726247D02*
X98785714Y-129631009D01*
X98785714Y-129631009D02*
X98833333Y-129583390D01*
X98833333Y-129583390D02*
X98928571Y-129535771D01*
X98928571Y-129535771D02*
X99119047Y-129535771D01*
X99119047Y-129535771D02*
X99214285Y-129583390D01*
X99214285Y-129583390D02*
X99261904Y-129631009D01*
X99261904Y-129631009D02*
X99309523Y-129726247D01*
X120324637Y-131222054D02*
X120411793Y-130225859D01*
X120411793Y-130225859D02*
X120174604Y-130205108D01*
X120174604Y-130205108D02*
X120028140Y-130240095D01*
X120028140Y-130240095D02*
X119924964Y-130326670D01*
X119924964Y-130326670D02*
X119869226Y-130417395D01*
X119869226Y-130417395D02*
X119805187Y-130602996D01*
X119805187Y-130602996D02*
X119792736Y-130745310D01*
X119792736Y-130745310D02*
X119823573Y-130939212D01*
X119823573Y-130939212D02*
X119862710Y-131038238D01*
X119862710Y-131038238D02*
X119949285Y-131141414D01*
X119949285Y-131141414D02*
X120087448Y-131201302D01*
X120087448Y-131201302D02*
X120324637Y-131222054D01*
X119454736Y-130237729D02*
X119411448Y-130186141D01*
X119411448Y-130186141D02*
X119320723Y-130130403D01*
X119320723Y-130130403D02*
X119083534Y-130109651D01*
X119083534Y-130109651D02*
X118984508Y-130148789D01*
X118984508Y-130148789D02*
X118932920Y-130192076D01*
X118932920Y-130192076D02*
X118877181Y-130282802D01*
X118877181Y-130282802D02*
X118868881Y-130377677D01*
X118868881Y-130377677D02*
X118903868Y-130524141D01*
X118903868Y-130524141D02*
X119423318Y-131143199D01*
X119423318Y-131143199D02*
X118806626Y-131089245D01*
X118561717Y-130063998D02*
X117897587Y-130005895D01*
X117897587Y-130005895D02*
X118237372Y-131039442D01*
X138508274Y-135444231D02*
X138850294Y-134504538D01*
X138850294Y-134504538D02*
X138626557Y-134423105D01*
X138626557Y-134423105D02*
X138476029Y-134418992D01*
X138476029Y-134418992D02*
X138353961Y-134475913D01*
X138353961Y-134475913D02*
X138276640Y-134549121D01*
X138276640Y-134549121D02*
X138166746Y-134711823D01*
X138166746Y-134711823D02*
X138117886Y-134846065D01*
X138117886Y-134846065D02*
X138097487Y-135041341D01*
X138097487Y-135041341D02*
X138109661Y-135147122D01*
X138109661Y-135147122D02*
X138166582Y-135269190D01*
X138166582Y-135269190D02*
X138284537Y-135362797D01*
X138284537Y-135362797D02*
X138508274Y-135444231D01*
X137922775Y-134268299D02*
X137894314Y-134207265D01*
X137894314Y-134207265D02*
X137821107Y-134129945D01*
X137821107Y-134129945D02*
X137597370Y-134048511D01*
X137597370Y-134048511D02*
X137491589Y-134060685D01*
X137491589Y-134060685D02*
X137430555Y-134089146D01*
X137430555Y-134089146D02*
X137353234Y-134162354D01*
X137353234Y-134162354D02*
X137320661Y-134251848D01*
X137320661Y-134251848D02*
X137316548Y-134402377D01*
X137316548Y-134402377D02*
X137658076Y-135134784D01*
X137658076Y-135134784D02*
X137076361Y-134923057D01*
X136734834Y-134190650D02*
X136840615Y-134178476D01*
X136840615Y-134178476D02*
X136901649Y-134150015D01*
X136901649Y-134150015D02*
X136978970Y-134076808D01*
X136978970Y-134076808D02*
X136995256Y-134032060D01*
X136995256Y-134032060D02*
X136983082Y-133926279D01*
X136983082Y-133926279D02*
X136954622Y-133865245D01*
X136954622Y-133865245D02*
X136881414Y-133787925D01*
X136881414Y-133787925D02*
X136702425Y-133722778D01*
X136702425Y-133722778D02*
X136596644Y-133734952D01*
X136596644Y-133734952D02*
X136535610Y-133763412D01*
X136535610Y-133763412D02*
X136458289Y-133836620D01*
X136458289Y-133836620D02*
X136442002Y-133881367D01*
X136442002Y-133881367D02*
X136454176Y-133987149D01*
X136454176Y-133987149D02*
X136482637Y-134048183D01*
X136482637Y-134048183D02*
X136555845Y-134125503D01*
X136555845Y-134125503D02*
X136734834Y-134190650D01*
X136734834Y-134190650D02*
X136808042Y-134267971D01*
X136808042Y-134267971D02*
X136836502Y-134329004D01*
X136836502Y-134329004D02*
X136848676Y-134434786D01*
X136848676Y-134434786D02*
X136783530Y-134613775D01*
X136783530Y-134613775D02*
X136706209Y-134686983D01*
X136706209Y-134686983D02*
X136645175Y-134715443D01*
X136645175Y-134715443D02*
X136539394Y-134727617D01*
X136539394Y-134727617D02*
X136360405Y-134662470D01*
X136360405Y-134662470D02*
X136287197Y-134585150D01*
X136287197Y-134585150D02*
X136258736Y-134524116D01*
X136258736Y-134524116D02*
X136246562Y-134418335D01*
X136246562Y-134418335D02*
X136311709Y-134239346D01*
X136311709Y-134239346D02*
X136389030Y-134166138D01*
X136389030Y-134166138D02*
X136450064Y-134137677D01*
X136450064Y-134137677D02*
X136555845Y-134125503D01*
X153452099Y-144558992D02*
X154094887Y-143792948D01*
X154094887Y-143792948D02*
X153912495Y-143639903D01*
X153912495Y-143639903D02*
X153772452Y-143584554D01*
X153772452Y-143584554D02*
X153638277Y-143596293D01*
X153638277Y-143596293D02*
X153540581Y-143638641D01*
X153540581Y-143638641D02*
X153381667Y-143753945D01*
X153381667Y-143753945D02*
X153289840Y-143863380D01*
X153289840Y-143863380D02*
X153203883Y-144039902D01*
X153203883Y-144039902D02*
X153179143Y-144143468D01*
X153179143Y-144143468D02*
X153190882Y-144277642D01*
X153190882Y-144277642D02*
X153269708Y-144405947D01*
X153269708Y-144405947D02*
X153452099Y-144558992D01*
X153304103Y-143253725D02*
X153298234Y-143186638D01*
X153298234Y-143186638D02*
X153255886Y-143088942D01*
X153255886Y-143088942D02*
X153073494Y-142935897D01*
X153073494Y-142935897D02*
X152969929Y-142911158D01*
X152969929Y-142911158D02*
X152902842Y-142917027D01*
X152902842Y-142917027D02*
X152805145Y-142959375D01*
X152805145Y-142959375D02*
X152743928Y-143032331D01*
X152743928Y-143032331D02*
X152688579Y-143172375D01*
X152688579Y-143172375D02*
X152759011Y-143977422D01*
X152759011Y-143977422D02*
X152284793Y-143579506D01*
X151920010Y-143273417D02*
X151774097Y-143150981D01*
X151774097Y-143150981D02*
X151731749Y-143053285D01*
X151731749Y-143053285D02*
X151725880Y-142986198D01*
X151725880Y-142986198D02*
X151744750Y-142815545D01*
X151744750Y-142815545D02*
X151830708Y-142639023D01*
X151830708Y-142639023D02*
X152075579Y-142347196D01*
X152075579Y-142347196D02*
X152173275Y-142304848D01*
X152173275Y-142304848D02*
X152240363Y-142298979D01*
X152240363Y-142298979D02*
X152343928Y-142323719D01*
X152343928Y-142323719D02*
X152489841Y-142446154D01*
X152489841Y-142446154D02*
X152532189Y-142543851D01*
X152532189Y-142543851D02*
X152538058Y-142610938D01*
X152538058Y-142610938D02*
X152513319Y-142714503D01*
X152513319Y-142714503D02*
X152360274Y-142896895D01*
X152360274Y-142896895D02*
X152262578Y-142939243D01*
X152262578Y-142939243D02*
X152195491Y-142945112D01*
X152195491Y-142945112D02*
X152091925Y-142920372D01*
X152091925Y-142920372D02*
X151946012Y-142797937D01*
X151946012Y-142797937D02*
X151903664Y-142700240D01*
X151903664Y-142700240D02*
X151897795Y-142633153D01*
X151897795Y-142633153D02*
X151922535Y-142529588D01*
X40166666Y-113354819D02*
X40642856Y-113354819D01*
X40642856Y-113354819D02*
X40642856Y-112354819D01*
X39309523Y-113354819D02*
X39880951Y-113354819D01*
X39595237Y-113354819D02*
X39595237Y-112354819D01*
X39595237Y-112354819D02*
X39690475Y-112497676D01*
X39690475Y-112497676D02*
X39785713Y-112592914D01*
X39785713Y-112592914D02*
X39880951Y-112640533D01*
X40166666Y-94354819D02*
X40642856Y-94354819D01*
X40642856Y-94354819D02*
X40642856Y-93354819D01*
X39880951Y-93450057D02*
X39833332Y-93402438D01*
X39833332Y-93402438D02*
X39738094Y-93354819D01*
X39738094Y-93354819D02*
X39499999Y-93354819D01*
X39499999Y-93354819D02*
X39404761Y-93402438D01*
X39404761Y-93402438D02*
X39357142Y-93450057D01*
X39357142Y-93450057D02*
X39309523Y-93545295D01*
X39309523Y-93545295D02*
X39309523Y-93640533D01*
X39309523Y-93640533D02*
X39357142Y-93783390D01*
X39357142Y-93783390D02*
X39928570Y-94354819D01*
X39928570Y-94354819D02*
X39309523Y-94354819D01*
X40166666Y-75354819D02*
X40642856Y-75354819D01*
X40642856Y-75354819D02*
X40642856Y-74354819D01*
X39928570Y-74354819D02*
X39309523Y-74354819D01*
X39309523Y-74354819D02*
X39642856Y-74735771D01*
X39642856Y-74735771D02*
X39499999Y-74735771D01*
X39499999Y-74735771D02*
X39404761Y-74783390D01*
X39404761Y-74783390D02*
X39357142Y-74831009D01*
X39357142Y-74831009D02*
X39309523Y-74926247D01*
X39309523Y-74926247D02*
X39309523Y-75164342D01*
X39309523Y-75164342D02*
X39357142Y-75259580D01*
X39357142Y-75259580D02*
X39404761Y-75307200D01*
X39404761Y-75307200D02*
X39499999Y-75354819D01*
X39499999Y-75354819D02*
X39785713Y-75354819D01*
X39785713Y-75354819D02*
X39880951Y-75307200D01*
X39880951Y-75307200D02*
X39928570Y-75259580D01*
X40166666Y-56354819D02*
X40642856Y-56354819D01*
X40642856Y-56354819D02*
X40642856Y-55354819D01*
X39404761Y-55688152D02*
X39404761Y-56354819D01*
X39642856Y-55307200D02*
X39880951Y-56021485D01*
X39880951Y-56021485D02*
X39261904Y-56021485D01*
X60166666Y-103354819D02*
X60642856Y-103354819D01*
X60642856Y-103354819D02*
X60642856Y-102354819D01*
X59357142Y-102354819D02*
X59833332Y-102354819D01*
X59833332Y-102354819D02*
X59880951Y-102831009D01*
X59880951Y-102831009D02*
X59833332Y-102783390D01*
X59833332Y-102783390D02*
X59738094Y-102735771D01*
X59738094Y-102735771D02*
X59499999Y-102735771D01*
X59499999Y-102735771D02*
X59404761Y-102783390D01*
X59404761Y-102783390D02*
X59357142Y-102831009D01*
X59357142Y-102831009D02*
X59309523Y-102926247D01*
X59309523Y-102926247D02*
X59309523Y-103164342D01*
X59309523Y-103164342D02*
X59357142Y-103259580D01*
X59357142Y-103259580D02*
X59404761Y-103307200D01*
X59404761Y-103307200D02*
X59499999Y-103354819D01*
X59499999Y-103354819D02*
X59738094Y-103354819D01*
X59738094Y-103354819D02*
X59833332Y-103307200D01*
X59833332Y-103307200D02*
X59880951Y-103259580D01*
X60166666Y-84354819D02*
X60642856Y-84354819D01*
X60642856Y-84354819D02*
X60642856Y-83354819D01*
X59404761Y-83354819D02*
X59595237Y-83354819D01*
X59595237Y-83354819D02*
X59690475Y-83402438D01*
X59690475Y-83402438D02*
X59738094Y-83450057D01*
X59738094Y-83450057D02*
X59833332Y-83592914D01*
X59833332Y-83592914D02*
X59880951Y-83783390D01*
X59880951Y-83783390D02*
X59880951Y-84164342D01*
X59880951Y-84164342D02*
X59833332Y-84259580D01*
X59833332Y-84259580D02*
X59785713Y-84307200D01*
X59785713Y-84307200D02*
X59690475Y-84354819D01*
X59690475Y-84354819D02*
X59499999Y-84354819D01*
X59499999Y-84354819D02*
X59404761Y-84307200D01*
X59404761Y-84307200D02*
X59357142Y-84259580D01*
X59357142Y-84259580D02*
X59309523Y-84164342D01*
X59309523Y-84164342D02*
X59309523Y-83926247D01*
X59309523Y-83926247D02*
X59357142Y-83831009D01*
X59357142Y-83831009D02*
X59404761Y-83783390D01*
X59404761Y-83783390D02*
X59499999Y-83735771D01*
X59499999Y-83735771D02*
X59690475Y-83735771D01*
X59690475Y-83735771D02*
X59785713Y-83783390D01*
X59785713Y-83783390D02*
X59833332Y-83831009D01*
X59833332Y-83831009D02*
X59880951Y-83926247D01*
X60166666Y-65354819D02*
X60642856Y-65354819D01*
X60642856Y-65354819D02*
X60642856Y-64354819D01*
X59928570Y-64354819D02*
X59261904Y-64354819D01*
X59261904Y-64354819D02*
X59690475Y-65354819D01*
X60166666Y-46354819D02*
X60642856Y-46354819D01*
X60642856Y-46354819D02*
X60642856Y-45354819D01*
X59690475Y-45783390D02*
X59785713Y-45735771D01*
X59785713Y-45735771D02*
X59833332Y-45688152D01*
X59833332Y-45688152D02*
X59880951Y-45592914D01*
X59880951Y-45592914D02*
X59880951Y-45545295D01*
X59880951Y-45545295D02*
X59833332Y-45450057D01*
X59833332Y-45450057D02*
X59785713Y-45402438D01*
X59785713Y-45402438D02*
X59690475Y-45354819D01*
X59690475Y-45354819D02*
X59499999Y-45354819D01*
X59499999Y-45354819D02*
X59404761Y-45402438D01*
X59404761Y-45402438D02*
X59357142Y-45450057D01*
X59357142Y-45450057D02*
X59309523Y-45545295D01*
X59309523Y-45545295D02*
X59309523Y-45592914D01*
X59309523Y-45592914D02*
X59357142Y-45688152D01*
X59357142Y-45688152D02*
X59404761Y-45735771D01*
X59404761Y-45735771D02*
X59499999Y-45783390D01*
X59499999Y-45783390D02*
X59690475Y-45783390D01*
X59690475Y-45783390D02*
X59785713Y-45831009D01*
X59785713Y-45831009D02*
X59833332Y-45878628D01*
X59833332Y-45878628D02*
X59880951Y-45973866D01*
X59880951Y-45973866D02*
X59880951Y-46164342D01*
X59880951Y-46164342D02*
X59833332Y-46259580D01*
X59833332Y-46259580D02*
X59785713Y-46307200D01*
X59785713Y-46307200D02*
X59690475Y-46354819D01*
X59690475Y-46354819D02*
X59499999Y-46354819D01*
X59499999Y-46354819D02*
X59404761Y-46307200D01*
X59404761Y-46307200D02*
X59357142Y-46259580D01*
X59357142Y-46259580D02*
X59309523Y-46164342D01*
X59309523Y-46164342D02*
X59309523Y-45973866D01*
X59309523Y-45973866D02*
X59357142Y-45878628D01*
X59357142Y-45878628D02*
X59404761Y-45831009D01*
X59404761Y-45831009D02*
X59499999Y-45783390D01*
X80166666Y-91354819D02*
X80642856Y-91354819D01*
X80642856Y-91354819D02*
X80642856Y-90354819D01*
X79785713Y-91354819D02*
X79595237Y-91354819D01*
X79595237Y-91354819D02*
X79499999Y-91307200D01*
X79499999Y-91307200D02*
X79452380Y-91259580D01*
X79452380Y-91259580D02*
X79357142Y-91116723D01*
X79357142Y-91116723D02*
X79309523Y-90926247D01*
X79309523Y-90926247D02*
X79309523Y-90545295D01*
X79309523Y-90545295D02*
X79357142Y-90450057D01*
X79357142Y-90450057D02*
X79404761Y-90402438D01*
X79404761Y-90402438D02*
X79499999Y-90354819D01*
X79499999Y-90354819D02*
X79690475Y-90354819D01*
X79690475Y-90354819D02*
X79785713Y-90402438D01*
X79785713Y-90402438D02*
X79833332Y-90450057D01*
X79833332Y-90450057D02*
X79880951Y-90545295D01*
X79880951Y-90545295D02*
X79880951Y-90783390D01*
X79880951Y-90783390D02*
X79833332Y-90878628D01*
X79833332Y-90878628D02*
X79785713Y-90926247D01*
X79785713Y-90926247D02*
X79690475Y-90973866D01*
X79690475Y-90973866D02*
X79499999Y-90973866D01*
X79499999Y-90973866D02*
X79404761Y-90926247D01*
X79404761Y-90926247D02*
X79357142Y-90878628D01*
X79357142Y-90878628D02*
X79309523Y-90783390D01*
X80642857Y-72354819D02*
X81119047Y-72354819D01*
X81119047Y-72354819D02*
X81119047Y-71354819D01*
X79785714Y-72354819D02*
X80357142Y-72354819D01*
X80071428Y-72354819D02*
X80071428Y-71354819D01*
X80071428Y-71354819D02*
X80166666Y-71497676D01*
X80166666Y-71497676D02*
X80261904Y-71592914D01*
X80261904Y-71592914D02*
X80357142Y-71640533D01*
X79166666Y-71354819D02*
X79071428Y-71354819D01*
X79071428Y-71354819D02*
X78976190Y-71402438D01*
X78976190Y-71402438D02*
X78928571Y-71450057D01*
X78928571Y-71450057D02*
X78880952Y-71545295D01*
X78880952Y-71545295D02*
X78833333Y-71735771D01*
X78833333Y-71735771D02*
X78833333Y-71973866D01*
X78833333Y-71973866D02*
X78880952Y-72164342D01*
X78880952Y-72164342D02*
X78928571Y-72259580D01*
X78928571Y-72259580D02*
X78976190Y-72307200D01*
X78976190Y-72307200D02*
X79071428Y-72354819D01*
X79071428Y-72354819D02*
X79166666Y-72354819D01*
X79166666Y-72354819D02*
X79261904Y-72307200D01*
X79261904Y-72307200D02*
X79309523Y-72259580D01*
X79309523Y-72259580D02*
X79357142Y-72164342D01*
X79357142Y-72164342D02*
X79404761Y-71973866D01*
X79404761Y-71973866D02*
X79404761Y-71735771D01*
X79404761Y-71735771D02*
X79357142Y-71545295D01*
X79357142Y-71545295D02*
X79309523Y-71450057D01*
X79309523Y-71450057D02*
X79261904Y-71402438D01*
X79261904Y-71402438D02*
X79166666Y-71354819D01*
X80642857Y-53354819D02*
X81119047Y-53354819D01*
X81119047Y-53354819D02*
X81119047Y-52354819D01*
X79785714Y-53354819D02*
X80357142Y-53354819D01*
X80071428Y-53354819D02*
X80071428Y-52354819D01*
X80071428Y-52354819D02*
X80166666Y-52497676D01*
X80166666Y-52497676D02*
X80261904Y-52592914D01*
X80261904Y-52592914D02*
X80357142Y-52640533D01*
X78833333Y-53354819D02*
X79404761Y-53354819D01*
X79119047Y-53354819D02*
X79119047Y-52354819D01*
X79119047Y-52354819D02*
X79214285Y-52497676D01*
X79214285Y-52497676D02*
X79309523Y-52592914D01*
X79309523Y-52592914D02*
X79404761Y-52640533D01*
X80642857Y-34354819D02*
X81119047Y-34354819D01*
X81119047Y-34354819D02*
X81119047Y-33354819D01*
X79785714Y-34354819D02*
X80357142Y-34354819D01*
X80071428Y-34354819D02*
X80071428Y-33354819D01*
X80071428Y-33354819D02*
X80166666Y-33497676D01*
X80166666Y-33497676D02*
X80261904Y-33592914D01*
X80261904Y-33592914D02*
X80357142Y-33640533D01*
X79404761Y-33450057D02*
X79357142Y-33402438D01*
X79357142Y-33402438D02*
X79261904Y-33354819D01*
X79261904Y-33354819D02*
X79023809Y-33354819D01*
X79023809Y-33354819D02*
X78928571Y-33402438D01*
X78928571Y-33402438D02*
X78880952Y-33450057D01*
X78880952Y-33450057D02*
X78833333Y-33545295D01*
X78833333Y-33545295D02*
X78833333Y-33640533D01*
X78833333Y-33640533D02*
X78880952Y-33783390D01*
X78880952Y-33783390D02*
X79452380Y-34354819D01*
X79452380Y-34354819D02*
X78833333Y-34354819D01*
X100642857Y-87354819D02*
X101119047Y-87354819D01*
X101119047Y-87354819D02*
X101119047Y-86354819D01*
X99785714Y-87354819D02*
X100357142Y-87354819D01*
X100071428Y-87354819D02*
X100071428Y-86354819D01*
X100071428Y-86354819D02*
X100166666Y-86497676D01*
X100166666Y-86497676D02*
X100261904Y-86592914D01*
X100261904Y-86592914D02*
X100357142Y-86640533D01*
X99452380Y-86354819D02*
X98833333Y-86354819D01*
X98833333Y-86354819D02*
X99166666Y-86735771D01*
X99166666Y-86735771D02*
X99023809Y-86735771D01*
X99023809Y-86735771D02*
X98928571Y-86783390D01*
X98928571Y-86783390D02*
X98880952Y-86831009D01*
X98880952Y-86831009D02*
X98833333Y-86926247D01*
X98833333Y-86926247D02*
X98833333Y-87164342D01*
X98833333Y-87164342D02*
X98880952Y-87259580D01*
X98880952Y-87259580D02*
X98928571Y-87307200D01*
X98928571Y-87307200D02*
X99023809Y-87354819D01*
X99023809Y-87354819D02*
X99309523Y-87354819D01*
X99309523Y-87354819D02*
X99404761Y-87307200D01*
X99404761Y-87307200D02*
X99452380Y-87259580D01*
X100642857Y-68354819D02*
X101119047Y-68354819D01*
X101119047Y-68354819D02*
X101119047Y-67354819D01*
X99785714Y-68354819D02*
X100357142Y-68354819D01*
X100071428Y-68354819D02*
X100071428Y-67354819D01*
X100071428Y-67354819D02*
X100166666Y-67497676D01*
X100166666Y-67497676D02*
X100261904Y-67592914D01*
X100261904Y-67592914D02*
X100357142Y-67640533D01*
X98928571Y-67688152D02*
X98928571Y-68354819D01*
X99166666Y-67307200D02*
X99404761Y-68021485D01*
X99404761Y-68021485D02*
X98785714Y-68021485D01*
X100642857Y-49354819D02*
X101119047Y-49354819D01*
X101119047Y-49354819D02*
X101119047Y-48354819D01*
X99785714Y-49354819D02*
X100357142Y-49354819D01*
X100071428Y-49354819D02*
X100071428Y-48354819D01*
X100071428Y-48354819D02*
X100166666Y-48497676D01*
X100166666Y-48497676D02*
X100261904Y-48592914D01*
X100261904Y-48592914D02*
X100357142Y-48640533D01*
X98880952Y-48354819D02*
X99357142Y-48354819D01*
X99357142Y-48354819D02*
X99404761Y-48831009D01*
X99404761Y-48831009D02*
X99357142Y-48783390D01*
X99357142Y-48783390D02*
X99261904Y-48735771D01*
X99261904Y-48735771D02*
X99023809Y-48735771D01*
X99023809Y-48735771D02*
X98928571Y-48783390D01*
X98928571Y-48783390D02*
X98880952Y-48831009D01*
X98880952Y-48831009D02*
X98833333Y-48926247D01*
X98833333Y-48926247D02*
X98833333Y-49164342D01*
X98833333Y-49164342D02*
X98880952Y-49259580D01*
X98880952Y-49259580D02*
X98928571Y-49307200D01*
X98928571Y-49307200D02*
X99023809Y-49354819D01*
X99023809Y-49354819D02*
X99261904Y-49354819D01*
X99261904Y-49354819D02*
X99357142Y-49307200D01*
X99357142Y-49307200D02*
X99404761Y-49259580D01*
X100642857Y-30354819D02*
X101119047Y-30354819D01*
X101119047Y-30354819D02*
X101119047Y-29354819D01*
X99785714Y-30354819D02*
X100357142Y-30354819D01*
X100071428Y-30354819D02*
X100071428Y-29354819D01*
X100071428Y-29354819D02*
X100166666Y-29497676D01*
X100166666Y-29497676D02*
X100261904Y-29592914D01*
X100261904Y-29592914D02*
X100357142Y-29640533D01*
X98928571Y-29354819D02*
X99119047Y-29354819D01*
X99119047Y-29354819D02*
X99214285Y-29402438D01*
X99214285Y-29402438D02*
X99261904Y-29450057D01*
X99261904Y-29450057D02*
X99357142Y-29592914D01*
X99357142Y-29592914D02*
X99404761Y-29783390D01*
X99404761Y-29783390D02*
X99404761Y-30164342D01*
X99404761Y-30164342D02*
X99357142Y-30259580D01*
X99357142Y-30259580D02*
X99309523Y-30307200D01*
X99309523Y-30307200D02*
X99214285Y-30354819D01*
X99214285Y-30354819D02*
X99023809Y-30354819D01*
X99023809Y-30354819D02*
X98928571Y-30307200D01*
X98928571Y-30307200D02*
X98880952Y-30259580D01*
X98880952Y-30259580D02*
X98833333Y-30164342D01*
X98833333Y-30164342D02*
X98833333Y-29926247D01*
X98833333Y-29926247D02*
X98880952Y-29831009D01*
X98880952Y-29831009D02*
X98928571Y-29783390D01*
X98928571Y-29783390D02*
X99023809Y-29735771D01*
X99023809Y-29735771D02*
X99214285Y-29735771D01*
X99214285Y-29735771D02*
X99309523Y-29783390D01*
X99309523Y-29783390D02*
X99357142Y-29831009D01*
X99357142Y-29831009D02*
X99404761Y-29926247D01*
X120642857Y-91354819D02*
X121119047Y-91354819D01*
X121119047Y-91354819D02*
X121119047Y-90354819D01*
X119785714Y-91354819D02*
X120357142Y-91354819D01*
X120071428Y-91354819D02*
X120071428Y-90354819D01*
X120071428Y-90354819D02*
X120166666Y-90497676D01*
X120166666Y-90497676D02*
X120261904Y-90592914D01*
X120261904Y-90592914D02*
X120357142Y-90640533D01*
X119452380Y-90354819D02*
X118785714Y-90354819D01*
X118785714Y-90354819D02*
X119214285Y-91354819D01*
X120642857Y-72354819D02*
X121119047Y-72354819D01*
X121119047Y-72354819D02*
X121119047Y-71354819D01*
X119785714Y-72354819D02*
X120357142Y-72354819D01*
X120071428Y-72354819D02*
X120071428Y-71354819D01*
X120071428Y-71354819D02*
X120166666Y-71497676D01*
X120166666Y-71497676D02*
X120261904Y-71592914D01*
X120261904Y-71592914D02*
X120357142Y-71640533D01*
X119214285Y-71783390D02*
X119309523Y-71735771D01*
X119309523Y-71735771D02*
X119357142Y-71688152D01*
X119357142Y-71688152D02*
X119404761Y-71592914D01*
X119404761Y-71592914D02*
X119404761Y-71545295D01*
X119404761Y-71545295D02*
X119357142Y-71450057D01*
X119357142Y-71450057D02*
X119309523Y-71402438D01*
X119309523Y-71402438D02*
X119214285Y-71354819D01*
X119214285Y-71354819D02*
X119023809Y-71354819D01*
X119023809Y-71354819D02*
X118928571Y-71402438D01*
X118928571Y-71402438D02*
X118880952Y-71450057D01*
X118880952Y-71450057D02*
X118833333Y-71545295D01*
X118833333Y-71545295D02*
X118833333Y-71592914D01*
X118833333Y-71592914D02*
X118880952Y-71688152D01*
X118880952Y-71688152D02*
X118928571Y-71735771D01*
X118928571Y-71735771D02*
X119023809Y-71783390D01*
X119023809Y-71783390D02*
X119214285Y-71783390D01*
X119214285Y-71783390D02*
X119309523Y-71831009D01*
X119309523Y-71831009D02*
X119357142Y-71878628D01*
X119357142Y-71878628D02*
X119404761Y-71973866D01*
X119404761Y-71973866D02*
X119404761Y-72164342D01*
X119404761Y-72164342D02*
X119357142Y-72259580D01*
X119357142Y-72259580D02*
X119309523Y-72307200D01*
X119309523Y-72307200D02*
X119214285Y-72354819D01*
X119214285Y-72354819D02*
X119023809Y-72354819D01*
X119023809Y-72354819D02*
X118928571Y-72307200D01*
X118928571Y-72307200D02*
X118880952Y-72259580D01*
X118880952Y-72259580D02*
X118833333Y-72164342D01*
X118833333Y-72164342D02*
X118833333Y-71973866D01*
X118833333Y-71973866D02*
X118880952Y-71878628D01*
X118880952Y-71878628D02*
X118928571Y-71831009D01*
X118928571Y-71831009D02*
X119023809Y-71783390D01*
X120642857Y-53354819D02*
X121119047Y-53354819D01*
X121119047Y-53354819D02*
X121119047Y-52354819D01*
X119785714Y-53354819D02*
X120357142Y-53354819D01*
X120071428Y-53354819D02*
X120071428Y-52354819D01*
X120071428Y-52354819D02*
X120166666Y-52497676D01*
X120166666Y-52497676D02*
X120261904Y-52592914D01*
X120261904Y-52592914D02*
X120357142Y-52640533D01*
X119309523Y-53354819D02*
X119119047Y-53354819D01*
X119119047Y-53354819D02*
X119023809Y-53307200D01*
X119023809Y-53307200D02*
X118976190Y-53259580D01*
X118976190Y-53259580D02*
X118880952Y-53116723D01*
X118880952Y-53116723D02*
X118833333Y-52926247D01*
X118833333Y-52926247D02*
X118833333Y-52545295D01*
X118833333Y-52545295D02*
X118880952Y-52450057D01*
X118880952Y-52450057D02*
X118928571Y-52402438D01*
X118928571Y-52402438D02*
X119023809Y-52354819D01*
X119023809Y-52354819D02*
X119214285Y-52354819D01*
X119214285Y-52354819D02*
X119309523Y-52402438D01*
X119309523Y-52402438D02*
X119357142Y-52450057D01*
X119357142Y-52450057D02*
X119404761Y-52545295D01*
X119404761Y-52545295D02*
X119404761Y-52783390D01*
X119404761Y-52783390D02*
X119357142Y-52878628D01*
X119357142Y-52878628D02*
X119309523Y-52926247D01*
X119309523Y-52926247D02*
X119214285Y-52973866D01*
X119214285Y-52973866D02*
X119023809Y-52973866D01*
X119023809Y-52973866D02*
X118928571Y-52926247D01*
X118928571Y-52926247D02*
X118880952Y-52878628D01*
X118880952Y-52878628D02*
X118833333Y-52783390D01*
X120642857Y-34354819D02*
X121119047Y-34354819D01*
X121119047Y-34354819D02*
X121119047Y-33354819D01*
X120357142Y-33450057D02*
X120309523Y-33402438D01*
X120309523Y-33402438D02*
X120214285Y-33354819D01*
X120214285Y-33354819D02*
X119976190Y-33354819D01*
X119976190Y-33354819D02*
X119880952Y-33402438D01*
X119880952Y-33402438D02*
X119833333Y-33450057D01*
X119833333Y-33450057D02*
X119785714Y-33545295D01*
X119785714Y-33545295D02*
X119785714Y-33640533D01*
X119785714Y-33640533D02*
X119833333Y-33783390D01*
X119833333Y-33783390D02*
X120404761Y-34354819D01*
X120404761Y-34354819D02*
X119785714Y-34354819D01*
X119166666Y-33354819D02*
X119071428Y-33354819D01*
X119071428Y-33354819D02*
X118976190Y-33402438D01*
X118976190Y-33402438D02*
X118928571Y-33450057D01*
X118928571Y-33450057D02*
X118880952Y-33545295D01*
X118880952Y-33545295D02*
X118833333Y-33735771D01*
X118833333Y-33735771D02*
X118833333Y-33973866D01*
X118833333Y-33973866D02*
X118880952Y-34164342D01*
X118880952Y-34164342D02*
X118928571Y-34259580D01*
X118928571Y-34259580D02*
X118976190Y-34307200D01*
X118976190Y-34307200D02*
X119071428Y-34354819D01*
X119071428Y-34354819D02*
X119166666Y-34354819D01*
X119166666Y-34354819D02*
X119261904Y-34307200D01*
X119261904Y-34307200D02*
X119309523Y-34259580D01*
X119309523Y-34259580D02*
X119357142Y-34164342D01*
X119357142Y-34164342D02*
X119404761Y-33973866D01*
X119404761Y-33973866D02*
X119404761Y-33735771D01*
X119404761Y-33735771D02*
X119357142Y-33545295D01*
X119357142Y-33545295D02*
X119309523Y-33450057D01*
X119309523Y-33450057D02*
X119261904Y-33402438D01*
X119261904Y-33402438D02*
X119166666Y-33354819D01*
X140642857Y-97354819D02*
X141119047Y-97354819D01*
X141119047Y-97354819D02*
X141119047Y-96354819D01*
X140357142Y-96450057D02*
X140309523Y-96402438D01*
X140309523Y-96402438D02*
X140214285Y-96354819D01*
X140214285Y-96354819D02*
X139976190Y-96354819D01*
X139976190Y-96354819D02*
X139880952Y-96402438D01*
X139880952Y-96402438D02*
X139833333Y-96450057D01*
X139833333Y-96450057D02*
X139785714Y-96545295D01*
X139785714Y-96545295D02*
X139785714Y-96640533D01*
X139785714Y-96640533D02*
X139833333Y-96783390D01*
X139833333Y-96783390D02*
X140404761Y-97354819D01*
X140404761Y-97354819D02*
X139785714Y-97354819D01*
X138833333Y-97354819D02*
X139404761Y-97354819D01*
X139119047Y-97354819D02*
X139119047Y-96354819D01*
X139119047Y-96354819D02*
X139214285Y-96497676D01*
X139214285Y-96497676D02*
X139309523Y-96592914D01*
X139309523Y-96592914D02*
X139404761Y-96640533D01*
X140642857Y-78354819D02*
X141119047Y-78354819D01*
X141119047Y-78354819D02*
X141119047Y-77354819D01*
X140357142Y-77450057D02*
X140309523Y-77402438D01*
X140309523Y-77402438D02*
X140214285Y-77354819D01*
X140214285Y-77354819D02*
X139976190Y-77354819D01*
X139976190Y-77354819D02*
X139880952Y-77402438D01*
X139880952Y-77402438D02*
X139833333Y-77450057D01*
X139833333Y-77450057D02*
X139785714Y-77545295D01*
X139785714Y-77545295D02*
X139785714Y-77640533D01*
X139785714Y-77640533D02*
X139833333Y-77783390D01*
X139833333Y-77783390D02*
X140404761Y-78354819D01*
X140404761Y-78354819D02*
X139785714Y-78354819D01*
X139404761Y-77450057D02*
X139357142Y-77402438D01*
X139357142Y-77402438D02*
X139261904Y-77354819D01*
X139261904Y-77354819D02*
X139023809Y-77354819D01*
X139023809Y-77354819D02*
X138928571Y-77402438D01*
X138928571Y-77402438D02*
X138880952Y-77450057D01*
X138880952Y-77450057D02*
X138833333Y-77545295D01*
X138833333Y-77545295D02*
X138833333Y-77640533D01*
X138833333Y-77640533D02*
X138880952Y-77783390D01*
X138880952Y-77783390D02*
X139452380Y-78354819D01*
X139452380Y-78354819D02*
X138833333Y-78354819D01*
X140642857Y-59354819D02*
X141119047Y-59354819D01*
X141119047Y-59354819D02*
X141119047Y-58354819D01*
X140357142Y-58450057D02*
X140309523Y-58402438D01*
X140309523Y-58402438D02*
X140214285Y-58354819D01*
X140214285Y-58354819D02*
X139976190Y-58354819D01*
X139976190Y-58354819D02*
X139880952Y-58402438D01*
X139880952Y-58402438D02*
X139833333Y-58450057D01*
X139833333Y-58450057D02*
X139785714Y-58545295D01*
X139785714Y-58545295D02*
X139785714Y-58640533D01*
X139785714Y-58640533D02*
X139833333Y-58783390D01*
X139833333Y-58783390D02*
X140404761Y-59354819D01*
X140404761Y-59354819D02*
X139785714Y-59354819D01*
X139452380Y-58354819D02*
X138833333Y-58354819D01*
X138833333Y-58354819D02*
X139166666Y-58735771D01*
X139166666Y-58735771D02*
X139023809Y-58735771D01*
X139023809Y-58735771D02*
X138928571Y-58783390D01*
X138928571Y-58783390D02*
X138880952Y-58831009D01*
X138880952Y-58831009D02*
X138833333Y-58926247D01*
X138833333Y-58926247D02*
X138833333Y-59164342D01*
X138833333Y-59164342D02*
X138880952Y-59259580D01*
X138880952Y-59259580D02*
X138928571Y-59307200D01*
X138928571Y-59307200D02*
X139023809Y-59354819D01*
X139023809Y-59354819D02*
X139309523Y-59354819D01*
X139309523Y-59354819D02*
X139404761Y-59307200D01*
X139404761Y-59307200D02*
X139452380Y-59259580D01*
X140642857Y-40354819D02*
X141119047Y-40354819D01*
X141119047Y-40354819D02*
X141119047Y-39354819D01*
X140357142Y-39450057D02*
X140309523Y-39402438D01*
X140309523Y-39402438D02*
X140214285Y-39354819D01*
X140214285Y-39354819D02*
X139976190Y-39354819D01*
X139976190Y-39354819D02*
X139880952Y-39402438D01*
X139880952Y-39402438D02*
X139833333Y-39450057D01*
X139833333Y-39450057D02*
X139785714Y-39545295D01*
X139785714Y-39545295D02*
X139785714Y-39640533D01*
X139785714Y-39640533D02*
X139833333Y-39783390D01*
X139833333Y-39783390D02*
X140404761Y-40354819D01*
X140404761Y-40354819D02*
X139785714Y-40354819D01*
X138928571Y-39688152D02*
X138928571Y-40354819D01*
X139166666Y-39307200D02*
X139404761Y-40021485D01*
X139404761Y-40021485D02*
X138785714Y-40021485D01*
X80642857Y-113354819D02*
X81119047Y-113354819D01*
X81119047Y-113354819D02*
X81119047Y-112354819D01*
X80357142Y-112450057D02*
X80309523Y-112402438D01*
X80309523Y-112402438D02*
X80214285Y-112354819D01*
X80214285Y-112354819D02*
X79976190Y-112354819D01*
X79976190Y-112354819D02*
X79880952Y-112402438D01*
X79880952Y-112402438D02*
X79833333Y-112450057D01*
X79833333Y-112450057D02*
X79785714Y-112545295D01*
X79785714Y-112545295D02*
X79785714Y-112640533D01*
X79785714Y-112640533D02*
X79833333Y-112783390D01*
X79833333Y-112783390D02*
X80404761Y-113354819D01*
X80404761Y-113354819D02*
X79785714Y-113354819D01*
X78880952Y-112354819D02*
X79357142Y-112354819D01*
X79357142Y-112354819D02*
X79404761Y-112831009D01*
X79404761Y-112831009D02*
X79357142Y-112783390D01*
X79357142Y-112783390D02*
X79261904Y-112735771D01*
X79261904Y-112735771D02*
X79023809Y-112735771D01*
X79023809Y-112735771D02*
X78928571Y-112783390D01*
X78928571Y-112783390D02*
X78880952Y-112831009D01*
X78880952Y-112831009D02*
X78833333Y-112926247D01*
X78833333Y-112926247D02*
X78833333Y-113164342D01*
X78833333Y-113164342D02*
X78880952Y-113259580D01*
X78880952Y-113259580D02*
X78928571Y-113307200D01*
X78928571Y-113307200D02*
X79023809Y-113354819D01*
X79023809Y-113354819D02*
X79261904Y-113354819D01*
X79261904Y-113354819D02*
X79357142Y-113307200D01*
X79357142Y-113307200D02*
X79404761Y-113259580D01*
X100642857Y-113354819D02*
X101119047Y-113354819D01*
X101119047Y-113354819D02*
X101119047Y-112354819D01*
X100357142Y-112450057D02*
X100309523Y-112402438D01*
X100309523Y-112402438D02*
X100214285Y-112354819D01*
X100214285Y-112354819D02*
X99976190Y-112354819D01*
X99976190Y-112354819D02*
X99880952Y-112402438D01*
X99880952Y-112402438D02*
X99833333Y-112450057D01*
X99833333Y-112450057D02*
X99785714Y-112545295D01*
X99785714Y-112545295D02*
X99785714Y-112640533D01*
X99785714Y-112640533D02*
X99833333Y-112783390D01*
X99833333Y-112783390D02*
X100404761Y-113354819D01*
X100404761Y-113354819D02*
X99785714Y-113354819D01*
X98928571Y-112354819D02*
X99119047Y-112354819D01*
X99119047Y-112354819D02*
X99214285Y-112402438D01*
X99214285Y-112402438D02*
X99261904Y-112450057D01*
X99261904Y-112450057D02*
X99357142Y-112592914D01*
X99357142Y-112592914D02*
X99404761Y-112783390D01*
X99404761Y-112783390D02*
X99404761Y-113164342D01*
X99404761Y-113164342D02*
X99357142Y-113259580D01*
X99357142Y-113259580D02*
X99309523Y-113307200D01*
X99309523Y-113307200D02*
X99214285Y-113354819D01*
X99214285Y-113354819D02*
X99023809Y-113354819D01*
X99023809Y-113354819D02*
X98928571Y-113307200D01*
X98928571Y-113307200D02*
X98880952Y-113259580D01*
X98880952Y-113259580D02*
X98833333Y-113164342D01*
X98833333Y-113164342D02*
X98833333Y-112926247D01*
X98833333Y-112926247D02*
X98880952Y-112831009D01*
X98880952Y-112831009D02*
X98928571Y-112783390D01*
X98928571Y-112783390D02*
X99023809Y-112735771D01*
X99023809Y-112735771D02*
X99214285Y-112735771D01*
X99214285Y-112735771D02*
X99309523Y-112783390D01*
X99309523Y-112783390D02*
X99357142Y-112831009D01*
X99357142Y-112831009D02*
X99404761Y-112926247D01*
X121219597Y-114436108D02*
X121693976Y-114477610D01*
X121693976Y-114477610D02*
X121781132Y-113481416D01*
X121013825Y-113509887D02*
X120970538Y-113458299D01*
X120970538Y-113458299D02*
X120879812Y-113402560D01*
X120879812Y-113402560D02*
X120642623Y-113381809D01*
X120642623Y-113381809D02*
X120543597Y-113420946D01*
X120543597Y-113420946D02*
X120492009Y-113464234D01*
X120492009Y-113464234D02*
X120436271Y-113554959D01*
X120436271Y-113554959D02*
X120427970Y-113649835D01*
X120427970Y-113649835D02*
X120462957Y-113796299D01*
X120462957Y-113796299D02*
X120982408Y-114415356D01*
X120982408Y-114415356D02*
X120365716Y-114361403D01*
X120120807Y-113336156D02*
X119456677Y-113278052D01*
X119456677Y-113278052D02*
X119796462Y-114311599D01*
X143717272Y-119461905D02*
X144164745Y-119624771D01*
X144164745Y-119624771D02*
X144506765Y-118685079D01*
X143758235Y-118513987D02*
X143729775Y-118452953D01*
X143729775Y-118452953D02*
X143656567Y-118375632D01*
X143656567Y-118375632D02*
X143432831Y-118294199D01*
X143432831Y-118294199D02*
X143327049Y-118306373D01*
X143327049Y-118306373D02*
X143266016Y-118334833D01*
X143266016Y-118334833D02*
X143188695Y-118408041D01*
X143188695Y-118408041D02*
X143156122Y-118497536D01*
X143156122Y-118497536D02*
X143152009Y-118648064D01*
X143152009Y-118648064D02*
X143493536Y-119380471D01*
X143493536Y-119380471D02*
X142911821Y-119168745D01*
X142570294Y-118436337D02*
X142676076Y-118424163D01*
X142676076Y-118424163D02*
X142737109Y-118395703D01*
X142737109Y-118395703D02*
X142814430Y-118322495D01*
X142814430Y-118322495D02*
X142830717Y-118277748D01*
X142830717Y-118277748D02*
X142818543Y-118171966D01*
X142818543Y-118171966D02*
X142790082Y-118110932D01*
X142790082Y-118110932D02*
X142716874Y-118033612D01*
X142716874Y-118033612D02*
X142537885Y-117968465D01*
X142537885Y-117968465D02*
X142432104Y-117980639D01*
X142432104Y-117980639D02*
X142371070Y-118009100D01*
X142371070Y-118009100D02*
X142293750Y-118082308D01*
X142293750Y-118082308D02*
X142277463Y-118127055D01*
X142277463Y-118127055D02*
X142289637Y-118232836D01*
X142289637Y-118232836D02*
X142318097Y-118293870D01*
X142318097Y-118293870D02*
X142391305Y-118371191D01*
X142391305Y-118371191D02*
X142570294Y-118436337D01*
X142570294Y-118436337D02*
X142643502Y-118513658D01*
X142643502Y-118513658D02*
X142671963Y-118574692D01*
X142671963Y-118574692D02*
X142684137Y-118680473D01*
X142684137Y-118680473D02*
X142618990Y-118859462D01*
X142618990Y-118859462D02*
X142541669Y-118932670D01*
X142541669Y-118932670D02*
X142480635Y-118961131D01*
X142480635Y-118961131D02*
X142374854Y-118973304D01*
X142374854Y-118973304D02*
X142195865Y-118908158D01*
X142195865Y-118908158D02*
X142122657Y-118830837D01*
X142122657Y-118830837D02*
X142094197Y-118769803D01*
X142094197Y-118769803D02*
X142082023Y-118664022D01*
X142082023Y-118664022D02*
X142147169Y-118485033D01*
X142147169Y-118485033D02*
X142224490Y-118411825D01*
X142224490Y-118411825D02*
X142285524Y-118383364D01*
X142285524Y-118383364D02*
X142391305Y-118371191D01*
X163813259Y-131322139D02*
X164178042Y-131628228D01*
X164178042Y-131628228D02*
X164820829Y-130862184D01*
X164175958Y-130445397D02*
X164170089Y-130378310D01*
X164170089Y-130378310D02*
X164127741Y-130280614D01*
X164127741Y-130280614D02*
X163945350Y-130127569D01*
X163945350Y-130127569D02*
X163841784Y-130102830D01*
X163841784Y-130102830D02*
X163774697Y-130108699D01*
X163774697Y-130108699D02*
X163677001Y-130151047D01*
X163677001Y-130151047D02*
X163615783Y-130224003D01*
X163615783Y-130224003D02*
X163560435Y-130364047D01*
X163560435Y-130364047D02*
X163630867Y-131169094D01*
X163630867Y-131169094D02*
X163156649Y-130771178D01*
X162791866Y-130465089D02*
X162645953Y-130342653D01*
X162645953Y-130342653D02*
X162603605Y-130244957D01*
X162603605Y-130244957D02*
X162597736Y-130177869D01*
X162597736Y-130177869D02*
X162616606Y-130007217D01*
X162616606Y-130007217D02*
X162702563Y-129830694D01*
X162702563Y-129830694D02*
X162947435Y-129538868D01*
X162947435Y-129538868D02*
X163045131Y-129496520D01*
X163045131Y-129496520D02*
X163112218Y-129490651D01*
X163112218Y-129490651D02*
X163215784Y-129515390D01*
X163215784Y-129515390D02*
X163361697Y-129637826D01*
X163361697Y-129637826D02*
X163404045Y-129735522D01*
X163404045Y-129735522D02*
X163409914Y-129802610D01*
X163409914Y-129802610D02*
X163385174Y-129906175D01*
X163385174Y-129906175D02*
X163232130Y-130088567D01*
X163232130Y-130088567D02*
X163134434Y-130130914D01*
X163134434Y-130130914D02*
X163067346Y-130136784D01*
X163067346Y-130136784D02*
X162963781Y-130112044D01*
X162963781Y-130112044D02*
X162817868Y-129989608D01*
X162817868Y-129989608D02*
X162775520Y-129891912D01*
X162775520Y-129891912D02*
X162769651Y-129824825D01*
X162769651Y-129824825D02*
X162794390Y-129721259D01*
X171238094Y-76454819D02*
X170666666Y-76454819D01*
X170952380Y-77454819D02*
X170952380Y-76454819D01*
X169761904Y-77454819D02*
X170095237Y-76978628D01*
X170333332Y-77454819D02*
X170333332Y-76454819D01*
X170333332Y-76454819D02*
X169952380Y-76454819D01*
X169952380Y-76454819D02*
X169857142Y-76502438D01*
X169857142Y-76502438D02*
X169809523Y-76550057D01*
X169809523Y-76550057D02*
X169761904Y-76645295D01*
X169761904Y-76645295D02*
X169761904Y-76788152D01*
X169761904Y-76788152D02*
X169809523Y-76883390D01*
X169809523Y-76883390D02*
X169857142Y-76931009D01*
X169857142Y-76931009D02*
X169952380Y-76978628D01*
X169952380Y-76978628D02*
X170333332Y-76978628D01*
X168761904Y-77454819D02*
X169095237Y-76978628D01*
X169333332Y-77454819D02*
X169333332Y-76454819D01*
X169333332Y-76454819D02*
X168952380Y-76454819D01*
X168952380Y-76454819D02*
X168857142Y-76502438D01*
X168857142Y-76502438D02*
X168809523Y-76550057D01*
X168809523Y-76550057D02*
X168761904Y-76645295D01*
X168761904Y-76645295D02*
X168761904Y-76788152D01*
X168761904Y-76788152D02*
X168809523Y-76883390D01*
X168809523Y-76883390D02*
X168857142Y-76931009D01*
X168857142Y-76931009D02*
X168952380Y-76978628D01*
X168952380Y-76978628D02*
X169333332Y-76978628D01*
X168380951Y-77407200D02*
X168238094Y-77454819D01*
X168238094Y-77454819D02*
X167999999Y-77454819D01*
X167999999Y-77454819D02*
X167904761Y-77407200D01*
X167904761Y-77407200D02*
X167857142Y-77359580D01*
X167857142Y-77359580D02*
X167809523Y-77264342D01*
X167809523Y-77264342D02*
X167809523Y-77169104D01*
X167809523Y-77169104D02*
X167857142Y-77073866D01*
X167857142Y-77073866D02*
X167904761Y-77026247D01*
X167904761Y-77026247D02*
X167999999Y-76978628D01*
X167999999Y-76978628D02*
X168190475Y-76931009D01*
X168190475Y-76931009D02*
X168285713Y-76883390D01*
X168285713Y-76883390D02*
X168333332Y-76835771D01*
X168333332Y-76835771D02*
X168380951Y-76740533D01*
X168380951Y-76740533D02*
X168380951Y-76645295D01*
X168380951Y-76645295D02*
X168333332Y-76550057D01*
X168333332Y-76550057D02*
X168285713Y-76502438D01*
X168285713Y-76502438D02*
X168190475Y-76454819D01*
X168190475Y-76454819D02*
X167952380Y-76454819D01*
X167952380Y-76454819D02*
X167809523Y-76502438D01*
X166857142Y-77454819D02*
X167428570Y-77454819D01*
X167142856Y-77454819D02*
X167142856Y-76454819D01*
X167142856Y-76454819D02*
X167238094Y-76597676D01*
X167238094Y-76597676D02*
X167333332Y-76692914D01*
X167333332Y-76692914D02*
X167428570Y-76740533D01*
X172554819Y-94976190D02*
X172078628Y-94642857D01*
X172554819Y-94404762D02*
X171554819Y-94404762D01*
X171554819Y-94404762D02*
X171554819Y-94785714D01*
X171554819Y-94785714D02*
X171602438Y-94880952D01*
X171602438Y-94880952D02*
X171650057Y-94928571D01*
X171650057Y-94928571D02*
X171745295Y-94976190D01*
X171745295Y-94976190D02*
X171888152Y-94976190D01*
X171888152Y-94976190D02*
X171983390Y-94928571D01*
X171983390Y-94928571D02*
X172031009Y-94880952D01*
X172031009Y-94880952D02*
X172078628Y-94785714D01*
X172078628Y-94785714D02*
X172078628Y-94404762D01*
X172507200Y-95357143D02*
X172554819Y-95500000D01*
X172554819Y-95500000D02*
X172554819Y-95738095D01*
X172554819Y-95738095D02*
X172507200Y-95833333D01*
X172507200Y-95833333D02*
X172459580Y-95880952D01*
X172459580Y-95880952D02*
X172364342Y-95928571D01*
X172364342Y-95928571D02*
X172269104Y-95928571D01*
X172269104Y-95928571D02*
X172173866Y-95880952D01*
X172173866Y-95880952D02*
X172126247Y-95833333D01*
X172126247Y-95833333D02*
X172078628Y-95738095D01*
X172078628Y-95738095D02*
X172031009Y-95547619D01*
X172031009Y-95547619D02*
X171983390Y-95452381D01*
X171983390Y-95452381D02*
X171935771Y-95404762D01*
X171935771Y-95404762D02*
X171840533Y-95357143D01*
X171840533Y-95357143D02*
X171745295Y-95357143D01*
X171745295Y-95357143D02*
X171650057Y-95404762D01*
X171650057Y-95404762D02*
X171602438Y-95452381D01*
X171602438Y-95452381D02*
X171554819Y-95547619D01*
X171554819Y-95547619D02*
X171554819Y-95785714D01*
X171554819Y-95785714D02*
X171602438Y-95928571D01*
X171554819Y-96214286D02*
X171554819Y-96785714D01*
X172554819Y-96500000D02*
X171554819Y-96500000D01*
X172554819Y-97642857D02*
X172554819Y-97071429D01*
X172554819Y-97357143D02*
X171554819Y-97357143D01*
X171554819Y-97357143D02*
X171697676Y-97261905D01*
X171697676Y-97261905D02*
X171792914Y-97166667D01*
X171792914Y-97166667D02*
X171840533Y-97071429D01*
X169354819Y-104190476D02*
X168354819Y-104190476D01*
X168354819Y-104190476D02*
X168354819Y-104571428D01*
X168354819Y-104571428D02*
X168402438Y-104666666D01*
X168402438Y-104666666D02*
X168450057Y-104714285D01*
X168450057Y-104714285D02*
X168545295Y-104761904D01*
X168545295Y-104761904D02*
X168688152Y-104761904D01*
X168688152Y-104761904D02*
X168783390Y-104714285D01*
X168783390Y-104714285D02*
X168831009Y-104666666D01*
X168831009Y-104666666D02*
X168878628Y-104571428D01*
X168878628Y-104571428D02*
X168878628Y-104190476D01*
X168354819Y-105095238D02*
X169354819Y-105333333D01*
X169354819Y-105333333D02*
X168640533Y-105523809D01*
X168640533Y-105523809D02*
X169354819Y-105714285D01*
X169354819Y-105714285D02*
X168354819Y-105952381D01*
X169354819Y-106904761D02*
X168878628Y-106571428D01*
X169354819Y-106333333D02*
X168354819Y-106333333D01*
X168354819Y-106333333D02*
X168354819Y-106714285D01*
X168354819Y-106714285D02*
X168402438Y-106809523D01*
X168402438Y-106809523D02*
X168450057Y-106857142D01*
X168450057Y-106857142D02*
X168545295Y-106904761D01*
X168545295Y-106904761D02*
X168688152Y-106904761D01*
X168688152Y-106904761D02*
X168783390Y-106857142D01*
X168783390Y-106857142D02*
X168831009Y-106809523D01*
X168831009Y-106809523D02*
X168878628Y-106714285D01*
X168878628Y-106714285D02*
X168878628Y-106333333D01*
X169354819Y-107857142D02*
X169354819Y-107285714D01*
X169354819Y-107571428D02*
X168354819Y-107571428D01*
X168354819Y-107571428D02*
X168497676Y-107476190D01*
X168497676Y-107476190D02*
X168592914Y-107380952D01*
X168592914Y-107380952D02*
X168640533Y-107285714D01*
X173019047Y-100454819D02*
X172828571Y-100454819D01*
X172828571Y-100454819D02*
X172733333Y-100502438D01*
X172733333Y-100502438D02*
X172638095Y-100597676D01*
X172638095Y-100597676D02*
X172590476Y-100788152D01*
X172590476Y-100788152D02*
X172590476Y-101121485D01*
X172590476Y-101121485D02*
X172638095Y-101311961D01*
X172638095Y-101311961D02*
X172733333Y-101407200D01*
X172733333Y-101407200D02*
X172828571Y-101454819D01*
X172828571Y-101454819D02*
X173019047Y-101454819D01*
X173019047Y-101454819D02*
X173114285Y-101407200D01*
X173114285Y-101407200D02*
X173209523Y-101311961D01*
X173209523Y-101311961D02*
X173257142Y-101121485D01*
X173257142Y-101121485D02*
X173257142Y-100788152D01*
X173257142Y-100788152D02*
X173209523Y-100597676D01*
X173209523Y-100597676D02*
X173114285Y-100502438D01*
X173114285Y-100502438D02*
X173019047Y-100454819D01*
X172161904Y-101454819D02*
X172161904Y-100454819D01*
X172161904Y-100454819D02*
X171590476Y-101454819D01*
X171590476Y-101454819D02*
X171590476Y-100454819D01*
X173352380Y-110454819D02*
X173161904Y-110454819D01*
X173161904Y-110454819D02*
X173066666Y-110502438D01*
X173066666Y-110502438D02*
X172971428Y-110597676D01*
X172971428Y-110597676D02*
X172923809Y-110788152D01*
X172923809Y-110788152D02*
X172923809Y-111121485D01*
X172923809Y-111121485D02*
X172971428Y-111311961D01*
X172971428Y-111311961D02*
X173066666Y-111407200D01*
X173066666Y-111407200D02*
X173161904Y-111454819D01*
X173161904Y-111454819D02*
X173352380Y-111454819D01*
X173352380Y-111454819D02*
X173447618Y-111407200D01*
X173447618Y-111407200D02*
X173542856Y-111311961D01*
X173542856Y-111311961D02*
X173590475Y-111121485D01*
X173590475Y-111121485D02*
X173590475Y-110788152D01*
X173590475Y-110788152D02*
X173542856Y-110597676D01*
X173542856Y-110597676D02*
X173447618Y-110502438D01*
X173447618Y-110502438D02*
X173352380Y-110454819D01*
X172161904Y-110931009D02*
X172495237Y-110931009D01*
X172495237Y-111454819D02*
X172495237Y-110454819D01*
X172495237Y-110454819D02*
X172019047Y-110454819D01*
X171304761Y-110931009D02*
X171638094Y-110931009D01*
X171638094Y-111454819D02*
X171638094Y-110454819D01*
X171638094Y-110454819D02*
X171161904Y-110454819D01*
%TO.C,SW1*%
X41500000Y-128200000D02*
X42000000Y-127700000D01*
X38500000Y-128200000D02*
X41500000Y-128200000D01*
X38000000Y-127700000D02*
X38500000Y-128200000D01*
X38000000Y-127700000D02*
X38000000Y-126780000D01*
X37480000Y-126200000D02*
X33000000Y-126200000D01*
X33000000Y-126200000D02*
X33000000Y-125600000D01*
X37480000Y-126200000D02*
G75*
G02*
X38000000Y-126780000I-30000J-550000D01*
G01*
X41500000Y-123700000D02*
X42000000Y-124200000D01*
X39200000Y-123700000D02*
X41500000Y-123700000D01*
X37500000Y-121500000D02*
X37500000Y-122200000D01*
X33000000Y-121500000D02*
X37500000Y-121500000D01*
X33000000Y-122000000D02*
X33000000Y-121500000D01*
X39200000Y-123700000D02*
G75*
G02*
X37500000Y-122220000I-110000J1590000D01*
G01*
%TO.C,SW2*%
X41500000Y-109200000D02*
X42000000Y-108700000D01*
X38500000Y-109200000D02*
X41500000Y-109200000D01*
X38000000Y-108700000D02*
X38500000Y-109200000D01*
X38000000Y-108700000D02*
X38000000Y-107780000D01*
X37480000Y-107200000D02*
X33000000Y-107200000D01*
X33000000Y-107200000D02*
X33000000Y-106600000D01*
X37480000Y-107200000D02*
G75*
G02*
X38000000Y-107780000I-30000J-550000D01*
G01*
X41500000Y-104700000D02*
X42000000Y-105200000D01*
X39200000Y-104700000D02*
X41500000Y-104700000D01*
X37500000Y-102500000D02*
X37500000Y-103200000D01*
X33000000Y-102500000D02*
X37500000Y-102500000D01*
X33000000Y-103000000D02*
X33000000Y-102500000D01*
X39200000Y-104700000D02*
G75*
G02*
X37500000Y-103220000I-110000J1590000D01*
G01*
%TO.C,SW3*%
X41500000Y-90200000D02*
X42000000Y-89700000D01*
X38500000Y-90200000D02*
X41500000Y-90200000D01*
X38000000Y-89700000D02*
X38500000Y-90200000D01*
X38000000Y-89700000D02*
X38000000Y-88780000D01*
X37480000Y-88200000D02*
X33000000Y-88200000D01*
X33000000Y-88200000D02*
X33000000Y-87600000D01*
X37480000Y-88200000D02*
G75*
G02*
X38000000Y-88780000I-30000J-550000D01*
G01*
X41500000Y-85700000D02*
X42000000Y-86200000D01*
X39200000Y-85700000D02*
X41500000Y-85700000D01*
X37500000Y-83500000D02*
X37500000Y-84200000D01*
X33000000Y-83500000D02*
X37500000Y-83500000D01*
X33000000Y-84000000D02*
X33000000Y-83500000D01*
X39200000Y-85700000D02*
G75*
G02*
X37500000Y-84220000I-110000J1590000D01*
G01*
%TO.C,SW4*%
X41500000Y-71200000D02*
X42000000Y-70700000D01*
X38500000Y-71200000D02*
X41500000Y-71200000D01*
X38000000Y-70700000D02*
X38500000Y-71200000D01*
X38000000Y-70700000D02*
X38000000Y-69780000D01*
X37480000Y-69200000D02*
X33000000Y-69200000D01*
X33000000Y-69200000D02*
X33000000Y-68600000D01*
X37480000Y-69200000D02*
G75*
G02*
X38000000Y-69780000I-30000J-550000D01*
G01*
X41500000Y-66700000D02*
X42000000Y-67200000D01*
X39200000Y-66700000D02*
X41500000Y-66700000D01*
X37500000Y-64500000D02*
X37500000Y-65200000D01*
X33000000Y-64500000D02*
X37500000Y-64500000D01*
X33000000Y-65000000D02*
X33000000Y-64500000D01*
X39200000Y-66700000D02*
G75*
G02*
X37500000Y-65220000I-110000J1590000D01*
G01*
%TO.C,SW5*%
X61500000Y-118200000D02*
X62000000Y-117700000D01*
X58500000Y-118200000D02*
X61500000Y-118200000D01*
X58000000Y-117700000D02*
X58500000Y-118200000D01*
X58000000Y-117700000D02*
X58000000Y-116780000D01*
X57480000Y-116200000D02*
X53000000Y-116200000D01*
X53000000Y-116200000D02*
X53000000Y-115600000D01*
X57480000Y-116200000D02*
G75*
G02*
X58000000Y-116780000I-30000J-550000D01*
G01*
X61500000Y-113700000D02*
X62000000Y-114200000D01*
X59200000Y-113700000D02*
X61500000Y-113700000D01*
X57500000Y-111500000D02*
X57500000Y-112200000D01*
X53000000Y-111500000D02*
X57500000Y-111500000D01*
X53000000Y-112000000D02*
X53000000Y-111500000D01*
X59200000Y-113700000D02*
G75*
G02*
X57500000Y-112220000I-110000J1590000D01*
G01*
%TO.C,SW6*%
X61500000Y-99200000D02*
X62000000Y-98700000D01*
X58500000Y-99200000D02*
X61500000Y-99200000D01*
X58000000Y-98700000D02*
X58500000Y-99200000D01*
X58000000Y-98700000D02*
X58000000Y-97780000D01*
X57480000Y-97200000D02*
X53000000Y-97200000D01*
X53000000Y-97200000D02*
X53000000Y-96600000D01*
X57480000Y-97200000D02*
G75*
G02*
X58000000Y-97780000I-30000J-550000D01*
G01*
X61500000Y-94700000D02*
X62000000Y-95200000D01*
X59200000Y-94700000D02*
X61500000Y-94700000D01*
X57500000Y-92500000D02*
X57500000Y-93200000D01*
X53000000Y-92500000D02*
X57500000Y-92500000D01*
X53000000Y-93000000D02*
X53000000Y-92500000D01*
X59200000Y-94700000D02*
G75*
G02*
X57500000Y-93220000I-110000J1590000D01*
G01*
%TO.C,SW7*%
X61500000Y-80200000D02*
X62000000Y-79700000D01*
X58500000Y-80200000D02*
X61500000Y-80200000D01*
X58000000Y-79700000D02*
X58500000Y-80200000D01*
X58000000Y-79700000D02*
X58000000Y-78780000D01*
X57480000Y-78200000D02*
X53000000Y-78200000D01*
X53000000Y-78200000D02*
X53000000Y-77600000D01*
X57480000Y-78200000D02*
G75*
G02*
X58000000Y-78780000I-30000J-550000D01*
G01*
X61500000Y-75700000D02*
X62000000Y-76200000D01*
X59200000Y-75700000D02*
X61500000Y-75700000D01*
X57500000Y-73500000D02*
X57500000Y-74200000D01*
X53000000Y-73500000D02*
X57500000Y-73500000D01*
X53000000Y-74000000D02*
X53000000Y-73500000D01*
X59200000Y-75700000D02*
G75*
G02*
X57500000Y-74220000I-110000J1590000D01*
G01*
%TO.C,SW8*%
X61500000Y-61200000D02*
X62000000Y-60700000D01*
X58500000Y-61200000D02*
X61500000Y-61200000D01*
X58000000Y-60700000D02*
X58500000Y-61200000D01*
X58000000Y-60700000D02*
X58000000Y-59780000D01*
X57480000Y-59200000D02*
X53000000Y-59200000D01*
X53000000Y-59200000D02*
X53000000Y-58600000D01*
X57480000Y-59200000D02*
G75*
G02*
X58000000Y-59780000I-30000J-550000D01*
G01*
X61500000Y-56700000D02*
X62000000Y-57200000D01*
X59200000Y-56700000D02*
X61500000Y-56700000D01*
X57500000Y-54500000D02*
X57500000Y-55200000D01*
X53000000Y-54500000D02*
X57500000Y-54500000D01*
X53000000Y-55000000D02*
X53000000Y-54500000D01*
X59200000Y-56700000D02*
G75*
G02*
X57500000Y-55220000I-110000J1590000D01*
G01*
%TO.C,SW9*%
X81500000Y-106200000D02*
X82000000Y-105700000D01*
X78500000Y-106200000D02*
X81500000Y-106200000D01*
X78000000Y-105700000D02*
X78500000Y-106200000D01*
X78000000Y-105700000D02*
X78000000Y-104780000D01*
X77480000Y-104200000D02*
X73000000Y-104200000D01*
X73000000Y-104200000D02*
X73000000Y-103600000D01*
X77480000Y-104200000D02*
G75*
G02*
X78000000Y-104780000I-30000J-550000D01*
G01*
X81500000Y-101700000D02*
X82000000Y-102200000D01*
X79200000Y-101700000D02*
X81500000Y-101700000D01*
X77500000Y-99500000D02*
X77500000Y-100200000D01*
X73000000Y-99500000D02*
X77500000Y-99500000D01*
X73000000Y-100000000D02*
X73000000Y-99500000D01*
X79200000Y-101700000D02*
G75*
G02*
X77500000Y-100220000I-110000J1590000D01*
G01*
%TO.C,SW10*%
X81500000Y-87200000D02*
X82000000Y-86700000D01*
X78500000Y-87200000D02*
X81500000Y-87200000D01*
X78000000Y-86700000D02*
X78500000Y-87200000D01*
X78000000Y-86700000D02*
X78000000Y-85780000D01*
X77480000Y-85200000D02*
X73000000Y-85200000D01*
X73000000Y-85200000D02*
X73000000Y-84600000D01*
X77480000Y-85200000D02*
G75*
G02*
X78000000Y-85780000I-30000J-550000D01*
G01*
X81500000Y-82700000D02*
X82000000Y-83200000D01*
X79200000Y-82700000D02*
X81500000Y-82700000D01*
X77500000Y-80500000D02*
X77500000Y-81200000D01*
X73000000Y-80500000D02*
X77500000Y-80500000D01*
X73000000Y-81000000D02*
X73000000Y-80500000D01*
X79200000Y-82700000D02*
G75*
G02*
X77500000Y-81220000I-110000J1590000D01*
G01*
%TO.C,SW11*%
X81500000Y-68200000D02*
X82000000Y-67700000D01*
X78500000Y-68200000D02*
X81500000Y-68200000D01*
X78000000Y-67700000D02*
X78500000Y-68200000D01*
X78000000Y-67700000D02*
X78000000Y-66780000D01*
X77480000Y-66200000D02*
X73000000Y-66200000D01*
X73000000Y-66200000D02*
X73000000Y-65600000D01*
X77480000Y-66200000D02*
G75*
G02*
X78000000Y-66780000I-30000J-550000D01*
G01*
X81500000Y-63700000D02*
X82000000Y-64200000D01*
X79200000Y-63700000D02*
X81500000Y-63700000D01*
X77500000Y-61500000D02*
X77500000Y-62200000D01*
X73000000Y-61500000D02*
X77500000Y-61500000D01*
X73000000Y-62000000D02*
X73000000Y-61500000D01*
X79200000Y-63700000D02*
G75*
G02*
X77500000Y-62220000I-110000J1590000D01*
G01*
%TO.C,SW12*%
X81500000Y-49200000D02*
X82000000Y-48700000D01*
X78500000Y-49200000D02*
X81500000Y-49200000D01*
X78000000Y-48700000D02*
X78500000Y-49200000D01*
X78000000Y-48700000D02*
X78000000Y-47780000D01*
X77480000Y-47200000D02*
X73000000Y-47200000D01*
X73000000Y-47200000D02*
X73000000Y-46600000D01*
X77480000Y-47200000D02*
G75*
G02*
X78000000Y-47780000I-30000J-550000D01*
G01*
X81500000Y-44700000D02*
X82000000Y-45200000D01*
X79200000Y-44700000D02*
X81500000Y-44700000D01*
X77500000Y-42500000D02*
X77500000Y-43200000D01*
X73000000Y-42500000D02*
X77500000Y-42500000D01*
X73000000Y-43000000D02*
X73000000Y-42500000D01*
X79200000Y-44700000D02*
G75*
G02*
X77500000Y-43220000I-110000J1590000D01*
G01*
%TO.C,SW13*%
X101500000Y-102200000D02*
X102000000Y-101700000D01*
X98500000Y-102200000D02*
X101500000Y-102200000D01*
X98000000Y-101700000D02*
X98500000Y-102200000D01*
X98000000Y-101700000D02*
X98000000Y-100780000D01*
X97480000Y-100200000D02*
X93000000Y-100200000D01*
X93000000Y-100200000D02*
X93000000Y-99600000D01*
X97480000Y-100200000D02*
G75*
G02*
X98000000Y-100780000I-30000J-550000D01*
G01*
X101500000Y-97700000D02*
X102000000Y-98200000D01*
X99200000Y-97700000D02*
X101500000Y-97700000D01*
X97500000Y-95500000D02*
X97500000Y-96200000D01*
X93000000Y-95500000D02*
X97500000Y-95500000D01*
X93000000Y-96000000D02*
X93000000Y-95500000D01*
X99200000Y-97700000D02*
G75*
G02*
X97500000Y-96220000I-110000J1590000D01*
G01*
%TO.C,SW14*%
X101500000Y-83200000D02*
X102000000Y-82700000D01*
X98500000Y-83200000D02*
X101500000Y-83200000D01*
X98000000Y-82700000D02*
X98500000Y-83200000D01*
X98000000Y-82700000D02*
X98000000Y-81780000D01*
X97480000Y-81200000D02*
X93000000Y-81200000D01*
X93000000Y-81200000D02*
X93000000Y-80600000D01*
X97480000Y-81200000D02*
G75*
G02*
X98000000Y-81780000I-30000J-550000D01*
G01*
X101500000Y-78700000D02*
X102000000Y-79200000D01*
X99200000Y-78700000D02*
X101500000Y-78700000D01*
X97500000Y-76500000D02*
X97500000Y-77200000D01*
X93000000Y-76500000D02*
X97500000Y-76500000D01*
X93000000Y-77000000D02*
X93000000Y-76500000D01*
X99200000Y-78700000D02*
G75*
G02*
X97500000Y-77220000I-110000J1590000D01*
G01*
%TO.C,SW15*%
X101500000Y-64200000D02*
X102000000Y-63700000D01*
X98500000Y-64200000D02*
X101500000Y-64200000D01*
X98000000Y-63700000D02*
X98500000Y-64200000D01*
X98000000Y-63700000D02*
X98000000Y-62780000D01*
X97480000Y-62200000D02*
X93000000Y-62200000D01*
X93000000Y-62200000D02*
X93000000Y-61600000D01*
X97480000Y-62200000D02*
G75*
G02*
X98000000Y-62780000I-30000J-550000D01*
G01*
X101500000Y-59700000D02*
X102000000Y-60200000D01*
X99200000Y-59700000D02*
X101500000Y-59700000D01*
X97500000Y-57500000D02*
X97500000Y-58200000D01*
X93000000Y-57500000D02*
X97500000Y-57500000D01*
X93000000Y-58000000D02*
X93000000Y-57500000D01*
X99200000Y-59700000D02*
G75*
G02*
X97500000Y-58220000I-110000J1590000D01*
G01*
%TO.C,SW16*%
X101500000Y-45200000D02*
X102000000Y-44700000D01*
X98500000Y-45200000D02*
X101500000Y-45200000D01*
X98000000Y-44700000D02*
X98500000Y-45200000D01*
X98000000Y-44700000D02*
X98000000Y-43780000D01*
X97480000Y-43200000D02*
X93000000Y-43200000D01*
X93000000Y-43200000D02*
X93000000Y-42600000D01*
X97480000Y-43200000D02*
G75*
G02*
X98000000Y-43780000I-30000J-550000D01*
G01*
X101500000Y-40700000D02*
X102000000Y-41200000D01*
X99200000Y-40700000D02*
X101500000Y-40700000D01*
X97500000Y-38500000D02*
X97500000Y-39200000D01*
X93000000Y-38500000D02*
X97500000Y-38500000D01*
X93000000Y-39000000D02*
X93000000Y-38500000D01*
X99200000Y-40700000D02*
G75*
G02*
X97500000Y-39220000I-110000J1590000D01*
G01*
%TO.C,SW17*%
X121500000Y-106200000D02*
X122000000Y-105700000D01*
X118500000Y-106200000D02*
X121500000Y-106200000D01*
X118000000Y-105700000D02*
X118500000Y-106200000D01*
X118000000Y-105700000D02*
X118000000Y-104780000D01*
X117480000Y-104200000D02*
X113000000Y-104200000D01*
X113000000Y-104200000D02*
X113000000Y-103600000D01*
X117480000Y-104200000D02*
G75*
G02*
X118000000Y-104780000I-30000J-550000D01*
G01*
X121500000Y-101700000D02*
X122000000Y-102200000D01*
X119200000Y-101700000D02*
X121500000Y-101700000D01*
X117500000Y-99500000D02*
X117500000Y-100200000D01*
X113000000Y-99500000D02*
X117500000Y-99500000D01*
X113000000Y-100000000D02*
X113000000Y-99500000D01*
X119200000Y-101700000D02*
G75*
G02*
X117500000Y-100220000I-110000J1590000D01*
G01*
%TO.C,SW18*%
X121500000Y-87200000D02*
X122000000Y-86700000D01*
X118500000Y-87200000D02*
X121500000Y-87200000D01*
X118000000Y-86700000D02*
X118500000Y-87200000D01*
X118000000Y-86700000D02*
X118000000Y-85780000D01*
X117480000Y-85200000D02*
X113000000Y-85200000D01*
X113000000Y-85200000D02*
X113000000Y-84600000D01*
X117480000Y-85200000D02*
G75*
G02*
X118000000Y-85780000I-30000J-550000D01*
G01*
X121500000Y-82700000D02*
X122000000Y-83200000D01*
X119200000Y-82700000D02*
X121500000Y-82700000D01*
X117500000Y-80500000D02*
X117500000Y-81200000D01*
X113000000Y-80500000D02*
X117500000Y-80500000D01*
X113000000Y-81000000D02*
X113000000Y-80500000D01*
X119200000Y-82700000D02*
G75*
G02*
X117500000Y-81220000I-110000J1590000D01*
G01*
%TO.C,SW19*%
X121500000Y-68200000D02*
X122000000Y-67700000D01*
X118500000Y-68200000D02*
X121500000Y-68200000D01*
X118000000Y-67700000D02*
X118500000Y-68200000D01*
X118000000Y-67700000D02*
X118000000Y-66780000D01*
X117480000Y-66200000D02*
X113000000Y-66200000D01*
X113000000Y-66200000D02*
X113000000Y-65600000D01*
X117480000Y-66200000D02*
G75*
G02*
X118000000Y-66780000I-30000J-550000D01*
G01*
X121500000Y-63700000D02*
X122000000Y-64200000D01*
X119200000Y-63700000D02*
X121500000Y-63700000D01*
X117500000Y-61500000D02*
X117500000Y-62200000D01*
X113000000Y-61500000D02*
X117500000Y-61500000D01*
X113000000Y-62000000D02*
X113000000Y-61500000D01*
X119200000Y-63700000D02*
G75*
G02*
X117500000Y-62220000I-110000J1590000D01*
G01*
%TO.C,SW20*%
X121500000Y-49200000D02*
X122000000Y-48700000D01*
X118500000Y-49200000D02*
X121500000Y-49200000D01*
X118000000Y-48700000D02*
X118500000Y-49200000D01*
X118000000Y-48700000D02*
X118000000Y-47780000D01*
X117480000Y-47200000D02*
X113000000Y-47200000D01*
X113000000Y-47200000D02*
X113000000Y-46600000D01*
X117480000Y-47200000D02*
G75*
G02*
X118000000Y-47780000I-30000J-550000D01*
G01*
X121500000Y-44700000D02*
X122000000Y-45200000D01*
X119200000Y-44700000D02*
X121500000Y-44700000D01*
X117500000Y-42500000D02*
X117500000Y-43200000D01*
X113000000Y-42500000D02*
X117500000Y-42500000D01*
X113000000Y-43000000D02*
X113000000Y-42500000D01*
X119200000Y-44700000D02*
G75*
G02*
X117500000Y-43220000I-110000J1590000D01*
G01*
%TO.C,SW21*%
X141500000Y-112200000D02*
X142000000Y-111700000D01*
X138500000Y-112200000D02*
X141500000Y-112200000D01*
X138000000Y-111700000D02*
X138500000Y-112200000D01*
X138000000Y-111700000D02*
X138000000Y-110780000D01*
X137480000Y-110200000D02*
X133000000Y-110200000D01*
X133000000Y-110200000D02*
X133000000Y-109600000D01*
X137480000Y-110200000D02*
G75*
G02*
X138000000Y-110780000I-30000J-550000D01*
G01*
X141500000Y-107700000D02*
X142000000Y-108200000D01*
X139200000Y-107700000D02*
X141500000Y-107700000D01*
X137500000Y-105500000D02*
X137500000Y-106200000D01*
X133000000Y-105500000D02*
X137500000Y-105500000D01*
X133000000Y-106000000D02*
X133000000Y-105500000D01*
X139200000Y-107700000D02*
G75*
G02*
X137500000Y-106220000I-110000J1590000D01*
G01*
%TO.C,SW22*%
X141500000Y-93200000D02*
X142000000Y-92700000D01*
X138500000Y-93200000D02*
X141500000Y-93200000D01*
X138000000Y-92700000D02*
X138500000Y-93200000D01*
X138000000Y-92700000D02*
X138000000Y-91780000D01*
X137480000Y-91200000D02*
X133000000Y-91200000D01*
X133000000Y-91200000D02*
X133000000Y-90600000D01*
X137480000Y-91200000D02*
G75*
G02*
X138000000Y-91780000I-30000J-550000D01*
G01*
X141500000Y-88700000D02*
X142000000Y-89200000D01*
X139200000Y-88700000D02*
X141500000Y-88700000D01*
X137500000Y-86500000D02*
X137500000Y-87200000D01*
X133000000Y-86500000D02*
X137500000Y-86500000D01*
X133000000Y-87000000D02*
X133000000Y-86500000D01*
X139200000Y-88700000D02*
G75*
G02*
X137500000Y-87220000I-110000J1590000D01*
G01*
%TO.C,SW23*%
X141500000Y-74200000D02*
X142000000Y-73700000D01*
X138500000Y-74200000D02*
X141500000Y-74200000D01*
X138000000Y-73700000D02*
X138500000Y-74200000D01*
X138000000Y-73700000D02*
X138000000Y-72780000D01*
X137480000Y-72200000D02*
X133000000Y-72200000D01*
X133000000Y-72200000D02*
X133000000Y-71600000D01*
X137480000Y-72200000D02*
G75*
G02*
X138000000Y-72780000I-30000J-550000D01*
G01*
X141500000Y-69700000D02*
X142000000Y-70200000D01*
X139200000Y-69700000D02*
X141500000Y-69700000D01*
X137500000Y-67500000D02*
X137500000Y-68200000D01*
X133000000Y-67500000D02*
X137500000Y-67500000D01*
X133000000Y-68000000D02*
X133000000Y-67500000D01*
X139200000Y-69700000D02*
G75*
G02*
X137500000Y-68220000I-110000J1590000D01*
G01*
%TO.C,SW24*%
X141500000Y-55200000D02*
X142000000Y-54700000D01*
X138500000Y-55200000D02*
X141500000Y-55200000D01*
X138000000Y-54700000D02*
X138500000Y-55200000D01*
X138000000Y-54700000D02*
X138000000Y-53780000D01*
X137480000Y-53200000D02*
X133000000Y-53200000D01*
X133000000Y-53200000D02*
X133000000Y-52600000D01*
X137480000Y-53200000D02*
G75*
G02*
X138000000Y-53780000I-30000J-550000D01*
G01*
X141500000Y-50700000D02*
X142000000Y-51200000D01*
X139200000Y-50700000D02*
X141500000Y-50700000D01*
X137500000Y-48500000D02*
X137500000Y-49200000D01*
X133000000Y-48500000D02*
X137500000Y-48500000D01*
X133000000Y-49000000D02*
X133000000Y-48500000D01*
X139200000Y-50700000D02*
G75*
G02*
X137500000Y-49220000I-110000J1590000D01*
G01*
%TO.C,SW25*%
X81500000Y-128200000D02*
X82000000Y-127700000D01*
X78500000Y-128200000D02*
X81500000Y-128200000D01*
X78000000Y-127700000D02*
X78500000Y-128200000D01*
X78000000Y-127700000D02*
X78000000Y-126780000D01*
X77480000Y-126200000D02*
X73000000Y-126200000D01*
X73000000Y-126200000D02*
X73000000Y-125600000D01*
X77480000Y-126200000D02*
G75*
G02*
X78000000Y-126780000I-30000J-550000D01*
G01*
X81500000Y-123700000D02*
X82000000Y-124200000D01*
X79200000Y-123700000D02*
X81500000Y-123700000D01*
X77500000Y-121500000D02*
X77500000Y-122200000D01*
X73000000Y-121500000D02*
X77500000Y-121500000D01*
X73000000Y-122000000D02*
X73000000Y-121500000D01*
X79200000Y-123700000D02*
G75*
G02*
X77500000Y-122220000I-110000J1590000D01*
G01*
%TO.C,SW26*%
X101500000Y-128200000D02*
X102000000Y-127700000D01*
X98500000Y-128200000D02*
X101500000Y-128200000D01*
X98000000Y-127700000D02*
X98500000Y-128200000D01*
X98000000Y-127700000D02*
X98000000Y-126780000D01*
X97480000Y-126200000D02*
X93000000Y-126200000D01*
X93000000Y-126200000D02*
X93000000Y-125600000D01*
X97480000Y-126200000D02*
G75*
G02*
X98000000Y-126780000I-30000J-550000D01*
G01*
X101500000Y-123700000D02*
X102000000Y-124200000D01*
X99200000Y-123700000D02*
X101500000Y-123700000D01*
X97500000Y-121500000D02*
X97500000Y-122200000D01*
X93000000Y-121500000D02*
X97500000Y-121500000D01*
X93000000Y-122000000D02*
X93000000Y-121500000D01*
X99200000Y-123700000D02*
G75*
G02*
X97500000Y-122220000I-110000J1590000D01*
G01*
%TO.C,SW27*%
X120779615Y-129299530D02*
X121321290Y-128845011D01*
X117791031Y-129038063D02*
X120779615Y-129299530D01*
X117336511Y-128496388D02*
X117791031Y-129038063D01*
X117336511Y-128496388D02*
X117416695Y-127579889D01*
X116949224Y-126956775D02*
X112486272Y-126566317D01*
X112486272Y-126566317D02*
X112538565Y-125968600D01*
X116949224Y-126956775D02*
G75*
G02*
X117416694Y-127579889I-77822J-545292D01*
G01*
X121171816Y-124816654D02*
X121626335Y-125358329D01*
X118880568Y-124616196D02*
X121171816Y-124816654D01*
X117378780Y-122276403D02*
X117317771Y-122973739D01*
X112895903Y-121884202D02*
X117378780Y-122276403D01*
X112852326Y-122382299D02*
X112895903Y-121884202D01*
X118880568Y-124616196D02*
G75*
G02*
X117316027Y-122993663I28996J1593537D01*
G01*
%TO.C,SW28*%
X139445374Y-133705010D02*
X140086230Y-133406173D01*
X136626296Y-132678949D02*
X139445374Y-133705010D01*
X136327460Y-132038093D02*
X136626296Y-132678949D01*
X136327460Y-132038093D02*
X136642118Y-131173576D01*
X136351850Y-130450703D02*
X132142027Y-128918453D01*
X132142027Y-128918453D02*
X132347239Y-128354638D01*
X136351850Y-130450703D02*
G75*
G02*
X136642119Y-131173576I-216302J-506571D01*
G01*
X140984464Y-129476393D02*
X141283301Y-130117249D01*
X138823171Y-128689747D02*
X140984464Y-129476393D01*
X137978138Y-126040989D02*
X137738724Y-126698773D01*
X133749521Y-124501898D02*
X137978138Y-126040989D01*
X133578511Y-124971744D02*
X133749521Y-124501898D01*
X138823171Y-128689747D02*
G75*
G02*
X137731883Y-126717567I440446J1531734D01*
G01*
%TO.C,SW29*%
X154927508Y-143245146D02*
X155631924Y-143183517D01*
X152629375Y-141316783D02*
X154927508Y-143245146D01*
X152567747Y-140612367D02*
X152629375Y-141316783D01*
X152567747Y-140612367D02*
X153159111Y-139907606D01*
X153133585Y-139129051D02*
X149701706Y-136249362D01*
X149701706Y-136249362D02*
X150087378Y-135789736D01*
X153133585Y-139129051D02*
G75*
G02*
X153159111Y-139907606I-376515J-402041D01*
G01*
X157820053Y-139797946D02*
X157881681Y-140502362D01*
X156058150Y-138319534D02*
X157820053Y-139797946D01*
X156170007Y-135541498D02*
X155720056Y-136077729D01*
X152722807Y-132648953D02*
X156170007Y-135541498D01*
X152401414Y-133031976D02*
X152722807Y-132648953D01*
X156058150Y-138319534D02*
G75*
G02*
X155707200Y-136093050I937768J1288717D01*
G01*
D11*
%TO.C,D1*%
X40250000Y-128500000D02*
X40750000Y-128500000D01*
X40250000Y-128900000D02*
X39650000Y-128500000D01*
X40250000Y-128100000D02*
X40250000Y-128900000D01*
X39650000Y-128500000D02*
X40250000Y-128100000D01*
X39650000Y-128500000D02*
X39650000Y-129050000D01*
X39650000Y-128500000D02*
X39650000Y-127950000D01*
X39250000Y-128500000D02*
X39650000Y-128500000D01*
%TO.C,D2*%
X40250000Y-109500000D02*
X40750000Y-109500000D01*
X40250000Y-109900000D02*
X39650000Y-109500000D01*
X40250000Y-109100000D02*
X40250000Y-109900000D01*
X39650000Y-109500000D02*
X40250000Y-109100000D01*
X39650000Y-109500000D02*
X39650000Y-110050000D01*
X39650000Y-109500000D02*
X39650000Y-108950000D01*
X39250000Y-109500000D02*
X39650000Y-109500000D01*
%TO.C,D3*%
X40250000Y-90500000D02*
X40750000Y-90500000D01*
X40250000Y-90900000D02*
X39650000Y-90500000D01*
X40250000Y-90100000D02*
X40250000Y-90900000D01*
X39650000Y-90500000D02*
X40250000Y-90100000D01*
X39650000Y-90500000D02*
X39650000Y-91050000D01*
X39650000Y-90500000D02*
X39650000Y-89950000D01*
X39250000Y-90500000D02*
X39650000Y-90500000D01*
%TO.C,D4*%
X40250000Y-71500000D02*
X40750000Y-71500000D01*
X40250000Y-71900000D02*
X39650000Y-71500000D01*
X40250000Y-71100000D02*
X40250000Y-71900000D01*
X39650000Y-71500000D02*
X40250000Y-71100000D01*
X39650000Y-71500000D02*
X39650000Y-72050000D01*
X39650000Y-71500000D02*
X39650000Y-70950000D01*
X39250000Y-71500000D02*
X39650000Y-71500000D01*
%TO.C,D5*%
X60250000Y-118500000D02*
X60750000Y-118500000D01*
X60250000Y-118900000D02*
X59650000Y-118500000D01*
X60250000Y-118100000D02*
X60250000Y-118900000D01*
X59650000Y-118500000D02*
X60250000Y-118100000D01*
X59650000Y-118500000D02*
X59650000Y-119050000D01*
X59650000Y-118500000D02*
X59650000Y-117950000D01*
X59250000Y-118500000D02*
X59650000Y-118500000D01*
%TO.C,D6*%
X60250000Y-99500000D02*
X60750000Y-99500000D01*
X60250000Y-99900000D02*
X59650000Y-99500000D01*
X60250000Y-99100000D02*
X60250000Y-99900000D01*
X59650000Y-99500000D02*
X60250000Y-99100000D01*
X59650000Y-99500000D02*
X59650000Y-100050000D01*
X59650000Y-99500000D02*
X59650000Y-98950000D01*
X59250000Y-99500000D02*
X59650000Y-99500000D01*
%TO.C,D7*%
X60250000Y-80500000D02*
X60750000Y-80500000D01*
X60250000Y-80900000D02*
X59650000Y-80500000D01*
X60250000Y-80100000D02*
X60250000Y-80900000D01*
X59650000Y-80500000D02*
X60250000Y-80100000D01*
X59650000Y-80500000D02*
X59650000Y-81050000D01*
X59650000Y-80500000D02*
X59650000Y-79950000D01*
X59250000Y-80500000D02*
X59650000Y-80500000D01*
%TO.C,D8*%
X60250000Y-61500000D02*
X60750000Y-61500000D01*
X60250000Y-61900000D02*
X59650000Y-61500000D01*
X60250000Y-61100000D02*
X60250000Y-61900000D01*
X59650000Y-61500000D02*
X60250000Y-61100000D01*
X59650000Y-61500000D02*
X59650000Y-62050000D01*
X59650000Y-61500000D02*
X59650000Y-60950000D01*
X59250000Y-61500000D02*
X59650000Y-61500000D01*
%TO.C,D9*%
X80250000Y-106500000D02*
X80750000Y-106500000D01*
X80250000Y-106900000D02*
X79650000Y-106500000D01*
X80250000Y-106100000D02*
X80250000Y-106900000D01*
X79650000Y-106500000D02*
X80250000Y-106100000D01*
X79650000Y-106500000D02*
X79650000Y-107050000D01*
X79650000Y-106500000D02*
X79650000Y-105950000D01*
X79250000Y-106500000D02*
X79650000Y-106500000D01*
%TO.C,D10*%
X80250000Y-87500000D02*
X80750000Y-87500000D01*
X80250000Y-87900000D02*
X79650000Y-87500000D01*
X80250000Y-87100000D02*
X80250000Y-87900000D01*
X79650000Y-87500000D02*
X80250000Y-87100000D01*
X79650000Y-87500000D02*
X79650000Y-88050000D01*
X79650000Y-87500000D02*
X79650000Y-86950000D01*
X79250000Y-87500000D02*
X79650000Y-87500000D01*
%TO.C,D11*%
X80250000Y-68500000D02*
X80750000Y-68500000D01*
X80250000Y-68900000D02*
X79650000Y-68500000D01*
X80250000Y-68100000D02*
X80250000Y-68900000D01*
X79650000Y-68500000D02*
X80250000Y-68100000D01*
X79650000Y-68500000D02*
X79650000Y-69050000D01*
X79650000Y-68500000D02*
X79650000Y-67950000D01*
X79250000Y-68500000D02*
X79650000Y-68500000D01*
%TO.C,D12*%
X80250000Y-49500000D02*
X80750000Y-49500000D01*
X80250000Y-49900000D02*
X79650000Y-49500000D01*
X80250000Y-49100000D02*
X80250000Y-49900000D01*
X79650000Y-49500000D02*
X80250000Y-49100000D01*
X79650000Y-49500000D02*
X79650000Y-50050000D01*
X79650000Y-49500000D02*
X79650000Y-48950000D01*
X79250000Y-49500000D02*
X79650000Y-49500000D01*
%TO.C,D13*%
X100250000Y-102500000D02*
X100750000Y-102500000D01*
X100250000Y-102900000D02*
X99650000Y-102500000D01*
X100250000Y-102100000D02*
X100250000Y-102900000D01*
X99650000Y-102500000D02*
X100250000Y-102100000D01*
X99650000Y-102500000D02*
X99650000Y-103050000D01*
X99650000Y-102500000D02*
X99650000Y-101950000D01*
X99250000Y-102500000D02*
X99650000Y-102500000D01*
%TO.C,D14*%
X100250000Y-83500000D02*
X100750000Y-83500000D01*
X100250000Y-83900000D02*
X99650000Y-83500000D01*
X100250000Y-83100000D02*
X100250000Y-83900000D01*
X99650000Y-83500000D02*
X100250000Y-83100000D01*
X99650000Y-83500000D02*
X99650000Y-84050000D01*
X99650000Y-83500000D02*
X99650000Y-82950000D01*
X99250000Y-83500000D02*
X99650000Y-83500000D01*
%TO.C,D15*%
X100250000Y-64500000D02*
X100750000Y-64500000D01*
X100250000Y-64900000D02*
X99650000Y-64500000D01*
X100250000Y-64100000D02*
X100250000Y-64900000D01*
X99650000Y-64500000D02*
X100250000Y-64100000D01*
X99650000Y-64500000D02*
X99650000Y-65050000D01*
X99650000Y-64500000D02*
X99650000Y-63950000D01*
X99250000Y-64500000D02*
X99650000Y-64500000D01*
%TO.C,D16*%
X100250000Y-45500000D02*
X100750000Y-45500000D01*
X100250000Y-45900000D02*
X99650000Y-45500000D01*
X100250000Y-45100000D02*
X100250000Y-45900000D01*
X99650000Y-45500000D02*
X100250000Y-45100000D01*
X99650000Y-45500000D02*
X99650000Y-46050000D01*
X99650000Y-45500000D02*
X99650000Y-44950000D01*
X99250000Y-45500000D02*
X99650000Y-45500000D01*
%TO.C,D17*%
X120250000Y-106500000D02*
X120750000Y-106500000D01*
X120250000Y-106900000D02*
X119650000Y-106500000D01*
X120250000Y-106100000D02*
X120250000Y-106900000D01*
X119650000Y-106500000D02*
X120250000Y-106100000D01*
X119650000Y-106500000D02*
X119650000Y-107050000D01*
X119650000Y-106500000D02*
X119650000Y-105950000D01*
X119250000Y-106500000D02*
X119650000Y-106500000D01*
%TO.C,D18*%
X120250000Y-87500000D02*
X120750000Y-87500000D01*
X120250000Y-87900000D02*
X119650000Y-87500000D01*
X120250000Y-87100000D02*
X120250000Y-87900000D01*
X119650000Y-87500000D02*
X120250000Y-87100000D01*
X119650000Y-87500000D02*
X119650000Y-88050000D01*
X119650000Y-87500000D02*
X119650000Y-86950000D01*
X119250000Y-87500000D02*
X119650000Y-87500000D01*
%TO.C,D19*%
X120250000Y-68500000D02*
X120750000Y-68500000D01*
X120250000Y-68900000D02*
X119650000Y-68500000D01*
X120250000Y-68100000D02*
X120250000Y-68900000D01*
X119650000Y-68500000D02*
X120250000Y-68100000D01*
X119650000Y-68500000D02*
X119650000Y-69050000D01*
X119650000Y-68500000D02*
X119650000Y-67950000D01*
X119250000Y-68500000D02*
X119650000Y-68500000D01*
%TO.C,D20*%
X120250000Y-49500000D02*
X120750000Y-49500000D01*
X120250000Y-49900000D02*
X119650000Y-49500000D01*
X120250000Y-49100000D02*
X120250000Y-49900000D01*
X119650000Y-49500000D02*
X120250000Y-49100000D01*
X119650000Y-49500000D02*
X119650000Y-50050000D01*
X119650000Y-49500000D02*
X119650000Y-48950000D01*
X119250000Y-49500000D02*
X119650000Y-49500000D01*
%TO.C,D21*%
X140250000Y-112500000D02*
X140750000Y-112500000D01*
X140250000Y-112900000D02*
X139650000Y-112500000D01*
X140250000Y-112100000D02*
X140250000Y-112900000D01*
X139650000Y-112500000D02*
X140250000Y-112100000D01*
X139650000Y-112500000D02*
X139650000Y-113050000D01*
X139650000Y-112500000D02*
X139650000Y-111950000D01*
X139250000Y-112500000D02*
X139650000Y-112500000D01*
%TO.C,D22*%
X140250000Y-93500000D02*
X140750000Y-93500000D01*
X140250000Y-93900000D02*
X139650000Y-93500000D01*
X140250000Y-93100000D02*
X140250000Y-93900000D01*
X139650000Y-93500000D02*
X140250000Y-93100000D01*
X139650000Y-93500000D02*
X139650000Y-94050000D01*
X139650000Y-93500000D02*
X139650000Y-92950000D01*
X139250000Y-93500000D02*
X139650000Y-93500000D01*
%TO.C,D23*%
X140250000Y-74500000D02*
X140750000Y-74500000D01*
X140250000Y-74900000D02*
X139650000Y-74500000D01*
X140250000Y-74100000D02*
X140250000Y-74900000D01*
X139650000Y-74500000D02*
X140250000Y-74100000D01*
X139650000Y-74500000D02*
X139650000Y-75050000D01*
X139650000Y-74500000D02*
X139650000Y-73950000D01*
X139250000Y-74500000D02*
X139650000Y-74500000D01*
%TO.C,D24*%
X140250000Y-55500000D02*
X140750000Y-55500000D01*
X140250000Y-55900000D02*
X139650000Y-55500000D01*
X140250000Y-55100000D02*
X140250000Y-55900000D01*
X139650000Y-55500000D02*
X140250000Y-55100000D01*
X139650000Y-55500000D02*
X139650000Y-56050000D01*
X139650000Y-55500000D02*
X139650000Y-54950000D01*
X139250000Y-55500000D02*
X139650000Y-55500000D01*
%TO.C,D25*%
X80250000Y-128500000D02*
X80750000Y-128500000D01*
X80250000Y-128900000D02*
X79650000Y-128500000D01*
X80250000Y-128100000D02*
X80250000Y-128900000D01*
X79650000Y-128500000D02*
X80250000Y-128100000D01*
X79650000Y-128500000D02*
X79650000Y-129050000D01*
X79650000Y-128500000D02*
X79650000Y-127950000D01*
X79250000Y-128500000D02*
X79650000Y-128500000D01*
%TO.C,D26*%
X100250000Y-128500000D02*
X100750000Y-128500000D01*
X100250000Y-128900000D02*
X99650000Y-128500000D01*
X100250000Y-128100000D02*
X100250000Y-128900000D01*
X99650000Y-128500000D02*
X100250000Y-128100000D01*
X99650000Y-128500000D02*
X99650000Y-129050000D01*
X99650000Y-128500000D02*
X99650000Y-127950000D01*
X99250000Y-128500000D02*
X99650000Y-128500000D01*
%TO.C,D27*%
X119508249Y-129489489D02*
X120006346Y-129533067D01*
X119473386Y-129887967D02*
X118910532Y-129437195D01*
X119543111Y-129091011D02*
X119473386Y-129887967D01*
X118910532Y-129437195D02*
X119543111Y-129091011D01*
X118910532Y-129437195D02*
X118862596Y-129985103D01*
X118910532Y-129437195D02*
X118958468Y-128889288D01*
X118512054Y-129402333D02*
X118910532Y-129437195D01*
%TO.C,D28*%
X138168123Y-133559405D02*
X138637969Y-133730415D01*
X138031315Y-133935282D02*
X137604308Y-133354193D01*
X138304931Y-133183528D02*
X138031315Y-133935282D01*
X137604308Y-133354193D02*
X138304931Y-133183528D01*
X137604308Y-133354193D02*
X137416197Y-133871024D01*
X137604308Y-133354193D02*
X137792419Y-132837362D01*
X137228431Y-133217385D02*
X137604308Y-133354193D01*
%TO.C,D29*%
X153777111Y-142671497D02*
X154160133Y-142992891D01*
X153519996Y-142977915D02*
X153317484Y-142285824D01*
X154034226Y-142365079D02*
X153519996Y-142977915D01*
X153317484Y-142285824D02*
X154034226Y-142365079D01*
X153317484Y-142285824D02*
X152963951Y-142707149D01*
X153317484Y-142285824D02*
X153671018Y-141864500D01*
X153011067Y-142028709D02*
X153317484Y-142285824D01*
D12*
%TO.C,L1*%
X36200000Y-113400000D02*
X37800000Y-113400000D01*
X36200000Y-115000000D02*
X36200000Y-113400000D01*
%TO.C,L2*%
X36200000Y-94400000D02*
X37800000Y-94400000D01*
X36200000Y-96000000D02*
X36200000Y-94400000D01*
%TO.C,L3*%
X36200000Y-75400000D02*
X37800000Y-75400000D01*
X36200000Y-77000000D02*
X36200000Y-75400000D01*
%TO.C,L4*%
X36200000Y-56400000D02*
X37800000Y-56400000D01*
X36200000Y-58000000D02*
X36200000Y-56400000D01*
%TO.C,L5*%
X56200000Y-103400000D02*
X57800000Y-103400000D01*
X56200000Y-105000000D02*
X56200000Y-103400000D01*
%TO.C,L6*%
X56200000Y-84400000D02*
X57800000Y-84400000D01*
X56200000Y-86000000D02*
X56200000Y-84400000D01*
%TO.C,L7*%
X56200000Y-65400000D02*
X57800000Y-65400000D01*
X56200000Y-67000000D02*
X56200000Y-65400000D01*
%TO.C,L8*%
X56200000Y-46400000D02*
X57800000Y-46400000D01*
X56200000Y-48000000D02*
X56200000Y-46400000D01*
%TO.C,L9*%
X76200000Y-91400000D02*
X77800000Y-91400000D01*
X76200000Y-93000000D02*
X76200000Y-91400000D01*
%TO.C,L10*%
X76200000Y-72400000D02*
X77800000Y-72400000D01*
X76200000Y-74000000D02*
X76200000Y-72400000D01*
%TO.C,L11*%
X76200000Y-53400000D02*
X77800000Y-53400000D01*
X76200000Y-55000000D02*
X76200000Y-53400000D01*
%TO.C,L12*%
X76200000Y-34400000D02*
X77800000Y-34400000D01*
X76200000Y-36000000D02*
X76200000Y-34400000D01*
%TO.C,L13*%
X96200000Y-87400000D02*
X97800000Y-87400000D01*
X96200000Y-89000000D02*
X96200000Y-87400000D01*
%TO.C,L14*%
X96200000Y-68400000D02*
X97800000Y-68400000D01*
X96200000Y-70000000D02*
X96200000Y-68400000D01*
%TO.C,L15*%
X96200000Y-49400000D02*
X97800000Y-49400000D01*
X96200000Y-51000000D02*
X96200000Y-49400000D01*
%TO.C,L16*%
X96200000Y-30400000D02*
X97800000Y-30400000D01*
X96200000Y-32000000D02*
X96200000Y-30400000D01*
%TO.C,L17*%
X116200000Y-91400000D02*
X117800000Y-91400000D01*
X116200000Y-93000000D02*
X116200000Y-91400000D01*
%TO.C,L18*%
X116200000Y-72400000D02*
X117800000Y-72400000D01*
X116200000Y-74000000D02*
X116200000Y-72400000D01*
%TO.C,L19*%
X116200000Y-53400000D02*
X117800000Y-53400000D01*
X116200000Y-55000000D02*
X116200000Y-53400000D01*
%TO.C,L20*%
X116200000Y-34400000D02*
X117800000Y-34400000D01*
X116200000Y-36000000D02*
X116200000Y-34400000D01*
%TO.C,L21*%
X136200000Y-97400000D02*
X137800000Y-97400000D01*
X136200000Y-99000000D02*
X136200000Y-97400000D01*
%TO.C,L22*%
X136200000Y-78400000D02*
X137800000Y-78400000D01*
X136200000Y-80000000D02*
X136200000Y-78400000D01*
%TO.C,L23*%
X136200000Y-59400000D02*
X137800000Y-59400000D01*
X136200000Y-61000000D02*
X136200000Y-59400000D01*
%TO.C,L24*%
X136200000Y-40400000D02*
X137800000Y-40400000D01*
X136200000Y-42000000D02*
X136200000Y-40400000D01*
%TO.C,L25*%
X76200000Y-113400000D02*
X77800000Y-113400000D01*
X76200000Y-115000000D02*
X76200000Y-113400000D01*
%TO.C,L26*%
X96200000Y-113400000D02*
X97800000Y-113400000D01*
X96200000Y-115000000D02*
X96200000Y-113400000D01*
%TO.C,L27*%
X116789709Y-114093897D02*
X118383621Y-114233346D01*
X116650260Y-115687808D02*
X116789709Y-114093897D01*
%TO.C,L28*%
X139526900Y-117984815D02*
X141030408Y-118532047D01*
X138979668Y-119488323D02*
X139526900Y-117984815D01*
%TO.C,L29*%
X160380791Y-128500936D02*
X161606462Y-129529396D01*
X159352331Y-129726607D02*
X160380791Y-128500936D01*
D11*
%TO.C,RST1*%
X173600000Y-93650000D02*
X173850000Y-93650000D01*
X170600000Y-93650000D02*
X170350000Y-93650000D01*
X173850000Y-93900000D02*
X173850000Y-93650000D01*
X170350000Y-93900000D02*
X170350000Y-93650000D01*
X173850000Y-98100000D02*
X173850000Y-98350000D01*
X170350000Y-98100000D02*
X170350000Y-98350000D01*
X173600000Y-98350000D02*
X173850000Y-98350000D01*
X170600000Y-98350000D02*
X170350000Y-98350000D01*
D12*
%TO.C,PWR1*%
X170975000Y-107400000D02*
X170975000Y-107600000D01*
X172815000Y-109450000D02*
X172025000Y-109450000D01*
X172025000Y-102550000D02*
X172815000Y-102550000D01*
X170975000Y-104400000D02*
X170975000Y-106100000D01*
X173825000Y-103150000D02*
X173825000Y-108850000D01*
D10*
%TO.C,UB_1*%
X72500000Y-89500000D02*
X67500000Y-89500000D01*
X67500000Y-89500000D02*
X67500000Y-94500000D01*
X67500000Y-94500000D02*
X72500000Y-94500000D01*
X72500000Y-94500000D02*
X72500000Y-89500000D01*
X73000000Y-88500000D02*
X67000000Y-88500000D01*
X67000000Y-88500000D02*
X67000000Y-95500000D01*
X67000000Y-95500000D02*
X73000000Y-95500000D01*
X73000000Y-95500000D02*
X73000000Y-88500000D01*
D11*
X68000000Y-95500000D02*
X67000000Y-95500000D01*
X67000000Y-94000000D01*
X68000000Y-95500000D01*
G36*
X68000000Y-95500000D02*
G01*
X67000000Y-95500000D01*
X67000000Y-94000000D01*
X68000000Y-95500000D01*
G37*
D10*
%TO.C,UB_2*%
X72500000Y-51500000D02*
X67500000Y-51500000D01*
X67500000Y-51500000D02*
X67500000Y-56500000D01*
X67500000Y-56500000D02*
X72500000Y-56500000D01*
X72500000Y-56500000D02*
X72500000Y-51500000D01*
X73000000Y-50500000D02*
X67000000Y-50500000D01*
X67000000Y-50500000D02*
X67000000Y-57500000D01*
X67000000Y-57500000D02*
X73000000Y-57500000D01*
X73000000Y-57500000D02*
X73000000Y-50500000D01*
D11*
X68000000Y-57500000D02*
X67000000Y-57500000D01*
X67000000Y-56000000D01*
X68000000Y-57500000D01*
G36*
X68000000Y-57500000D02*
G01*
X67000000Y-57500000D01*
X67000000Y-56000000D01*
X68000000Y-57500000D01*
G37*
D10*
%TO.C,UB_3*%
X112500000Y-91500000D02*
X107500000Y-91500000D01*
X107500000Y-91500000D02*
X107500000Y-96500000D01*
X107500000Y-96500000D02*
X112500000Y-96500000D01*
X112500000Y-96500000D02*
X112500000Y-91500000D01*
X113000000Y-90500000D02*
X107000000Y-90500000D01*
X107000000Y-90500000D02*
X107000000Y-97500000D01*
X107000000Y-97500000D02*
X113000000Y-97500000D01*
X113000000Y-97500000D02*
X113000000Y-90500000D01*
D11*
X108000000Y-97500000D02*
X107000000Y-97500000D01*
X107000000Y-96000000D01*
X108000000Y-97500000D01*
G36*
X108000000Y-97500000D02*
G01*
X107000000Y-97500000D01*
X107000000Y-96000000D01*
X108000000Y-97500000D01*
G37*
D10*
%TO.C,UB_4*%
X112500000Y-53500000D02*
X107500000Y-53500000D01*
X107500000Y-53500000D02*
X107500000Y-58500000D01*
X107500000Y-58500000D02*
X112500000Y-58500000D01*
X112500000Y-58500000D02*
X112500000Y-53500000D01*
X113000000Y-52500000D02*
X107000000Y-52500000D01*
X107000000Y-52500000D02*
X107000000Y-59500000D01*
X107000000Y-59500000D02*
X113000000Y-59500000D01*
X113000000Y-59500000D02*
X113000000Y-52500000D01*
D11*
X108000000Y-59500000D02*
X107000000Y-59500000D01*
X107000000Y-58000000D01*
X108000000Y-59500000D01*
G36*
X108000000Y-59500000D02*
G01*
X107000000Y-59500000D01*
X107000000Y-58000000D01*
X108000000Y-59500000D01*
G37*
D10*
%TO.C,UB_5*%
X155500000Y-113500000D02*
X150500000Y-113500000D01*
X150500000Y-113500000D02*
X150500000Y-118500000D01*
X150500000Y-118500000D02*
X155500000Y-118500000D01*
X155500000Y-118500000D02*
X155500000Y-113500000D01*
X156000000Y-112500000D02*
X150000000Y-112500000D01*
X150000000Y-112500000D02*
X150000000Y-119500000D01*
X150000000Y-119500000D02*
X156000000Y-119500000D01*
X156000000Y-119500000D02*
X156000000Y-112500000D01*
D11*
X151000000Y-119500000D02*
X150000000Y-119500000D01*
X150000000Y-118000000D01*
X151000000Y-119500000D01*
G36*
X151000000Y-119500000D02*
G01*
X150000000Y-119500000D01*
X150000000Y-118000000D01*
X151000000Y-119500000D01*
G37*
D10*
%TO.C,UB_6*%
X155500000Y-83500000D02*
X150500000Y-83500000D01*
X150500000Y-83500000D02*
X150500000Y-88500000D01*
X150500000Y-88500000D02*
X155500000Y-88500000D01*
X155500000Y-88500000D02*
X155500000Y-83500000D01*
X156000000Y-82500000D02*
X150000000Y-82500000D01*
X150000000Y-82500000D02*
X150000000Y-89500000D01*
X150000000Y-89500000D02*
X156000000Y-89500000D01*
X156000000Y-89500000D02*
X156000000Y-82500000D01*
D11*
X151000000Y-89500000D02*
X150000000Y-89500000D01*
X150000000Y-88000000D01*
X151000000Y-89500000D01*
G36*
X151000000Y-89500000D02*
G01*
X150000000Y-89500000D01*
X150000000Y-88000000D01*
X151000000Y-89500000D01*
G37*
%TD*%
D13*
%TO.C,MCU1*%
X154380000Y-39030000D03*
D14*
X154380000Y-41570000D03*
X154380000Y-44110000D03*
X154380000Y-46650000D03*
X154380000Y-49190000D03*
X154380000Y-51730000D03*
X154380000Y-54270000D03*
X154380000Y-56810000D03*
X154380000Y-59350000D03*
X154380000Y-61890000D03*
X154380000Y-64430000D03*
X154380000Y-66970000D03*
X169620000Y-39030000D03*
X169620000Y-41570000D03*
X169620000Y-44110000D03*
X169620000Y-46650000D03*
X169620000Y-49190000D03*
X169620000Y-51730000D03*
X169620000Y-54270000D03*
X169620000Y-56810000D03*
X169620000Y-59350000D03*
X169620000Y-61890000D03*
X169620000Y-64430000D03*
X169620000Y-66970000D03*
%TD*%
M02*
