%TF.GenerationSoftware,KiCad,Pcbnew,8.0.4*%
%TF.CreationDate,2024-11-01T23:58:40-06:00*%
%TF.ProjectId,boost58,626f6f73-7435-4382-9e6b-696361645f70,0.1*%
%TF.SameCoordinates,Original*%
%TF.FileFunction,Drillmap*%
%TF.FilePolarity,Positive*%
%FSLAX45Y45*%
G04 Gerber Fmt 4.5, Leading zero omitted, Abs format (unit mm)*
G04 Created by KiCad (PCBNEW 8.0.4) date 2024-11-01 23:58:40*
%MOMM*%
%LPD*%
G01*
G04 APERTURE LIST*
%ADD10C,0.150000*%
%ADD11C,0.120000*%
%ADD12C,0.200000*%
%ADD13C,0.320000*%
G04 APERTURE END LIST*
D10*
X12522032Y-13660553D02*
G75*
G02*
X12532226Y-13662813I-3472J-39787D01*
G01*
X10850000Y-2740000D02*
X10850000Y-3060000D01*
X8550000Y-2740000D02*
G75*
G02*
X8590000Y-2700000I40000J0D01*
G01*
X15164288Y-11933697D02*
X17267789Y-13698744D01*
X12532226Y-13662813D02*
X14219244Y-14276837D01*
X8550000Y-3060000D02*
X8550000Y-2740000D01*
X15781452Y-15532320D02*
X17272720Y-13755097D01*
X15781452Y-15532320D02*
G75*
G02*
X15725098Y-15537251I-30642J25710D01*
G01*
X6650000Y-4260000D02*
X6650000Y-3140000D01*
X8550000Y-3060000D02*
G75*
G02*
X8510000Y-3100000I-40000J0D01*
G01*
X17010000Y-3700000D02*
G75*
G02*
X17050000Y-3740000I0J-40000D01*
G01*
X10810000Y-2700000D02*
G75*
G02*
X10850000Y-2740000I0J-40000D01*
G01*
X2890000Y-13500000D02*
X10685155Y-13500000D01*
X17010000Y-10500000D02*
X15190000Y-10500000D01*
X2890000Y-5100000D02*
X4710000Y-5100000D01*
X10688642Y-13500152D02*
X12522032Y-13660553D01*
X15164288Y-11933697D02*
G75*
G02*
X15149999Y-11903055I25722J30647D01*
G01*
X2850000Y-5140000D02*
G75*
G02*
X2890000Y-5100000I40000J0D01*
G01*
X4750000Y-4340000D02*
G75*
G02*
X4790000Y-4300000I40000J0D01*
G01*
X4750000Y-5060000D02*
X4750000Y-4340000D01*
X17267789Y-13698744D02*
G75*
G02*
X17272715Y-13755093I-25699J-30636D01*
G01*
X2890000Y-13500000D02*
G75*
G02*
X2850000Y-13460000I0J40000D01*
G01*
X12710000Y-3100000D02*
G75*
G02*
X12750000Y-3140000I0J-40000D01*
G01*
X15150000Y-10540000D02*
G75*
G02*
X15190000Y-10500000I40000J0D01*
G01*
X17050000Y-10460000D02*
X17050000Y-3740000D01*
X4750000Y-5060000D02*
G75*
G02*
X4710000Y-5100000I-40000J0D01*
G01*
X8590000Y-2700000D02*
X10810000Y-2700000D01*
X6650000Y-4260000D02*
G75*
G02*
X6610000Y-4300000I-40000J0D01*
G01*
X6650000Y-3140000D02*
G75*
G02*
X6690000Y-3100000I40000J0D01*
G01*
X12790000Y-3700000D02*
X17010000Y-3700000D01*
X15150000Y-11903055D02*
X15150000Y-10540000D01*
X2850000Y-13460000D02*
X2850000Y-5140000D01*
X4790000Y-4300000D02*
X6610000Y-4300000D01*
X10890000Y-3100000D02*
G75*
G02*
X10850000Y-3060000I0J40000D01*
G01*
X12790000Y-3700000D02*
G75*
G02*
X12750000Y-3660000I0J40000D01*
G01*
X10685155Y-13500000D02*
G75*
G02*
X10688642Y-13500153I-15J-40250D01*
G01*
X17050000Y-10460000D02*
G75*
G02*
X17010000Y-10500000I-40000J0D01*
G01*
X10890000Y-3100000D02*
X12710000Y-3100000D01*
X6690000Y-3100000D02*
X8510000Y-3100000D01*
X14231275Y-14283783D02*
X15725099Y-15537251D01*
X12750000Y-3140000D02*
X12750000Y-3660000D01*
X14219244Y-14276837D02*
G75*
G02*
X14231276Y-14283782I-13654J-37553D01*
G01*
D11*
X5720000Y-4845000D02*
X6080000Y-4845000D01*
X6080000Y-5155000D01*
X5720000Y-5155000D01*
X5720000Y-4845000D01*
X7620000Y-5545000D02*
X7980000Y-5545000D01*
X7980000Y-5855000D01*
X7620000Y-5855000D01*
X7620000Y-5545000D01*
X13320000Y-8045000D02*
X13680000Y-8045000D01*
X13680000Y-8355000D01*
X13320000Y-8355000D01*
X13320000Y-8045000D01*
X7620000Y-11645000D02*
X7980000Y-11645000D01*
X7980000Y-11955000D01*
X7620000Y-11955000D01*
X7620000Y-11645000D01*
X11420000Y-7445000D02*
X11780000Y-7445000D01*
X11780000Y-7755000D01*
X11420000Y-7755000D01*
X11420000Y-7445000D01*
X5720000Y-8645000D02*
X6080000Y-8645000D01*
X6080000Y-8955000D01*
X5720000Y-8955000D01*
X5720000Y-8645000D01*
X3820000Y-11345000D02*
X4180000Y-11345000D01*
X4180000Y-11655000D01*
X3820000Y-11655000D01*
X3820000Y-11345000D01*
X13320000Y-4245000D02*
X13680000Y-4245000D01*
X13680000Y-4555000D01*
X13320000Y-4555000D01*
X13320000Y-4245000D01*
X7620000Y-3645000D02*
X7980000Y-3645000D01*
X7980000Y-3955000D01*
X7620000Y-3955000D01*
X7620000Y-3645000D01*
X11420000Y-5545000D02*
X11780000Y-5545000D01*
X11780000Y-5855000D01*
X11420000Y-5855000D01*
X11420000Y-5545000D01*
X16205050Y-13518445D02*
X16005786Y-13755919D01*
X15730010Y-13524515D01*
X15929274Y-13287041D01*
X16205050Y-13518445D01*
X11911414Y-11745048D02*
X11884396Y-12053868D01*
X11525766Y-12022492D01*
X11552784Y-11713672D01*
X11911414Y-11745048D01*
X3820000Y-7545000D02*
X4180000Y-7545000D01*
X4180000Y-7855000D01*
X3820000Y-7855000D01*
X3820000Y-7545000D01*
X9520000Y-8945000D02*
X9880000Y-8945000D01*
X9880000Y-9255000D01*
X9520000Y-9255000D01*
X9520000Y-8945000D01*
X5720000Y-6745000D02*
X6080000Y-6745000D01*
X6080000Y-7055000D01*
X5720000Y-7055000D01*
X5720000Y-6745000D01*
X13320000Y-9945000D02*
X13680000Y-9945000D01*
X13680000Y-10255000D01*
X13320000Y-10255000D01*
X13320000Y-9945000D01*
X7620000Y-7445000D02*
X7980000Y-7445000D01*
X7980000Y-7755000D01*
X7620000Y-7755000D01*
X7620000Y-7445000D01*
X9520000Y-5145000D02*
X9880000Y-5145000D01*
X9880000Y-5455000D01*
X9520000Y-5455000D01*
X9520000Y-5145000D01*
X9520000Y-7045000D02*
X9880000Y-7045000D01*
X9880000Y-7355000D01*
X9520000Y-7355000D01*
X9520000Y-7045000D01*
X5720000Y-10545000D02*
X6080000Y-10545000D01*
X6080000Y-10855000D01*
X5720000Y-10855000D01*
X5720000Y-10545000D01*
X7620000Y-9345000D02*
X7980000Y-9345000D01*
X7980000Y-9655000D01*
X7620000Y-9655000D01*
X7620000Y-9345000D01*
X9520000Y-3245000D02*
X9880000Y-3245000D01*
X9880000Y-3555000D01*
X9520000Y-3555000D01*
X9520000Y-3245000D01*
X11420000Y-3645000D02*
X11780000Y-3645000D01*
X11780000Y-3955000D01*
X11420000Y-3955000D01*
X11420000Y-3645000D01*
X3820000Y-5645000D02*
X4180000Y-5645000D01*
X4180000Y-5955000D01*
X3820000Y-5955000D01*
X3820000Y-5645000D01*
X14139478Y-12273751D02*
X14033451Y-12565056D01*
X13695162Y-12441929D01*
X13801188Y-12150624D01*
X14139478Y-12273751D01*
X3820000Y-9445000D02*
X4180000Y-9445000D01*
X4180000Y-9755000D01*
X3820000Y-9755000D01*
X3820000Y-9445000D01*
X9520000Y-11645000D02*
X9880000Y-11645000D01*
X9880000Y-11955000D01*
X9520000Y-11955000D01*
X9520000Y-11645000D01*
X11420000Y-9345000D02*
X11780000Y-9345000D01*
X11780000Y-9655000D01*
X11420000Y-9655000D01*
X11420000Y-9345000D01*
X13320000Y-6145000D02*
X13680000Y-6145000D01*
X13680000Y-6455000D01*
X13320000Y-6455000D01*
X13320000Y-6145000D01*
D12*
D10*
X16165000Y-7595000D02*
X16315000Y-7745000D01*
X16315000Y-7595000D02*
X16165000Y-7745000D01*
X16165000Y-7825000D02*
X16315000Y-7975000D01*
X16315000Y-7825000D02*
X16165000Y-7975000D01*
X16865000Y-7595000D02*
X17015000Y-7745000D01*
X17015000Y-7595000D02*
X16865000Y-7745000D01*
X16865000Y-7825000D02*
X17015000Y-7975000D01*
X17015000Y-7825000D02*
X16865000Y-7975000D01*
D13*
X5260000Y-6450000D02*
G75*
G02*
X4940000Y-6450000I-160000J0D01*
G01*
X4940000Y-6450000D02*
G75*
G02*
X5260000Y-6450000I160000J0D01*
G01*
X5260000Y-12150000D02*
G75*
G02*
X4940000Y-12150000I-160000J0D01*
G01*
X4940000Y-12150000D02*
G75*
G02*
X5260000Y-12150000I160000J0D01*
G01*
X9160000Y-4850000D02*
G75*
G02*
X8840000Y-4850000I-160000J0D01*
G01*
X8840000Y-4850000D02*
G75*
G02*
X9160000Y-4850000I160000J0D01*
G01*
X9160000Y-10950000D02*
G75*
G02*
X8840000Y-10950000I-160000J0D01*
G01*
X8840000Y-10950000D02*
G75*
G02*
X9160000Y-10950000I160000J0D01*
G01*
X14760000Y-4300000D02*
G75*
G02*
X14440000Y-4300000I-160000J0D01*
G01*
X14440000Y-4300000D02*
G75*
G02*
X14760000Y-4300000I160000J0D01*
G01*
X14760000Y-11700000D02*
G75*
G02*
X14440000Y-11700000I-160000J0D01*
G01*
X14440000Y-11700000D02*
G75*
G02*
X14760000Y-11700000I160000J0D01*
G01*
D12*
X3103277Y-15865593D02*
X3103277Y-15665593D01*
X3103277Y-15665593D02*
X3150896Y-15665593D01*
X3150896Y-15665593D02*
X3179467Y-15675117D01*
X3179467Y-15675117D02*
X3198515Y-15694165D01*
X3198515Y-15694165D02*
X3208039Y-15713212D01*
X3208039Y-15713212D02*
X3217562Y-15751307D01*
X3217562Y-15751307D02*
X3217562Y-15779879D01*
X3217562Y-15779879D02*
X3208039Y-15817974D01*
X3208039Y-15817974D02*
X3198515Y-15837022D01*
X3198515Y-15837022D02*
X3179467Y-15856069D01*
X3179467Y-15856069D02*
X3150896Y-15865593D01*
X3150896Y-15865593D02*
X3103277Y-15865593D01*
X3303277Y-15865593D02*
X3303277Y-15732260D01*
X3303277Y-15770355D02*
X3312801Y-15751307D01*
X3312801Y-15751307D02*
X3322324Y-15741784D01*
X3322324Y-15741784D02*
X3341372Y-15732260D01*
X3341372Y-15732260D02*
X3360420Y-15732260D01*
X3427086Y-15865593D02*
X3427086Y-15732260D01*
X3427086Y-15665593D02*
X3417562Y-15675117D01*
X3417562Y-15675117D02*
X3427086Y-15684641D01*
X3427086Y-15684641D02*
X3436610Y-15675117D01*
X3436610Y-15675117D02*
X3427086Y-15665593D01*
X3427086Y-15665593D02*
X3427086Y-15684641D01*
X3550896Y-15865593D02*
X3531848Y-15856069D01*
X3531848Y-15856069D02*
X3522324Y-15837022D01*
X3522324Y-15837022D02*
X3522324Y-15665593D01*
X3655658Y-15865593D02*
X3636610Y-15856069D01*
X3636610Y-15856069D02*
X3627086Y-15837022D01*
X3627086Y-15837022D02*
X3627086Y-15665593D01*
X3884229Y-15865593D02*
X3884229Y-15665593D01*
X3884229Y-15665593D02*
X3950896Y-15808450D01*
X3950896Y-15808450D02*
X4017562Y-15665593D01*
X4017562Y-15665593D02*
X4017562Y-15865593D01*
X4198515Y-15865593D02*
X4198515Y-15760831D01*
X4198515Y-15760831D02*
X4188991Y-15741784D01*
X4188991Y-15741784D02*
X4169943Y-15732260D01*
X4169943Y-15732260D02*
X4131848Y-15732260D01*
X4131848Y-15732260D02*
X4112801Y-15741784D01*
X4198515Y-15856069D02*
X4179467Y-15865593D01*
X4179467Y-15865593D02*
X4131848Y-15865593D01*
X4131848Y-15865593D02*
X4112801Y-15856069D01*
X4112801Y-15856069D02*
X4103277Y-15837022D01*
X4103277Y-15837022D02*
X4103277Y-15817974D01*
X4103277Y-15817974D02*
X4112801Y-15798927D01*
X4112801Y-15798927D02*
X4131848Y-15789403D01*
X4131848Y-15789403D02*
X4179467Y-15789403D01*
X4179467Y-15789403D02*
X4198515Y-15779879D01*
X4293753Y-15732260D02*
X4293753Y-15932260D01*
X4293753Y-15741784D02*
X4312801Y-15732260D01*
X4312801Y-15732260D02*
X4350896Y-15732260D01*
X4350896Y-15732260D02*
X4369944Y-15741784D01*
X4369944Y-15741784D02*
X4379467Y-15751307D01*
X4379467Y-15751307D02*
X4388991Y-15770355D01*
X4388991Y-15770355D02*
X4388991Y-15827498D01*
X4388991Y-15827498D02*
X4379467Y-15846546D01*
X4379467Y-15846546D02*
X4369944Y-15856069D01*
X4369944Y-15856069D02*
X4350896Y-15865593D01*
X4350896Y-15865593D02*
X4312801Y-15865593D01*
X4312801Y-15865593D02*
X4293753Y-15856069D01*
X4474705Y-15846546D02*
X4484229Y-15856069D01*
X4484229Y-15856069D02*
X4474705Y-15865593D01*
X4474705Y-15865593D02*
X4465182Y-15856069D01*
X4465182Y-15856069D02*
X4474705Y-15846546D01*
X4474705Y-15846546D02*
X4474705Y-15865593D01*
X4474705Y-15741784D02*
X4484229Y-15751307D01*
X4484229Y-15751307D02*
X4474705Y-15760831D01*
X4474705Y-15760831D02*
X4465182Y-15751307D01*
X4465182Y-15751307D02*
X4474705Y-15741784D01*
X4474705Y-15741784D02*
X4474705Y-15760831D01*
D10*
X2692500Y-16119109D02*
X2842500Y-16269109D01*
X2842500Y-16119109D02*
X2692500Y-16269109D01*
D12*
X3208039Y-16285593D02*
X3093753Y-16285593D01*
X3150896Y-16285593D02*
X3150896Y-16085593D01*
X3150896Y-16085593D02*
X3131848Y-16114165D01*
X3131848Y-16114165D02*
X3112801Y-16133212D01*
X3112801Y-16133212D02*
X3093753Y-16142736D01*
X3293753Y-16266546D02*
X3303277Y-16276069D01*
X3303277Y-16276069D02*
X3293753Y-16285593D01*
X3293753Y-16285593D02*
X3284229Y-16276069D01*
X3284229Y-16276069D02*
X3293753Y-16266546D01*
X3293753Y-16266546D02*
X3293753Y-16285593D01*
X3484229Y-16085593D02*
X3388991Y-16085593D01*
X3388991Y-16085593D02*
X3379467Y-16180831D01*
X3379467Y-16180831D02*
X3388991Y-16171307D01*
X3388991Y-16171307D02*
X3408039Y-16161784D01*
X3408039Y-16161784D02*
X3455658Y-16161784D01*
X3455658Y-16161784D02*
X3474705Y-16171307D01*
X3474705Y-16171307D02*
X3484229Y-16180831D01*
X3484229Y-16180831D02*
X3493753Y-16199879D01*
X3493753Y-16199879D02*
X3493753Y-16247498D01*
X3493753Y-16247498D02*
X3484229Y-16266546D01*
X3484229Y-16266546D02*
X3474705Y-16276069D01*
X3474705Y-16276069D02*
X3455658Y-16285593D01*
X3455658Y-16285593D02*
X3408039Y-16285593D01*
X3408039Y-16285593D02*
X3388991Y-16276069D01*
X3388991Y-16276069D02*
X3379467Y-16266546D01*
X3617562Y-16085593D02*
X3636610Y-16085593D01*
X3636610Y-16085593D02*
X3655658Y-16095117D01*
X3655658Y-16095117D02*
X3665182Y-16104641D01*
X3665182Y-16104641D02*
X3674705Y-16123688D01*
X3674705Y-16123688D02*
X3684229Y-16161784D01*
X3684229Y-16161784D02*
X3684229Y-16209403D01*
X3684229Y-16209403D02*
X3674705Y-16247498D01*
X3674705Y-16247498D02*
X3665182Y-16266546D01*
X3665182Y-16266546D02*
X3655658Y-16276069D01*
X3655658Y-16276069D02*
X3636610Y-16285593D01*
X3636610Y-16285593D02*
X3617562Y-16285593D01*
X3617562Y-16285593D02*
X3598515Y-16276069D01*
X3598515Y-16276069D02*
X3588991Y-16266546D01*
X3588991Y-16266546D02*
X3579467Y-16247498D01*
X3579467Y-16247498D02*
X3569943Y-16209403D01*
X3569943Y-16209403D02*
X3569943Y-16161784D01*
X3569943Y-16161784D02*
X3579467Y-16123688D01*
X3579467Y-16123688D02*
X3588991Y-16104641D01*
X3588991Y-16104641D02*
X3598515Y-16095117D01*
X3598515Y-16095117D02*
X3617562Y-16085593D01*
X3808039Y-16085593D02*
X3827086Y-16085593D01*
X3827086Y-16085593D02*
X3846134Y-16095117D01*
X3846134Y-16095117D02*
X3855658Y-16104641D01*
X3855658Y-16104641D02*
X3865182Y-16123688D01*
X3865182Y-16123688D02*
X3874705Y-16161784D01*
X3874705Y-16161784D02*
X3874705Y-16209403D01*
X3874705Y-16209403D02*
X3865182Y-16247498D01*
X3865182Y-16247498D02*
X3855658Y-16266546D01*
X3855658Y-16266546D02*
X3846134Y-16276069D01*
X3846134Y-16276069D02*
X3827086Y-16285593D01*
X3827086Y-16285593D02*
X3808039Y-16285593D01*
X3808039Y-16285593D02*
X3788991Y-16276069D01*
X3788991Y-16276069D02*
X3779467Y-16266546D01*
X3779467Y-16266546D02*
X3769943Y-16247498D01*
X3769943Y-16247498D02*
X3760420Y-16209403D01*
X3760420Y-16209403D02*
X3760420Y-16161784D01*
X3760420Y-16161784D02*
X3769943Y-16123688D01*
X3769943Y-16123688D02*
X3779467Y-16104641D01*
X3779467Y-16104641D02*
X3788991Y-16095117D01*
X3788991Y-16095117D02*
X3808039Y-16085593D01*
X3960420Y-16285593D02*
X3960420Y-16152260D01*
X3960420Y-16171307D02*
X3969943Y-16161784D01*
X3969943Y-16161784D02*
X3988991Y-16152260D01*
X3988991Y-16152260D02*
X4017563Y-16152260D01*
X4017563Y-16152260D02*
X4036610Y-16161784D01*
X4036610Y-16161784D02*
X4046134Y-16180831D01*
X4046134Y-16180831D02*
X4046134Y-16285593D01*
X4046134Y-16180831D02*
X4055658Y-16161784D01*
X4055658Y-16161784D02*
X4074705Y-16152260D01*
X4074705Y-16152260D02*
X4103277Y-16152260D01*
X4103277Y-16152260D02*
X4122324Y-16161784D01*
X4122324Y-16161784D02*
X4131848Y-16180831D01*
X4131848Y-16180831D02*
X4131848Y-16285593D01*
X4227086Y-16285593D02*
X4227086Y-16152260D01*
X4227086Y-16171307D02*
X4236610Y-16161784D01*
X4236610Y-16161784D02*
X4255658Y-16152260D01*
X4255658Y-16152260D02*
X4284229Y-16152260D01*
X4284229Y-16152260D02*
X4303277Y-16161784D01*
X4303277Y-16161784D02*
X4312801Y-16180831D01*
X4312801Y-16180831D02*
X4312801Y-16285593D01*
X4312801Y-16180831D02*
X4322325Y-16161784D01*
X4322325Y-16161784D02*
X4341372Y-16152260D01*
X4341372Y-16152260D02*
X4369944Y-16152260D01*
X4369944Y-16152260D02*
X4388991Y-16161784D01*
X4388991Y-16161784D02*
X4398515Y-16180831D01*
X4398515Y-16180831D02*
X4398515Y-16285593D01*
X4788991Y-16076069D02*
X4617563Y-16333212D01*
X5046134Y-16085593D02*
X5065182Y-16085593D01*
X5065182Y-16085593D02*
X5084229Y-16095117D01*
X5084229Y-16095117D02*
X5093753Y-16104641D01*
X5093753Y-16104641D02*
X5103277Y-16123688D01*
X5103277Y-16123688D02*
X5112801Y-16161784D01*
X5112801Y-16161784D02*
X5112801Y-16209403D01*
X5112801Y-16209403D02*
X5103277Y-16247498D01*
X5103277Y-16247498D02*
X5093753Y-16266546D01*
X5093753Y-16266546D02*
X5084229Y-16276069D01*
X5084229Y-16276069D02*
X5065182Y-16285593D01*
X5065182Y-16285593D02*
X5046134Y-16285593D01*
X5046134Y-16285593D02*
X5027087Y-16276069D01*
X5027087Y-16276069D02*
X5017563Y-16266546D01*
X5017563Y-16266546D02*
X5008039Y-16247498D01*
X5008039Y-16247498D02*
X4998515Y-16209403D01*
X4998515Y-16209403D02*
X4998515Y-16161784D01*
X4998515Y-16161784D02*
X5008039Y-16123688D01*
X5008039Y-16123688D02*
X5017563Y-16104641D01*
X5017563Y-16104641D02*
X5027087Y-16095117D01*
X5027087Y-16095117D02*
X5046134Y-16085593D01*
X5198515Y-16266546D02*
X5208039Y-16276069D01*
X5208039Y-16276069D02*
X5198515Y-16285593D01*
X5198515Y-16285593D02*
X5188991Y-16276069D01*
X5188991Y-16276069D02*
X5198515Y-16266546D01*
X5198515Y-16266546D02*
X5198515Y-16285593D01*
X5331848Y-16085593D02*
X5350896Y-16085593D01*
X5350896Y-16085593D02*
X5369944Y-16095117D01*
X5369944Y-16095117D02*
X5379468Y-16104641D01*
X5379468Y-16104641D02*
X5388991Y-16123688D01*
X5388991Y-16123688D02*
X5398515Y-16161784D01*
X5398515Y-16161784D02*
X5398515Y-16209403D01*
X5398515Y-16209403D02*
X5388991Y-16247498D01*
X5388991Y-16247498D02*
X5379468Y-16266546D01*
X5379468Y-16266546D02*
X5369944Y-16276069D01*
X5369944Y-16276069D02*
X5350896Y-16285593D01*
X5350896Y-16285593D02*
X5331848Y-16285593D01*
X5331848Y-16285593D02*
X5312801Y-16276069D01*
X5312801Y-16276069D02*
X5303277Y-16266546D01*
X5303277Y-16266546D02*
X5293753Y-16247498D01*
X5293753Y-16247498D02*
X5284229Y-16209403D01*
X5284229Y-16209403D02*
X5284229Y-16161784D01*
X5284229Y-16161784D02*
X5293753Y-16123688D01*
X5293753Y-16123688D02*
X5303277Y-16104641D01*
X5303277Y-16104641D02*
X5312801Y-16095117D01*
X5312801Y-16095117D02*
X5331848Y-16085593D01*
X5579468Y-16085593D02*
X5484229Y-16085593D01*
X5484229Y-16085593D02*
X5474706Y-16180831D01*
X5474706Y-16180831D02*
X5484229Y-16171307D01*
X5484229Y-16171307D02*
X5503277Y-16161784D01*
X5503277Y-16161784D02*
X5550896Y-16161784D01*
X5550896Y-16161784D02*
X5569944Y-16171307D01*
X5569944Y-16171307D02*
X5579468Y-16180831D01*
X5579468Y-16180831D02*
X5588991Y-16199879D01*
X5588991Y-16199879D02*
X5588991Y-16247498D01*
X5588991Y-16247498D02*
X5579468Y-16266546D01*
X5579468Y-16266546D02*
X5569944Y-16276069D01*
X5569944Y-16276069D02*
X5550896Y-16285593D01*
X5550896Y-16285593D02*
X5503277Y-16285593D01*
X5503277Y-16285593D02*
X5484229Y-16276069D01*
X5484229Y-16276069D02*
X5474706Y-16266546D01*
X5684229Y-16285593D02*
X5722325Y-16285593D01*
X5722325Y-16285593D02*
X5741372Y-16276069D01*
X5741372Y-16276069D02*
X5750896Y-16266546D01*
X5750896Y-16266546D02*
X5769944Y-16237974D01*
X5769944Y-16237974D02*
X5779467Y-16199879D01*
X5779467Y-16199879D02*
X5779467Y-16123688D01*
X5779467Y-16123688D02*
X5769944Y-16104641D01*
X5769944Y-16104641D02*
X5760420Y-16095117D01*
X5760420Y-16095117D02*
X5741372Y-16085593D01*
X5741372Y-16085593D02*
X5703277Y-16085593D01*
X5703277Y-16085593D02*
X5684229Y-16095117D01*
X5684229Y-16095117D02*
X5674706Y-16104641D01*
X5674706Y-16104641D02*
X5665182Y-16123688D01*
X5665182Y-16123688D02*
X5665182Y-16171307D01*
X5665182Y-16171307D02*
X5674706Y-16190355D01*
X5674706Y-16190355D02*
X5684229Y-16199879D01*
X5684229Y-16199879D02*
X5703277Y-16209403D01*
X5703277Y-16209403D02*
X5741372Y-16209403D01*
X5741372Y-16209403D02*
X5760420Y-16199879D01*
X5760420Y-16199879D02*
X5769944Y-16190355D01*
X5769944Y-16190355D02*
X5779467Y-16171307D01*
X5969944Y-16285593D02*
X5855658Y-16285593D01*
X5912801Y-16285593D02*
X5912801Y-16085593D01*
X5912801Y-16085593D02*
X5893753Y-16114165D01*
X5893753Y-16114165D02*
X5874706Y-16133212D01*
X5874706Y-16133212D02*
X5855658Y-16142736D01*
X6046134Y-16085593D02*
X6046134Y-16123688D01*
X6122325Y-16085593D02*
X6122325Y-16123688D01*
X6417563Y-16361784D02*
X6408039Y-16352260D01*
X6408039Y-16352260D02*
X6388991Y-16323688D01*
X6388991Y-16323688D02*
X6379468Y-16304641D01*
X6379468Y-16304641D02*
X6369944Y-16276069D01*
X6369944Y-16276069D02*
X6360420Y-16228450D01*
X6360420Y-16228450D02*
X6360420Y-16190355D01*
X6360420Y-16190355D02*
X6369944Y-16142736D01*
X6369944Y-16142736D02*
X6379468Y-16114165D01*
X6379468Y-16114165D02*
X6388991Y-16095117D01*
X6388991Y-16095117D02*
X6408039Y-16066546D01*
X6408039Y-16066546D02*
X6417563Y-16057022D01*
X6579468Y-16152260D02*
X6579468Y-16285593D01*
X6531848Y-16076069D02*
X6484229Y-16218927D01*
X6484229Y-16218927D02*
X6608039Y-16218927D01*
X6836610Y-16285593D02*
X6836610Y-16085593D01*
X6922325Y-16285593D02*
X6922325Y-16180831D01*
X6922325Y-16180831D02*
X6912801Y-16161784D01*
X6912801Y-16161784D02*
X6893753Y-16152260D01*
X6893753Y-16152260D02*
X6865182Y-16152260D01*
X6865182Y-16152260D02*
X6846134Y-16161784D01*
X6846134Y-16161784D02*
X6836610Y-16171307D01*
X7046134Y-16285593D02*
X7027087Y-16276069D01*
X7027087Y-16276069D02*
X7017563Y-16266546D01*
X7017563Y-16266546D02*
X7008039Y-16247498D01*
X7008039Y-16247498D02*
X7008039Y-16190355D01*
X7008039Y-16190355D02*
X7017563Y-16171307D01*
X7017563Y-16171307D02*
X7027087Y-16161784D01*
X7027087Y-16161784D02*
X7046134Y-16152260D01*
X7046134Y-16152260D02*
X7074706Y-16152260D01*
X7074706Y-16152260D02*
X7093753Y-16161784D01*
X7093753Y-16161784D02*
X7103277Y-16171307D01*
X7103277Y-16171307D02*
X7112801Y-16190355D01*
X7112801Y-16190355D02*
X7112801Y-16247498D01*
X7112801Y-16247498D02*
X7103277Y-16266546D01*
X7103277Y-16266546D02*
X7093753Y-16276069D01*
X7093753Y-16276069D02*
X7074706Y-16285593D01*
X7074706Y-16285593D02*
X7046134Y-16285593D01*
X7227087Y-16285593D02*
X7208039Y-16276069D01*
X7208039Y-16276069D02*
X7198515Y-16257022D01*
X7198515Y-16257022D02*
X7198515Y-16085593D01*
X7379468Y-16276069D02*
X7360420Y-16285593D01*
X7360420Y-16285593D02*
X7322325Y-16285593D01*
X7322325Y-16285593D02*
X7303277Y-16276069D01*
X7303277Y-16276069D02*
X7293753Y-16257022D01*
X7293753Y-16257022D02*
X7293753Y-16180831D01*
X7293753Y-16180831D02*
X7303277Y-16161784D01*
X7303277Y-16161784D02*
X7322325Y-16152260D01*
X7322325Y-16152260D02*
X7360420Y-16152260D01*
X7360420Y-16152260D02*
X7379468Y-16161784D01*
X7379468Y-16161784D02*
X7388991Y-16180831D01*
X7388991Y-16180831D02*
X7388991Y-16199879D01*
X7388991Y-16199879D02*
X7293753Y-16218927D01*
X7465182Y-16276069D02*
X7484230Y-16285593D01*
X7484230Y-16285593D02*
X7522325Y-16285593D01*
X7522325Y-16285593D02*
X7541372Y-16276069D01*
X7541372Y-16276069D02*
X7550896Y-16257022D01*
X7550896Y-16257022D02*
X7550896Y-16247498D01*
X7550896Y-16247498D02*
X7541372Y-16228450D01*
X7541372Y-16228450D02*
X7522325Y-16218927D01*
X7522325Y-16218927D02*
X7493753Y-16218927D01*
X7493753Y-16218927D02*
X7474706Y-16209403D01*
X7474706Y-16209403D02*
X7465182Y-16190355D01*
X7465182Y-16190355D02*
X7465182Y-16180831D01*
X7465182Y-16180831D02*
X7474706Y-16161784D01*
X7474706Y-16161784D02*
X7493753Y-16152260D01*
X7493753Y-16152260D02*
X7522325Y-16152260D01*
X7522325Y-16152260D02*
X7541372Y-16161784D01*
X7617563Y-16361784D02*
X7627087Y-16352260D01*
X7627087Y-16352260D02*
X7646134Y-16323688D01*
X7646134Y-16323688D02*
X7655658Y-16304641D01*
X7655658Y-16304641D02*
X7665182Y-16276069D01*
X7665182Y-16276069D02*
X7674706Y-16228450D01*
X7674706Y-16228450D02*
X7674706Y-16190355D01*
X7674706Y-16190355D02*
X7665182Y-16142736D01*
X7665182Y-16142736D02*
X7655658Y-16114165D01*
X7655658Y-16114165D02*
X7646134Y-16095117D01*
X7646134Y-16095117D02*
X7627087Y-16066546D01*
X7627087Y-16066546D02*
X7617563Y-16057022D01*
X7979468Y-16361784D02*
X7969944Y-16352260D01*
X7969944Y-16352260D02*
X7950896Y-16323688D01*
X7950896Y-16323688D02*
X7941372Y-16304641D01*
X7941372Y-16304641D02*
X7931849Y-16276069D01*
X7931849Y-16276069D02*
X7922325Y-16228450D01*
X7922325Y-16228450D02*
X7922325Y-16190355D01*
X7922325Y-16190355D02*
X7931849Y-16142736D01*
X7931849Y-16142736D02*
X7941372Y-16114165D01*
X7941372Y-16114165D02*
X7950896Y-16095117D01*
X7950896Y-16095117D02*
X7969944Y-16066546D01*
X7969944Y-16066546D02*
X7979468Y-16057022D01*
X8055658Y-16152260D02*
X8055658Y-16285593D01*
X8055658Y-16171307D02*
X8065182Y-16161784D01*
X8065182Y-16161784D02*
X8084230Y-16152260D01*
X8084230Y-16152260D02*
X8112801Y-16152260D01*
X8112801Y-16152260D02*
X8131849Y-16161784D01*
X8131849Y-16161784D02*
X8141372Y-16180831D01*
X8141372Y-16180831D02*
X8141372Y-16285593D01*
X8265182Y-16285593D02*
X8246134Y-16276069D01*
X8246134Y-16276069D02*
X8236611Y-16266546D01*
X8236611Y-16266546D02*
X8227087Y-16247498D01*
X8227087Y-16247498D02*
X8227087Y-16190355D01*
X8227087Y-16190355D02*
X8236611Y-16171307D01*
X8236611Y-16171307D02*
X8246134Y-16161784D01*
X8246134Y-16161784D02*
X8265182Y-16152260D01*
X8265182Y-16152260D02*
X8293753Y-16152260D01*
X8293753Y-16152260D02*
X8312801Y-16161784D01*
X8312801Y-16161784D02*
X8322325Y-16171307D01*
X8322325Y-16171307D02*
X8331849Y-16190355D01*
X8331849Y-16190355D02*
X8331849Y-16247498D01*
X8331849Y-16247498D02*
X8322325Y-16266546D01*
X8322325Y-16266546D02*
X8312801Y-16276069D01*
X8312801Y-16276069D02*
X8293753Y-16285593D01*
X8293753Y-16285593D02*
X8265182Y-16285593D01*
X8388992Y-16152260D02*
X8465182Y-16152260D01*
X8417563Y-16085593D02*
X8417563Y-16257022D01*
X8417563Y-16257022D02*
X8427087Y-16276069D01*
X8427087Y-16276069D02*
X8446134Y-16285593D01*
X8446134Y-16285593D02*
X8465182Y-16285593D01*
X8684230Y-16152260D02*
X8684230Y-16352260D01*
X8684230Y-16161784D02*
X8703277Y-16152260D01*
X8703277Y-16152260D02*
X8741373Y-16152260D01*
X8741373Y-16152260D02*
X8760420Y-16161784D01*
X8760420Y-16161784D02*
X8769944Y-16171307D01*
X8769944Y-16171307D02*
X8779468Y-16190355D01*
X8779468Y-16190355D02*
X8779468Y-16247498D01*
X8779468Y-16247498D02*
X8769944Y-16266546D01*
X8769944Y-16266546D02*
X8760420Y-16276069D01*
X8760420Y-16276069D02*
X8741373Y-16285593D01*
X8741373Y-16285593D02*
X8703277Y-16285593D01*
X8703277Y-16285593D02*
X8684230Y-16276069D01*
X8893754Y-16285593D02*
X8874706Y-16276069D01*
X8874706Y-16276069D02*
X8865182Y-16257022D01*
X8865182Y-16257022D02*
X8865182Y-16085593D01*
X9055658Y-16285593D02*
X9055658Y-16180831D01*
X9055658Y-16180831D02*
X9046135Y-16161784D01*
X9046135Y-16161784D02*
X9027087Y-16152260D01*
X9027087Y-16152260D02*
X8988992Y-16152260D01*
X8988992Y-16152260D02*
X8969944Y-16161784D01*
X9055658Y-16276069D02*
X9036611Y-16285593D01*
X9036611Y-16285593D02*
X8988992Y-16285593D01*
X8988992Y-16285593D02*
X8969944Y-16276069D01*
X8969944Y-16276069D02*
X8960420Y-16257022D01*
X8960420Y-16257022D02*
X8960420Y-16237974D01*
X8960420Y-16237974D02*
X8969944Y-16218927D01*
X8969944Y-16218927D02*
X8988992Y-16209403D01*
X8988992Y-16209403D02*
X9036611Y-16209403D01*
X9036611Y-16209403D02*
X9055658Y-16199879D01*
X9122325Y-16152260D02*
X9198515Y-16152260D01*
X9150896Y-16085593D02*
X9150896Y-16257022D01*
X9150896Y-16257022D02*
X9160420Y-16276069D01*
X9160420Y-16276069D02*
X9179468Y-16285593D01*
X9179468Y-16285593D02*
X9198515Y-16285593D01*
X9341373Y-16276069D02*
X9322325Y-16285593D01*
X9322325Y-16285593D02*
X9284230Y-16285593D01*
X9284230Y-16285593D02*
X9265182Y-16276069D01*
X9265182Y-16276069D02*
X9255658Y-16257022D01*
X9255658Y-16257022D02*
X9255658Y-16180831D01*
X9255658Y-16180831D02*
X9265182Y-16161784D01*
X9265182Y-16161784D02*
X9284230Y-16152260D01*
X9284230Y-16152260D02*
X9322325Y-16152260D01*
X9322325Y-16152260D02*
X9341373Y-16161784D01*
X9341373Y-16161784D02*
X9350896Y-16180831D01*
X9350896Y-16180831D02*
X9350896Y-16199879D01*
X9350896Y-16199879D02*
X9255658Y-16218927D01*
X9522325Y-16285593D02*
X9522325Y-16085593D01*
X9522325Y-16276069D02*
X9503277Y-16285593D01*
X9503277Y-16285593D02*
X9465182Y-16285593D01*
X9465182Y-16285593D02*
X9446135Y-16276069D01*
X9446135Y-16276069D02*
X9436611Y-16266546D01*
X9436611Y-16266546D02*
X9427087Y-16247498D01*
X9427087Y-16247498D02*
X9427087Y-16190355D01*
X9427087Y-16190355D02*
X9436611Y-16171307D01*
X9436611Y-16171307D02*
X9446135Y-16161784D01*
X9446135Y-16161784D02*
X9465182Y-16152260D01*
X9465182Y-16152260D02*
X9503277Y-16152260D01*
X9503277Y-16152260D02*
X9522325Y-16161784D01*
X9598516Y-16361784D02*
X9608039Y-16352260D01*
X9608039Y-16352260D02*
X9627087Y-16323688D01*
X9627087Y-16323688D02*
X9636611Y-16304641D01*
X9636611Y-16304641D02*
X9646135Y-16276069D01*
X9646135Y-16276069D02*
X9655658Y-16228450D01*
X9655658Y-16228450D02*
X9655658Y-16190355D01*
X9655658Y-16190355D02*
X9646135Y-16142736D01*
X9646135Y-16142736D02*
X9636611Y-16114165D01*
X9636611Y-16114165D02*
X9627087Y-16095117D01*
X9627087Y-16095117D02*
X9608039Y-16066546D01*
X9608039Y-16066546D02*
X9598516Y-16057022D01*
X2842500Y-16464109D02*
G75*
G02*
X2642500Y-16464109I-100000J0D01*
G01*
X2642500Y-16464109D02*
G75*
G02*
X2842500Y-16464109I100000J0D01*
G01*
X3084229Y-16355593D02*
X3208039Y-16355593D01*
X3208039Y-16355593D02*
X3141372Y-16431784D01*
X3141372Y-16431784D02*
X3169943Y-16431784D01*
X3169943Y-16431784D02*
X3188991Y-16441307D01*
X3188991Y-16441307D02*
X3198515Y-16450831D01*
X3198515Y-16450831D02*
X3208039Y-16469879D01*
X3208039Y-16469879D02*
X3208039Y-16517498D01*
X3208039Y-16517498D02*
X3198515Y-16536546D01*
X3198515Y-16536546D02*
X3188991Y-16546069D01*
X3188991Y-16546069D02*
X3169943Y-16555593D01*
X3169943Y-16555593D02*
X3112801Y-16555593D01*
X3112801Y-16555593D02*
X3093753Y-16546069D01*
X3093753Y-16546069D02*
X3084229Y-16536546D01*
X3293753Y-16536546D02*
X3303277Y-16546069D01*
X3303277Y-16546069D02*
X3293753Y-16555593D01*
X3293753Y-16555593D02*
X3284229Y-16546069D01*
X3284229Y-16546069D02*
X3293753Y-16536546D01*
X3293753Y-16536546D02*
X3293753Y-16555593D01*
X3379467Y-16374641D02*
X3388991Y-16365117D01*
X3388991Y-16365117D02*
X3408039Y-16355593D01*
X3408039Y-16355593D02*
X3455658Y-16355593D01*
X3455658Y-16355593D02*
X3474705Y-16365117D01*
X3474705Y-16365117D02*
X3484229Y-16374641D01*
X3484229Y-16374641D02*
X3493753Y-16393688D01*
X3493753Y-16393688D02*
X3493753Y-16412736D01*
X3493753Y-16412736D02*
X3484229Y-16441307D01*
X3484229Y-16441307D02*
X3369943Y-16555593D01*
X3369943Y-16555593D02*
X3493753Y-16555593D01*
X3617562Y-16355593D02*
X3636610Y-16355593D01*
X3636610Y-16355593D02*
X3655658Y-16365117D01*
X3655658Y-16365117D02*
X3665182Y-16374641D01*
X3665182Y-16374641D02*
X3674705Y-16393688D01*
X3674705Y-16393688D02*
X3684229Y-16431784D01*
X3684229Y-16431784D02*
X3684229Y-16479403D01*
X3684229Y-16479403D02*
X3674705Y-16517498D01*
X3674705Y-16517498D02*
X3665182Y-16536546D01*
X3665182Y-16536546D02*
X3655658Y-16546069D01*
X3655658Y-16546069D02*
X3636610Y-16555593D01*
X3636610Y-16555593D02*
X3617562Y-16555593D01*
X3617562Y-16555593D02*
X3598515Y-16546069D01*
X3598515Y-16546069D02*
X3588991Y-16536546D01*
X3588991Y-16536546D02*
X3579467Y-16517498D01*
X3579467Y-16517498D02*
X3569943Y-16479403D01*
X3569943Y-16479403D02*
X3569943Y-16431784D01*
X3569943Y-16431784D02*
X3579467Y-16393688D01*
X3579467Y-16393688D02*
X3588991Y-16374641D01*
X3588991Y-16374641D02*
X3598515Y-16365117D01*
X3598515Y-16365117D02*
X3617562Y-16355593D01*
X3808039Y-16355593D02*
X3827086Y-16355593D01*
X3827086Y-16355593D02*
X3846134Y-16365117D01*
X3846134Y-16365117D02*
X3855658Y-16374641D01*
X3855658Y-16374641D02*
X3865182Y-16393688D01*
X3865182Y-16393688D02*
X3874705Y-16431784D01*
X3874705Y-16431784D02*
X3874705Y-16479403D01*
X3874705Y-16479403D02*
X3865182Y-16517498D01*
X3865182Y-16517498D02*
X3855658Y-16536546D01*
X3855658Y-16536546D02*
X3846134Y-16546069D01*
X3846134Y-16546069D02*
X3827086Y-16555593D01*
X3827086Y-16555593D02*
X3808039Y-16555593D01*
X3808039Y-16555593D02*
X3788991Y-16546069D01*
X3788991Y-16546069D02*
X3779467Y-16536546D01*
X3779467Y-16536546D02*
X3769943Y-16517498D01*
X3769943Y-16517498D02*
X3760420Y-16479403D01*
X3760420Y-16479403D02*
X3760420Y-16431784D01*
X3760420Y-16431784D02*
X3769943Y-16393688D01*
X3769943Y-16393688D02*
X3779467Y-16374641D01*
X3779467Y-16374641D02*
X3788991Y-16365117D01*
X3788991Y-16365117D02*
X3808039Y-16355593D01*
X3960420Y-16555593D02*
X3960420Y-16422260D01*
X3960420Y-16441307D02*
X3969943Y-16431784D01*
X3969943Y-16431784D02*
X3988991Y-16422260D01*
X3988991Y-16422260D02*
X4017563Y-16422260D01*
X4017563Y-16422260D02*
X4036610Y-16431784D01*
X4036610Y-16431784D02*
X4046134Y-16450831D01*
X4046134Y-16450831D02*
X4046134Y-16555593D01*
X4046134Y-16450831D02*
X4055658Y-16431784D01*
X4055658Y-16431784D02*
X4074705Y-16422260D01*
X4074705Y-16422260D02*
X4103277Y-16422260D01*
X4103277Y-16422260D02*
X4122324Y-16431784D01*
X4122324Y-16431784D02*
X4131848Y-16450831D01*
X4131848Y-16450831D02*
X4131848Y-16555593D01*
X4227086Y-16555593D02*
X4227086Y-16422260D01*
X4227086Y-16441307D02*
X4236610Y-16431784D01*
X4236610Y-16431784D02*
X4255658Y-16422260D01*
X4255658Y-16422260D02*
X4284229Y-16422260D01*
X4284229Y-16422260D02*
X4303277Y-16431784D01*
X4303277Y-16431784D02*
X4312801Y-16450831D01*
X4312801Y-16450831D02*
X4312801Y-16555593D01*
X4312801Y-16450831D02*
X4322325Y-16431784D01*
X4322325Y-16431784D02*
X4341372Y-16422260D01*
X4341372Y-16422260D02*
X4369944Y-16422260D01*
X4369944Y-16422260D02*
X4388991Y-16431784D01*
X4388991Y-16431784D02*
X4398515Y-16450831D01*
X4398515Y-16450831D02*
X4398515Y-16555593D01*
X4788991Y-16346069D02*
X4617563Y-16603212D01*
X5046134Y-16355593D02*
X5065182Y-16355593D01*
X5065182Y-16355593D02*
X5084229Y-16365117D01*
X5084229Y-16365117D02*
X5093753Y-16374641D01*
X5093753Y-16374641D02*
X5103277Y-16393688D01*
X5103277Y-16393688D02*
X5112801Y-16431784D01*
X5112801Y-16431784D02*
X5112801Y-16479403D01*
X5112801Y-16479403D02*
X5103277Y-16517498D01*
X5103277Y-16517498D02*
X5093753Y-16536546D01*
X5093753Y-16536546D02*
X5084229Y-16546069D01*
X5084229Y-16546069D02*
X5065182Y-16555593D01*
X5065182Y-16555593D02*
X5046134Y-16555593D01*
X5046134Y-16555593D02*
X5027087Y-16546069D01*
X5027087Y-16546069D02*
X5017563Y-16536546D01*
X5017563Y-16536546D02*
X5008039Y-16517498D01*
X5008039Y-16517498D02*
X4998515Y-16479403D01*
X4998515Y-16479403D02*
X4998515Y-16431784D01*
X4998515Y-16431784D02*
X5008039Y-16393688D01*
X5008039Y-16393688D02*
X5017563Y-16374641D01*
X5017563Y-16374641D02*
X5027087Y-16365117D01*
X5027087Y-16365117D02*
X5046134Y-16355593D01*
X5198515Y-16536546D02*
X5208039Y-16546069D01*
X5208039Y-16546069D02*
X5198515Y-16555593D01*
X5198515Y-16555593D02*
X5188991Y-16546069D01*
X5188991Y-16546069D02*
X5198515Y-16536546D01*
X5198515Y-16536546D02*
X5198515Y-16555593D01*
X5398515Y-16555593D02*
X5284229Y-16555593D01*
X5341372Y-16555593D02*
X5341372Y-16355593D01*
X5341372Y-16355593D02*
X5322325Y-16384165D01*
X5322325Y-16384165D02*
X5303277Y-16403212D01*
X5303277Y-16403212D02*
X5284229Y-16412736D01*
X5474706Y-16374641D02*
X5484229Y-16365117D01*
X5484229Y-16365117D02*
X5503277Y-16355593D01*
X5503277Y-16355593D02*
X5550896Y-16355593D01*
X5550896Y-16355593D02*
X5569944Y-16365117D01*
X5569944Y-16365117D02*
X5579468Y-16374641D01*
X5579468Y-16374641D02*
X5588991Y-16393688D01*
X5588991Y-16393688D02*
X5588991Y-16412736D01*
X5588991Y-16412736D02*
X5579468Y-16441307D01*
X5579468Y-16441307D02*
X5465182Y-16555593D01*
X5465182Y-16555593D02*
X5588991Y-16555593D01*
X5760420Y-16355593D02*
X5722325Y-16355593D01*
X5722325Y-16355593D02*
X5703277Y-16365117D01*
X5703277Y-16365117D02*
X5693753Y-16374641D01*
X5693753Y-16374641D02*
X5674706Y-16403212D01*
X5674706Y-16403212D02*
X5665182Y-16441307D01*
X5665182Y-16441307D02*
X5665182Y-16517498D01*
X5665182Y-16517498D02*
X5674706Y-16536546D01*
X5674706Y-16536546D02*
X5684229Y-16546069D01*
X5684229Y-16546069D02*
X5703277Y-16555593D01*
X5703277Y-16555593D02*
X5741372Y-16555593D01*
X5741372Y-16555593D02*
X5760420Y-16546069D01*
X5760420Y-16546069D02*
X5769944Y-16536546D01*
X5769944Y-16536546D02*
X5779467Y-16517498D01*
X5779467Y-16517498D02*
X5779467Y-16469879D01*
X5779467Y-16469879D02*
X5769944Y-16450831D01*
X5769944Y-16450831D02*
X5760420Y-16441307D01*
X5760420Y-16441307D02*
X5741372Y-16431784D01*
X5741372Y-16431784D02*
X5703277Y-16431784D01*
X5703277Y-16431784D02*
X5684229Y-16441307D01*
X5684229Y-16441307D02*
X5674706Y-16450831D01*
X5674706Y-16450831D02*
X5665182Y-16469879D01*
X5903277Y-16355593D02*
X5922325Y-16355593D01*
X5922325Y-16355593D02*
X5941372Y-16365117D01*
X5941372Y-16365117D02*
X5950896Y-16374641D01*
X5950896Y-16374641D02*
X5960420Y-16393688D01*
X5960420Y-16393688D02*
X5969944Y-16431784D01*
X5969944Y-16431784D02*
X5969944Y-16479403D01*
X5969944Y-16479403D02*
X5960420Y-16517498D01*
X5960420Y-16517498D02*
X5950896Y-16536546D01*
X5950896Y-16536546D02*
X5941372Y-16546069D01*
X5941372Y-16546069D02*
X5922325Y-16555593D01*
X5922325Y-16555593D02*
X5903277Y-16555593D01*
X5903277Y-16555593D02*
X5884229Y-16546069D01*
X5884229Y-16546069D02*
X5874706Y-16536546D01*
X5874706Y-16536546D02*
X5865182Y-16517498D01*
X5865182Y-16517498D02*
X5855658Y-16479403D01*
X5855658Y-16479403D02*
X5855658Y-16431784D01*
X5855658Y-16431784D02*
X5865182Y-16393688D01*
X5865182Y-16393688D02*
X5874706Y-16374641D01*
X5874706Y-16374641D02*
X5884229Y-16365117D01*
X5884229Y-16365117D02*
X5903277Y-16355593D01*
X6046134Y-16355593D02*
X6046134Y-16393688D01*
X6122325Y-16355593D02*
X6122325Y-16393688D01*
X6417563Y-16631784D02*
X6408039Y-16622260D01*
X6408039Y-16622260D02*
X6388991Y-16593688D01*
X6388991Y-16593688D02*
X6379468Y-16574641D01*
X6379468Y-16574641D02*
X6369944Y-16546069D01*
X6369944Y-16546069D02*
X6360420Y-16498450D01*
X6360420Y-16498450D02*
X6360420Y-16460355D01*
X6360420Y-16460355D02*
X6369944Y-16412736D01*
X6369944Y-16412736D02*
X6379468Y-16384165D01*
X6379468Y-16384165D02*
X6388991Y-16365117D01*
X6388991Y-16365117D02*
X6408039Y-16336546D01*
X6408039Y-16336546D02*
X6417563Y-16327022D01*
X6579468Y-16355593D02*
X6541372Y-16355593D01*
X6541372Y-16355593D02*
X6522325Y-16365117D01*
X6522325Y-16365117D02*
X6512801Y-16374641D01*
X6512801Y-16374641D02*
X6493753Y-16403212D01*
X6493753Y-16403212D02*
X6484229Y-16441307D01*
X6484229Y-16441307D02*
X6484229Y-16517498D01*
X6484229Y-16517498D02*
X6493753Y-16536546D01*
X6493753Y-16536546D02*
X6503277Y-16546069D01*
X6503277Y-16546069D02*
X6522325Y-16555593D01*
X6522325Y-16555593D02*
X6560420Y-16555593D01*
X6560420Y-16555593D02*
X6579468Y-16546069D01*
X6579468Y-16546069D02*
X6588991Y-16536546D01*
X6588991Y-16536546D02*
X6598515Y-16517498D01*
X6598515Y-16517498D02*
X6598515Y-16469879D01*
X6598515Y-16469879D02*
X6588991Y-16450831D01*
X6588991Y-16450831D02*
X6579468Y-16441307D01*
X6579468Y-16441307D02*
X6560420Y-16431784D01*
X6560420Y-16431784D02*
X6522325Y-16431784D01*
X6522325Y-16431784D02*
X6503277Y-16441307D01*
X6503277Y-16441307D02*
X6493753Y-16450831D01*
X6493753Y-16450831D02*
X6484229Y-16469879D01*
X6836610Y-16555593D02*
X6836610Y-16355593D01*
X6922325Y-16555593D02*
X6922325Y-16450831D01*
X6922325Y-16450831D02*
X6912801Y-16431784D01*
X6912801Y-16431784D02*
X6893753Y-16422260D01*
X6893753Y-16422260D02*
X6865182Y-16422260D01*
X6865182Y-16422260D02*
X6846134Y-16431784D01*
X6846134Y-16431784D02*
X6836610Y-16441307D01*
X7046134Y-16555593D02*
X7027087Y-16546069D01*
X7027087Y-16546069D02*
X7017563Y-16536546D01*
X7017563Y-16536546D02*
X7008039Y-16517498D01*
X7008039Y-16517498D02*
X7008039Y-16460355D01*
X7008039Y-16460355D02*
X7017563Y-16441307D01*
X7017563Y-16441307D02*
X7027087Y-16431784D01*
X7027087Y-16431784D02*
X7046134Y-16422260D01*
X7046134Y-16422260D02*
X7074706Y-16422260D01*
X7074706Y-16422260D02*
X7093753Y-16431784D01*
X7093753Y-16431784D02*
X7103277Y-16441307D01*
X7103277Y-16441307D02*
X7112801Y-16460355D01*
X7112801Y-16460355D02*
X7112801Y-16517498D01*
X7112801Y-16517498D02*
X7103277Y-16536546D01*
X7103277Y-16536546D02*
X7093753Y-16546069D01*
X7093753Y-16546069D02*
X7074706Y-16555593D01*
X7074706Y-16555593D02*
X7046134Y-16555593D01*
X7227087Y-16555593D02*
X7208039Y-16546069D01*
X7208039Y-16546069D02*
X7198515Y-16527022D01*
X7198515Y-16527022D02*
X7198515Y-16355593D01*
X7379468Y-16546069D02*
X7360420Y-16555593D01*
X7360420Y-16555593D02*
X7322325Y-16555593D01*
X7322325Y-16555593D02*
X7303277Y-16546069D01*
X7303277Y-16546069D02*
X7293753Y-16527022D01*
X7293753Y-16527022D02*
X7293753Y-16450831D01*
X7293753Y-16450831D02*
X7303277Y-16431784D01*
X7303277Y-16431784D02*
X7322325Y-16422260D01*
X7322325Y-16422260D02*
X7360420Y-16422260D01*
X7360420Y-16422260D02*
X7379468Y-16431784D01*
X7379468Y-16431784D02*
X7388991Y-16450831D01*
X7388991Y-16450831D02*
X7388991Y-16469879D01*
X7388991Y-16469879D02*
X7293753Y-16488927D01*
X7465182Y-16546069D02*
X7484230Y-16555593D01*
X7484230Y-16555593D02*
X7522325Y-16555593D01*
X7522325Y-16555593D02*
X7541372Y-16546069D01*
X7541372Y-16546069D02*
X7550896Y-16527022D01*
X7550896Y-16527022D02*
X7550896Y-16517498D01*
X7550896Y-16517498D02*
X7541372Y-16498450D01*
X7541372Y-16498450D02*
X7522325Y-16488927D01*
X7522325Y-16488927D02*
X7493753Y-16488927D01*
X7493753Y-16488927D02*
X7474706Y-16479403D01*
X7474706Y-16479403D02*
X7465182Y-16460355D01*
X7465182Y-16460355D02*
X7465182Y-16450831D01*
X7465182Y-16450831D02*
X7474706Y-16431784D01*
X7474706Y-16431784D02*
X7493753Y-16422260D01*
X7493753Y-16422260D02*
X7522325Y-16422260D01*
X7522325Y-16422260D02*
X7541372Y-16431784D01*
X7617563Y-16631784D02*
X7627087Y-16622260D01*
X7627087Y-16622260D02*
X7646134Y-16593688D01*
X7646134Y-16593688D02*
X7655658Y-16574641D01*
X7655658Y-16574641D02*
X7665182Y-16546069D01*
X7665182Y-16546069D02*
X7674706Y-16498450D01*
X7674706Y-16498450D02*
X7674706Y-16460355D01*
X7674706Y-16460355D02*
X7665182Y-16412736D01*
X7665182Y-16412736D02*
X7655658Y-16384165D01*
X7655658Y-16384165D02*
X7646134Y-16365117D01*
X7646134Y-16365117D02*
X7627087Y-16336546D01*
X7627087Y-16336546D02*
X7617563Y-16327022D01*
X7979468Y-16631784D02*
X7969944Y-16622260D01*
X7969944Y-16622260D02*
X7950896Y-16593688D01*
X7950896Y-16593688D02*
X7941372Y-16574641D01*
X7941372Y-16574641D02*
X7931849Y-16546069D01*
X7931849Y-16546069D02*
X7922325Y-16498450D01*
X7922325Y-16498450D02*
X7922325Y-16460355D01*
X7922325Y-16460355D02*
X7931849Y-16412736D01*
X7931849Y-16412736D02*
X7941372Y-16384165D01*
X7941372Y-16384165D02*
X7950896Y-16365117D01*
X7950896Y-16365117D02*
X7969944Y-16336546D01*
X7969944Y-16336546D02*
X7979468Y-16327022D01*
X8055658Y-16422260D02*
X8055658Y-16555593D01*
X8055658Y-16441307D02*
X8065182Y-16431784D01*
X8065182Y-16431784D02*
X8084230Y-16422260D01*
X8084230Y-16422260D02*
X8112801Y-16422260D01*
X8112801Y-16422260D02*
X8131849Y-16431784D01*
X8131849Y-16431784D02*
X8141372Y-16450831D01*
X8141372Y-16450831D02*
X8141372Y-16555593D01*
X8265182Y-16555593D02*
X8246134Y-16546069D01*
X8246134Y-16546069D02*
X8236611Y-16536546D01*
X8236611Y-16536546D02*
X8227087Y-16517498D01*
X8227087Y-16517498D02*
X8227087Y-16460355D01*
X8227087Y-16460355D02*
X8236611Y-16441307D01*
X8236611Y-16441307D02*
X8246134Y-16431784D01*
X8246134Y-16431784D02*
X8265182Y-16422260D01*
X8265182Y-16422260D02*
X8293753Y-16422260D01*
X8293753Y-16422260D02*
X8312801Y-16431784D01*
X8312801Y-16431784D02*
X8322325Y-16441307D01*
X8322325Y-16441307D02*
X8331849Y-16460355D01*
X8331849Y-16460355D02*
X8331849Y-16517498D01*
X8331849Y-16517498D02*
X8322325Y-16536546D01*
X8322325Y-16536546D02*
X8312801Y-16546069D01*
X8312801Y-16546069D02*
X8293753Y-16555593D01*
X8293753Y-16555593D02*
X8265182Y-16555593D01*
X8388992Y-16422260D02*
X8465182Y-16422260D01*
X8417563Y-16355593D02*
X8417563Y-16527022D01*
X8417563Y-16527022D02*
X8427087Y-16546069D01*
X8427087Y-16546069D02*
X8446134Y-16555593D01*
X8446134Y-16555593D02*
X8465182Y-16555593D01*
X8684230Y-16422260D02*
X8684230Y-16622260D01*
X8684230Y-16431784D02*
X8703277Y-16422260D01*
X8703277Y-16422260D02*
X8741373Y-16422260D01*
X8741373Y-16422260D02*
X8760420Y-16431784D01*
X8760420Y-16431784D02*
X8769944Y-16441307D01*
X8769944Y-16441307D02*
X8779468Y-16460355D01*
X8779468Y-16460355D02*
X8779468Y-16517498D01*
X8779468Y-16517498D02*
X8769944Y-16536546D01*
X8769944Y-16536546D02*
X8760420Y-16546069D01*
X8760420Y-16546069D02*
X8741373Y-16555593D01*
X8741373Y-16555593D02*
X8703277Y-16555593D01*
X8703277Y-16555593D02*
X8684230Y-16546069D01*
X8893754Y-16555593D02*
X8874706Y-16546069D01*
X8874706Y-16546069D02*
X8865182Y-16527022D01*
X8865182Y-16527022D02*
X8865182Y-16355593D01*
X9055658Y-16555593D02*
X9055658Y-16450831D01*
X9055658Y-16450831D02*
X9046135Y-16431784D01*
X9046135Y-16431784D02*
X9027087Y-16422260D01*
X9027087Y-16422260D02*
X8988992Y-16422260D01*
X8988992Y-16422260D02*
X8969944Y-16431784D01*
X9055658Y-16546069D02*
X9036611Y-16555593D01*
X9036611Y-16555593D02*
X8988992Y-16555593D01*
X8988992Y-16555593D02*
X8969944Y-16546069D01*
X8969944Y-16546069D02*
X8960420Y-16527022D01*
X8960420Y-16527022D02*
X8960420Y-16507974D01*
X8960420Y-16507974D02*
X8969944Y-16488927D01*
X8969944Y-16488927D02*
X8988992Y-16479403D01*
X8988992Y-16479403D02*
X9036611Y-16479403D01*
X9036611Y-16479403D02*
X9055658Y-16469879D01*
X9122325Y-16422260D02*
X9198515Y-16422260D01*
X9150896Y-16355593D02*
X9150896Y-16527022D01*
X9150896Y-16527022D02*
X9160420Y-16546069D01*
X9160420Y-16546069D02*
X9179468Y-16555593D01*
X9179468Y-16555593D02*
X9198515Y-16555593D01*
X9341373Y-16546069D02*
X9322325Y-16555593D01*
X9322325Y-16555593D02*
X9284230Y-16555593D01*
X9284230Y-16555593D02*
X9265182Y-16546069D01*
X9265182Y-16546069D02*
X9255658Y-16527022D01*
X9255658Y-16527022D02*
X9255658Y-16450831D01*
X9255658Y-16450831D02*
X9265182Y-16431784D01*
X9265182Y-16431784D02*
X9284230Y-16422260D01*
X9284230Y-16422260D02*
X9322325Y-16422260D01*
X9322325Y-16422260D02*
X9341373Y-16431784D01*
X9341373Y-16431784D02*
X9350896Y-16450831D01*
X9350896Y-16450831D02*
X9350896Y-16469879D01*
X9350896Y-16469879D02*
X9255658Y-16488927D01*
X9522325Y-16555593D02*
X9522325Y-16355593D01*
X9522325Y-16546069D02*
X9503277Y-16555593D01*
X9503277Y-16555593D02*
X9465182Y-16555593D01*
X9465182Y-16555593D02*
X9446135Y-16546069D01*
X9446135Y-16546069D02*
X9436611Y-16536546D01*
X9436611Y-16536546D02*
X9427087Y-16517498D01*
X9427087Y-16517498D02*
X9427087Y-16460355D01*
X9427087Y-16460355D02*
X9436611Y-16441307D01*
X9436611Y-16441307D02*
X9446135Y-16431784D01*
X9446135Y-16431784D02*
X9465182Y-16422260D01*
X9465182Y-16422260D02*
X9503277Y-16422260D01*
X9503277Y-16422260D02*
X9522325Y-16431784D01*
X9598516Y-16631784D02*
X9608039Y-16622260D01*
X9608039Y-16622260D02*
X9627087Y-16593688D01*
X9627087Y-16593688D02*
X9636611Y-16574641D01*
X9636611Y-16574641D02*
X9646135Y-16546069D01*
X9646135Y-16546069D02*
X9655658Y-16498450D01*
X9655658Y-16498450D02*
X9655658Y-16460355D01*
X9655658Y-16460355D02*
X9646135Y-16412736D01*
X9646135Y-16412736D02*
X9636611Y-16384165D01*
X9636611Y-16384165D02*
X9627087Y-16365117D01*
X9627087Y-16365117D02*
X9608039Y-16336546D01*
X9608039Y-16336546D02*
X9598516Y-16327022D01*
M02*
