%TF.GenerationSoftware,KiCad,Pcbnew,8.0.4*%
%TF.CreationDate,2024-11-02T00:03:45-06:00*%
%TF.ProjectId,boost58,626f6f73-7435-4382-9e6b-696361645f70,0.1*%
%TF.SameCoordinates,Original*%
%TF.FileFunction,Paste,Top*%
%TF.FilePolarity,Positive*%
%FSLAX46Y46*%
G04 Gerber Fmt 4.6, Leading zero omitted, Abs format (unit mm)*
G04 Created by KiCad (PCBNEW 8.0.4) date 2024-11-02 00:03:45*
%MOMM*%
%LPD*%
G01*
G04 APERTURE LIST*
G04 Aperture macros list*
%AMRoundRect*
0 Rectangle with rounded corners*
0 $1 Rounding radius*
0 $2 $3 $4 $5 $6 $7 $8 $9 X,Y pos of 4 corners*
0 Add a 4 corners polygon primitive as box body*
4,1,4,$2,$3,$4,$5,$6,$7,$8,$9,$2,$3,0*
0 Add four circle primitives for the rounded corners*
1,1,$1+$1,$2,$3*
1,1,$1+$1,$4,$5*
1,1,$1+$1,$6,$7*
1,1,$1+$1,$8,$9*
0 Add four rect primitives between the rounded corners*
20,1,$1+$1,$2,$3,$4,$5,0*
20,1,$1+$1,$4,$5,$6,$7,0*
20,1,$1+$1,$6,$7,$8,$9,0*
20,1,$1+$1,$8,$9,$2,$3,0*%
%AMRotRect*
0 Rectangle, with rotation*
0 The origin of the aperture is its center*
0 $1 length*
0 $2 width*
0 $3 Rotation angle, in degrees counterclockwise*
0 Add horizontal line*
21,1,$1,$2,0,0,$3*%
G04 Aperture macros list end*
%ADD10C,0.100000*%
%ADD11C,0.150000*%
%ADD12C,0.300000*%
%ADD13C,0.400000*%
%ADD14R,1.000000X2.600000*%
%ADD15R,1.200000X2.000000*%
%ADD16R,1.000000X1.550000*%
%ADD17RoundRect,0.215000X1.085000X0.860000X-1.085000X0.860000X-1.085000X-0.860000X1.085000X-0.860000X0*%
%ADD18RoundRect,0.215000X1.110000X0.860000X-1.110000X0.860000X-1.110000X-0.860000X1.110000X-0.860000X0*%
%ADD19RotRect,0.900000X1.200000X230.000000*%
%ADD20R,1.400000X1.000000*%
%ADD21R,1.200000X0.900000*%
%ADD22RotRect,0.900000X1.200000X265.000000*%
%ADD23RotRect,1.400000X1.000000X320.000000*%
%ADD24RoundRect,0.215000X1.383956X-0.038626X-0.278361X1.356223X-1.383956X0.038626X0.278361X-1.356223X0*%
%ADD25RoundRect,0.215000X1.403107X-0.054696X-0.297512X1.372292X-1.403107X0.054696X0.297512X-1.372292X0*%
%ADD26RotRect,1.400000X1.000000X355.000000*%
%ADD27RotRect,1.400000X1.000000X340.000000*%
%ADD28RoundRect,0.215000X1.313704X0.437044X-0.725429X1.179228X-1.313704X-0.437044X0.725429X-1.179228X0*%
%ADD29RoundRect,0.215000X1.337196X0.428493X-0.748921X1.187778X-1.337196X-0.428493X0.748921X-1.187778X0*%
%ADD30RotRect,0.900000X1.200000X250.000000*%
%ADD31RoundRect,0.215000X1.155825X0.762163X-1.005917X0.951291X-1.155825X-0.762163X1.005917X-0.951291X0*%
%ADD32RoundRect,0.215000X1.180730X0.759985X-1.030822X0.953470X-1.180730X-0.759985X1.030822X-0.953470X0*%
G04 APERTURE END LIST*
D10*
D11*
X299989000Y-253002200D02*
X407989000Y-253002200D01*
X407989000Y-285002200D01*
X299989000Y-285002200D01*
X299989000Y-253002200D01*
D10*
D11*
X10000000Y-10000000D02*
X409989000Y-10000000D01*
X409989000Y-287002200D01*
X10000000Y-287002200D01*
X10000000Y-10000000D01*
D10*
D11*
X12000000Y-12000000D02*
X407989000Y-12000000D01*
X407989000Y-285002200D01*
X12000000Y-285002200D01*
X12000000Y-12000000D01*
D10*
D11*
X60000000Y-12000000D02*
X60000000Y-10000000D01*
D10*
D11*
X110000000Y-12000000D02*
X110000000Y-10000000D01*
D10*
D11*
X160000000Y-12000000D02*
X160000000Y-10000000D01*
D10*
D11*
X210000000Y-12000000D02*
X210000000Y-10000000D01*
D10*
D11*
X260000000Y-12000000D02*
X260000000Y-10000000D01*
D10*
D11*
X310000000Y-12000000D02*
X310000000Y-10000000D01*
D10*
D11*
X360000000Y-12000000D02*
X360000000Y-10000000D01*
D10*
D11*
X36089160Y-11593604D02*
X35346303Y-11593604D01*
X35717731Y-11593604D02*
X35717731Y-10293604D01*
X35717731Y-10293604D02*
X35593922Y-10479319D01*
X35593922Y-10479319D02*
X35470112Y-10603128D01*
X35470112Y-10603128D02*
X35346303Y-10665033D01*
D10*
D11*
X85346303Y-10417414D02*
X85408207Y-10355509D01*
X85408207Y-10355509D02*
X85532017Y-10293604D01*
X85532017Y-10293604D02*
X85841541Y-10293604D01*
X85841541Y-10293604D02*
X85965350Y-10355509D01*
X85965350Y-10355509D02*
X86027255Y-10417414D01*
X86027255Y-10417414D02*
X86089160Y-10541223D01*
X86089160Y-10541223D02*
X86089160Y-10665033D01*
X86089160Y-10665033D02*
X86027255Y-10850747D01*
X86027255Y-10850747D02*
X85284398Y-11593604D01*
X85284398Y-11593604D02*
X86089160Y-11593604D01*
D10*
D11*
X135284398Y-10293604D02*
X136089160Y-10293604D01*
X136089160Y-10293604D02*
X135655826Y-10788842D01*
X135655826Y-10788842D02*
X135841541Y-10788842D01*
X135841541Y-10788842D02*
X135965350Y-10850747D01*
X135965350Y-10850747D02*
X136027255Y-10912652D01*
X136027255Y-10912652D02*
X136089160Y-11036461D01*
X136089160Y-11036461D02*
X136089160Y-11345985D01*
X136089160Y-11345985D02*
X136027255Y-11469795D01*
X136027255Y-11469795D02*
X135965350Y-11531700D01*
X135965350Y-11531700D02*
X135841541Y-11593604D01*
X135841541Y-11593604D02*
X135470112Y-11593604D01*
X135470112Y-11593604D02*
X135346303Y-11531700D01*
X135346303Y-11531700D02*
X135284398Y-11469795D01*
D10*
D11*
X185965350Y-10726938D02*
X185965350Y-11593604D01*
X185655826Y-10231700D02*
X185346303Y-11160271D01*
X185346303Y-11160271D02*
X186151064Y-11160271D01*
D10*
D11*
X236027255Y-10293604D02*
X235408207Y-10293604D01*
X235408207Y-10293604D02*
X235346303Y-10912652D01*
X235346303Y-10912652D02*
X235408207Y-10850747D01*
X235408207Y-10850747D02*
X235532017Y-10788842D01*
X235532017Y-10788842D02*
X235841541Y-10788842D01*
X235841541Y-10788842D02*
X235965350Y-10850747D01*
X235965350Y-10850747D02*
X236027255Y-10912652D01*
X236027255Y-10912652D02*
X236089160Y-11036461D01*
X236089160Y-11036461D02*
X236089160Y-11345985D01*
X236089160Y-11345985D02*
X236027255Y-11469795D01*
X236027255Y-11469795D02*
X235965350Y-11531700D01*
X235965350Y-11531700D02*
X235841541Y-11593604D01*
X235841541Y-11593604D02*
X235532017Y-11593604D01*
X235532017Y-11593604D02*
X235408207Y-11531700D01*
X235408207Y-11531700D02*
X235346303Y-11469795D01*
D10*
D11*
X285965350Y-10293604D02*
X285717731Y-10293604D01*
X285717731Y-10293604D02*
X285593922Y-10355509D01*
X285593922Y-10355509D02*
X285532017Y-10417414D01*
X285532017Y-10417414D02*
X285408207Y-10603128D01*
X285408207Y-10603128D02*
X285346303Y-10850747D01*
X285346303Y-10850747D02*
X285346303Y-11345985D01*
X285346303Y-11345985D02*
X285408207Y-11469795D01*
X285408207Y-11469795D02*
X285470112Y-11531700D01*
X285470112Y-11531700D02*
X285593922Y-11593604D01*
X285593922Y-11593604D02*
X285841541Y-11593604D01*
X285841541Y-11593604D02*
X285965350Y-11531700D01*
X285965350Y-11531700D02*
X286027255Y-11469795D01*
X286027255Y-11469795D02*
X286089160Y-11345985D01*
X286089160Y-11345985D02*
X286089160Y-11036461D01*
X286089160Y-11036461D02*
X286027255Y-10912652D01*
X286027255Y-10912652D02*
X285965350Y-10850747D01*
X285965350Y-10850747D02*
X285841541Y-10788842D01*
X285841541Y-10788842D02*
X285593922Y-10788842D01*
X285593922Y-10788842D02*
X285470112Y-10850747D01*
X285470112Y-10850747D02*
X285408207Y-10912652D01*
X285408207Y-10912652D02*
X285346303Y-11036461D01*
D10*
D11*
X335284398Y-10293604D02*
X336151064Y-10293604D01*
X336151064Y-10293604D02*
X335593922Y-11593604D01*
D10*
D11*
X385593922Y-10850747D02*
X385470112Y-10788842D01*
X385470112Y-10788842D02*
X385408207Y-10726938D01*
X385408207Y-10726938D02*
X385346303Y-10603128D01*
X385346303Y-10603128D02*
X385346303Y-10541223D01*
X385346303Y-10541223D02*
X385408207Y-10417414D01*
X385408207Y-10417414D02*
X385470112Y-10355509D01*
X385470112Y-10355509D02*
X385593922Y-10293604D01*
X385593922Y-10293604D02*
X385841541Y-10293604D01*
X385841541Y-10293604D02*
X385965350Y-10355509D01*
X385965350Y-10355509D02*
X386027255Y-10417414D01*
X386027255Y-10417414D02*
X386089160Y-10541223D01*
X386089160Y-10541223D02*
X386089160Y-10603128D01*
X386089160Y-10603128D02*
X386027255Y-10726938D01*
X386027255Y-10726938D02*
X385965350Y-10788842D01*
X385965350Y-10788842D02*
X385841541Y-10850747D01*
X385841541Y-10850747D02*
X385593922Y-10850747D01*
X385593922Y-10850747D02*
X385470112Y-10912652D01*
X385470112Y-10912652D02*
X385408207Y-10974557D01*
X385408207Y-10974557D02*
X385346303Y-11098366D01*
X385346303Y-11098366D02*
X385346303Y-11345985D01*
X385346303Y-11345985D02*
X385408207Y-11469795D01*
X385408207Y-11469795D02*
X385470112Y-11531700D01*
X385470112Y-11531700D02*
X385593922Y-11593604D01*
X385593922Y-11593604D02*
X385841541Y-11593604D01*
X385841541Y-11593604D02*
X385965350Y-11531700D01*
X385965350Y-11531700D02*
X386027255Y-11469795D01*
X386027255Y-11469795D02*
X386089160Y-11345985D01*
X386089160Y-11345985D02*
X386089160Y-11098366D01*
X386089160Y-11098366D02*
X386027255Y-10974557D01*
X386027255Y-10974557D02*
X385965350Y-10912652D01*
X385965350Y-10912652D02*
X385841541Y-10850747D01*
D10*
D11*
X60000000Y-285002200D02*
X60000000Y-287002200D01*
D10*
D11*
X110000000Y-285002200D02*
X110000000Y-287002200D01*
D10*
D11*
X160000000Y-285002200D02*
X160000000Y-287002200D01*
D10*
D11*
X210000000Y-285002200D02*
X210000000Y-287002200D01*
D10*
D11*
X260000000Y-285002200D02*
X260000000Y-287002200D01*
D10*
D11*
X310000000Y-285002200D02*
X310000000Y-287002200D01*
D10*
D11*
X360000000Y-285002200D02*
X360000000Y-287002200D01*
D10*
D11*
X36089160Y-286595804D02*
X35346303Y-286595804D01*
X35717731Y-286595804D02*
X35717731Y-285295804D01*
X35717731Y-285295804D02*
X35593922Y-285481519D01*
X35593922Y-285481519D02*
X35470112Y-285605328D01*
X35470112Y-285605328D02*
X35346303Y-285667233D01*
D10*
D11*
X85346303Y-285419614D02*
X85408207Y-285357709D01*
X85408207Y-285357709D02*
X85532017Y-285295804D01*
X85532017Y-285295804D02*
X85841541Y-285295804D01*
X85841541Y-285295804D02*
X85965350Y-285357709D01*
X85965350Y-285357709D02*
X86027255Y-285419614D01*
X86027255Y-285419614D02*
X86089160Y-285543423D01*
X86089160Y-285543423D02*
X86089160Y-285667233D01*
X86089160Y-285667233D02*
X86027255Y-285852947D01*
X86027255Y-285852947D02*
X85284398Y-286595804D01*
X85284398Y-286595804D02*
X86089160Y-286595804D01*
D10*
D11*
X135284398Y-285295804D02*
X136089160Y-285295804D01*
X136089160Y-285295804D02*
X135655826Y-285791042D01*
X135655826Y-285791042D02*
X135841541Y-285791042D01*
X135841541Y-285791042D02*
X135965350Y-285852947D01*
X135965350Y-285852947D02*
X136027255Y-285914852D01*
X136027255Y-285914852D02*
X136089160Y-286038661D01*
X136089160Y-286038661D02*
X136089160Y-286348185D01*
X136089160Y-286348185D02*
X136027255Y-286471995D01*
X136027255Y-286471995D02*
X135965350Y-286533900D01*
X135965350Y-286533900D02*
X135841541Y-286595804D01*
X135841541Y-286595804D02*
X135470112Y-286595804D01*
X135470112Y-286595804D02*
X135346303Y-286533900D01*
X135346303Y-286533900D02*
X135284398Y-286471995D01*
D10*
D11*
X185965350Y-285729138D02*
X185965350Y-286595804D01*
X185655826Y-285233900D02*
X185346303Y-286162471D01*
X185346303Y-286162471D02*
X186151064Y-286162471D01*
D10*
D11*
X236027255Y-285295804D02*
X235408207Y-285295804D01*
X235408207Y-285295804D02*
X235346303Y-285914852D01*
X235346303Y-285914852D02*
X235408207Y-285852947D01*
X235408207Y-285852947D02*
X235532017Y-285791042D01*
X235532017Y-285791042D02*
X235841541Y-285791042D01*
X235841541Y-285791042D02*
X235965350Y-285852947D01*
X235965350Y-285852947D02*
X236027255Y-285914852D01*
X236027255Y-285914852D02*
X236089160Y-286038661D01*
X236089160Y-286038661D02*
X236089160Y-286348185D01*
X236089160Y-286348185D02*
X236027255Y-286471995D01*
X236027255Y-286471995D02*
X235965350Y-286533900D01*
X235965350Y-286533900D02*
X235841541Y-286595804D01*
X235841541Y-286595804D02*
X235532017Y-286595804D01*
X235532017Y-286595804D02*
X235408207Y-286533900D01*
X235408207Y-286533900D02*
X235346303Y-286471995D01*
D10*
D11*
X285965350Y-285295804D02*
X285717731Y-285295804D01*
X285717731Y-285295804D02*
X285593922Y-285357709D01*
X285593922Y-285357709D02*
X285532017Y-285419614D01*
X285532017Y-285419614D02*
X285408207Y-285605328D01*
X285408207Y-285605328D02*
X285346303Y-285852947D01*
X285346303Y-285852947D02*
X285346303Y-286348185D01*
X285346303Y-286348185D02*
X285408207Y-286471995D01*
X285408207Y-286471995D02*
X285470112Y-286533900D01*
X285470112Y-286533900D02*
X285593922Y-286595804D01*
X285593922Y-286595804D02*
X285841541Y-286595804D01*
X285841541Y-286595804D02*
X285965350Y-286533900D01*
X285965350Y-286533900D02*
X286027255Y-286471995D01*
X286027255Y-286471995D02*
X286089160Y-286348185D01*
X286089160Y-286348185D02*
X286089160Y-286038661D01*
X286089160Y-286038661D02*
X286027255Y-285914852D01*
X286027255Y-285914852D02*
X285965350Y-285852947D01*
X285965350Y-285852947D02*
X285841541Y-285791042D01*
X285841541Y-285791042D02*
X285593922Y-285791042D01*
X285593922Y-285791042D02*
X285470112Y-285852947D01*
X285470112Y-285852947D02*
X285408207Y-285914852D01*
X285408207Y-285914852D02*
X285346303Y-286038661D01*
D10*
D11*
X335284398Y-285295804D02*
X336151064Y-285295804D01*
X336151064Y-285295804D02*
X335593922Y-286595804D01*
D10*
D11*
X385593922Y-285852947D02*
X385470112Y-285791042D01*
X385470112Y-285791042D02*
X385408207Y-285729138D01*
X385408207Y-285729138D02*
X385346303Y-285605328D01*
X385346303Y-285605328D02*
X385346303Y-285543423D01*
X385346303Y-285543423D02*
X385408207Y-285419614D01*
X385408207Y-285419614D02*
X385470112Y-285357709D01*
X385470112Y-285357709D02*
X385593922Y-285295804D01*
X385593922Y-285295804D02*
X385841541Y-285295804D01*
X385841541Y-285295804D02*
X385965350Y-285357709D01*
X385965350Y-285357709D02*
X386027255Y-285419614D01*
X386027255Y-285419614D02*
X386089160Y-285543423D01*
X386089160Y-285543423D02*
X386089160Y-285605328D01*
X386089160Y-285605328D02*
X386027255Y-285729138D01*
X386027255Y-285729138D02*
X385965350Y-285791042D01*
X385965350Y-285791042D02*
X385841541Y-285852947D01*
X385841541Y-285852947D02*
X385593922Y-285852947D01*
X385593922Y-285852947D02*
X385470112Y-285914852D01*
X385470112Y-285914852D02*
X385408207Y-285976757D01*
X385408207Y-285976757D02*
X385346303Y-286100566D01*
X385346303Y-286100566D02*
X385346303Y-286348185D01*
X385346303Y-286348185D02*
X385408207Y-286471995D01*
X385408207Y-286471995D02*
X385470112Y-286533900D01*
X385470112Y-286533900D02*
X385593922Y-286595804D01*
X385593922Y-286595804D02*
X385841541Y-286595804D01*
X385841541Y-286595804D02*
X385965350Y-286533900D01*
X385965350Y-286533900D02*
X386027255Y-286471995D01*
X386027255Y-286471995D02*
X386089160Y-286348185D01*
X386089160Y-286348185D02*
X386089160Y-286100566D01*
X386089160Y-286100566D02*
X386027255Y-285976757D01*
X386027255Y-285976757D02*
X385965350Y-285914852D01*
X385965350Y-285914852D02*
X385841541Y-285852947D01*
D10*
D11*
X10000000Y-60000000D02*
X12000000Y-60000000D01*
D10*
D11*
X10000000Y-110000000D02*
X12000000Y-110000000D01*
D10*
D11*
X10000000Y-160000000D02*
X12000000Y-160000000D01*
D10*
D11*
X10000000Y-210000000D02*
X12000000Y-210000000D01*
D10*
D11*
X10000000Y-260000000D02*
X12000000Y-260000000D01*
D10*
D11*
X10690476Y-35222176D02*
X11309523Y-35222176D01*
X10566666Y-35593604D02*
X10999999Y-34293604D01*
X10999999Y-34293604D02*
X11433333Y-35593604D01*
D10*
D11*
X11092857Y-84912652D02*
X11278571Y-84974557D01*
X11278571Y-84974557D02*
X11340476Y-85036461D01*
X11340476Y-85036461D02*
X11402380Y-85160271D01*
X11402380Y-85160271D02*
X11402380Y-85345985D01*
X11402380Y-85345985D02*
X11340476Y-85469795D01*
X11340476Y-85469795D02*
X11278571Y-85531700D01*
X11278571Y-85531700D02*
X11154761Y-85593604D01*
X11154761Y-85593604D02*
X10659523Y-85593604D01*
X10659523Y-85593604D02*
X10659523Y-84293604D01*
X10659523Y-84293604D02*
X11092857Y-84293604D01*
X11092857Y-84293604D02*
X11216666Y-84355509D01*
X11216666Y-84355509D02*
X11278571Y-84417414D01*
X11278571Y-84417414D02*
X11340476Y-84541223D01*
X11340476Y-84541223D02*
X11340476Y-84665033D01*
X11340476Y-84665033D02*
X11278571Y-84788842D01*
X11278571Y-84788842D02*
X11216666Y-84850747D01*
X11216666Y-84850747D02*
X11092857Y-84912652D01*
X11092857Y-84912652D02*
X10659523Y-84912652D01*
D10*
D11*
X11402380Y-135469795D02*
X11340476Y-135531700D01*
X11340476Y-135531700D02*
X11154761Y-135593604D01*
X11154761Y-135593604D02*
X11030952Y-135593604D01*
X11030952Y-135593604D02*
X10845238Y-135531700D01*
X10845238Y-135531700D02*
X10721428Y-135407890D01*
X10721428Y-135407890D02*
X10659523Y-135284080D01*
X10659523Y-135284080D02*
X10597619Y-135036461D01*
X10597619Y-135036461D02*
X10597619Y-134850747D01*
X10597619Y-134850747D02*
X10659523Y-134603128D01*
X10659523Y-134603128D02*
X10721428Y-134479319D01*
X10721428Y-134479319D02*
X10845238Y-134355509D01*
X10845238Y-134355509D02*
X11030952Y-134293604D01*
X11030952Y-134293604D02*
X11154761Y-134293604D01*
X11154761Y-134293604D02*
X11340476Y-134355509D01*
X11340476Y-134355509D02*
X11402380Y-134417414D01*
D10*
D11*
X10659523Y-185593604D02*
X10659523Y-184293604D01*
X10659523Y-184293604D02*
X10969047Y-184293604D01*
X10969047Y-184293604D02*
X11154761Y-184355509D01*
X11154761Y-184355509D02*
X11278571Y-184479319D01*
X11278571Y-184479319D02*
X11340476Y-184603128D01*
X11340476Y-184603128D02*
X11402380Y-184850747D01*
X11402380Y-184850747D02*
X11402380Y-185036461D01*
X11402380Y-185036461D02*
X11340476Y-185284080D01*
X11340476Y-185284080D02*
X11278571Y-185407890D01*
X11278571Y-185407890D02*
X11154761Y-185531700D01*
X11154761Y-185531700D02*
X10969047Y-185593604D01*
X10969047Y-185593604D02*
X10659523Y-185593604D01*
D10*
D11*
X10721428Y-234912652D02*
X11154762Y-234912652D01*
X11340476Y-235593604D02*
X10721428Y-235593604D01*
X10721428Y-235593604D02*
X10721428Y-234293604D01*
X10721428Y-234293604D02*
X11340476Y-234293604D01*
D10*
D11*
X11185714Y-284912652D02*
X10752380Y-284912652D01*
X10752380Y-285593604D02*
X10752380Y-284293604D01*
X10752380Y-284293604D02*
X11371428Y-284293604D01*
D10*
D11*
X409989000Y-60000000D02*
X407989000Y-60000000D01*
D10*
D11*
X409989000Y-110000000D02*
X407989000Y-110000000D01*
D10*
D11*
X409989000Y-160000000D02*
X407989000Y-160000000D01*
D10*
D11*
X409989000Y-210000000D02*
X407989000Y-210000000D01*
D10*
D11*
X409989000Y-260000000D02*
X407989000Y-260000000D01*
D10*
D11*
X408679476Y-35222176D02*
X409298523Y-35222176D01*
X408555666Y-35593604D02*
X408988999Y-34293604D01*
X408988999Y-34293604D02*
X409422333Y-35593604D01*
D10*
D11*
X409081857Y-84912652D02*
X409267571Y-84974557D01*
X409267571Y-84974557D02*
X409329476Y-85036461D01*
X409329476Y-85036461D02*
X409391380Y-85160271D01*
X409391380Y-85160271D02*
X409391380Y-85345985D01*
X409391380Y-85345985D02*
X409329476Y-85469795D01*
X409329476Y-85469795D02*
X409267571Y-85531700D01*
X409267571Y-85531700D02*
X409143761Y-85593604D01*
X409143761Y-85593604D02*
X408648523Y-85593604D01*
X408648523Y-85593604D02*
X408648523Y-84293604D01*
X408648523Y-84293604D02*
X409081857Y-84293604D01*
X409081857Y-84293604D02*
X409205666Y-84355509D01*
X409205666Y-84355509D02*
X409267571Y-84417414D01*
X409267571Y-84417414D02*
X409329476Y-84541223D01*
X409329476Y-84541223D02*
X409329476Y-84665033D01*
X409329476Y-84665033D02*
X409267571Y-84788842D01*
X409267571Y-84788842D02*
X409205666Y-84850747D01*
X409205666Y-84850747D02*
X409081857Y-84912652D01*
X409081857Y-84912652D02*
X408648523Y-84912652D01*
D10*
D11*
X409391380Y-135469795D02*
X409329476Y-135531700D01*
X409329476Y-135531700D02*
X409143761Y-135593604D01*
X409143761Y-135593604D02*
X409019952Y-135593604D01*
X409019952Y-135593604D02*
X408834238Y-135531700D01*
X408834238Y-135531700D02*
X408710428Y-135407890D01*
X408710428Y-135407890D02*
X408648523Y-135284080D01*
X408648523Y-135284080D02*
X408586619Y-135036461D01*
X408586619Y-135036461D02*
X408586619Y-134850747D01*
X408586619Y-134850747D02*
X408648523Y-134603128D01*
X408648523Y-134603128D02*
X408710428Y-134479319D01*
X408710428Y-134479319D02*
X408834238Y-134355509D01*
X408834238Y-134355509D02*
X409019952Y-134293604D01*
X409019952Y-134293604D02*
X409143761Y-134293604D01*
X409143761Y-134293604D02*
X409329476Y-134355509D01*
X409329476Y-134355509D02*
X409391380Y-134417414D01*
D10*
D11*
X408648523Y-185593604D02*
X408648523Y-184293604D01*
X408648523Y-184293604D02*
X408958047Y-184293604D01*
X408958047Y-184293604D02*
X409143761Y-184355509D01*
X409143761Y-184355509D02*
X409267571Y-184479319D01*
X409267571Y-184479319D02*
X409329476Y-184603128D01*
X409329476Y-184603128D02*
X409391380Y-184850747D01*
X409391380Y-184850747D02*
X409391380Y-185036461D01*
X409391380Y-185036461D02*
X409329476Y-185284080D01*
X409329476Y-185284080D02*
X409267571Y-185407890D01*
X409267571Y-185407890D02*
X409143761Y-185531700D01*
X409143761Y-185531700D02*
X408958047Y-185593604D01*
X408958047Y-185593604D02*
X408648523Y-185593604D01*
D10*
D11*
X408710428Y-234912652D02*
X409143762Y-234912652D01*
X409329476Y-235593604D02*
X408710428Y-235593604D01*
X408710428Y-235593604D02*
X408710428Y-234293604D01*
X408710428Y-234293604D02*
X409329476Y-234293604D01*
D10*
D11*
X409174714Y-284912652D02*
X408741380Y-284912652D01*
X408741380Y-285593604D02*
X408741380Y-284293604D01*
X408741380Y-284293604D02*
X409360428Y-284293604D01*
D10*
D11*
X323444826Y-280788328D02*
X323444826Y-279288328D01*
X323444826Y-279288328D02*
X323801969Y-279288328D01*
X323801969Y-279288328D02*
X324016255Y-279359757D01*
X324016255Y-279359757D02*
X324159112Y-279502614D01*
X324159112Y-279502614D02*
X324230541Y-279645471D01*
X324230541Y-279645471D02*
X324301969Y-279931185D01*
X324301969Y-279931185D02*
X324301969Y-280145471D01*
X324301969Y-280145471D02*
X324230541Y-280431185D01*
X324230541Y-280431185D02*
X324159112Y-280574042D01*
X324159112Y-280574042D02*
X324016255Y-280716900D01*
X324016255Y-280716900D02*
X323801969Y-280788328D01*
X323801969Y-280788328D02*
X323444826Y-280788328D01*
X325587684Y-280788328D02*
X325587684Y-280002614D01*
X325587684Y-280002614D02*
X325516255Y-279859757D01*
X325516255Y-279859757D02*
X325373398Y-279788328D01*
X325373398Y-279788328D02*
X325087684Y-279788328D01*
X325087684Y-279788328D02*
X324944826Y-279859757D01*
X325587684Y-280716900D02*
X325444826Y-280788328D01*
X325444826Y-280788328D02*
X325087684Y-280788328D01*
X325087684Y-280788328D02*
X324944826Y-280716900D01*
X324944826Y-280716900D02*
X324873398Y-280574042D01*
X324873398Y-280574042D02*
X324873398Y-280431185D01*
X324873398Y-280431185D02*
X324944826Y-280288328D01*
X324944826Y-280288328D02*
X325087684Y-280216900D01*
X325087684Y-280216900D02*
X325444826Y-280216900D01*
X325444826Y-280216900D02*
X325587684Y-280145471D01*
X326087684Y-279788328D02*
X326659112Y-279788328D01*
X326301969Y-279288328D02*
X326301969Y-280574042D01*
X326301969Y-280574042D02*
X326373398Y-280716900D01*
X326373398Y-280716900D02*
X326516255Y-280788328D01*
X326516255Y-280788328D02*
X326659112Y-280788328D01*
X327730541Y-280716900D02*
X327587684Y-280788328D01*
X327587684Y-280788328D02*
X327301970Y-280788328D01*
X327301970Y-280788328D02*
X327159112Y-280716900D01*
X327159112Y-280716900D02*
X327087684Y-280574042D01*
X327087684Y-280574042D02*
X327087684Y-280002614D01*
X327087684Y-280002614D02*
X327159112Y-279859757D01*
X327159112Y-279859757D02*
X327301970Y-279788328D01*
X327301970Y-279788328D02*
X327587684Y-279788328D01*
X327587684Y-279788328D02*
X327730541Y-279859757D01*
X327730541Y-279859757D02*
X327801970Y-280002614D01*
X327801970Y-280002614D02*
X327801970Y-280145471D01*
X327801970Y-280145471D02*
X327087684Y-280288328D01*
X328444826Y-280645471D02*
X328516255Y-280716900D01*
X328516255Y-280716900D02*
X328444826Y-280788328D01*
X328444826Y-280788328D02*
X328373398Y-280716900D01*
X328373398Y-280716900D02*
X328444826Y-280645471D01*
X328444826Y-280645471D02*
X328444826Y-280788328D01*
X328444826Y-279859757D02*
X328516255Y-279931185D01*
X328516255Y-279931185D02*
X328444826Y-280002614D01*
X328444826Y-280002614D02*
X328373398Y-279931185D01*
X328373398Y-279931185D02*
X328444826Y-279859757D01*
X328444826Y-279859757D02*
X328444826Y-280002614D01*
X330230541Y-279431185D02*
X330301969Y-279359757D01*
X330301969Y-279359757D02*
X330444827Y-279288328D01*
X330444827Y-279288328D02*
X330801969Y-279288328D01*
X330801969Y-279288328D02*
X330944827Y-279359757D01*
X330944827Y-279359757D02*
X331016255Y-279431185D01*
X331016255Y-279431185D02*
X331087684Y-279574042D01*
X331087684Y-279574042D02*
X331087684Y-279716900D01*
X331087684Y-279716900D02*
X331016255Y-279931185D01*
X331016255Y-279931185D02*
X330159112Y-280788328D01*
X330159112Y-280788328D02*
X331087684Y-280788328D01*
X332016255Y-279288328D02*
X332159112Y-279288328D01*
X332159112Y-279288328D02*
X332301969Y-279359757D01*
X332301969Y-279359757D02*
X332373398Y-279431185D01*
X332373398Y-279431185D02*
X332444826Y-279574042D01*
X332444826Y-279574042D02*
X332516255Y-279859757D01*
X332516255Y-279859757D02*
X332516255Y-280216900D01*
X332516255Y-280216900D02*
X332444826Y-280502614D01*
X332444826Y-280502614D02*
X332373398Y-280645471D01*
X332373398Y-280645471D02*
X332301969Y-280716900D01*
X332301969Y-280716900D02*
X332159112Y-280788328D01*
X332159112Y-280788328D02*
X332016255Y-280788328D01*
X332016255Y-280788328D02*
X331873398Y-280716900D01*
X331873398Y-280716900D02*
X331801969Y-280645471D01*
X331801969Y-280645471D02*
X331730540Y-280502614D01*
X331730540Y-280502614D02*
X331659112Y-280216900D01*
X331659112Y-280216900D02*
X331659112Y-279859757D01*
X331659112Y-279859757D02*
X331730540Y-279574042D01*
X331730540Y-279574042D02*
X331801969Y-279431185D01*
X331801969Y-279431185D02*
X331873398Y-279359757D01*
X331873398Y-279359757D02*
X332016255Y-279288328D01*
X333087683Y-279431185D02*
X333159111Y-279359757D01*
X333159111Y-279359757D02*
X333301969Y-279288328D01*
X333301969Y-279288328D02*
X333659111Y-279288328D01*
X333659111Y-279288328D02*
X333801969Y-279359757D01*
X333801969Y-279359757D02*
X333873397Y-279431185D01*
X333873397Y-279431185D02*
X333944826Y-279574042D01*
X333944826Y-279574042D02*
X333944826Y-279716900D01*
X333944826Y-279716900D02*
X333873397Y-279931185D01*
X333873397Y-279931185D02*
X333016254Y-280788328D01*
X333016254Y-280788328D02*
X333944826Y-280788328D01*
X335230540Y-279788328D02*
X335230540Y-280788328D01*
X334873397Y-279216900D02*
X334516254Y-280288328D01*
X334516254Y-280288328D02*
X335444825Y-280288328D01*
X336016253Y-280216900D02*
X337159111Y-280216900D01*
X338159111Y-279288328D02*
X338301968Y-279288328D01*
X338301968Y-279288328D02*
X338444825Y-279359757D01*
X338444825Y-279359757D02*
X338516254Y-279431185D01*
X338516254Y-279431185D02*
X338587682Y-279574042D01*
X338587682Y-279574042D02*
X338659111Y-279859757D01*
X338659111Y-279859757D02*
X338659111Y-280216900D01*
X338659111Y-280216900D02*
X338587682Y-280502614D01*
X338587682Y-280502614D02*
X338516254Y-280645471D01*
X338516254Y-280645471D02*
X338444825Y-280716900D01*
X338444825Y-280716900D02*
X338301968Y-280788328D01*
X338301968Y-280788328D02*
X338159111Y-280788328D01*
X338159111Y-280788328D02*
X338016254Y-280716900D01*
X338016254Y-280716900D02*
X337944825Y-280645471D01*
X337944825Y-280645471D02*
X337873396Y-280502614D01*
X337873396Y-280502614D02*
X337801968Y-280216900D01*
X337801968Y-280216900D02*
X337801968Y-279859757D01*
X337801968Y-279859757D02*
X337873396Y-279574042D01*
X337873396Y-279574042D02*
X337944825Y-279431185D01*
X337944825Y-279431185D02*
X338016254Y-279359757D01*
X338016254Y-279359757D02*
X338159111Y-279288328D01*
X339373396Y-280788328D02*
X339659110Y-280788328D01*
X339659110Y-280788328D02*
X339801967Y-280716900D01*
X339801967Y-280716900D02*
X339873396Y-280645471D01*
X339873396Y-280645471D02*
X340016253Y-280431185D01*
X340016253Y-280431185D02*
X340087682Y-280145471D01*
X340087682Y-280145471D02*
X340087682Y-279574042D01*
X340087682Y-279574042D02*
X340016253Y-279431185D01*
X340016253Y-279431185D02*
X339944825Y-279359757D01*
X339944825Y-279359757D02*
X339801967Y-279288328D01*
X339801967Y-279288328D02*
X339516253Y-279288328D01*
X339516253Y-279288328D02*
X339373396Y-279359757D01*
X339373396Y-279359757D02*
X339301967Y-279431185D01*
X339301967Y-279431185D02*
X339230539Y-279574042D01*
X339230539Y-279574042D02*
X339230539Y-279931185D01*
X339230539Y-279931185D02*
X339301967Y-280074042D01*
X339301967Y-280074042D02*
X339373396Y-280145471D01*
X339373396Y-280145471D02*
X339516253Y-280216900D01*
X339516253Y-280216900D02*
X339801967Y-280216900D01*
X339801967Y-280216900D02*
X339944825Y-280145471D01*
X339944825Y-280145471D02*
X340016253Y-280074042D01*
X340016253Y-280074042D02*
X340087682Y-279931185D01*
X340730538Y-280216900D02*
X341873396Y-280216900D01*
X342444824Y-279288328D02*
X343373396Y-279288328D01*
X343373396Y-279288328D02*
X342873396Y-279859757D01*
X342873396Y-279859757D02*
X343087681Y-279859757D01*
X343087681Y-279859757D02*
X343230539Y-279931185D01*
X343230539Y-279931185D02*
X343301967Y-280002614D01*
X343301967Y-280002614D02*
X343373396Y-280145471D01*
X343373396Y-280145471D02*
X343373396Y-280502614D01*
X343373396Y-280502614D02*
X343301967Y-280645471D01*
X343301967Y-280645471D02*
X343230539Y-280716900D01*
X343230539Y-280716900D02*
X343087681Y-280788328D01*
X343087681Y-280788328D02*
X342659110Y-280788328D01*
X342659110Y-280788328D02*
X342516253Y-280716900D01*
X342516253Y-280716900D02*
X342444824Y-280645471D01*
X344301967Y-279288328D02*
X344444824Y-279288328D01*
X344444824Y-279288328D02*
X344587681Y-279359757D01*
X344587681Y-279359757D02*
X344659110Y-279431185D01*
X344659110Y-279431185D02*
X344730538Y-279574042D01*
X344730538Y-279574042D02*
X344801967Y-279859757D01*
X344801967Y-279859757D02*
X344801967Y-280216900D01*
X344801967Y-280216900D02*
X344730538Y-280502614D01*
X344730538Y-280502614D02*
X344659110Y-280645471D01*
X344659110Y-280645471D02*
X344587681Y-280716900D01*
X344587681Y-280716900D02*
X344444824Y-280788328D01*
X344444824Y-280788328D02*
X344301967Y-280788328D01*
X344301967Y-280788328D02*
X344159110Y-280716900D01*
X344159110Y-280716900D02*
X344087681Y-280645471D01*
X344087681Y-280645471D02*
X344016252Y-280502614D01*
X344016252Y-280502614D02*
X343944824Y-280216900D01*
X343944824Y-280216900D02*
X343944824Y-279859757D01*
X343944824Y-279859757D02*
X344016252Y-279574042D01*
X344016252Y-279574042D02*
X344087681Y-279431185D01*
X344087681Y-279431185D02*
X344159110Y-279359757D01*
X344159110Y-279359757D02*
X344301967Y-279288328D01*
D10*
D11*
X299989000Y-281502200D02*
X407989000Y-281502200D01*
D10*
D11*
X301444826Y-283588328D02*
X301444826Y-282088328D01*
X302301969Y-283588328D02*
X301659112Y-282731185D01*
X302301969Y-282088328D02*
X301444826Y-282945471D01*
X302944826Y-283588328D02*
X302944826Y-282588328D01*
X302944826Y-282088328D02*
X302873398Y-282159757D01*
X302873398Y-282159757D02*
X302944826Y-282231185D01*
X302944826Y-282231185D02*
X303016255Y-282159757D01*
X303016255Y-282159757D02*
X302944826Y-282088328D01*
X302944826Y-282088328D02*
X302944826Y-282231185D01*
X304516255Y-283445471D02*
X304444827Y-283516900D01*
X304444827Y-283516900D02*
X304230541Y-283588328D01*
X304230541Y-283588328D02*
X304087684Y-283588328D01*
X304087684Y-283588328D02*
X303873398Y-283516900D01*
X303873398Y-283516900D02*
X303730541Y-283374042D01*
X303730541Y-283374042D02*
X303659112Y-283231185D01*
X303659112Y-283231185D02*
X303587684Y-282945471D01*
X303587684Y-282945471D02*
X303587684Y-282731185D01*
X303587684Y-282731185D02*
X303659112Y-282445471D01*
X303659112Y-282445471D02*
X303730541Y-282302614D01*
X303730541Y-282302614D02*
X303873398Y-282159757D01*
X303873398Y-282159757D02*
X304087684Y-282088328D01*
X304087684Y-282088328D02*
X304230541Y-282088328D01*
X304230541Y-282088328D02*
X304444827Y-282159757D01*
X304444827Y-282159757D02*
X304516255Y-282231185D01*
X305801970Y-283588328D02*
X305801970Y-282802614D01*
X305801970Y-282802614D02*
X305730541Y-282659757D01*
X305730541Y-282659757D02*
X305587684Y-282588328D01*
X305587684Y-282588328D02*
X305301970Y-282588328D01*
X305301970Y-282588328D02*
X305159112Y-282659757D01*
X305801970Y-283516900D02*
X305659112Y-283588328D01*
X305659112Y-283588328D02*
X305301970Y-283588328D01*
X305301970Y-283588328D02*
X305159112Y-283516900D01*
X305159112Y-283516900D02*
X305087684Y-283374042D01*
X305087684Y-283374042D02*
X305087684Y-283231185D01*
X305087684Y-283231185D02*
X305159112Y-283088328D01*
X305159112Y-283088328D02*
X305301970Y-283016900D01*
X305301970Y-283016900D02*
X305659112Y-283016900D01*
X305659112Y-283016900D02*
X305801970Y-282945471D01*
X307159113Y-283588328D02*
X307159113Y-282088328D01*
X307159113Y-283516900D02*
X307016255Y-283588328D01*
X307016255Y-283588328D02*
X306730541Y-283588328D01*
X306730541Y-283588328D02*
X306587684Y-283516900D01*
X306587684Y-283516900D02*
X306516255Y-283445471D01*
X306516255Y-283445471D02*
X306444827Y-283302614D01*
X306444827Y-283302614D02*
X306444827Y-282874042D01*
X306444827Y-282874042D02*
X306516255Y-282731185D01*
X306516255Y-282731185D02*
X306587684Y-282659757D01*
X306587684Y-282659757D02*
X306730541Y-282588328D01*
X306730541Y-282588328D02*
X307016255Y-282588328D01*
X307016255Y-282588328D02*
X307159113Y-282659757D01*
X309016255Y-282802614D02*
X309516255Y-282802614D01*
X309730541Y-283588328D02*
X309016255Y-283588328D01*
X309016255Y-283588328D02*
X309016255Y-282088328D01*
X309016255Y-282088328D02*
X309730541Y-282088328D01*
X310373398Y-283445471D02*
X310444827Y-283516900D01*
X310444827Y-283516900D02*
X310373398Y-283588328D01*
X310373398Y-283588328D02*
X310301970Y-283516900D01*
X310301970Y-283516900D02*
X310373398Y-283445471D01*
X310373398Y-283445471D02*
X310373398Y-283588328D01*
X311087684Y-283588328D02*
X311087684Y-282088328D01*
X311087684Y-282088328D02*
X311444827Y-282088328D01*
X311444827Y-282088328D02*
X311659113Y-282159757D01*
X311659113Y-282159757D02*
X311801970Y-282302614D01*
X311801970Y-282302614D02*
X311873399Y-282445471D01*
X311873399Y-282445471D02*
X311944827Y-282731185D01*
X311944827Y-282731185D02*
X311944827Y-282945471D01*
X311944827Y-282945471D02*
X311873399Y-283231185D01*
X311873399Y-283231185D02*
X311801970Y-283374042D01*
X311801970Y-283374042D02*
X311659113Y-283516900D01*
X311659113Y-283516900D02*
X311444827Y-283588328D01*
X311444827Y-283588328D02*
X311087684Y-283588328D01*
X312587684Y-283445471D02*
X312659113Y-283516900D01*
X312659113Y-283516900D02*
X312587684Y-283588328D01*
X312587684Y-283588328D02*
X312516256Y-283516900D01*
X312516256Y-283516900D02*
X312587684Y-283445471D01*
X312587684Y-283445471D02*
X312587684Y-283588328D01*
X313230542Y-283159757D02*
X313944828Y-283159757D01*
X313087685Y-283588328D02*
X313587685Y-282088328D01*
X313587685Y-282088328D02*
X314087685Y-283588328D01*
X314587684Y-283445471D02*
X314659113Y-283516900D01*
X314659113Y-283516900D02*
X314587684Y-283588328D01*
X314587684Y-283588328D02*
X314516256Y-283516900D01*
X314516256Y-283516900D02*
X314587684Y-283445471D01*
X314587684Y-283445471D02*
X314587684Y-283588328D01*
X316659113Y-282731185D02*
X316516256Y-282659757D01*
X316516256Y-282659757D02*
X316444827Y-282588328D01*
X316444827Y-282588328D02*
X316373399Y-282445471D01*
X316373399Y-282445471D02*
X316373399Y-282374042D01*
X316373399Y-282374042D02*
X316444827Y-282231185D01*
X316444827Y-282231185D02*
X316516256Y-282159757D01*
X316516256Y-282159757D02*
X316659113Y-282088328D01*
X316659113Y-282088328D02*
X316944827Y-282088328D01*
X316944827Y-282088328D02*
X317087685Y-282159757D01*
X317087685Y-282159757D02*
X317159113Y-282231185D01*
X317159113Y-282231185D02*
X317230542Y-282374042D01*
X317230542Y-282374042D02*
X317230542Y-282445471D01*
X317230542Y-282445471D02*
X317159113Y-282588328D01*
X317159113Y-282588328D02*
X317087685Y-282659757D01*
X317087685Y-282659757D02*
X316944827Y-282731185D01*
X316944827Y-282731185D02*
X316659113Y-282731185D01*
X316659113Y-282731185D02*
X316516256Y-282802614D01*
X316516256Y-282802614D02*
X316444827Y-282874042D01*
X316444827Y-282874042D02*
X316373399Y-283016900D01*
X316373399Y-283016900D02*
X316373399Y-283302614D01*
X316373399Y-283302614D02*
X316444827Y-283445471D01*
X316444827Y-283445471D02*
X316516256Y-283516900D01*
X316516256Y-283516900D02*
X316659113Y-283588328D01*
X316659113Y-283588328D02*
X316944827Y-283588328D01*
X316944827Y-283588328D02*
X317087685Y-283516900D01*
X317087685Y-283516900D02*
X317159113Y-283445471D01*
X317159113Y-283445471D02*
X317230542Y-283302614D01*
X317230542Y-283302614D02*
X317230542Y-283016900D01*
X317230542Y-283016900D02*
X317159113Y-282874042D01*
X317159113Y-282874042D02*
X317087685Y-282802614D01*
X317087685Y-282802614D02*
X316944827Y-282731185D01*
X317873398Y-283445471D02*
X317944827Y-283516900D01*
X317944827Y-283516900D02*
X317873398Y-283588328D01*
X317873398Y-283588328D02*
X317801970Y-283516900D01*
X317801970Y-283516900D02*
X317873398Y-283445471D01*
X317873398Y-283445471D02*
X317873398Y-283588328D01*
X318873399Y-282088328D02*
X319016256Y-282088328D01*
X319016256Y-282088328D02*
X319159113Y-282159757D01*
X319159113Y-282159757D02*
X319230542Y-282231185D01*
X319230542Y-282231185D02*
X319301970Y-282374042D01*
X319301970Y-282374042D02*
X319373399Y-282659757D01*
X319373399Y-282659757D02*
X319373399Y-283016900D01*
X319373399Y-283016900D02*
X319301970Y-283302614D01*
X319301970Y-283302614D02*
X319230542Y-283445471D01*
X319230542Y-283445471D02*
X319159113Y-283516900D01*
X319159113Y-283516900D02*
X319016256Y-283588328D01*
X319016256Y-283588328D02*
X318873399Y-283588328D01*
X318873399Y-283588328D02*
X318730542Y-283516900D01*
X318730542Y-283516900D02*
X318659113Y-283445471D01*
X318659113Y-283445471D02*
X318587684Y-283302614D01*
X318587684Y-283302614D02*
X318516256Y-283016900D01*
X318516256Y-283016900D02*
X318516256Y-282659757D01*
X318516256Y-282659757D02*
X318587684Y-282374042D01*
X318587684Y-282374042D02*
X318659113Y-282231185D01*
X318659113Y-282231185D02*
X318730542Y-282159757D01*
X318730542Y-282159757D02*
X318873399Y-282088328D01*
X320016255Y-283445471D02*
X320087684Y-283516900D01*
X320087684Y-283516900D02*
X320016255Y-283588328D01*
X320016255Y-283588328D02*
X319944827Y-283516900D01*
X319944827Y-283516900D02*
X320016255Y-283445471D01*
X320016255Y-283445471D02*
X320016255Y-283588328D01*
X321373399Y-282588328D02*
X321373399Y-283588328D01*
X321016256Y-282016900D02*
X320659113Y-283088328D01*
X320659113Y-283088328D02*
X321587684Y-283088328D01*
D10*
D11*
X299989000Y-278502200D02*
X407989000Y-278502200D01*
D10*
D12*
X387400653Y-280780528D02*
X386900653Y-280066242D01*
X386543510Y-280780528D02*
X386543510Y-279280528D01*
X386543510Y-279280528D02*
X387114939Y-279280528D01*
X387114939Y-279280528D02*
X387257796Y-279351957D01*
X387257796Y-279351957D02*
X387329225Y-279423385D01*
X387329225Y-279423385D02*
X387400653Y-279566242D01*
X387400653Y-279566242D02*
X387400653Y-279780528D01*
X387400653Y-279780528D02*
X387329225Y-279923385D01*
X387329225Y-279923385D02*
X387257796Y-279994814D01*
X387257796Y-279994814D02*
X387114939Y-280066242D01*
X387114939Y-280066242D02*
X386543510Y-280066242D01*
X388614939Y-280709100D02*
X388472082Y-280780528D01*
X388472082Y-280780528D02*
X388186368Y-280780528D01*
X388186368Y-280780528D02*
X388043510Y-280709100D01*
X388043510Y-280709100D02*
X387972082Y-280566242D01*
X387972082Y-280566242D02*
X387972082Y-279994814D01*
X387972082Y-279994814D02*
X388043510Y-279851957D01*
X388043510Y-279851957D02*
X388186368Y-279780528D01*
X388186368Y-279780528D02*
X388472082Y-279780528D01*
X388472082Y-279780528D02*
X388614939Y-279851957D01*
X388614939Y-279851957D02*
X388686368Y-279994814D01*
X388686368Y-279994814D02*
X388686368Y-280137671D01*
X388686368Y-280137671D02*
X387972082Y-280280528D01*
X389186367Y-279780528D02*
X389543510Y-280780528D01*
X389543510Y-280780528D02*
X389900653Y-279780528D01*
X390472081Y-280637671D02*
X390543510Y-280709100D01*
X390543510Y-280709100D02*
X390472081Y-280780528D01*
X390472081Y-280780528D02*
X390400653Y-280709100D01*
X390400653Y-280709100D02*
X390472081Y-280637671D01*
X390472081Y-280637671D02*
X390472081Y-280780528D01*
X390472081Y-279851957D02*
X390543510Y-279923385D01*
X390543510Y-279923385D02*
X390472081Y-279994814D01*
X390472081Y-279994814D02*
X390400653Y-279923385D01*
X390400653Y-279923385D02*
X390472081Y-279851957D01*
X390472081Y-279851957D02*
X390472081Y-279994814D01*
X392614939Y-279280528D02*
X392757796Y-279280528D01*
X392757796Y-279280528D02*
X392900653Y-279351957D01*
X392900653Y-279351957D02*
X392972082Y-279423385D01*
X392972082Y-279423385D02*
X393043510Y-279566242D01*
X393043510Y-279566242D02*
X393114939Y-279851957D01*
X393114939Y-279851957D02*
X393114939Y-280209100D01*
X393114939Y-280209100D02*
X393043510Y-280494814D01*
X393043510Y-280494814D02*
X392972082Y-280637671D01*
X392972082Y-280637671D02*
X392900653Y-280709100D01*
X392900653Y-280709100D02*
X392757796Y-280780528D01*
X392757796Y-280780528D02*
X392614939Y-280780528D01*
X392614939Y-280780528D02*
X392472082Y-280709100D01*
X392472082Y-280709100D02*
X392400653Y-280637671D01*
X392400653Y-280637671D02*
X392329224Y-280494814D01*
X392329224Y-280494814D02*
X392257796Y-280209100D01*
X392257796Y-280209100D02*
X392257796Y-279851957D01*
X392257796Y-279851957D02*
X392329224Y-279566242D01*
X392329224Y-279566242D02*
X392400653Y-279423385D01*
X392400653Y-279423385D02*
X392472082Y-279351957D01*
X392472082Y-279351957D02*
X392614939Y-279280528D01*
X393757795Y-280637671D02*
X393829224Y-280709100D01*
X393829224Y-280709100D02*
X393757795Y-280780528D01*
X393757795Y-280780528D02*
X393686367Y-280709100D01*
X393686367Y-280709100D02*
X393757795Y-280637671D01*
X393757795Y-280637671D02*
X393757795Y-280780528D01*
X395257796Y-280780528D02*
X394400653Y-280780528D01*
X394829224Y-280780528D02*
X394829224Y-279280528D01*
X394829224Y-279280528D02*
X394686367Y-279494814D01*
X394686367Y-279494814D02*
X394543510Y-279637671D01*
X394543510Y-279637671D02*
X394400653Y-279709100D01*
D10*
D11*
X301373398Y-280716900D02*
X301587684Y-280788328D01*
X301587684Y-280788328D02*
X301944826Y-280788328D01*
X301944826Y-280788328D02*
X302087684Y-280716900D01*
X302087684Y-280716900D02*
X302159112Y-280645471D01*
X302159112Y-280645471D02*
X302230541Y-280502614D01*
X302230541Y-280502614D02*
X302230541Y-280359757D01*
X302230541Y-280359757D02*
X302159112Y-280216900D01*
X302159112Y-280216900D02*
X302087684Y-280145471D01*
X302087684Y-280145471D02*
X301944826Y-280074042D01*
X301944826Y-280074042D02*
X301659112Y-280002614D01*
X301659112Y-280002614D02*
X301516255Y-279931185D01*
X301516255Y-279931185D02*
X301444826Y-279859757D01*
X301444826Y-279859757D02*
X301373398Y-279716900D01*
X301373398Y-279716900D02*
X301373398Y-279574042D01*
X301373398Y-279574042D02*
X301444826Y-279431185D01*
X301444826Y-279431185D02*
X301516255Y-279359757D01*
X301516255Y-279359757D02*
X301659112Y-279288328D01*
X301659112Y-279288328D02*
X302016255Y-279288328D01*
X302016255Y-279288328D02*
X302230541Y-279359757D01*
X302873397Y-280788328D02*
X302873397Y-279788328D01*
X302873397Y-279288328D02*
X302801969Y-279359757D01*
X302801969Y-279359757D02*
X302873397Y-279431185D01*
X302873397Y-279431185D02*
X302944826Y-279359757D01*
X302944826Y-279359757D02*
X302873397Y-279288328D01*
X302873397Y-279288328D02*
X302873397Y-279431185D01*
X303444826Y-279788328D02*
X304230541Y-279788328D01*
X304230541Y-279788328D02*
X303444826Y-280788328D01*
X303444826Y-280788328D02*
X304230541Y-280788328D01*
X305373398Y-280716900D02*
X305230541Y-280788328D01*
X305230541Y-280788328D02*
X304944827Y-280788328D01*
X304944827Y-280788328D02*
X304801969Y-280716900D01*
X304801969Y-280716900D02*
X304730541Y-280574042D01*
X304730541Y-280574042D02*
X304730541Y-280002614D01*
X304730541Y-280002614D02*
X304801969Y-279859757D01*
X304801969Y-279859757D02*
X304944827Y-279788328D01*
X304944827Y-279788328D02*
X305230541Y-279788328D01*
X305230541Y-279788328D02*
X305373398Y-279859757D01*
X305373398Y-279859757D02*
X305444827Y-280002614D01*
X305444827Y-280002614D02*
X305444827Y-280145471D01*
X305444827Y-280145471D02*
X304730541Y-280288328D01*
X306087683Y-280645471D02*
X306159112Y-280716900D01*
X306159112Y-280716900D02*
X306087683Y-280788328D01*
X306087683Y-280788328D02*
X306016255Y-280716900D01*
X306016255Y-280716900D02*
X306087683Y-280645471D01*
X306087683Y-280645471D02*
X306087683Y-280788328D01*
X306087683Y-279859757D02*
X306159112Y-279931185D01*
X306159112Y-279931185D02*
X306087683Y-280002614D01*
X306087683Y-280002614D02*
X306016255Y-279931185D01*
X306016255Y-279931185D02*
X306087683Y-279859757D01*
X306087683Y-279859757D02*
X306087683Y-280002614D01*
X307873398Y-280359757D02*
X308587684Y-280359757D01*
X307730541Y-280788328D02*
X308230541Y-279288328D01*
X308230541Y-279288328D02*
X308730541Y-280788328D01*
X309087683Y-279288328D02*
X310016255Y-279288328D01*
X310016255Y-279288328D02*
X309516255Y-279859757D01*
X309516255Y-279859757D02*
X309730540Y-279859757D01*
X309730540Y-279859757D02*
X309873398Y-279931185D01*
X309873398Y-279931185D02*
X309944826Y-280002614D01*
X309944826Y-280002614D02*
X310016255Y-280145471D01*
X310016255Y-280145471D02*
X310016255Y-280502614D01*
X310016255Y-280502614D02*
X309944826Y-280645471D01*
X309944826Y-280645471D02*
X309873398Y-280716900D01*
X309873398Y-280716900D02*
X309730540Y-280788328D01*
X309730540Y-280788328D02*
X309301969Y-280788328D01*
X309301969Y-280788328D02*
X309159112Y-280716900D01*
X309159112Y-280716900D02*
X309087683Y-280645471D01*
D10*
D11*
X386444826Y-283588328D02*
X386444826Y-282088328D01*
X387801970Y-283588328D02*
X387801970Y-282088328D01*
X387801970Y-283516900D02*
X387659112Y-283588328D01*
X387659112Y-283588328D02*
X387373398Y-283588328D01*
X387373398Y-283588328D02*
X387230541Y-283516900D01*
X387230541Y-283516900D02*
X387159112Y-283445471D01*
X387159112Y-283445471D02*
X387087684Y-283302614D01*
X387087684Y-283302614D02*
X387087684Y-282874042D01*
X387087684Y-282874042D02*
X387159112Y-282731185D01*
X387159112Y-282731185D02*
X387230541Y-282659757D01*
X387230541Y-282659757D02*
X387373398Y-282588328D01*
X387373398Y-282588328D02*
X387659112Y-282588328D01*
X387659112Y-282588328D02*
X387801970Y-282659757D01*
X388516255Y-283445471D02*
X388587684Y-283516900D01*
X388587684Y-283516900D02*
X388516255Y-283588328D01*
X388516255Y-283588328D02*
X388444827Y-283516900D01*
X388444827Y-283516900D02*
X388516255Y-283445471D01*
X388516255Y-283445471D02*
X388516255Y-283588328D01*
X388516255Y-282659757D02*
X388587684Y-282731185D01*
X388587684Y-282731185D02*
X388516255Y-282802614D01*
X388516255Y-282802614D02*
X388444827Y-282731185D01*
X388444827Y-282731185D02*
X388516255Y-282659757D01*
X388516255Y-282659757D02*
X388516255Y-282802614D01*
X391159113Y-283588328D02*
X390301970Y-283588328D01*
X390730541Y-283588328D02*
X390730541Y-282088328D01*
X390730541Y-282088328D02*
X390587684Y-282302614D01*
X390587684Y-282302614D02*
X390444827Y-282445471D01*
X390444827Y-282445471D02*
X390301970Y-282516900D01*
X392873398Y-282016900D02*
X391587684Y-283945471D01*
X394159113Y-283588328D02*
X393301970Y-283588328D01*
X393730541Y-283588328D02*
X393730541Y-282088328D01*
X393730541Y-282088328D02*
X393587684Y-282302614D01*
X393587684Y-282302614D02*
X393444827Y-282445471D01*
X393444827Y-282445471D02*
X393301970Y-282516900D01*
D10*
D11*
X299989000Y-274502200D02*
X407989000Y-274502200D01*
D10*
D13*
X301680728Y-275206638D02*
X302823585Y-275206638D01*
X302002157Y-277206638D02*
X302252157Y-275206638D01*
X303240252Y-277206638D02*
X303406919Y-275873304D01*
X303490252Y-275206638D02*
X303383109Y-275301876D01*
X303383109Y-275301876D02*
X303466443Y-275397114D01*
X303466443Y-275397114D02*
X303573586Y-275301876D01*
X303573586Y-275301876D02*
X303490252Y-275206638D01*
X303490252Y-275206638D02*
X303466443Y-275397114D01*
X304073586Y-275873304D02*
X304835490Y-275873304D01*
X304442633Y-275206638D02*
X304228348Y-276920923D01*
X304228348Y-276920923D02*
X304299776Y-277111400D01*
X304299776Y-277111400D02*
X304478348Y-277206638D01*
X304478348Y-277206638D02*
X304668824Y-277206638D01*
X305621205Y-277206638D02*
X305442633Y-277111400D01*
X305442633Y-277111400D02*
X305371205Y-276920923D01*
X305371205Y-276920923D02*
X305585490Y-275206638D01*
X307156919Y-277111400D02*
X306954538Y-277206638D01*
X306954538Y-277206638D02*
X306573585Y-277206638D01*
X306573585Y-277206638D02*
X306395014Y-277111400D01*
X306395014Y-277111400D02*
X306323585Y-276920923D01*
X306323585Y-276920923D02*
X306418824Y-276159019D01*
X306418824Y-276159019D02*
X306537871Y-275968542D01*
X306537871Y-275968542D02*
X306740252Y-275873304D01*
X306740252Y-275873304D02*
X307121204Y-275873304D01*
X307121204Y-275873304D02*
X307299776Y-275968542D01*
X307299776Y-275968542D02*
X307371204Y-276159019D01*
X307371204Y-276159019D02*
X307347395Y-276349495D01*
X307347395Y-276349495D02*
X306371204Y-276539971D01*
X308121205Y-277016161D02*
X308204538Y-277111400D01*
X308204538Y-277111400D02*
X308097395Y-277206638D01*
X308097395Y-277206638D02*
X308014062Y-277111400D01*
X308014062Y-277111400D02*
X308121205Y-277016161D01*
X308121205Y-277016161D02*
X308097395Y-277206638D01*
X308252157Y-275968542D02*
X308335490Y-276063780D01*
X308335490Y-276063780D02*
X308228348Y-276159019D01*
X308228348Y-276159019D02*
X308145014Y-276063780D01*
X308145014Y-276063780D02*
X308252157Y-275968542D01*
X308252157Y-275968542D02*
X308228348Y-276159019D01*
X310573586Y-277206638D02*
X310823586Y-275206638D01*
X310728348Y-275968542D02*
X310930729Y-275873304D01*
X310930729Y-275873304D02*
X311311681Y-275873304D01*
X311311681Y-275873304D02*
X311490253Y-275968542D01*
X311490253Y-275968542D02*
X311573586Y-276063780D01*
X311573586Y-276063780D02*
X311645015Y-276254257D01*
X311645015Y-276254257D02*
X311573586Y-276825685D01*
X311573586Y-276825685D02*
X311454539Y-277016161D01*
X311454539Y-277016161D02*
X311347396Y-277111400D01*
X311347396Y-277111400D02*
X311145015Y-277206638D01*
X311145015Y-277206638D02*
X310764062Y-277206638D01*
X310764062Y-277206638D02*
X310585491Y-277111400D01*
X312668825Y-277206638D02*
X312490253Y-277111400D01*
X312490253Y-277111400D02*
X312406920Y-277016161D01*
X312406920Y-277016161D02*
X312335491Y-276825685D01*
X312335491Y-276825685D02*
X312406920Y-276254257D01*
X312406920Y-276254257D02*
X312525967Y-276063780D01*
X312525967Y-276063780D02*
X312633110Y-275968542D01*
X312633110Y-275968542D02*
X312835491Y-275873304D01*
X312835491Y-275873304D02*
X313121205Y-275873304D01*
X313121205Y-275873304D02*
X313299777Y-275968542D01*
X313299777Y-275968542D02*
X313383110Y-276063780D01*
X313383110Y-276063780D02*
X313454539Y-276254257D01*
X313454539Y-276254257D02*
X313383110Y-276825685D01*
X313383110Y-276825685D02*
X313264063Y-277016161D01*
X313264063Y-277016161D02*
X313156920Y-277111400D01*
X313156920Y-277111400D02*
X312954539Y-277206638D01*
X312954539Y-277206638D02*
X312668825Y-277206638D01*
X314478349Y-277206638D02*
X314299777Y-277111400D01*
X314299777Y-277111400D02*
X314216444Y-277016161D01*
X314216444Y-277016161D02*
X314145015Y-276825685D01*
X314145015Y-276825685D02*
X314216444Y-276254257D01*
X314216444Y-276254257D02*
X314335491Y-276063780D01*
X314335491Y-276063780D02*
X314442634Y-275968542D01*
X314442634Y-275968542D02*
X314645015Y-275873304D01*
X314645015Y-275873304D02*
X314930729Y-275873304D01*
X314930729Y-275873304D02*
X315109301Y-275968542D01*
X315109301Y-275968542D02*
X315192634Y-276063780D01*
X315192634Y-276063780D02*
X315264063Y-276254257D01*
X315264063Y-276254257D02*
X315192634Y-276825685D01*
X315192634Y-276825685D02*
X315073587Y-277016161D01*
X315073587Y-277016161D02*
X314966444Y-277111400D01*
X314966444Y-277111400D02*
X314764063Y-277206638D01*
X314764063Y-277206638D02*
X314478349Y-277206638D01*
X315918825Y-277111400D02*
X316097396Y-277206638D01*
X316097396Y-277206638D02*
X316478349Y-277206638D01*
X316478349Y-277206638D02*
X316680730Y-277111400D01*
X316680730Y-277111400D02*
X316799777Y-276920923D01*
X316799777Y-276920923D02*
X316811682Y-276825685D01*
X316811682Y-276825685D02*
X316740253Y-276635209D01*
X316740253Y-276635209D02*
X316561682Y-276539971D01*
X316561682Y-276539971D02*
X316275968Y-276539971D01*
X316275968Y-276539971D02*
X316097396Y-276444733D01*
X316097396Y-276444733D02*
X316025968Y-276254257D01*
X316025968Y-276254257D02*
X316037873Y-276159019D01*
X316037873Y-276159019D02*
X316156920Y-275968542D01*
X316156920Y-275968542D02*
X316359301Y-275873304D01*
X316359301Y-275873304D02*
X316645015Y-275873304D01*
X316645015Y-275873304D02*
X316823587Y-275968542D01*
X317502159Y-275873304D02*
X318264063Y-275873304D01*
X317871206Y-275206638D02*
X317656921Y-276920923D01*
X317656921Y-276920923D02*
X317728349Y-277111400D01*
X317728349Y-277111400D02*
X317906921Y-277206638D01*
X317906921Y-277206638D02*
X318097397Y-277206638D01*
X319966444Y-275206638D02*
X319014063Y-275206638D01*
X319014063Y-275206638D02*
X318799778Y-276159019D01*
X318799778Y-276159019D02*
X318906920Y-276063780D01*
X318906920Y-276063780D02*
X319109301Y-275968542D01*
X319109301Y-275968542D02*
X319585492Y-275968542D01*
X319585492Y-275968542D02*
X319764063Y-276063780D01*
X319764063Y-276063780D02*
X319847397Y-276159019D01*
X319847397Y-276159019D02*
X319918825Y-276349495D01*
X319918825Y-276349495D02*
X319859301Y-276825685D01*
X319859301Y-276825685D02*
X319740254Y-277016161D01*
X319740254Y-277016161D02*
X319633111Y-277111400D01*
X319633111Y-277111400D02*
X319430730Y-277206638D01*
X319430730Y-277206638D02*
X318954539Y-277206638D01*
X318954539Y-277206638D02*
X318775968Y-277111400D01*
X318775968Y-277111400D02*
X318692635Y-277016161D01*
X321097397Y-276063780D02*
X320918825Y-275968542D01*
X320918825Y-275968542D02*
X320835492Y-275873304D01*
X320835492Y-275873304D02*
X320764063Y-275682828D01*
X320764063Y-275682828D02*
X320775968Y-275587590D01*
X320775968Y-275587590D02*
X320895016Y-275397114D01*
X320895016Y-275397114D02*
X321002159Y-275301876D01*
X321002159Y-275301876D02*
X321204540Y-275206638D01*
X321204540Y-275206638D02*
X321585492Y-275206638D01*
X321585492Y-275206638D02*
X321764063Y-275301876D01*
X321764063Y-275301876D02*
X321847397Y-275397114D01*
X321847397Y-275397114D02*
X321918825Y-275587590D01*
X321918825Y-275587590D02*
X321906920Y-275682828D01*
X321906920Y-275682828D02*
X321787873Y-275873304D01*
X321787873Y-275873304D02*
X321680730Y-275968542D01*
X321680730Y-275968542D02*
X321478349Y-276063780D01*
X321478349Y-276063780D02*
X321097397Y-276063780D01*
X321097397Y-276063780D02*
X320895016Y-276159019D01*
X320895016Y-276159019D02*
X320787873Y-276254257D01*
X320787873Y-276254257D02*
X320668825Y-276444733D01*
X320668825Y-276444733D02*
X320621206Y-276825685D01*
X320621206Y-276825685D02*
X320692635Y-277016161D01*
X320692635Y-277016161D02*
X320775968Y-277111400D01*
X320775968Y-277111400D02*
X320954540Y-277206638D01*
X320954540Y-277206638D02*
X321335492Y-277206638D01*
X321335492Y-277206638D02*
X321537873Y-277111400D01*
X321537873Y-277111400D02*
X321645016Y-277016161D01*
X321645016Y-277016161D02*
X321764063Y-276825685D01*
X321764063Y-276825685D02*
X321811682Y-276444733D01*
X321811682Y-276444733D02*
X321740254Y-276254257D01*
X321740254Y-276254257D02*
X321656920Y-276159019D01*
X321656920Y-276159019D02*
X321478349Y-276063780D01*
D10*
D11*
X301944826Y-272602614D02*
X301444826Y-272602614D01*
X301444826Y-273388328D02*
X301444826Y-271888328D01*
X301444826Y-271888328D02*
X302159112Y-271888328D01*
X302730540Y-273388328D02*
X302730540Y-272388328D01*
X302730540Y-271888328D02*
X302659112Y-271959757D01*
X302659112Y-271959757D02*
X302730540Y-272031185D01*
X302730540Y-272031185D02*
X302801969Y-271959757D01*
X302801969Y-271959757D02*
X302730540Y-271888328D01*
X302730540Y-271888328D02*
X302730540Y-272031185D01*
X303659112Y-273388328D02*
X303516255Y-273316900D01*
X303516255Y-273316900D02*
X303444826Y-273174042D01*
X303444826Y-273174042D02*
X303444826Y-271888328D01*
X304801969Y-273316900D02*
X304659112Y-273388328D01*
X304659112Y-273388328D02*
X304373398Y-273388328D01*
X304373398Y-273388328D02*
X304230540Y-273316900D01*
X304230540Y-273316900D02*
X304159112Y-273174042D01*
X304159112Y-273174042D02*
X304159112Y-272602614D01*
X304159112Y-272602614D02*
X304230540Y-272459757D01*
X304230540Y-272459757D02*
X304373398Y-272388328D01*
X304373398Y-272388328D02*
X304659112Y-272388328D01*
X304659112Y-272388328D02*
X304801969Y-272459757D01*
X304801969Y-272459757D02*
X304873398Y-272602614D01*
X304873398Y-272602614D02*
X304873398Y-272745471D01*
X304873398Y-272745471D02*
X304159112Y-272888328D01*
X305516254Y-273245471D02*
X305587683Y-273316900D01*
X305587683Y-273316900D02*
X305516254Y-273388328D01*
X305516254Y-273388328D02*
X305444826Y-273316900D01*
X305444826Y-273316900D02*
X305516254Y-273245471D01*
X305516254Y-273245471D02*
X305516254Y-273388328D01*
X305516254Y-272459757D02*
X305587683Y-272531185D01*
X305587683Y-272531185D02*
X305516254Y-272602614D01*
X305516254Y-272602614D02*
X305444826Y-272531185D01*
X305444826Y-272531185D02*
X305516254Y-272459757D01*
X305516254Y-272459757D02*
X305516254Y-272602614D01*
X307373397Y-273388328D02*
X307373397Y-271888328D01*
X307373397Y-272459757D02*
X307516255Y-272388328D01*
X307516255Y-272388328D02*
X307801969Y-272388328D01*
X307801969Y-272388328D02*
X307944826Y-272459757D01*
X307944826Y-272459757D02*
X308016255Y-272531185D01*
X308016255Y-272531185D02*
X308087683Y-272674042D01*
X308087683Y-272674042D02*
X308087683Y-273102614D01*
X308087683Y-273102614D02*
X308016255Y-273245471D01*
X308016255Y-273245471D02*
X307944826Y-273316900D01*
X307944826Y-273316900D02*
X307801969Y-273388328D01*
X307801969Y-273388328D02*
X307516255Y-273388328D01*
X307516255Y-273388328D02*
X307373397Y-273316900D01*
X308944826Y-273388328D02*
X308801969Y-273316900D01*
X308801969Y-273316900D02*
X308730540Y-273245471D01*
X308730540Y-273245471D02*
X308659112Y-273102614D01*
X308659112Y-273102614D02*
X308659112Y-272674042D01*
X308659112Y-272674042D02*
X308730540Y-272531185D01*
X308730540Y-272531185D02*
X308801969Y-272459757D01*
X308801969Y-272459757D02*
X308944826Y-272388328D01*
X308944826Y-272388328D02*
X309159112Y-272388328D01*
X309159112Y-272388328D02*
X309301969Y-272459757D01*
X309301969Y-272459757D02*
X309373398Y-272531185D01*
X309373398Y-272531185D02*
X309444826Y-272674042D01*
X309444826Y-272674042D02*
X309444826Y-273102614D01*
X309444826Y-273102614D02*
X309373398Y-273245471D01*
X309373398Y-273245471D02*
X309301969Y-273316900D01*
X309301969Y-273316900D02*
X309159112Y-273388328D01*
X309159112Y-273388328D02*
X308944826Y-273388328D01*
X310301969Y-273388328D02*
X310159112Y-273316900D01*
X310159112Y-273316900D02*
X310087683Y-273245471D01*
X310087683Y-273245471D02*
X310016255Y-273102614D01*
X310016255Y-273102614D02*
X310016255Y-272674042D01*
X310016255Y-272674042D02*
X310087683Y-272531185D01*
X310087683Y-272531185D02*
X310159112Y-272459757D01*
X310159112Y-272459757D02*
X310301969Y-272388328D01*
X310301969Y-272388328D02*
X310516255Y-272388328D01*
X310516255Y-272388328D02*
X310659112Y-272459757D01*
X310659112Y-272459757D02*
X310730541Y-272531185D01*
X310730541Y-272531185D02*
X310801969Y-272674042D01*
X310801969Y-272674042D02*
X310801969Y-273102614D01*
X310801969Y-273102614D02*
X310730541Y-273245471D01*
X310730541Y-273245471D02*
X310659112Y-273316900D01*
X310659112Y-273316900D02*
X310516255Y-273388328D01*
X310516255Y-273388328D02*
X310301969Y-273388328D01*
X311373398Y-273316900D02*
X311516255Y-273388328D01*
X311516255Y-273388328D02*
X311801969Y-273388328D01*
X311801969Y-273388328D02*
X311944826Y-273316900D01*
X311944826Y-273316900D02*
X312016255Y-273174042D01*
X312016255Y-273174042D02*
X312016255Y-273102614D01*
X312016255Y-273102614D02*
X311944826Y-272959757D01*
X311944826Y-272959757D02*
X311801969Y-272888328D01*
X311801969Y-272888328D02*
X311587684Y-272888328D01*
X311587684Y-272888328D02*
X311444826Y-272816900D01*
X311444826Y-272816900D02*
X311373398Y-272674042D01*
X311373398Y-272674042D02*
X311373398Y-272602614D01*
X311373398Y-272602614D02*
X311444826Y-272459757D01*
X311444826Y-272459757D02*
X311587684Y-272388328D01*
X311587684Y-272388328D02*
X311801969Y-272388328D01*
X311801969Y-272388328D02*
X311944826Y-272459757D01*
X312444827Y-272388328D02*
X313016255Y-272388328D01*
X312659112Y-271888328D02*
X312659112Y-273174042D01*
X312659112Y-273174042D02*
X312730541Y-273316900D01*
X312730541Y-273316900D02*
X312873398Y-273388328D01*
X312873398Y-273388328D02*
X313016255Y-273388328D01*
X314230541Y-271888328D02*
X313516255Y-271888328D01*
X313516255Y-271888328D02*
X313444827Y-272602614D01*
X313444827Y-272602614D02*
X313516255Y-272531185D01*
X313516255Y-272531185D02*
X313659113Y-272459757D01*
X313659113Y-272459757D02*
X314016255Y-272459757D01*
X314016255Y-272459757D02*
X314159113Y-272531185D01*
X314159113Y-272531185D02*
X314230541Y-272602614D01*
X314230541Y-272602614D02*
X314301970Y-272745471D01*
X314301970Y-272745471D02*
X314301970Y-273102614D01*
X314301970Y-273102614D02*
X314230541Y-273245471D01*
X314230541Y-273245471D02*
X314159113Y-273316900D01*
X314159113Y-273316900D02*
X314016255Y-273388328D01*
X314016255Y-273388328D02*
X313659113Y-273388328D01*
X313659113Y-273388328D02*
X313516255Y-273316900D01*
X313516255Y-273316900D02*
X313444827Y-273245471D01*
X315159112Y-272531185D02*
X315016255Y-272459757D01*
X315016255Y-272459757D02*
X314944826Y-272388328D01*
X314944826Y-272388328D02*
X314873398Y-272245471D01*
X314873398Y-272245471D02*
X314873398Y-272174042D01*
X314873398Y-272174042D02*
X314944826Y-272031185D01*
X314944826Y-272031185D02*
X315016255Y-271959757D01*
X315016255Y-271959757D02*
X315159112Y-271888328D01*
X315159112Y-271888328D02*
X315444826Y-271888328D01*
X315444826Y-271888328D02*
X315587684Y-271959757D01*
X315587684Y-271959757D02*
X315659112Y-272031185D01*
X315659112Y-272031185D02*
X315730541Y-272174042D01*
X315730541Y-272174042D02*
X315730541Y-272245471D01*
X315730541Y-272245471D02*
X315659112Y-272388328D01*
X315659112Y-272388328D02*
X315587684Y-272459757D01*
X315587684Y-272459757D02*
X315444826Y-272531185D01*
X315444826Y-272531185D02*
X315159112Y-272531185D01*
X315159112Y-272531185D02*
X315016255Y-272602614D01*
X315016255Y-272602614D02*
X314944826Y-272674042D01*
X314944826Y-272674042D02*
X314873398Y-272816900D01*
X314873398Y-272816900D02*
X314873398Y-273102614D01*
X314873398Y-273102614D02*
X314944826Y-273245471D01*
X314944826Y-273245471D02*
X315016255Y-273316900D01*
X315016255Y-273316900D02*
X315159112Y-273388328D01*
X315159112Y-273388328D02*
X315444826Y-273388328D01*
X315444826Y-273388328D02*
X315587684Y-273316900D01*
X315587684Y-273316900D02*
X315659112Y-273245471D01*
X315659112Y-273245471D02*
X315730541Y-273102614D01*
X315730541Y-273102614D02*
X315730541Y-272816900D01*
X315730541Y-272816900D02*
X315659112Y-272674042D01*
X315659112Y-272674042D02*
X315587684Y-272602614D01*
X315587684Y-272602614D02*
X315444826Y-272531185D01*
X316373397Y-273245471D02*
X316444826Y-273316900D01*
X316444826Y-273316900D02*
X316373397Y-273388328D01*
X316373397Y-273388328D02*
X316301969Y-273316900D01*
X316301969Y-273316900D02*
X316373397Y-273245471D01*
X316373397Y-273245471D02*
X316373397Y-273388328D01*
X317087683Y-273388328D02*
X317087683Y-271888328D01*
X317230541Y-272816900D02*
X317659112Y-273388328D01*
X317659112Y-272388328D02*
X317087683Y-272959757D01*
X318301969Y-273388328D02*
X318301969Y-272388328D01*
X318301969Y-271888328D02*
X318230541Y-271959757D01*
X318230541Y-271959757D02*
X318301969Y-272031185D01*
X318301969Y-272031185D02*
X318373398Y-271959757D01*
X318373398Y-271959757D02*
X318301969Y-271888328D01*
X318301969Y-271888328D02*
X318301969Y-272031185D01*
X319659113Y-273316900D02*
X319516255Y-273388328D01*
X319516255Y-273388328D02*
X319230541Y-273388328D01*
X319230541Y-273388328D02*
X319087684Y-273316900D01*
X319087684Y-273316900D02*
X319016255Y-273245471D01*
X319016255Y-273245471D02*
X318944827Y-273102614D01*
X318944827Y-273102614D02*
X318944827Y-272674042D01*
X318944827Y-272674042D02*
X319016255Y-272531185D01*
X319016255Y-272531185D02*
X319087684Y-272459757D01*
X319087684Y-272459757D02*
X319230541Y-272388328D01*
X319230541Y-272388328D02*
X319516255Y-272388328D01*
X319516255Y-272388328D02*
X319659113Y-272459757D01*
X320944827Y-273388328D02*
X320944827Y-272602614D01*
X320944827Y-272602614D02*
X320873398Y-272459757D01*
X320873398Y-272459757D02*
X320730541Y-272388328D01*
X320730541Y-272388328D02*
X320444827Y-272388328D01*
X320444827Y-272388328D02*
X320301969Y-272459757D01*
X320944827Y-273316900D02*
X320801969Y-273388328D01*
X320801969Y-273388328D02*
X320444827Y-273388328D01*
X320444827Y-273388328D02*
X320301969Y-273316900D01*
X320301969Y-273316900D02*
X320230541Y-273174042D01*
X320230541Y-273174042D02*
X320230541Y-273031185D01*
X320230541Y-273031185D02*
X320301969Y-272888328D01*
X320301969Y-272888328D02*
X320444827Y-272816900D01*
X320444827Y-272816900D02*
X320801969Y-272816900D01*
X320801969Y-272816900D02*
X320944827Y-272745471D01*
X322301970Y-273388328D02*
X322301970Y-271888328D01*
X322301970Y-273316900D02*
X322159112Y-273388328D01*
X322159112Y-273388328D02*
X321873398Y-273388328D01*
X321873398Y-273388328D02*
X321730541Y-273316900D01*
X321730541Y-273316900D02*
X321659112Y-273245471D01*
X321659112Y-273245471D02*
X321587684Y-273102614D01*
X321587684Y-273102614D02*
X321587684Y-272674042D01*
X321587684Y-272674042D02*
X321659112Y-272531185D01*
X321659112Y-272531185D02*
X321730541Y-272459757D01*
X321730541Y-272459757D02*
X321873398Y-272388328D01*
X321873398Y-272388328D02*
X322159112Y-272388328D01*
X322159112Y-272388328D02*
X322301970Y-272459757D01*
X322659113Y-273531185D02*
X323801970Y-273531185D01*
X324159112Y-272388328D02*
X324159112Y-273888328D01*
X324159112Y-272459757D02*
X324301970Y-272388328D01*
X324301970Y-272388328D02*
X324587684Y-272388328D01*
X324587684Y-272388328D02*
X324730541Y-272459757D01*
X324730541Y-272459757D02*
X324801970Y-272531185D01*
X324801970Y-272531185D02*
X324873398Y-272674042D01*
X324873398Y-272674042D02*
X324873398Y-273102614D01*
X324873398Y-273102614D02*
X324801970Y-273245471D01*
X324801970Y-273245471D02*
X324730541Y-273316900D01*
X324730541Y-273316900D02*
X324587684Y-273388328D01*
X324587684Y-273388328D02*
X324301970Y-273388328D01*
X324301970Y-273388328D02*
X324159112Y-273316900D01*
X326159113Y-273316900D02*
X326016255Y-273388328D01*
X326016255Y-273388328D02*
X325730541Y-273388328D01*
X325730541Y-273388328D02*
X325587684Y-273316900D01*
X325587684Y-273316900D02*
X325516255Y-273245471D01*
X325516255Y-273245471D02*
X325444827Y-273102614D01*
X325444827Y-273102614D02*
X325444827Y-272674042D01*
X325444827Y-272674042D02*
X325516255Y-272531185D01*
X325516255Y-272531185D02*
X325587684Y-272459757D01*
X325587684Y-272459757D02*
X325730541Y-272388328D01*
X325730541Y-272388328D02*
X326016255Y-272388328D01*
X326016255Y-272388328D02*
X326159113Y-272459757D01*
X326801969Y-273388328D02*
X326801969Y-271888328D01*
X326801969Y-272459757D02*
X326944827Y-272388328D01*
X326944827Y-272388328D02*
X327230541Y-272388328D01*
X327230541Y-272388328D02*
X327373398Y-272459757D01*
X327373398Y-272459757D02*
X327444827Y-272531185D01*
X327444827Y-272531185D02*
X327516255Y-272674042D01*
X327516255Y-272674042D02*
X327516255Y-273102614D01*
X327516255Y-273102614D02*
X327444827Y-273245471D01*
X327444827Y-273245471D02*
X327373398Y-273316900D01*
X327373398Y-273316900D02*
X327230541Y-273388328D01*
X327230541Y-273388328D02*
X326944827Y-273388328D01*
X326944827Y-273388328D02*
X326801969Y-273316900D01*
D10*
D11*
X299989000Y-268502200D02*
X407989000Y-268502200D01*
D10*
D11*
X301373398Y-270616900D02*
X301587684Y-270688328D01*
X301587684Y-270688328D02*
X301944826Y-270688328D01*
X301944826Y-270688328D02*
X302087684Y-270616900D01*
X302087684Y-270616900D02*
X302159112Y-270545471D01*
X302159112Y-270545471D02*
X302230541Y-270402614D01*
X302230541Y-270402614D02*
X302230541Y-270259757D01*
X302230541Y-270259757D02*
X302159112Y-270116900D01*
X302159112Y-270116900D02*
X302087684Y-270045471D01*
X302087684Y-270045471D02*
X301944826Y-269974042D01*
X301944826Y-269974042D02*
X301659112Y-269902614D01*
X301659112Y-269902614D02*
X301516255Y-269831185D01*
X301516255Y-269831185D02*
X301444826Y-269759757D01*
X301444826Y-269759757D02*
X301373398Y-269616900D01*
X301373398Y-269616900D02*
X301373398Y-269474042D01*
X301373398Y-269474042D02*
X301444826Y-269331185D01*
X301444826Y-269331185D02*
X301516255Y-269259757D01*
X301516255Y-269259757D02*
X301659112Y-269188328D01*
X301659112Y-269188328D02*
X302016255Y-269188328D01*
X302016255Y-269188328D02*
X302230541Y-269259757D01*
X302873397Y-270688328D02*
X302873397Y-269188328D01*
X303516255Y-270688328D02*
X303516255Y-269902614D01*
X303516255Y-269902614D02*
X303444826Y-269759757D01*
X303444826Y-269759757D02*
X303301969Y-269688328D01*
X303301969Y-269688328D02*
X303087683Y-269688328D01*
X303087683Y-269688328D02*
X302944826Y-269759757D01*
X302944826Y-269759757D02*
X302873397Y-269831185D01*
X304801969Y-270616900D02*
X304659112Y-270688328D01*
X304659112Y-270688328D02*
X304373398Y-270688328D01*
X304373398Y-270688328D02*
X304230540Y-270616900D01*
X304230540Y-270616900D02*
X304159112Y-270474042D01*
X304159112Y-270474042D02*
X304159112Y-269902614D01*
X304159112Y-269902614D02*
X304230540Y-269759757D01*
X304230540Y-269759757D02*
X304373398Y-269688328D01*
X304373398Y-269688328D02*
X304659112Y-269688328D01*
X304659112Y-269688328D02*
X304801969Y-269759757D01*
X304801969Y-269759757D02*
X304873398Y-269902614D01*
X304873398Y-269902614D02*
X304873398Y-270045471D01*
X304873398Y-270045471D02*
X304159112Y-270188328D01*
X306087683Y-270616900D02*
X305944826Y-270688328D01*
X305944826Y-270688328D02*
X305659112Y-270688328D01*
X305659112Y-270688328D02*
X305516254Y-270616900D01*
X305516254Y-270616900D02*
X305444826Y-270474042D01*
X305444826Y-270474042D02*
X305444826Y-269902614D01*
X305444826Y-269902614D02*
X305516254Y-269759757D01*
X305516254Y-269759757D02*
X305659112Y-269688328D01*
X305659112Y-269688328D02*
X305944826Y-269688328D01*
X305944826Y-269688328D02*
X306087683Y-269759757D01*
X306087683Y-269759757D02*
X306159112Y-269902614D01*
X306159112Y-269902614D02*
X306159112Y-270045471D01*
X306159112Y-270045471D02*
X305444826Y-270188328D01*
X306587683Y-269688328D02*
X307159111Y-269688328D01*
X306801968Y-269188328D02*
X306801968Y-270474042D01*
X306801968Y-270474042D02*
X306873397Y-270616900D01*
X306873397Y-270616900D02*
X307016254Y-270688328D01*
X307016254Y-270688328D02*
X307159111Y-270688328D01*
X307659111Y-270545471D02*
X307730540Y-270616900D01*
X307730540Y-270616900D02*
X307659111Y-270688328D01*
X307659111Y-270688328D02*
X307587683Y-270616900D01*
X307587683Y-270616900D02*
X307659111Y-270545471D01*
X307659111Y-270545471D02*
X307659111Y-270688328D01*
X307659111Y-269759757D02*
X307730540Y-269831185D01*
X307730540Y-269831185D02*
X307659111Y-269902614D01*
X307659111Y-269902614D02*
X307587683Y-269831185D01*
X307587683Y-269831185D02*
X307659111Y-269759757D01*
X307659111Y-269759757D02*
X307659111Y-269902614D01*
D10*
D12*
X301329225Y-266180528D02*
X301829225Y-267680528D01*
X301829225Y-267680528D02*
X302329225Y-266180528D01*
X303472082Y-267680528D02*
X303472082Y-266894814D01*
X303472082Y-266894814D02*
X303400653Y-266751957D01*
X303400653Y-266751957D02*
X303257796Y-266680528D01*
X303257796Y-266680528D02*
X302972082Y-266680528D01*
X302972082Y-266680528D02*
X302829224Y-266751957D01*
X303472082Y-267609100D02*
X303329224Y-267680528D01*
X303329224Y-267680528D02*
X302972082Y-267680528D01*
X302972082Y-267680528D02*
X302829224Y-267609100D01*
X302829224Y-267609100D02*
X302757796Y-267466242D01*
X302757796Y-267466242D02*
X302757796Y-267323385D01*
X302757796Y-267323385D02*
X302829224Y-267180528D01*
X302829224Y-267180528D02*
X302972082Y-267109100D01*
X302972082Y-267109100D02*
X303329224Y-267109100D01*
X303329224Y-267109100D02*
X303472082Y-267037671D01*
X304829225Y-267609100D02*
X304686367Y-267680528D01*
X304686367Y-267680528D02*
X304400653Y-267680528D01*
X304400653Y-267680528D02*
X304257796Y-267609100D01*
X304257796Y-267609100D02*
X304186367Y-267537671D01*
X304186367Y-267537671D02*
X304114939Y-267394814D01*
X304114939Y-267394814D02*
X304114939Y-266966242D01*
X304114939Y-266966242D02*
X304186367Y-266823385D01*
X304186367Y-266823385D02*
X304257796Y-266751957D01*
X304257796Y-266751957D02*
X304400653Y-266680528D01*
X304400653Y-266680528D02*
X304686367Y-266680528D01*
X304686367Y-266680528D02*
X304829225Y-266751957D01*
X306114939Y-267680528D02*
X306114939Y-266894814D01*
X306114939Y-266894814D02*
X306043510Y-266751957D01*
X306043510Y-266751957D02*
X305900653Y-266680528D01*
X305900653Y-266680528D02*
X305614939Y-266680528D01*
X305614939Y-266680528D02*
X305472081Y-266751957D01*
X306114939Y-267609100D02*
X305972081Y-267680528D01*
X305972081Y-267680528D02*
X305614939Y-267680528D01*
X305614939Y-267680528D02*
X305472081Y-267609100D01*
X305472081Y-267609100D02*
X305400653Y-267466242D01*
X305400653Y-267466242D02*
X305400653Y-267323385D01*
X305400653Y-267323385D02*
X305472081Y-267180528D01*
X305472081Y-267180528D02*
X305614939Y-267109100D01*
X305614939Y-267109100D02*
X305972081Y-267109100D01*
X305972081Y-267109100D02*
X306114939Y-267037671D01*
X306829224Y-266680528D02*
X306829224Y-267680528D01*
X306829224Y-266823385D02*
X306900653Y-266751957D01*
X306900653Y-266751957D02*
X307043510Y-266680528D01*
X307043510Y-266680528D02*
X307257796Y-266680528D01*
X307257796Y-266680528D02*
X307400653Y-266751957D01*
X307400653Y-266751957D02*
X307472082Y-266894814D01*
X307472082Y-266894814D02*
X307472082Y-267680528D01*
X307972082Y-266680528D02*
X308543510Y-266680528D01*
X308186367Y-266180528D02*
X308186367Y-267466242D01*
X308186367Y-267466242D02*
X308257796Y-267609100D01*
X308257796Y-267609100D02*
X308400653Y-267680528D01*
X308400653Y-267680528D02*
X308543510Y-267680528D01*
X309329225Y-266180528D02*
X309472082Y-266180528D01*
X309472082Y-266180528D02*
X309614939Y-266251957D01*
X309614939Y-266251957D02*
X309686368Y-266323385D01*
X309686368Y-266323385D02*
X309757796Y-266466242D01*
X309757796Y-266466242D02*
X309829225Y-266751957D01*
X309829225Y-266751957D02*
X309829225Y-267109100D01*
X309829225Y-267109100D02*
X309757796Y-267394814D01*
X309757796Y-267394814D02*
X309686368Y-267537671D01*
X309686368Y-267537671D02*
X309614939Y-267609100D01*
X309614939Y-267609100D02*
X309472082Y-267680528D01*
X309472082Y-267680528D02*
X309329225Y-267680528D01*
X309329225Y-267680528D02*
X309186368Y-267609100D01*
X309186368Y-267609100D02*
X309114939Y-267537671D01*
X309114939Y-267537671D02*
X309043510Y-267394814D01*
X309043510Y-267394814D02*
X308972082Y-267109100D01*
X308972082Y-267109100D02*
X308972082Y-266751957D01*
X308972082Y-266751957D02*
X309043510Y-266466242D01*
X309043510Y-266466242D02*
X309114939Y-266323385D01*
X309114939Y-266323385D02*
X309186368Y-266251957D01*
X309186368Y-266251957D02*
X309329225Y-266180528D01*
X310472081Y-267680528D02*
X310472081Y-266680528D01*
X310472081Y-266823385D02*
X310543510Y-266751957D01*
X310543510Y-266751957D02*
X310686367Y-266680528D01*
X310686367Y-266680528D02*
X310900653Y-266680528D01*
X310900653Y-266680528D02*
X311043510Y-266751957D01*
X311043510Y-266751957D02*
X311114939Y-266894814D01*
X311114939Y-266894814D02*
X311114939Y-267680528D01*
X311114939Y-266894814D02*
X311186367Y-266751957D01*
X311186367Y-266751957D02*
X311329224Y-266680528D01*
X311329224Y-266680528D02*
X311543510Y-266680528D01*
X311543510Y-266680528D02*
X311686367Y-266751957D01*
X311686367Y-266751957D02*
X311757796Y-266894814D01*
X311757796Y-266894814D02*
X311757796Y-267680528D01*
X313043510Y-267609100D02*
X312900653Y-267680528D01*
X312900653Y-267680528D02*
X312614939Y-267680528D01*
X312614939Y-267680528D02*
X312472081Y-267609100D01*
X312472081Y-267609100D02*
X312400653Y-267466242D01*
X312400653Y-267466242D02*
X312400653Y-266894814D01*
X312400653Y-266894814D02*
X312472081Y-266751957D01*
X312472081Y-266751957D02*
X312614939Y-266680528D01*
X312614939Y-266680528D02*
X312900653Y-266680528D01*
X312900653Y-266680528D02*
X313043510Y-266751957D01*
X313043510Y-266751957D02*
X313114939Y-266894814D01*
X313114939Y-266894814D02*
X313114939Y-267037671D01*
X313114939Y-267037671D02*
X312400653Y-267180528D01*
X313757795Y-266680528D02*
X313757795Y-267680528D01*
X313757795Y-266823385D02*
X313829224Y-266751957D01*
X313829224Y-266751957D02*
X313972081Y-266680528D01*
X313972081Y-266680528D02*
X314186367Y-266680528D01*
X314186367Y-266680528D02*
X314329224Y-266751957D01*
X314329224Y-266751957D02*
X314400653Y-266894814D01*
X314400653Y-266894814D02*
X314400653Y-267680528D01*
X315043510Y-267609100D02*
X315186367Y-267680528D01*
X315186367Y-267680528D02*
X315472081Y-267680528D01*
X315472081Y-267680528D02*
X315614938Y-267609100D01*
X315614938Y-267609100D02*
X315686367Y-267466242D01*
X315686367Y-267466242D02*
X315686367Y-267394814D01*
X315686367Y-267394814D02*
X315614938Y-267251957D01*
X315614938Y-267251957D02*
X315472081Y-267180528D01*
X315472081Y-267180528D02*
X315257796Y-267180528D01*
X315257796Y-267180528D02*
X315114938Y-267109100D01*
X315114938Y-267109100D02*
X315043510Y-266966242D01*
X315043510Y-266966242D02*
X315043510Y-266894814D01*
X315043510Y-266894814D02*
X315114938Y-266751957D01*
X315114938Y-266751957D02*
X315257796Y-266680528D01*
X315257796Y-266680528D02*
X315472081Y-266680528D01*
X315472081Y-266680528D02*
X315614938Y-266751957D01*
D10*
D11*
X319989000Y-278502200D02*
X319989000Y-281502200D01*
D10*
D11*
X383989000Y-278502200D02*
X383989000Y-285002200D01*
D14*
%TO.C,U_3*%
X105875000Y-93700000D03*
X107625000Y-93700000D03*
X107625000Y-89300000D03*
X105875000Y-89300000D03*
D15*
X105150000Y-94000000D03*
X108350000Y-94000000D03*
X108350000Y-89000000D03*
X105150000Y-89000000D03*
%TD*%
D16*
%TO.C,RST1*%
X169450000Y-100625000D03*
X167750000Y-100625000D03*
X169450000Y-95375000D03*
X167750000Y-95375000D03*
%TD*%
D14*
%TO.C,U_4*%
X105875000Y-55700000D03*
X107625000Y-55700000D03*
X107625000Y-51300000D03*
X105875000Y-51300000D03*
D15*
X105150000Y-56000000D03*
X108350000Y-56000000D03*
X108350000Y-51000000D03*
X105150000Y-51000000D03*
%TD*%
D14*
%TO.C,U_6*%
X146875000Y-58800000D03*
X145125000Y-58800000D03*
X145125000Y-63200000D03*
X146875000Y-63200000D03*
D15*
X147600000Y-58500000D03*
X144400000Y-58500000D03*
X144400000Y-63500000D03*
X147600000Y-63500000D03*
%TD*%
D14*
%TO.C,U_5*%
X146875000Y-96800000D03*
X145125000Y-96800000D03*
X145125000Y-101200000D03*
X146875000Y-101200000D03*
D15*
X147600000Y-96500000D03*
X144400000Y-96500000D03*
X144400000Y-101500000D03*
X147600000Y-101500000D03*
%TD*%
D14*
%TO.C,U_1*%
X69625000Y-89150000D03*
X67875000Y-89150000D03*
X67875000Y-93550000D03*
X69625000Y-93550000D03*
D15*
X70350000Y-88850000D03*
X67150000Y-88850000D03*
X67150000Y-93850000D03*
X70350000Y-93850000D03*
%TD*%
D14*
%TO.C,U_2*%
X69625000Y-51150000D03*
X67875000Y-51150000D03*
X67875000Y-55550000D03*
X69625000Y-55550000D03*
D15*
X70350000Y-50850000D03*
X67150000Y-50850000D03*
X67150000Y-55850000D03*
X70350000Y-55850000D03*
%TD*%
D17*
%TO.C,SW26*%
X105247500Y-126750000D03*
D18*
X93755000Y-128950000D03*
%TD*%
D19*
%TO.C,D29*%
X152743400Y-131030027D03*
X150622200Y-133557973D03*
%TD*%
D20*
%TO.C,L8*%
X61700000Y-49300000D03*
X61700000Y-50700000D03*
X56300000Y-50700000D03*
X56300000Y-49300000D03*
%TD*%
D21*
%TO.C,D15*%
X89000000Y-54250000D03*
X89000000Y-57550000D03*
%TD*%
D20*
%TO.C,L11*%
X80700000Y-56300000D03*
X80700000Y-57700000D03*
X75300000Y-57700000D03*
X75300000Y-56300000D03*
%TD*%
D17*
%TO.C,SW22*%
X143247500Y-90750000D03*
D18*
X131755000Y-92950000D03*
%TD*%
D20*
%TO.C,L22*%
X137700000Y-81300000D03*
X137700000Y-82700000D03*
X132300000Y-82700000D03*
X132300000Y-81300000D03*
%TD*%
D21*
%TO.C,D26*%
X89000000Y-119250000D03*
X89000000Y-122550000D03*
%TD*%
D17*
%TO.C,SW20*%
X124247500Y-46750000D03*
D18*
X112755000Y-48950000D03*
%TD*%
D20*
%TO.C,L25*%
X80700000Y-117300000D03*
X80700000Y-118700000D03*
X75300000Y-118700000D03*
X75300000Y-117300000D03*
%TD*%
D17*
%TO.C,SW21*%
X143247500Y-109750000D03*
D18*
X131755000Y-111950000D03*
%TD*%
D20*
%TO.C,L18*%
X118700000Y-75300000D03*
X118700000Y-76700000D03*
X113300000Y-76700000D03*
X113300000Y-75300000D03*
%TD*%
D17*
%TO.C,SW15*%
X105247500Y-61750000D03*
D18*
X93755000Y-63950000D03*
%TD*%
D17*
%TO.C,SW9*%
X86247500Y-103750000D03*
D18*
X74755000Y-105950000D03*
%TD*%
D20*
%TO.C,L6*%
X61700000Y-87300000D03*
X61700000Y-88700000D03*
X56300000Y-88700000D03*
X56300000Y-87300000D03*
%TD*%
D21*
%TO.C,D22*%
X127000000Y-83250000D03*
X127000000Y-86550000D03*
%TD*%
D17*
%TO.C,SW14*%
X105247500Y-80750000D03*
D18*
X93755000Y-82950000D03*
%TD*%
D20*
%TO.C,L1*%
X42700000Y-114300000D03*
X42700000Y-115700000D03*
X37300000Y-115700000D03*
X37300000Y-114300000D03*
%TD*%
D17*
%TO.C,SW11*%
X86247500Y-65750000D03*
D18*
X74755000Y-67950000D03*
%TD*%
D20*
%TO.C,L24*%
X137700000Y-43300000D03*
X137700000Y-44700000D03*
X132300000Y-44700000D03*
X132300000Y-43300000D03*
%TD*%
D22*
%TO.C,D27*%
X109107407Y-119385679D03*
X108819793Y-122673121D03*
%TD*%
D20*
%TO.C,L12*%
X80700000Y-37300000D03*
X80700000Y-38700000D03*
X75300000Y-38700000D03*
X75300000Y-37300000D03*
%TD*%
D21*
%TO.C,D25*%
X70000000Y-119250000D03*
X70000000Y-122550000D03*
%TD*%
D17*
%TO.C,SW7*%
X67247500Y-77750000D03*
D18*
X55755000Y-79950000D03*
%TD*%
D17*
%TO.C,SW17*%
X124247500Y-103750000D03*
D18*
X112755000Y-105950000D03*
%TD*%
D21*
%TO.C,D24*%
X127000000Y-45250000D03*
X127000000Y-48550000D03*
%TD*%
D20*
%TO.C,L19*%
X118700000Y-56300000D03*
X118700000Y-57700000D03*
X113300000Y-57700000D03*
X113300000Y-56300000D03*
%TD*%
D17*
%TO.C,SW18*%
X124247500Y-84750000D03*
D18*
X112755000Y-86950000D03*
%TD*%
D17*
%TO.C,SW13*%
X105247500Y-99750000D03*
D18*
X93755000Y-101950000D03*
%TD*%
D21*
%TO.C,D8*%
X51000000Y-51250000D03*
X51000000Y-54550000D03*
%TD*%
%TO.C,D16*%
X89000000Y-35250000D03*
X89000000Y-38550000D03*
%TD*%
%TO.C,D5*%
X51000000Y-108250000D03*
X51000000Y-111550000D03*
%TD*%
%TO.C,D23*%
X127000000Y-64250000D03*
X127000000Y-67550000D03*
%TD*%
D17*
%TO.C,SW3*%
X48247500Y-85750000D03*
D18*
X36755000Y-87950000D03*
%TD*%
D21*
%TO.C,D6*%
X51000000Y-89250000D03*
X51000000Y-92550000D03*
%TD*%
D23*
%TO.C,L29*%
X162193571Y-136414095D03*
X161293669Y-137486558D03*
X157157029Y-134015505D03*
X158056931Y-132943042D03*
%TD*%
D24*
%TO.C,SW29*%
X160368798Y-147219057D03*
D25*
X150150900Y-141517119D03*
%TD*%
D21*
%TO.C,D2*%
X32000000Y-97250000D03*
X32000000Y-100550000D03*
%TD*%
D17*
%TO.C,SW24*%
X143247500Y-52750000D03*
D18*
X131755000Y-54950000D03*
%TD*%
D21*
%TO.C,D20*%
X108000000Y-39250000D03*
X108000000Y-42550000D03*
%TD*%
%TO.C,D11*%
X70000000Y-58250000D03*
X70000000Y-61550000D03*
%TD*%
%TO.C,D10*%
X70000000Y-77250000D03*
X70000000Y-80550000D03*
%TD*%
D26*
%TO.C,L27*%
X119936635Y-118375684D03*
X119814617Y-119770357D03*
X114435165Y-119299716D03*
X114557183Y-117905043D03*
%TD*%
D17*
%TO.C,SW4*%
X48247500Y-66750000D03*
D18*
X36755000Y-68950000D03*
%TD*%
D17*
%TO.C,SW1*%
X48247500Y-123750000D03*
D18*
X36755000Y-125950000D03*
%TD*%
D17*
%TO.C,SW8*%
X67247500Y-58750000D03*
D18*
X55755000Y-60950000D03*
%TD*%
D17*
%TO.C,SW23*%
X143247500Y-71750000D03*
D18*
X131755000Y-73950000D03*
%TD*%
D20*
%TO.C,L3*%
X42700000Y-76300000D03*
X42700000Y-77700000D03*
X37300000Y-77700000D03*
X37300000Y-76300000D03*
%TD*%
D17*
%TO.C,SW25*%
X86247500Y-126750000D03*
D18*
X74755000Y-128950000D03*
%TD*%
D20*
%TO.C,L13*%
X99700000Y-90300000D03*
X99700000Y-91700000D03*
X94300000Y-91700000D03*
X94300000Y-90300000D03*
%TD*%
%TO.C,L7*%
X61700000Y-68300000D03*
X61700000Y-69700000D03*
X56300000Y-69700000D03*
X56300000Y-68300000D03*
%TD*%
%TO.C,L21*%
X137700000Y-100300000D03*
X137700000Y-101700000D03*
X132300000Y-101700000D03*
X132300000Y-100300000D03*
%TD*%
%TO.C,L10*%
X80700000Y-75300000D03*
X80700000Y-76700000D03*
X75300000Y-76700000D03*
X75300000Y-75300000D03*
%TD*%
%TO.C,L15*%
X99700000Y-52300000D03*
X99700000Y-53700000D03*
X94300000Y-53700000D03*
X94300000Y-52300000D03*
%TD*%
D17*
%TO.C,SW16*%
X105247500Y-42750000D03*
D18*
X93755000Y-44950000D03*
%TD*%
D21*
%TO.C,D4*%
X32000000Y-59250000D03*
X32000000Y-62550000D03*
%TD*%
%TO.C,D9*%
X70000000Y-96250000D03*
X70000000Y-99550000D03*
%TD*%
%TO.C,D21*%
X127000000Y-102250000D03*
X127000000Y-105550000D03*
%TD*%
%TO.C,D19*%
X108000000Y-58250000D03*
X108000000Y-61550000D03*
%TD*%
D20*
%TO.C,L14*%
X99700000Y-71300000D03*
X99700000Y-72700000D03*
X94300000Y-72700000D03*
X94300000Y-71300000D03*
%TD*%
%TO.C,L5*%
X61700000Y-106300000D03*
X61700000Y-107700000D03*
X56300000Y-107700000D03*
X56300000Y-106300000D03*
%TD*%
D21*
%TO.C,D17*%
X108000000Y-96250000D03*
X108000000Y-99550000D03*
%TD*%
D20*
%TO.C,L9*%
X80700000Y-94300000D03*
X80700000Y-95700000D03*
X75300000Y-95700000D03*
X75300000Y-94300000D03*
%TD*%
%TO.C,L16*%
X99700000Y-33300000D03*
X99700000Y-34700000D03*
X94300000Y-34700000D03*
X94300000Y-33300000D03*
%TD*%
D21*
%TO.C,D12*%
X70000000Y-39250000D03*
X70000000Y-42550000D03*
%TD*%
%TO.C,D14*%
X89000000Y-73250000D03*
X89000000Y-76550000D03*
%TD*%
%TO.C,D18*%
X108000000Y-77250000D03*
X108000000Y-80550000D03*
%TD*%
D17*
%TO.C,SW6*%
X67247500Y-96750000D03*
D18*
X55755000Y-98950000D03*
%TD*%
D20*
%TO.C,L20*%
X118700000Y-37300000D03*
X118700000Y-38700000D03*
X113300000Y-38700000D03*
X113300000Y-37300000D03*
%TD*%
%TO.C,L4*%
X42700000Y-57300000D03*
X42700000Y-58700000D03*
X37300000Y-58700000D03*
X37300000Y-57300000D03*
%TD*%
D27*
%TO.C,L28*%
X141949784Y-123844070D03*
X141470956Y-125159639D03*
X136396616Y-123312730D03*
X136875444Y-121997161D03*
%TD*%
D28*
%TO.C,SW28*%
X143930639Y-134621558D03*
D29*
X132378778Y-132758216D03*
%TD*%
D20*
%TO.C,L2*%
X42700000Y-95300000D03*
X42700000Y-96700000D03*
X37300000Y-96700000D03*
X37300000Y-95300000D03*
%TD*%
%TO.C,L26*%
X99700000Y-117300000D03*
X99700000Y-118700000D03*
X94300000Y-118700000D03*
X94300000Y-117300000D03*
%TD*%
D21*
%TO.C,D1*%
X32000000Y-116250000D03*
X32000000Y-119550000D03*
%TD*%
D20*
%TO.C,L17*%
X118700000Y-94300000D03*
X118700000Y-95700000D03*
X113300000Y-95700000D03*
X113300000Y-94300000D03*
%TD*%
%TO.C,L23*%
X137700000Y-62300000D03*
X137700000Y-63700000D03*
X132300000Y-63700000D03*
X132300000Y-62300000D03*
%TD*%
D30*
%TO.C,D28*%
X131228133Y-122016907D03*
X130099467Y-125117893D03*
%TD*%
D17*
%TO.C,SW12*%
X86247500Y-46750000D03*
D18*
X74755000Y-48950000D03*
%TD*%
D21*
%TO.C,D7*%
X51000000Y-70250000D03*
X51000000Y-73550000D03*
%TD*%
D17*
%TO.C,SW10*%
X86247500Y-84750000D03*
D18*
X74755000Y-86950000D03*
%TD*%
D17*
%TO.C,SW19*%
X124247500Y-65750000D03*
D18*
X112755000Y-67950000D03*
%TD*%
D21*
%TO.C,D3*%
X32000000Y-78250000D03*
X32000000Y-81550000D03*
%TD*%
%TO.C,D13*%
X89000000Y-92250000D03*
X89000000Y-95550000D03*
%TD*%
D17*
%TO.C,SW2*%
X48247500Y-104750000D03*
D18*
X36755000Y-106950000D03*
%TD*%
D17*
%TO.C,SW5*%
X67247500Y-115750000D03*
D18*
X55755000Y-117950000D03*
%TD*%
D31*
%TO.C,SW27*%
X124639482Y-128273147D03*
D32*
X112998972Y-129463138D03*
%TD*%
M02*
