%TF.GenerationSoftware,KiCad,Pcbnew,8.0.4*%
%TF.CreationDate,2024-08-10T13:55:05-06:00*%
%TF.ProjectId,staggered_col58,73746167-6765-4726-9564-5f636f6c3538,0.1*%
%TF.SameCoordinates,Original*%
%TF.FileFunction,Copper,L1,Top*%
%TF.FilePolarity,Positive*%
%FSLAX46Y46*%
G04 Gerber Fmt 4.6, Leading zero omitted, Abs format (unit mm)*
G04 Created by KiCad (PCBNEW 8.0.4) date 2024-08-10 13:55:05*
%MOMM*%
%LPD*%
G01*
G04 APERTURE LIST*
G04 Aperture macros list*
%AMRotRect*
0 Rectangle, with rotation*
0 The origin of the aperture is its center*
0 $1 length*
0 $2 width*
0 $3 Rotation angle, in degrees counterclockwise*
0 Add horizontal line*
21,1,$1,$2,0,0,$3*%
%AMOutline5P*
0 Free polygon, 5 corners , with rotation*
0 The origin of the aperture is its center*
0 number of corners: always 5*
0 $1 to $10 corner X, Y*
0 $11 Rotation angle, in degrees counterclockwise*
0 create outline with 5 corners*
4,1,5,$1,$2,$3,$4,$5,$6,$7,$8,$9,$10,$1,$2,$11*%
%AMOutline6P*
0 Free polygon, 6 corners , with rotation*
0 The origin of the aperture is its center*
0 number of corners: always 6*
0 $1 to $12 corner X, Y*
0 $13 Rotation angle, in degrees counterclockwise*
0 create outline with 6 corners*
4,1,6,$1,$2,$3,$4,$5,$6,$7,$8,$9,$10,$11,$12,$1,$2,$13*%
%AMOutline7P*
0 Free polygon, 7 corners , with rotation*
0 The origin of the aperture is its center*
0 number of corners: always 7*
0 $1 to $14 corner X, Y*
0 $15 Rotation angle, in degrees counterclockwise*
0 create outline with 7 corners*
4,1,7,$1,$2,$3,$4,$5,$6,$7,$8,$9,$10,$11,$12,$13,$14,$1,$2,$15*%
%AMOutline8P*
0 Free polygon, 8 corners , with rotation*
0 The origin of the aperture is its center*
0 number of corners: always 8*
0 $1 to $16 corner X, Y*
0 $17 Rotation angle, in degrees counterclockwise*
0 create outline with 8 corners*
4,1,8,$1,$2,$3,$4,$5,$6,$7,$8,$9,$10,$11,$12,$13,$14,$15,$16,$1,$2,$17*%
G04 Aperture macros list end*
%TA.AperFunction,ComponentPad*%
%ADD10R,1.752600X1.752600*%
%TD*%
%TA.AperFunction,ComponentPad*%
%ADD11C,1.752600*%
%TD*%
%TA.AperFunction,ComponentPad*%
%ADD12C,1.900000*%
%TD*%
%TA.AperFunction,SMDPad,CuDef*%
%ADD13Outline5P,-1.300000X1.300000X1.300000X1.300000X1.300000X-0.117000X0.117000X-1.300000X-1.300000X-1.300000X180.000000*%
%TD*%
%TA.AperFunction,SMDPad,CuDef*%
%ADD14R,2.600000X2.600000*%
%TD*%
%TA.AperFunction,SMDPad,CuDef*%
%ADD15Outline5P,-1.300000X1.300000X1.300000X1.300000X1.300000X-0.117000X0.117000X-1.300000X-1.300000X-1.300000X175.000000*%
%TD*%
%TA.AperFunction,SMDPad,CuDef*%
%ADD16RotRect,2.600000X2.600000X175.000000*%
%TD*%
%TA.AperFunction,SMDPad,CuDef*%
%ADD17Outline5P,-1.300000X1.300000X1.300000X1.300000X1.300000X-0.117000X0.117000X-1.300000X-1.300000X-1.300000X160.000000*%
%TD*%
%TA.AperFunction,SMDPad,CuDef*%
%ADD18RotRect,2.600000X2.600000X160.000000*%
%TD*%
%TA.AperFunction,SMDPad,CuDef*%
%ADD19Outline5P,-1.300000X1.300000X1.300000X1.300000X1.300000X-0.117000X0.117000X-1.300000X-1.300000X-1.300000X140.000000*%
%TD*%
%TA.AperFunction,SMDPad,CuDef*%
%ADD20RotRect,2.600000X2.600000X140.000000*%
%TD*%
%TA.AperFunction,SMDPad,CuDef*%
%ADD21R,0.900000X1.200000*%
%TD*%
%TA.AperFunction,ComponentPad*%
%ADD22R,1.778000X1.778000*%
%TD*%
%TA.AperFunction,ComponentPad*%
%ADD23C,1.905000*%
%TD*%
%TA.AperFunction,SMDPad,CuDef*%
%ADD24RotRect,0.900000X1.200000X355.000000*%
%TD*%
%TA.AperFunction,ComponentPad*%
%ADD25RotRect,1.778000X1.778000X355.000000*%
%TD*%
%TA.AperFunction,SMDPad,CuDef*%
%ADD26RotRect,0.900000X1.200000X340.000000*%
%TD*%
%TA.AperFunction,ComponentPad*%
%ADD27RotRect,1.778000X1.778000X340.000000*%
%TD*%
%TA.AperFunction,SMDPad,CuDef*%
%ADD28RotRect,0.900000X1.200000X320.000000*%
%TD*%
%TA.AperFunction,ComponentPad*%
%ADD29RotRect,1.778000X1.778000X320.000000*%
%TD*%
%TA.AperFunction,SMDPad,CuDef*%
%ADD30R,1.400000X1.000000*%
%TD*%
%TA.AperFunction,SMDPad,CuDef*%
%ADD31RotRect,1.400000X1.000000X355.000000*%
%TD*%
%TA.AperFunction,SMDPad,CuDef*%
%ADD32RotRect,1.400000X1.000000X340.000000*%
%TD*%
%TA.AperFunction,SMDPad,CuDef*%
%ADD33RotRect,1.400000X1.000000X320.000000*%
%TD*%
%TA.AperFunction,ComponentPad*%
%ADD34O,2.200000X1.600000*%
%TD*%
%TA.AperFunction,SMDPad,CuDef*%
%ADD35R,1.000000X1.550000*%
%TD*%
%TA.AperFunction,SMDPad,CuDef*%
%ADD36R,0.800000X1.000000*%
%TD*%
%TA.AperFunction,SMDPad,CuDef*%
%ADD37R,1.500000X0.700000*%
%TD*%
%TA.AperFunction,ComponentPad*%
%ADD38R,2.000000X2.000000*%
%TD*%
%TA.AperFunction,ComponentPad*%
%ADD39C,2.000000*%
%TD*%
%TA.AperFunction,ComponentPad*%
%ADD40C,1.500000*%
%TD*%
%TA.AperFunction,ComponentPad*%
%ADD41R,2.000000X3.200000*%
%TD*%
%TA.AperFunction,SMDPad,CuDef*%
%ADD42R,1.000000X2.600000*%
%TD*%
%TA.AperFunction,SMDPad,CuDef*%
%ADD43R,1.200000X2.000000*%
%TD*%
%TA.AperFunction,ViaPad*%
%ADD44C,0.600000*%
%TD*%
%TA.AperFunction,ViaPad*%
%ADD45C,0.560000*%
%TD*%
%TA.AperFunction,Conductor*%
%ADD46C,0.200000*%
%TD*%
%TA.AperFunction,Conductor*%
%ADD47C,0.250000*%
%TD*%
G04 APERTURE END LIST*
D10*
%TO.P,MCU1,1*%
%TO.N,RAW*%
X154380000Y-39030000D03*
D11*
%TO.P,MCU1,2*%
%TO.N,GND*%
X154380000Y-41570000D03*
%TO.P,MCU1,3*%
%TO.N,RST*%
X154380000Y-44110000D03*
%TO.P,MCU1,4*%
%TO.N,VCC*%
X154380000Y-46650000D03*
%TO.P,MCU1,5*%
%TO.N,P21*%
X154380000Y-49190000D03*
%TO.P,MCU1,6*%
%TO.N,P20*%
X154380000Y-51730000D03*
%TO.P,MCU1,7*%
%TO.N,P19*%
X154380000Y-54270000D03*
%TO.P,MCU1,8*%
%TO.N,P18*%
X154380000Y-56810000D03*
%TO.P,MCU1,9*%
%TO.N,P15*%
X154380000Y-59350000D03*
%TO.P,MCU1,10*%
%TO.N,P14*%
X154380000Y-61890000D03*
%TO.P,MCU1,11*%
%TO.N,P16*%
X154380000Y-64430000D03*
%TO.P,MCU1,12*%
%TO.N,P10*%
X154380000Y-66970000D03*
%TO.P,MCU1,13*%
%TO.N,P1*%
X169620000Y-39030000D03*
%TO.P,MCU1,14*%
%TO.N,P0*%
X169620000Y-41570000D03*
%TO.P,MCU1,15*%
%TO.N,GND*%
X169620000Y-44110000D03*
%TO.P,MCU1,16*%
X169620000Y-46650000D03*
%TO.P,MCU1,17*%
%TO.N,P2*%
X169620000Y-49190000D03*
%TO.P,MCU1,18*%
%TO.N,P3*%
X169620000Y-51730000D03*
%TO.P,MCU1,19*%
%TO.N,P4*%
X169620000Y-54270000D03*
%TO.P,MCU1,20*%
%TO.N,P5*%
X169620000Y-56810000D03*
%TO.P,MCU1,21*%
%TO.N,P6*%
X169620000Y-59350000D03*
%TO.P,MCU1,22*%
%TO.N,P7*%
X169620000Y-61890000D03*
%TO.P,MCU1,23*%
%TO.N,P8*%
X169620000Y-64430000D03*
%TO.P,MCU1,24*%
%TO.N,P9*%
X169620000Y-66970000D03*
%TD*%
D12*
%TO.P,SW1,*%
%TO.N,P1010*%
X35000000Y-114850000D03*
%TO.N,P1011*%
X45000000Y-114850000D03*
D13*
%TO.P,SW1,1*%
%TO.N,P5*%
X36725000Y-125950000D03*
D14*
%TO.P,SW1,2*%
%TO.N,DP21*%
X48275000Y-123750000D03*
%TD*%
D12*
%TO.P,SW2,*%
%TO.N,P1020*%
X35000000Y-95850000D03*
%TO.N,P1021*%
X45000000Y-95850000D03*
D13*
%TO.P,SW2,1*%
%TO.N,P4*%
X36725000Y-106950000D03*
D14*
%TO.P,SW2,2*%
%TO.N,DP21*%
X48275000Y-104750000D03*
%TD*%
D12*
%TO.P,SW3,*%
%TO.N,P1030*%
X35000000Y-76850000D03*
%TO.N,P1031*%
X45000000Y-76850000D03*
D13*
%TO.P,SW3,1*%
%TO.N,P3*%
X36725000Y-87950000D03*
D14*
%TO.P,SW3,2*%
%TO.N,DP21*%
X48275000Y-85750000D03*
%TD*%
D12*
%TO.P,SW4,*%
%TO.N,P1040*%
X35000000Y-57850000D03*
%TO.N,P1041*%
X45000000Y-57850000D03*
D13*
%TO.P,SW4,1*%
%TO.N,P2*%
X36725000Y-68950000D03*
D14*
%TO.P,SW4,2*%
%TO.N,DP21*%
X48275000Y-66750000D03*
%TD*%
D12*
%TO.P,SW5,*%
%TO.N,P1011*%
X55000000Y-104850000D03*
%TO.N,P1012*%
X65000000Y-104850000D03*
D13*
%TO.P,SW5,1*%
%TO.N,P5*%
X56725000Y-115950000D03*
D14*
%TO.P,SW5,2*%
%TO.N,DP20*%
X68275000Y-113750000D03*
%TD*%
D12*
%TO.P,SW6,*%
%TO.N,P1021*%
X55000000Y-85850000D03*
%TO.N,P1022*%
X65000000Y-85850000D03*
D13*
%TO.P,SW6,1*%
%TO.N,P4*%
X56725000Y-96950000D03*
D14*
%TO.P,SW6,2*%
%TO.N,DP20*%
X68275000Y-94750000D03*
%TD*%
D12*
%TO.P,SW7,*%
%TO.N,P1031*%
X55000000Y-66850000D03*
%TO.N,P1032*%
X65000000Y-66850000D03*
D13*
%TO.P,SW7,1*%
%TO.N,P3*%
X56725000Y-77950000D03*
D14*
%TO.P,SW7,2*%
%TO.N,DP20*%
X68275000Y-75750000D03*
%TD*%
D12*
%TO.P,SW8,*%
%TO.N,P1041*%
X55000000Y-47850000D03*
%TO.N,P1042*%
X65000000Y-47850000D03*
D13*
%TO.P,SW8,1*%
%TO.N,P2*%
X56725000Y-58950000D03*
D14*
%TO.P,SW8,2*%
%TO.N,DP20*%
X68275000Y-56750000D03*
%TD*%
D12*
%TO.P,SW9,*%
%TO.N,P1012*%
X75000000Y-92850000D03*
%TO.N,P1013*%
X85000000Y-92850000D03*
D13*
%TO.P,SW9,1*%
%TO.N,P5*%
X76725000Y-103950000D03*
D14*
%TO.P,SW9,2*%
%TO.N,DP19*%
X88275000Y-101750000D03*
%TD*%
D12*
%TO.P,SW10,*%
%TO.N,P1022*%
X75000000Y-73850000D03*
%TO.N,P1023*%
X85000000Y-73850000D03*
D13*
%TO.P,SW10,1*%
%TO.N,P4*%
X76725000Y-84950000D03*
D14*
%TO.P,SW10,2*%
%TO.N,DP19*%
X88275000Y-82750000D03*
%TD*%
D12*
%TO.P,SW11,*%
%TO.N,P1032*%
X75000000Y-54850000D03*
%TO.N,P1033*%
X85000000Y-54850000D03*
D13*
%TO.P,SW11,1*%
%TO.N,P3*%
X76725000Y-65950000D03*
D14*
%TO.P,SW11,2*%
%TO.N,DP19*%
X88275000Y-63750000D03*
%TD*%
D12*
%TO.P,SW12,*%
%TO.N,P1042*%
X75000000Y-35850000D03*
%TO.N,P1043*%
X85000000Y-35850000D03*
D13*
%TO.P,SW12,1*%
%TO.N,P2*%
X76725000Y-46950000D03*
D14*
%TO.P,SW12,2*%
%TO.N,DP19*%
X88275000Y-44750000D03*
%TD*%
D12*
%TO.P,SW13,*%
%TO.N,P1013*%
X95000000Y-88850000D03*
%TO.N,P1014*%
X105000000Y-88850000D03*
D13*
%TO.P,SW13,1*%
%TO.N,P5*%
X96725000Y-99950000D03*
D14*
%TO.P,SW13,2*%
%TO.N,DP18*%
X108275000Y-97750000D03*
%TD*%
D12*
%TO.P,SW14,*%
%TO.N,P1023*%
X95000000Y-69850000D03*
%TO.N,P1024*%
X105000000Y-69850000D03*
D13*
%TO.P,SW14,1*%
%TO.N,P4*%
X96725000Y-80950000D03*
D14*
%TO.P,SW14,2*%
%TO.N,DP18*%
X108275000Y-78750000D03*
%TD*%
D12*
%TO.P,SW15,*%
%TO.N,P1033*%
X95000000Y-50850000D03*
%TO.N,P1034*%
X105000000Y-50850000D03*
D13*
%TO.P,SW15,1*%
%TO.N,P3*%
X96725000Y-61950000D03*
D14*
%TO.P,SW15,2*%
%TO.N,DP18*%
X108275000Y-59750000D03*
%TD*%
D12*
%TO.P,SW16,*%
%TO.N,P1043*%
X95000000Y-31850000D03*
%TO.N,P1044*%
X105000000Y-31850000D03*
D13*
%TO.P,SW16,1*%
%TO.N,P2*%
X96725000Y-42950000D03*
D14*
%TO.P,SW16,2*%
%TO.N,DP18*%
X108275000Y-40750000D03*
%TD*%
D12*
%TO.P,SW17,*%
%TO.N,P1014*%
X115000000Y-92850000D03*
%TO.N,P1015*%
X125000000Y-92850000D03*
D13*
%TO.P,SW17,1*%
%TO.N,P5*%
X116725000Y-103950000D03*
D14*
%TO.P,SW17,2*%
%TO.N,DP15*%
X128275000Y-101750000D03*
%TD*%
D12*
%TO.P,SW18,*%
%TO.N,P1024*%
X115000000Y-73850000D03*
%TO.N,P1025*%
X125000000Y-73850000D03*
D13*
%TO.P,SW18,1*%
%TO.N,P4*%
X116725000Y-84950000D03*
D14*
%TO.P,SW18,2*%
%TO.N,DP15*%
X128275000Y-82750000D03*
%TD*%
D12*
%TO.P,SW19,*%
%TO.N,P1034*%
X115000000Y-54850000D03*
%TO.N,P1035*%
X125000000Y-54850000D03*
D13*
%TO.P,SW19,1*%
%TO.N,P3*%
X116725000Y-65950000D03*
D14*
%TO.P,SW19,2*%
%TO.N,DP15*%
X128275000Y-63750000D03*
%TD*%
D12*
%TO.P,SW20,*%
%TO.N,P1044*%
X115000000Y-35850000D03*
%TO.N,P1045*%
X125000000Y-35850000D03*
D13*
%TO.P,SW20,1*%
%TO.N,P2*%
X116725000Y-46950000D03*
D14*
%TO.P,SW20,2*%
%TO.N,DP15*%
X128275000Y-44750000D03*
%TD*%
D12*
%TO.P,SW21,*%
%TO.N,P1015*%
X135000000Y-98850000D03*
%TO.N,P1020*%
X145000000Y-98850000D03*
D13*
%TO.P,SW21,1*%
%TO.N,P5*%
X136725000Y-109950000D03*
D14*
%TO.P,SW21,2*%
%TO.N,DP14*%
X148275000Y-107750000D03*
%TD*%
D12*
%TO.P,SW22,*%
%TO.N,P1025*%
X135000000Y-79850000D03*
%TO.N,P1030*%
X145000000Y-79850000D03*
D13*
%TO.P,SW22,1*%
%TO.N,P4*%
X136725000Y-90950000D03*
D14*
%TO.P,SW22,2*%
%TO.N,DP14*%
X148275000Y-88750000D03*
%TD*%
D12*
%TO.P,SW23,*%
%TO.N,P1035*%
X135000000Y-60850000D03*
%TO.N,P1040*%
X145000000Y-60850000D03*
D13*
%TO.P,SW23,1*%
%TO.N,P3*%
X136725000Y-71950000D03*
D14*
%TO.P,SW23,2*%
%TO.N,DP14*%
X148275000Y-69750000D03*
%TD*%
D12*
%TO.P,SW24,*%
%TO.N,P1045*%
X135000000Y-41850000D03*
%TO.N,P10*%
X145000000Y-41850000D03*
D13*
%TO.P,SW24,1*%
%TO.N,P2*%
X136725000Y-52950000D03*
D14*
%TO.P,SW24,2*%
%TO.N,DP14*%
X148275000Y-50750000D03*
%TD*%
D12*
%TO.P,SW25,*%
%TO.N,P1001*%
X75000000Y-114850000D03*
%TO.N,P1002*%
X85000000Y-114850000D03*
D13*
%TO.P,SW25,1*%
%TO.N,P6*%
X76725000Y-125950000D03*
D14*
%TO.P,SW25,2*%
%TO.N,DP19*%
X88275000Y-123750000D03*
%TD*%
D12*
%TO.P,SW26,*%
%TO.N,P1002*%
X95000000Y-114850000D03*
%TO.N,P1003*%
X105000000Y-114850000D03*
D13*
%TO.P,SW26,1*%
%TO.N,P6*%
X96725000Y-125950000D03*
D14*
%TO.P,SW26,2*%
%TO.N,DP18*%
X108275000Y-123750000D03*
%TD*%
D12*
%TO.P,SW27,*%
%TO.N,P1003*%
X115467879Y-115433819D03*
%TO.N,P1004*%
X125429826Y-116305376D03*
D15*
%TO.P,SW27,1*%
%TO.N,P6*%
X116218886Y-126641923D03*
D16*
%TO.P,SW27,2*%
%TO.N,DP15*%
X127916677Y-125456944D03*
%TD*%
D12*
%TO.P,SW28,*%
%TO.N,P1004*%
X137903341Y-118936982D03*
%TO.N,P1005*%
X147300267Y-122357184D03*
D17*
%TO.P,SW28,1*%
%TO.N,P6*%
X135727887Y-129957555D03*
D18*
%TO.P,SW28,2*%
%TO.N,DP14*%
X147333781Y-131840564D03*
%TD*%
D12*
%TO.P,SW29,*%
%TO.N,P1005*%
X158529434Y-128840333D03*
%TO.N,P1010*%
X166189878Y-135268209D03*
D19*
%TO.P,SW29,1*%
%TO.N,P6*%
X152715918Y-138452235D03*
D20*
%TO.P,SW29,2*%
%TO.N,DP16*%
X162977864Y-144191134D03*
%TD*%
D21*
%TO.P,D1,1*%
%TO.N,P21*%
X38350000Y-128500000D03*
%TO.P,D1,2*%
%TO.N,DP21*%
X41650000Y-128500000D03*
D22*
%TO.P,D1,1*%
%TO.N,P21*%
X37100000Y-128500000D03*
D23*
%TO.P,D1,2*%
%TO.N,DP21*%
X42900000Y-128500000D03*
%TD*%
D21*
%TO.P,D2,1*%
%TO.N,P21*%
X38350000Y-109500000D03*
%TO.P,D2,2*%
%TO.N,DP21*%
X41650000Y-109500000D03*
D22*
%TO.P,D2,1*%
%TO.N,P21*%
X37100000Y-109500000D03*
D23*
%TO.P,D2,2*%
%TO.N,DP21*%
X42900000Y-109500000D03*
%TD*%
D21*
%TO.P,D3,1*%
%TO.N,P21*%
X38350000Y-90500000D03*
%TO.P,D3,2*%
%TO.N,DP21*%
X41650000Y-90500000D03*
D22*
%TO.P,D3,1*%
%TO.N,P21*%
X37100000Y-90500000D03*
D23*
%TO.P,D3,2*%
%TO.N,DP21*%
X42900000Y-90500000D03*
%TD*%
D21*
%TO.P,D4,1*%
%TO.N,P21*%
X38350000Y-71500000D03*
%TO.P,D4,2*%
%TO.N,DP21*%
X41650000Y-71500000D03*
D22*
%TO.P,D4,1*%
%TO.N,P21*%
X37100000Y-71500000D03*
D23*
%TO.P,D4,2*%
%TO.N,DP21*%
X42900000Y-71500000D03*
%TD*%
D21*
%TO.P,D5,1*%
%TO.N,P20*%
X58350000Y-118500000D03*
%TO.P,D5,2*%
%TO.N,DP20*%
X61650000Y-118500000D03*
D22*
%TO.P,D5,1*%
%TO.N,P20*%
X57100000Y-118500000D03*
D23*
%TO.P,D5,2*%
%TO.N,DP20*%
X62900000Y-118500000D03*
%TD*%
D21*
%TO.P,D6,1*%
%TO.N,P20*%
X58350000Y-99500000D03*
%TO.P,D6,2*%
%TO.N,DP20*%
X61650000Y-99500000D03*
D22*
%TO.P,D6,1*%
%TO.N,P20*%
X57100000Y-99500000D03*
D23*
%TO.P,D6,2*%
%TO.N,DP20*%
X62900000Y-99500000D03*
%TD*%
D21*
%TO.P,D7,1*%
%TO.N,P20*%
X58350000Y-80500000D03*
%TO.P,D7,2*%
%TO.N,DP20*%
X61650000Y-80500000D03*
D22*
%TO.P,D7,1*%
%TO.N,P20*%
X57100000Y-80500000D03*
D23*
%TO.P,D7,2*%
%TO.N,DP20*%
X62900000Y-80500000D03*
%TD*%
D21*
%TO.P,D8,1*%
%TO.N,P20*%
X58350000Y-61500000D03*
%TO.P,D8,2*%
%TO.N,DP20*%
X61650000Y-61500000D03*
D22*
%TO.P,D8,1*%
%TO.N,P20*%
X57100000Y-61500000D03*
D23*
%TO.P,D8,2*%
%TO.N,DP20*%
X62900000Y-61500000D03*
%TD*%
D21*
%TO.P,D9,1*%
%TO.N,P19*%
X78350000Y-106500000D03*
%TO.P,D9,2*%
%TO.N,DP19*%
X81650000Y-106500000D03*
D22*
%TO.P,D9,1*%
%TO.N,P19*%
X77100000Y-106500000D03*
D23*
%TO.P,D9,2*%
%TO.N,DP19*%
X82900000Y-106500000D03*
%TD*%
D21*
%TO.P,D10,1*%
%TO.N,P19*%
X78350000Y-87500000D03*
%TO.P,D10,2*%
%TO.N,DP19*%
X81650000Y-87500000D03*
D22*
%TO.P,D10,1*%
%TO.N,P19*%
X77100000Y-87500000D03*
D23*
%TO.P,D10,2*%
%TO.N,DP19*%
X82900000Y-87500000D03*
%TD*%
D21*
%TO.P,D11,1*%
%TO.N,P19*%
X78350000Y-68500000D03*
%TO.P,D11,2*%
%TO.N,DP19*%
X81650000Y-68500000D03*
D22*
%TO.P,D11,1*%
%TO.N,P19*%
X77100000Y-68500000D03*
D23*
%TO.P,D11,2*%
%TO.N,DP19*%
X82900000Y-68500000D03*
%TD*%
D21*
%TO.P,D12,1*%
%TO.N,P19*%
X78350000Y-49500000D03*
%TO.P,D12,2*%
%TO.N,DP19*%
X81650000Y-49500000D03*
D22*
%TO.P,D12,1*%
%TO.N,P19*%
X77100000Y-49500000D03*
D23*
%TO.P,D12,2*%
%TO.N,DP19*%
X82900000Y-49500000D03*
%TD*%
D21*
%TO.P,D13,1*%
%TO.N,P18*%
X98350000Y-102500000D03*
%TO.P,D13,2*%
%TO.N,DP18*%
X101650000Y-102500000D03*
D22*
%TO.P,D13,1*%
%TO.N,P18*%
X97100000Y-102500000D03*
D23*
%TO.P,D13,2*%
%TO.N,DP18*%
X102900000Y-102500000D03*
%TD*%
D21*
%TO.P,D14,1*%
%TO.N,P18*%
X98350000Y-83500000D03*
%TO.P,D14,2*%
%TO.N,DP18*%
X101650000Y-83500000D03*
D22*
%TO.P,D14,1*%
%TO.N,P18*%
X97100000Y-83500000D03*
D23*
%TO.P,D14,2*%
%TO.N,DP18*%
X102900000Y-83500000D03*
%TD*%
D21*
%TO.P,D15,1*%
%TO.N,P18*%
X98350000Y-64500000D03*
%TO.P,D15,2*%
%TO.N,DP18*%
X101650000Y-64500000D03*
D22*
%TO.P,D15,1*%
%TO.N,P18*%
X97100000Y-64500000D03*
D23*
%TO.P,D15,2*%
%TO.N,DP18*%
X102900000Y-64500000D03*
%TD*%
D21*
%TO.P,D16,1*%
%TO.N,P18*%
X98350000Y-45500000D03*
%TO.P,D16,2*%
%TO.N,DP18*%
X101650000Y-45500000D03*
D22*
%TO.P,D16,1*%
%TO.N,P18*%
X97100000Y-45500000D03*
D23*
%TO.P,D16,2*%
%TO.N,DP18*%
X102900000Y-45500000D03*
%TD*%
D21*
%TO.P,D17,1*%
%TO.N,P15*%
X118350000Y-106500000D03*
%TO.P,D17,2*%
%TO.N,DP15*%
X121650000Y-106500000D03*
D22*
%TO.P,D17,1*%
%TO.N,P15*%
X117100000Y-106500000D03*
D23*
%TO.P,D17,2*%
%TO.N,DP15*%
X122900000Y-106500000D03*
%TD*%
D21*
%TO.P,D18,1*%
%TO.N,P15*%
X118350000Y-87500000D03*
%TO.P,D18,2*%
%TO.N,DP15*%
X121650000Y-87500000D03*
D22*
%TO.P,D18,1*%
%TO.N,P15*%
X117100000Y-87500000D03*
D23*
%TO.P,D18,2*%
%TO.N,DP15*%
X122900000Y-87500000D03*
%TD*%
D21*
%TO.P,D19,1*%
%TO.N,P15*%
X118350000Y-68500000D03*
%TO.P,D19,2*%
%TO.N,DP15*%
X121650000Y-68500000D03*
D22*
%TO.P,D19,1*%
%TO.N,P15*%
X117100000Y-68500000D03*
D23*
%TO.P,D19,2*%
%TO.N,DP15*%
X122900000Y-68500000D03*
%TD*%
D21*
%TO.P,D20,1*%
%TO.N,P15*%
X118350000Y-49500000D03*
%TO.P,D20,2*%
%TO.N,DP15*%
X121650000Y-49500000D03*
D22*
%TO.P,D20,1*%
%TO.N,P15*%
X117100000Y-49500000D03*
D23*
%TO.P,D20,2*%
%TO.N,DP15*%
X122900000Y-49500000D03*
%TD*%
D21*
%TO.P,D21,1*%
%TO.N,P14*%
X138350000Y-112500000D03*
%TO.P,D21,2*%
%TO.N,DP14*%
X141650000Y-112500000D03*
D22*
%TO.P,D21,1*%
%TO.N,P14*%
X137100000Y-112500000D03*
D23*
%TO.P,D21,2*%
%TO.N,DP14*%
X142900000Y-112500000D03*
%TD*%
D21*
%TO.P,D22,1*%
%TO.N,P14*%
X138350000Y-93500000D03*
%TO.P,D22,2*%
%TO.N,DP14*%
X141650000Y-93500000D03*
D22*
%TO.P,D22,1*%
%TO.N,P14*%
X137100000Y-93500000D03*
D23*
%TO.P,D22,2*%
%TO.N,DP14*%
X142900000Y-93500000D03*
%TD*%
D21*
%TO.P,D23,1*%
%TO.N,P14*%
X138350000Y-74500000D03*
%TO.P,D23,2*%
%TO.N,DP14*%
X141650000Y-74500000D03*
D22*
%TO.P,D23,1*%
%TO.N,P14*%
X137100000Y-74500000D03*
D23*
%TO.P,D23,2*%
%TO.N,DP14*%
X142900000Y-74500000D03*
%TD*%
D21*
%TO.P,D24,1*%
%TO.N,P14*%
X138350000Y-55500000D03*
%TO.P,D24,2*%
%TO.N,DP14*%
X141650000Y-55500000D03*
D22*
%TO.P,D24,1*%
%TO.N,P14*%
X137100000Y-55500000D03*
D23*
%TO.P,D24,2*%
%TO.N,DP14*%
X142900000Y-55500000D03*
%TD*%
D21*
%TO.P,D25,1*%
%TO.N,P19*%
X78350000Y-128500000D03*
%TO.P,D25,2*%
%TO.N,DP19*%
X81650000Y-128500000D03*
D22*
%TO.P,D25,1*%
%TO.N,P19*%
X77100000Y-128500000D03*
D23*
%TO.P,D25,2*%
%TO.N,DP19*%
X82900000Y-128500000D03*
%TD*%
D21*
%TO.P,D26,1*%
%TO.N,P18*%
X98350000Y-128500000D03*
%TO.P,D26,2*%
%TO.N,DP18*%
X101650000Y-128500000D03*
D22*
%TO.P,D26,1*%
%TO.N,P18*%
X97100000Y-128500000D03*
D23*
%TO.P,D26,2*%
%TO.N,DP18*%
X102900000Y-128500000D03*
%TD*%
D24*
%TO.P,D27,1*%
%TO.N,P15*%
X117615479Y-129323893D03*
%TO.P,D27,2*%
%TO.N,DP15*%
X120902921Y-129611507D03*
D25*
%TO.P,D27,1*%
%TO.N,P15*%
X116370235Y-129214948D03*
D23*
%TO.P,D27,2*%
%TO.N,DP15*%
X122148165Y-129720452D03*
%TD*%
D26*
%TO.P,D28,1*%
%TO.N,P14*%
X136382707Y-132909567D03*
%TO.P,D28,2*%
%TO.N,DP14*%
X139483693Y-134038233D03*
D27*
%TO.P,D28,1*%
%TO.N,P14*%
X135208091Y-132482042D03*
D23*
%TO.P,D28,2*%
%TO.N,DP14*%
X140658309Y-134465758D03*
%TD*%
D28*
%TO.P,D29,1*%
%TO.N,P16*%
X152321627Y-141450200D03*
%TO.P,D29,2*%
%TO.N,DP16*%
X154849573Y-143571400D03*
D29*
%TO.P,D29,1*%
%TO.N,P16*%
X151364071Y-140646716D03*
D23*
%TO.P,D29,2*%
%TO.N,DP16*%
X155807129Y-144374884D03*
%TD*%
D30*
%TO.P,L1,4*%
%TO.N,P1010*%
X37300000Y-114300000D03*
%TO.P,L1,3*%
%TO.N,GND*%
X37300000Y-115700000D03*
%TO.P,L1,1*%
%TO.N,VCC*%
X42700000Y-114300000D03*
%TO.P,L1,2*%
%TO.N,P1011*%
X42700000Y-115700000D03*
%TD*%
%TO.P,L2,4*%
%TO.N,P1020*%
X37300000Y-95300000D03*
%TO.P,L2,3*%
%TO.N,GND*%
X37300000Y-96700000D03*
%TO.P,L2,1*%
%TO.N,VCC*%
X42700000Y-95300000D03*
%TO.P,L2,2*%
%TO.N,P1021*%
X42700000Y-96700000D03*
%TD*%
%TO.P,L3,4*%
%TO.N,P1030*%
X37300000Y-76300000D03*
%TO.P,L3,3*%
%TO.N,GND*%
X37300000Y-77700000D03*
%TO.P,L3,1*%
%TO.N,VCC*%
X42700000Y-76300000D03*
%TO.P,L3,2*%
%TO.N,P1031*%
X42700000Y-77700000D03*
%TD*%
%TO.P,L4,4*%
%TO.N,P1040*%
X37300000Y-57300000D03*
%TO.P,L4,3*%
%TO.N,GND*%
X37300000Y-58700000D03*
%TO.P,L4,1*%
%TO.N,VCC*%
X42700000Y-57300000D03*
%TO.P,L4,2*%
%TO.N,P1041*%
X42700000Y-58700000D03*
%TD*%
%TO.P,L5,4*%
%TO.N,P1011*%
X57300000Y-104300000D03*
%TO.P,L5,3*%
%TO.N,GND*%
X57300000Y-105700000D03*
%TO.P,L5,1*%
%TO.N,VCC*%
X62700000Y-104300000D03*
%TO.P,L5,2*%
%TO.N,P1012*%
X62700000Y-105700000D03*
%TD*%
%TO.P,L6,4*%
%TO.N,P1021*%
X57300000Y-85300000D03*
%TO.P,L6,3*%
%TO.N,GND*%
X57300000Y-86700000D03*
%TO.P,L6,1*%
%TO.N,VCC*%
X62700000Y-85300000D03*
%TO.P,L6,2*%
%TO.N,P1022*%
X62700000Y-86700000D03*
%TD*%
%TO.P,L7,4*%
%TO.N,P1031*%
X57300000Y-66300000D03*
%TO.P,L7,3*%
%TO.N,GND*%
X57300000Y-67700000D03*
%TO.P,L7,1*%
%TO.N,VCC*%
X62700000Y-66300000D03*
%TO.P,L7,2*%
%TO.N,P1032*%
X62700000Y-67700000D03*
%TD*%
%TO.P,L8,4*%
%TO.N,P1041*%
X57300000Y-47300000D03*
%TO.P,L8,3*%
%TO.N,GND*%
X57300000Y-48700000D03*
%TO.P,L8,1*%
%TO.N,VCC*%
X62700000Y-47300000D03*
%TO.P,L8,2*%
%TO.N,P1042*%
X62700000Y-48700000D03*
%TD*%
%TO.P,L9,4*%
%TO.N,P1012*%
X77300000Y-92300000D03*
%TO.P,L9,3*%
%TO.N,GND*%
X77300000Y-93700000D03*
%TO.P,L9,1*%
%TO.N,VCC*%
X82700000Y-92300000D03*
%TO.P,L9,2*%
%TO.N,P1013*%
X82700000Y-93700000D03*
%TD*%
%TO.P,L10,4*%
%TO.N,P1022*%
X77300000Y-73300000D03*
%TO.P,L10,3*%
%TO.N,GND*%
X77300000Y-74700000D03*
%TO.P,L10,1*%
%TO.N,VCC*%
X82700000Y-73300000D03*
%TO.P,L10,2*%
%TO.N,P1023*%
X82700000Y-74700000D03*
%TD*%
%TO.P,L11,4*%
%TO.N,P1032*%
X77300000Y-54300000D03*
%TO.P,L11,3*%
%TO.N,GND*%
X77300000Y-55700000D03*
%TO.P,L11,1*%
%TO.N,VCC*%
X82700000Y-54300000D03*
%TO.P,L11,2*%
%TO.N,P1033*%
X82700000Y-55700000D03*
%TD*%
%TO.P,L12,4*%
%TO.N,P1042*%
X77300000Y-35300000D03*
%TO.P,L12,3*%
%TO.N,GND*%
X77300000Y-36700000D03*
%TO.P,L12,1*%
%TO.N,VCC*%
X82700000Y-35300000D03*
%TO.P,L12,2*%
%TO.N,P1043*%
X82700000Y-36700000D03*
%TD*%
%TO.P,L13,4*%
%TO.N,P1013*%
X97300000Y-88300000D03*
%TO.P,L13,3*%
%TO.N,GND*%
X97300000Y-89700000D03*
%TO.P,L13,1*%
%TO.N,VCC*%
X102700000Y-88300000D03*
%TO.P,L13,2*%
%TO.N,P1014*%
X102700000Y-89700000D03*
%TD*%
%TO.P,L14,4*%
%TO.N,P1023*%
X97300000Y-69300000D03*
%TO.P,L14,3*%
%TO.N,GND*%
X97300000Y-70700000D03*
%TO.P,L14,1*%
%TO.N,VCC*%
X102700000Y-69300000D03*
%TO.P,L14,2*%
%TO.N,P1024*%
X102700000Y-70700000D03*
%TD*%
%TO.P,L15,4*%
%TO.N,P1033*%
X97300000Y-50300000D03*
%TO.P,L15,3*%
%TO.N,GND*%
X97300000Y-51700000D03*
%TO.P,L15,1*%
%TO.N,VCC*%
X102700000Y-50300000D03*
%TO.P,L15,2*%
%TO.N,P1034*%
X102700000Y-51700000D03*
%TD*%
%TO.P,L16,4*%
%TO.N,P1043*%
X97300000Y-31300000D03*
%TO.P,L16,3*%
%TO.N,GND*%
X97300000Y-32700000D03*
%TO.P,L16,1*%
%TO.N,VCC*%
X102700000Y-31300000D03*
%TO.P,L16,2*%
%TO.N,P1044*%
X102700000Y-32700000D03*
%TD*%
%TO.P,L17,4*%
%TO.N,P1014*%
X117300000Y-92300000D03*
%TO.P,L17,3*%
%TO.N,GND*%
X117300000Y-93700000D03*
%TO.P,L17,1*%
%TO.N,VCC*%
X122700000Y-92300000D03*
%TO.P,L17,2*%
%TO.N,P1015*%
X122700000Y-93700000D03*
%TD*%
%TO.P,L18,4*%
%TO.N,P1024*%
X117300000Y-73300000D03*
%TO.P,L18,3*%
%TO.N,GND*%
X117300000Y-74700000D03*
%TO.P,L18,1*%
%TO.N,VCC*%
X122700000Y-73300000D03*
%TO.P,L18,2*%
%TO.N,P1025*%
X122700000Y-74700000D03*
%TD*%
%TO.P,L19,4*%
%TO.N,P1034*%
X117300000Y-54300000D03*
%TO.P,L19,3*%
%TO.N,GND*%
X117300000Y-55700000D03*
%TO.P,L19,1*%
%TO.N,VCC*%
X122700000Y-54300000D03*
%TO.P,L19,2*%
%TO.N,P1035*%
X122700000Y-55700000D03*
%TD*%
%TO.P,L20,4*%
%TO.N,P1044*%
X117300000Y-35300000D03*
%TO.P,L20,3*%
%TO.N,GND*%
X117300000Y-36700000D03*
%TO.P,L20,1*%
%TO.N,VCC*%
X122700000Y-35300000D03*
%TO.P,L20,2*%
%TO.N,P1045*%
X122700000Y-36700000D03*
%TD*%
%TO.P,L21,4*%
%TO.N,P1015*%
X137300000Y-98300000D03*
%TO.P,L21,3*%
%TO.N,GND*%
X137300000Y-99700000D03*
%TO.P,L21,1*%
%TO.N,VCC*%
X142700000Y-98300000D03*
%TO.P,L21,2*%
%TO.N,P1020*%
X142700000Y-99700000D03*
%TD*%
%TO.P,L22,4*%
%TO.N,P1025*%
X137300000Y-79300000D03*
%TO.P,L22,3*%
%TO.N,GND*%
X137300000Y-80700000D03*
%TO.P,L22,1*%
%TO.N,VCC*%
X142700000Y-79300000D03*
%TO.P,L22,2*%
%TO.N,P1030*%
X142700000Y-80700000D03*
%TD*%
%TO.P,L23,4*%
%TO.N,P1035*%
X137300000Y-60300000D03*
%TO.P,L23,3*%
%TO.N,GND*%
X137300000Y-61700000D03*
%TO.P,L23,1*%
%TO.N,VCC*%
X142700000Y-60300000D03*
%TO.P,L23,2*%
%TO.N,P1040*%
X142700000Y-61700000D03*
%TD*%
%TO.P,L24,4*%
%TO.N,P1045*%
X137300000Y-41300000D03*
%TO.P,L24,3*%
%TO.N,GND*%
X137300000Y-42700000D03*
%TO.P,L24,1*%
%TO.N,VCC*%
X142700000Y-41300000D03*
%TO.P,L24,2*%
%TO.N,P10*%
X142700000Y-42700000D03*
%TD*%
%TO.P,L25,4*%
%TO.N,P1001*%
X77300000Y-114300000D03*
%TO.P,L25,3*%
%TO.N,GND*%
X77300000Y-115700000D03*
%TO.P,L25,1*%
%TO.N,VCC*%
X82700000Y-114300000D03*
%TO.P,L25,2*%
%TO.N,P1002*%
X82700000Y-115700000D03*
%TD*%
%TO.P,L26,4*%
%TO.N,P1002*%
X97300000Y-114300000D03*
%TO.P,L26,3*%
%TO.N,GND*%
X97300000Y-115700000D03*
%TO.P,L26,1*%
%TO.N,VCC*%
X102700000Y-114300000D03*
%TO.P,L26,2*%
%TO.N,P1003*%
X102700000Y-115700000D03*
%TD*%
D31*
%TO.P,L27,4*%
%TO.N,P1003*%
X117807083Y-115086343D03*
%TO.P,L27,3*%
%TO.N,GND*%
X117685065Y-116481016D03*
%TO.P,L27,1*%
%TO.N,VCC*%
X123186535Y-115556984D03*
%TO.P,L27,2*%
%TO.N,P1004*%
X123064517Y-116951657D03*
%TD*%
D32*
%TO.P,L28,4*%
%TO.N,P1004*%
X140252744Y-119206761D03*
%TO.P,L28,3*%
%TO.N,GND*%
X139773916Y-120522330D03*
%TO.P,L28,1*%
%TO.N,VCC*%
X145327084Y-121053670D03*
%TO.P,L28,2*%
%TO.N,P1005*%
X144848256Y-122369239D03*
%TD*%
D33*
%TO.P,L29,4*%
%TO.N,P1005*%
X160644931Y-129897442D03*
%TO.P,L29,3*%
%TO.N,GND*%
X159745029Y-130969905D03*
%TO.P,L29,1*%
%TO.N,VCC*%
X164781571Y-133368495D03*
%TO.P,L29,2*%
%TO.N,P1010*%
X163881669Y-134440958D03*
%TD*%
D34*
%TO.P,TRRS1,1*%
%TO.N,VCC*%
X162700000Y-74700000D03*
%TO.P,TRRS1,2*%
%TO.N,P0*%
X163800000Y-79300000D03*
%TO.P,TRRS1,3*%
%TO.N,P1*%
X167800000Y-79300000D03*
%TO.P,TRRS1,4*%
%TO.N,GND*%
X170800000Y-79300000D03*
%TO.P,TRRS1,1*%
%TO.N,VCC*%
X162700000Y-77000000D03*
%TO.P,TRRS1,2*%
%TO.N,P0*%
X163800000Y-72400000D03*
%TO.P,TRRS1,3*%
%TO.N,P1*%
X167800000Y-72400000D03*
%TO.P,TRRS1,4*%
%TO.N,GND*%
X170800000Y-72400000D03*
%TD*%
D35*
%TO.P,RST1,1*%
%TO.N,GND*%
X172950000Y-98625000D03*
%TO.P,RST1,2*%
%TO.N,RST*%
X171250000Y-98625000D03*
%TO.P,RST1,3*%
%TO.N,GND*%
X172950000Y-93375000D03*
%TO.P,RST1,4*%
%TO.N,RST*%
X171250000Y-93375000D03*
%TD*%
D36*
%TO.P,PWR1,*%
%TO.N,*%
X173525000Y-102350000D03*
X171315000Y-102350000D03*
X171315000Y-109650000D03*
X173525000Y-109650000D03*
D37*
%TO.P,PWR1,1*%
%TO.N,N/C*%
X170665000Y-108250000D03*
%TO.P,PWR1,2*%
%TO.N,RAW*%
X170665000Y-105250000D03*
%TO.P,PWR1,3*%
%TO.N,BAT_P*%
X170665000Y-103750000D03*
%TD*%
D38*
%TO.P,Rotary1,A*%
%TO.N,P7*%
X165540000Y-85380000D03*
D39*
%TO.P,Rotary1,C*%
%TO.N,GND*%
X163040000Y-85380000D03*
%TO.P,Rotary1,B*%
%TO.N,P8*%
X160540000Y-85380000D03*
D40*
%TO.P,Rotary1,1*%
%TO.N,P16*%
X165540000Y-99880000D03*
%TO.P,Rotary1,2*%
%TO.N,P4*%
X160540000Y-99880000D03*
D41*
%TO.P,Rotary1,*%
%TO.N,*%
X168640000Y-92880000D03*
X157440000Y-92880000D03*
%TD*%
D42*
%TO.P,UA_1,1*%
%TO.N,VCC*%
X70875000Y-82800000D03*
%TO.P,UA_1,2*%
%TO.N,P10u01*%
X69125000Y-82800000D03*
%TO.P,UA_1,3*%
%TO.N,GND*%
X69125000Y-87200000D03*
%TO.P,UA_1,4*%
%TO.N,P1001*%
X70875000Y-87200000D03*
D43*
%TO.P,UA_1,11*%
%TO.N,VCC*%
X71600000Y-82500000D03*
%TO.P,UA_1,22*%
%TO.N,P10u01*%
X68400000Y-82500000D03*
%TO.P,UA_1,33*%
%TO.N,GND*%
X68400000Y-87500000D03*
%TO.P,UA_1,44*%
%TO.N,P1001*%
X71600000Y-87500000D03*
%TD*%
D42*
%TO.P,UA_2,1*%
%TO.N,VCC*%
X70875000Y-44800000D03*
%TO.P,UA_2,2*%
%TO.N,P10u02*%
X69125000Y-44800000D03*
%TO.P,UA_2,3*%
%TO.N,GND*%
X69125000Y-49200000D03*
%TO.P,UA_2,4*%
%TO.N,P10u01*%
X70875000Y-49200000D03*
D43*
%TO.P,UA_2,11*%
%TO.N,VCC*%
X71600000Y-44500000D03*
%TO.P,UA_2,22*%
%TO.N,P10u02*%
X68400000Y-44500000D03*
%TO.P,UA_2,33*%
%TO.N,GND*%
X68400000Y-49500000D03*
%TO.P,UA_2,44*%
%TO.N,P10u01*%
X71600000Y-49500000D03*
%TD*%
D42*
%TO.P,UA_3,1*%
%TO.N,VCC*%
X110875000Y-84800000D03*
%TO.P,UA_3,2*%
%TO.N,P10u03*%
X109125000Y-84800000D03*
%TO.P,UA_3,3*%
%TO.N,GND*%
X109125000Y-89200000D03*
%TO.P,UA_3,4*%
%TO.N,P10u02*%
X110875000Y-89200000D03*
D43*
%TO.P,UA_3,11*%
%TO.N,VCC*%
X111600000Y-84500000D03*
%TO.P,UA_3,22*%
%TO.N,P10u03*%
X108400000Y-84500000D03*
%TO.P,UA_3,33*%
%TO.N,GND*%
X108400000Y-89500000D03*
%TO.P,UA_3,44*%
%TO.N,P10u02*%
X111600000Y-89500000D03*
%TD*%
D42*
%TO.P,UA_4,1*%
%TO.N,VCC*%
X110875000Y-46800000D03*
%TO.P,UA_4,2*%
%TO.N,P10u04*%
X109125000Y-46800000D03*
%TO.P,UA_4,3*%
%TO.N,GND*%
X109125000Y-51200000D03*
%TO.P,UA_4,4*%
%TO.N,P10u03*%
X110875000Y-51200000D03*
D43*
%TO.P,UA_4,11*%
%TO.N,VCC*%
X111600000Y-46500000D03*
%TO.P,UA_4,22*%
%TO.N,P10u04*%
X108400000Y-46500000D03*
%TO.P,UA_4,33*%
%TO.N,GND*%
X108400000Y-51500000D03*
%TO.P,UA_4,44*%
%TO.N,P10u03*%
X111600000Y-51500000D03*
%TD*%
D42*
%TO.P,UA_5,1*%
%TO.N,VCC*%
X153875000Y-106800000D03*
%TO.P,UA_5,2*%
%TO.N,P10u05*%
X152125000Y-106800000D03*
%TO.P,UA_5,3*%
%TO.N,GND*%
X152125000Y-111200000D03*
%TO.P,UA_5,4*%
%TO.N,P10u04*%
X153875000Y-111200000D03*
D43*
%TO.P,UA_5,11*%
%TO.N,VCC*%
X154600000Y-106500000D03*
%TO.P,UA_5,22*%
%TO.N,P10u05*%
X151400000Y-106500000D03*
%TO.P,UA_5,33*%
%TO.N,GND*%
X151400000Y-111500000D03*
%TO.P,UA_5,44*%
%TO.N,P10u04*%
X154600000Y-111500000D03*
%TD*%
D42*
%TO.P,UA_6,1*%
%TO.N,VCC*%
X153875000Y-76800000D03*
%TO.P,UA_6,2*%
%TO.N,P10u06*%
X152125000Y-76800000D03*
%TO.P,UA_6,3*%
%TO.N,GND*%
X152125000Y-81200000D03*
%TO.P,UA_6,4*%
%TO.N,P10u05*%
X153875000Y-81200000D03*
D43*
%TO.P,UA_6,11*%
%TO.N,VCC*%
X154600000Y-76500000D03*
%TO.P,UA_6,22*%
%TO.N,P10u06*%
X151400000Y-76500000D03*
%TO.P,UA_6,33*%
%TO.N,GND*%
X151400000Y-81500000D03*
%TO.P,UA_6,44*%
%TO.N,P10u05*%
X154600000Y-81500000D03*
%TD*%
D44*
%TO.N,P10u06*%
X151940300Y-78639700D03*
%TO.N,P10u05*%
X152820300Y-108602700D03*
X154876800Y-86967200D03*
%TO.N,P10u04*%
X153945700Y-116004900D03*
X108365400Y-48563900D03*
X110124900Y-80989600D03*
%TO.N,P10u03*%
X111175000Y-55616700D03*
X108329600Y-86523800D03*
%TO.N,P10u02*%
X111940600Y-93003800D03*
X68400000Y-47116000D03*
X87587000Y-85577600D03*
%TO.N,P10u01*%
X70875000Y-54118500D03*
X71426400Y-71115100D03*
X68959300Y-84688300D03*
%TO.N,BAT_P*%
X169858400Y-102784800D03*
%TO.N,P1001*%
X74320700Y-109352400D03*
X71600000Y-96014700D03*
%TO.N,DP14*%
X131994100Y-94948400D03*
X140993200Y-130023100D03*
%TO.N,DP15*%
X111725000Y-107343300D03*
X115467000Y-87810500D03*
%TO.N,DP18*%
X95609200Y-103589900D03*
X91900100Y-84704700D03*
X92184300Y-46790700D03*
X95593700Y-65049100D03*
%TO.N,DP19*%
X88109200Y-84561400D03*
%TO.N,DP20*%
X54343300Y-81767600D03*
X51725000Y-100471800D03*
X55669200Y-62529700D03*
%TO.N,P1010*%
X152200000Y-116380500D03*
%TO.N,P6*%
X82285000Y-123437500D03*
X110140100Y-129797600D03*
X149381300Y-136749500D03*
%TO.N,P5*%
X42200900Y-123699600D03*
X104594500Y-104219700D03*
X130787500Y-109862400D03*
X80070600Y-101699100D03*
X138373200Y-108261200D03*
X157060800Y-70406700D03*
X118346900Y-102236000D03*
%TO.N,P4*%
X142226800Y-88613500D03*
X58377100Y-95255500D03*
X38379200Y-105285000D03*
X102004000Y-78846600D03*
X122072500Y-89329700D03*
X79852300Y-82685600D03*
X43969600Y-101874100D03*
%TO.N,P3*%
X62301800Y-75759100D03*
X148058300Y-74501300D03*
X138550900Y-70143500D03*
X104461300Y-64187800D03*
X42544500Y-85498900D03*
X92950800Y-64820200D03*
X82593700Y-63880300D03*
X124584100Y-68848100D03*
%TO.N,P2*%
X141452500Y-51072400D03*
X59959700Y-56475000D03*
X38355400Y-67247100D03*
X87891100Y-42602200D03*
X118069400Y-44934300D03*
%TO.N,P14*%
X135242800Y-75824800D03*
X135126300Y-115219700D03*
%TO.N,P18*%
X101471300Y-66382300D03*
%TO.N,P19*%
X73708900Y-53512100D03*
D45*
%TO.N,VCC*%
X43800000Y-115700000D03*
X43800000Y-96700000D03*
X43800000Y-77700000D03*
X43800000Y-58700000D03*
X63800000Y-105700000D03*
X63800000Y-86700000D03*
X63800000Y-67700000D03*
X63800000Y-48700000D03*
X83800000Y-93700000D03*
X83800000Y-74700000D03*
X83800000Y-55700000D03*
X83800000Y-36700000D03*
X103800000Y-89700000D03*
X103800000Y-70700000D03*
X103800000Y-51700000D03*
X103800000Y-32700000D03*
X123800000Y-93700000D03*
X123800000Y-74700000D03*
X123800000Y-55700000D03*
X123800000Y-36700000D03*
X143800000Y-99700000D03*
X143800000Y-80700000D03*
X143800000Y-61700000D03*
X143800000Y-42700000D03*
X83800000Y-115700000D03*
X103800000Y-115700000D03*
X124160000Y-117048000D03*
X145882000Y-122746000D03*
X164724000Y-135148000D03*
D44*
X154192300Y-78608300D03*
X153000000Y-115451700D03*
%TO.N,RST*%
X171250000Y-95688900D03*
D45*
%TO.N,GND*%
X36200000Y-115700000D03*
X36200000Y-96700000D03*
X36200000Y-77700000D03*
X36200000Y-58700000D03*
X56200000Y-105700000D03*
X56200000Y-86700000D03*
X56200000Y-67700000D03*
X56200000Y-48700000D03*
X76200000Y-93700000D03*
X76200000Y-74700000D03*
X76200000Y-55700000D03*
X76200000Y-36700000D03*
X96200000Y-89700000D03*
X96200000Y-70700000D03*
X96200000Y-51700000D03*
X96200000Y-32700000D03*
X116200000Y-93700000D03*
X116200000Y-74700000D03*
X116200000Y-55700000D03*
X116200000Y-36700000D03*
X136200000Y-99700000D03*
X136200000Y-80700000D03*
X136200000Y-61700000D03*
X136200000Y-42700000D03*
X76200000Y-115700000D03*
X96200000Y-115700000D03*
X116589000Y-116385000D03*
X138740000Y-120146000D03*
X158902000Y-130263000D03*
D44*
X69111800Y-63353700D03*
X49863700Y-71753400D03*
X68240800Y-92566600D03*
X150075800Y-112800100D03*
X67284100Y-53014300D03*
X107799000Y-94930100D03*
%TO.N,RAW*%
X169488400Y-105907400D03*
%TD*%
D46*
%TO.N,P10u06*%
X151825000Y-76500000D02*
X152125000Y-76800000D01*
X151400000Y-76500000D02*
X151825000Y-76500000D01*
X151940300Y-78584800D02*
X151940300Y-78639700D01*
X152125000Y-78400100D02*
X151940300Y-78584800D01*
X152125000Y-76800000D02*
X152125000Y-78400100D01*
%TO.N,P10u05*%
X151700000Y-106800000D02*
X152125000Y-106800000D01*
X151400000Y-106500000D02*
X151700000Y-106800000D01*
X152125000Y-106800000D02*
X152125000Y-108400100D01*
X152617700Y-108400100D02*
X152820300Y-108602700D01*
X152125000Y-108400100D02*
X152617700Y-108400100D01*
X154175000Y-81500000D02*
X153875000Y-81200000D01*
X154600000Y-81500000D02*
X154175000Y-81500000D01*
X154600000Y-86690400D02*
X154876800Y-86967200D01*
X154600000Y-81500000D02*
X154600000Y-86690400D01*
%TO.N,P10u04*%
X108825000Y-46500000D02*
X108400000Y-46500000D01*
X109125000Y-46800000D02*
X108825000Y-46500000D01*
X108529200Y-48400100D02*
X109125000Y-48400100D01*
X108365400Y-48563900D02*
X108529200Y-48400100D01*
X109125000Y-46800000D02*
X109125000Y-48400100D01*
X153875000Y-111200000D02*
X153875000Y-112800100D01*
X153945700Y-112800100D02*
X153945700Y-116004900D01*
X154600000Y-112800100D02*
X153945700Y-112800100D01*
X153945700Y-112800100D02*
X153875000Y-112800100D01*
X154600000Y-111500000D02*
X154600000Y-112800100D01*
X154600000Y-111500000D02*
X154600000Y-110199900D01*
X155500100Y-109299800D02*
X154600000Y-110199900D01*
X155500100Y-105367500D02*
X155500100Y-109299800D01*
X146115600Y-95983000D02*
X155500100Y-105367500D01*
X132155900Y-95983000D02*
X146115600Y-95983000D01*
X126427600Y-90254700D02*
X132155900Y-95983000D01*
X116471300Y-90254700D02*
X126427600Y-90254700D01*
X112549700Y-86333100D02*
X116471300Y-90254700D01*
X112549700Y-83414400D02*
X112549700Y-86333100D01*
X110124900Y-80989600D02*
X112549700Y-83414400D01*
%TO.N,P10u03*%
X111600000Y-51500000D02*
X111175000Y-51500000D01*
X111175000Y-51500000D02*
X110875000Y-51200000D01*
X111175000Y-51500000D02*
X111175000Y-55616700D01*
X108825000Y-84500000D02*
X109125000Y-84800000D01*
X108400000Y-84500000D02*
X108825000Y-84500000D01*
X108453300Y-86400100D02*
X109125000Y-86400100D01*
X108329600Y-86523800D02*
X108453300Y-86400100D01*
X109125000Y-84800000D02*
X109125000Y-86400100D01*
%TO.N,P10u02*%
X68825000Y-44500000D02*
X68400000Y-44500000D01*
X69125000Y-44800000D02*
X68825000Y-44500000D01*
X111600000Y-92663200D02*
X111940600Y-93003800D01*
X111600000Y-89500000D02*
X111600000Y-92663200D01*
X69125000Y-44800000D02*
X69125000Y-46400100D01*
X69115900Y-46400100D02*
X68400000Y-47116000D01*
X69125000Y-46400100D02*
X69115900Y-46400100D01*
X111175000Y-89500000D02*
X110875000Y-89200000D01*
X111600000Y-89500000D02*
X111175000Y-89500000D01*
X110875000Y-89200000D02*
X110875000Y-87599900D01*
X110474800Y-87199700D02*
X110875000Y-87599900D01*
X104028200Y-87199700D02*
X110474800Y-87199700D01*
X102406100Y-85577600D02*
X104028200Y-87199700D01*
X87587000Y-85577600D02*
X102406100Y-85577600D01*
%TO.N,P10u01*%
X71600000Y-49500000D02*
X71175000Y-49500000D01*
X71175000Y-49500000D02*
X70875000Y-49200000D01*
X71175000Y-53818500D02*
X70875000Y-54118500D01*
X71175000Y-49500000D02*
X71175000Y-53818500D01*
X71426400Y-78173500D02*
X71426400Y-71115100D01*
X68400000Y-81199900D02*
X71426400Y-78173500D01*
X68400000Y-82500000D02*
X68400000Y-81199900D01*
X68700000Y-82800000D02*
X68400000Y-82500000D01*
X69125000Y-82800000D02*
X68700000Y-82800000D01*
X68959300Y-84565800D02*
X69125000Y-84400100D01*
X68959300Y-84688300D02*
X68959300Y-84565800D01*
X69125000Y-82800000D02*
X69125000Y-84400100D01*
%TO.N,BAT_P*%
X169614900Y-103028300D02*
X169614900Y-103750000D01*
X169858400Y-102784800D02*
X169614900Y-103028300D01*
X170665000Y-103750000D02*
X169614900Y-103750000D01*
%TO.N,DP16*%
X154849600Y-143571400D02*
X155484600Y-144104200D01*
X155755300Y-144374900D02*
X155807100Y-144374900D01*
X155484600Y-144104200D02*
X155755300Y-144374900D01*
X162794100Y-144374900D02*
X162977900Y-144191100D01*
X155807100Y-144374900D02*
X162794100Y-144374900D01*
%TO.N,P1005*%
X160644900Y-129897400D02*
X159825200Y-129209600D01*
D47*
X159823900Y-129208300D02*
X160645000Y-129897000D01*
D46*
X159823900Y-129208300D02*
X159825200Y-129209600D01*
D47*
X158921000Y-128451000D02*
X159823900Y-129208300D01*
D46*
X158531700Y-128840300D02*
X158921000Y-128451000D01*
X158529400Y-128840300D02*
X158531700Y-128840300D01*
X147270200Y-122357200D02*
X147252900Y-122339900D01*
X147300300Y-122357200D02*
X147270200Y-122357200D01*
D47*
X147252900Y-122339900D02*
X147441000Y-121823000D01*
X144848000Y-122369000D02*
X145081000Y-122871500D01*
X146839000Y-123477000D02*
X147252900Y-122339900D01*
X146298000Y-123732000D02*
X146839000Y-123477000D01*
X145314000Y-123374000D02*
X146298000Y-123732000D01*
X145081000Y-122871500D02*
X145314000Y-123374000D01*
D46*
X145081000Y-122601900D02*
X144848300Y-122369200D01*
X145081000Y-122871500D02*
X145081000Y-122601900D01*
D47*
%TO.N,P1004*%
X123064000Y-116952000D02*
X123419000Y-117377000D01*
D46*
X123064500Y-117022500D02*
X123064500Y-116951700D01*
X123419000Y-117377000D02*
X123064500Y-117022500D01*
D47*
X125351500Y-116629500D02*
X125428000Y-115753000D01*
D46*
X125429800Y-116551200D02*
X125429800Y-116305400D01*
X125351500Y-116629500D02*
X125429800Y-116551200D01*
D47*
X124818000Y-117893000D02*
X125275000Y-117506000D01*
X123774000Y-117802000D02*
X124818000Y-117893000D01*
X123419000Y-117377000D02*
X123774000Y-117802000D01*
X125275000Y-117506000D02*
X125351500Y-116629500D01*
D46*
X137903300Y-118937000D02*
X137903300Y-118819600D01*
X138138000Y-118584900D02*
X137903300Y-118819600D01*
X138138000Y-118437000D02*
X138138000Y-118584900D01*
X126588600Y-118819600D02*
X125275000Y-117506000D01*
X137903300Y-118819600D02*
X126588600Y-118819600D01*
D47*
X138138000Y-118437000D02*
X139195500Y-118822000D01*
X139195500Y-118822000D02*
X140253000Y-119207000D01*
D46*
X139867900Y-118822000D02*
X140252700Y-119206800D01*
X139195500Y-118822000D02*
X139867900Y-118822000D01*
%TO.N,P1003*%
X117807000Y-115086200D02*
X117807000Y-115086000D01*
X117807100Y-115086300D02*
X117807000Y-115086200D01*
D47*
X104950000Y-116060000D02*
X104950000Y-115312000D01*
X104529000Y-116485000D02*
X104950000Y-116060000D01*
X103481000Y-116485000D02*
X104529000Y-116485000D01*
X102700000Y-115700000D02*
X103481000Y-116485000D01*
X115566000Y-114890000D02*
X117807000Y-115086000D01*
D46*
X115346100Y-115109900D02*
X115566000Y-114890000D01*
X115346100Y-115312000D02*
X115346100Y-115109900D01*
X104950000Y-115312000D02*
X115346100Y-115312000D01*
X115346100Y-115312000D02*
X115467900Y-115433800D01*
D47*
X104950000Y-115312000D02*
X104950000Y-114806000D01*
X104950000Y-114806000D02*
X104950000Y-114300000D01*
D46*
X104956000Y-114806000D02*
X105000000Y-114850000D01*
X104950000Y-114806000D02*
X104956000Y-114806000D01*
D47*
%TO.N,P1001*%
X75050000Y-114300000D02*
X77300000Y-114300000D01*
D46*
X71175000Y-87500000D02*
X70875000Y-87200000D01*
X71600000Y-87500000D02*
X71175000Y-87500000D01*
X71600000Y-96014700D02*
X71600000Y-87500000D01*
X71600000Y-106631700D02*
X71600000Y-96014700D01*
X74320700Y-109352400D02*
X71600000Y-106631700D01*
X75050000Y-114800000D02*
X75050000Y-114300000D01*
X75000000Y-114850000D02*
X75050000Y-114800000D01*
D47*
%TO.N,P1002*%
X95050000Y-114300000D02*
X97300000Y-114300000D01*
D46*
X95000000Y-114350000D02*
X95050000Y-114300000D01*
X95000000Y-114850000D02*
X95000000Y-114350000D01*
D47*
X84950000Y-116060000D02*
X84950000Y-114755200D01*
X84529000Y-116485000D02*
X84950000Y-116060000D01*
X83481000Y-116485000D02*
X84529000Y-116485000D01*
X82700000Y-115700000D02*
X83481000Y-116485000D01*
X84950000Y-114755200D02*
X84950000Y-114300000D01*
D46*
X85000000Y-114805200D02*
X84950000Y-114755200D01*
X85000000Y-114850000D02*
X85000000Y-114805200D01*
X85000000Y-114850000D02*
X95000000Y-114850000D01*
%TO.N,DP14*%
X141650000Y-55500000D02*
X142900000Y-55500000D01*
X143525000Y-55500000D02*
X148275000Y-50750000D01*
X142900000Y-55500000D02*
X143525000Y-55500000D01*
X141650000Y-93500000D02*
X142400100Y-93500000D01*
X142900000Y-74500000D02*
X141650000Y-74500000D01*
X143525000Y-74500000D02*
X148275000Y-69750000D01*
X142900000Y-74500000D02*
X143525000Y-74500000D01*
X142400100Y-93500000D02*
X142900000Y-93500000D01*
X143525000Y-93500000D02*
X148275000Y-88750000D01*
X142900000Y-93500000D02*
X143525000Y-93500000D01*
X141650000Y-112500000D02*
X142900000Y-112500000D01*
X143525000Y-112500000D02*
X148275000Y-107750000D01*
X142900000Y-112500000D02*
X143525000Y-112500000D01*
X141650000Y-93500000D02*
X140899900Y-93500000D01*
X139451500Y-94948400D02*
X131994100Y-94948400D01*
X140899900Y-93500000D02*
X139451500Y-94948400D01*
X139483700Y-134038200D02*
X140496600Y-134406800D01*
X140555500Y-134465800D02*
X140658300Y-134465800D01*
X140496600Y-134406900D02*
X140555500Y-134465800D01*
X140496600Y-134406800D02*
X140496600Y-134406900D01*
X145282900Y-133891500D02*
X146587400Y-133891500D01*
X144708600Y-134465800D02*
X145282900Y-133891500D01*
X140658300Y-134465800D02*
X144708600Y-134465800D01*
X147333800Y-131840600D02*
X146587400Y-133891500D01*
X140993200Y-131827600D02*
X140993200Y-130023100D01*
X139885000Y-132935800D02*
X140993200Y-131827600D01*
X139884900Y-132935800D02*
X139885000Y-132935800D01*
X139483700Y-134038200D02*
X139884900Y-132935800D01*
D47*
%TO.N,P1045*%
X135050000Y-41300000D02*
X137300000Y-41300000D01*
X124950000Y-36180000D02*
X124950000Y-35300000D01*
D46*
X125000000Y-36130000D02*
X125000000Y-35850000D01*
X124950000Y-36180000D02*
X125000000Y-36130000D01*
X135050000Y-41800000D02*
X135050000Y-41300000D01*
X135000000Y-41850000D02*
X135050000Y-41800000D01*
D47*
X124950000Y-37060000D02*
X124950000Y-36180000D01*
X124897400Y-37113100D02*
X124950000Y-37060000D01*
D46*
X133962000Y-40212000D02*
X135050000Y-41300000D01*
X131252500Y-40212000D02*
X133962000Y-40212000D01*
X129918300Y-38877800D02*
X131252500Y-40212000D01*
X128417000Y-38877800D02*
X129918300Y-38877800D01*
X127000200Y-37461000D02*
X128417000Y-38877800D01*
X125381500Y-37461000D02*
X127000200Y-37461000D01*
X125033600Y-37113100D02*
X125381500Y-37461000D01*
X124897400Y-37113100D02*
X125033600Y-37113100D01*
D47*
X124529000Y-37485000D02*
X124897400Y-37113100D01*
X123481000Y-37485000D02*
X124529000Y-37485000D01*
X122700000Y-36700000D02*
X123481000Y-37485000D01*
%TO.N,P1035*%
X124950000Y-55180000D02*
X124950000Y-54300000D01*
D46*
X125000000Y-55130000D02*
X125000000Y-54850000D01*
X124950000Y-55180000D02*
X125000000Y-55130000D01*
D47*
X135050000Y-60300000D02*
X137300000Y-60300000D01*
X124529000Y-56485000D02*
X124930200Y-56080000D01*
X123481000Y-56485000D02*
X124529000Y-56485000D01*
X122700000Y-55700000D02*
X123481000Y-56485000D01*
X124950000Y-56060000D02*
X124950000Y-55180000D01*
X124930200Y-56080000D02*
X124950000Y-56060000D01*
D46*
X135000000Y-60300000D02*
X135000000Y-60850000D01*
X129150200Y-60300000D02*
X135000000Y-60300000D01*
X124930200Y-56080000D02*
X129150200Y-60300000D01*
X135000000Y-60300000D02*
X135050000Y-60300000D01*
D47*
%TO.N,P1025*%
X124950000Y-74180000D02*
X124950000Y-73300000D01*
D46*
X125000000Y-74130000D02*
X125000000Y-73850000D01*
X124950000Y-74180000D02*
X125000000Y-74130000D01*
D47*
X135050000Y-79300000D02*
X137300000Y-79300000D01*
D46*
X135050000Y-79800000D02*
X135050000Y-79300000D01*
X135000000Y-79850000D02*
X135050000Y-79800000D01*
D47*
X124529000Y-75485000D02*
X124739500Y-75272500D01*
X123481000Y-75485000D02*
X124529000Y-75485000D01*
X122700000Y-74700000D02*
X123481000Y-75485000D01*
X124950000Y-75060000D02*
X124950000Y-74180000D01*
X124739500Y-75272500D02*
X124950000Y-75060000D01*
D46*
X128767000Y-79300000D02*
X135050000Y-79300000D01*
X124739500Y-75272500D02*
X128767000Y-79300000D01*
%TO.N,P1015*%
X135050000Y-98800000D02*
X135050000Y-98300000D01*
X135000000Y-98850000D02*
X135050000Y-98800000D01*
D47*
X135050000Y-98300000D02*
X137300000Y-98300000D01*
D46*
X129150200Y-98300000D02*
X124930200Y-94080000D01*
X135050000Y-98300000D02*
X129150200Y-98300000D01*
D47*
X124529000Y-94485000D02*
X124930200Y-94080000D01*
X123481000Y-94485000D02*
X124529000Y-94485000D01*
X122700000Y-93700000D02*
X123481000Y-94485000D01*
X124950000Y-94060000D02*
X124950000Y-93180000D01*
X124930200Y-94080000D02*
X124950000Y-94060000D01*
X124950000Y-93180000D02*
X124950000Y-92300000D01*
D46*
X125000000Y-93130000D02*
X125000000Y-92850000D01*
X124950000Y-93180000D02*
X125000000Y-93130000D01*
%TO.N,DP15*%
X123525000Y-106500000D02*
X122900000Y-106500000D01*
X128275000Y-101750000D02*
X123525000Y-106500000D01*
X122900000Y-106500000D02*
X122400100Y-106500000D01*
X122025100Y-106500000D02*
X122400100Y-106500000D01*
X122025100Y-106500000D02*
X121650000Y-106500000D01*
X121650000Y-106500000D02*
X120899900Y-106500000D01*
X121650000Y-68500000D02*
X122400100Y-68500000D01*
X121650000Y-49500000D02*
X122400100Y-49500000D01*
X123525000Y-49500000D02*
X122900000Y-49500000D01*
X128275000Y-44750000D02*
X123525000Y-49500000D01*
X122900000Y-49500000D02*
X122400100Y-49500000D01*
X121650000Y-87500000D02*
X120899900Y-87500000D01*
X121650000Y-87500000D02*
X122900000Y-87500000D01*
X123525000Y-87500000D02*
X128275000Y-82750000D01*
X122900000Y-87500000D02*
X123525000Y-87500000D01*
X122400100Y-68500000D02*
X122900000Y-68500000D01*
X123525000Y-68500000D02*
X128275000Y-63750000D01*
X122900000Y-68500000D02*
X123525000Y-68500000D01*
X112101200Y-107719500D02*
X111725000Y-107343300D01*
X119680400Y-107719500D02*
X112101200Y-107719500D01*
X120899900Y-106500000D02*
X119680400Y-107719500D01*
X127916700Y-125456900D02*
X127765000Y-127190400D01*
X119701900Y-88698000D02*
X120899900Y-87500000D01*
X116094300Y-88698000D02*
X119701900Y-88698000D01*
X115467000Y-88070700D02*
X116094300Y-88698000D01*
X115467000Y-87810500D02*
X115467000Y-88070700D01*
X123653100Y-129720500D02*
X122148200Y-129720500D01*
X126183200Y-127190400D02*
X123653100Y-129720500D01*
X127765000Y-127190400D02*
X126183200Y-127190400D01*
X121765300Y-129720500D02*
X121728600Y-129683800D01*
X122148200Y-129720500D02*
X121765300Y-129720500D01*
X120902900Y-129611500D02*
X121728600Y-129683800D01*
D47*
%TO.N,P1044*%
X104950000Y-32180000D02*
X104950000Y-31300000D01*
D46*
X105000000Y-32130000D02*
X105000000Y-31850000D01*
X104950000Y-32180000D02*
X105000000Y-32130000D01*
D47*
X115050000Y-35300000D02*
X117300000Y-35300000D01*
D46*
X107190000Y-35300000D02*
X104950000Y-33060000D01*
X115050000Y-35300000D02*
X107190000Y-35300000D01*
D47*
X104529000Y-33485000D02*
X104950000Y-33060000D01*
X103481000Y-33485000D02*
X104529000Y-33485000D01*
X102700000Y-32700000D02*
X103481000Y-33485000D01*
X104950000Y-33060000D02*
X104950000Y-32180000D01*
D46*
X115000000Y-35350000D02*
X115050000Y-35300000D01*
X115000000Y-35850000D02*
X115000000Y-35350000D01*
D47*
%TO.N,P1034*%
X115050000Y-54300000D02*
X117300000Y-54300000D01*
D46*
X105000000Y-51130000D02*
X105000000Y-50850000D01*
X104950000Y-51180000D02*
X105000000Y-51130000D01*
D47*
X104950000Y-52060000D02*
X104950000Y-51180000D01*
X104529000Y-52485000D02*
X104950000Y-52060000D01*
X103481000Y-52485000D02*
X104529000Y-52485000D01*
X102700000Y-51700000D02*
X103481000Y-52485000D01*
X104950000Y-51180000D02*
X104950000Y-50300000D01*
D46*
X115050000Y-54800000D02*
X115050000Y-54300000D01*
X115000000Y-54850000D02*
X115050000Y-54800000D01*
X106250200Y-49599800D02*
X105000000Y-50850000D01*
X111792000Y-49599800D02*
X106250200Y-49599800D01*
X115050000Y-52857800D02*
X111792000Y-49599800D01*
X115050000Y-54300000D02*
X115050000Y-52857800D01*
D47*
%TO.N,P1024*%
X115050000Y-73300000D02*
X117300000Y-73300000D01*
D46*
X105000000Y-69850000D02*
X104950000Y-69850000D01*
D47*
X104950000Y-69850000D02*
X104950000Y-69300000D01*
D46*
X115050000Y-73800000D02*
X115050000Y-73300000D01*
X115000000Y-73850000D02*
X115050000Y-73800000D01*
D47*
X104529000Y-71485000D02*
X104950000Y-71060000D01*
X103481000Y-71485000D02*
X104529000Y-71485000D01*
X102700000Y-70700000D02*
X103481000Y-71485000D01*
X104950000Y-71060000D02*
X104950000Y-69850000D01*
D46*
X107190000Y-73300000D02*
X104950000Y-71060000D01*
X115050000Y-73300000D02*
X107190000Y-73300000D01*
D47*
%TO.N,P1014*%
X115050000Y-92300000D02*
X117300000Y-92300000D01*
D46*
X105000000Y-89130000D02*
X105000000Y-88850000D01*
X104950000Y-89180000D02*
X105000000Y-89130000D01*
D47*
X104950000Y-90060000D02*
X104950000Y-89180000D01*
X104529000Y-90485000D02*
X104950000Y-90060000D01*
X103481000Y-90485000D02*
X104529000Y-90485000D01*
X102700000Y-89700000D02*
X103481000Y-90485000D01*
D46*
X115050000Y-92800000D02*
X115000000Y-92850000D01*
X115050000Y-92300000D02*
X115050000Y-92800000D01*
D47*
X104950000Y-89180000D02*
X104950000Y-88300000D01*
D46*
X114232600Y-93617400D02*
X115000000Y-92850000D01*
X111703300Y-93617400D02*
X114232600Y-93617400D01*
X110000000Y-91914100D02*
X111703300Y-93617400D01*
X110000000Y-87796200D02*
X110000000Y-91914100D01*
X109803700Y-87599900D02*
X110000000Y-87796200D01*
X105650100Y-87599900D02*
X109803700Y-87599900D01*
X104950000Y-88300000D02*
X105650100Y-87599900D01*
%TO.N,DP18*%
X103525000Y-83500000D02*
X108275000Y-78750000D01*
X102900000Y-83500000D02*
X103525000Y-83500000D01*
X101650000Y-102500000D02*
X102900000Y-102500000D01*
X103525000Y-102500000D02*
X108275000Y-97750000D01*
X102900000Y-102500000D02*
X103525000Y-102500000D01*
X102900000Y-83500000D02*
X101650000Y-83500000D01*
X101650000Y-64500000D02*
X102900000Y-64500000D01*
X101650000Y-102500000D02*
X100899900Y-102500000D01*
X101650000Y-45500000D02*
X102400100Y-45500000D01*
X102900000Y-45500000D02*
X102400100Y-45500000D01*
X103525000Y-45500000D02*
X102900000Y-45500000D01*
X108275000Y-40750000D02*
X103525000Y-45500000D01*
X104901200Y-62498800D02*
X102900000Y-64500000D01*
X105526200Y-62498800D02*
X104901200Y-62498800D01*
X108275000Y-59750000D02*
X105526200Y-62498800D01*
X95751700Y-103732400D02*
X95609200Y-103589900D01*
X99667500Y-103732400D02*
X95751700Y-103732400D01*
X100899900Y-102500000D02*
X99667500Y-103732400D01*
X101650000Y-128500000D02*
X102900000Y-128500000D01*
X103525000Y-128500000D02*
X108275000Y-123750000D01*
X102900000Y-128500000D02*
X103525000Y-128500000D01*
X101650000Y-83500000D02*
X100899900Y-83500000D01*
X99695200Y-84704700D02*
X91900100Y-84704700D01*
X100899900Y-83500000D02*
X99695200Y-84704700D01*
X101650000Y-45500000D02*
X100899900Y-45500000D01*
X99609200Y-46790700D02*
X92184300Y-46790700D01*
X100899900Y-45500000D02*
X99609200Y-46790700D01*
X101650000Y-64500000D02*
X100899900Y-64500000D01*
X99695900Y-65704000D02*
X100899900Y-64500000D01*
X96054000Y-65704000D02*
X99695900Y-65704000D01*
X95593700Y-65243700D02*
X96054000Y-65704000D01*
X95593700Y-65049100D02*
X95593700Y-65243700D01*
D47*
%TO.N,P1043*%
X95050000Y-31300000D02*
X97300000Y-31300000D01*
D46*
X85000000Y-35850000D02*
X84950000Y-35850000D01*
D47*
X84950000Y-37060000D02*
X84950000Y-35850000D01*
X84529000Y-37485000D02*
X84950000Y-37060000D01*
X83481000Y-37485000D02*
X84529000Y-37485000D01*
X82700000Y-36700000D02*
X83481000Y-37485000D01*
X84950000Y-35850000D02*
X84950000Y-35300000D01*
D46*
X95050000Y-31800000D02*
X95050000Y-31300000D01*
X95000000Y-31850000D02*
X95050000Y-31800000D01*
D47*
%TO.N,P1033*%
X95050000Y-50300000D02*
X97300000Y-50300000D01*
D46*
X95050000Y-50800000D02*
X95000000Y-50850000D01*
X95050000Y-50300000D02*
X95050000Y-50800000D01*
D47*
X84950000Y-56060000D02*
X84950000Y-54755200D01*
X84529000Y-56485000D02*
X84950000Y-56060000D01*
X83481000Y-56485000D02*
X84529000Y-56485000D01*
X82700000Y-55700000D02*
X83481000Y-56485000D01*
D46*
X85000000Y-54805200D02*
X84950000Y-54755200D01*
X85000000Y-54850000D02*
X85000000Y-54805200D01*
D47*
X84950000Y-54755200D02*
X84950000Y-54527600D01*
X84950000Y-54527600D02*
X84950000Y-54300000D01*
D46*
X91322400Y-54527600D02*
X95000000Y-50850000D01*
X84950000Y-54527600D02*
X91322400Y-54527600D01*
D47*
%TO.N,P1023*%
X95050000Y-69300000D02*
X97300000Y-69300000D01*
D46*
X85000000Y-73850000D02*
X84950000Y-73850000D01*
D47*
X84950000Y-75060000D02*
X84950000Y-73850000D01*
X84529000Y-75485000D02*
X84950000Y-75060000D01*
X83481000Y-75485000D02*
X84529000Y-75485000D01*
X82700000Y-74700000D02*
X83481000Y-75485000D01*
X84950000Y-73850000D02*
X84950000Y-73300000D01*
D46*
X95000000Y-69350000D02*
X95050000Y-69300000D01*
X95000000Y-69850000D02*
X95000000Y-69350000D01*
X88400000Y-69850000D02*
X84950000Y-73300000D01*
X95000000Y-69850000D02*
X88400000Y-69850000D01*
D47*
%TO.N,P1013*%
X95050000Y-88300000D02*
X97300000Y-88300000D01*
D46*
X85000000Y-92850000D02*
X84950000Y-92850000D01*
D47*
X84950000Y-94060000D02*
X84950000Y-92850000D01*
X84529000Y-94485000D02*
X84950000Y-94060000D01*
X83481000Y-94485000D02*
X84529000Y-94485000D01*
X82700000Y-93700000D02*
X83481000Y-94485000D01*
X84950000Y-92850000D02*
X84950000Y-92300000D01*
D46*
X95050000Y-88800000D02*
X95000000Y-88850000D01*
X95050000Y-88300000D02*
X95050000Y-88800000D01*
X88400000Y-88850000D02*
X95000000Y-88850000D01*
X84950000Y-92300000D02*
X88400000Y-88850000D01*
%TO.N,DP19*%
X83525000Y-128500000D02*
X82900000Y-128500000D01*
X88275000Y-123750000D02*
X83525000Y-128500000D01*
X82900000Y-128500000D02*
X81650000Y-128500000D01*
X88275000Y-82750000D02*
X88275000Y-84350100D01*
X81650000Y-87500000D02*
X82900000Y-87500000D01*
X81650000Y-49500000D02*
X82400100Y-49500000D01*
X81650000Y-68500000D02*
X82400100Y-68500000D01*
X82400100Y-49500000D02*
X82900000Y-49500000D01*
X83525000Y-49500000D02*
X88275000Y-44750000D01*
X82900000Y-49500000D02*
X83525000Y-49500000D01*
X82400100Y-68500000D02*
X82900000Y-68500000D01*
X83525000Y-68500000D02*
X88275000Y-63750000D01*
X82900000Y-68500000D02*
X83525000Y-68500000D01*
X81650000Y-106500000D02*
X82900000Y-106500000D01*
X83525000Y-106500000D02*
X88275000Y-101750000D01*
X82900000Y-106500000D02*
X83525000Y-106500000D01*
X87599700Y-84561400D02*
X88109200Y-84561400D01*
X84661100Y-87500000D02*
X87599700Y-84561400D01*
X82900000Y-87500000D02*
X84661100Y-87500000D01*
X88109200Y-84515900D02*
X88109200Y-84561400D01*
X88275000Y-84350100D02*
X88109200Y-84515900D01*
D47*
%TO.N,P1042*%
X75050000Y-35300000D02*
X77300000Y-35300000D01*
D46*
X64952200Y-47802100D02*
X64950000Y-47802100D01*
X64952200Y-47802200D02*
X64952200Y-47802100D01*
X65000000Y-47850000D02*
X64952200Y-47802200D01*
D47*
X64950000Y-49060000D02*
X64950000Y-47802100D01*
X64529000Y-49485000D02*
X64950000Y-49060000D01*
X63481000Y-49485000D02*
X64529000Y-49485000D01*
X62700000Y-48700000D02*
X63481000Y-49485000D01*
X64950000Y-47802100D02*
X64950000Y-47300000D01*
D46*
X75050000Y-35800000D02*
X75050000Y-35300000D01*
X75000000Y-35850000D02*
X75050000Y-35800000D01*
D47*
%TO.N,P1032*%
X75050000Y-54300000D02*
X77300000Y-54300000D01*
X64950000Y-68060000D02*
X64950000Y-66850000D01*
X64529000Y-68485000D02*
X64950000Y-68060000D01*
X63481000Y-68485000D02*
X64529000Y-68485000D01*
X62700000Y-67700000D02*
X63481000Y-68485000D01*
X64950000Y-66850000D02*
X64950000Y-66300000D01*
D46*
X65000000Y-66850000D02*
X64950000Y-66850000D01*
X75050000Y-54800000D02*
X75000000Y-54850000D01*
X75050000Y-54300000D02*
X75050000Y-54800000D01*
X75000000Y-56250000D02*
X64950000Y-66300000D01*
X75000000Y-54850000D02*
X75000000Y-56250000D01*
D47*
%TO.N,P1022*%
X75050000Y-73300000D02*
X77300000Y-73300000D01*
D46*
X65000000Y-85850000D02*
X64950000Y-85850000D01*
D47*
X64950000Y-87060000D02*
X64950000Y-85850000D01*
X64529000Y-87485000D02*
X64950000Y-87060000D01*
X63481000Y-87485000D02*
X64529000Y-87485000D01*
X62700000Y-86700000D02*
X63481000Y-87485000D01*
X64950000Y-85850000D02*
X64950000Y-85300000D01*
D46*
X75050000Y-73800000D02*
X75050000Y-73300000D01*
X75000000Y-73850000D02*
X75050000Y-73800000D01*
D47*
%TO.N,P1012*%
X75050000Y-92300000D02*
X77300000Y-92300000D01*
D46*
X65000000Y-104850000D02*
X64950000Y-104850000D01*
D47*
X64950000Y-106060000D02*
X64950000Y-104850000D01*
X64529000Y-106485000D02*
X64950000Y-106060000D01*
X63481000Y-106485000D02*
X64529000Y-106485000D01*
X62700000Y-105700000D02*
X63481000Y-106485000D01*
X64950000Y-104850000D02*
X64950000Y-104300000D01*
D46*
X75050000Y-92800000D02*
X75050000Y-92300000D01*
X75000000Y-92850000D02*
X75050000Y-92800000D01*
%TO.N,DP20*%
X61650000Y-80500000D02*
X62900000Y-80500000D01*
X63525000Y-80500000D02*
X68275000Y-75750000D01*
X62900000Y-80500000D02*
X63525000Y-80500000D01*
X61650000Y-118500000D02*
X62900000Y-118500000D01*
X63525000Y-118500000D02*
X68275000Y-113750000D01*
X62900000Y-118500000D02*
X63525000Y-118500000D01*
X63525000Y-61500000D02*
X68275000Y-56750000D01*
X62900000Y-61500000D02*
X63525000Y-61500000D01*
X63525000Y-99500000D02*
X68275000Y-94750000D01*
X62900000Y-99500000D02*
X63525000Y-99500000D01*
X62900000Y-99500000D02*
X61650000Y-99500000D01*
X59632300Y-81767600D02*
X60899900Y-80500000D01*
X54343300Y-81767600D02*
X59632300Y-81767600D01*
X61650000Y-80500000D02*
X60899900Y-80500000D01*
X61650000Y-99500000D02*
X60899900Y-99500000D01*
X62900000Y-61500000D02*
X61650000Y-61500000D01*
X61650000Y-61500000D02*
X60899900Y-61500000D01*
X55828700Y-62689200D02*
X55669200Y-62529700D01*
X59710700Y-62689200D02*
X55828700Y-62689200D01*
X60899900Y-61500000D02*
X59710700Y-62689200D01*
X51943300Y-100690100D02*
X51725000Y-100471800D01*
X59709800Y-100690100D02*
X51943300Y-100690100D01*
X60899900Y-99500000D02*
X59709800Y-100690100D01*
D47*
%TO.N,P1040*%
X144950000Y-61180000D02*
X144950000Y-60300000D01*
D46*
X145000000Y-61130000D02*
X145000000Y-60850000D01*
X144950000Y-61180000D02*
X145000000Y-61130000D01*
X35050000Y-57800000D02*
X35050000Y-57300000D01*
X35000000Y-57850000D02*
X35050000Y-57800000D01*
D47*
X144950000Y-62060000D02*
X144950000Y-61180000D01*
X144529000Y-62485000D02*
X144950000Y-62060000D01*
X143481000Y-62485000D02*
X144529000Y-62485000D01*
X142700000Y-61700000D02*
X143481000Y-62485000D01*
X35050000Y-57300000D02*
X36294000Y-57300000D01*
X36294000Y-57300000D02*
X37300000Y-57300000D01*
D46*
X142648200Y-57998200D02*
X144950000Y-60300000D01*
X131426000Y-57998200D02*
X142648200Y-57998200D01*
X125510000Y-52082200D02*
X131426000Y-57998200D01*
X117458900Y-52082200D02*
X125510000Y-52082200D01*
X114765100Y-49388400D02*
X117458900Y-52082200D01*
X114765100Y-47573000D02*
X114765100Y-49388400D01*
X112369500Y-45177400D02*
X114765100Y-47573000D01*
X107179400Y-45177400D02*
X112369500Y-45177400D01*
X104520300Y-47836500D02*
X107179400Y-45177400D01*
X88798100Y-47836500D02*
X104520300Y-47836500D01*
X85202200Y-51432400D02*
X88798100Y-47836500D01*
X76637200Y-51432400D02*
X85202200Y-51432400D01*
X64928100Y-63141500D02*
X76637200Y-51432400D01*
X54876900Y-63141500D02*
X64928100Y-63141500D01*
X47583700Y-55848300D02*
X54876900Y-63141500D01*
X37677000Y-55848300D02*
X47583700Y-55848300D01*
X36894400Y-56630900D02*
X37677000Y-55848300D01*
X36563000Y-56630900D02*
X36894400Y-56630900D01*
X36487100Y-56555000D02*
X36563000Y-56630900D01*
X36404500Y-56555000D02*
X36487100Y-56555000D01*
X36294000Y-56665500D02*
X36404500Y-56555000D01*
X36294000Y-57300000D02*
X36294000Y-56665500D01*
D47*
%TO.N,P1041*%
X55050000Y-47300000D02*
X57300000Y-47300000D01*
D46*
X44952200Y-57802100D02*
X44950000Y-57802100D01*
X44952200Y-57802200D02*
X44952200Y-57802100D01*
X45000000Y-57850000D02*
X44952200Y-57802200D01*
D47*
X44950000Y-59060000D02*
X44950000Y-57802100D01*
X44529000Y-59485000D02*
X44950000Y-59060000D01*
X43481000Y-59485000D02*
X44529000Y-59485000D01*
X42700000Y-58700000D02*
X43481000Y-59485000D01*
X44950000Y-57802100D02*
X44950000Y-57300000D01*
D46*
X55050000Y-47800000D02*
X55050000Y-47300000D01*
X55000000Y-47850000D02*
X55050000Y-47800000D01*
%TO.N,P1030*%
X145000000Y-80130000D02*
X145000000Y-79850000D01*
X144950000Y-80180000D02*
X145000000Y-80130000D01*
D47*
X144950000Y-81060000D02*
X144950000Y-80180000D01*
X144529000Y-81485000D02*
X144950000Y-81060000D01*
X143481000Y-81485000D02*
X144529000Y-81485000D01*
X142700000Y-80700000D02*
X143481000Y-81485000D01*
X35050000Y-76300000D02*
X37300000Y-76300000D01*
D46*
X35000000Y-76850000D02*
X35047900Y-76850000D01*
D47*
X144950000Y-80180000D02*
X144950000Y-79300000D01*
D46*
X35050000Y-76847900D02*
X35047900Y-76850000D01*
X35050000Y-76300000D02*
X35050000Y-76847900D01*
X142873600Y-77223600D02*
X144950000Y-79300000D01*
X130535600Y-77223600D02*
X142873600Y-77223600D01*
X124729700Y-71417700D02*
X130535600Y-77223600D01*
X109856900Y-71417700D02*
X124729700Y-71417700D01*
X105763800Y-67324600D02*
X109856900Y-71417700D01*
X94539200Y-67324600D02*
X105763800Y-67324600D01*
X92350700Y-65136100D02*
X94539200Y-67324600D01*
X92350700Y-64763200D02*
X92350700Y-65136100D01*
X89267600Y-61680100D02*
X92350700Y-64763200D01*
X83767600Y-61680100D02*
X89267600Y-61680100D01*
X81967500Y-63480200D02*
X83767600Y-61680100D01*
X78360000Y-63480200D02*
X81967500Y-63480200D01*
X76531100Y-61651300D02*
X78360000Y-63480200D01*
X73720200Y-61651300D02*
X76531100Y-61651300D01*
X63846100Y-71525400D02*
X73720200Y-61651300D01*
X63846100Y-72496400D02*
X63846100Y-71525400D01*
X61277800Y-75064700D02*
X63846100Y-72496400D01*
X57832500Y-75064700D02*
X61277800Y-75064700D01*
X56419100Y-73651300D02*
X57832500Y-75064700D01*
X51711000Y-73651300D02*
X56419100Y-73651300D01*
X43846100Y-81516200D02*
X51711000Y-73651300D01*
X43846100Y-82545500D02*
X43846100Y-81516200D01*
X41341400Y-85050200D02*
X43846100Y-82545500D01*
X38654400Y-85050200D02*
X41341400Y-85050200D01*
X36154000Y-82549800D02*
X38654400Y-85050200D01*
X36154000Y-79504000D02*
X36154000Y-82549800D01*
X35047900Y-78397900D02*
X36154000Y-79504000D01*
X35047900Y-76850000D02*
X35047900Y-78397900D01*
D47*
%TO.N,P1031*%
X55050000Y-66300000D02*
X57300000Y-66300000D01*
D46*
X45000000Y-76850000D02*
X44950000Y-76850000D01*
D47*
X44950000Y-78060000D02*
X44950000Y-76850000D01*
X44529000Y-78485000D02*
X44950000Y-78060000D01*
X43481000Y-78485000D02*
X44529000Y-78485000D01*
X42700000Y-77700000D02*
X43481000Y-78485000D01*
X44950000Y-76850000D02*
X44950000Y-76300000D01*
D46*
X55000000Y-66350000D02*
X55000000Y-66850000D01*
X55050000Y-66300000D02*
X55000000Y-66350000D01*
X44950000Y-75818500D02*
X44950000Y-76300000D01*
X53918500Y-66850000D02*
X44950000Y-75818500D01*
X55000000Y-66850000D02*
X53918500Y-66850000D01*
D47*
%TO.N,P1020*%
X35050000Y-95300000D02*
X37300000Y-95300000D01*
X144950000Y-99180000D02*
X144950000Y-98300000D01*
D46*
X145000000Y-99130000D02*
X145000000Y-98850000D01*
X144950000Y-99180000D02*
X145000000Y-99130000D01*
X35050000Y-95800000D02*
X35050000Y-95300000D01*
X35000000Y-95850000D02*
X35050000Y-95800000D01*
D47*
X143481000Y-100485000D02*
X143503100Y-100485000D01*
X142700000Y-99700000D02*
X143481000Y-100485000D01*
X144950000Y-100060000D02*
X144950000Y-99180000D01*
X144529000Y-100485000D02*
X144950000Y-100060000D01*
X143503100Y-100485000D02*
X144529000Y-100485000D01*
D46*
X35000000Y-98880000D02*
X35000000Y-95850000D01*
X36404100Y-100284100D02*
X35000000Y-98880000D01*
X36404100Y-102293700D02*
X36404100Y-100284100D01*
X38590600Y-104480200D02*
X36404100Y-102293700D01*
X41401800Y-104480200D02*
X38590600Y-104480200D01*
X43201900Y-102680100D02*
X41401800Y-104480200D01*
X46410200Y-102680100D02*
X43201900Y-102680100D01*
X47059200Y-102031100D02*
X46410200Y-102680100D01*
X65592500Y-102031100D02*
X47059200Y-102031100D01*
X74735900Y-111174500D02*
X65592500Y-102031100D01*
X127132500Y-111174500D02*
X74735900Y-111174500D01*
X132626900Y-105680100D02*
X127132500Y-111174500D01*
X135829500Y-105680100D02*
X132626900Y-105680100D01*
X137204000Y-107054600D02*
X135829500Y-105680100D01*
X141271600Y-107054600D02*
X137204000Y-107054600D01*
X143503100Y-104823100D02*
X141271600Y-107054600D01*
X143503100Y-100485000D02*
X143503100Y-104823100D01*
D47*
%TO.N,P1021*%
X55050000Y-85300000D02*
X57300000Y-85300000D01*
X44950000Y-97060000D02*
X44950000Y-96180000D01*
X44529000Y-97485000D02*
X44950000Y-97060000D01*
X43481000Y-97485000D02*
X44529000Y-97485000D01*
X42700000Y-96700000D02*
X43481000Y-97485000D01*
X44950000Y-96180000D02*
X44950000Y-95300000D01*
D46*
X45000000Y-96130000D02*
X45000000Y-95850000D01*
X44950000Y-96180000D02*
X45000000Y-96130000D01*
X54400000Y-85850000D02*
X44950000Y-95300000D01*
X55000000Y-85850000D02*
X54400000Y-85850000D01*
X55000000Y-85350000D02*
X55050000Y-85300000D01*
X55000000Y-85850000D02*
X55000000Y-85350000D01*
%TO.N,P1010*%
X163881700Y-134441000D02*
X163882000Y-134441000D01*
X166183800Y-135268200D02*
X166151700Y-135236100D01*
X166189900Y-135268200D02*
X166183800Y-135268200D01*
D47*
X165374000Y-136163000D02*
X166151700Y-135236100D01*
X164778000Y-136218000D02*
X165374000Y-136163000D01*
X163975000Y-135544000D02*
X164778000Y-136218000D01*
X163882000Y-134441000D02*
X163975000Y-135544000D01*
X166151700Y-135236100D02*
X166505000Y-134815000D01*
D46*
X35050000Y-114800000D02*
X35050000Y-114300000D01*
X35000000Y-114850000D02*
X35050000Y-114800000D01*
D47*
X35050000Y-114300000D02*
X36294000Y-114300000D01*
X36294000Y-114300000D02*
X37300000Y-114300000D01*
D46*
X150596400Y-117984100D02*
X152200000Y-116380500D01*
X144869200Y-117984100D02*
X150596400Y-117984100D01*
X143442000Y-116556900D02*
X144869200Y-117984100D01*
X129740200Y-116556900D02*
X143442000Y-116556900D01*
X124932600Y-111749300D02*
X129740200Y-116556900D01*
X74304100Y-111749300D02*
X124932600Y-111749300D01*
X65002800Y-102448000D02*
X74304100Y-111749300D01*
X53879700Y-102448000D02*
X65002800Y-102448000D01*
X43919800Y-112407900D02*
X53879700Y-102448000D01*
X37551600Y-112407900D02*
X43919800Y-112407900D01*
X36294000Y-113665500D02*
X37551600Y-112407900D01*
X36294000Y-114300000D02*
X36294000Y-113665500D01*
D47*
%TO.N,P1011*%
X55050000Y-104300000D02*
X57300000Y-104300000D01*
D46*
X44952200Y-114802100D02*
X44950000Y-114802100D01*
X44952200Y-114802200D02*
X44952200Y-114802100D01*
X45000000Y-114850000D02*
X44952200Y-114802200D01*
D47*
X44950000Y-116060000D02*
X44950000Y-114802100D01*
X44529000Y-116485000D02*
X44950000Y-116060000D01*
X43481000Y-116485000D02*
X44529000Y-116485000D01*
X42700000Y-115700000D02*
X43481000Y-116485000D01*
X44950000Y-114802100D02*
X44950000Y-114300000D01*
D46*
X55000000Y-104350000D02*
X55050000Y-104300000D01*
X55000000Y-104850000D02*
X55000000Y-104350000D01*
X54400000Y-104850000D02*
X44950000Y-114300000D01*
X55000000Y-104850000D02*
X54400000Y-104850000D01*
%TO.N,DP21*%
X43525000Y-109500000D02*
X48275000Y-104750000D01*
X42900000Y-109500000D02*
X43525000Y-109500000D01*
X42900000Y-109500000D02*
X41650000Y-109500000D01*
X42900000Y-71500000D02*
X41650000Y-71500000D01*
X43525000Y-71500000D02*
X48275000Y-66750000D01*
X42900000Y-71500000D02*
X43525000Y-71500000D01*
X43525000Y-90500000D02*
X48275000Y-85750000D01*
X42900000Y-90500000D02*
X43525000Y-90500000D01*
X42900000Y-90500000D02*
X41650000Y-90500000D01*
X43525000Y-128500000D02*
X42900000Y-128500000D01*
X48275000Y-123750000D02*
X43525000Y-128500000D01*
X42900000Y-128500000D02*
X41650000Y-128500000D01*
%TO.N,P8*%
X166362600Y-67687400D02*
X169620000Y-64430000D01*
X166362600Y-73106700D02*
X166362600Y-67687400D01*
X166700200Y-73444300D02*
X166362600Y-73106700D01*
X166700200Y-78199800D02*
X166700200Y-73444300D01*
X165604000Y-79296000D02*
X166700200Y-78199800D01*
X165604000Y-80316000D02*
X165604000Y-79296000D01*
X160540000Y-85380000D02*
X165604000Y-80316000D01*
%TO.N,P7*%
X170813100Y-63083100D02*
X169620000Y-61890000D01*
X170813100Y-68799700D02*
X170813100Y-63083100D01*
X169300000Y-70312800D02*
X170813100Y-68799700D01*
X169300000Y-80319900D02*
X169300000Y-70312800D01*
X165540000Y-84079900D02*
X169300000Y-80319900D01*
X165540000Y-85380000D02*
X165540000Y-84079900D01*
%TO.N,P6*%
X79237500Y-123437500D02*
X76725000Y-125950000D01*
X82285000Y-123437500D02*
X79237500Y-123437500D01*
X115098900Y-127761900D02*
X116218900Y-126641900D01*
X115098900Y-129797600D02*
X115098900Y-127761900D01*
X115098900Y-129797600D02*
X110140100Y-129797600D01*
X84071200Y-121651300D02*
X82285000Y-123437500D01*
X89254000Y-121651300D02*
X84071200Y-121651300D01*
X94366900Y-126764200D02*
X89254000Y-121651300D01*
X95910800Y-126764200D02*
X94366900Y-126764200D01*
X95910800Y-129520600D02*
X95910800Y-126764200D01*
X96187800Y-129797600D02*
X95910800Y-129520600D01*
X110140100Y-129797600D02*
X96187800Y-129797600D01*
X95910800Y-126764200D02*
X96725000Y-125950000D01*
X134712400Y-130973100D02*
X135727900Y-129957600D01*
X115925900Y-130973100D02*
X134712400Y-130973100D01*
X115098900Y-130146100D02*
X115925900Y-130973100D01*
X115098900Y-129797600D02*
X115098900Y-130146100D01*
X152715900Y-138452200D02*
X151474000Y-137410100D01*
X150713500Y-136649600D02*
X151474000Y-137410100D01*
X145373600Y-125805800D02*
X146625200Y-125805800D01*
X142579900Y-128599500D02*
X145373600Y-125805800D01*
X137086000Y-128599500D02*
X142579900Y-128599500D01*
X135727900Y-129957600D02*
X137086000Y-128599500D01*
X150713500Y-129894100D02*
X150713500Y-136649600D01*
X146625200Y-125805800D02*
X150713500Y-129894100D01*
X150613600Y-136749500D02*
X149381300Y-136749500D01*
X150713500Y-136649600D02*
X150613600Y-136749500D01*
X169082300Y-59350000D02*
X169620000Y-59350000D01*
X152925200Y-75507100D02*
X169082300Y-59350000D01*
X152925200Y-78503500D02*
X152925200Y-75507100D01*
X152188900Y-79239800D02*
X152925200Y-78503500D01*
X151635800Y-79239800D02*
X152188900Y-79239800D01*
X150499800Y-80375800D02*
X151635800Y-79239800D01*
X150499800Y-89035400D02*
X150499800Y-80375800D01*
X156378300Y-94913900D02*
X150499800Y-89035400D01*
X157093900Y-94913900D02*
X156378300Y-94913900D01*
X161605100Y-99425100D02*
X157093900Y-94913900D01*
X161605100Y-101031300D02*
X161605100Y-99425100D01*
X157164000Y-105472400D02*
X161605100Y-101031300D01*
X157164000Y-115267000D02*
X157164000Y-105472400D01*
X146625200Y-125805800D02*
X157164000Y-115267000D01*
%TO.N,P5*%
X116725000Y-103950000D02*
X115124900Y-103950000D01*
X38975400Y-123699600D02*
X42200900Y-123699600D01*
X36725000Y-125950000D02*
X38975400Y-123699600D01*
X42200900Y-123616100D02*
X42200900Y-123699600D01*
X44249200Y-121567800D02*
X42200900Y-123616100D01*
X46064800Y-121567800D02*
X44249200Y-121567800D01*
X47290500Y-120342100D02*
X46064800Y-121567800D01*
X47290500Y-119623700D02*
X47290500Y-120342100D01*
X50964200Y-115950000D02*
X47290500Y-119623700D01*
X56725000Y-115950000D02*
X50964200Y-115950000D01*
X96725000Y-99950000D02*
X95124900Y-99950000D01*
X114855200Y-104219700D02*
X115124900Y-103950000D01*
X104594500Y-104219700D02*
X114855200Y-104219700D01*
X94832700Y-103682400D02*
X94832700Y-100242200D01*
X95370000Y-104219700D02*
X94832700Y-103682400D01*
X104594500Y-104219700D02*
X95370000Y-104219700D01*
X94832700Y-100242200D02*
X95124900Y-99950000D01*
X78975900Y-101699100D02*
X76725000Y-103950000D01*
X80070600Y-101699100D02*
X78975900Y-101699100D01*
X81533100Y-101699100D02*
X80070600Y-101699100D01*
X83582400Y-99649800D02*
X81533100Y-101699100D01*
X93605900Y-99649800D02*
X83582400Y-99649800D01*
X94198300Y-100242200D02*
X93605900Y-99649800D01*
X94832700Y-100242200D02*
X94198300Y-100242200D01*
X135037300Y-109862400D02*
X130787500Y-109862400D01*
X135124900Y-109950000D02*
X135037300Y-109862400D01*
X136725000Y-109950000D02*
X135124900Y-109950000D01*
X136725000Y-109909400D02*
X138373200Y-108261200D01*
X136725000Y-109950000D02*
X136725000Y-109909400D01*
X157060800Y-69369200D02*
X169620000Y-56810000D01*
X157060800Y-70406700D02*
X157060800Y-69369200D01*
X118346900Y-102328100D02*
X118346900Y-102236000D01*
X116725000Y-103950000D02*
X118346900Y-102328100D01*
%TO.N,P4*%
X36725000Y-106939200D02*
X36725000Y-106950000D01*
X38379200Y-105285000D02*
X36725000Y-106939200D01*
X149245900Y-74644100D02*
X149245900Y-86680100D01*
X169620000Y-54270000D02*
X149245900Y-74644100D01*
X144160200Y-86680100D02*
X149245900Y-86680100D01*
X142226800Y-88613500D02*
X144160200Y-86680100D01*
X149875200Y-89215200D02*
X160540000Y-99880000D01*
X149875200Y-87309400D02*
X149875200Y-89215200D01*
X149245900Y-86680100D02*
X149875200Y-87309400D01*
X116725000Y-84950000D02*
X115124900Y-84950000D01*
X139061400Y-88613600D02*
X136725000Y-90950000D01*
X142226800Y-88613600D02*
X139061400Y-88613600D01*
X142226800Y-88613500D02*
X142226800Y-88613600D01*
X131617600Y-89329700D02*
X122072500Y-89329700D01*
X133237900Y-90950000D02*
X131617600Y-89329700D01*
X136725000Y-90950000D02*
X133237900Y-90950000D01*
X78989400Y-82685600D02*
X76725000Y-84950000D01*
X79852300Y-82685600D02*
X78989400Y-82685600D01*
X104165300Y-76685300D02*
X102004000Y-78846600D01*
X109238000Y-76685300D02*
X104165300Y-76685300D01*
X112949800Y-80397100D02*
X109238000Y-76685300D01*
X112949800Y-83627900D02*
X112949800Y-80397100D01*
X114305000Y-84983100D02*
X112949800Y-83627900D01*
X114842900Y-84983100D02*
X114305000Y-84983100D01*
X114842900Y-88046600D02*
X114842900Y-84983100D01*
X116126000Y-89329700D02*
X114842900Y-88046600D01*
X122072500Y-89329700D02*
X116126000Y-89329700D01*
X115091800Y-84983100D02*
X115124900Y-84950000D01*
X114842900Y-84983100D02*
X115091800Y-84983100D01*
X96725000Y-80862500D02*
X96725000Y-80950000D01*
X98740900Y-78846600D02*
X96725000Y-80862500D01*
X102004000Y-78846600D02*
X98740900Y-78846600D01*
X81546600Y-82685600D02*
X79852300Y-82685600D01*
X83535400Y-80696800D02*
X81546600Y-82685600D01*
X91518800Y-80696800D02*
X83535400Y-80696800D01*
X91684500Y-80862500D02*
X91518800Y-80696800D01*
X96725000Y-80862500D02*
X91684500Y-80862500D01*
X58377100Y-95297900D02*
X56725000Y-96950000D01*
X58377100Y-95255500D02*
X58377100Y-95297900D01*
X56725000Y-96950000D02*
X55124900Y-96950000D01*
X43969600Y-100397300D02*
X43969600Y-101874100D01*
X47416900Y-96950000D02*
X43969600Y-100397300D01*
X55124900Y-96950000D02*
X47416900Y-96950000D01*
%TO.N,P3*%
X116725000Y-65950000D02*
X115124900Y-65950000D01*
X62301800Y-75538200D02*
X62301800Y-75759100D01*
X64272200Y-73567800D02*
X62301800Y-75538200D01*
X67507100Y-73567800D02*
X64272200Y-73567800D01*
X75124900Y-65950000D02*
X67507100Y-73567800D01*
X76725000Y-65950000D02*
X75124900Y-65950000D01*
X136725000Y-71823600D02*
X136725000Y-71950000D01*
X138405100Y-70143500D02*
X138550900Y-70143500D01*
X136725000Y-71823600D02*
X138405100Y-70143500D01*
X104461300Y-64187800D02*
X104461300Y-65243900D01*
X105167400Y-65950000D02*
X115124900Y-65950000D01*
X104461300Y-65243900D02*
X105167400Y-65950000D01*
X96725000Y-61950000D02*
X95124900Y-61950000D01*
X148619200Y-74501300D02*
X148058300Y-74501300D01*
X167243500Y-55877000D02*
X148619200Y-74501300D01*
X167243500Y-54106500D02*
X167243500Y-55877000D01*
X169620000Y-51730000D02*
X167243500Y-54106500D01*
X58915900Y-75759100D02*
X56725000Y-77950000D01*
X62301800Y-75759100D02*
X58915900Y-75759100D01*
X56725000Y-77950000D02*
X55124900Y-77950000D01*
X38876500Y-85798500D02*
X36725000Y-87950000D01*
X42052300Y-85798500D02*
X38876500Y-85798500D01*
X42448200Y-85402600D02*
X42052300Y-85798500D01*
X42544500Y-85498900D02*
X42448200Y-85402600D01*
X49507100Y-83567800D02*
X55124900Y-77950000D01*
X44283000Y-83567800D02*
X49507100Y-83567800D01*
X42448200Y-85402600D02*
X44283000Y-83567800D01*
X94515400Y-62559500D02*
X94515400Y-64820200D01*
X95124900Y-61950000D02*
X94515400Y-62559500D01*
X78794700Y-63880300D02*
X82593700Y-63880300D01*
X76725000Y-65950000D02*
X78794700Y-63880300D01*
X94515400Y-64820200D02*
X92950800Y-64820200D01*
X126958000Y-71823600D02*
X124584100Y-69449700D01*
X136725000Y-71823600D02*
X126958000Y-71823600D01*
X124267600Y-69766200D02*
X124584100Y-69449700D01*
X116118800Y-69766200D02*
X124267600Y-69766200D01*
X115124900Y-68772300D02*
X116118800Y-69766200D01*
X115124900Y-65950000D02*
X115124900Y-68772300D01*
X124584100Y-69449700D02*
X124584100Y-68848100D01*
X103951400Y-65753800D02*
X104461300Y-65243900D01*
X101251100Y-65753800D02*
X103951400Y-65753800D01*
X100900800Y-66104100D02*
X101251100Y-65753800D01*
X95799300Y-66104100D02*
X100900800Y-66104100D01*
X94515400Y-64820200D02*
X95799300Y-66104100D01*
%TO.N,P2*%
X76725000Y-46950000D02*
X75124900Y-46950000D01*
X59200000Y-56475000D02*
X56725000Y-58950000D01*
X59959700Y-56475000D02*
X59200000Y-56475000D01*
X163352600Y-55457400D02*
X169620000Y-49190000D01*
X153891400Y-55457400D02*
X163352600Y-55457400D01*
X152604500Y-54170500D02*
X153891400Y-55457400D01*
X152604500Y-52053000D02*
X152604500Y-54170500D01*
X149231600Y-48680100D02*
X152604500Y-52053000D01*
X143844800Y-48680100D02*
X149231600Y-48680100D01*
X141452500Y-51072400D02*
X143844800Y-48680100D01*
X36725000Y-68877500D02*
X38355400Y-67247100D01*
X36725000Y-68950000D02*
X36725000Y-68877500D01*
X138794600Y-50880400D02*
X136725000Y-52950000D01*
X141260500Y-50880400D02*
X138794600Y-50880400D01*
X141452500Y-51072400D02*
X141260500Y-50880400D01*
X70811700Y-46950000D02*
X75124900Y-46950000D01*
X70074800Y-47686900D02*
X70811700Y-46950000D01*
X70074800Y-51072300D02*
X70074800Y-47686900D01*
X66579300Y-54567800D02*
X70074800Y-51072300D01*
X63664400Y-54567800D02*
X66579300Y-54567800D01*
X61757200Y-56475000D02*
X63664400Y-54567800D01*
X59959700Y-56475000D02*
X61757200Y-56475000D01*
X83630000Y-42602200D02*
X87891100Y-42602200D01*
X81532600Y-44699600D02*
X83630000Y-42602200D01*
X78975400Y-44699600D02*
X81532600Y-44699600D01*
X76725000Y-46950000D02*
X78975400Y-44699600D01*
X88238900Y-42950000D02*
X96725000Y-42950000D01*
X87891100Y-42602200D02*
X88238900Y-42950000D01*
X116725000Y-46278700D02*
X118069400Y-44934300D01*
X116725000Y-46950000D02*
X116725000Y-46278700D01*
%TO.N,P0*%
X170796600Y-42746600D02*
X169620000Y-41570000D01*
X170796600Y-59871300D02*
X170796600Y-42746600D01*
X170047900Y-60620000D02*
X170796600Y-59871300D01*
X169187700Y-60620000D02*
X170047900Y-60620000D01*
X163800000Y-66007700D02*
X169187700Y-60620000D01*
X163800000Y-72400000D02*
X163800000Y-66007700D01*
%TO.N,P10*%
X145000000Y-41850000D02*
X144950000Y-41850000D01*
D47*
X144950000Y-43060000D02*
X144950000Y-41850000D01*
X144529000Y-43485000D02*
X144950000Y-43060000D01*
X143481000Y-43485000D02*
X144529000Y-43485000D01*
X142700000Y-42700000D02*
X143481000Y-43485000D01*
X144950000Y-41850000D02*
X144950000Y-41300000D01*
D46*
%TO.N,P16*%
X152321600Y-141450200D02*
X151686600Y-140917400D01*
X151415900Y-140646700D02*
X151686600Y-140917400D01*
X151364100Y-140646700D02*
X151415900Y-140646700D01*
%TO.N,P14*%
X135369800Y-132540900D02*
X135369800Y-132541000D01*
X135310900Y-132482000D02*
X135369800Y-132540900D01*
X135208100Y-132482000D02*
X135310900Y-132482000D01*
X136382700Y-132909600D02*
X135369800Y-132541000D01*
X138350000Y-74500000D02*
X139100100Y-74500000D01*
X137100000Y-55500000D02*
X138350000Y-55500000D01*
X137100000Y-93500000D02*
X138350000Y-93500000D01*
X137100000Y-74500000D02*
X137100000Y-75026200D01*
X137100000Y-75026200D02*
X137100000Y-75689100D01*
X137599900Y-74526300D02*
X137599900Y-74500000D01*
X137100000Y-75026200D02*
X137599900Y-74526300D01*
X138350000Y-74500000D02*
X137599900Y-74500000D01*
X135378500Y-75689100D02*
X135242800Y-75824800D01*
X137100000Y-75689100D02*
X135378500Y-75689100D01*
X137100000Y-112500000D02*
X137100000Y-113094500D01*
X137599900Y-112594600D02*
X137599900Y-112500000D01*
X137100000Y-113094500D02*
X137599900Y-112594600D01*
X138350000Y-112500000D02*
X137599900Y-112500000D01*
X137100000Y-113246000D02*
X135126300Y-115219700D01*
X137100000Y-113094500D02*
X137100000Y-113246000D01*
X149876400Y-66393600D02*
X154380000Y-61890000D01*
X149876400Y-71173300D02*
X149876400Y-66393600D01*
X145257200Y-75792500D02*
X149876400Y-71173300D01*
X140392600Y-75792500D02*
X145257200Y-75792500D01*
X139100100Y-74500000D02*
X140392600Y-75792500D01*
X140398000Y-56797900D02*
X139100100Y-55500000D01*
X147094100Y-56797900D02*
X140398000Y-56797900D01*
X148446500Y-58150300D02*
X147094100Y-56797900D01*
X154895700Y-58150300D02*
X148446500Y-58150300D01*
X155570900Y-58825500D02*
X154895700Y-58150300D01*
X155570900Y-60699100D02*
X155570900Y-58825500D01*
X154380000Y-61890000D02*
X155570900Y-60699100D01*
X138350000Y-55500000D02*
X139100100Y-55500000D01*
%TO.N,P15*%
X118350000Y-87500000D02*
X117100000Y-87500000D01*
X117100000Y-106500000D02*
X118350000Y-106500000D01*
X116753100Y-129214900D02*
X116789800Y-129251600D01*
X116370200Y-129214900D02*
X116753100Y-129214900D01*
X117615500Y-129323900D02*
X116789800Y-129251600D01*
X117100000Y-68500000D02*
X118350000Y-68500000D01*
X117100000Y-49500000D02*
X118350000Y-49500000D01*
X147049700Y-59350000D02*
X154380000Y-59350000D01*
X145097800Y-57398100D02*
X147049700Y-59350000D01*
X136662100Y-57398100D02*
X145097800Y-57398100D01*
X130604500Y-51340500D02*
X136662100Y-57398100D01*
X120940600Y-51340500D02*
X130604500Y-51340500D01*
X119100100Y-49500000D02*
X120940600Y-51340500D01*
X118350000Y-49500000D02*
X119100100Y-49500000D01*
%TO.N,P18*%
X97100000Y-128500000D02*
X98350000Y-128500000D01*
X97100000Y-102500000D02*
X98350000Y-102500000D01*
X97100000Y-64500000D02*
X98289100Y-64500000D01*
X98350000Y-64500000D02*
X98289100Y-64500000D01*
X97100000Y-83500000D02*
X98350000Y-83500000D01*
X111198100Y-66382300D02*
X101471300Y-66382300D01*
X115785100Y-70969300D02*
X111198100Y-66382300D01*
X124847100Y-70969300D02*
X115785100Y-70969300D01*
X130358300Y-76480500D02*
X124847100Y-70969300D01*
X145208100Y-76480500D02*
X130358300Y-76480500D01*
X153132800Y-68555800D02*
X145208100Y-76480500D01*
X153132800Y-66472300D02*
X153132800Y-68555800D01*
X153905100Y-65700000D02*
X153132800Y-66472300D01*
X154809200Y-65700000D02*
X153905100Y-65700000D01*
X155971100Y-64538100D02*
X154809200Y-65700000D01*
X155971100Y-58401100D02*
X155971100Y-64538100D01*
X154380000Y-56810000D02*
X155971100Y-58401100D01*
X97100000Y-45500000D02*
X98350000Y-45500000D01*
%TO.N,P19*%
X78350000Y-128500000D02*
X77100000Y-128500000D01*
X78350000Y-87500000D02*
X77100000Y-87500000D01*
X78350000Y-68500000D02*
X77599900Y-68500000D01*
X73708900Y-53485600D02*
X77100000Y-50094500D01*
X73708900Y-53512100D02*
X73708900Y-53485600D01*
X78350000Y-106500000D02*
X77100000Y-106500000D01*
X72928500Y-92860600D02*
X77100000Y-88689100D01*
X72928500Y-103517600D02*
X72928500Y-92860600D01*
X75910900Y-106500000D02*
X72928500Y-103517600D01*
X77100000Y-106500000D02*
X75910900Y-106500000D01*
X77100000Y-87500000D02*
X77100000Y-88689100D01*
X77100000Y-87500000D02*
X75910900Y-87500000D01*
X77100000Y-68500000D02*
X77599900Y-68500000D01*
X72948300Y-84537400D02*
X75910900Y-87500000D01*
X72948300Y-73840800D02*
X72948300Y-84537400D01*
X77100000Y-69689100D02*
X72948300Y-73840800D01*
X77100000Y-68500000D02*
X77100000Y-69689100D01*
X153016500Y-52906500D02*
X154380000Y-54270000D01*
X153016500Y-51855800D02*
X153016500Y-52906500D01*
X146649300Y-45488600D02*
X153016500Y-51855800D01*
X144864800Y-45488600D02*
X146649300Y-45488600D01*
X143846100Y-46507300D02*
X144864800Y-45488600D01*
X143846100Y-47467500D02*
X143846100Y-46507300D01*
X141214900Y-50098700D02*
X143846100Y-47467500D01*
X138707700Y-50098700D02*
X141214900Y-50098700D01*
X136154000Y-47545000D02*
X138707700Y-50098700D01*
X136154000Y-46463500D02*
X136154000Y-47545000D01*
X132390300Y-42699800D02*
X136154000Y-46463500D01*
X123182200Y-42699800D02*
X132390300Y-42699800D01*
X121801900Y-44080100D02*
X123182200Y-42699800D01*
X118484200Y-44080100D02*
X121801900Y-44080100D01*
X117096900Y-42692800D02*
X118484200Y-44080100D01*
X107797900Y-42692800D02*
X117096900Y-42692800D01*
X103054400Y-47436300D02*
X107797900Y-42692800D01*
X87193300Y-47436300D02*
X103054400Y-47436300D01*
X83872700Y-50756900D02*
X87193300Y-47436300D01*
X80357000Y-50756900D02*
X83872700Y-50756900D01*
X79100100Y-49500000D02*
X80357000Y-50756900D01*
X78350000Y-49500000D02*
X79100100Y-49500000D01*
X77100000Y-49500000D02*
X77100000Y-49797200D01*
X77100000Y-49797200D02*
X77100000Y-50094500D01*
X77302700Y-49797200D02*
X77599900Y-49500000D01*
X77100000Y-49797200D02*
X77302700Y-49797200D01*
X78350000Y-49500000D02*
X77599900Y-49500000D01*
%TO.N,P20*%
X57100000Y-118500000D02*
X58350000Y-118500000D01*
X58350000Y-99500000D02*
X57100000Y-99500000D01*
X57100000Y-80500000D02*
X58350000Y-80500000D01*
X58350000Y-61500000D02*
X57100000Y-61500000D01*
X57100000Y-61500000D02*
X55910900Y-61500000D01*
X146639300Y-43989300D02*
X154380000Y-51730000D01*
X146639300Y-41661300D02*
X146639300Y-43989300D01*
X143979400Y-39001400D02*
X146639300Y-41661300D01*
X131456300Y-39001400D02*
X143979400Y-39001400D01*
X122303400Y-29848500D02*
X131456300Y-39001400D01*
X79228600Y-29848500D02*
X122303400Y-29848500D01*
X73155700Y-35921400D02*
X79228600Y-29848500D01*
X73155700Y-38336000D02*
X73155700Y-35921400D01*
X69430200Y-42061500D02*
X73155700Y-38336000D01*
X58400000Y-42061500D02*
X69430200Y-42061500D01*
X52905100Y-47556400D02*
X58400000Y-42061500D01*
X52905100Y-58494200D02*
X52905100Y-47556400D01*
X55910900Y-61500000D02*
X52905100Y-58494200D01*
%TO.N,P21*%
X37100000Y-90500000D02*
X38350000Y-90500000D01*
X38350000Y-109500000D02*
X37100000Y-109500000D01*
X38350000Y-128500000D02*
X37100000Y-128500000D01*
X38350000Y-71500000D02*
X37599900Y-71500000D01*
X37100000Y-90500000D02*
X35910900Y-90500000D01*
X37100000Y-109500000D02*
X35910900Y-109500000D01*
X37100000Y-128500000D02*
X35910900Y-128500000D01*
X32889200Y-125478300D02*
X35910900Y-128500000D01*
X32889200Y-112521700D02*
X32889200Y-125478300D01*
X35910900Y-109500000D02*
X32889200Y-112521700D01*
X37599900Y-71500000D02*
X37100000Y-71500000D01*
X32944400Y-106533500D02*
X35910900Y-109500000D01*
X32944400Y-93466500D02*
X32944400Y-106533500D01*
X35910900Y-90500000D02*
X32944400Y-93466500D01*
X37100000Y-71500000D02*
X37100000Y-72689100D01*
X32924300Y-76864800D02*
X37100000Y-72689100D01*
X32924300Y-87513400D02*
X32924300Y-76864800D01*
X35910900Y-90500000D02*
X32924300Y-87513400D01*
X32949800Y-68538900D02*
X35910900Y-71500000D01*
X32949800Y-58091600D02*
X32949800Y-68538900D01*
X36520700Y-54520700D02*
X32949800Y-58091600D01*
X48331200Y-54520700D02*
X36520700Y-54520700D01*
X51407600Y-51444300D02*
X48331200Y-54520700D01*
X51407600Y-48488000D02*
X51407600Y-51444300D01*
X58551500Y-41344100D02*
X51407600Y-48488000D01*
X69573100Y-41344100D02*
X58551500Y-41344100D01*
X71324300Y-39592900D02*
X69573100Y-41344100D01*
X71324300Y-37186900D02*
X71324300Y-39592900D01*
X79063000Y-29448200D02*
X71324300Y-37186900D01*
X122948900Y-29448200D02*
X79063000Y-29448200D01*
X129573800Y-36073100D02*
X122948900Y-29448200D01*
X141616900Y-36073100D02*
X129573800Y-36073100D01*
X154380000Y-48836200D02*
X141616900Y-36073100D01*
X154380000Y-49190000D02*
X154380000Y-48836200D01*
X37100000Y-71500000D02*
X35910900Y-71500000D01*
D47*
%TO.N,VCC*%
X43800000Y-95900000D02*
X43800000Y-96700000D01*
X43400000Y-95300000D02*
X43800000Y-95900000D01*
X42700000Y-95300000D02*
X43400000Y-95300000D01*
D46*
X153875000Y-106800000D02*
X153875000Y-108400100D01*
X111175000Y-46500000D02*
X110875000Y-46800000D01*
X111600000Y-46500000D02*
X111175000Y-46500000D01*
X111175000Y-84500000D02*
X110875000Y-84800000D01*
X111600000Y-84500000D02*
X111175000Y-84500000D01*
X71175000Y-82500000D02*
X70875000Y-82800000D01*
X71600000Y-82500000D02*
X71175000Y-82500000D01*
X164782000Y-133368900D02*
X164782000Y-133369000D01*
X164781600Y-133368500D02*
X164782000Y-133368900D01*
X123186500Y-115557000D02*
X123187000Y-115557000D01*
X145327100Y-121053800D02*
X145327100Y-121053700D01*
X145327400Y-121054100D02*
X145327100Y-121053800D01*
D47*
X145327000Y-121054000D02*
X145327400Y-121054100D01*
X62700000Y-66300000D02*
X63050000Y-66300000D01*
X63800000Y-66900000D02*
X63800000Y-67700000D01*
X63400000Y-66300000D02*
X63800000Y-66900000D01*
X63050000Y-66300000D02*
X63400000Y-66300000D01*
X42700000Y-57300000D02*
X43400000Y-57300000D01*
X43800000Y-57900000D02*
X43800000Y-58700000D01*
X43400000Y-57300000D02*
X43800000Y-57900000D01*
X62700000Y-104300000D02*
X63050000Y-104300000D01*
X63800000Y-104900000D02*
X63800000Y-105700000D01*
X63400000Y-104300000D02*
X63800000Y-104900000D01*
X63050000Y-104300000D02*
X63400000Y-104300000D01*
X42700000Y-114300000D02*
X43400000Y-114300000D01*
X43800000Y-114900000D02*
X43800000Y-115700000D01*
X43400000Y-114300000D02*
X43800000Y-114900000D01*
X42700000Y-76300000D02*
X43050000Y-76300000D01*
X43800000Y-76900000D02*
X43800000Y-77700000D01*
X43400000Y-76300000D02*
X43800000Y-76900000D01*
X43050000Y-76300000D02*
X43400000Y-76300000D01*
D46*
X63050000Y-65772000D02*
X63050000Y-66300000D01*
X62069500Y-64791500D02*
X63050000Y-65772000D01*
X54424600Y-64791500D02*
X62069500Y-64791500D01*
X54424600Y-64925400D02*
X54424600Y-64791500D01*
X43050000Y-76300000D02*
X54424600Y-64925400D01*
D47*
X83800000Y-35900000D02*
X83800000Y-36700000D01*
X83400000Y-35300000D02*
X83800000Y-35900000D01*
X82700000Y-35300000D02*
X83400000Y-35300000D01*
D46*
X110875000Y-46800000D02*
X110875000Y-48400100D01*
X54424600Y-64323100D02*
X54424600Y-64791500D01*
X46646600Y-56545100D02*
X54424600Y-64323100D01*
X44154900Y-56545100D02*
X46646600Y-56545100D01*
X43400000Y-57300000D02*
X44154900Y-56545100D01*
D47*
X122700000Y-35300000D02*
X123050000Y-35300000D01*
X102700000Y-31300000D02*
X103400000Y-31300000D01*
X103800000Y-31900000D02*
X103800000Y-32700000D01*
X103400000Y-31300000D02*
X103800000Y-31900000D01*
X143800000Y-79900000D02*
X143800000Y-80700000D01*
X143400000Y-79300000D02*
X143800000Y-79900000D01*
X142700000Y-79300000D02*
X143400000Y-79300000D01*
X123800000Y-73900000D02*
X123800000Y-74700000D01*
X123400000Y-73300000D02*
X123800000Y-73900000D01*
X122700000Y-73300000D02*
X123400000Y-73300000D01*
X142700000Y-60300000D02*
X143345700Y-60300000D01*
X143800000Y-60900000D02*
X143800000Y-61700000D01*
X143400000Y-60300000D02*
X143800000Y-60900000D01*
X143345700Y-60300000D02*
X143400000Y-60300000D01*
X122700000Y-54300000D02*
X123400000Y-54300000D01*
X123800000Y-54900000D02*
X123800000Y-55700000D01*
X123400000Y-54300000D02*
X123800000Y-54900000D01*
D46*
X122700000Y-53389900D02*
X122700000Y-54300000D01*
X121992300Y-52682200D02*
X122700000Y-53389900D01*
X115440300Y-52682200D02*
X121992300Y-52682200D01*
X111158200Y-48400100D02*
X115440300Y-52682200D01*
X110875000Y-48400100D02*
X111158200Y-48400100D01*
D47*
X145327400Y-121054100D02*
X145985000Y-121293000D01*
X146156000Y-121994000D02*
X145882000Y-122746000D01*
X145985000Y-121293000D02*
X146156000Y-121994000D01*
X63400000Y-85300000D02*
X63533000Y-85499500D01*
X62700000Y-85300000D02*
X63400000Y-85300000D01*
X63800000Y-85900000D02*
X63800000Y-86700000D01*
X63533000Y-85499500D02*
X63800000Y-85900000D01*
D46*
X70875000Y-82800000D02*
X70875000Y-84400100D01*
X154600000Y-76500000D02*
X154600000Y-76825000D01*
X153984100Y-78400100D02*
X154192300Y-78608300D01*
X153875000Y-78400100D02*
X153984100Y-78400100D01*
X153875000Y-76800000D02*
X153875000Y-78400100D01*
X153900000Y-76825000D02*
X154600000Y-76825000D01*
X153875000Y-76800000D02*
X153900000Y-76825000D01*
X161124900Y-76825000D02*
X161299900Y-77000000D01*
X154600000Y-76825000D02*
X161124900Y-76825000D01*
X162700000Y-77000000D02*
X161299900Y-77000000D01*
X69986700Y-85288400D02*
X70875000Y-84400100D01*
X68710800Y-85288400D02*
X69986700Y-85288400D01*
X67975800Y-84553400D02*
X68710800Y-85288400D01*
X64479100Y-84553400D02*
X67975800Y-84553400D01*
X63533000Y-85499500D02*
X64479100Y-84553400D01*
D47*
X62700000Y-47300000D02*
X63050000Y-47300000D01*
X63800000Y-47900000D02*
X63800000Y-48700000D01*
X63400000Y-47300000D02*
X63800000Y-47900000D01*
X63050000Y-47300000D02*
X63400000Y-47300000D01*
D46*
X67150100Y-43199900D02*
X70875000Y-43199900D01*
X63050000Y-47300000D02*
X67150100Y-43199900D01*
X70875000Y-44800000D02*
X70875000Y-43199900D01*
X71175000Y-44500000D02*
X70875000Y-44800000D01*
X71600000Y-44500000D02*
X71175000Y-44500000D01*
D47*
X102700000Y-69300000D02*
X103050000Y-69300000D01*
X103800000Y-69900000D02*
X103800000Y-70700000D01*
X103400000Y-69300000D02*
X103800000Y-69900000D01*
X103050000Y-69300000D02*
X103400000Y-69300000D01*
X122700000Y-92300000D02*
X123050000Y-92300000D01*
X123050000Y-92300000D02*
X123225000Y-92300000D01*
X123800000Y-92900000D02*
X123800000Y-93700000D01*
X123400000Y-92300000D02*
X123800000Y-92900000D01*
X123225000Y-92300000D02*
X123400000Y-92300000D01*
D46*
X142700000Y-97341400D02*
X142700000Y-98300000D01*
X141864400Y-96505800D02*
X142700000Y-97341400D01*
X131045300Y-96505800D02*
X141864400Y-96505800D01*
X126111100Y-91571600D02*
X131045300Y-96505800D01*
X123953400Y-91571600D02*
X126111100Y-91571600D01*
X123225000Y-92300000D02*
X123953400Y-91571600D01*
X145985000Y-121293000D02*
X145985000Y-119130700D01*
X124446800Y-115055200D02*
X123884000Y-115618000D01*
X127010400Y-115055200D02*
X124446800Y-115055200D01*
X129618700Y-117663500D02*
X127010400Y-115055200D01*
X143417000Y-117663500D02*
X129618700Y-117663500D01*
X144884200Y-119130700D02*
X143417000Y-117663500D01*
X145985000Y-119130700D02*
X144884200Y-119130700D01*
D47*
X123187000Y-115557000D02*
X123884000Y-115618000D01*
X124230000Y-116251000D02*
X124160000Y-117048000D01*
X123884000Y-115618000D02*
X124230000Y-116251000D01*
X102700000Y-114300000D02*
X103050000Y-114300000D01*
X103800000Y-114900000D02*
X103800000Y-115700000D01*
X103400000Y-114300000D02*
X103800000Y-114900000D01*
X103050000Y-114300000D02*
X103400000Y-114300000D01*
D46*
X123186500Y-115557000D02*
X123263900Y-114672800D01*
D47*
X143800000Y-41900000D02*
X143800000Y-42700000D01*
X143400000Y-41300000D02*
X143800000Y-41900000D01*
X142700000Y-41300000D02*
X143400000Y-41300000D01*
X123800000Y-35900000D02*
X123800000Y-36700000D01*
X123400000Y-35300000D02*
X123800000Y-35900000D01*
X123050000Y-35300000D02*
X123400000Y-35300000D01*
D46*
X123050000Y-35300000D02*
X123050000Y-34756100D01*
X104119200Y-30580800D02*
X103400000Y-31300000D01*
X118874700Y-30580800D02*
X104119200Y-30580800D01*
X123050000Y-34756100D02*
X118874700Y-30580800D01*
X142700000Y-40338700D02*
X142700000Y-41300000D01*
X142162900Y-39801600D02*
X142700000Y-40338700D01*
X131408100Y-39801600D02*
X142162900Y-39801600D01*
X126194800Y-34588300D02*
X131408100Y-39801600D01*
X123217800Y-34588300D02*
X126194800Y-34588300D01*
X123050000Y-34756100D02*
X123217800Y-34588300D01*
X110875000Y-84800000D02*
X110875000Y-86400100D01*
X115324700Y-90849800D02*
X110875000Y-86400100D01*
X122143700Y-90849800D02*
X115324700Y-90849800D01*
X123050000Y-91756100D02*
X122143700Y-90849800D01*
X123050000Y-92300000D02*
X123050000Y-91756100D01*
D47*
X142700000Y-98300000D02*
X143050000Y-98300000D01*
X143800000Y-98900000D02*
X143800000Y-99700000D01*
X143400000Y-98300000D02*
X143800000Y-98900000D01*
X143050000Y-98300000D02*
X143400000Y-98300000D01*
D46*
X153875000Y-106800000D02*
X153875000Y-105999900D01*
X153875000Y-105999900D02*
X153875000Y-105199900D01*
X154099900Y-105999900D02*
X154600000Y-106500000D01*
X153875000Y-105999900D02*
X154099900Y-105999900D01*
X146272300Y-97597200D02*
X153875000Y-105199900D01*
X143752800Y-97597200D02*
X146272300Y-97597200D01*
X143050000Y-98300000D02*
X143752800Y-97597200D01*
X153000000Y-109275100D02*
X153875000Y-108400100D01*
X153000000Y-115451700D02*
X153000000Y-109275100D01*
D47*
X165239000Y-134535000D02*
X164724000Y-135148000D01*
X165318000Y-133818000D02*
X165239000Y-134535000D01*
X164782000Y-133369000D02*
X165318000Y-133818000D01*
D46*
X153000000Y-116454200D02*
X153000000Y-115451700D01*
X150323500Y-119130700D02*
X153000000Y-116454200D01*
X145985000Y-119130700D02*
X150323500Y-119130700D01*
D47*
X82700000Y-114300000D02*
X83400000Y-114300000D01*
X83800000Y-114900000D02*
X83800000Y-115700000D01*
X83400000Y-114300000D02*
X83800000Y-114900000D01*
D46*
X103050000Y-114300000D02*
X103314700Y-114035300D01*
X123263800Y-114672800D02*
X123263900Y-114672800D01*
X123186500Y-114595500D02*
X123263800Y-114672800D01*
X123186500Y-114491500D02*
X123186500Y-114595500D01*
X122285000Y-113590000D02*
X123186500Y-114491500D01*
X103760000Y-113590000D02*
X122285000Y-113590000D01*
X103314700Y-114035300D02*
X103760000Y-113590000D01*
X63050000Y-104300000D02*
X63050000Y-103703300D01*
X54851900Y-102848100D02*
X43400000Y-114300000D01*
X62194800Y-102848100D02*
X54851900Y-102848100D01*
X63050000Y-103703300D02*
X62194800Y-102848100D01*
X81483800Y-112149400D02*
X83517200Y-114182800D01*
X74067800Y-112149400D02*
X81483800Y-112149400D01*
X65466500Y-103548100D02*
X74067800Y-112149400D01*
X63205200Y-103548100D02*
X65466500Y-103548100D01*
X63050000Y-103703300D02*
X63205200Y-103548100D01*
X84854700Y-112845300D02*
X83517200Y-114182800D01*
X102124700Y-112845300D02*
X84854700Y-112845300D01*
X103314700Y-114035300D02*
X102124700Y-112845300D01*
X83517200Y-114182800D02*
X83400000Y-114300000D01*
D47*
X103800000Y-88900000D02*
X103800000Y-89700000D01*
X103400000Y-88300000D02*
X103800000Y-88900000D01*
X102700000Y-88300000D02*
X103400000Y-88300000D01*
X83800000Y-92900000D02*
X83800000Y-93700000D01*
X83400000Y-92300000D02*
X83800000Y-92900000D01*
X82700000Y-92300000D02*
X83400000Y-92300000D01*
X102700000Y-50300000D02*
X103348700Y-50300000D01*
X103800000Y-50900000D02*
X103800000Y-51700000D01*
X103400000Y-50300000D02*
X103800000Y-50900000D01*
X103348700Y-50300000D02*
X103400000Y-50300000D01*
X82700000Y-54300000D02*
X83400000Y-54300000D01*
X83800000Y-54900000D02*
X83800000Y-55700000D01*
X83400000Y-54300000D02*
X83800000Y-54900000D01*
D46*
X104476200Y-49172500D02*
X103489700Y-50159000D01*
X110102600Y-49172500D02*
X104476200Y-49172500D01*
X110875000Y-48400100D02*
X110102600Y-49172500D01*
X103489700Y-50159000D02*
X103348700Y-50300000D01*
X143345700Y-60065500D02*
X143345700Y-60300000D01*
X141678500Y-58398300D02*
X143345700Y-60065500D01*
X130694400Y-58398300D02*
X141678500Y-58398300D01*
X125894500Y-53598400D02*
X130694400Y-58398300D01*
X124101600Y-53598400D02*
X125894500Y-53598400D01*
X123400000Y-54300000D02*
X124101600Y-53598400D01*
D47*
X82700000Y-73300000D02*
X83400000Y-73300000D01*
X83800000Y-73900000D02*
X83800000Y-74700000D01*
X83400000Y-73300000D02*
X83800000Y-73900000D01*
D46*
X88850200Y-67849800D02*
X83400000Y-73300000D01*
X102146700Y-67849800D02*
X88850200Y-67849800D01*
X103323500Y-69026500D02*
X102146700Y-67849800D01*
X103050000Y-69300000D02*
X103323500Y-69026500D01*
X122700000Y-72352900D02*
X122700000Y-73300000D01*
X122164900Y-71817800D02*
X122700000Y-72352900D01*
X109691000Y-71817800D02*
X122164900Y-71817800D01*
X106423300Y-68550100D02*
X109691000Y-71817800D01*
X103799900Y-68550100D02*
X106423300Y-68550100D01*
X103323500Y-69026500D02*
X103799900Y-68550100D01*
X102164200Y-48833600D02*
X103489700Y-50159000D01*
X96863400Y-48833600D02*
X102164200Y-48833600D01*
X96518100Y-49178900D02*
X96863400Y-48833600D01*
X94175900Y-49178900D02*
X96518100Y-49178900D01*
X89981300Y-53373500D02*
X94175900Y-49178900D01*
X84326500Y-53373500D02*
X89981300Y-53373500D01*
X83400000Y-54300000D02*
X84326500Y-53373500D01*
%TO.N,RST*%
X171250000Y-93375000D02*
X171250000Y-95688900D01*
X171250000Y-95688900D02*
X171250000Y-98625000D01*
D47*
%TO.N,GND*%
X37300000Y-115700000D02*
X36200000Y-115700000D01*
X37300000Y-77700000D02*
X36200000Y-77700000D01*
X37300000Y-58700000D02*
X36200000Y-58700000D01*
X57300000Y-105700000D02*
X56200000Y-105700000D01*
X57300000Y-86700000D02*
X56200000Y-86700000D01*
X57300000Y-67700000D02*
X56200000Y-67700000D01*
X57300000Y-48700000D02*
X56200000Y-48700000D01*
X77300000Y-93700000D02*
X76200000Y-93700000D01*
X77300000Y-74700000D02*
X76200000Y-74700000D01*
X77300000Y-55700000D02*
X76200000Y-55700000D01*
X77300000Y-36700000D02*
X76200000Y-36700000D01*
X97300000Y-89700000D02*
X96200000Y-89700000D01*
X97300000Y-70700000D02*
X96200000Y-70700000D01*
X97300000Y-51700000D02*
X96200000Y-51700000D01*
X97300000Y-32700000D02*
X96200000Y-32700000D01*
X117300000Y-93700000D02*
X116200000Y-93700000D01*
X117300000Y-55700000D02*
X116200000Y-55700000D01*
X117300000Y-36700000D02*
X116200000Y-36700000D01*
X137300000Y-99700000D02*
X136200000Y-99700000D01*
X137300000Y-80700000D02*
X136200000Y-80700000D01*
X137300000Y-61700000D02*
X136200000Y-61700000D01*
X137300000Y-42700000D02*
X136200000Y-42700000D01*
X77300000Y-115700000D02*
X76200000Y-115700000D01*
X97300000Y-115700000D02*
X96200000Y-115700000D01*
X139774000Y-120522000D02*
X139515500Y-120428000D01*
D46*
X139679600Y-120428000D02*
X139773900Y-120522300D01*
X139515500Y-120428000D02*
X139679600Y-120428000D01*
X151825000Y-111500000D02*
X152125000Y-111200000D01*
X151400000Y-111500000D02*
X151825000Y-111500000D01*
X68400000Y-87500000D02*
X68400000Y-88150000D01*
X68400000Y-88150000D02*
X68400000Y-88800100D01*
X69125000Y-87425000D02*
X69125000Y-87200000D01*
X68400000Y-88150000D02*
X69125000Y-87425000D01*
X57300000Y-105700000D02*
X57300000Y-106500100D01*
X108400000Y-51500000D02*
X108400000Y-50849900D01*
X108774900Y-50849900D02*
X109125000Y-51200000D01*
X108400000Y-50849900D02*
X108774900Y-50849900D01*
X117685100Y-116481000D02*
X117685000Y-116481000D01*
X52146600Y-71753400D02*
X49863700Y-71753400D01*
X56200000Y-67700000D02*
X52146600Y-71753400D01*
D47*
X117685000Y-116481000D02*
X117137000Y-116433000D01*
X117137000Y-116433000D02*
X116589000Y-116385000D01*
D46*
X151400000Y-81500000D02*
X151825000Y-81500000D01*
X151825000Y-81500000D02*
X152125000Y-81200000D01*
D47*
X139515500Y-120428000D02*
X138740000Y-120146000D01*
D46*
X137634000Y-121252000D02*
X138740000Y-120146000D01*
X131773600Y-121252000D02*
X137634000Y-121252000D01*
X129932000Y-123093600D02*
X131773600Y-121252000D01*
X122309600Y-123093600D02*
X129932000Y-123093600D01*
X121325500Y-124077700D02*
X122309600Y-123093600D01*
X118712800Y-124077700D02*
X121325500Y-124077700D01*
X116742400Y-122107300D02*
X118712800Y-124077700D01*
X116742400Y-119872800D02*
X116742400Y-122107300D01*
X115219800Y-118350200D02*
X116742400Y-119872800D01*
X117137000Y-116433000D02*
X115219800Y-118350200D01*
X96200000Y-120530300D02*
X96200000Y-115700000D01*
X98751400Y-123081700D02*
X96200000Y-120530300D01*
X102150500Y-123081700D02*
X98751400Y-123081700D01*
X103664400Y-121567800D02*
X102150500Y-123081700D01*
X107926900Y-121567800D02*
X103664400Y-121567800D01*
X111144500Y-118350200D02*
X107926900Y-121567800D01*
X115219800Y-118350200D02*
X111144500Y-118350200D01*
X151400000Y-111500000D02*
X151400000Y-112800100D01*
X151400000Y-112800100D02*
X150075800Y-112800100D01*
X160839800Y-87580200D02*
X163040000Y-85380000D01*
X154641200Y-87580200D02*
X160839800Y-87580200D01*
X151825000Y-84764000D02*
X154641200Y-87580200D01*
X151825000Y-81500000D02*
X151825000Y-84764000D01*
X167080000Y-41570000D02*
X154380000Y-41570000D01*
X169620000Y-44110000D02*
X167080000Y-41570000D01*
X172950000Y-93375000D02*
X172950000Y-98625000D01*
D47*
X37300000Y-96700000D02*
X36200000Y-96700000D01*
D46*
X56646100Y-111568000D02*
X56941900Y-111272200D01*
X51794200Y-111568000D02*
X56646100Y-111568000D01*
X43846100Y-119516100D02*
X51794200Y-111568000D01*
X43846100Y-120487700D02*
X43846100Y-119516100D01*
X41234400Y-123099400D02*
X43846100Y-120487700D01*
X38782300Y-123099400D02*
X41234400Y-123099400D01*
X36200000Y-120517100D02*
X38782300Y-123099400D01*
X36200000Y-115700000D02*
X36200000Y-120517100D01*
X58751400Y-113081700D02*
X56941900Y-111272200D01*
X62150500Y-113081700D02*
X58751400Y-113081700D01*
X63580900Y-111651300D02*
X62150500Y-113081700D01*
X69985500Y-111651300D02*
X63580900Y-111651300D01*
X74467400Y-116133200D02*
X69985500Y-111651300D01*
X75766800Y-116133200D02*
X74467400Y-116133200D01*
X76200000Y-115700000D02*
X75766800Y-116133200D01*
X56941900Y-106858200D02*
X57300000Y-106500100D01*
X56941900Y-111272200D02*
X56941900Y-106858200D01*
X68240800Y-92566600D02*
X68008300Y-92334000D01*
X68400000Y-91942300D02*
X68400000Y-88800100D01*
X68008300Y-92334000D02*
X68400000Y-91942300D01*
X37300000Y-96700000D02*
X37300000Y-97500100D01*
X56200000Y-92600000D02*
X56200000Y-86700000D01*
X57269700Y-92600000D02*
X56200000Y-92600000D01*
X58722900Y-94053200D02*
X57269700Y-92600000D01*
X62179000Y-94053200D02*
X58722900Y-94053200D01*
X63723200Y-92509000D02*
X62179000Y-94053200D01*
X67833300Y-92509000D02*
X63723200Y-92509000D01*
X68008300Y-92334000D02*
X67833300Y-92509000D01*
X170800000Y-79300000D02*
X170800000Y-80400100D01*
X172566900Y-92299900D02*
X172950000Y-92299900D01*
X166959300Y-86692300D02*
X172566900Y-92299900D01*
X164352300Y-86692300D02*
X166959300Y-86692300D01*
X163040000Y-85380000D02*
X164352300Y-86692300D01*
X170800000Y-82851600D02*
X170800000Y-80400100D01*
X166959300Y-86692300D02*
X170800000Y-82851600D01*
X172950000Y-93375000D02*
X172950000Y-92299900D01*
D47*
X159745000Y-130970000D02*
X159323500Y-130616500D01*
X159323500Y-130616500D02*
X158902000Y-130263000D01*
D46*
X159391600Y-130616500D02*
X159745000Y-130969900D01*
X159323500Y-130616500D02*
X159391600Y-130616500D01*
X67284100Y-51916000D02*
X67284100Y-53014300D01*
X68400000Y-50800100D02*
X67284100Y-51916000D01*
X68400000Y-49500000D02*
X68400000Y-50800100D01*
X69111800Y-63212300D02*
X74483800Y-57840300D01*
X69111800Y-63353700D02*
X69111800Y-63212300D01*
X74483700Y-57840300D02*
X74483800Y-57840300D01*
X74483700Y-57416300D02*
X74483700Y-57840300D01*
X76200000Y-55700000D02*
X74483700Y-57416300D01*
D47*
X117300000Y-74700000D02*
X116337500Y-74700000D01*
X116337500Y-74700000D02*
X116200000Y-74700000D01*
D46*
X108825000Y-89500000D02*
X109125000Y-89200000D01*
X108400000Y-89500000D02*
X108825000Y-89500000D01*
X108400000Y-89500000D02*
X108400000Y-90800100D01*
X107049000Y-95680100D02*
X107799000Y-94930100D01*
X103201900Y-95680100D02*
X107049000Y-95680100D01*
X101801900Y-97080100D02*
X103201900Y-95680100D01*
X98715200Y-97080100D02*
X101801900Y-97080100D01*
X96200000Y-94564900D02*
X98715200Y-97080100D01*
X96200000Y-89700000D02*
X96200000Y-94564900D01*
X108400000Y-94137500D02*
X108400000Y-90800100D01*
X107799000Y-94738500D02*
X108400000Y-94137500D01*
X107799000Y-94930100D02*
X107799000Y-94738500D01*
X135762400Y-100137600D02*
X136200000Y-99700000D01*
X131038000Y-100137600D02*
X135762400Y-100137600D01*
X130580500Y-99680100D02*
X131038000Y-100137600D01*
X123201900Y-99680100D02*
X130580500Y-99680100D01*
X121801900Y-101080100D02*
X123201900Y-99680100D01*
X118761400Y-101080100D02*
X121801900Y-101080100D01*
X116333500Y-98652200D02*
X118761400Y-101080100D01*
X116333500Y-94708500D02*
X116333500Y-98652200D01*
X115762500Y-94137500D02*
X116333500Y-94708500D01*
X108400000Y-94137500D02*
X115762500Y-94137500D01*
X115762500Y-94137500D02*
X116200000Y-93700000D01*
X96200000Y-75530300D02*
X96200000Y-70700000D01*
X98722500Y-78052800D02*
X96200000Y-75530300D01*
X101314400Y-78052800D02*
X98722500Y-78052800D01*
X103846100Y-75521100D02*
X101314400Y-78052800D01*
X103846100Y-74463400D02*
X103846100Y-75521100D01*
X104850000Y-73459500D02*
X103846100Y-74463400D01*
X106783600Y-73459500D02*
X104850000Y-73459500D01*
X108468400Y-75144300D02*
X106783600Y-73459500D01*
X116015400Y-75144300D02*
X108468400Y-75144300D01*
X116015400Y-75022100D02*
X116015400Y-75144300D01*
X116337500Y-74700000D02*
X116015400Y-75022100D01*
X135762400Y-81137600D02*
X136200000Y-80700000D01*
X131038000Y-81137600D02*
X135762400Y-81137600D01*
X130580500Y-80680100D02*
X131038000Y-81137600D01*
X123201900Y-80680100D02*
X130580500Y-80680100D01*
X121801900Y-82080100D02*
X123201900Y-80680100D01*
X118715200Y-82080100D02*
X121801900Y-82080100D01*
X116015400Y-79380300D02*
X118715200Y-82080100D01*
X116015400Y-75144300D02*
X116015400Y-79380300D01*
X108400000Y-51500000D02*
X108400000Y-52800100D01*
X106562100Y-52800100D02*
X108400000Y-52800100D01*
X103846100Y-55516100D02*
X106562100Y-52800100D01*
X103846100Y-56527100D02*
X103846100Y-55516100D01*
X101302100Y-59071100D02*
X103846100Y-56527100D01*
X98355900Y-59071100D02*
X101302100Y-59071100D01*
X96200000Y-56915200D02*
X98355900Y-59071100D01*
X96200000Y-51700000D02*
X96200000Y-56915200D01*
X76154000Y-59510600D02*
X74483800Y-57840300D01*
X76154000Y-60487900D02*
X76154000Y-59510600D01*
X78746200Y-63080100D02*
X76154000Y-60487900D01*
X81319700Y-63080100D02*
X78746200Y-63080100D01*
X83401900Y-60997900D02*
X81319700Y-63080100D01*
X83401900Y-59937000D02*
X83401900Y-60997900D01*
X85738900Y-57600000D02*
X83401900Y-59937000D01*
X95515200Y-57600000D02*
X85738900Y-57600000D01*
X96200000Y-56915200D02*
X95515200Y-57600000D01*
X116154100Y-56688300D02*
X115682900Y-56217100D01*
X116154100Y-60484400D02*
X116154100Y-56688300D01*
X118751400Y-63081700D02*
X116154100Y-60484400D01*
X122150500Y-63081700D02*
X118751400Y-63081700D01*
X123539500Y-61692700D02*
X122150500Y-63081700D01*
X133518000Y-61692700D02*
X123539500Y-61692700D01*
X133925500Y-62100200D02*
X133518000Y-61692700D01*
X135799800Y-62100200D02*
X133925500Y-62100200D01*
X136200000Y-61700000D02*
X135799800Y-62100200D01*
X116200000Y-55700000D02*
X115682900Y-56217100D01*
X108400000Y-53710700D02*
X108400000Y-52800100D01*
X110906400Y-56217100D02*
X108400000Y-53710700D01*
X115682900Y-56217100D02*
X110906400Y-56217100D01*
X36925100Y-97875000D02*
X37300000Y-97500100D01*
X36925100Y-102242300D02*
X36925100Y-97875000D01*
X38762800Y-104080000D02*
X36925100Y-102242300D01*
X41236100Y-104080000D02*
X38762800Y-104080000D01*
X43294000Y-102022100D02*
X41236100Y-104080000D01*
X43294000Y-100507100D02*
X43294000Y-102022100D01*
X51201100Y-92600000D02*
X43294000Y-100507100D01*
X56200000Y-92600000D02*
X51201100Y-92600000D01*
X68700000Y-49200000D02*
X68400000Y-49500000D01*
X69125000Y-49200000D02*
X68700000Y-49200000D01*
X69125000Y-49200000D02*
X69125000Y-47599900D01*
X55793600Y-49106400D02*
X56200000Y-48700000D01*
X54394800Y-49106400D02*
X55793600Y-49106400D01*
X53716900Y-48428500D02*
X54394800Y-49106400D01*
X53716900Y-47310500D02*
X53716900Y-48428500D01*
X58303400Y-42724000D02*
X53716900Y-47310500D01*
X72510600Y-42724000D02*
X58303400Y-42724000D01*
X72510600Y-45616000D02*
X72510600Y-42724000D01*
X71576800Y-46549800D02*
X72510600Y-45616000D01*
X70175100Y-46549800D02*
X71576800Y-46549800D01*
X69125000Y-47599900D02*
X70175100Y-46549800D01*
X72510600Y-40389400D02*
X76200000Y-36700000D01*
X72510600Y-42724000D02*
X72510600Y-40389400D01*
%TO.N,RAW*%
X170665000Y-105250000D02*
X169614900Y-105250000D01*
X169614900Y-105780900D02*
X169614900Y-105250000D01*
X169488400Y-105907400D02*
X169614900Y-105780900D01*
%TD*%
M02*
