%TF.GenerationSoftware,KiCad,Pcbnew,8.0.4*%
%TF.CreationDate,2024-11-02T00:03:45-06:00*%
%TF.ProjectId,boost58,626f6f73-7435-4382-9e6b-696361645f70,0.1*%
%TF.SameCoordinates,Original*%
%TF.FileFunction,Copper,L2,Bot*%
%TF.FilePolarity,Positive*%
%FSLAX46Y46*%
G04 Gerber Fmt 4.6, Leading zero omitted, Abs format (unit mm)*
G04 Created by KiCad (PCBNEW 8.0.4) date 2024-11-02 00:03:45*
%MOMM*%
%LPD*%
G01*
G04 APERTURE LIST*
G04 Aperture macros list*
%AMRoundRect*
0 Rectangle with rounded corners*
0 $1 Rounding radius*
0 $2 $3 $4 $5 $6 $7 $8 $9 X,Y pos of 4 corners*
0 Add a 4 corners polygon primitive as box body*
4,1,4,$2,$3,$4,$5,$6,$7,$8,$9,$2,$3,0*
0 Add four circle primitives for the rounded corners*
1,1,$1+$1,$2,$3*
1,1,$1+$1,$4,$5*
1,1,$1+$1,$6,$7*
1,1,$1+$1,$8,$9*
0 Add four rect primitives between the rounded corners*
20,1,$1+$1,$2,$3,$4,$5,0*
20,1,$1+$1,$4,$5,$6,$7,0*
20,1,$1+$1,$6,$7,$8,$9,0*
20,1,$1+$1,$8,$9,$2,$3,0*%
%AMRotRect*
0 Rectangle, with rotation*
0 The origin of the aperture is its center*
0 $1 length*
0 $2 width*
0 $3 Rotation angle, in degrees counterclockwise*
0 Add horizontal line*
21,1,$1,$2,0,0,$3*%
%AMFreePoly0*
4,1,5,0.125000,-0.500000,-0.125000,-0.500000,-0.125000,0.500000,0.125000,0.500000,0.125000,-0.500000,0.125000,-0.500000,$1*%
%AMFreePoly1*
4,1,6,0.600000,0.200000,0.000000,-0.400000,-0.600000,0.200000,-0.600000,0.400000,0.600000,0.400000,0.600000,0.200000,0.600000,0.200000,$1*%
%AMFreePoly2*
4,1,51,0.008964,0.122598,0.024387,0.122598,0.052641,0.110894,0.062500,0.108253,0.064961,0.105791,0.069447,0.103934,0.103934,0.069447,0.105791,0.064961,0.108253,0.062500,0.110894,0.052643,0.122598,0.024387,0.122598,0.008964,0.125000,0.000000,0.122598,-0.008964,0.122598,-0.024386,0.110896,-0.052633,0.108253,-0.062500,0.105790,-0.064962,0.103934,-0.069446,0.088389,-0.088388,
-0.641000,-0.817776,-0.641000,-4.770223,0.088389,-5.499612,0.103934,-5.518554,0.122598,-5.563614,0.122598,-5.612387,0.103934,-5.657447,0.069447,-5.691934,0.024387,-5.710598,-0.024386,-5.710598,-0.069446,-5.691934,-0.088388,-5.676389,-0.854388,-4.910388,-0.869928,-4.891451,-0.869934,-4.891446,-0.888598,-4.846386,-0.891000,-4.822000,-0.891000,-0.766000,-0.888598,-0.741614,-0.869934,-0.696554,
-0.869928,-0.696548,-0.854388,-0.677612,-0.088388,0.088389,-0.069446,0.103934,-0.064962,0.105790,-0.062500,0.108253,-0.052633,0.110896,-0.024386,0.122598,-0.008964,0.122598,0.000000,0.125000,0.008964,0.122598,0.008964,0.122598,$1*%
%AMFreePoly3*
4,1,6,0.600000,-0.250000,-0.600000,-0.250000,-0.600000,1.000000,0.000000,0.400000,0.600000,1.000000,0.600000,-0.250000,0.600000,-0.250000,$1*%
G04 Aperture macros list end*
%ADD10C,0.100000*%
%ADD11C,0.150000*%
%ADD12C,0.300000*%
%ADD13C,0.400000*%
%TA.AperFunction,SMDPad,CuDef*%
%ADD14R,1.000000X2.600000*%
%TD*%
%TA.AperFunction,SMDPad,CuDef*%
%ADD15R,1.200000X2.000000*%
%TD*%
%TA.AperFunction,ComponentPad*%
%ADD16R,2.000000X3.200000*%
%TD*%
%TA.AperFunction,ComponentPad*%
%ADD17C,1.500000*%
%TD*%
%TA.AperFunction,ComponentPad*%
%ADD18R,2.000000X2.000000*%
%TD*%
%TA.AperFunction,ComponentPad*%
%ADD19C,2.000000*%
%TD*%
%TA.AperFunction,SMDPad,CuDef*%
%ADD20R,1.000000X1.550000*%
%TD*%
%TA.AperFunction,ComponentPad*%
%ADD21O,2.200000X1.600000*%
%TD*%
%TA.AperFunction,ComponentPad*%
%ADD22C,1.600000*%
%TD*%
%TA.AperFunction,ComponentPad*%
%ADD23R,1.600000X1.600000*%
%TD*%
%TA.AperFunction,SMDPad,CuDef*%
%ADD24FreePoly0,270.000000*%
%TD*%
%TA.AperFunction,SMDPad,CuDef*%
%ADD25FreePoly1,270.000000*%
%TD*%
%TA.AperFunction,SMDPad,CuDef*%
%ADD26FreePoly1,90.000000*%
%TD*%
%TA.AperFunction,SMDPad,CuDef*%
%ADD27FreePoly0,90.000000*%
%TD*%
%TA.AperFunction,SMDPad,CuDef*%
%ADD28FreePoly2,270.000000*%
%TD*%
%TA.AperFunction,ComponentPad*%
%ADD29C,0.800000*%
%TD*%
%TA.AperFunction,SMDPad,CuDef*%
%ADD30FreePoly3,90.000000*%
%TD*%
%TA.AperFunction,SMDPad,CuDef*%
%ADD31FreePoly3,270.000000*%
%TD*%
%TA.AperFunction,SMDPad,CuDef*%
%ADD32FreePoly2,90.000000*%
%TD*%
%TA.AperFunction,ComponentPad*%
%ADD33C,2.200000*%
%TD*%
%TA.AperFunction,ComponentPad*%
%ADD34C,1.900000*%
%TD*%
%TA.AperFunction,ComponentPad*%
%ADD35C,3.300000*%
%TD*%
%TA.AperFunction,ComponentPad*%
%ADD36C,5.300000*%
%TD*%
%TA.AperFunction,SMDPad,CuDef*%
%ADD37RoundRect,0.215000X1.110000X0.860000X-1.110000X0.860000X-1.110000X-0.860000X1.110000X-0.860000X0*%
%TD*%
%TA.AperFunction,SMDPad,CuDef*%
%ADD38RoundRect,0.215000X1.685000X0.860000X-1.685000X0.860000X-1.685000X-0.860000X1.685000X-0.860000X0*%
%TD*%
%TA.AperFunction,SMDPad,CuDef*%
%ADD39RotRect,0.900000X1.200000X230.000000*%
%TD*%
%TA.AperFunction,SMDPad,CuDef*%
%ADD40R,1.400000X1.000000*%
%TD*%
%TA.AperFunction,SMDPad,CuDef*%
%ADD41R,1.200000X0.900000*%
%TD*%
%TA.AperFunction,SMDPad,CuDef*%
%ADD42RotRect,0.900000X1.200000X265.000000*%
%TD*%
%TA.AperFunction,SMDPad,CuDef*%
%ADD43RotRect,1.400000X1.000000X320.000000*%
%TD*%
%TA.AperFunction,SMDPad,CuDef*%
%ADD44RoundRect,0.215000X1.403107X-0.054696X-0.297512X1.372292X-1.403107X0.054696X0.297512X-1.372292X0*%
%TD*%
%TA.AperFunction,SMDPad,CuDef*%
%ADD45RoundRect,0.215000X1.843582X-0.424299X-0.737988X1.741895X-1.843582X0.424299X0.737988X-1.741895X0*%
%TD*%
%TA.AperFunction,SMDPad,CuDef*%
%ADD46RotRect,1.400000X1.000000X355.000000*%
%TD*%
%TA.AperFunction,SMDPad,CuDef*%
%ADD47RotRect,1.400000X1.000000X340.000000*%
%TD*%
%TA.AperFunction,SMDPad,CuDef*%
%ADD48RoundRect,0.215000X1.337196X0.428493X-0.748921X1.187778X-1.337196X-0.428493X0.748921X-1.187778X0*%
%TD*%
%TA.AperFunction,SMDPad,CuDef*%
%ADD49RoundRect,0.215000X1.877519X0.231832X-1.289245X1.384440X-1.877519X-0.231832X1.289245X-1.384440X0*%
%TD*%
%TA.AperFunction,SMDPad,CuDef*%
%ADD50RotRect,0.900000X1.200000X250.000000*%
%TD*%
%TA.AperFunction,SMDPad,CuDef*%
%ADD51RoundRect,0.215000X1.180730X0.759985X-1.030822X0.953470X-1.180730X-0.759985X1.030822X-0.953470X0*%
%TD*%
%TA.AperFunction,SMDPad,CuDef*%
%ADD52RoundRect,0.215000X1.753542X0.709870X-1.603634X1.003585X-1.753542X-0.709870X1.603634X-1.003585X0*%
%TD*%
%TA.AperFunction,ViaPad*%
%ADD53C,0.600000*%
%TD*%
%TA.AperFunction,Conductor*%
%ADD54C,0.200000*%
%TD*%
G04 APERTURE END LIST*
D10*
D11*
X299989000Y-253002200D02*
X407989000Y-253002200D01*
X407989000Y-285002200D01*
X299989000Y-285002200D01*
X299989000Y-253002200D01*
D10*
D11*
X10000000Y-10000000D02*
X409989000Y-10000000D01*
X409989000Y-287002200D01*
X10000000Y-287002200D01*
X10000000Y-10000000D01*
D10*
D11*
X12000000Y-12000000D02*
X407989000Y-12000000D01*
X407989000Y-285002200D01*
X12000000Y-285002200D01*
X12000000Y-12000000D01*
D10*
D11*
X60000000Y-12000000D02*
X60000000Y-10000000D01*
D10*
D11*
X110000000Y-12000000D02*
X110000000Y-10000000D01*
D10*
D11*
X160000000Y-12000000D02*
X160000000Y-10000000D01*
D10*
D11*
X210000000Y-12000000D02*
X210000000Y-10000000D01*
D10*
D11*
X260000000Y-12000000D02*
X260000000Y-10000000D01*
D10*
D11*
X310000000Y-12000000D02*
X310000000Y-10000000D01*
D10*
D11*
X360000000Y-12000000D02*
X360000000Y-10000000D01*
D10*
D11*
X36089160Y-11593604D02*
X35346303Y-11593604D01*
X35717731Y-11593604D02*
X35717731Y-10293604D01*
X35717731Y-10293604D02*
X35593922Y-10479319D01*
X35593922Y-10479319D02*
X35470112Y-10603128D01*
X35470112Y-10603128D02*
X35346303Y-10665033D01*
D10*
D11*
X85346303Y-10417414D02*
X85408207Y-10355509D01*
X85408207Y-10355509D02*
X85532017Y-10293604D01*
X85532017Y-10293604D02*
X85841541Y-10293604D01*
X85841541Y-10293604D02*
X85965350Y-10355509D01*
X85965350Y-10355509D02*
X86027255Y-10417414D01*
X86027255Y-10417414D02*
X86089160Y-10541223D01*
X86089160Y-10541223D02*
X86089160Y-10665033D01*
X86089160Y-10665033D02*
X86027255Y-10850747D01*
X86027255Y-10850747D02*
X85284398Y-11593604D01*
X85284398Y-11593604D02*
X86089160Y-11593604D01*
D10*
D11*
X135284398Y-10293604D02*
X136089160Y-10293604D01*
X136089160Y-10293604D02*
X135655826Y-10788842D01*
X135655826Y-10788842D02*
X135841541Y-10788842D01*
X135841541Y-10788842D02*
X135965350Y-10850747D01*
X135965350Y-10850747D02*
X136027255Y-10912652D01*
X136027255Y-10912652D02*
X136089160Y-11036461D01*
X136089160Y-11036461D02*
X136089160Y-11345985D01*
X136089160Y-11345985D02*
X136027255Y-11469795D01*
X136027255Y-11469795D02*
X135965350Y-11531700D01*
X135965350Y-11531700D02*
X135841541Y-11593604D01*
X135841541Y-11593604D02*
X135470112Y-11593604D01*
X135470112Y-11593604D02*
X135346303Y-11531700D01*
X135346303Y-11531700D02*
X135284398Y-11469795D01*
D10*
D11*
X185965350Y-10726938D02*
X185965350Y-11593604D01*
X185655826Y-10231700D02*
X185346303Y-11160271D01*
X185346303Y-11160271D02*
X186151064Y-11160271D01*
D10*
D11*
X236027255Y-10293604D02*
X235408207Y-10293604D01*
X235408207Y-10293604D02*
X235346303Y-10912652D01*
X235346303Y-10912652D02*
X235408207Y-10850747D01*
X235408207Y-10850747D02*
X235532017Y-10788842D01*
X235532017Y-10788842D02*
X235841541Y-10788842D01*
X235841541Y-10788842D02*
X235965350Y-10850747D01*
X235965350Y-10850747D02*
X236027255Y-10912652D01*
X236027255Y-10912652D02*
X236089160Y-11036461D01*
X236089160Y-11036461D02*
X236089160Y-11345985D01*
X236089160Y-11345985D02*
X236027255Y-11469795D01*
X236027255Y-11469795D02*
X235965350Y-11531700D01*
X235965350Y-11531700D02*
X235841541Y-11593604D01*
X235841541Y-11593604D02*
X235532017Y-11593604D01*
X235532017Y-11593604D02*
X235408207Y-11531700D01*
X235408207Y-11531700D02*
X235346303Y-11469795D01*
D10*
D11*
X285965350Y-10293604D02*
X285717731Y-10293604D01*
X285717731Y-10293604D02*
X285593922Y-10355509D01*
X285593922Y-10355509D02*
X285532017Y-10417414D01*
X285532017Y-10417414D02*
X285408207Y-10603128D01*
X285408207Y-10603128D02*
X285346303Y-10850747D01*
X285346303Y-10850747D02*
X285346303Y-11345985D01*
X285346303Y-11345985D02*
X285408207Y-11469795D01*
X285408207Y-11469795D02*
X285470112Y-11531700D01*
X285470112Y-11531700D02*
X285593922Y-11593604D01*
X285593922Y-11593604D02*
X285841541Y-11593604D01*
X285841541Y-11593604D02*
X285965350Y-11531700D01*
X285965350Y-11531700D02*
X286027255Y-11469795D01*
X286027255Y-11469795D02*
X286089160Y-11345985D01*
X286089160Y-11345985D02*
X286089160Y-11036461D01*
X286089160Y-11036461D02*
X286027255Y-10912652D01*
X286027255Y-10912652D02*
X285965350Y-10850747D01*
X285965350Y-10850747D02*
X285841541Y-10788842D01*
X285841541Y-10788842D02*
X285593922Y-10788842D01*
X285593922Y-10788842D02*
X285470112Y-10850747D01*
X285470112Y-10850747D02*
X285408207Y-10912652D01*
X285408207Y-10912652D02*
X285346303Y-11036461D01*
D10*
D11*
X335284398Y-10293604D02*
X336151064Y-10293604D01*
X336151064Y-10293604D02*
X335593922Y-11593604D01*
D10*
D11*
X385593922Y-10850747D02*
X385470112Y-10788842D01*
X385470112Y-10788842D02*
X385408207Y-10726938D01*
X385408207Y-10726938D02*
X385346303Y-10603128D01*
X385346303Y-10603128D02*
X385346303Y-10541223D01*
X385346303Y-10541223D02*
X385408207Y-10417414D01*
X385408207Y-10417414D02*
X385470112Y-10355509D01*
X385470112Y-10355509D02*
X385593922Y-10293604D01*
X385593922Y-10293604D02*
X385841541Y-10293604D01*
X385841541Y-10293604D02*
X385965350Y-10355509D01*
X385965350Y-10355509D02*
X386027255Y-10417414D01*
X386027255Y-10417414D02*
X386089160Y-10541223D01*
X386089160Y-10541223D02*
X386089160Y-10603128D01*
X386089160Y-10603128D02*
X386027255Y-10726938D01*
X386027255Y-10726938D02*
X385965350Y-10788842D01*
X385965350Y-10788842D02*
X385841541Y-10850747D01*
X385841541Y-10850747D02*
X385593922Y-10850747D01*
X385593922Y-10850747D02*
X385470112Y-10912652D01*
X385470112Y-10912652D02*
X385408207Y-10974557D01*
X385408207Y-10974557D02*
X385346303Y-11098366D01*
X385346303Y-11098366D02*
X385346303Y-11345985D01*
X385346303Y-11345985D02*
X385408207Y-11469795D01*
X385408207Y-11469795D02*
X385470112Y-11531700D01*
X385470112Y-11531700D02*
X385593922Y-11593604D01*
X385593922Y-11593604D02*
X385841541Y-11593604D01*
X385841541Y-11593604D02*
X385965350Y-11531700D01*
X385965350Y-11531700D02*
X386027255Y-11469795D01*
X386027255Y-11469795D02*
X386089160Y-11345985D01*
X386089160Y-11345985D02*
X386089160Y-11098366D01*
X386089160Y-11098366D02*
X386027255Y-10974557D01*
X386027255Y-10974557D02*
X385965350Y-10912652D01*
X385965350Y-10912652D02*
X385841541Y-10850747D01*
D10*
D11*
X60000000Y-285002200D02*
X60000000Y-287002200D01*
D10*
D11*
X110000000Y-285002200D02*
X110000000Y-287002200D01*
D10*
D11*
X160000000Y-285002200D02*
X160000000Y-287002200D01*
D10*
D11*
X210000000Y-285002200D02*
X210000000Y-287002200D01*
D10*
D11*
X260000000Y-285002200D02*
X260000000Y-287002200D01*
D10*
D11*
X310000000Y-285002200D02*
X310000000Y-287002200D01*
D10*
D11*
X360000000Y-285002200D02*
X360000000Y-287002200D01*
D10*
D11*
X36089160Y-286595804D02*
X35346303Y-286595804D01*
X35717731Y-286595804D02*
X35717731Y-285295804D01*
X35717731Y-285295804D02*
X35593922Y-285481519D01*
X35593922Y-285481519D02*
X35470112Y-285605328D01*
X35470112Y-285605328D02*
X35346303Y-285667233D01*
D10*
D11*
X85346303Y-285419614D02*
X85408207Y-285357709D01*
X85408207Y-285357709D02*
X85532017Y-285295804D01*
X85532017Y-285295804D02*
X85841541Y-285295804D01*
X85841541Y-285295804D02*
X85965350Y-285357709D01*
X85965350Y-285357709D02*
X86027255Y-285419614D01*
X86027255Y-285419614D02*
X86089160Y-285543423D01*
X86089160Y-285543423D02*
X86089160Y-285667233D01*
X86089160Y-285667233D02*
X86027255Y-285852947D01*
X86027255Y-285852947D02*
X85284398Y-286595804D01*
X85284398Y-286595804D02*
X86089160Y-286595804D01*
D10*
D11*
X135284398Y-285295804D02*
X136089160Y-285295804D01*
X136089160Y-285295804D02*
X135655826Y-285791042D01*
X135655826Y-285791042D02*
X135841541Y-285791042D01*
X135841541Y-285791042D02*
X135965350Y-285852947D01*
X135965350Y-285852947D02*
X136027255Y-285914852D01*
X136027255Y-285914852D02*
X136089160Y-286038661D01*
X136089160Y-286038661D02*
X136089160Y-286348185D01*
X136089160Y-286348185D02*
X136027255Y-286471995D01*
X136027255Y-286471995D02*
X135965350Y-286533900D01*
X135965350Y-286533900D02*
X135841541Y-286595804D01*
X135841541Y-286595804D02*
X135470112Y-286595804D01*
X135470112Y-286595804D02*
X135346303Y-286533900D01*
X135346303Y-286533900D02*
X135284398Y-286471995D01*
D10*
D11*
X185965350Y-285729138D02*
X185965350Y-286595804D01*
X185655826Y-285233900D02*
X185346303Y-286162471D01*
X185346303Y-286162471D02*
X186151064Y-286162471D01*
D10*
D11*
X236027255Y-285295804D02*
X235408207Y-285295804D01*
X235408207Y-285295804D02*
X235346303Y-285914852D01*
X235346303Y-285914852D02*
X235408207Y-285852947D01*
X235408207Y-285852947D02*
X235532017Y-285791042D01*
X235532017Y-285791042D02*
X235841541Y-285791042D01*
X235841541Y-285791042D02*
X235965350Y-285852947D01*
X235965350Y-285852947D02*
X236027255Y-285914852D01*
X236027255Y-285914852D02*
X236089160Y-286038661D01*
X236089160Y-286038661D02*
X236089160Y-286348185D01*
X236089160Y-286348185D02*
X236027255Y-286471995D01*
X236027255Y-286471995D02*
X235965350Y-286533900D01*
X235965350Y-286533900D02*
X235841541Y-286595804D01*
X235841541Y-286595804D02*
X235532017Y-286595804D01*
X235532017Y-286595804D02*
X235408207Y-286533900D01*
X235408207Y-286533900D02*
X235346303Y-286471995D01*
D10*
D11*
X285965350Y-285295804D02*
X285717731Y-285295804D01*
X285717731Y-285295804D02*
X285593922Y-285357709D01*
X285593922Y-285357709D02*
X285532017Y-285419614D01*
X285532017Y-285419614D02*
X285408207Y-285605328D01*
X285408207Y-285605328D02*
X285346303Y-285852947D01*
X285346303Y-285852947D02*
X285346303Y-286348185D01*
X285346303Y-286348185D02*
X285408207Y-286471995D01*
X285408207Y-286471995D02*
X285470112Y-286533900D01*
X285470112Y-286533900D02*
X285593922Y-286595804D01*
X285593922Y-286595804D02*
X285841541Y-286595804D01*
X285841541Y-286595804D02*
X285965350Y-286533900D01*
X285965350Y-286533900D02*
X286027255Y-286471995D01*
X286027255Y-286471995D02*
X286089160Y-286348185D01*
X286089160Y-286348185D02*
X286089160Y-286038661D01*
X286089160Y-286038661D02*
X286027255Y-285914852D01*
X286027255Y-285914852D02*
X285965350Y-285852947D01*
X285965350Y-285852947D02*
X285841541Y-285791042D01*
X285841541Y-285791042D02*
X285593922Y-285791042D01*
X285593922Y-285791042D02*
X285470112Y-285852947D01*
X285470112Y-285852947D02*
X285408207Y-285914852D01*
X285408207Y-285914852D02*
X285346303Y-286038661D01*
D10*
D11*
X335284398Y-285295804D02*
X336151064Y-285295804D01*
X336151064Y-285295804D02*
X335593922Y-286595804D01*
D10*
D11*
X385593922Y-285852947D02*
X385470112Y-285791042D01*
X385470112Y-285791042D02*
X385408207Y-285729138D01*
X385408207Y-285729138D02*
X385346303Y-285605328D01*
X385346303Y-285605328D02*
X385346303Y-285543423D01*
X385346303Y-285543423D02*
X385408207Y-285419614D01*
X385408207Y-285419614D02*
X385470112Y-285357709D01*
X385470112Y-285357709D02*
X385593922Y-285295804D01*
X385593922Y-285295804D02*
X385841541Y-285295804D01*
X385841541Y-285295804D02*
X385965350Y-285357709D01*
X385965350Y-285357709D02*
X386027255Y-285419614D01*
X386027255Y-285419614D02*
X386089160Y-285543423D01*
X386089160Y-285543423D02*
X386089160Y-285605328D01*
X386089160Y-285605328D02*
X386027255Y-285729138D01*
X386027255Y-285729138D02*
X385965350Y-285791042D01*
X385965350Y-285791042D02*
X385841541Y-285852947D01*
X385841541Y-285852947D02*
X385593922Y-285852947D01*
X385593922Y-285852947D02*
X385470112Y-285914852D01*
X385470112Y-285914852D02*
X385408207Y-285976757D01*
X385408207Y-285976757D02*
X385346303Y-286100566D01*
X385346303Y-286100566D02*
X385346303Y-286348185D01*
X385346303Y-286348185D02*
X385408207Y-286471995D01*
X385408207Y-286471995D02*
X385470112Y-286533900D01*
X385470112Y-286533900D02*
X385593922Y-286595804D01*
X385593922Y-286595804D02*
X385841541Y-286595804D01*
X385841541Y-286595804D02*
X385965350Y-286533900D01*
X385965350Y-286533900D02*
X386027255Y-286471995D01*
X386027255Y-286471995D02*
X386089160Y-286348185D01*
X386089160Y-286348185D02*
X386089160Y-286100566D01*
X386089160Y-286100566D02*
X386027255Y-285976757D01*
X386027255Y-285976757D02*
X385965350Y-285914852D01*
X385965350Y-285914852D02*
X385841541Y-285852947D01*
D10*
D11*
X10000000Y-60000000D02*
X12000000Y-60000000D01*
D10*
D11*
X10000000Y-110000000D02*
X12000000Y-110000000D01*
D10*
D11*
X10000000Y-160000000D02*
X12000000Y-160000000D01*
D10*
D11*
X10000000Y-210000000D02*
X12000000Y-210000000D01*
D10*
D11*
X10000000Y-260000000D02*
X12000000Y-260000000D01*
D10*
D11*
X10690476Y-35222176D02*
X11309523Y-35222176D01*
X10566666Y-35593604D02*
X10999999Y-34293604D01*
X10999999Y-34293604D02*
X11433333Y-35593604D01*
D10*
D11*
X11092857Y-84912652D02*
X11278571Y-84974557D01*
X11278571Y-84974557D02*
X11340476Y-85036461D01*
X11340476Y-85036461D02*
X11402380Y-85160271D01*
X11402380Y-85160271D02*
X11402380Y-85345985D01*
X11402380Y-85345985D02*
X11340476Y-85469795D01*
X11340476Y-85469795D02*
X11278571Y-85531700D01*
X11278571Y-85531700D02*
X11154761Y-85593604D01*
X11154761Y-85593604D02*
X10659523Y-85593604D01*
X10659523Y-85593604D02*
X10659523Y-84293604D01*
X10659523Y-84293604D02*
X11092857Y-84293604D01*
X11092857Y-84293604D02*
X11216666Y-84355509D01*
X11216666Y-84355509D02*
X11278571Y-84417414D01*
X11278571Y-84417414D02*
X11340476Y-84541223D01*
X11340476Y-84541223D02*
X11340476Y-84665033D01*
X11340476Y-84665033D02*
X11278571Y-84788842D01*
X11278571Y-84788842D02*
X11216666Y-84850747D01*
X11216666Y-84850747D02*
X11092857Y-84912652D01*
X11092857Y-84912652D02*
X10659523Y-84912652D01*
D10*
D11*
X11402380Y-135469795D02*
X11340476Y-135531700D01*
X11340476Y-135531700D02*
X11154761Y-135593604D01*
X11154761Y-135593604D02*
X11030952Y-135593604D01*
X11030952Y-135593604D02*
X10845238Y-135531700D01*
X10845238Y-135531700D02*
X10721428Y-135407890D01*
X10721428Y-135407890D02*
X10659523Y-135284080D01*
X10659523Y-135284080D02*
X10597619Y-135036461D01*
X10597619Y-135036461D02*
X10597619Y-134850747D01*
X10597619Y-134850747D02*
X10659523Y-134603128D01*
X10659523Y-134603128D02*
X10721428Y-134479319D01*
X10721428Y-134479319D02*
X10845238Y-134355509D01*
X10845238Y-134355509D02*
X11030952Y-134293604D01*
X11030952Y-134293604D02*
X11154761Y-134293604D01*
X11154761Y-134293604D02*
X11340476Y-134355509D01*
X11340476Y-134355509D02*
X11402380Y-134417414D01*
D10*
D11*
X10659523Y-185593604D02*
X10659523Y-184293604D01*
X10659523Y-184293604D02*
X10969047Y-184293604D01*
X10969047Y-184293604D02*
X11154761Y-184355509D01*
X11154761Y-184355509D02*
X11278571Y-184479319D01*
X11278571Y-184479319D02*
X11340476Y-184603128D01*
X11340476Y-184603128D02*
X11402380Y-184850747D01*
X11402380Y-184850747D02*
X11402380Y-185036461D01*
X11402380Y-185036461D02*
X11340476Y-185284080D01*
X11340476Y-185284080D02*
X11278571Y-185407890D01*
X11278571Y-185407890D02*
X11154761Y-185531700D01*
X11154761Y-185531700D02*
X10969047Y-185593604D01*
X10969047Y-185593604D02*
X10659523Y-185593604D01*
D10*
D11*
X10721428Y-234912652D02*
X11154762Y-234912652D01*
X11340476Y-235593604D02*
X10721428Y-235593604D01*
X10721428Y-235593604D02*
X10721428Y-234293604D01*
X10721428Y-234293604D02*
X11340476Y-234293604D01*
D10*
D11*
X11185714Y-284912652D02*
X10752380Y-284912652D01*
X10752380Y-285593604D02*
X10752380Y-284293604D01*
X10752380Y-284293604D02*
X11371428Y-284293604D01*
D10*
D11*
X409989000Y-60000000D02*
X407989000Y-60000000D01*
D10*
D11*
X409989000Y-110000000D02*
X407989000Y-110000000D01*
D10*
D11*
X409989000Y-160000000D02*
X407989000Y-160000000D01*
D10*
D11*
X409989000Y-210000000D02*
X407989000Y-210000000D01*
D10*
D11*
X409989000Y-260000000D02*
X407989000Y-260000000D01*
D10*
D11*
X408679476Y-35222176D02*
X409298523Y-35222176D01*
X408555666Y-35593604D02*
X408988999Y-34293604D01*
X408988999Y-34293604D02*
X409422333Y-35593604D01*
D10*
D11*
X409081857Y-84912652D02*
X409267571Y-84974557D01*
X409267571Y-84974557D02*
X409329476Y-85036461D01*
X409329476Y-85036461D02*
X409391380Y-85160271D01*
X409391380Y-85160271D02*
X409391380Y-85345985D01*
X409391380Y-85345985D02*
X409329476Y-85469795D01*
X409329476Y-85469795D02*
X409267571Y-85531700D01*
X409267571Y-85531700D02*
X409143761Y-85593604D01*
X409143761Y-85593604D02*
X408648523Y-85593604D01*
X408648523Y-85593604D02*
X408648523Y-84293604D01*
X408648523Y-84293604D02*
X409081857Y-84293604D01*
X409081857Y-84293604D02*
X409205666Y-84355509D01*
X409205666Y-84355509D02*
X409267571Y-84417414D01*
X409267571Y-84417414D02*
X409329476Y-84541223D01*
X409329476Y-84541223D02*
X409329476Y-84665033D01*
X409329476Y-84665033D02*
X409267571Y-84788842D01*
X409267571Y-84788842D02*
X409205666Y-84850747D01*
X409205666Y-84850747D02*
X409081857Y-84912652D01*
X409081857Y-84912652D02*
X408648523Y-84912652D01*
D10*
D11*
X409391380Y-135469795D02*
X409329476Y-135531700D01*
X409329476Y-135531700D02*
X409143761Y-135593604D01*
X409143761Y-135593604D02*
X409019952Y-135593604D01*
X409019952Y-135593604D02*
X408834238Y-135531700D01*
X408834238Y-135531700D02*
X408710428Y-135407890D01*
X408710428Y-135407890D02*
X408648523Y-135284080D01*
X408648523Y-135284080D02*
X408586619Y-135036461D01*
X408586619Y-135036461D02*
X408586619Y-134850747D01*
X408586619Y-134850747D02*
X408648523Y-134603128D01*
X408648523Y-134603128D02*
X408710428Y-134479319D01*
X408710428Y-134479319D02*
X408834238Y-134355509D01*
X408834238Y-134355509D02*
X409019952Y-134293604D01*
X409019952Y-134293604D02*
X409143761Y-134293604D01*
X409143761Y-134293604D02*
X409329476Y-134355509D01*
X409329476Y-134355509D02*
X409391380Y-134417414D01*
D10*
D11*
X408648523Y-185593604D02*
X408648523Y-184293604D01*
X408648523Y-184293604D02*
X408958047Y-184293604D01*
X408958047Y-184293604D02*
X409143761Y-184355509D01*
X409143761Y-184355509D02*
X409267571Y-184479319D01*
X409267571Y-184479319D02*
X409329476Y-184603128D01*
X409329476Y-184603128D02*
X409391380Y-184850747D01*
X409391380Y-184850747D02*
X409391380Y-185036461D01*
X409391380Y-185036461D02*
X409329476Y-185284080D01*
X409329476Y-185284080D02*
X409267571Y-185407890D01*
X409267571Y-185407890D02*
X409143761Y-185531700D01*
X409143761Y-185531700D02*
X408958047Y-185593604D01*
X408958047Y-185593604D02*
X408648523Y-185593604D01*
D10*
D11*
X408710428Y-234912652D02*
X409143762Y-234912652D01*
X409329476Y-235593604D02*
X408710428Y-235593604D01*
X408710428Y-235593604D02*
X408710428Y-234293604D01*
X408710428Y-234293604D02*
X409329476Y-234293604D01*
D10*
D11*
X409174714Y-284912652D02*
X408741380Y-284912652D01*
X408741380Y-285593604D02*
X408741380Y-284293604D01*
X408741380Y-284293604D02*
X409360428Y-284293604D01*
D10*
D11*
X323444826Y-280788328D02*
X323444826Y-279288328D01*
X323444826Y-279288328D02*
X323801969Y-279288328D01*
X323801969Y-279288328D02*
X324016255Y-279359757D01*
X324016255Y-279359757D02*
X324159112Y-279502614D01*
X324159112Y-279502614D02*
X324230541Y-279645471D01*
X324230541Y-279645471D02*
X324301969Y-279931185D01*
X324301969Y-279931185D02*
X324301969Y-280145471D01*
X324301969Y-280145471D02*
X324230541Y-280431185D01*
X324230541Y-280431185D02*
X324159112Y-280574042D01*
X324159112Y-280574042D02*
X324016255Y-280716900D01*
X324016255Y-280716900D02*
X323801969Y-280788328D01*
X323801969Y-280788328D02*
X323444826Y-280788328D01*
X325587684Y-280788328D02*
X325587684Y-280002614D01*
X325587684Y-280002614D02*
X325516255Y-279859757D01*
X325516255Y-279859757D02*
X325373398Y-279788328D01*
X325373398Y-279788328D02*
X325087684Y-279788328D01*
X325087684Y-279788328D02*
X324944826Y-279859757D01*
X325587684Y-280716900D02*
X325444826Y-280788328D01*
X325444826Y-280788328D02*
X325087684Y-280788328D01*
X325087684Y-280788328D02*
X324944826Y-280716900D01*
X324944826Y-280716900D02*
X324873398Y-280574042D01*
X324873398Y-280574042D02*
X324873398Y-280431185D01*
X324873398Y-280431185D02*
X324944826Y-280288328D01*
X324944826Y-280288328D02*
X325087684Y-280216900D01*
X325087684Y-280216900D02*
X325444826Y-280216900D01*
X325444826Y-280216900D02*
X325587684Y-280145471D01*
X326087684Y-279788328D02*
X326659112Y-279788328D01*
X326301969Y-279288328D02*
X326301969Y-280574042D01*
X326301969Y-280574042D02*
X326373398Y-280716900D01*
X326373398Y-280716900D02*
X326516255Y-280788328D01*
X326516255Y-280788328D02*
X326659112Y-280788328D01*
X327730541Y-280716900D02*
X327587684Y-280788328D01*
X327587684Y-280788328D02*
X327301970Y-280788328D01*
X327301970Y-280788328D02*
X327159112Y-280716900D01*
X327159112Y-280716900D02*
X327087684Y-280574042D01*
X327087684Y-280574042D02*
X327087684Y-280002614D01*
X327087684Y-280002614D02*
X327159112Y-279859757D01*
X327159112Y-279859757D02*
X327301970Y-279788328D01*
X327301970Y-279788328D02*
X327587684Y-279788328D01*
X327587684Y-279788328D02*
X327730541Y-279859757D01*
X327730541Y-279859757D02*
X327801970Y-280002614D01*
X327801970Y-280002614D02*
X327801970Y-280145471D01*
X327801970Y-280145471D02*
X327087684Y-280288328D01*
X328444826Y-280645471D02*
X328516255Y-280716900D01*
X328516255Y-280716900D02*
X328444826Y-280788328D01*
X328444826Y-280788328D02*
X328373398Y-280716900D01*
X328373398Y-280716900D02*
X328444826Y-280645471D01*
X328444826Y-280645471D02*
X328444826Y-280788328D01*
X328444826Y-279859757D02*
X328516255Y-279931185D01*
X328516255Y-279931185D02*
X328444826Y-280002614D01*
X328444826Y-280002614D02*
X328373398Y-279931185D01*
X328373398Y-279931185D02*
X328444826Y-279859757D01*
X328444826Y-279859757D02*
X328444826Y-280002614D01*
X330230541Y-279431185D02*
X330301969Y-279359757D01*
X330301969Y-279359757D02*
X330444827Y-279288328D01*
X330444827Y-279288328D02*
X330801969Y-279288328D01*
X330801969Y-279288328D02*
X330944827Y-279359757D01*
X330944827Y-279359757D02*
X331016255Y-279431185D01*
X331016255Y-279431185D02*
X331087684Y-279574042D01*
X331087684Y-279574042D02*
X331087684Y-279716900D01*
X331087684Y-279716900D02*
X331016255Y-279931185D01*
X331016255Y-279931185D02*
X330159112Y-280788328D01*
X330159112Y-280788328D02*
X331087684Y-280788328D01*
X332016255Y-279288328D02*
X332159112Y-279288328D01*
X332159112Y-279288328D02*
X332301969Y-279359757D01*
X332301969Y-279359757D02*
X332373398Y-279431185D01*
X332373398Y-279431185D02*
X332444826Y-279574042D01*
X332444826Y-279574042D02*
X332516255Y-279859757D01*
X332516255Y-279859757D02*
X332516255Y-280216900D01*
X332516255Y-280216900D02*
X332444826Y-280502614D01*
X332444826Y-280502614D02*
X332373398Y-280645471D01*
X332373398Y-280645471D02*
X332301969Y-280716900D01*
X332301969Y-280716900D02*
X332159112Y-280788328D01*
X332159112Y-280788328D02*
X332016255Y-280788328D01*
X332016255Y-280788328D02*
X331873398Y-280716900D01*
X331873398Y-280716900D02*
X331801969Y-280645471D01*
X331801969Y-280645471D02*
X331730540Y-280502614D01*
X331730540Y-280502614D02*
X331659112Y-280216900D01*
X331659112Y-280216900D02*
X331659112Y-279859757D01*
X331659112Y-279859757D02*
X331730540Y-279574042D01*
X331730540Y-279574042D02*
X331801969Y-279431185D01*
X331801969Y-279431185D02*
X331873398Y-279359757D01*
X331873398Y-279359757D02*
X332016255Y-279288328D01*
X333087683Y-279431185D02*
X333159111Y-279359757D01*
X333159111Y-279359757D02*
X333301969Y-279288328D01*
X333301969Y-279288328D02*
X333659111Y-279288328D01*
X333659111Y-279288328D02*
X333801969Y-279359757D01*
X333801969Y-279359757D02*
X333873397Y-279431185D01*
X333873397Y-279431185D02*
X333944826Y-279574042D01*
X333944826Y-279574042D02*
X333944826Y-279716900D01*
X333944826Y-279716900D02*
X333873397Y-279931185D01*
X333873397Y-279931185D02*
X333016254Y-280788328D01*
X333016254Y-280788328D02*
X333944826Y-280788328D01*
X335230540Y-279788328D02*
X335230540Y-280788328D01*
X334873397Y-279216900D02*
X334516254Y-280288328D01*
X334516254Y-280288328D02*
X335444825Y-280288328D01*
X336016253Y-280216900D02*
X337159111Y-280216900D01*
X338159111Y-279288328D02*
X338301968Y-279288328D01*
X338301968Y-279288328D02*
X338444825Y-279359757D01*
X338444825Y-279359757D02*
X338516254Y-279431185D01*
X338516254Y-279431185D02*
X338587682Y-279574042D01*
X338587682Y-279574042D02*
X338659111Y-279859757D01*
X338659111Y-279859757D02*
X338659111Y-280216900D01*
X338659111Y-280216900D02*
X338587682Y-280502614D01*
X338587682Y-280502614D02*
X338516254Y-280645471D01*
X338516254Y-280645471D02*
X338444825Y-280716900D01*
X338444825Y-280716900D02*
X338301968Y-280788328D01*
X338301968Y-280788328D02*
X338159111Y-280788328D01*
X338159111Y-280788328D02*
X338016254Y-280716900D01*
X338016254Y-280716900D02*
X337944825Y-280645471D01*
X337944825Y-280645471D02*
X337873396Y-280502614D01*
X337873396Y-280502614D02*
X337801968Y-280216900D01*
X337801968Y-280216900D02*
X337801968Y-279859757D01*
X337801968Y-279859757D02*
X337873396Y-279574042D01*
X337873396Y-279574042D02*
X337944825Y-279431185D01*
X337944825Y-279431185D02*
X338016254Y-279359757D01*
X338016254Y-279359757D02*
X338159111Y-279288328D01*
X339373396Y-280788328D02*
X339659110Y-280788328D01*
X339659110Y-280788328D02*
X339801967Y-280716900D01*
X339801967Y-280716900D02*
X339873396Y-280645471D01*
X339873396Y-280645471D02*
X340016253Y-280431185D01*
X340016253Y-280431185D02*
X340087682Y-280145471D01*
X340087682Y-280145471D02*
X340087682Y-279574042D01*
X340087682Y-279574042D02*
X340016253Y-279431185D01*
X340016253Y-279431185D02*
X339944825Y-279359757D01*
X339944825Y-279359757D02*
X339801967Y-279288328D01*
X339801967Y-279288328D02*
X339516253Y-279288328D01*
X339516253Y-279288328D02*
X339373396Y-279359757D01*
X339373396Y-279359757D02*
X339301967Y-279431185D01*
X339301967Y-279431185D02*
X339230539Y-279574042D01*
X339230539Y-279574042D02*
X339230539Y-279931185D01*
X339230539Y-279931185D02*
X339301967Y-280074042D01*
X339301967Y-280074042D02*
X339373396Y-280145471D01*
X339373396Y-280145471D02*
X339516253Y-280216900D01*
X339516253Y-280216900D02*
X339801967Y-280216900D01*
X339801967Y-280216900D02*
X339944825Y-280145471D01*
X339944825Y-280145471D02*
X340016253Y-280074042D01*
X340016253Y-280074042D02*
X340087682Y-279931185D01*
X340730538Y-280216900D02*
X341873396Y-280216900D01*
X342444824Y-279288328D02*
X343373396Y-279288328D01*
X343373396Y-279288328D02*
X342873396Y-279859757D01*
X342873396Y-279859757D02*
X343087681Y-279859757D01*
X343087681Y-279859757D02*
X343230539Y-279931185D01*
X343230539Y-279931185D02*
X343301967Y-280002614D01*
X343301967Y-280002614D02*
X343373396Y-280145471D01*
X343373396Y-280145471D02*
X343373396Y-280502614D01*
X343373396Y-280502614D02*
X343301967Y-280645471D01*
X343301967Y-280645471D02*
X343230539Y-280716900D01*
X343230539Y-280716900D02*
X343087681Y-280788328D01*
X343087681Y-280788328D02*
X342659110Y-280788328D01*
X342659110Y-280788328D02*
X342516253Y-280716900D01*
X342516253Y-280716900D02*
X342444824Y-280645471D01*
X344301967Y-279288328D02*
X344444824Y-279288328D01*
X344444824Y-279288328D02*
X344587681Y-279359757D01*
X344587681Y-279359757D02*
X344659110Y-279431185D01*
X344659110Y-279431185D02*
X344730538Y-279574042D01*
X344730538Y-279574042D02*
X344801967Y-279859757D01*
X344801967Y-279859757D02*
X344801967Y-280216900D01*
X344801967Y-280216900D02*
X344730538Y-280502614D01*
X344730538Y-280502614D02*
X344659110Y-280645471D01*
X344659110Y-280645471D02*
X344587681Y-280716900D01*
X344587681Y-280716900D02*
X344444824Y-280788328D01*
X344444824Y-280788328D02*
X344301967Y-280788328D01*
X344301967Y-280788328D02*
X344159110Y-280716900D01*
X344159110Y-280716900D02*
X344087681Y-280645471D01*
X344087681Y-280645471D02*
X344016252Y-280502614D01*
X344016252Y-280502614D02*
X343944824Y-280216900D01*
X343944824Y-280216900D02*
X343944824Y-279859757D01*
X343944824Y-279859757D02*
X344016252Y-279574042D01*
X344016252Y-279574042D02*
X344087681Y-279431185D01*
X344087681Y-279431185D02*
X344159110Y-279359757D01*
X344159110Y-279359757D02*
X344301967Y-279288328D01*
D10*
D11*
X299989000Y-281502200D02*
X407989000Y-281502200D01*
D10*
D11*
X301444826Y-283588328D02*
X301444826Y-282088328D01*
X302301969Y-283588328D02*
X301659112Y-282731185D01*
X302301969Y-282088328D02*
X301444826Y-282945471D01*
X302944826Y-283588328D02*
X302944826Y-282588328D01*
X302944826Y-282088328D02*
X302873398Y-282159757D01*
X302873398Y-282159757D02*
X302944826Y-282231185D01*
X302944826Y-282231185D02*
X303016255Y-282159757D01*
X303016255Y-282159757D02*
X302944826Y-282088328D01*
X302944826Y-282088328D02*
X302944826Y-282231185D01*
X304516255Y-283445471D02*
X304444827Y-283516900D01*
X304444827Y-283516900D02*
X304230541Y-283588328D01*
X304230541Y-283588328D02*
X304087684Y-283588328D01*
X304087684Y-283588328D02*
X303873398Y-283516900D01*
X303873398Y-283516900D02*
X303730541Y-283374042D01*
X303730541Y-283374042D02*
X303659112Y-283231185D01*
X303659112Y-283231185D02*
X303587684Y-282945471D01*
X303587684Y-282945471D02*
X303587684Y-282731185D01*
X303587684Y-282731185D02*
X303659112Y-282445471D01*
X303659112Y-282445471D02*
X303730541Y-282302614D01*
X303730541Y-282302614D02*
X303873398Y-282159757D01*
X303873398Y-282159757D02*
X304087684Y-282088328D01*
X304087684Y-282088328D02*
X304230541Y-282088328D01*
X304230541Y-282088328D02*
X304444827Y-282159757D01*
X304444827Y-282159757D02*
X304516255Y-282231185D01*
X305801970Y-283588328D02*
X305801970Y-282802614D01*
X305801970Y-282802614D02*
X305730541Y-282659757D01*
X305730541Y-282659757D02*
X305587684Y-282588328D01*
X305587684Y-282588328D02*
X305301970Y-282588328D01*
X305301970Y-282588328D02*
X305159112Y-282659757D01*
X305801970Y-283516900D02*
X305659112Y-283588328D01*
X305659112Y-283588328D02*
X305301970Y-283588328D01*
X305301970Y-283588328D02*
X305159112Y-283516900D01*
X305159112Y-283516900D02*
X305087684Y-283374042D01*
X305087684Y-283374042D02*
X305087684Y-283231185D01*
X305087684Y-283231185D02*
X305159112Y-283088328D01*
X305159112Y-283088328D02*
X305301970Y-283016900D01*
X305301970Y-283016900D02*
X305659112Y-283016900D01*
X305659112Y-283016900D02*
X305801970Y-282945471D01*
X307159113Y-283588328D02*
X307159113Y-282088328D01*
X307159113Y-283516900D02*
X307016255Y-283588328D01*
X307016255Y-283588328D02*
X306730541Y-283588328D01*
X306730541Y-283588328D02*
X306587684Y-283516900D01*
X306587684Y-283516900D02*
X306516255Y-283445471D01*
X306516255Y-283445471D02*
X306444827Y-283302614D01*
X306444827Y-283302614D02*
X306444827Y-282874042D01*
X306444827Y-282874042D02*
X306516255Y-282731185D01*
X306516255Y-282731185D02*
X306587684Y-282659757D01*
X306587684Y-282659757D02*
X306730541Y-282588328D01*
X306730541Y-282588328D02*
X307016255Y-282588328D01*
X307016255Y-282588328D02*
X307159113Y-282659757D01*
X309016255Y-282802614D02*
X309516255Y-282802614D01*
X309730541Y-283588328D02*
X309016255Y-283588328D01*
X309016255Y-283588328D02*
X309016255Y-282088328D01*
X309016255Y-282088328D02*
X309730541Y-282088328D01*
X310373398Y-283445471D02*
X310444827Y-283516900D01*
X310444827Y-283516900D02*
X310373398Y-283588328D01*
X310373398Y-283588328D02*
X310301970Y-283516900D01*
X310301970Y-283516900D02*
X310373398Y-283445471D01*
X310373398Y-283445471D02*
X310373398Y-283588328D01*
X311087684Y-283588328D02*
X311087684Y-282088328D01*
X311087684Y-282088328D02*
X311444827Y-282088328D01*
X311444827Y-282088328D02*
X311659113Y-282159757D01*
X311659113Y-282159757D02*
X311801970Y-282302614D01*
X311801970Y-282302614D02*
X311873399Y-282445471D01*
X311873399Y-282445471D02*
X311944827Y-282731185D01*
X311944827Y-282731185D02*
X311944827Y-282945471D01*
X311944827Y-282945471D02*
X311873399Y-283231185D01*
X311873399Y-283231185D02*
X311801970Y-283374042D01*
X311801970Y-283374042D02*
X311659113Y-283516900D01*
X311659113Y-283516900D02*
X311444827Y-283588328D01*
X311444827Y-283588328D02*
X311087684Y-283588328D01*
X312587684Y-283445471D02*
X312659113Y-283516900D01*
X312659113Y-283516900D02*
X312587684Y-283588328D01*
X312587684Y-283588328D02*
X312516256Y-283516900D01*
X312516256Y-283516900D02*
X312587684Y-283445471D01*
X312587684Y-283445471D02*
X312587684Y-283588328D01*
X313230542Y-283159757D02*
X313944828Y-283159757D01*
X313087685Y-283588328D02*
X313587685Y-282088328D01*
X313587685Y-282088328D02*
X314087685Y-283588328D01*
X314587684Y-283445471D02*
X314659113Y-283516900D01*
X314659113Y-283516900D02*
X314587684Y-283588328D01*
X314587684Y-283588328D02*
X314516256Y-283516900D01*
X314516256Y-283516900D02*
X314587684Y-283445471D01*
X314587684Y-283445471D02*
X314587684Y-283588328D01*
X316659113Y-282731185D02*
X316516256Y-282659757D01*
X316516256Y-282659757D02*
X316444827Y-282588328D01*
X316444827Y-282588328D02*
X316373399Y-282445471D01*
X316373399Y-282445471D02*
X316373399Y-282374042D01*
X316373399Y-282374042D02*
X316444827Y-282231185D01*
X316444827Y-282231185D02*
X316516256Y-282159757D01*
X316516256Y-282159757D02*
X316659113Y-282088328D01*
X316659113Y-282088328D02*
X316944827Y-282088328D01*
X316944827Y-282088328D02*
X317087685Y-282159757D01*
X317087685Y-282159757D02*
X317159113Y-282231185D01*
X317159113Y-282231185D02*
X317230542Y-282374042D01*
X317230542Y-282374042D02*
X317230542Y-282445471D01*
X317230542Y-282445471D02*
X317159113Y-282588328D01*
X317159113Y-282588328D02*
X317087685Y-282659757D01*
X317087685Y-282659757D02*
X316944827Y-282731185D01*
X316944827Y-282731185D02*
X316659113Y-282731185D01*
X316659113Y-282731185D02*
X316516256Y-282802614D01*
X316516256Y-282802614D02*
X316444827Y-282874042D01*
X316444827Y-282874042D02*
X316373399Y-283016900D01*
X316373399Y-283016900D02*
X316373399Y-283302614D01*
X316373399Y-283302614D02*
X316444827Y-283445471D01*
X316444827Y-283445471D02*
X316516256Y-283516900D01*
X316516256Y-283516900D02*
X316659113Y-283588328D01*
X316659113Y-283588328D02*
X316944827Y-283588328D01*
X316944827Y-283588328D02*
X317087685Y-283516900D01*
X317087685Y-283516900D02*
X317159113Y-283445471D01*
X317159113Y-283445471D02*
X317230542Y-283302614D01*
X317230542Y-283302614D02*
X317230542Y-283016900D01*
X317230542Y-283016900D02*
X317159113Y-282874042D01*
X317159113Y-282874042D02*
X317087685Y-282802614D01*
X317087685Y-282802614D02*
X316944827Y-282731185D01*
X317873398Y-283445471D02*
X317944827Y-283516900D01*
X317944827Y-283516900D02*
X317873398Y-283588328D01*
X317873398Y-283588328D02*
X317801970Y-283516900D01*
X317801970Y-283516900D02*
X317873398Y-283445471D01*
X317873398Y-283445471D02*
X317873398Y-283588328D01*
X318873399Y-282088328D02*
X319016256Y-282088328D01*
X319016256Y-282088328D02*
X319159113Y-282159757D01*
X319159113Y-282159757D02*
X319230542Y-282231185D01*
X319230542Y-282231185D02*
X319301970Y-282374042D01*
X319301970Y-282374042D02*
X319373399Y-282659757D01*
X319373399Y-282659757D02*
X319373399Y-283016900D01*
X319373399Y-283016900D02*
X319301970Y-283302614D01*
X319301970Y-283302614D02*
X319230542Y-283445471D01*
X319230542Y-283445471D02*
X319159113Y-283516900D01*
X319159113Y-283516900D02*
X319016256Y-283588328D01*
X319016256Y-283588328D02*
X318873399Y-283588328D01*
X318873399Y-283588328D02*
X318730542Y-283516900D01*
X318730542Y-283516900D02*
X318659113Y-283445471D01*
X318659113Y-283445471D02*
X318587684Y-283302614D01*
X318587684Y-283302614D02*
X318516256Y-283016900D01*
X318516256Y-283016900D02*
X318516256Y-282659757D01*
X318516256Y-282659757D02*
X318587684Y-282374042D01*
X318587684Y-282374042D02*
X318659113Y-282231185D01*
X318659113Y-282231185D02*
X318730542Y-282159757D01*
X318730542Y-282159757D02*
X318873399Y-282088328D01*
X320016255Y-283445471D02*
X320087684Y-283516900D01*
X320087684Y-283516900D02*
X320016255Y-283588328D01*
X320016255Y-283588328D02*
X319944827Y-283516900D01*
X319944827Y-283516900D02*
X320016255Y-283445471D01*
X320016255Y-283445471D02*
X320016255Y-283588328D01*
X321373399Y-282588328D02*
X321373399Y-283588328D01*
X321016256Y-282016900D02*
X320659113Y-283088328D01*
X320659113Y-283088328D02*
X321587684Y-283088328D01*
D10*
D11*
X299989000Y-278502200D02*
X407989000Y-278502200D01*
D10*
D12*
X387400653Y-280780528D02*
X386900653Y-280066242D01*
X386543510Y-280780528D02*
X386543510Y-279280528D01*
X386543510Y-279280528D02*
X387114939Y-279280528D01*
X387114939Y-279280528D02*
X387257796Y-279351957D01*
X387257796Y-279351957D02*
X387329225Y-279423385D01*
X387329225Y-279423385D02*
X387400653Y-279566242D01*
X387400653Y-279566242D02*
X387400653Y-279780528D01*
X387400653Y-279780528D02*
X387329225Y-279923385D01*
X387329225Y-279923385D02*
X387257796Y-279994814D01*
X387257796Y-279994814D02*
X387114939Y-280066242D01*
X387114939Y-280066242D02*
X386543510Y-280066242D01*
X388614939Y-280709100D02*
X388472082Y-280780528D01*
X388472082Y-280780528D02*
X388186368Y-280780528D01*
X388186368Y-280780528D02*
X388043510Y-280709100D01*
X388043510Y-280709100D02*
X387972082Y-280566242D01*
X387972082Y-280566242D02*
X387972082Y-279994814D01*
X387972082Y-279994814D02*
X388043510Y-279851957D01*
X388043510Y-279851957D02*
X388186368Y-279780528D01*
X388186368Y-279780528D02*
X388472082Y-279780528D01*
X388472082Y-279780528D02*
X388614939Y-279851957D01*
X388614939Y-279851957D02*
X388686368Y-279994814D01*
X388686368Y-279994814D02*
X388686368Y-280137671D01*
X388686368Y-280137671D02*
X387972082Y-280280528D01*
X389186367Y-279780528D02*
X389543510Y-280780528D01*
X389543510Y-280780528D02*
X389900653Y-279780528D01*
X390472081Y-280637671D02*
X390543510Y-280709100D01*
X390543510Y-280709100D02*
X390472081Y-280780528D01*
X390472081Y-280780528D02*
X390400653Y-280709100D01*
X390400653Y-280709100D02*
X390472081Y-280637671D01*
X390472081Y-280637671D02*
X390472081Y-280780528D01*
X390472081Y-279851957D02*
X390543510Y-279923385D01*
X390543510Y-279923385D02*
X390472081Y-279994814D01*
X390472081Y-279994814D02*
X390400653Y-279923385D01*
X390400653Y-279923385D02*
X390472081Y-279851957D01*
X390472081Y-279851957D02*
X390472081Y-279994814D01*
X392614939Y-279280528D02*
X392757796Y-279280528D01*
X392757796Y-279280528D02*
X392900653Y-279351957D01*
X392900653Y-279351957D02*
X392972082Y-279423385D01*
X392972082Y-279423385D02*
X393043510Y-279566242D01*
X393043510Y-279566242D02*
X393114939Y-279851957D01*
X393114939Y-279851957D02*
X393114939Y-280209100D01*
X393114939Y-280209100D02*
X393043510Y-280494814D01*
X393043510Y-280494814D02*
X392972082Y-280637671D01*
X392972082Y-280637671D02*
X392900653Y-280709100D01*
X392900653Y-280709100D02*
X392757796Y-280780528D01*
X392757796Y-280780528D02*
X392614939Y-280780528D01*
X392614939Y-280780528D02*
X392472082Y-280709100D01*
X392472082Y-280709100D02*
X392400653Y-280637671D01*
X392400653Y-280637671D02*
X392329224Y-280494814D01*
X392329224Y-280494814D02*
X392257796Y-280209100D01*
X392257796Y-280209100D02*
X392257796Y-279851957D01*
X392257796Y-279851957D02*
X392329224Y-279566242D01*
X392329224Y-279566242D02*
X392400653Y-279423385D01*
X392400653Y-279423385D02*
X392472082Y-279351957D01*
X392472082Y-279351957D02*
X392614939Y-279280528D01*
X393757795Y-280637671D02*
X393829224Y-280709100D01*
X393829224Y-280709100D02*
X393757795Y-280780528D01*
X393757795Y-280780528D02*
X393686367Y-280709100D01*
X393686367Y-280709100D02*
X393757795Y-280637671D01*
X393757795Y-280637671D02*
X393757795Y-280780528D01*
X395257796Y-280780528D02*
X394400653Y-280780528D01*
X394829224Y-280780528D02*
X394829224Y-279280528D01*
X394829224Y-279280528D02*
X394686367Y-279494814D01*
X394686367Y-279494814D02*
X394543510Y-279637671D01*
X394543510Y-279637671D02*
X394400653Y-279709100D01*
D10*
D11*
X301373398Y-280716900D02*
X301587684Y-280788328D01*
X301587684Y-280788328D02*
X301944826Y-280788328D01*
X301944826Y-280788328D02*
X302087684Y-280716900D01*
X302087684Y-280716900D02*
X302159112Y-280645471D01*
X302159112Y-280645471D02*
X302230541Y-280502614D01*
X302230541Y-280502614D02*
X302230541Y-280359757D01*
X302230541Y-280359757D02*
X302159112Y-280216900D01*
X302159112Y-280216900D02*
X302087684Y-280145471D01*
X302087684Y-280145471D02*
X301944826Y-280074042D01*
X301944826Y-280074042D02*
X301659112Y-280002614D01*
X301659112Y-280002614D02*
X301516255Y-279931185D01*
X301516255Y-279931185D02*
X301444826Y-279859757D01*
X301444826Y-279859757D02*
X301373398Y-279716900D01*
X301373398Y-279716900D02*
X301373398Y-279574042D01*
X301373398Y-279574042D02*
X301444826Y-279431185D01*
X301444826Y-279431185D02*
X301516255Y-279359757D01*
X301516255Y-279359757D02*
X301659112Y-279288328D01*
X301659112Y-279288328D02*
X302016255Y-279288328D01*
X302016255Y-279288328D02*
X302230541Y-279359757D01*
X302873397Y-280788328D02*
X302873397Y-279788328D01*
X302873397Y-279288328D02*
X302801969Y-279359757D01*
X302801969Y-279359757D02*
X302873397Y-279431185D01*
X302873397Y-279431185D02*
X302944826Y-279359757D01*
X302944826Y-279359757D02*
X302873397Y-279288328D01*
X302873397Y-279288328D02*
X302873397Y-279431185D01*
X303444826Y-279788328D02*
X304230541Y-279788328D01*
X304230541Y-279788328D02*
X303444826Y-280788328D01*
X303444826Y-280788328D02*
X304230541Y-280788328D01*
X305373398Y-280716900D02*
X305230541Y-280788328D01*
X305230541Y-280788328D02*
X304944827Y-280788328D01*
X304944827Y-280788328D02*
X304801969Y-280716900D01*
X304801969Y-280716900D02*
X304730541Y-280574042D01*
X304730541Y-280574042D02*
X304730541Y-280002614D01*
X304730541Y-280002614D02*
X304801969Y-279859757D01*
X304801969Y-279859757D02*
X304944827Y-279788328D01*
X304944827Y-279788328D02*
X305230541Y-279788328D01*
X305230541Y-279788328D02*
X305373398Y-279859757D01*
X305373398Y-279859757D02*
X305444827Y-280002614D01*
X305444827Y-280002614D02*
X305444827Y-280145471D01*
X305444827Y-280145471D02*
X304730541Y-280288328D01*
X306087683Y-280645471D02*
X306159112Y-280716900D01*
X306159112Y-280716900D02*
X306087683Y-280788328D01*
X306087683Y-280788328D02*
X306016255Y-280716900D01*
X306016255Y-280716900D02*
X306087683Y-280645471D01*
X306087683Y-280645471D02*
X306087683Y-280788328D01*
X306087683Y-279859757D02*
X306159112Y-279931185D01*
X306159112Y-279931185D02*
X306087683Y-280002614D01*
X306087683Y-280002614D02*
X306016255Y-279931185D01*
X306016255Y-279931185D02*
X306087683Y-279859757D01*
X306087683Y-279859757D02*
X306087683Y-280002614D01*
X307873398Y-280359757D02*
X308587684Y-280359757D01*
X307730541Y-280788328D02*
X308230541Y-279288328D01*
X308230541Y-279288328D02*
X308730541Y-280788328D01*
X309087683Y-279288328D02*
X310016255Y-279288328D01*
X310016255Y-279288328D02*
X309516255Y-279859757D01*
X309516255Y-279859757D02*
X309730540Y-279859757D01*
X309730540Y-279859757D02*
X309873398Y-279931185D01*
X309873398Y-279931185D02*
X309944826Y-280002614D01*
X309944826Y-280002614D02*
X310016255Y-280145471D01*
X310016255Y-280145471D02*
X310016255Y-280502614D01*
X310016255Y-280502614D02*
X309944826Y-280645471D01*
X309944826Y-280645471D02*
X309873398Y-280716900D01*
X309873398Y-280716900D02*
X309730540Y-280788328D01*
X309730540Y-280788328D02*
X309301969Y-280788328D01*
X309301969Y-280788328D02*
X309159112Y-280716900D01*
X309159112Y-280716900D02*
X309087683Y-280645471D01*
D10*
D11*
X386444826Y-283588328D02*
X386444826Y-282088328D01*
X387801970Y-283588328D02*
X387801970Y-282088328D01*
X387801970Y-283516900D02*
X387659112Y-283588328D01*
X387659112Y-283588328D02*
X387373398Y-283588328D01*
X387373398Y-283588328D02*
X387230541Y-283516900D01*
X387230541Y-283516900D02*
X387159112Y-283445471D01*
X387159112Y-283445471D02*
X387087684Y-283302614D01*
X387087684Y-283302614D02*
X387087684Y-282874042D01*
X387087684Y-282874042D02*
X387159112Y-282731185D01*
X387159112Y-282731185D02*
X387230541Y-282659757D01*
X387230541Y-282659757D02*
X387373398Y-282588328D01*
X387373398Y-282588328D02*
X387659112Y-282588328D01*
X387659112Y-282588328D02*
X387801970Y-282659757D01*
X388516255Y-283445471D02*
X388587684Y-283516900D01*
X388587684Y-283516900D02*
X388516255Y-283588328D01*
X388516255Y-283588328D02*
X388444827Y-283516900D01*
X388444827Y-283516900D02*
X388516255Y-283445471D01*
X388516255Y-283445471D02*
X388516255Y-283588328D01*
X388516255Y-282659757D02*
X388587684Y-282731185D01*
X388587684Y-282731185D02*
X388516255Y-282802614D01*
X388516255Y-282802614D02*
X388444827Y-282731185D01*
X388444827Y-282731185D02*
X388516255Y-282659757D01*
X388516255Y-282659757D02*
X388516255Y-282802614D01*
X391159113Y-283588328D02*
X390301970Y-283588328D01*
X390730541Y-283588328D02*
X390730541Y-282088328D01*
X390730541Y-282088328D02*
X390587684Y-282302614D01*
X390587684Y-282302614D02*
X390444827Y-282445471D01*
X390444827Y-282445471D02*
X390301970Y-282516900D01*
X392873398Y-282016900D02*
X391587684Y-283945471D01*
X394159113Y-283588328D02*
X393301970Y-283588328D01*
X393730541Y-283588328D02*
X393730541Y-282088328D01*
X393730541Y-282088328D02*
X393587684Y-282302614D01*
X393587684Y-282302614D02*
X393444827Y-282445471D01*
X393444827Y-282445471D02*
X393301970Y-282516900D01*
D10*
D11*
X299989000Y-274502200D02*
X407989000Y-274502200D01*
D10*
D13*
X301680728Y-275206638D02*
X302823585Y-275206638D01*
X302002157Y-277206638D02*
X302252157Y-275206638D01*
X303240252Y-277206638D02*
X303406919Y-275873304D01*
X303490252Y-275206638D02*
X303383109Y-275301876D01*
X303383109Y-275301876D02*
X303466443Y-275397114D01*
X303466443Y-275397114D02*
X303573586Y-275301876D01*
X303573586Y-275301876D02*
X303490252Y-275206638D01*
X303490252Y-275206638D02*
X303466443Y-275397114D01*
X304073586Y-275873304D02*
X304835490Y-275873304D01*
X304442633Y-275206638D02*
X304228348Y-276920923D01*
X304228348Y-276920923D02*
X304299776Y-277111400D01*
X304299776Y-277111400D02*
X304478348Y-277206638D01*
X304478348Y-277206638D02*
X304668824Y-277206638D01*
X305621205Y-277206638D02*
X305442633Y-277111400D01*
X305442633Y-277111400D02*
X305371205Y-276920923D01*
X305371205Y-276920923D02*
X305585490Y-275206638D01*
X307156919Y-277111400D02*
X306954538Y-277206638D01*
X306954538Y-277206638D02*
X306573585Y-277206638D01*
X306573585Y-277206638D02*
X306395014Y-277111400D01*
X306395014Y-277111400D02*
X306323585Y-276920923D01*
X306323585Y-276920923D02*
X306418824Y-276159019D01*
X306418824Y-276159019D02*
X306537871Y-275968542D01*
X306537871Y-275968542D02*
X306740252Y-275873304D01*
X306740252Y-275873304D02*
X307121204Y-275873304D01*
X307121204Y-275873304D02*
X307299776Y-275968542D01*
X307299776Y-275968542D02*
X307371204Y-276159019D01*
X307371204Y-276159019D02*
X307347395Y-276349495D01*
X307347395Y-276349495D02*
X306371204Y-276539971D01*
X308121205Y-277016161D02*
X308204538Y-277111400D01*
X308204538Y-277111400D02*
X308097395Y-277206638D01*
X308097395Y-277206638D02*
X308014062Y-277111400D01*
X308014062Y-277111400D02*
X308121205Y-277016161D01*
X308121205Y-277016161D02*
X308097395Y-277206638D01*
X308252157Y-275968542D02*
X308335490Y-276063780D01*
X308335490Y-276063780D02*
X308228348Y-276159019D01*
X308228348Y-276159019D02*
X308145014Y-276063780D01*
X308145014Y-276063780D02*
X308252157Y-275968542D01*
X308252157Y-275968542D02*
X308228348Y-276159019D01*
X310573586Y-277206638D02*
X310823586Y-275206638D01*
X310728348Y-275968542D02*
X310930729Y-275873304D01*
X310930729Y-275873304D02*
X311311681Y-275873304D01*
X311311681Y-275873304D02*
X311490253Y-275968542D01*
X311490253Y-275968542D02*
X311573586Y-276063780D01*
X311573586Y-276063780D02*
X311645015Y-276254257D01*
X311645015Y-276254257D02*
X311573586Y-276825685D01*
X311573586Y-276825685D02*
X311454539Y-277016161D01*
X311454539Y-277016161D02*
X311347396Y-277111400D01*
X311347396Y-277111400D02*
X311145015Y-277206638D01*
X311145015Y-277206638D02*
X310764062Y-277206638D01*
X310764062Y-277206638D02*
X310585491Y-277111400D01*
X312668825Y-277206638D02*
X312490253Y-277111400D01*
X312490253Y-277111400D02*
X312406920Y-277016161D01*
X312406920Y-277016161D02*
X312335491Y-276825685D01*
X312335491Y-276825685D02*
X312406920Y-276254257D01*
X312406920Y-276254257D02*
X312525967Y-276063780D01*
X312525967Y-276063780D02*
X312633110Y-275968542D01*
X312633110Y-275968542D02*
X312835491Y-275873304D01*
X312835491Y-275873304D02*
X313121205Y-275873304D01*
X313121205Y-275873304D02*
X313299777Y-275968542D01*
X313299777Y-275968542D02*
X313383110Y-276063780D01*
X313383110Y-276063780D02*
X313454539Y-276254257D01*
X313454539Y-276254257D02*
X313383110Y-276825685D01*
X313383110Y-276825685D02*
X313264063Y-277016161D01*
X313264063Y-277016161D02*
X313156920Y-277111400D01*
X313156920Y-277111400D02*
X312954539Y-277206638D01*
X312954539Y-277206638D02*
X312668825Y-277206638D01*
X314478349Y-277206638D02*
X314299777Y-277111400D01*
X314299777Y-277111400D02*
X314216444Y-277016161D01*
X314216444Y-277016161D02*
X314145015Y-276825685D01*
X314145015Y-276825685D02*
X314216444Y-276254257D01*
X314216444Y-276254257D02*
X314335491Y-276063780D01*
X314335491Y-276063780D02*
X314442634Y-275968542D01*
X314442634Y-275968542D02*
X314645015Y-275873304D01*
X314645015Y-275873304D02*
X314930729Y-275873304D01*
X314930729Y-275873304D02*
X315109301Y-275968542D01*
X315109301Y-275968542D02*
X315192634Y-276063780D01*
X315192634Y-276063780D02*
X315264063Y-276254257D01*
X315264063Y-276254257D02*
X315192634Y-276825685D01*
X315192634Y-276825685D02*
X315073587Y-277016161D01*
X315073587Y-277016161D02*
X314966444Y-277111400D01*
X314966444Y-277111400D02*
X314764063Y-277206638D01*
X314764063Y-277206638D02*
X314478349Y-277206638D01*
X315918825Y-277111400D02*
X316097396Y-277206638D01*
X316097396Y-277206638D02*
X316478349Y-277206638D01*
X316478349Y-277206638D02*
X316680730Y-277111400D01*
X316680730Y-277111400D02*
X316799777Y-276920923D01*
X316799777Y-276920923D02*
X316811682Y-276825685D01*
X316811682Y-276825685D02*
X316740253Y-276635209D01*
X316740253Y-276635209D02*
X316561682Y-276539971D01*
X316561682Y-276539971D02*
X316275968Y-276539971D01*
X316275968Y-276539971D02*
X316097396Y-276444733D01*
X316097396Y-276444733D02*
X316025968Y-276254257D01*
X316025968Y-276254257D02*
X316037873Y-276159019D01*
X316037873Y-276159019D02*
X316156920Y-275968542D01*
X316156920Y-275968542D02*
X316359301Y-275873304D01*
X316359301Y-275873304D02*
X316645015Y-275873304D01*
X316645015Y-275873304D02*
X316823587Y-275968542D01*
X317502159Y-275873304D02*
X318264063Y-275873304D01*
X317871206Y-275206638D02*
X317656921Y-276920923D01*
X317656921Y-276920923D02*
X317728349Y-277111400D01*
X317728349Y-277111400D02*
X317906921Y-277206638D01*
X317906921Y-277206638D02*
X318097397Y-277206638D01*
X319966444Y-275206638D02*
X319014063Y-275206638D01*
X319014063Y-275206638D02*
X318799778Y-276159019D01*
X318799778Y-276159019D02*
X318906920Y-276063780D01*
X318906920Y-276063780D02*
X319109301Y-275968542D01*
X319109301Y-275968542D02*
X319585492Y-275968542D01*
X319585492Y-275968542D02*
X319764063Y-276063780D01*
X319764063Y-276063780D02*
X319847397Y-276159019D01*
X319847397Y-276159019D02*
X319918825Y-276349495D01*
X319918825Y-276349495D02*
X319859301Y-276825685D01*
X319859301Y-276825685D02*
X319740254Y-277016161D01*
X319740254Y-277016161D02*
X319633111Y-277111400D01*
X319633111Y-277111400D02*
X319430730Y-277206638D01*
X319430730Y-277206638D02*
X318954539Y-277206638D01*
X318954539Y-277206638D02*
X318775968Y-277111400D01*
X318775968Y-277111400D02*
X318692635Y-277016161D01*
X321097397Y-276063780D02*
X320918825Y-275968542D01*
X320918825Y-275968542D02*
X320835492Y-275873304D01*
X320835492Y-275873304D02*
X320764063Y-275682828D01*
X320764063Y-275682828D02*
X320775968Y-275587590D01*
X320775968Y-275587590D02*
X320895016Y-275397114D01*
X320895016Y-275397114D02*
X321002159Y-275301876D01*
X321002159Y-275301876D02*
X321204540Y-275206638D01*
X321204540Y-275206638D02*
X321585492Y-275206638D01*
X321585492Y-275206638D02*
X321764063Y-275301876D01*
X321764063Y-275301876D02*
X321847397Y-275397114D01*
X321847397Y-275397114D02*
X321918825Y-275587590D01*
X321918825Y-275587590D02*
X321906920Y-275682828D01*
X321906920Y-275682828D02*
X321787873Y-275873304D01*
X321787873Y-275873304D02*
X321680730Y-275968542D01*
X321680730Y-275968542D02*
X321478349Y-276063780D01*
X321478349Y-276063780D02*
X321097397Y-276063780D01*
X321097397Y-276063780D02*
X320895016Y-276159019D01*
X320895016Y-276159019D02*
X320787873Y-276254257D01*
X320787873Y-276254257D02*
X320668825Y-276444733D01*
X320668825Y-276444733D02*
X320621206Y-276825685D01*
X320621206Y-276825685D02*
X320692635Y-277016161D01*
X320692635Y-277016161D02*
X320775968Y-277111400D01*
X320775968Y-277111400D02*
X320954540Y-277206638D01*
X320954540Y-277206638D02*
X321335492Y-277206638D01*
X321335492Y-277206638D02*
X321537873Y-277111400D01*
X321537873Y-277111400D02*
X321645016Y-277016161D01*
X321645016Y-277016161D02*
X321764063Y-276825685D01*
X321764063Y-276825685D02*
X321811682Y-276444733D01*
X321811682Y-276444733D02*
X321740254Y-276254257D01*
X321740254Y-276254257D02*
X321656920Y-276159019D01*
X321656920Y-276159019D02*
X321478349Y-276063780D01*
D10*
D11*
X301944826Y-272602614D02*
X301444826Y-272602614D01*
X301444826Y-273388328D02*
X301444826Y-271888328D01*
X301444826Y-271888328D02*
X302159112Y-271888328D01*
X302730540Y-273388328D02*
X302730540Y-272388328D01*
X302730540Y-271888328D02*
X302659112Y-271959757D01*
X302659112Y-271959757D02*
X302730540Y-272031185D01*
X302730540Y-272031185D02*
X302801969Y-271959757D01*
X302801969Y-271959757D02*
X302730540Y-271888328D01*
X302730540Y-271888328D02*
X302730540Y-272031185D01*
X303659112Y-273388328D02*
X303516255Y-273316900D01*
X303516255Y-273316900D02*
X303444826Y-273174042D01*
X303444826Y-273174042D02*
X303444826Y-271888328D01*
X304801969Y-273316900D02*
X304659112Y-273388328D01*
X304659112Y-273388328D02*
X304373398Y-273388328D01*
X304373398Y-273388328D02*
X304230540Y-273316900D01*
X304230540Y-273316900D02*
X304159112Y-273174042D01*
X304159112Y-273174042D02*
X304159112Y-272602614D01*
X304159112Y-272602614D02*
X304230540Y-272459757D01*
X304230540Y-272459757D02*
X304373398Y-272388328D01*
X304373398Y-272388328D02*
X304659112Y-272388328D01*
X304659112Y-272388328D02*
X304801969Y-272459757D01*
X304801969Y-272459757D02*
X304873398Y-272602614D01*
X304873398Y-272602614D02*
X304873398Y-272745471D01*
X304873398Y-272745471D02*
X304159112Y-272888328D01*
X305516254Y-273245471D02*
X305587683Y-273316900D01*
X305587683Y-273316900D02*
X305516254Y-273388328D01*
X305516254Y-273388328D02*
X305444826Y-273316900D01*
X305444826Y-273316900D02*
X305516254Y-273245471D01*
X305516254Y-273245471D02*
X305516254Y-273388328D01*
X305516254Y-272459757D02*
X305587683Y-272531185D01*
X305587683Y-272531185D02*
X305516254Y-272602614D01*
X305516254Y-272602614D02*
X305444826Y-272531185D01*
X305444826Y-272531185D02*
X305516254Y-272459757D01*
X305516254Y-272459757D02*
X305516254Y-272602614D01*
X307373397Y-273388328D02*
X307373397Y-271888328D01*
X307373397Y-272459757D02*
X307516255Y-272388328D01*
X307516255Y-272388328D02*
X307801969Y-272388328D01*
X307801969Y-272388328D02*
X307944826Y-272459757D01*
X307944826Y-272459757D02*
X308016255Y-272531185D01*
X308016255Y-272531185D02*
X308087683Y-272674042D01*
X308087683Y-272674042D02*
X308087683Y-273102614D01*
X308087683Y-273102614D02*
X308016255Y-273245471D01*
X308016255Y-273245471D02*
X307944826Y-273316900D01*
X307944826Y-273316900D02*
X307801969Y-273388328D01*
X307801969Y-273388328D02*
X307516255Y-273388328D01*
X307516255Y-273388328D02*
X307373397Y-273316900D01*
X308944826Y-273388328D02*
X308801969Y-273316900D01*
X308801969Y-273316900D02*
X308730540Y-273245471D01*
X308730540Y-273245471D02*
X308659112Y-273102614D01*
X308659112Y-273102614D02*
X308659112Y-272674042D01*
X308659112Y-272674042D02*
X308730540Y-272531185D01*
X308730540Y-272531185D02*
X308801969Y-272459757D01*
X308801969Y-272459757D02*
X308944826Y-272388328D01*
X308944826Y-272388328D02*
X309159112Y-272388328D01*
X309159112Y-272388328D02*
X309301969Y-272459757D01*
X309301969Y-272459757D02*
X309373398Y-272531185D01*
X309373398Y-272531185D02*
X309444826Y-272674042D01*
X309444826Y-272674042D02*
X309444826Y-273102614D01*
X309444826Y-273102614D02*
X309373398Y-273245471D01*
X309373398Y-273245471D02*
X309301969Y-273316900D01*
X309301969Y-273316900D02*
X309159112Y-273388328D01*
X309159112Y-273388328D02*
X308944826Y-273388328D01*
X310301969Y-273388328D02*
X310159112Y-273316900D01*
X310159112Y-273316900D02*
X310087683Y-273245471D01*
X310087683Y-273245471D02*
X310016255Y-273102614D01*
X310016255Y-273102614D02*
X310016255Y-272674042D01*
X310016255Y-272674042D02*
X310087683Y-272531185D01*
X310087683Y-272531185D02*
X310159112Y-272459757D01*
X310159112Y-272459757D02*
X310301969Y-272388328D01*
X310301969Y-272388328D02*
X310516255Y-272388328D01*
X310516255Y-272388328D02*
X310659112Y-272459757D01*
X310659112Y-272459757D02*
X310730541Y-272531185D01*
X310730541Y-272531185D02*
X310801969Y-272674042D01*
X310801969Y-272674042D02*
X310801969Y-273102614D01*
X310801969Y-273102614D02*
X310730541Y-273245471D01*
X310730541Y-273245471D02*
X310659112Y-273316900D01*
X310659112Y-273316900D02*
X310516255Y-273388328D01*
X310516255Y-273388328D02*
X310301969Y-273388328D01*
X311373398Y-273316900D02*
X311516255Y-273388328D01*
X311516255Y-273388328D02*
X311801969Y-273388328D01*
X311801969Y-273388328D02*
X311944826Y-273316900D01*
X311944826Y-273316900D02*
X312016255Y-273174042D01*
X312016255Y-273174042D02*
X312016255Y-273102614D01*
X312016255Y-273102614D02*
X311944826Y-272959757D01*
X311944826Y-272959757D02*
X311801969Y-272888328D01*
X311801969Y-272888328D02*
X311587684Y-272888328D01*
X311587684Y-272888328D02*
X311444826Y-272816900D01*
X311444826Y-272816900D02*
X311373398Y-272674042D01*
X311373398Y-272674042D02*
X311373398Y-272602614D01*
X311373398Y-272602614D02*
X311444826Y-272459757D01*
X311444826Y-272459757D02*
X311587684Y-272388328D01*
X311587684Y-272388328D02*
X311801969Y-272388328D01*
X311801969Y-272388328D02*
X311944826Y-272459757D01*
X312444827Y-272388328D02*
X313016255Y-272388328D01*
X312659112Y-271888328D02*
X312659112Y-273174042D01*
X312659112Y-273174042D02*
X312730541Y-273316900D01*
X312730541Y-273316900D02*
X312873398Y-273388328D01*
X312873398Y-273388328D02*
X313016255Y-273388328D01*
X314230541Y-271888328D02*
X313516255Y-271888328D01*
X313516255Y-271888328D02*
X313444827Y-272602614D01*
X313444827Y-272602614D02*
X313516255Y-272531185D01*
X313516255Y-272531185D02*
X313659113Y-272459757D01*
X313659113Y-272459757D02*
X314016255Y-272459757D01*
X314016255Y-272459757D02*
X314159113Y-272531185D01*
X314159113Y-272531185D02*
X314230541Y-272602614D01*
X314230541Y-272602614D02*
X314301970Y-272745471D01*
X314301970Y-272745471D02*
X314301970Y-273102614D01*
X314301970Y-273102614D02*
X314230541Y-273245471D01*
X314230541Y-273245471D02*
X314159113Y-273316900D01*
X314159113Y-273316900D02*
X314016255Y-273388328D01*
X314016255Y-273388328D02*
X313659113Y-273388328D01*
X313659113Y-273388328D02*
X313516255Y-273316900D01*
X313516255Y-273316900D02*
X313444827Y-273245471D01*
X315159112Y-272531185D02*
X315016255Y-272459757D01*
X315016255Y-272459757D02*
X314944826Y-272388328D01*
X314944826Y-272388328D02*
X314873398Y-272245471D01*
X314873398Y-272245471D02*
X314873398Y-272174042D01*
X314873398Y-272174042D02*
X314944826Y-272031185D01*
X314944826Y-272031185D02*
X315016255Y-271959757D01*
X315016255Y-271959757D02*
X315159112Y-271888328D01*
X315159112Y-271888328D02*
X315444826Y-271888328D01*
X315444826Y-271888328D02*
X315587684Y-271959757D01*
X315587684Y-271959757D02*
X315659112Y-272031185D01*
X315659112Y-272031185D02*
X315730541Y-272174042D01*
X315730541Y-272174042D02*
X315730541Y-272245471D01*
X315730541Y-272245471D02*
X315659112Y-272388328D01*
X315659112Y-272388328D02*
X315587684Y-272459757D01*
X315587684Y-272459757D02*
X315444826Y-272531185D01*
X315444826Y-272531185D02*
X315159112Y-272531185D01*
X315159112Y-272531185D02*
X315016255Y-272602614D01*
X315016255Y-272602614D02*
X314944826Y-272674042D01*
X314944826Y-272674042D02*
X314873398Y-272816900D01*
X314873398Y-272816900D02*
X314873398Y-273102614D01*
X314873398Y-273102614D02*
X314944826Y-273245471D01*
X314944826Y-273245471D02*
X315016255Y-273316900D01*
X315016255Y-273316900D02*
X315159112Y-273388328D01*
X315159112Y-273388328D02*
X315444826Y-273388328D01*
X315444826Y-273388328D02*
X315587684Y-273316900D01*
X315587684Y-273316900D02*
X315659112Y-273245471D01*
X315659112Y-273245471D02*
X315730541Y-273102614D01*
X315730541Y-273102614D02*
X315730541Y-272816900D01*
X315730541Y-272816900D02*
X315659112Y-272674042D01*
X315659112Y-272674042D02*
X315587684Y-272602614D01*
X315587684Y-272602614D02*
X315444826Y-272531185D01*
X316373397Y-273245471D02*
X316444826Y-273316900D01*
X316444826Y-273316900D02*
X316373397Y-273388328D01*
X316373397Y-273388328D02*
X316301969Y-273316900D01*
X316301969Y-273316900D02*
X316373397Y-273245471D01*
X316373397Y-273245471D02*
X316373397Y-273388328D01*
X317087683Y-273388328D02*
X317087683Y-271888328D01*
X317230541Y-272816900D02*
X317659112Y-273388328D01*
X317659112Y-272388328D02*
X317087683Y-272959757D01*
X318301969Y-273388328D02*
X318301969Y-272388328D01*
X318301969Y-271888328D02*
X318230541Y-271959757D01*
X318230541Y-271959757D02*
X318301969Y-272031185D01*
X318301969Y-272031185D02*
X318373398Y-271959757D01*
X318373398Y-271959757D02*
X318301969Y-271888328D01*
X318301969Y-271888328D02*
X318301969Y-272031185D01*
X319659113Y-273316900D02*
X319516255Y-273388328D01*
X319516255Y-273388328D02*
X319230541Y-273388328D01*
X319230541Y-273388328D02*
X319087684Y-273316900D01*
X319087684Y-273316900D02*
X319016255Y-273245471D01*
X319016255Y-273245471D02*
X318944827Y-273102614D01*
X318944827Y-273102614D02*
X318944827Y-272674042D01*
X318944827Y-272674042D02*
X319016255Y-272531185D01*
X319016255Y-272531185D02*
X319087684Y-272459757D01*
X319087684Y-272459757D02*
X319230541Y-272388328D01*
X319230541Y-272388328D02*
X319516255Y-272388328D01*
X319516255Y-272388328D02*
X319659113Y-272459757D01*
X320944827Y-273388328D02*
X320944827Y-272602614D01*
X320944827Y-272602614D02*
X320873398Y-272459757D01*
X320873398Y-272459757D02*
X320730541Y-272388328D01*
X320730541Y-272388328D02*
X320444827Y-272388328D01*
X320444827Y-272388328D02*
X320301969Y-272459757D01*
X320944827Y-273316900D02*
X320801969Y-273388328D01*
X320801969Y-273388328D02*
X320444827Y-273388328D01*
X320444827Y-273388328D02*
X320301969Y-273316900D01*
X320301969Y-273316900D02*
X320230541Y-273174042D01*
X320230541Y-273174042D02*
X320230541Y-273031185D01*
X320230541Y-273031185D02*
X320301969Y-272888328D01*
X320301969Y-272888328D02*
X320444827Y-272816900D01*
X320444827Y-272816900D02*
X320801969Y-272816900D01*
X320801969Y-272816900D02*
X320944827Y-272745471D01*
X322301970Y-273388328D02*
X322301970Y-271888328D01*
X322301970Y-273316900D02*
X322159112Y-273388328D01*
X322159112Y-273388328D02*
X321873398Y-273388328D01*
X321873398Y-273388328D02*
X321730541Y-273316900D01*
X321730541Y-273316900D02*
X321659112Y-273245471D01*
X321659112Y-273245471D02*
X321587684Y-273102614D01*
X321587684Y-273102614D02*
X321587684Y-272674042D01*
X321587684Y-272674042D02*
X321659112Y-272531185D01*
X321659112Y-272531185D02*
X321730541Y-272459757D01*
X321730541Y-272459757D02*
X321873398Y-272388328D01*
X321873398Y-272388328D02*
X322159112Y-272388328D01*
X322159112Y-272388328D02*
X322301970Y-272459757D01*
X322659113Y-273531185D02*
X323801970Y-273531185D01*
X324159112Y-272388328D02*
X324159112Y-273888328D01*
X324159112Y-272459757D02*
X324301970Y-272388328D01*
X324301970Y-272388328D02*
X324587684Y-272388328D01*
X324587684Y-272388328D02*
X324730541Y-272459757D01*
X324730541Y-272459757D02*
X324801970Y-272531185D01*
X324801970Y-272531185D02*
X324873398Y-272674042D01*
X324873398Y-272674042D02*
X324873398Y-273102614D01*
X324873398Y-273102614D02*
X324801970Y-273245471D01*
X324801970Y-273245471D02*
X324730541Y-273316900D01*
X324730541Y-273316900D02*
X324587684Y-273388328D01*
X324587684Y-273388328D02*
X324301970Y-273388328D01*
X324301970Y-273388328D02*
X324159112Y-273316900D01*
X326159113Y-273316900D02*
X326016255Y-273388328D01*
X326016255Y-273388328D02*
X325730541Y-273388328D01*
X325730541Y-273388328D02*
X325587684Y-273316900D01*
X325587684Y-273316900D02*
X325516255Y-273245471D01*
X325516255Y-273245471D02*
X325444827Y-273102614D01*
X325444827Y-273102614D02*
X325444827Y-272674042D01*
X325444827Y-272674042D02*
X325516255Y-272531185D01*
X325516255Y-272531185D02*
X325587684Y-272459757D01*
X325587684Y-272459757D02*
X325730541Y-272388328D01*
X325730541Y-272388328D02*
X326016255Y-272388328D01*
X326016255Y-272388328D02*
X326159113Y-272459757D01*
X326801969Y-273388328D02*
X326801969Y-271888328D01*
X326801969Y-272459757D02*
X326944827Y-272388328D01*
X326944827Y-272388328D02*
X327230541Y-272388328D01*
X327230541Y-272388328D02*
X327373398Y-272459757D01*
X327373398Y-272459757D02*
X327444827Y-272531185D01*
X327444827Y-272531185D02*
X327516255Y-272674042D01*
X327516255Y-272674042D02*
X327516255Y-273102614D01*
X327516255Y-273102614D02*
X327444827Y-273245471D01*
X327444827Y-273245471D02*
X327373398Y-273316900D01*
X327373398Y-273316900D02*
X327230541Y-273388328D01*
X327230541Y-273388328D02*
X326944827Y-273388328D01*
X326944827Y-273388328D02*
X326801969Y-273316900D01*
D10*
D11*
X299989000Y-268502200D02*
X407989000Y-268502200D01*
D10*
D11*
X301373398Y-270616900D02*
X301587684Y-270688328D01*
X301587684Y-270688328D02*
X301944826Y-270688328D01*
X301944826Y-270688328D02*
X302087684Y-270616900D01*
X302087684Y-270616900D02*
X302159112Y-270545471D01*
X302159112Y-270545471D02*
X302230541Y-270402614D01*
X302230541Y-270402614D02*
X302230541Y-270259757D01*
X302230541Y-270259757D02*
X302159112Y-270116900D01*
X302159112Y-270116900D02*
X302087684Y-270045471D01*
X302087684Y-270045471D02*
X301944826Y-269974042D01*
X301944826Y-269974042D02*
X301659112Y-269902614D01*
X301659112Y-269902614D02*
X301516255Y-269831185D01*
X301516255Y-269831185D02*
X301444826Y-269759757D01*
X301444826Y-269759757D02*
X301373398Y-269616900D01*
X301373398Y-269616900D02*
X301373398Y-269474042D01*
X301373398Y-269474042D02*
X301444826Y-269331185D01*
X301444826Y-269331185D02*
X301516255Y-269259757D01*
X301516255Y-269259757D02*
X301659112Y-269188328D01*
X301659112Y-269188328D02*
X302016255Y-269188328D01*
X302016255Y-269188328D02*
X302230541Y-269259757D01*
X302873397Y-270688328D02*
X302873397Y-269188328D01*
X303516255Y-270688328D02*
X303516255Y-269902614D01*
X303516255Y-269902614D02*
X303444826Y-269759757D01*
X303444826Y-269759757D02*
X303301969Y-269688328D01*
X303301969Y-269688328D02*
X303087683Y-269688328D01*
X303087683Y-269688328D02*
X302944826Y-269759757D01*
X302944826Y-269759757D02*
X302873397Y-269831185D01*
X304801969Y-270616900D02*
X304659112Y-270688328D01*
X304659112Y-270688328D02*
X304373398Y-270688328D01*
X304373398Y-270688328D02*
X304230540Y-270616900D01*
X304230540Y-270616900D02*
X304159112Y-270474042D01*
X304159112Y-270474042D02*
X304159112Y-269902614D01*
X304159112Y-269902614D02*
X304230540Y-269759757D01*
X304230540Y-269759757D02*
X304373398Y-269688328D01*
X304373398Y-269688328D02*
X304659112Y-269688328D01*
X304659112Y-269688328D02*
X304801969Y-269759757D01*
X304801969Y-269759757D02*
X304873398Y-269902614D01*
X304873398Y-269902614D02*
X304873398Y-270045471D01*
X304873398Y-270045471D02*
X304159112Y-270188328D01*
X306087683Y-270616900D02*
X305944826Y-270688328D01*
X305944826Y-270688328D02*
X305659112Y-270688328D01*
X305659112Y-270688328D02*
X305516254Y-270616900D01*
X305516254Y-270616900D02*
X305444826Y-270474042D01*
X305444826Y-270474042D02*
X305444826Y-269902614D01*
X305444826Y-269902614D02*
X305516254Y-269759757D01*
X305516254Y-269759757D02*
X305659112Y-269688328D01*
X305659112Y-269688328D02*
X305944826Y-269688328D01*
X305944826Y-269688328D02*
X306087683Y-269759757D01*
X306087683Y-269759757D02*
X306159112Y-269902614D01*
X306159112Y-269902614D02*
X306159112Y-270045471D01*
X306159112Y-270045471D02*
X305444826Y-270188328D01*
X306587683Y-269688328D02*
X307159111Y-269688328D01*
X306801968Y-269188328D02*
X306801968Y-270474042D01*
X306801968Y-270474042D02*
X306873397Y-270616900D01*
X306873397Y-270616900D02*
X307016254Y-270688328D01*
X307016254Y-270688328D02*
X307159111Y-270688328D01*
X307659111Y-270545471D02*
X307730540Y-270616900D01*
X307730540Y-270616900D02*
X307659111Y-270688328D01*
X307659111Y-270688328D02*
X307587683Y-270616900D01*
X307587683Y-270616900D02*
X307659111Y-270545471D01*
X307659111Y-270545471D02*
X307659111Y-270688328D01*
X307659111Y-269759757D02*
X307730540Y-269831185D01*
X307730540Y-269831185D02*
X307659111Y-269902614D01*
X307659111Y-269902614D02*
X307587683Y-269831185D01*
X307587683Y-269831185D02*
X307659111Y-269759757D01*
X307659111Y-269759757D02*
X307659111Y-269902614D01*
D10*
D12*
X301329225Y-266180528D02*
X301829225Y-267680528D01*
X301829225Y-267680528D02*
X302329225Y-266180528D01*
X303472082Y-267680528D02*
X303472082Y-266894814D01*
X303472082Y-266894814D02*
X303400653Y-266751957D01*
X303400653Y-266751957D02*
X303257796Y-266680528D01*
X303257796Y-266680528D02*
X302972082Y-266680528D01*
X302972082Y-266680528D02*
X302829224Y-266751957D01*
X303472082Y-267609100D02*
X303329224Y-267680528D01*
X303329224Y-267680528D02*
X302972082Y-267680528D01*
X302972082Y-267680528D02*
X302829224Y-267609100D01*
X302829224Y-267609100D02*
X302757796Y-267466242D01*
X302757796Y-267466242D02*
X302757796Y-267323385D01*
X302757796Y-267323385D02*
X302829224Y-267180528D01*
X302829224Y-267180528D02*
X302972082Y-267109100D01*
X302972082Y-267109100D02*
X303329224Y-267109100D01*
X303329224Y-267109100D02*
X303472082Y-267037671D01*
X304829225Y-267609100D02*
X304686367Y-267680528D01*
X304686367Y-267680528D02*
X304400653Y-267680528D01*
X304400653Y-267680528D02*
X304257796Y-267609100D01*
X304257796Y-267609100D02*
X304186367Y-267537671D01*
X304186367Y-267537671D02*
X304114939Y-267394814D01*
X304114939Y-267394814D02*
X304114939Y-266966242D01*
X304114939Y-266966242D02*
X304186367Y-266823385D01*
X304186367Y-266823385D02*
X304257796Y-266751957D01*
X304257796Y-266751957D02*
X304400653Y-266680528D01*
X304400653Y-266680528D02*
X304686367Y-266680528D01*
X304686367Y-266680528D02*
X304829225Y-266751957D01*
X306114939Y-267680528D02*
X306114939Y-266894814D01*
X306114939Y-266894814D02*
X306043510Y-266751957D01*
X306043510Y-266751957D02*
X305900653Y-266680528D01*
X305900653Y-266680528D02*
X305614939Y-266680528D01*
X305614939Y-266680528D02*
X305472081Y-266751957D01*
X306114939Y-267609100D02*
X305972081Y-267680528D01*
X305972081Y-267680528D02*
X305614939Y-267680528D01*
X305614939Y-267680528D02*
X305472081Y-267609100D01*
X305472081Y-267609100D02*
X305400653Y-267466242D01*
X305400653Y-267466242D02*
X305400653Y-267323385D01*
X305400653Y-267323385D02*
X305472081Y-267180528D01*
X305472081Y-267180528D02*
X305614939Y-267109100D01*
X305614939Y-267109100D02*
X305972081Y-267109100D01*
X305972081Y-267109100D02*
X306114939Y-267037671D01*
X306829224Y-266680528D02*
X306829224Y-267680528D01*
X306829224Y-266823385D02*
X306900653Y-266751957D01*
X306900653Y-266751957D02*
X307043510Y-266680528D01*
X307043510Y-266680528D02*
X307257796Y-266680528D01*
X307257796Y-266680528D02*
X307400653Y-266751957D01*
X307400653Y-266751957D02*
X307472082Y-266894814D01*
X307472082Y-266894814D02*
X307472082Y-267680528D01*
X307972082Y-266680528D02*
X308543510Y-266680528D01*
X308186367Y-266180528D02*
X308186367Y-267466242D01*
X308186367Y-267466242D02*
X308257796Y-267609100D01*
X308257796Y-267609100D02*
X308400653Y-267680528D01*
X308400653Y-267680528D02*
X308543510Y-267680528D01*
X309329225Y-266180528D02*
X309472082Y-266180528D01*
X309472082Y-266180528D02*
X309614939Y-266251957D01*
X309614939Y-266251957D02*
X309686368Y-266323385D01*
X309686368Y-266323385D02*
X309757796Y-266466242D01*
X309757796Y-266466242D02*
X309829225Y-266751957D01*
X309829225Y-266751957D02*
X309829225Y-267109100D01*
X309829225Y-267109100D02*
X309757796Y-267394814D01*
X309757796Y-267394814D02*
X309686368Y-267537671D01*
X309686368Y-267537671D02*
X309614939Y-267609100D01*
X309614939Y-267609100D02*
X309472082Y-267680528D01*
X309472082Y-267680528D02*
X309329225Y-267680528D01*
X309329225Y-267680528D02*
X309186368Y-267609100D01*
X309186368Y-267609100D02*
X309114939Y-267537671D01*
X309114939Y-267537671D02*
X309043510Y-267394814D01*
X309043510Y-267394814D02*
X308972082Y-267109100D01*
X308972082Y-267109100D02*
X308972082Y-266751957D01*
X308972082Y-266751957D02*
X309043510Y-266466242D01*
X309043510Y-266466242D02*
X309114939Y-266323385D01*
X309114939Y-266323385D02*
X309186368Y-266251957D01*
X309186368Y-266251957D02*
X309329225Y-266180528D01*
X310472081Y-267680528D02*
X310472081Y-266680528D01*
X310472081Y-266823385D02*
X310543510Y-266751957D01*
X310543510Y-266751957D02*
X310686367Y-266680528D01*
X310686367Y-266680528D02*
X310900653Y-266680528D01*
X310900653Y-266680528D02*
X311043510Y-266751957D01*
X311043510Y-266751957D02*
X311114939Y-266894814D01*
X311114939Y-266894814D02*
X311114939Y-267680528D01*
X311114939Y-266894814D02*
X311186367Y-266751957D01*
X311186367Y-266751957D02*
X311329224Y-266680528D01*
X311329224Y-266680528D02*
X311543510Y-266680528D01*
X311543510Y-266680528D02*
X311686367Y-266751957D01*
X311686367Y-266751957D02*
X311757796Y-266894814D01*
X311757796Y-266894814D02*
X311757796Y-267680528D01*
X313043510Y-267609100D02*
X312900653Y-267680528D01*
X312900653Y-267680528D02*
X312614939Y-267680528D01*
X312614939Y-267680528D02*
X312472081Y-267609100D01*
X312472081Y-267609100D02*
X312400653Y-267466242D01*
X312400653Y-267466242D02*
X312400653Y-266894814D01*
X312400653Y-266894814D02*
X312472081Y-266751957D01*
X312472081Y-266751957D02*
X312614939Y-266680528D01*
X312614939Y-266680528D02*
X312900653Y-266680528D01*
X312900653Y-266680528D02*
X313043510Y-266751957D01*
X313043510Y-266751957D02*
X313114939Y-266894814D01*
X313114939Y-266894814D02*
X313114939Y-267037671D01*
X313114939Y-267037671D02*
X312400653Y-267180528D01*
X313757795Y-266680528D02*
X313757795Y-267680528D01*
X313757795Y-266823385D02*
X313829224Y-266751957D01*
X313829224Y-266751957D02*
X313972081Y-266680528D01*
X313972081Y-266680528D02*
X314186367Y-266680528D01*
X314186367Y-266680528D02*
X314329224Y-266751957D01*
X314329224Y-266751957D02*
X314400653Y-266894814D01*
X314400653Y-266894814D02*
X314400653Y-267680528D01*
X315043510Y-267609100D02*
X315186367Y-267680528D01*
X315186367Y-267680528D02*
X315472081Y-267680528D01*
X315472081Y-267680528D02*
X315614938Y-267609100D01*
X315614938Y-267609100D02*
X315686367Y-267466242D01*
X315686367Y-267466242D02*
X315686367Y-267394814D01*
X315686367Y-267394814D02*
X315614938Y-267251957D01*
X315614938Y-267251957D02*
X315472081Y-267180528D01*
X315472081Y-267180528D02*
X315257796Y-267180528D01*
X315257796Y-267180528D02*
X315114938Y-267109100D01*
X315114938Y-267109100D02*
X315043510Y-266966242D01*
X315043510Y-266966242D02*
X315043510Y-266894814D01*
X315043510Y-266894814D02*
X315114938Y-266751957D01*
X315114938Y-266751957D02*
X315257796Y-266680528D01*
X315257796Y-266680528D02*
X315472081Y-266680528D01*
X315472081Y-266680528D02*
X315614938Y-266751957D01*
D10*
D11*
X319989000Y-278502200D02*
X319989000Y-281502200D01*
D10*
D11*
X383989000Y-278502200D02*
X383989000Y-285002200D01*
D14*
%TO.P,U_3,1*%
%TO.N,u04*%
X105875000Y-93700000D03*
%TO.P,U_3,2*%
%TO.N,VCC*%
X107625000Y-93700000D03*
%TO.P,U_3,3*%
%TO.N,u03*%
X107625000Y-89300000D03*
%TO.P,U_3,4*%
%TO.N,GND*%
X105875000Y-89300000D03*
D15*
%TO.P,U_3,11*%
%TO.N,u04*%
X105150000Y-94000000D03*
%TO.P,U_3,22*%
%TO.N,VCC*%
X108350000Y-94000000D03*
%TO.P,U_3,33*%
%TO.N,u03*%
X108350000Y-89000000D03*
%TO.P,U_3,44*%
%TO.N,GND*%
X105150000Y-89000000D03*
%TD*%
D16*
%TO.P,Rotary1,*%
%TO.N,*%
X164640000Y-94880000D03*
X153440000Y-94880000D03*
D17*
%TO.P,Rotary1,1*%
%TO.N,P14*%
X161540000Y-101880000D03*
%TO.P,Rotary1,2*%
%TO.N,P6*%
X156540000Y-101880000D03*
D18*
%TO.P,Rotary1,A*%
%TO.N,P7*%
X161540000Y-87380000D03*
D19*
%TO.P,Rotary1,B*%
%TO.N,P8*%
X156540000Y-87380000D03*
%TO.P,Rotary1,C*%
%TO.N,GND*%
X159040000Y-87380000D03*
%TD*%
D20*
%TO.P,RST1,1*%
%TO.N,GND*%
X169450000Y-95375000D03*
%TO.P,RST1,2*%
%TO.N,RST*%
X167750000Y-95375000D03*
%TO.P,RST1,3*%
%TO.N,GND*%
X169450000Y-100625000D03*
%TO.P,RST1,4*%
%TO.N,RST*%
X167750000Y-100625000D03*
%TD*%
D21*
%TO.P,TRRS1,1*%
%TO.N,VCC*%
X159700000Y-76700000D03*
X159700000Y-79000000D03*
%TO.P,TRRS1,2*%
%TO.N,P0*%
X160800000Y-74400000D03*
X160800000Y-81300000D03*
%TO.P,TRRS1,3*%
%TO.N,P1*%
X164800000Y-74400000D03*
X164800000Y-81300000D03*
%TO.P,TRRS1,4*%
%TO.N,GND*%
X167800000Y-74400000D03*
X167800000Y-81300000D03*
%TD*%
D14*
%TO.P,U_4,1*%
%TO.N,u03*%
X105875000Y-55700000D03*
%TO.P,U_4,2*%
%TO.N,VCC*%
X107625000Y-55700000D03*
%TO.P,U_4,3*%
%TO.N,u02*%
X107625000Y-51300000D03*
%TO.P,U_4,4*%
%TO.N,GND*%
X105875000Y-51300000D03*
D15*
%TO.P,U_4,11*%
%TO.N,u03*%
X105150000Y-56000000D03*
%TO.P,U_4,22*%
%TO.N,VCC*%
X108350000Y-56000000D03*
%TO.P,U_4,33*%
%TO.N,u02*%
X108350000Y-51000000D03*
%TO.P,U_4,44*%
%TO.N,GND*%
X105150000Y-51000000D03*
%TD*%
D14*
%TO.P,U_6,1*%
%TO.N,u06*%
X146875000Y-58800000D03*
%TO.P,U_6,2*%
%TO.N,VCC*%
X145125000Y-58800000D03*
%TO.P,U_6,3*%
%TO.N,u05*%
X145125000Y-63200000D03*
%TO.P,U_6,4*%
%TO.N,GND*%
X146875000Y-63200000D03*
D15*
%TO.P,U_6,11*%
%TO.N,u06*%
X147600000Y-58500000D03*
%TO.P,U_6,22*%
%TO.N,VCC*%
X144400000Y-58500000D03*
%TO.P,U_6,33*%
%TO.N,u05*%
X144400000Y-63500000D03*
%TO.P,U_6,44*%
%TO.N,GND*%
X147600000Y-63500000D03*
%TD*%
D22*
%TO.P,MCU1,*%
%TO.N,*%
X168608000Y-41320000D03*
D23*
X168608000Y-41320000D03*
D24*
X167338000Y-41320000D03*
D25*
X166830000Y-41320000D03*
D26*
X155146000Y-41320000D03*
D27*
X154638000Y-41320000D03*
D22*
X153368000Y-41320000D03*
X168608000Y-43860000D03*
D24*
X167338000Y-43860000D03*
D25*
X166830000Y-43860000D03*
D26*
X155146000Y-43860000D03*
D27*
X154638000Y-43860000D03*
D22*
X153368000Y-43860000D03*
X168608000Y-46400000D03*
D24*
X167338000Y-46400000D03*
D25*
X166830000Y-46400000D03*
D26*
X155146000Y-46400000D03*
D27*
X154638000Y-46400000D03*
D22*
X153368000Y-46400000D03*
X168608000Y-48940000D03*
D24*
X167338000Y-48940000D03*
D25*
X166830000Y-48940000D03*
D26*
X155146000Y-48940000D03*
D27*
X154638000Y-48940000D03*
D22*
X153368000Y-48940000D03*
X168608000Y-51480000D03*
D24*
X167338000Y-51480000D03*
D25*
X166830000Y-51480000D03*
D26*
X155146000Y-51480000D03*
D27*
X154638000Y-51480000D03*
D22*
X153368000Y-51480000D03*
X168608000Y-54020000D03*
D24*
X167338000Y-54020000D03*
D25*
X166830000Y-54020000D03*
D26*
X155146000Y-54020000D03*
D27*
X154638000Y-54020000D03*
D22*
X153368000Y-54020000D03*
X168608000Y-56560000D03*
D24*
X167338000Y-56560000D03*
D25*
X166830000Y-56560000D03*
D26*
X155146000Y-56560000D03*
D27*
X154638000Y-56560000D03*
D22*
X153368000Y-56560000D03*
X168608000Y-59100000D03*
D24*
X167338000Y-59100000D03*
D25*
X166830000Y-59100000D03*
D26*
X155146000Y-59100000D03*
D27*
X154638000Y-59100000D03*
D22*
X153368000Y-59100000D03*
X168608000Y-61640000D03*
D24*
X167338000Y-61640000D03*
D25*
X166830000Y-61640000D03*
D26*
X155146000Y-61640000D03*
D27*
X154638000Y-61640000D03*
D22*
X153368000Y-61640000D03*
X168608000Y-64180000D03*
D24*
X167338000Y-64180000D03*
D25*
X166830000Y-64180000D03*
D26*
X155146000Y-64180000D03*
D27*
X154638000Y-64180000D03*
D22*
X153368000Y-64180000D03*
X168608000Y-66720000D03*
D24*
X167338000Y-66720000D03*
D25*
X166830000Y-66720000D03*
D26*
X155146000Y-66720000D03*
D27*
X154638000Y-66720000D03*
D22*
X153368000Y-66720000D03*
X168608000Y-69260000D03*
D24*
X167338000Y-69260000D03*
D25*
X166830000Y-69260000D03*
D26*
X155146000Y-69260000D03*
D27*
X154638000Y-69260000D03*
D22*
X153368000Y-69260000D03*
D28*
%TO.P,MCU1,1*%
%TO.N,RAW*%
X161750000Y-41320000D03*
D29*
X161750000Y-41320000D03*
D30*
X156162000Y-41320000D03*
D28*
%TO.P,MCU1,2*%
%TO.N,GND*%
X161750000Y-43860000D03*
D29*
X161750000Y-43860000D03*
D30*
X156162000Y-43860000D03*
D28*
%TO.P,MCU1,3*%
%TO.N,RST*%
X161750000Y-46400000D03*
D29*
X161750000Y-46400000D03*
D30*
X156162000Y-46400000D03*
D28*
%TO.P,MCU1,4*%
%TO.N,VCC*%
X161750000Y-48940000D03*
D29*
X161750000Y-48940000D03*
D30*
X156162000Y-48940000D03*
D28*
%TO.P,MCU1,5*%
%TO.N,P21*%
X161750000Y-51480000D03*
D29*
X161750000Y-51480000D03*
D30*
X156162000Y-51480000D03*
D28*
%TO.P,MCU1,6*%
%TO.N,P20*%
X161750000Y-54020000D03*
D29*
X161750000Y-54020000D03*
D30*
X156162000Y-54020000D03*
D28*
%TO.P,MCU1,7*%
%TO.N,P19*%
X161750000Y-56560000D03*
D29*
X161750000Y-56560000D03*
D30*
X156162000Y-56560000D03*
D28*
%TO.P,MCU1,8*%
%TO.N,P18*%
X161750000Y-59100000D03*
D29*
X161750000Y-59100000D03*
D30*
X156162000Y-59100000D03*
D28*
%TO.P,MCU1,9*%
%TO.N,P15*%
X161750000Y-61640000D03*
D29*
X161750000Y-61640000D03*
D30*
X156162000Y-61640000D03*
D28*
%TO.P,MCU1,10*%
%TO.N,P14*%
X161750000Y-64180000D03*
D29*
X161750000Y-64180000D03*
D30*
X156162000Y-64180000D03*
D28*
%TO.P,MCU1,11*%
%TO.N,P16*%
X161750000Y-66720000D03*
D29*
X161750000Y-66720000D03*
D30*
X156162000Y-66720000D03*
D28*
%TO.P,MCU1,12*%
%TO.N,P10*%
X161750000Y-69260000D03*
D29*
X161750000Y-69260000D03*
D30*
X156162000Y-69260000D03*
D31*
%TO.P,MCU1,13*%
%TO.N,P9*%
X165814000Y-69260000D03*
D32*
X160226000Y-69260000D03*
D29*
X160226000Y-69260000D03*
D31*
%TO.P,MCU1,14*%
%TO.N,P8*%
X165814000Y-66720000D03*
D32*
X160226000Y-66720000D03*
D29*
X160226000Y-66720000D03*
D31*
%TO.P,MCU1,15*%
%TO.N,P7*%
X165814000Y-64180000D03*
D32*
X160226000Y-64180000D03*
D29*
X160226000Y-64180000D03*
D31*
%TO.P,MCU1,16*%
%TO.N,P6*%
X165814000Y-61640000D03*
D32*
X160226000Y-61640000D03*
D29*
X160226000Y-61640000D03*
D31*
%TO.P,MCU1,17*%
%TO.N,P5*%
X165814000Y-59100000D03*
D32*
X160226000Y-59100000D03*
D29*
X160226000Y-59100000D03*
D31*
%TO.P,MCU1,18*%
%TO.N,P4*%
X165814000Y-56560000D03*
D32*
X160226000Y-56560000D03*
D29*
X160226000Y-56560000D03*
D31*
%TO.P,MCU1,19*%
%TO.N,P3*%
X165814000Y-54020000D03*
D32*
X160226000Y-54020000D03*
D29*
X160226000Y-54020000D03*
D31*
%TO.P,MCU1,20*%
%TO.N,P2*%
X165814000Y-51480000D03*
D32*
X160226000Y-51480000D03*
D29*
X160226000Y-51480000D03*
D31*
%TO.P,MCU1,21*%
%TO.N,GND*%
X165814000Y-48940000D03*
D32*
X160226000Y-48940000D03*
D29*
X160226000Y-48940000D03*
D31*
%TO.P,MCU1,22*%
X165814000Y-46400000D03*
D32*
X160226000Y-46400000D03*
D29*
X160226000Y-46400000D03*
D31*
%TO.P,MCU1,23*%
%TO.N,P0*%
X165814000Y-43860000D03*
D32*
X160226000Y-43860000D03*
D29*
X160226000Y-43860000D03*
D31*
%TO.P,MCU1,24*%
%TO.N,P1*%
X165814000Y-41320000D03*
D32*
X160226000Y-41320000D03*
D29*
X160226000Y-41320000D03*
%TD*%
D14*
%TO.P,U_5,1*%
%TO.N,u05*%
X146875000Y-96800000D03*
%TO.P,U_5,2*%
%TO.N,VCC*%
X145125000Y-96800000D03*
%TO.P,U_5,3*%
%TO.N,u04*%
X145125000Y-101200000D03*
%TO.P,U_5,4*%
%TO.N,GND*%
X146875000Y-101200000D03*
D15*
%TO.P,U_5,11*%
%TO.N,u05*%
X147600000Y-96500000D03*
%TO.P,U_5,22*%
%TO.N,VCC*%
X144400000Y-96500000D03*
%TO.P,U_5,33*%
%TO.N,u04*%
X144400000Y-101500000D03*
%TO.P,U_5,44*%
%TO.N,GND*%
X147600000Y-101500000D03*
%TD*%
D14*
%TO.P,U_1,1*%
%TO.N,u01*%
X69625000Y-89150000D03*
%TO.P,U_1,2*%
%TO.N,VCC*%
X67875000Y-89150000D03*
%TO.P,U_1,3*%
%TO.N,r0c1*%
X67875000Y-93550000D03*
%TO.P,U_1,4*%
%TO.N,GND*%
X69625000Y-93550000D03*
D15*
%TO.P,U_1,11*%
%TO.N,u01*%
X70350000Y-88850000D03*
%TO.P,U_1,22*%
%TO.N,VCC*%
X67150000Y-88850000D03*
%TO.P,U_1,33*%
%TO.N,r0c1*%
X67150000Y-93850000D03*
%TO.P,U_1,44*%
%TO.N,GND*%
X70350000Y-93850000D03*
%TD*%
D14*
%TO.P,U_2,1*%
%TO.N,u02*%
X69625000Y-51150000D03*
%TO.P,U_2,2*%
%TO.N,VCC*%
X67875000Y-51150000D03*
%TO.P,U_2,3*%
%TO.N,u01*%
X67875000Y-55550000D03*
%TO.P,U_2,4*%
%TO.N,GND*%
X69625000Y-55550000D03*
D15*
%TO.P,U_2,11*%
%TO.N,u02*%
X70350000Y-50850000D03*
%TO.P,U_2,22*%
%TO.N,VCC*%
X67150000Y-50850000D03*
%TO.P,U_2,33*%
%TO.N,u01*%
X67150000Y-55850000D03*
%TO.P,U_2,44*%
%TO.N,GND*%
X70350000Y-55850000D03*
%TD*%
D33*
%TO.P,SW26,*%
%TO.N,VCC*%
X102500000Y-123000000D03*
D34*
%TO.N,r0c3*%
X102000000Y-117850000D03*
D35*
%TO.N,*%
X97000000Y-128950000D03*
D36*
X97000000Y-123000000D03*
D34*
%TO.N,r0c2*%
X92000000Y-117850000D03*
D33*
%TO.N,GND*%
X91500000Y-123000000D03*
D35*
%TO.P,SW26,1*%
%TO.N,P6*%
X102000000Y-126750000D03*
D37*
X100245000Y-128950000D03*
D35*
%TO.P,SW26,2*%
%TO.N,DP20*%
X92000000Y-126750000D03*
D38*
X89352500Y-126750000D03*
%TD*%
D39*
%TO.P,D29,1*%
%TO.N,P15*%
X152743400Y-131030027D03*
%TO.P,D29,2*%
%TO.N,DP15*%
X150622200Y-133557973D03*
%TD*%
D40*
%TO.P,L8,1*%
%TO.N,VCC*%
X61700000Y-50700000D03*
%TO.P,L8,2*%
%TO.N,r4c2*%
X61700000Y-49300000D03*
%TO.P,L8,3*%
%TO.N,GND*%
X56300000Y-49300000D03*
%TO.P,L8,4*%
%TO.N,r4c1*%
X56300000Y-50700000D03*
%TD*%
D41*
%TO.P,D15,1*%
%TO.N,P18*%
X89000000Y-54250000D03*
%TO.P,D15,2*%
%TO.N,DP18*%
X89000000Y-57550000D03*
%TD*%
D40*
%TO.P,L11,1*%
%TO.N,VCC*%
X80700000Y-57700000D03*
%TO.P,L11,2*%
%TO.N,r3c3*%
X80700000Y-56300000D03*
%TO.P,L11,3*%
%TO.N,GND*%
X75300000Y-56300000D03*
%TO.P,L11,4*%
%TO.N,r3c2*%
X75300000Y-57700000D03*
%TD*%
D33*
%TO.P,SW22,*%
%TO.N,VCC*%
X140500000Y-87000000D03*
D34*
%TO.N,r3c0*%
X140000000Y-81850000D03*
D35*
%TO.N,*%
X135000000Y-92950000D03*
D36*
X135000000Y-87000000D03*
D34*
%TO.N,r2c5*%
X130000000Y-81850000D03*
D33*
%TO.N,GND*%
X129500000Y-87000000D03*
D35*
%TO.P,SW22,1*%
%TO.N,P4*%
X140000000Y-90750000D03*
D37*
X138245000Y-92950000D03*
D35*
%TO.P,SW22,2*%
%TO.N,DP14*%
X130000000Y-90750000D03*
D38*
X127352500Y-90750000D03*
%TD*%
D40*
%TO.P,L22,1*%
%TO.N,VCC*%
X137700000Y-82700000D03*
%TO.P,L22,2*%
%TO.N,r3c0*%
X137700000Y-81300000D03*
%TO.P,L22,3*%
%TO.N,GND*%
X132300000Y-81300000D03*
%TO.P,L22,4*%
%TO.N,r2c5*%
X132300000Y-82700000D03*
%TD*%
D41*
%TO.P,D26,1*%
%TO.N,P20*%
X89000000Y-119250000D03*
%TO.P,D26,2*%
%TO.N,DP20*%
X89000000Y-122550000D03*
%TD*%
D33*
%TO.P,SW20,*%
%TO.N,VCC*%
X121500000Y-43000000D03*
D34*
%TO.N,r4c5*%
X121000000Y-37850000D03*
D35*
%TO.N,*%
X116000000Y-48950000D03*
D36*
X116000000Y-43000000D03*
D34*
%TO.N,r4c4*%
X111000000Y-37850000D03*
D33*
%TO.N,GND*%
X110500000Y-43000000D03*
D35*
%TO.P,SW20,1*%
%TO.N,P2*%
X121000000Y-46750000D03*
D37*
X119245000Y-48950000D03*
D35*
%TO.P,SW20,2*%
%TO.N,DP15*%
X111000000Y-46750000D03*
D38*
X108352500Y-46750000D03*
%TD*%
D40*
%TO.P,L25,1*%
%TO.N,VCC*%
X80700000Y-118700000D03*
%TO.P,L25,2*%
%TO.N,r0c2*%
X80700000Y-117300000D03*
%TO.P,L25,3*%
%TO.N,GND*%
X75300000Y-117300000D03*
%TO.P,L25,4*%
%TO.N,r0c1*%
X75300000Y-118700000D03*
%TD*%
D33*
%TO.P,SW21,*%
%TO.N,VCC*%
X140500000Y-106000000D03*
D34*
%TO.N,r2c0*%
X140000000Y-100850000D03*
D35*
%TO.N,*%
X135000000Y-111950000D03*
D36*
X135000000Y-106000000D03*
D34*
%TO.N,r1c5*%
X130000000Y-100850000D03*
D33*
%TO.N,GND*%
X129500000Y-106000000D03*
D35*
%TO.P,SW21,1*%
%TO.N,P5*%
X140000000Y-109750000D03*
D37*
X138245000Y-111950000D03*
D35*
%TO.P,SW21,2*%
%TO.N,DP14*%
X130000000Y-109750000D03*
D38*
X127352500Y-109750000D03*
%TD*%
D40*
%TO.P,L18,1*%
%TO.N,VCC*%
X118700000Y-76700000D03*
%TO.P,L18,2*%
%TO.N,r2c5*%
X118700000Y-75300000D03*
%TO.P,L18,3*%
%TO.N,GND*%
X113300000Y-75300000D03*
%TO.P,L18,4*%
%TO.N,r2c4*%
X113300000Y-76700000D03*
%TD*%
D33*
%TO.P,SW15,*%
%TO.N,VCC*%
X102500000Y-58000000D03*
D34*
%TO.N,r3c4*%
X102000000Y-52850000D03*
D35*
%TO.N,*%
X97000000Y-63950000D03*
D36*
X97000000Y-58000000D03*
D34*
%TO.N,r3c3*%
X92000000Y-52850000D03*
D33*
%TO.N,GND*%
X91500000Y-58000000D03*
D35*
%TO.P,SW15,1*%
%TO.N,P3*%
X102000000Y-61750000D03*
D37*
X100245000Y-63950000D03*
D35*
%TO.P,SW15,2*%
%TO.N,DP18*%
X92000000Y-61750000D03*
D38*
X89352500Y-61750000D03*
%TD*%
D33*
%TO.P,SW9,*%
%TO.N,VCC*%
X83500000Y-100000000D03*
D34*
%TO.N,r1c3*%
X83000000Y-94850000D03*
D35*
%TO.N,*%
X78000000Y-105950000D03*
D36*
X78000000Y-100000000D03*
D34*
%TO.N,r1c2*%
X73000000Y-94850000D03*
D33*
%TO.N,GND*%
X72500000Y-100000000D03*
D35*
%TO.P,SW9,1*%
%TO.N,P5*%
X83000000Y-103750000D03*
D37*
X81245000Y-105950000D03*
D35*
%TO.P,SW9,2*%
%TO.N,DP19*%
X73000000Y-103750000D03*
D38*
X70352500Y-103750000D03*
%TD*%
D40*
%TO.P,L6,1*%
%TO.N,VCC*%
X61700000Y-88700000D03*
%TO.P,L6,2*%
%TO.N,r2c2*%
X61700000Y-87300000D03*
%TO.P,L6,3*%
%TO.N,GND*%
X56300000Y-87300000D03*
%TO.P,L6,4*%
%TO.N,r2c1*%
X56300000Y-88700000D03*
%TD*%
D41*
%TO.P,D22,1*%
%TO.N,P14*%
X127000000Y-83250000D03*
%TO.P,D22,2*%
%TO.N,DP14*%
X127000000Y-86550000D03*
%TD*%
D33*
%TO.P,SW14,*%
%TO.N,VCC*%
X102500000Y-77000000D03*
D34*
%TO.N,r2c4*%
X102000000Y-71850000D03*
D35*
%TO.N,*%
X97000000Y-82950000D03*
D36*
X97000000Y-77000000D03*
D34*
%TO.N,r2c3*%
X92000000Y-71850000D03*
D33*
%TO.N,GND*%
X91500000Y-77000000D03*
D35*
%TO.P,SW14,1*%
%TO.N,P4*%
X102000000Y-80750000D03*
D37*
X100245000Y-82950000D03*
D35*
%TO.P,SW14,2*%
%TO.N,DP18*%
X92000000Y-80750000D03*
D38*
X89352500Y-80750000D03*
%TD*%
D40*
%TO.P,L1,1*%
%TO.N,VCC*%
X42700000Y-115700000D03*
%TO.P,L1,2*%
%TO.N,r1c1*%
X42700000Y-114300000D03*
%TO.P,L1,3*%
%TO.N,GND*%
X37300000Y-114300000D03*
%TO.P,L1,4*%
%TO.N,r1c0*%
X37300000Y-115700000D03*
%TD*%
D33*
%TO.P,SW11,*%
%TO.N,VCC*%
X83500000Y-62000000D03*
D34*
%TO.N,r3c3*%
X83000000Y-56850000D03*
D35*
%TO.N,*%
X78000000Y-67950000D03*
D36*
X78000000Y-62000000D03*
D34*
%TO.N,r3c2*%
X73000000Y-56850000D03*
D33*
%TO.N,GND*%
X72500000Y-62000000D03*
D35*
%TO.P,SW11,1*%
%TO.N,P3*%
X83000000Y-65750000D03*
D37*
X81245000Y-67950000D03*
D35*
%TO.P,SW11,2*%
%TO.N,DP19*%
X73000000Y-65750000D03*
D38*
X70352500Y-65750000D03*
%TD*%
D40*
%TO.P,L24,1*%
%TO.N,VCC*%
X137700000Y-44700000D03*
%TO.P,L24,2*%
%TO.N,P9*%
X137700000Y-43300000D03*
%TO.P,L24,3*%
%TO.N,GND*%
X132300000Y-43300000D03*
%TO.P,L24,4*%
%TO.N,r4c5*%
X132300000Y-44700000D03*
%TD*%
D42*
%TO.P,D27,1*%
%TO.N,P19*%
X109107407Y-119385679D03*
%TO.P,D27,2*%
%TO.N,DP19*%
X108819793Y-122673121D03*
%TD*%
D40*
%TO.P,L12,1*%
%TO.N,VCC*%
X80700000Y-38700000D03*
%TO.P,L12,2*%
%TO.N,r4c3*%
X80700000Y-37300000D03*
%TO.P,L12,3*%
%TO.N,GND*%
X75300000Y-37300000D03*
%TO.P,L12,4*%
%TO.N,r4c2*%
X75300000Y-38700000D03*
%TD*%
D41*
%TO.P,D25,1*%
%TO.N,P21*%
X70000000Y-119250000D03*
%TO.P,D25,2*%
%TO.N,DP21*%
X70000000Y-122550000D03*
%TD*%
D33*
%TO.P,SW7,*%
%TO.N,VCC*%
X64500000Y-74000000D03*
D34*
%TO.N,r3c2*%
X64000000Y-68850000D03*
D35*
%TO.N,*%
X59000000Y-79950000D03*
D36*
X59000000Y-74000000D03*
D34*
%TO.N,r3c1*%
X54000000Y-68850000D03*
D33*
%TO.N,GND*%
X53500000Y-74000000D03*
D35*
%TO.P,SW7,1*%
%TO.N,P3*%
X64000000Y-77750000D03*
D37*
X62245000Y-79950000D03*
D35*
%TO.P,SW7,2*%
%TO.N,DP20*%
X54000000Y-77750000D03*
D38*
X51352500Y-77750000D03*
%TD*%
D33*
%TO.P,SW17,*%
%TO.N,VCC*%
X121500000Y-100000000D03*
D34*
%TO.N,r1c5*%
X121000000Y-94850000D03*
D35*
%TO.N,*%
X116000000Y-105950000D03*
D36*
X116000000Y-100000000D03*
D34*
%TO.N,r1c4*%
X111000000Y-94850000D03*
D33*
%TO.N,GND*%
X110500000Y-100000000D03*
D35*
%TO.P,SW17,1*%
%TO.N,P5*%
X121000000Y-103750000D03*
D37*
X119245000Y-105950000D03*
D35*
%TO.P,SW17,2*%
%TO.N,DP15*%
X111000000Y-103750000D03*
D38*
X108352500Y-103750000D03*
%TD*%
D41*
%TO.P,D24,1*%
%TO.N,P14*%
X127000000Y-45250000D03*
%TO.P,D24,2*%
%TO.N,DP14*%
X127000000Y-48550000D03*
%TD*%
D40*
%TO.P,L19,1*%
%TO.N,VCC*%
X118700000Y-57700000D03*
%TO.P,L19,2*%
%TO.N,r3c5*%
X118700000Y-56300000D03*
%TO.P,L19,3*%
%TO.N,GND*%
X113300000Y-56300000D03*
%TO.P,L19,4*%
%TO.N,r3c4*%
X113300000Y-57700000D03*
%TD*%
D33*
%TO.P,SW18,*%
%TO.N,VCC*%
X121500000Y-81000000D03*
D34*
%TO.N,r2c5*%
X121000000Y-75850000D03*
D35*
%TO.N,*%
X116000000Y-86950000D03*
D36*
X116000000Y-81000000D03*
D34*
%TO.N,r2c4*%
X111000000Y-75850000D03*
D33*
%TO.N,GND*%
X110500000Y-81000000D03*
D35*
%TO.P,SW18,1*%
%TO.N,P4*%
X121000000Y-84750000D03*
D37*
X119245000Y-86950000D03*
D35*
%TO.P,SW18,2*%
%TO.N,DP15*%
X111000000Y-84750000D03*
D38*
X108352500Y-84750000D03*
%TD*%
D33*
%TO.P,SW13,*%
%TO.N,VCC*%
X102500000Y-96000000D03*
D34*
%TO.N,r1c4*%
X102000000Y-90850000D03*
D35*
%TO.N,*%
X97000000Y-101950000D03*
D36*
X97000000Y-96000000D03*
D34*
%TO.N,r1c3*%
X92000000Y-90850000D03*
D33*
%TO.N,GND*%
X91500000Y-96000000D03*
D35*
%TO.P,SW13,1*%
%TO.N,P5*%
X102000000Y-99750000D03*
D37*
X100245000Y-101950000D03*
D35*
%TO.P,SW13,2*%
%TO.N,DP18*%
X92000000Y-99750000D03*
D38*
X89352500Y-99750000D03*
%TD*%
D41*
%TO.P,D8,1*%
%TO.N,P20*%
X51000000Y-51250000D03*
%TO.P,D8,2*%
%TO.N,DP20*%
X51000000Y-54550000D03*
%TD*%
%TO.P,D16,1*%
%TO.N,P18*%
X89000000Y-35250000D03*
%TO.P,D16,2*%
%TO.N,DP18*%
X89000000Y-38550000D03*
%TD*%
%TO.P,D5,1*%
%TO.N,P20*%
X51000000Y-108250000D03*
%TO.P,D5,2*%
%TO.N,DP20*%
X51000000Y-111550000D03*
%TD*%
%TO.P,D23,1*%
%TO.N,P14*%
X127000000Y-64250000D03*
%TO.P,D23,2*%
%TO.N,DP14*%
X127000000Y-67550000D03*
%TD*%
D33*
%TO.P,SW3,*%
%TO.N,VCC*%
X45500000Y-82000000D03*
D34*
%TO.N,r3c1*%
X45000000Y-76850000D03*
D35*
%TO.N,*%
X40000000Y-87950000D03*
D36*
X40000000Y-82000000D03*
D34*
%TO.N,r3c0*%
X35000000Y-76850000D03*
D33*
%TO.N,GND*%
X34500000Y-82000000D03*
D35*
%TO.P,SW3,1*%
%TO.N,P3*%
X45000000Y-85750000D03*
D37*
X43245000Y-87950000D03*
D35*
%TO.P,SW3,2*%
%TO.N,DP21*%
X35000000Y-85750000D03*
D38*
X32352500Y-85750000D03*
%TD*%
D41*
%TO.P,D6,1*%
%TO.N,P20*%
X51000000Y-89250000D03*
%TO.P,D6,2*%
%TO.N,DP20*%
X51000000Y-92550000D03*
%TD*%
D43*
%TO.P,L29,1*%
%TO.N,VCC*%
X161293669Y-137486558D03*
%TO.P,L29,2*%
%TO.N,c1c0*%
X162193571Y-136414095D03*
%TO.P,L29,3*%
%TO.N,GND*%
X158056931Y-132943042D03*
%TO.P,L29,4*%
%TO.N,r0c5*%
X157157029Y-134015505D03*
%TD*%
D33*
%TO.P,SW29,*%
%TO.N,VCC*%
X160674544Y-142580332D03*
D34*
%TO.N,c1c0*%
X163601878Y-138313809D03*
D35*
%TO.N,*%
X152636714Y-143602964D03*
D36*
X156461300Y-139045000D03*
D34*
%TO.N,r0c5*%
X155941434Y-131885933D03*
D33*
%TO.N,GND*%
X152248056Y-135509668D03*
D35*
%TO.P,SW29,1*%
%TO.N,P6*%
X157881069Y-145131605D03*
D44*
X155122528Y-145688810D03*
D35*
%TO.P,SW29,2*%
%TO.N,DP15*%
X150220624Y-138703729D03*
D45*
X148192522Y-137001948D03*
%TD*%
D41*
%TO.P,D2,1*%
%TO.N,P21*%
X32000000Y-97250000D03*
%TO.P,D2,2*%
%TO.N,DP21*%
X32000000Y-100550000D03*
%TD*%
D33*
%TO.P,SW24,*%
%TO.N,VCC*%
X140500000Y-49000000D03*
D34*
%TO.N,P9*%
X140000000Y-43850000D03*
D35*
%TO.N,*%
X135000000Y-54950000D03*
D36*
X135000000Y-49000000D03*
D34*
%TO.N,r4c5*%
X130000000Y-43850000D03*
D33*
%TO.N,GND*%
X129500000Y-49000000D03*
D35*
%TO.P,SW24,1*%
%TO.N,P2*%
X140000000Y-52750000D03*
D37*
X138245000Y-54950000D03*
D35*
%TO.P,SW24,2*%
%TO.N,DP14*%
X130000000Y-52750000D03*
D38*
X127352500Y-52750000D03*
%TD*%
D41*
%TO.P,D20,1*%
%TO.N,P15*%
X108000000Y-39250000D03*
%TO.P,D20,2*%
%TO.N,DP15*%
X108000000Y-42550000D03*
%TD*%
%TO.P,D11,1*%
%TO.N,P19*%
X70000000Y-58250000D03*
%TO.P,D11,2*%
%TO.N,DP19*%
X70000000Y-61550000D03*
%TD*%
%TO.P,D10,1*%
%TO.N,P19*%
X70000000Y-77250000D03*
%TO.P,D10,2*%
%TO.N,DP19*%
X70000000Y-80550000D03*
%TD*%
D46*
%TO.P,L27,1*%
%TO.N,VCC*%
X119814617Y-119770357D03*
%TO.P,L27,2*%
%TO.N,r0c4*%
X119936635Y-118375684D03*
%TO.P,L27,3*%
%TO.N,GND*%
X114557183Y-117905043D03*
%TO.P,L27,4*%
%TO.N,r0c3*%
X114435165Y-119299716D03*
%TD*%
D33*
%TO.P,SW4,*%
%TO.N,VCC*%
X45500000Y-63000000D03*
D34*
%TO.N,r4c1*%
X45000000Y-57850000D03*
D35*
%TO.N,*%
X40000000Y-68950000D03*
D36*
X40000000Y-63000000D03*
D34*
%TO.N,r4c0*%
X35000000Y-57850000D03*
D33*
%TO.N,GND*%
X34500000Y-63000000D03*
D35*
%TO.P,SW4,1*%
%TO.N,P2*%
X45000000Y-66750000D03*
D37*
X43245000Y-68950000D03*
D35*
%TO.P,SW4,2*%
%TO.N,DP21*%
X35000000Y-66750000D03*
D38*
X32352500Y-66750000D03*
%TD*%
D33*
%TO.P,SW1,*%
%TO.N,VCC*%
X45500000Y-120000000D03*
D34*
%TO.N,r1c1*%
X45000000Y-114850000D03*
D35*
%TO.N,*%
X40000000Y-125950000D03*
D36*
X40000000Y-120000000D03*
D34*
%TO.N,r1c0*%
X35000000Y-114850000D03*
D33*
%TO.N,GND*%
X34500000Y-120000000D03*
D35*
%TO.P,SW1,1*%
%TO.N,P5*%
X45000000Y-123750000D03*
D37*
X43245000Y-125950000D03*
D35*
%TO.P,SW1,2*%
%TO.N,DP21*%
X35000000Y-123750000D03*
D38*
X32352500Y-123750000D03*
%TD*%
D33*
%TO.P,SW8,*%
%TO.N,VCC*%
X64500000Y-55000000D03*
D34*
%TO.N,r4c2*%
X64000000Y-49850000D03*
D35*
%TO.N,*%
X59000000Y-60950000D03*
D36*
X59000000Y-55000000D03*
D34*
%TO.N,r4c1*%
X54000000Y-49850000D03*
D33*
%TO.N,GND*%
X53500000Y-55000000D03*
D35*
%TO.P,SW8,1*%
%TO.N,P2*%
X64000000Y-58750000D03*
D37*
X62245000Y-60950000D03*
D35*
%TO.P,SW8,2*%
%TO.N,DP20*%
X54000000Y-58750000D03*
D38*
X51352500Y-58750000D03*
%TD*%
D33*
%TO.P,SW23,*%
%TO.N,VCC*%
X140500000Y-68000000D03*
D34*
%TO.N,r4c0*%
X140000000Y-62850000D03*
D35*
%TO.N,*%
X135000000Y-73950000D03*
D36*
X135000000Y-68000000D03*
D34*
%TO.N,r3c5*%
X130000000Y-62850000D03*
D33*
%TO.N,GND*%
X129500000Y-68000000D03*
D35*
%TO.P,SW23,1*%
%TO.N,P3*%
X140000000Y-71750000D03*
D37*
X138245000Y-73950000D03*
D35*
%TO.P,SW23,2*%
%TO.N,DP14*%
X130000000Y-71750000D03*
D38*
X127352500Y-71750000D03*
%TD*%
D40*
%TO.P,L3,1*%
%TO.N,VCC*%
X42700000Y-77700000D03*
%TO.P,L3,2*%
%TO.N,r3c1*%
X42700000Y-76300000D03*
%TO.P,L3,3*%
%TO.N,GND*%
X37300000Y-76300000D03*
%TO.P,L3,4*%
%TO.N,r3c0*%
X37300000Y-77700000D03*
%TD*%
D33*
%TO.P,SW25,*%
%TO.N,VCC*%
X83500000Y-123000000D03*
D34*
%TO.N,r0c2*%
X83000000Y-117850000D03*
D35*
%TO.N,*%
X78000000Y-128950000D03*
D36*
X78000000Y-123000000D03*
D34*
%TO.N,r0c1*%
X73000000Y-117850000D03*
D33*
%TO.N,GND*%
X72500000Y-123000000D03*
D35*
%TO.P,SW25,1*%
%TO.N,P6*%
X83000000Y-126750000D03*
D37*
X81245000Y-128950000D03*
D35*
%TO.P,SW25,2*%
%TO.N,DP21*%
X73000000Y-126750000D03*
D38*
X70352500Y-126750000D03*
%TD*%
D40*
%TO.P,L13,1*%
%TO.N,VCC*%
X99700000Y-91700000D03*
%TO.P,L13,2*%
%TO.N,r1c4*%
X99700000Y-90300000D03*
%TO.P,L13,3*%
%TO.N,GND*%
X94300000Y-90300000D03*
%TO.P,L13,4*%
%TO.N,r1c3*%
X94300000Y-91700000D03*
%TD*%
%TO.P,L7,1*%
%TO.N,VCC*%
X61700000Y-69700000D03*
%TO.P,L7,2*%
%TO.N,r3c2*%
X61700000Y-68300000D03*
%TO.P,L7,3*%
%TO.N,GND*%
X56300000Y-68300000D03*
%TO.P,L7,4*%
%TO.N,r3c1*%
X56300000Y-69700000D03*
%TD*%
%TO.P,L21,1*%
%TO.N,VCC*%
X137700000Y-101700000D03*
%TO.P,L21,2*%
%TO.N,r2c0*%
X137700000Y-100300000D03*
%TO.P,L21,3*%
%TO.N,GND*%
X132300000Y-100300000D03*
%TO.P,L21,4*%
%TO.N,r1c5*%
X132300000Y-101700000D03*
%TD*%
%TO.P,L10,1*%
%TO.N,VCC*%
X80700000Y-76700000D03*
%TO.P,L10,2*%
%TO.N,r2c3*%
X80700000Y-75300000D03*
%TO.P,L10,3*%
%TO.N,GND*%
X75300000Y-75300000D03*
%TO.P,L10,4*%
%TO.N,r2c2*%
X75300000Y-76700000D03*
%TD*%
%TO.P,L15,1*%
%TO.N,VCC*%
X99700000Y-53700000D03*
%TO.P,L15,2*%
%TO.N,r3c4*%
X99700000Y-52300000D03*
%TO.P,L15,3*%
%TO.N,GND*%
X94300000Y-52300000D03*
%TO.P,L15,4*%
%TO.N,r3c3*%
X94300000Y-53700000D03*
%TD*%
D33*
%TO.P,SW16,*%
%TO.N,VCC*%
X102500000Y-39000000D03*
D34*
%TO.N,r4c4*%
X102000000Y-33850000D03*
D35*
%TO.N,*%
X97000000Y-44950000D03*
D36*
X97000000Y-39000000D03*
D34*
%TO.N,r4c3*%
X92000000Y-33850000D03*
D33*
%TO.N,GND*%
X91500000Y-39000000D03*
D35*
%TO.P,SW16,1*%
%TO.N,P2*%
X102000000Y-42750000D03*
D37*
X100245000Y-44950000D03*
D35*
%TO.P,SW16,2*%
%TO.N,DP18*%
X92000000Y-42750000D03*
D38*
X89352500Y-42750000D03*
%TD*%
D41*
%TO.P,D4,1*%
%TO.N,P21*%
X32000000Y-59250000D03*
%TO.P,D4,2*%
%TO.N,DP21*%
X32000000Y-62550000D03*
%TD*%
%TO.P,D9,1*%
%TO.N,P19*%
X70000000Y-96250000D03*
%TO.P,D9,2*%
%TO.N,DP19*%
X70000000Y-99550000D03*
%TD*%
%TO.P,D21,1*%
%TO.N,P14*%
X127000000Y-102250000D03*
%TO.P,D21,2*%
%TO.N,DP14*%
X127000000Y-105550000D03*
%TD*%
%TO.P,D19,1*%
%TO.N,P15*%
X108000000Y-58250000D03*
%TO.P,D19,2*%
%TO.N,DP15*%
X108000000Y-61550000D03*
%TD*%
D40*
%TO.P,L14,1*%
%TO.N,VCC*%
X99700000Y-72700000D03*
%TO.P,L14,2*%
%TO.N,r2c4*%
X99700000Y-71300000D03*
%TO.P,L14,3*%
%TO.N,GND*%
X94300000Y-71300000D03*
%TO.P,L14,4*%
%TO.N,r2c3*%
X94300000Y-72700000D03*
%TD*%
%TO.P,L5,1*%
%TO.N,VCC*%
X61700000Y-107700000D03*
%TO.P,L5,2*%
%TO.N,r1c2*%
X61700000Y-106300000D03*
%TO.P,L5,3*%
%TO.N,GND*%
X56300000Y-106300000D03*
%TO.P,L5,4*%
%TO.N,r1c1*%
X56300000Y-107700000D03*
%TD*%
D41*
%TO.P,D17,1*%
%TO.N,P15*%
X108000000Y-96250000D03*
%TO.P,D17,2*%
%TO.N,DP15*%
X108000000Y-99550000D03*
%TD*%
D40*
%TO.P,L9,1*%
%TO.N,VCC*%
X80700000Y-95700000D03*
%TO.P,L9,2*%
%TO.N,r1c3*%
X80700000Y-94300000D03*
%TO.P,L9,3*%
%TO.N,GND*%
X75300000Y-94300000D03*
%TO.P,L9,4*%
%TO.N,r1c2*%
X75300000Y-95700000D03*
%TD*%
%TO.P,L16,1*%
%TO.N,VCC*%
X99700000Y-34700000D03*
%TO.P,L16,2*%
%TO.N,r4c4*%
X99700000Y-33300000D03*
%TO.P,L16,3*%
%TO.N,GND*%
X94300000Y-33300000D03*
%TO.P,L16,4*%
%TO.N,r4c3*%
X94300000Y-34700000D03*
%TD*%
D41*
%TO.P,D12,1*%
%TO.N,P19*%
X70000000Y-39250000D03*
%TO.P,D12,2*%
%TO.N,DP19*%
X70000000Y-42550000D03*
%TD*%
%TO.P,D14,1*%
%TO.N,P18*%
X89000000Y-73250000D03*
%TO.P,D14,2*%
%TO.N,DP18*%
X89000000Y-76550000D03*
%TD*%
%TO.P,D18,1*%
%TO.N,P15*%
X108000000Y-77250000D03*
%TO.P,D18,2*%
%TO.N,DP15*%
X108000000Y-80550000D03*
%TD*%
D33*
%TO.P,SW6,*%
%TO.N,VCC*%
X64500000Y-93000000D03*
D34*
%TO.N,r2c2*%
X64000000Y-87850000D03*
D35*
%TO.N,*%
X59000000Y-98950000D03*
D36*
X59000000Y-93000000D03*
D34*
%TO.N,r2c1*%
X54000000Y-87850000D03*
D33*
%TO.N,GND*%
X53500000Y-93000000D03*
D35*
%TO.P,SW6,1*%
%TO.N,P4*%
X64000000Y-96750000D03*
D37*
X62245000Y-98950000D03*
D35*
%TO.P,SW6,2*%
%TO.N,DP20*%
X54000000Y-96750000D03*
D38*
X51352500Y-96750000D03*
%TD*%
D40*
%TO.P,L20,1*%
%TO.N,VCC*%
X118700000Y-38700000D03*
%TO.P,L20,2*%
%TO.N,r4c5*%
X118700000Y-37300000D03*
%TO.P,L20,3*%
%TO.N,GND*%
X113300000Y-37300000D03*
%TO.P,L20,4*%
%TO.N,r4c4*%
X113300000Y-38700000D03*
%TD*%
%TO.P,L4,1*%
%TO.N,VCC*%
X42700000Y-58700000D03*
%TO.P,L4,2*%
%TO.N,r4c1*%
X42700000Y-57300000D03*
%TO.P,L4,3*%
%TO.N,GND*%
X37300000Y-57300000D03*
%TO.P,L4,4*%
%TO.N,r4c0*%
X37300000Y-58700000D03*
%TD*%
D47*
%TO.P,L28,1*%
%TO.N,VCC*%
X141470956Y-125159639D03*
%TO.P,L28,2*%
%TO.N,r0c5*%
X141949784Y-123844070D03*
%TO.P,L28,3*%
%TO.N,GND*%
X136875444Y-121997161D03*
%TO.P,L28,4*%
%TO.N,r0c4*%
X136396616Y-123312730D03*
%TD*%
D33*
%TO.P,SW28,*%
%TO.N,VCC*%
X142631409Y-130158011D03*
D34*
%TO.N,r0c5*%
X143922967Y-125147584D03*
D35*
%TO.N,*%
X135428080Y-133868071D03*
D36*
X137463100Y-128276900D03*
D34*
%TO.N,r0c4*%
X134526041Y-121727382D03*
D33*
%TO.N,GND*%
X132294791Y-126395789D03*
D35*
%TO.P,SW28,1*%
%TO.N,P6*%
X140878988Y-133510848D03*
D48*
X138477383Y-134977926D03*
D35*
%TO.P,SW28,2*%
%TO.N,DP18*%
X131482061Y-130090647D03*
D49*
X128994225Y-129185148D03*
%TD*%
D40*
%TO.P,L2,1*%
%TO.N,VCC*%
X42700000Y-96700000D03*
%TO.P,L2,2*%
%TO.N,r2c1*%
X42700000Y-95300000D03*
%TO.P,L2,3*%
%TO.N,GND*%
X37300000Y-95300000D03*
%TO.P,L2,4*%
%TO.N,r2c0*%
X37300000Y-96700000D03*
%TD*%
%TO.P,L26,1*%
%TO.N,VCC*%
X99700000Y-118700000D03*
%TO.P,L26,2*%
%TO.N,r0c3*%
X99700000Y-117300000D03*
%TO.P,L26,3*%
%TO.N,GND*%
X94300000Y-117300000D03*
%TO.P,L26,4*%
%TO.N,r0c2*%
X94300000Y-118700000D03*
%TD*%
D41*
%TO.P,D1,1*%
%TO.N,P21*%
X32000000Y-116250000D03*
%TO.P,D1,2*%
%TO.N,DP21*%
X32000000Y-119550000D03*
%TD*%
D40*
%TO.P,L17,1*%
%TO.N,VCC*%
X118700000Y-95700000D03*
%TO.P,L17,2*%
%TO.N,r1c5*%
X118700000Y-94300000D03*
%TO.P,L17,3*%
%TO.N,GND*%
X113300000Y-94300000D03*
%TO.P,L17,4*%
%TO.N,r1c4*%
X113300000Y-95700000D03*
%TD*%
%TO.P,L23,1*%
%TO.N,VCC*%
X137700000Y-63700000D03*
%TO.P,L23,2*%
%TO.N,r4c0*%
X137700000Y-62300000D03*
%TO.P,L23,3*%
%TO.N,GND*%
X132300000Y-62300000D03*
%TO.P,L23,4*%
%TO.N,r3c5*%
X132300000Y-63700000D03*
%TD*%
D50*
%TO.P,D28,1*%
%TO.N,P18*%
X131228133Y-122016907D03*
%TO.P,D28,2*%
%TO.N,DP18*%
X130099467Y-125117893D03*
%TD*%
D33*
%TO.P,SW12,*%
%TO.N,VCC*%
X83500000Y-43000000D03*
D34*
%TO.N,r4c3*%
X83000000Y-37850000D03*
D35*
%TO.N,*%
X78000000Y-48950000D03*
D36*
X78000000Y-43000000D03*
D34*
%TO.N,r4c2*%
X73000000Y-37850000D03*
D33*
%TO.N,GND*%
X72500000Y-43000000D03*
D35*
%TO.P,SW12,1*%
%TO.N,P2*%
X83000000Y-46750000D03*
D37*
X81245000Y-48950000D03*
D35*
%TO.P,SW12,2*%
%TO.N,DP19*%
X73000000Y-46750000D03*
D38*
X70352500Y-46750000D03*
%TD*%
D41*
%TO.P,D7,1*%
%TO.N,P20*%
X51000000Y-70250000D03*
%TO.P,D7,2*%
%TO.N,DP20*%
X51000000Y-73550000D03*
%TD*%
D33*
%TO.P,SW10,*%
%TO.N,VCC*%
X83500000Y-81000000D03*
D34*
%TO.N,r2c3*%
X83000000Y-75850000D03*
D35*
%TO.N,*%
X78000000Y-86950000D03*
D36*
X78000000Y-81000000D03*
D34*
%TO.N,r2c2*%
X73000000Y-75850000D03*
D33*
%TO.N,GND*%
X72500000Y-81000000D03*
D35*
%TO.P,SW10,1*%
%TO.N,P4*%
X83000000Y-84750000D03*
D37*
X81245000Y-86950000D03*
D35*
%TO.P,SW10,2*%
%TO.N,DP19*%
X73000000Y-84750000D03*
D38*
X70352500Y-84750000D03*
%TD*%
D33*
%TO.P,SW19,*%
%TO.N,VCC*%
X121500000Y-62000000D03*
D34*
%TO.N,r3c5*%
X121000000Y-56850000D03*
D35*
%TO.N,*%
X116000000Y-67950000D03*
D36*
X116000000Y-62000000D03*
D34*
%TO.N,r3c4*%
X111000000Y-56850000D03*
D33*
%TO.N,GND*%
X110500000Y-62000000D03*
D35*
%TO.P,SW19,1*%
%TO.N,P3*%
X121000000Y-65750000D03*
D37*
X119245000Y-67950000D03*
D35*
%TO.P,SW19,2*%
%TO.N,DP15*%
X111000000Y-65750000D03*
D38*
X108352500Y-65750000D03*
%TD*%
D41*
%TO.P,D3,1*%
%TO.N,P21*%
X32000000Y-78250000D03*
%TO.P,D3,2*%
%TO.N,DP21*%
X32000000Y-81550000D03*
%TD*%
%TO.P,D13,1*%
%TO.N,P18*%
X89000000Y-92250000D03*
%TO.P,D13,2*%
%TO.N,DP18*%
X89000000Y-95550000D03*
%TD*%
D33*
%TO.P,SW2,*%
%TO.N,VCC*%
X45500000Y-101000000D03*
D34*
%TO.N,r2c1*%
X45000000Y-95850000D03*
D35*
%TO.N,*%
X40000000Y-106950000D03*
D36*
X40000000Y-101000000D03*
D34*
%TO.N,r2c0*%
X35000000Y-95850000D03*
D33*
%TO.N,GND*%
X34500000Y-101000000D03*
D35*
%TO.P,SW2,1*%
%TO.N,P4*%
X45000000Y-104750000D03*
D37*
X43245000Y-106950000D03*
D35*
%TO.P,SW2,2*%
%TO.N,DP21*%
X35000000Y-104750000D03*
D38*
X32352500Y-104750000D03*
%TD*%
D33*
%TO.P,SW5,*%
%TO.N,VCC*%
X64500000Y-112000000D03*
D34*
%TO.N,r1c2*%
X64000000Y-106850000D03*
D35*
%TO.N,*%
X59000000Y-117950000D03*
D36*
X59000000Y-112000000D03*
D34*
%TO.N,r1c1*%
X54000000Y-106850000D03*
D33*
%TO.N,GND*%
X53500000Y-112000000D03*
D35*
%TO.P,SW5,1*%
%TO.N,P5*%
X64000000Y-115750000D03*
D37*
X62245000Y-117950000D03*
D35*
%TO.P,SW5,2*%
%TO.N,DP20*%
X54000000Y-115750000D03*
D38*
X51352500Y-115750000D03*
%TD*%
D33*
%TO.P,SW27,*%
%TO.N,VCC*%
X122229271Y-124297957D03*
D34*
%TO.N,r0c4*%
X122180026Y-119123976D03*
D35*
%TO.N,*%
X116231623Y-129745958D03*
D36*
X116750200Y-123818600D03*
D34*
%TO.N,r0c3*%
X112218079Y-118252419D03*
D33*
%TO.N,GND*%
X111271129Y-123339243D03*
D35*
%TO.P,SW27,1*%
%TO.N,P6*%
X121404339Y-127990109D03*
D51*
X119464275Y-130028779D03*
D35*
%TO.P,SW27,2*%
%TO.N,DP19*%
X111442390Y-127118551D03*
D52*
X108804967Y-126887807D03*
%TD*%
D53*
%TO.N,GND*%
X56300000Y-86284100D03*
X129500000Y-83501700D03*
X156224000Y-134588000D03*
X129500000Y-102502000D03*
X71374300Y-54548300D03*
X34500000Y-78501700D03*
X91500000Y-73501700D03*
X53500000Y-108502000D03*
X68718900Y-91835600D03*
X75300000Y-116284000D03*
X169197000Y-101910000D03*
X94300000Y-46750900D03*
X56300000Y-51703900D03*
X75300000Y-36287100D03*
X129500000Y-45501700D03*
X54500400Y-70501700D03*
X110313000Y-117302000D03*
X37300000Y-56292300D03*
X34500000Y-59501700D03*
X113300000Y-58722200D03*
X132300000Y-60629000D03*
X169450000Y-96654000D03*
X129500000Y-64501700D03*
X37300000Y-116703000D03*
X91500000Y-35501700D03*
X72500000Y-77501700D03*
X110500000Y-39501700D03*
X109385000Y-49698300D03*
X132295000Y-123469000D03*
X56300000Y-89707900D03*
X36032000Y-94681600D03*
X113300000Y-88542000D03*
X72500000Y-58501700D03*
X105875000Y-87079300D03*
X91110300Y-89519700D03*
X66110400Y-57151700D03*
X147662000Y-61472600D03*
X56300000Y-48293900D03*
X75300000Y-39719400D03*
X74380200Y-89548900D03*
X74096500Y-95846900D03*
X113362000Y-117141000D03*
X137124000Y-120778000D03*
X113251000Y-109413000D03*
X75300000Y-54548300D03*
X145983000Y-102870000D03*
X132000000Y-96178100D03*
X91500000Y-119502000D03*
X110500000Y-96501700D03*
X94300000Y-86818500D03*
X91500000Y-54501700D03*
X147600000Y-103561000D03*
X110500000Y-77501700D03*
X164610000Y-45790000D03*
X75012900Y-119723000D03*
X149388000Y-120778000D03*
X91500000Y-92501700D03*
%TO.N,RST*%
X166814000Y-101702000D03*
X150450000Y-48480000D03*
X168258000Y-96677800D03*
X149950000Y-92310000D03*
%TO.N,VCC*%
X103258000Y-32598300D03*
X145780000Y-47590000D03*
X83347700Y-36391800D03*
X81904700Y-116891000D03*
X84999200Y-88830100D03*
X61700000Y-108717000D03*
X80700000Y-93266700D03*
X103271000Y-116498000D03*
X120005000Y-74729200D03*
X144040000Y-56940000D03*
X45533500Y-113397000D03*
X122262000Y-36498300D03*
X138902000Y-80789200D03*
X61700000Y-70729700D03*
X63604400Y-91610400D03*
X84260400Y-74498300D03*
X122258000Y-55498300D03*
X82003100Y-55706800D03*
X65142200Y-52904900D03*
X71386000Y-53650900D03*
X118700000Y-93275200D03*
X102924000Y-51579900D03*
X146006000Y-98483200D03*
X61700000Y-52904900D03*
X123485000Y-117313000D03*
X107625000Y-53898300D03*
X145170000Y-123110000D03*
X42700000Y-59707600D03*
X154070000Y-123110000D03*
X103034000Y-89498300D03*
X48468000Y-75846300D03*
X42700000Y-116722000D03*
X102288000Y-70297900D03*
X43914300Y-94867300D03*
X109368000Y-95301700D03*
X160674000Y-139575000D03*
X62904700Y-105849000D03*
X77553200Y-90121500D03*
X71386000Y-49548300D03*
X67150000Y-49329800D03*
X139280000Y-99498300D03*
X43168400Y-78705000D03*
X63074400Y-101000000D03*
X139413000Y-46173600D03*
X141259000Y-61450000D03*
%TO.N,P21*%
X33111900Y-59039800D03*
X32000000Y-115274000D03*
X151030000Y-53610000D03*
X33142500Y-97262900D03*
X33114100Y-78478800D03*
X69171100Y-118316000D03*
%TO.N,P20*%
X52107700Y-51202500D03*
X147920000Y-60270000D03*
X51482000Y-109214000D03*
X52128700Y-89541000D03*
X89000000Y-118290000D03*
X90957700Y-114057000D03*
X143131000Y-114725000D03*
X52113300Y-70461600D03*
%TO.N,P19*%
X71048200Y-102157000D03*
X70000000Y-59225000D03*
X106765000Y-115342000D03*
X155844000Y-55369100D03*
X67736900Y-98349700D03*
X61720400Y-59350000D03*
X109293000Y-118383000D03*
X149800000Y-54940000D03*
X70010000Y-38170000D03*
X70000000Y-78211500D03*
X71113000Y-96250000D03*
%TO.N,P18*%
X89000000Y-93203900D03*
X143543000Y-113936000D03*
X89000000Y-72284300D03*
X89000000Y-36205700D03*
X88506900Y-53287200D03*
X130602000Y-123057000D03*
X126364000Y-111548000D03*
%TO.N,P15*%
X105331000Y-96250000D03*
X105088000Y-76767200D03*
X112808000Y-97782800D03*
X108000000Y-76284400D03*
X106882000Y-96250000D03*
X152029000Y-131788000D03*
X147691000Y-129809000D03*
X146520000Y-119941000D03*
X106882000Y-38964300D03*
X116693000Y-115616000D03*
X106892000Y-58202100D03*
%TO.N,P14*%
X127000000Y-97531800D03*
X141519000Y-76531300D03*
X127226000Y-44271800D03*
X127000000Y-84222700D03*
X127000000Y-103210000D03*
X131862000Y-65213400D03*
X127000000Y-65213400D03*
%TO.N,P0*%
X167341000Y-73092000D03*
%TO.N,P2*%
X62245000Y-65437000D03*
X71189700Y-48684200D03*
X99272200Y-47974500D03*
X79793400Y-51345100D03*
%TO.N,P3*%
X122358000Y-72534800D03*
X99476900Y-65918000D03*
X149160000Y-53020000D03*
X149150000Y-61530000D03*
X62245000Y-82219900D03*
X136750000Y-75931300D03*
X79071400Y-73646200D03*
%TO.N,P4*%
X62245000Y-104750000D03*
X149790000Y-58460000D03*
X147070000Y-90750000D03*
X81245000Y-90751700D03*
X100245000Y-85103600D03*
%TO.N,P5*%
X57636900Y-123750000D03*
X147884000Y-109750000D03*
X81245000Y-115022000D03*
X100245000Y-104348000D03*
%TO.N,P6*%
X152307000Y-137194000D03*
X148771000Y-134416000D03*
X155752000Y-143934000D03*
%TO.N,P9*%
X148790000Y-71010000D03*
%TO.N,DP21*%
X32352500Y-87355500D03*
X34900100Y-87917100D03*
X34890300Y-69439800D03*
X32352500Y-103156000D03*
X32000000Y-120529000D03*
X32000000Y-101502000D03*
X32352500Y-125330000D03*
X32000000Y-61597000D03*
X33100700Y-77580400D03*
X32352500Y-68339800D03*
X32000000Y-80571300D03*
X34924500Y-126498000D03*
X69088900Y-123399000D03*
X70352500Y-128350000D03*
X34893100Y-107207000D03*
%TO.N,r1c1*%
X46983100Y-106850000D03*
%TO.N,r2c1*%
X54000000Y-90536200D03*
%TO.N,r2c0*%
X133025000Y-94679500D03*
%TO.N,r3c1*%
X47866300Y-68850000D03*
%TO.N,r3c0*%
X137570000Y-78710000D03*
%TO.N,r4c0*%
X38309000Y-66033500D03*
%TO.N,DP20*%
X53921500Y-99011500D03*
X51000000Y-93514300D03*
X51000000Y-72591800D03*
X53921500Y-118302000D03*
X53921500Y-80534200D03*
X51000000Y-55507300D03*
X87873900Y-122500000D03*
X53921500Y-122329000D03*
X53921500Y-61244000D03*
X51000000Y-112510000D03*
%TO.N,r1c2*%
X63886800Y-101794000D03*
%TO.N,r2c2*%
X65611100Y-79700200D03*
%TO.N,r3c2*%
X66675900Y-60756400D03*
%TO.N,r4c2*%
X65814800Y-48924500D03*
%TO.N,DP19*%
X85910800Y-63764900D03*
X69210000Y-43370000D03*
X70352500Y-67327500D03*
X69107800Y-81441200D03*
X85910800Y-51411100D03*
X68894300Y-61652000D03*
X108805000Y-128614000D03*
X107610000Y-115008000D03*
X81122900Y-63764900D03*
X107677000Y-122745000D03*
X70352500Y-48335100D03*
X76800300Y-66008200D03*
X70000000Y-100529000D03*
X71653300Y-93560100D03*
%TO.N,DP18*%
X129730000Y-126255000D03*
X89000000Y-39511400D03*
X89248700Y-75597700D03*
X91923600Y-64728300D03*
X91879500Y-101910000D03*
X126035000Y-113160000D03*
X92251200Y-84453800D03*
X89000000Y-94396600D03*
X89000000Y-58518100D03*
%TO.N,r1c4*%
X111000000Y-91395600D03*
%TO.N,r3c4*%
X104568000Y-59331900D03*
X111000000Y-59331900D03*
%TO.N,DP15*%
X108000000Y-98571700D03*
X108000000Y-62516700D03*
X110916000Y-68126900D03*
X108352000Y-64152400D03*
X151556000Y-140448000D03*
X150090000Y-134510000D03*
X108000000Y-41575600D03*
X109786000Y-52595800D03*
X107774000Y-102160000D03*
X108352000Y-86336300D03*
X110927000Y-87417100D03*
X110918000Y-106706000D03*
X106250000Y-98120500D03*
X113471000Y-132293000D03*
X108000000Y-81513600D03*
X108352000Y-48340800D03*
%TO.N,DP14*%
X127000000Y-87502800D03*
X129922000Y-93214300D03*
X128225000Y-93214300D03*
X129900000Y-73924100D03*
X127352000Y-111348000D03*
X127352000Y-54346800D03*
X127352000Y-73349700D03*
X127000000Y-66578300D03*
X127000000Y-47577700D03*
X130065000Y-56263900D03*
X127000000Y-106526000D03*
%TO.N,r0c1*%
X69066000Y-97089400D03*
%TO.N,u01*%
X67679300Y-87347100D03*
X69625000Y-87346400D03*
X67875000Y-53747400D03*
%TO.N,u02*%
X104116000Y-49701000D03*
X68760800Y-52821800D03*
%TO.N,u03*%
X104516000Y-90507800D03*
X105875000Y-57521900D03*
%TO.N,u04*%
X105875000Y-91889000D03*
X145125000Y-99387300D03*
%TO.N,u05*%
X145125000Y-65010200D03*
X146282000Y-94981300D03*
%TO.N,u06*%
X143575000Y-59985500D03*
%TD*%
D54*
%TO.N,GND*%
X110500000Y-96501700D02*
X110500000Y-100000000D01*
X37008800Y-74170500D02*
X35588800Y-75590500D01*
X128729000Y-105229000D02*
X129500000Y-106000000D01*
X113300000Y-55258400D02*
X110036000Y-51994100D01*
X72500000Y-58501700D02*
X72500000Y-62000000D01*
X147600000Y-61534700D02*
X147662000Y-61472600D01*
X149388000Y-124668000D02*
X149388000Y-120778000D01*
X34500000Y-78501700D02*
X34500000Y-82000000D01*
X128744000Y-62310200D02*
X128744000Y-67243800D01*
X169450000Y-95375000D02*
X169450000Y-84051700D01*
X136819000Y-120473000D02*
X137124000Y-120778000D01*
X74992300Y-83492300D02*
X74992300Y-90587300D01*
X105150000Y-89000000D02*
X105575000Y-89000000D01*
X69625000Y-91948300D02*
X68831600Y-91948300D01*
X147600000Y-63500000D02*
X147175000Y-63500000D01*
X74992300Y-94300000D02*
X74298300Y-94300000D01*
X128674000Y-86174000D02*
X129500000Y-87000000D01*
X110500000Y-100000000D02*
X113251000Y-102751000D01*
X129500000Y-47672100D02*
X129500000Y-49000000D01*
X73596600Y-93598300D02*
X72481500Y-93598300D01*
X94300000Y-60800000D02*
X91500000Y-58000000D01*
X110500000Y-62000000D02*
X112988000Y-64487500D01*
X34489300Y-75590500D02*
X35588800Y-75590500D01*
X55298300Y-106042000D02*
X54994000Y-105738000D01*
X75300000Y-45800000D02*
X75300000Y-54548300D01*
X112298000Y-37300000D02*
X111597000Y-36598300D01*
X93298300Y-33300000D02*
X94300000Y-33300000D01*
X132300000Y-62300000D02*
X131298000Y-62300000D01*
X68963100Y-53948300D02*
X68132400Y-53117600D01*
X67590900Y-53117600D02*
X66110400Y-54598100D01*
X94300000Y-71300000D02*
X94300000Y-60800000D01*
X70350000Y-55850000D02*
X70350000Y-57151700D01*
X34500000Y-82000000D02*
X36951700Y-84451700D01*
X33702400Y-76377400D02*
X34489300Y-75590500D01*
X93298300Y-52300000D02*
X94300000Y-52300000D01*
X52745000Y-69420200D02*
X52745000Y-68332900D01*
X71748300Y-94331500D02*
X71748300Y-95151700D01*
X70350000Y-93850000D02*
X69925000Y-93850000D01*
X112298000Y-75300000D02*
X113300000Y-75300000D01*
X33697700Y-115380000D02*
X33697700Y-114303000D01*
X37300000Y-76300000D02*
X36298300Y-76300000D01*
X109700000Y-75380000D02*
X110532000Y-74547600D01*
X130564000Y-61566000D02*
X129488000Y-61566000D01*
X37300000Y-95300000D02*
X36298300Y-95300000D01*
X129500000Y-106000000D02*
X133000000Y-109500000D01*
X91500000Y-123000000D02*
X90680700Y-122181000D01*
X129500000Y-106000000D02*
X129500000Y-102502000D01*
X91478300Y-32575800D02*
X92574100Y-32575800D01*
X147600000Y-101500000D02*
X147175000Y-101500000D01*
X56300000Y-68300000D02*
X56300000Y-67295800D01*
X91499000Y-51541600D02*
X92539900Y-51541600D01*
X72500000Y-96101700D02*
X73841700Y-96101700D01*
X72481500Y-96101700D02*
X72500000Y-96101700D01*
X56007800Y-95507800D02*
X56007800Y-104724000D01*
X56300000Y-106300000D02*
X55298300Y-106300000D01*
X129500000Y-68000000D02*
X131978000Y-70478200D01*
X74992300Y-90587300D02*
X74380200Y-89975200D01*
X154656000Y-131333000D02*
X154656000Y-133020000D01*
X34500000Y-119503000D02*
X36160000Y-117843000D01*
X36298300Y-94947900D02*
X36032000Y-94681600D01*
X90700300Y-52340300D02*
X91499000Y-51541600D01*
X131298000Y-43300000D02*
X132300000Y-43300000D01*
X56300000Y-89707900D02*
X56300000Y-90200000D01*
X112988000Y-64487500D02*
X112988000Y-73106000D01*
X75012900Y-119723000D02*
X72500000Y-122236000D01*
X52683100Y-111183000D02*
X52683100Y-106371000D01*
X158057000Y-132889000D02*
X158057000Y-132943000D01*
X169450000Y-100625000D02*
X169450000Y-96654000D01*
X131298000Y-62300000D02*
X130564000Y-61566000D01*
X92574100Y-32575800D02*
X93298300Y-33300000D01*
X109700000Y-80199800D02*
X109700000Y-75380000D01*
X132300000Y-62300000D02*
X132300000Y-60629000D01*
X92572700Y-70574400D02*
X93298300Y-71300000D01*
X72500000Y-43000000D02*
X75300000Y-45800000D01*
X128674000Y-81380000D02*
X128674000Y-86174000D01*
X128729000Y-100350000D02*
X128729000Y-105229000D01*
X34500000Y-63000000D02*
X37008800Y-65508800D01*
X91131700Y-89498300D02*
X94300000Y-89498300D01*
X53500000Y-112000000D02*
X53500000Y-108502000D01*
X54500400Y-70501700D02*
X53826500Y-70501700D01*
X74380200Y-89975200D02*
X74380200Y-89548900D01*
X75300000Y-56300000D02*
X75300000Y-54548300D01*
X128744000Y-67243800D02*
X129500000Y-68000000D01*
X147600000Y-103561000D02*
X146909000Y-102870000D01*
X74992300Y-64492300D02*
X74992300Y-73197200D01*
X136897000Y-121937000D02*
X136875000Y-121958000D01*
X70350000Y-57151700D02*
X70480200Y-57151700D01*
X94300000Y-117300000D02*
X93298300Y-117300000D01*
X68132400Y-53117600D02*
X67590900Y-53117600D01*
X113300000Y-88542000D02*
X113300000Y-83800000D01*
X113300000Y-94300000D02*
X113300000Y-88542000D01*
X113489000Y-117269000D02*
X113362000Y-117141000D01*
X37008800Y-65508800D02*
X37008800Y-74170500D01*
X110500000Y-39501700D02*
X110500000Y-43000000D01*
X136875000Y-121958000D02*
X136875000Y-121997000D01*
X129500000Y-45501700D02*
X129500000Y-47672100D01*
X133000000Y-119504000D02*
X133968000Y-120473000D01*
X129500000Y-49000000D02*
X128729000Y-48228600D01*
X90700300Y-57200300D02*
X90700300Y-52340300D01*
X71675200Y-75378800D02*
X71675200Y-80175200D01*
X33697700Y-114303000D02*
X34703800Y-113297000D01*
X91500000Y-58000000D02*
X90700300Y-57200300D01*
X91110300Y-89519700D02*
X91131700Y-89498300D01*
X113251000Y-109413000D02*
X113362000Y-109524000D01*
X109674000Y-42174000D02*
X110500000Y-43000000D01*
X55298300Y-106300000D02*
X55298300Y-106042000D01*
X94300000Y-90300000D02*
X94300000Y-89498300D01*
X167800000Y-82401700D02*
X167800000Y-81300000D01*
X91500000Y-77000000D02*
X91500000Y-73501700D01*
X147175000Y-63500000D02*
X146875000Y-63200000D01*
X130574000Y-99576200D02*
X129502000Y-99576200D01*
X129500000Y-87000000D02*
X132000000Y-89499900D01*
X131298000Y-100300000D02*
X132300000Y-100300000D01*
X94300000Y-86818500D02*
X94300000Y-79800000D01*
X113362000Y-109524000D02*
X113362000Y-117141000D01*
X132300000Y-51708400D02*
X132300000Y-60629000D01*
X36298300Y-76300000D02*
X35588800Y-75590500D01*
X109674000Y-37380000D02*
X109674000Y-42174000D01*
X93298300Y-71300000D02*
X94300000Y-71300000D01*
X54500400Y-72999600D02*
X54500400Y-70501700D01*
X109385000Y-51994100D02*
X109385000Y-49698300D01*
X94300000Y-52300000D02*
X94300000Y-46750900D01*
X130597000Y-80598300D02*
X131298000Y-81300000D01*
X90680700Y-122181000D02*
X90680700Y-117373000D01*
X71748300Y-95151700D02*
X71748300Y-95368500D01*
X90683900Y-76183900D02*
X90683900Y-71356700D01*
X128729000Y-43350000D02*
X129501000Y-42577300D01*
X52683100Y-106371000D02*
X53455700Y-105598000D01*
X36160000Y-117843000D02*
X33697700Y-115380000D01*
X53500000Y-74000000D02*
X54500400Y-72999600D01*
X132295000Y-126396000D02*
X132295000Y-123469000D01*
X74298300Y-75300000D02*
X75300000Y-75300000D01*
X169406000Y-101702000D02*
X169197000Y-101910000D01*
X90683900Y-33370200D02*
X91478300Y-32575800D01*
X70350000Y-54548300D02*
X71374300Y-54548300D01*
X90683900Y-38183900D02*
X90683900Y-33370200D01*
X165204000Y-45790000D02*
X165814000Y-46400000D01*
X53826500Y-70501700D02*
X52745000Y-69420200D01*
X136875000Y-121997000D02*
X136897000Y-121937000D01*
X90724300Y-91726000D02*
X90724300Y-89905700D01*
X69925000Y-55850000D02*
X69625000Y-55550000D01*
X113300000Y-37300000D02*
X112298000Y-37300000D01*
X53500000Y-54503900D02*
X53500000Y-55000000D01*
X132000000Y-98150800D02*
X130574000Y-99576200D01*
X129502000Y-99576200D02*
X128729000Y-100350000D01*
X53500000Y-93000000D02*
X56007800Y-95507800D01*
X91500000Y-96000000D02*
X91500000Y-92501700D01*
X155354000Y-130634000D02*
X154656000Y-131333000D01*
X70480200Y-57151700D02*
X71830200Y-58501700D01*
X71675200Y-80175200D02*
X72500000Y-81000000D01*
X112961000Y-49068400D02*
X110036000Y-51994100D01*
X36951700Y-93761900D02*
X36032000Y-94681600D01*
X129456000Y-80598300D02*
X128674000Y-81380000D01*
X75300000Y-94300000D02*
X74992300Y-94300000D01*
X52745000Y-68332900D02*
X53782100Y-67295800D01*
X111271000Y-123339000D02*
X110313000Y-122381000D01*
X169450000Y-100625000D02*
X169450000Y-101702000D01*
X112961000Y-45461400D02*
X112961000Y-49068400D01*
X132000000Y-89499900D02*
X132000000Y-96178100D01*
X91500000Y-123000000D02*
X91500000Y-119502000D01*
X91466200Y-70574400D02*
X92572700Y-70574400D01*
X53500000Y-55000000D02*
X56300000Y-57800000D01*
X113300000Y-83800000D02*
X110500000Y-81000000D01*
X70350000Y-55850000D02*
X70350000Y-54548300D01*
X92539900Y-51541600D02*
X93298300Y-52300000D01*
X91500000Y-39000000D02*
X90683900Y-38183900D01*
X132000000Y-96178100D02*
X132000000Y-98150800D01*
X72500000Y-96101700D02*
X72500000Y-100000000D01*
X94300000Y-89498300D02*
X94300000Y-86818500D01*
X54854300Y-105598000D02*
X54994000Y-105738000D01*
X132295000Y-123469000D02*
X132295000Y-122147000D01*
X37300000Y-114300000D02*
X37300000Y-113297000D01*
X158057000Y-131690000D02*
X158629000Y-132262000D01*
X130576000Y-42577300D02*
X131298000Y-43300000D01*
X105575000Y-51000000D02*
X105875000Y-51300000D01*
X56300000Y-57800000D02*
X56300000Y-67295800D01*
X70350000Y-93850000D02*
X70350000Y-95151700D01*
X129500000Y-48908400D02*
X132300000Y-51708400D01*
X137274000Y-120901000D02*
X136897000Y-121937000D01*
X167800000Y-74400000D02*
X167800000Y-81300000D01*
X36951700Y-84451700D02*
X36951700Y-93761900D01*
X133968000Y-120473000D02*
X136819000Y-120473000D01*
X137124000Y-120779000D02*
X137246000Y-120901000D01*
X71748300Y-95368500D02*
X72481500Y-96101700D01*
X110456000Y-36598300D02*
X109674000Y-37380000D01*
X72500000Y-81000000D02*
X72500000Y-77501700D01*
X72500000Y-81000000D02*
X74992300Y-83492300D01*
X129500000Y-68000000D02*
X129500000Y-64501700D01*
X105150000Y-51000000D02*
X105575000Y-51000000D01*
X110500000Y-43000000D02*
X112961000Y-45461400D01*
X137246000Y-120901000D02*
X137274000Y-120901000D01*
X36298300Y-95300000D02*
X36298300Y-94947900D01*
X91500000Y-35501700D02*
X91500000Y-39000000D01*
X169450000Y-84051700D02*
X167800000Y-82401700D01*
X169450000Y-96654000D02*
X169450000Y-95375000D01*
X146909000Y-102870000D02*
X145983000Y-102870000D01*
X73593900Y-74595600D02*
X74298300Y-75300000D01*
X74992300Y-73197200D02*
X73593900Y-74595600D01*
X130597000Y-80598300D02*
X129456000Y-80598300D01*
X90680700Y-117373000D02*
X91471000Y-116583000D01*
X90724300Y-89905700D02*
X91110300Y-89519700D01*
X105875000Y-52901700D02*
X108477000Y-52901700D01*
X69625000Y-53948300D02*
X68963100Y-53948300D01*
X36160000Y-117843000D02*
X37300000Y-116703000D01*
X56300000Y-49300000D02*
X56300000Y-48293900D01*
X34500000Y-59501700D02*
X34500000Y-63000000D01*
X37300000Y-57300000D02*
X37300000Y-56292300D01*
X72500000Y-42519400D02*
X72500000Y-43000000D01*
X34500000Y-120000000D02*
X34500000Y-119503000D01*
X92581300Y-116583000D02*
X93986600Y-115178000D01*
X128729000Y-48228600D02*
X128729000Y-43350000D01*
X94300000Y-79800000D02*
X91500000Y-77000000D01*
X72500000Y-62000000D02*
X74992300Y-64492300D01*
X105875000Y-89300000D02*
X105875000Y-87079300D01*
X133000000Y-109500000D02*
X133000000Y-119504000D01*
X33702400Y-77704100D02*
X33702400Y-76377400D01*
X158629000Y-132262000D02*
X158343000Y-132602000D01*
X75300000Y-102800000D02*
X72500000Y-100000000D01*
X56300000Y-76800000D02*
X53500000Y-74000000D01*
X130574000Y-99576200D02*
X131298000Y-100300000D01*
X93298300Y-117300000D02*
X92581300Y-116583000D01*
X110500000Y-61522200D02*
X110500000Y-62000000D01*
X53782100Y-67295800D02*
X56300000Y-67295800D01*
X91500000Y-39000000D02*
X94300000Y-41800000D01*
X155354000Y-130634000D02*
X149388000Y-124668000D01*
X91471000Y-116583000D02*
X92581300Y-116583000D01*
X90683900Y-71356700D02*
X91466200Y-70574400D01*
X69625000Y-93550000D02*
X69625000Y-91948300D01*
X56300000Y-90200000D02*
X53500000Y-93000000D01*
X56300000Y-86284100D02*
X56300000Y-76800000D01*
X91500000Y-77000000D02*
X90683900Y-76183900D01*
X37300000Y-103800000D02*
X37300000Y-113297000D01*
X113489000Y-117812000D02*
X113489000Y-117269000D01*
X110500000Y-81000000D02*
X110500000Y-77501700D01*
X114557000Y-117905000D02*
X113489000Y-117812000D01*
X72481500Y-93598300D02*
X71748300Y-94331500D01*
X74298300Y-94300000D02*
X73596600Y-93598300D01*
X69925000Y-93850000D02*
X69625000Y-93550000D01*
X111597000Y-36598300D02*
X110456000Y-36598300D01*
X69625000Y-55550000D02*
X69625000Y-53948300D01*
X111546000Y-74547600D02*
X112298000Y-75300000D01*
X129488000Y-61566000D02*
X128744000Y-62310200D01*
X73593900Y-74595600D02*
X72458400Y-74595600D01*
X93986600Y-115178000D02*
X93986600Y-98486600D01*
X72458400Y-74595600D02*
X71675200Y-75378800D01*
X75300000Y-36287100D02*
X75300000Y-37300000D01*
X110036000Y-51994100D02*
X109385000Y-51994100D01*
X129500000Y-47672100D02*
X129500000Y-48908400D01*
X53500000Y-112000000D02*
X52683100Y-111183000D01*
X112988000Y-73106000D02*
X111546000Y-74547600D01*
X34703800Y-113297000D02*
X37300000Y-113297000D01*
X34500000Y-101000000D02*
X37300000Y-103800000D01*
X72500000Y-122236000D02*
X72500000Y-123000000D01*
X75300000Y-116284000D02*
X75300000Y-102800000D01*
X105575000Y-89000000D02*
X105875000Y-89300000D01*
X131978000Y-79216700D02*
X130597000Y-80598300D01*
X129500000Y-87000000D02*
X129500000Y-83501700D01*
X94300000Y-41800000D02*
X94300000Y-46750900D01*
X75300000Y-39719400D02*
X72500000Y-42519400D01*
X129501000Y-42577300D02*
X130576000Y-42577300D01*
X75300000Y-117300000D02*
X75300000Y-116284000D01*
X137124000Y-120778000D02*
X137124000Y-120779000D01*
X56300000Y-51703900D02*
X53500000Y-54503900D01*
X68831600Y-91948300D02*
X68718900Y-91835600D01*
X147600000Y-101500000D02*
X147600000Y-103561000D01*
X164610000Y-45790000D02*
X165204000Y-45790000D01*
X113300000Y-58722200D02*
X110500000Y-61522200D01*
X93986600Y-98486600D02*
X91500000Y-96000000D01*
X105875000Y-51300000D02*
X105875000Y-52901700D01*
X113300000Y-55287700D02*
X113300000Y-56300000D01*
X70350000Y-95151700D02*
X71748300Y-95151700D01*
X113300000Y-55287700D02*
X113300000Y-55258400D01*
X108477000Y-52901700D02*
X109385000Y-51994100D01*
X131298000Y-81300000D02*
X132300000Y-81300000D01*
X165814000Y-46400000D02*
X165814000Y-48940000D01*
X34500000Y-78501700D02*
X33702400Y-77704100D01*
X53455700Y-105598000D02*
X54854300Y-105598000D01*
X131978000Y-70478200D02*
X131978000Y-79216700D01*
X147175000Y-101500000D02*
X146875000Y-101200000D01*
X154656000Y-133020000D02*
X156224000Y-134588000D01*
X74992300Y-90587300D02*
X74992300Y-94300000D01*
X157110000Y-130634000D02*
X155354000Y-130634000D01*
X147600000Y-63500000D02*
X147600000Y-61534700D01*
X113251000Y-102751000D02*
X113251000Y-109413000D01*
X169450000Y-101702000D02*
X169406000Y-101702000D01*
X158343000Y-132602000D02*
X158057000Y-132889000D01*
X91500000Y-92501700D02*
X90724300Y-91726000D01*
X56007800Y-104724000D02*
X54994000Y-105738000D01*
X158343000Y-132602000D02*
X158057000Y-132943000D01*
X110313000Y-122381000D02*
X110313000Y-117302000D01*
X56300000Y-87300000D02*
X56300000Y-86284100D01*
X73841700Y-96101700D02*
X74096500Y-95846900D01*
X158057000Y-131581000D02*
X158057000Y-131690000D01*
X110500000Y-81000000D02*
X109700000Y-80199800D01*
X158057000Y-131581000D02*
X157110000Y-130634000D01*
X66110400Y-54598100D02*
X66110400Y-57151700D01*
X70350000Y-55850000D02*
X69925000Y-55850000D01*
X132295000Y-122147000D02*
X133968000Y-120473000D01*
X91500000Y-54501700D02*
X91500000Y-58000000D01*
X110532000Y-74547600D02*
X111546000Y-74547600D01*
X71830200Y-58501700D02*
X72500000Y-58501700D01*
%TO.N,RST*%
X168258000Y-95883000D02*
X167750000Y-95375000D01*
X167750000Y-100625000D02*
X167750000Y-101163000D01*
X167750000Y-101163000D02*
X168258000Y-100656000D01*
X166814000Y-101702000D02*
X167750000Y-101702000D01*
X150450000Y-48480000D02*
X150430000Y-48500000D01*
X167750000Y-101702000D02*
X167750000Y-101163000D01*
X150430000Y-59590000D02*
X150190000Y-59830000D01*
X150190000Y-59830000D02*
X150190000Y-92070000D01*
X168258000Y-96677800D02*
X168258000Y-95883000D01*
X168258000Y-100656000D02*
X168258000Y-96677800D01*
X150190000Y-92070000D02*
X149950000Y-92310000D01*
X150430000Y-48500000D02*
X150430000Y-59590000D01*
%TO.N,VCC*%
X45500000Y-82000000D02*
X43168400Y-79668400D01*
X118700000Y-58733100D02*
X118700000Y-57700000D01*
X145125000Y-98401700D02*
X145924000Y-98401700D01*
X122952000Y-91597400D02*
X122952000Y-82451700D01*
X138702000Y-82700000D02*
X139103000Y-83101700D01*
X99700000Y-92591600D02*
X99700000Y-91700000D01*
X139093000Y-80598300D02*
X138902000Y-80789200D01*
X122992000Y-44492000D02*
X121500000Y-43000000D01*
X121500000Y-80514700D02*
X121500000Y-81000000D01*
X122258000Y-57373700D02*
X122258000Y-55498300D01*
X145175000Y-127615000D02*
X145175000Y-123115000D01*
X118700000Y-58733100D02*
X119799000Y-59832300D01*
X66231100Y-75731100D02*
X66231100Y-90151700D01*
X103258000Y-34448300D02*
X103258000Y-32598300D01*
X67150000Y-50850000D02*
X67575000Y-50850000D01*
X144400000Y-95198300D02*
X143391000Y-95198300D01*
X107925000Y-56000000D02*
X107625000Y-55700000D01*
X83500000Y-122518000D02*
X83500000Y-123000000D01*
X102500000Y-95392000D02*
X102500000Y-96000000D01*
X161294000Y-137487000D02*
X160722000Y-138168000D01*
X122961000Y-63461300D02*
X122961000Y-73159800D01*
X100947000Y-120748000D02*
X102500000Y-122302000D01*
X122229000Y-122860000D02*
X122229000Y-124298000D01*
X119818000Y-78832600D02*
X121500000Y-80514700D01*
X141210000Y-128737000D02*
X142631000Y-130158000D01*
X103034000Y-86002100D02*
X103034000Y-89498300D01*
X122289000Y-94290300D02*
X121274000Y-93275200D01*
X44254400Y-94527200D02*
X43914300Y-94867300D01*
X118700000Y-96726900D02*
X119832000Y-97859000D01*
X80700000Y-77717700D02*
X80700000Y-76700000D01*
X108350000Y-95301700D02*
X109368000Y-95301700D01*
X99700000Y-119502000D02*
X99912200Y-119714000D01*
X137700000Y-64706900D02*
X138838000Y-65844400D01*
X42700000Y-97708800D02*
X43830400Y-98839100D01*
X65142200Y-52904900D02*
X65895400Y-52151700D01*
X121500000Y-61533100D02*
X121500000Y-62000000D01*
X65954100Y-98120300D02*
X63074400Y-101000000D01*
X61700000Y-108717000D02*
X64500000Y-111517000D01*
X122258000Y-55498300D02*
X122992000Y-54764100D01*
X42700000Y-78501700D02*
X42965100Y-78501700D01*
X77553200Y-90119900D02*
X77553200Y-90121500D01*
X64500000Y-73529700D02*
X64500000Y-74000000D01*
X142140000Y-88640000D02*
X140500000Y-87000000D01*
X118700000Y-39715900D02*
X118700000Y-38700000D01*
X108350000Y-56000000D02*
X107925000Y-56000000D01*
X45500000Y-63000000D02*
X42700000Y-60200000D01*
X45533500Y-107361000D02*
X45533500Y-113397000D01*
X99700000Y-73720500D02*
X100814000Y-74834700D01*
X103975000Y-115794000D02*
X103975000Y-97475000D01*
X144825000Y-96500000D02*
X145125000Y-96800000D01*
X145170000Y-123110000D02*
X145175000Y-123105000D01*
X102500000Y-58000000D02*
X103952000Y-59451700D01*
X144400000Y-58500000D02*
X144825000Y-58500000D01*
X145175000Y-123105000D02*
X145175000Y-123099000D01*
X46964900Y-102465000D02*
X46964900Y-105930000D01*
X122262000Y-38432600D02*
X122262000Y-36498300D01*
X103252000Y-89715700D02*
X103034000Y-89498300D01*
X99912200Y-119714000D02*
X100947000Y-120748000D01*
X137939000Y-44700000D02*
X139413000Y-46173600D01*
X139413000Y-46173600D02*
X139413000Y-47429100D01*
X160675000Y-139575000D02*
X160674000Y-139575000D01*
X102500000Y-77000000D02*
X103963000Y-78462800D01*
X103258000Y-72391100D02*
X103258000Y-71267300D01*
X141259000Y-63423400D02*
X138838000Y-65844400D01*
X144040000Y-52540300D02*
X144040000Y-58500000D01*
X102500000Y-38301700D02*
X102500000Y-39000000D01*
X99700000Y-54716100D02*
X99700000Y-53700000D01*
X83500000Y-81000000D02*
X84999200Y-82499200D01*
X150440000Y-119480000D02*
X154070000Y-123110000D01*
X99700000Y-73720500D02*
X99700000Y-72700000D01*
X137700000Y-64706900D02*
X137700000Y-63700000D01*
X140500000Y-83101700D02*
X140519000Y-83101700D01*
X67150000Y-52151700D02*
X67150000Y-50850000D01*
X159400000Y-82640000D02*
X162940000Y-86180000D01*
X45500000Y-64198300D02*
X48468000Y-67166300D01*
X80700000Y-93266700D02*
X77553200Y-90119900D01*
X141287000Y-101445000D02*
X138855000Y-103878000D01*
X150440000Y-105431000D02*
X150440000Y-119480000D01*
X139953000Y-98636700D02*
X139953000Y-99013900D01*
X119839000Y-40855100D02*
X122262000Y-38432600D01*
X83500000Y-80517700D02*
X83500000Y-81000000D01*
X83516800Y-55560900D02*
X82149000Y-55560900D01*
X100814000Y-74834700D02*
X103258000Y-72391100D01*
X108350000Y-94000000D02*
X107925000Y-94000000D01*
X121274000Y-93275200D02*
X118700000Y-93275200D01*
X61700000Y-70729700D02*
X61700000Y-69700000D01*
X64500000Y-94062600D02*
X65954100Y-95516700D01*
X62904700Y-105849000D02*
X62904700Y-101170000D01*
X108350000Y-94000000D02*
X108350000Y-95301700D01*
X84264900Y-56309000D02*
X83516800Y-55560900D01*
X65895400Y-52151700D02*
X67150000Y-52151700D01*
X84264900Y-38423500D02*
X84264900Y-37309000D01*
X80700000Y-39732000D02*
X81828200Y-40860200D01*
X84986800Y-54090900D02*
X83516800Y-55560900D01*
X118700000Y-39715900D02*
X119839000Y-40855100D01*
X83500000Y-99508800D02*
X83500000Y-100000000D01*
X139280000Y-99498300D02*
X139764000Y-99013900D01*
X141259000Y-61450000D02*
X141259000Y-61281000D01*
X121557000Y-74564300D02*
X120170000Y-74564300D01*
X119815000Y-119770000D02*
X119815000Y-120765000D01*
X103952000Y-59451700D02*
X103952000Y-68634700D01*
X48468000Y-67166300D02*
X48468000Y-75846300D01*
X85005100Y-115121000D02*
X85005100Y-101505000D01*
X84310600Y-95388400D02*
X84310600Y-93266700D01*
X139413000Y-47429100D02*
X140500000Y-48516200D01*
X119839000Y-40855100D02*
X121500000Y-42515900D01*
X82149000Y-55560900D02*
X82003100Y-55706800D01*
X46270500Y-94527200D02*
X44254400Y-94527200D01*
X84999200Y-88830100D02*
X84999200Y-92578100D01*
X140500000Y-106000000D02*
X142522000Y-108022000D01*
X119832000Y-97859000D02*
X122289000Y-95402200D01*
X137700000Y-44700000D02*
X137939000Y-44700000D01*
X45500000Y-100509000D02*
X45500000Y-101000000D01*
X61700000Y-70729700D02*
X64500000Y-73529700D01*
X159400000Y-79300000D02*
X159400000Y-82640000D01*
X140519000Y-83101700D02*
X141252000Y-82368600D01*
X102500000Y-76520500D02*
X102500000Y-77000000D01*
X107925000Y-94000000D02*
X107625000Y-93700000D01*
X80700000Y-58712200D02*
X81835700Y-59847800D01*
X159700000Y-79000000D02*
X159700000Y-76700000D01*
X67150000Y-90151700D02*
X67150000Y-88850000D01*
X83500000Y-62000000D02*
X84956200Y-63456200D01*
X66231100Y-90151700D02*
X67150000Y-90151700D01*
X42700000Y-58700000D02*
X42700000Y-59707600D01*
X99700000Y-35501700D02*
X99912200Y-35713900D01*
X67575000Y-88850000D02*
X67875000Y-89150000D01*
X143391000Y-95198300D02*
X139953000Y-98636700D01*
X143391000Y-95198300D02*
X142140000Y-93947300D01*
X66231100Y-91268900D02*
X64500000Y-93000000D01*
X140500000Y-83101700D02*
X140500000Y-87000000D01*
X84260400Y-76391500D02*
X84260400Y-74498300D01*
X121274000Y-93275200D02*
X122952000Y-91597400D01*
X81828200Y-40860200D02*
X83500000Y-42532000D01*
X81845100Y-97853900D02*
X84310600Y-95388400D01*
X139953000Y-99013900D02*
X141287000Y-100348000D01*
X122952000Y-82451700D02*
X121500000Y-81000000D01*
X144400000Y-96500000D02*
X144825000Y-96500000D01*
X139764000Y-99013900D02*
X139953000Y-99013900D01*
X141210000Y-125421000D02*
X141210000Y-128737000D01*
X141471000Y-125160000D02*
X141210000Y-125421000D01*
X118700000Y-77714700D02*
X118700000Y-76700000D01*
X81904700Y-116891000D02*
X82209500Y-116586000D01*
X103963000Y-78462800D02*
X103963000Y-85073600D01*
X85005100Y-101505000D02*
X83500000Y-100000000D01*
X80700000Y-119718000D02*
X80700000Y-118700000D01*
X145175000Y-123115000D02*
X145170000Y-123110000D01*
X80700000Y-77717700D02*
X81817100Y-78834800D01*
X122961000Y-73159800D02*
X121557000Y-74564300D01*
X84264900Y-37309000D02*
X83347700Y-36391800D01*
X45500000Y-101000000D02*
X46964900Y-102465000D01*
X64500000Y-74000000D02*
X66231100Y-75731100D01*
X145175000Y-123099000D02*
X142522000Y-120446000D01*
X103271000Y-118424000D02*
X103271000Y-116498000D01*
X42700000Y-60200000D02*
X42700000Y-59707600D01*
X122992000Y-54764100D02*
X122992000Y-44492000D01*
X64500000Y-93000000D02*
X64500000Y-94062600D01*
X141259000Y-61450000D02*
X141259000Y-63423400D01*
X64500000Y-53547100D02*
X65142200Y-52904900D01*
X100947000Y-120748000D02*
X103271000Y-118424000D01*
X119832000Y-97859000D02*
X121500000Y-99526900D01*
X162940000Y-86180000D02*
X162940000Y-98480000D01*
X142522000Y-108022000D02*
X142522000Y-120446000D01*
X140519000Y-80598300D02*
X139093000Y-80598300D01*
X83500000Y-42532000D02*
X83500000Y-43000000D01*
X83539700Y-116586000D02*
X84261800Y-117308000D01*
X61700000Y-50700000D02*
X61700000Y-52904900D01*
X157500000Y-103920000D02*
X151951000Y-103920000D01*
X45500000Y-63000000D02*
X45500000Y-64198300D01*
X46954600Y-93843100D02*
X46954600Y-83454600D01*
X118700000Y-77714700D02*
X119818000Y-78832600D01*
X81835700Y-59847800D02*
X84264900Y-57418600D01*
X103952000Y-68634700D02*
X102288000Y-70297900D01*
X144400000Y-96500000D02*
X144400000Y-95198300D01*
X121259000Y-121890000D02*
X122229000Y-122860000D01*
X120940000Y-121890000D02*
X121259000Y-121890000D01*
X142631000Y-130158000D02*
X145175000Y-127615000D01*
X83539700Y-116586000D02*
X85005100Y-115121000D01*
X121500000Y-99526900D02*
X121500000Y-100000000D01*
X42700000Y-97708800D02*
X42700000Y-96700000D01*
X103963000Y-85073600D02*
X103034000Y-86002100D01*
X122261000Y-75268300D02*
X121557000Y-74564300D01*
X81817100Y-78834800D02*
X84260400Y-76391500D01*
X145125000Y-96800000D02*
X145125000Y-98401700D01*
X71386000Y-49548300D02*
X71386000Y-53650900D01*
X120170000Y-74564300D02*
X120005000Y-74729200D01*
X162940000Y-98480000D02*
X157500000Y-103920000D01*
X83500000Y-43000000D02*
X84986800Y-44486800D01*
X139103000Y-83101700D02*
X140500000Y-83101700D01*
X99700000Y-118700000D02*
X99700000Y-119502000D01*
X103252000Y-91389600D02*
X103252000Y-89715700D01*
X81832100Y-120850000D02*
X83500000Y-122518000D01*
X119818000Y-78832600D02*
X122261000Y-76389700D01*
X67150000Y-88850000D02*
X67575000Y-88850000D01*
X100875000Y-93766600D02*
X103252000Y-91389600D01*
X82209500Y-116586000D02*
X83539700Y-116586000D01*
X42965100Y-78501700D02*
X43168400Y-78705000D01*
X141252000Y-82368600D02*
X141252000Y-81331400D01*
X121500000Y-62000000D02*
X122961000Y-63461300D01*
X102500000Y-57516100D02*
X102500000Y-58000000D01*
X160722000Y-138168000D02*
X160675000Y-138215000D01*
X99912200Y-35713900D02*
X100952000Y-36753800D01*
X80700000Y-96708800D02*
X81845100Y-97853900D01*
X122289000Y-95402200D02*
X122289000Y-94290300D01*
X43830400Y-98839100D02*
X46270500Y-96399000D01*
X64500000Y-55000000D02*
X64500000Y-53547100D01*
X103271000Y-116498000D02*
X103975000Y-115794000D01*
X64500000Y-111517000D02*
X64500000Y-112000000D01*
X61700000Y-89706000D02*
X63604400Y-91610400D01*
X46964900Y-105930000D02*
X45533500Y-107361000D01*
X84261800Y-117308000D02*
X84261800Y-118420000D01*
X121259000Y-121890000D02*
X123485000Y-119664000D01*
X67150000Y-50850000D02*
X67150000Y-49329800D01*
X66231100Y-90151700D02*
X66231100Y-91268900D01*
X102500000Y-39000000D02*
X103991000Y-40490700D01*
X137700000Y-102723000D02*
X138855000Y-103878000D01*
X84999200Y-92578100D02*
X84310600Y-93266700D01*
X118700000Y-96726900D02*
X118700000Y-95700000D01*
X84310600Y-93266700D02*
X80700000Y-93266700D01*
X84986800Y-44486800D02*
X84986800Y-54090900D01*
X103991000Y-40490700D02*
X103991000Y-44252500D01*
X46954600Y-83454600D02*
X45500000Y-82000000D01*
X81845100Y-97853900D02*
X83500000Y-99508800D01*
X43168400Y-79668400D02*
X43168400Y-78705000D01*
X155114000Y-47590000D02*
X156174000Y-48650000D01*
X137700000Y-102723000D02*
X137700000Y-101700000D01*
X103975000Y-97475000D02*
X102500000Y-96000000D01*
X140500000Y-49000000D02*
X144040000Y-52540300D01*
X99700000Y-54716100D02*
X102500000Y-57516100D01*
X80700000Y-96708800D02*
X80700000Y-95700000D01*
X80700000Y-39732000D02*
X80700000Y-38700000D01*
X119799000Y-59832300D02*
X122258000Y-57373700D01*
X141259000Y-61281000D02*
X144040000Y-58500000D01*
X100875000Y-93766600D02*
X99700000Y-92591600D01*
X100952000Y-36753800D02*
X103258000Y-34448300D01*
X99700000Y-34700000D02*
X99700000Y-35501700D01*
X81817100Y-78834800D02*
X83500000Y-80517700D01*
X62904700Y-101170000D02*
X63074400Y-101000000D01*
X61700000Y-108717000D02*
X61700000Y-107700000D01*
X145780000Y-47590000D02*
X155114000Y-47590000D01*
X137700000Y-82700000D02*
X138702000Y-82700000D01*
X46270500Y-96399000D02*
X46270500Y-94527200D01*
X144400000Y-58500000D02*
X144040000Y-58500000D01*
X102924000Y-45319400D02*
X102924000Y-51579900D01*
X83500000Y-61512200D02*
X83500000Y-62000000D01*
X103258000Y-71267300D02*
X102288000Y-70297900D01*
X121500000Y-42515900D02*
X121500000Y-43000000D01*
X100875000Y-93766600D02*
X102500000Y-95392000D01*
X102500000Y-122302000D02*
X102500000Y-123000000D01*
X122261000Y-76389700D02*
X122261000Y-75268300D01*
X42700000Y-115700000D02*
X42700000Y-116722000D01*
X141252000Y-81331400D02*
X140519000Y-80598300D01*
X138855000Y-103878000D02*
X140500000Y-105523000D01*
X84264900Y-57418600D02*
X84264900Y-56309000D01*
X84261800Y-118420000D02*
X81832100Y-120850000D01*
X46270500Y-94527200D02*
X46954600Y-93843100D01*
X100814000Y-74834700D02*
X102500000Y-76520500D01*
X81828200Y-40860200D02*
X84264900Y-38423500D01*
X67575000Y-50850000D02*
X67875000Y-51150000D01*
X42700000Y-116722000D02*
X45500000Y-119522000D01*
X84999200Y-82499200D02*
X84999200Y-88830100D01*
X80700000Y-58712200D02*
X80700000Y-57700000D01*
X140500000Y-105523000D02*
X140500000Y-106000000D01*
X107625000Y-55700000D02*
X107625000Y-53898300D01*
X160674000Y-139575000D02*
X160674000Y-142580000D01*
X140500000Y-48516200D02*
X140500000Y-49000000D01*
X160675000Y-138215000D02*
X160675000Y-139575000D01*
X84956200Y-63456200D02*
X84956200Y-73802500D01*
X119815000Y-120765000D02*
X120940000Y-121890000D01*
X145924000Y-98401700D02*
X146006000Y-98483200D01*
X144825000Y-58500000D02*
X145125000Y-58800000D01*
X84956200Y-73802500D02*
X84260400Y-74498300D01*
X151951000Y-103920000D02*
X150440000Y-105431000D01*
X42700000Y-77700000D02*
X42700000Y-78501700D01*
X103991000Y-44252500D02*
X102924000Y-45319400D01*
X123485000Y-119664000D02*
X123485000Y-117313000D01*
X142140000Y-93947300D02*
X142140000Y-88640000D01*
X43830400Y-98839100D02*
X45500000Y-100509000D01*
X159700000Y-79000000D02*
X159400000Y-79300000D01*
X138838000Y-65844400D02*
X140500000Y-67506900D01*
X80700000Y-119718000D02*
X81832100Y-120850000D01*
X119799000Y-59832300D02*
X121500000Y-61533100D01*
X65954100Y-95516700D02*
X65954100Y-98120300D01*
X81835700Y-59847800D02*
X83500000Y-61512200D01*
X61700000Y-88700000D02*
X61700000Y-89706000D01*
X45500000Y-119522000D02*
X45500000Y-120000000D01*
X100952000Y-36753800D02*
X102500000Y-38301700D01*
X141287000Y-100348000D02*
X141287000Y-101445000D01*
X140500000Y-67506900D02*
X140500000Y-68000000D01*
%TO.N,P21*%
X32901700Y-78250000D02*
X32901700Y-78266400D01*
X32901700Y-78266400D02*
X33114100Y-78478800D01*
X32914600Y-97262900D02*
X32901700Y-97250000D01*
X32450900Y-59250000D02*
X32901700Y-59250000D01*
X30100700Y-75974800D02*
X30100700Y-61600200D01*
X32000000Y-96874100D02*
X30100700Y-98773400D01*
X151030000Y-53610000D02*
X151720000Y-52920000D01*
X32000000Y-96498300D02*
X30100700Y-94599000D01*
X70000000Y-118498000D02*
X69353100Y-118498000D01*
X32000000Y-78250000D02*
X32000000Y-77874100D01*
X32901700Y-97250000D02*
X32000000Y-97250000D01*
X30100700Y-79773400D02*
X32000000Y-77874100D01*
X70000000Y-119250000D02*
X70000000Y-118498000D01*
X33142500Y-97262900D02*
X32914600Y-97262900D01*
X30100700Y-61600200D02*
X32450900Y-59250000D01*
X32000000Y-59250000D02*
X32450900Y-59250000D01*
X32000000Y-77874100D02*
X30100700Y-75974800D01*
X32901700Y-59250000D02*
X33111900Y-59039800D01*
X30100700Y-113374000D02*
X32000000Y-115274000D01*
X32000000Y-97250000D02*
X32000000Y-96874100D01*
X32000000Y-115274000D02*
X32000000Y-116250000D01*
X154722000Y-52920000D02*
X156162000Y-51480000D01*
X151720000Y-52920000D02*
X154722000Y-52920000D01*
X32000000Y-96874100D02*
X32000000Y-96498300D01*
X32000000Y-78250000D02*
X32901700Y-78250000D01*
X30100700Y-94599000D02*
X30100700Y-79773400D01*
X30100700Y-98773400D02*
X30100700Y-113374000D01*
X69353100Y-118498000D02*
X69171100Y-118316000D01*
%TO.N,P20*%
X148500000Y-95200000D02*
X148500000Y-104302000D01*
X49126400Y-90371900D02*
X49126400Y-105625000D01*
X143190000Y-89890000D02*
X148500000Y-95200000D01*
X51000000Y-89250000D02*
X51000000Y-88498300D01*
X51901700Y-89250000D02*
X51000000Y-89250000D01*
X52107700Y-51202500D02*
X51949200Y-51202500D01*
X90957700Y-114057000D02*
X89000000Y-116015000D01*
X144657000Y-60872600D02*
X143190000Y-62340000D01*
X143190000Y-62340000D02*
X143190000Y-89890000D01*
X148500000Y-104302000D02*
X142933000Y-109869000D01*
X51269900Y-109002000D02*
X51000000Y-109002000D01*
X51000000Y-88498300D02*
X49123000Y-86621300D01*
X142933000Y-109869000D02*
X142933000Y-114527000D01*
X142933000Y-114527000D02*
X143131000Y-114725000D01*
X51000000Y-70250000D02*
X51000000Y-68930300D01*
X49123000Y-72878700D02*
X51000000Y-71001700D01*
X147920000Y-60270000D02*
X147317000Y-60872600D01*
X147317000Y-60872600D02*
X144657000Y-60872600D01*
X51901700Y-51250000D02*
X51450900Y-51250000D01*
X49126400Y-105625000D02*
X51000000Y-107498000D01*
X51000000Y-51250000D02*
X51450900Y-51250000D01*
X89000000Y-116015000D02*
X89000000Y-118290000D01*
X51000000Y-109002000D02*
X51000000Y-108250000D01*
X48787400Y-53913500D02*
X51450900Y-51250000D01*
X51901700Y-70250000D02*
X52113300Y-70461600D01*
X49123000Y-86621300D02*
X49123000Y-72878700D01*
X51000000Y-70250000D02*
X51901700Y-70250000D01*
X52128700Y-89541000D02*
X51901700Y-89314000D01*
X51949200Y-51202500D02*
X51901700Y-51250000D01*
X51482000Y-109214000D02*
X51269900Y-109002000D01*
X51000000Y-88498300D02*
X49126400Y-90371900D01*
X51901700Y-89314000D02*
X51901700Y-89250000D01*
X51000000Y-71001700D02*
X51000000Y-70250000D01*
X51000000Y-68930300D02*
X48787400Y-66717700D01*
X89000000Y-118290000D02*
X89000000Y-119250000D01*
X51000000Y-107498000D02*
X51000000Y-108250000D01*
X48787400Y-66717700D02*
X48787400Y-53913500D01*
%TO.N,P19*%
X136470000Y-37970000D02*
X127812000Y-37970000D01*
X70000000Y-38160000D02*
X70010000Y-38170000D01*
X70000000Y-59225000D02*
X70000000Y-58250000D01*
X70000000Y-39250000D02*
X70000000Y-40390000D01*
X68676700Y-90639100D02*
X67538700Y-91777100D01*
X68676700Y-86831600D02*
X68676700Y-90639100D01*
X70901700Y-96250000D02*
X71048200Y-96396500D01*
X109293000Y-115818000D02*
X107858000Y-114382000D01*
X65275100Y-50447400D02*
X62049800Y-53672700D01*
X65275100Y-49235600D02*
X65275100Y-50447400D01*
X155844000Y-55369100D02*
X155844000Y-56242000D01*
X109180000Y-118558000D02*
X109293000Y-118445000D01*
X127812000Y-37970000D02*
X121680000Y-31838500D01*
X109293000Y-118445000D02*
X109293000Y-118383000D01*
X70000000Y-77379700D02*
X68151700Y-77379700D01*
X70000000Y-40390000D02*
X65213100Y-45176900D01*
X70000000Y-96250000D02*
X70901700Y-96250000D01*
X71048200Y-96396500D02*
X71048200Y-102157000D01*
X107374000Y-114382000D02*
X106765000Y-114992000D01*
X141699000Y-43198600D02*
X136470000Y-37970000D01*
X65213100Y-49173600D02*
X65275100Y-49235600D01*
X68101300Y-61123700D02*
X70000000Y-59225000D01*
X66355800Y-96968600D02*
X67736900Y-98349700D01*
X107858000Y-114382000D02*
X107374000Y-114382000D01*
X70000000Y-39250000D02*
X70000000Y-38180000D01*
X65213100Y-45176900D02*
X65213100Y-49173600D01*
X66355800Y-95150200D02*
X66355800Y-96968600D01*
X68151700Y-77379700D02*
X68101300Y-77329300D01*
X109293000Y-118383000D02*
X109293000Y-115818000D01*
X68101300Y-77329300D02*
X68101300Y-61123700D01*
X62049800Y-53672700D02*
X62049800Y-56335700D01*
X141699000Y-44589000D02*
X141699000Y-43198600D01*
X109107000Y-119386000D02*
X109180000Y-118558000D01*
X75891500Y-31838500D02*
X70000000Y-37730000D01*
X149800000Y-52690000D02*
X141699000Y-44589000D01*
X70000000Y-37730000D02*
X70000000Y-38160000D01*
X67169300Y-91777100D02*
X66226400Y-92720000D01*
X155844000Y-56242000D02*
X156162000Y-56560000D01*
X70000000Y-77379700D02*
X70000000Y-78211500D01*
X149800000Y-54940000D02*
X149800000Y-52690000D01*
X68083200Y-77448200D02*
X68083200Y-86238100D01*
X66226400Y-92720000D02*
X66226400Y-95020800D01*
X70000000Y-38180000D02*
X70010000Y-38170000D01*
X121680000Y-31838500D02*
X75891500Y-31838500D01*
X70901700Y-96250000D02*
X71113000Y-96250000D01*
X66226400Y-95020800D02*
X66355800Y-95150200D01*
X68083200Y-86238100D02*
X68676700Y-86831600D01*
X67538700Y-91777100D02*
X67169300Y-91777100D01*
X70000000Y-77250000D02*
X70000000Y-77379700D01*
X62049800Y-56335700D02*
X61720400Y-56665100D01*
X68151700Y-77379700D02*
X68083200Y-77448200D01*
X61720400Y-56665100D02*
X61720400Y-59350000D01*
X106765000Y-114992000D02*
X106765000Y-115342000D01*
%TO.N,P18*%
X150640000Y-59960000D02*
X152890000Y-57710000D01*
X130124000Y-120912000D02*
X126788000Y-117576000D01*
X88718000Y-53498300D02*
X89000000Y-53498300D01*
X89000000Y-72284300D02*
X89000000Y-73250000D01*
X131228000Y-122340000D02*
X131228000Y-122017000D01*
X130627000Y-123032000D02*
X130859000Y-123032000D01*
X89000000Y-36205700D02*
X89000000Y-35250000D01*
X155074000Y-57710000D02*
X156174000Y-58810000D01*
X89000000Y-92250000D02*
X89000000Y-93203900D01*
X131044000Y-122524000D02*
X131228000Y-122340000D01*
X143543000Y-110440000D02*
X150640000Y-103343000D01*
X130124000Y-121615000D02*
X130124000Y-120912000D01*
X143543000Y-113936000D02*
X143543000Y-110440000D01*
X87143000Y-51923300D02*
X88506900Y-53287200D01*
X131044000Y-122524000D02*
X131228000Y-122017000D01*
X87143000Y-38062700D02*
X87143000Y-51923300D01*
X126788000Y-111972000D02*
X126364000Y-111548000D01*
X87143000Y-89641300D02*
X89000000Y-91498300D01*
X150640000Y-103343000D02*
X150640000Y-59960000D01*
X87143000Y-74141300D02*
X87143000Y-89641300D01*
X87143000Y-70427300D02*
X89000000Y-72284300D01*
X130602000Y-123057000D02*
X130627000Y-123032000D01*
X88506900Y-53287200D02*
X88718000Y-53498300D01*
X87143000Y-54651100D02*
X87143000Y-70427300D01*
X152890000Y-57710000D02*
X155074000Y-57710000D01*
X88506900Y-53287200D02*
X87143000Y-54651100D01*
X130859000Y-123032000D02*
X131044000Y-122524000D01*
X126788000Y-117576000D02*
X126788000Y-111972000D01*
X131228000Y-122017000D02*
X130124000Y-121615000D01*
X89000000Y-72284300D02*
X87143000Y-74141300D01*
X89000000Y-91498300D02*
X89000000Y-92250000D01*
X89000000Y-36205700D02*
X87143000Y-38062700D01*
X89000000Y-53498300D02*
X89000000Y-54250000D01*
%TO.N,P15*%
X103494000Y-47499900D02*
X103494000Y-50961900D01*
X147400000Y-120821000D02*
X146520000Y-119941000D01*
X105331000Y-96250000D02*
X103869000Y-94787900D01*
X112808000Y-101562000D02*
X113860000Y-102613000D01*
X108000000Y-96250000D02*
X106882000Y-96250000D01*
X106823000Y-54395000D02*
X106823000Y-58132900D01*
X106892000Y-58202100D02*
X106149000Y-58945400D01*
X152150000Y-131666000D02*
X152029000Y-131788000D01*
X112808000Y-97782800D02*
X112808000Y-101562000D01*
X106892000Y-58202100D02*
X107050000Y-58202100D01*
X152743000Y-131030000D02*
X152209000Y-131666000D01*
X106149000Y-58945400D02*
X106149000Y-74433600D01*
X152209000Y-131666000D02*
X152150000Y-131666000D01*
X107098000Y-58250000D02*
X108000000Y-58250000D01*
X106823000Y-58132900D02*
X106892000Y-58202100D01*
X106149000Y-74433600D02*
X108000000Y-76284400D01*
X107098000Y-39180400D02*
X107098000Y-39250000D01*
X106198000Y-54097100D02*
X106525000Y-54097100D01*
X106525000Y-54097100D02*
X106823000Y-54395000D01*
X103494000Y-50961900D02*
X103694000Y-51161900D01*
X103869000Y-85935700D02*
X105088000Y-84716500D01*
X113860000Y-102613000D02*
X113860000Y-112783000D01*
X147691000Y-129809000D02*
X147400000Y-129518000D01*
X103694000Y-51161900D02*
X103694000Y-51593100D01*
X107050000Y-58202100D02*
X107098000Y-58250000D01*
X103694000Y-51593100D02*
X106198000Y-54097100D01*
X106882000Y-38964300D02*
X107098000Y-39180400D01*
X108000000Y-76284400D02*
X108000000Y-77250000D01*
X106882000Y-44112000D02*
X103494000Y-47499900D01*
X105088000Y-84716500D02*
X105088000Y-76767200D01*
X106882000Y-38964300D02*
X106882000Y-44112000D01*
X103869000Y-94787900D02*
X103869000Y-85935700D01*
X113860000Y-112783000D02*
X116693000Y-115616000D01*
X107098000Y-39250000D02*
X108000000Y-39250000D01*
X147400000Y-129518000D02*
X147400000Y-120821000D01*
%TO.N,P14*%
X127000000Y-84222700D02*
X125102000Y-86121000D01*
X127000000Y-44498300D02*
X127000000Y-45250000D01*
X125101000Y-66149000D02*
X127000000Y-64250000D01*
X125102000Y-47900000D02*
X125102000Y-62352000D01*
X125102000Y-99600000D02*
X127000000Y-101498000D01*
X127000000Y-103210000D02*
X127000000Y-102250000D01*
X127000000Y-45250000D02*
X127000000Y-46001700D01*
X127000000Y-102250000D02*
X127000000Y-101498000D01*
X131862000Y-69215200D02*
X131862000Y-65213400D01*
X127000000Y-83250000D02*
X127000000Y-82498300D01*
X133050000Y-70403200D02*
X131862000Y-69215200D01*
X127000000Y-84222700D02*
X127000000Y-83250000D01*
X134824000Y-76531300D02*
X133050000Y-74757700D01*
X125102000Y-86121000D02*
X125102000Y-99600000D01*
X141519000Y-76531300D02*
X134824000Y-76531300D01*
X125101000Y-80599600D02*
X125101000Y-66149000D01*
X127000000Y-101498000D02*
X127000000Y-97531800D01*
X127000000Y-46001700D02*
X125102000Y-47900000D01*
X127000000Y-82498300D02*
X125101000Y-80599600D01*
X133050000Y-74757700D02*
X133050000Y-70403200D01*
X125102000Y-62352000D02*
X127000000Y-64250000D01*
X127000000Y-65213400D02*
X127000000Y-64250000D01*
X127226000Y-44271800D02*
X127000000Y-44498300D01*
%TO.N,P1*%
X164800000Y-74400000D02*
X164800000Y-81300000D01*
%TO.N,P0*%
X169800000Y-45734400D02*
X169076000Y-45010000D01*
X169800000Y-70633000D02*
X169800000Y-45734400D01*
X169076000Y-45010000D02*
X167266000Y-45010000D01*
X167341000Y-73092000D02*
X169800000Y-70633000D01*
X167266000Y-45010000D02*
X165826000Y-43570000D01*
%TO.N,P2*%
X65818300Y-50473200D02*
X63087200Y-53204300D01*
X43245000Y-68505000D02*
X43245000Y-68950000D01*
X65818300Y-49783200D02*
X65818300Y-50473200D01*
X138245000Y-54505000D02*
X138245000Y-54950000D01*
X119245000Y-48505000D02*
X119245000Y-48950000D01*
X81245000Y-48505000D02*
X81245000Y-48950000D01*
X67911500Y-48980200D02*
X67588900Y-48657600D01*
X70893700Y-48980200D02*
X67911500Y-48980200D01*
X102000000Y-42750000D02*
X100245000Y-44505000D01*
X45000000Y-66750000D02*
X43245000Y-68505000D01*
X62245000Y-60950000D02*
X62245000Y-65437000D01*
X81245000Y-48950000D02*
X79793400Y-50401600D01*
X63087200Y-53204300D02*
X63087200Y-57837200D01*
X83000000Y-46750000D02*
X81245000Y-48505000D01*
X71189700Y-48684200D02*
X70893700Y-48980200D01*
X121000000Y-46750000D02*
X119245000Y-48505000D01*
X100245000Y-44505000D02*
X100245000Y-44950000D01*
X63087200Y-57837200D02*
X64000000Y-58750000D01*
X99272200Y-45922800D02*
X99272200Y-47974500D01*
X67588900Y-48657600D02*
X66943900Y-48657600D01*
X79793400Y-50401600D02*
X79793400Y-51345100D01*
X140000000Y-52750000D02*
X138245000Y-54505000D01*
X100245000Y-44950000D02*
X99272200Y-45922800D01*
X64000000Y-58750000D02*
X62245000Y-60505000D01*
X66943900Y-48657600D02*
X65818300Y-49783200D01*
X62245000Y-60505000D02*
X62245000Y-60950000D01*
%TO.N,P3*%
X99476900Y-64718100D02*
X99476900Y-65918000D01*
X81245000Y-67505000D02*
X81245000Y-67950000D01*
X100245000Y-63505000D02*
X100245000Y-63950000D01*
X62245000Y-79505000D02*
X62245000Y-79950000D01*
X62245000Y-79950000D02*
X62245000Y-82219900D01*
X102000000Y-61750000D02*
X100245000Y-63505000D01*
X45000000Y-85750000D02*
X43245000Y-87505000D01*
X79071400Y-70123600D02*
X79071400Y-73646200D01*
X119245000Y-69421500D02*
X122358000Y-72534800D01*
X138245000Y-74436300D02*
X136750000Y-75931300D01*
X119245000Y-67950000D02*
X119245000Y-69421500D01*
X138245000Y-73505000D02*
X138245000Y-73950000D01*
X43245000Y-87505000D02*
X43245000Y-87950000D01*
X64000000Y-77750000D02*
X62245000Y-79505000D01*
X149150000Y-53030000D02*
X149150000Y-61530000D01*
X100245000Y-63950000D02*
X99476900Y-64718100D01*
X140000000Y-71750000D02*
X138245000Y-73505000D01*
X121000000Y-65750000D02*
X119245000Y-67505000D01*
X149160000Y-53020000D02*
X149150000Y-53030000D01*
X119245000Y-67505000D02*
X119245000Y-67950000D01*
X138245000Y-73950000D02*
X138245000Y-74436300D01*
X81245000Y-67950000D02*
X79071400Y-70123600D01*
X83000000Y-65750000D02*
X81245000Y-67505000D01*
%TO.N,P4*%
X140000000Y-90750000D02*
X138245000Y-92505000D01*
X62245000Y-98950000D02*
X62245000Y-104750000D01*
X64000000Y-96750000D02*
X62245000Y-98505000D01*
X81245000Y-86950000D02*
X81245000Y-90751700D01*
X149790000Y-58460000D02*
X149790000Y-88030000D01*
X138245000Y-92505000D02*
X138245000Y-92950000D01*
X45000000Y-104750000D02*
X43245000Y-106505000D01*
X83000000Y-84750000D02*
X81245000Y-86505000D01*
X100245000Y-82505000D02*
X100245000Y-82950000D01*
X62245000Y-98505000D02*
X62245000Y-98950000D01*
X81245000Y-86505000D02*
X81245000Y-86950000D01*
X43245000Y-106505000D02*
X43245000Y-106950000D01*
X119245000Y-86505000D02*
X119245000Y-86950000D01*
X102000000Y-80750000D02*
X100245000Y-82505000D01*
X121000000Y-84750000D02*
X119245000Y-86505000D01*
X149790000Y-88030000D02*
X147070000Y-90750000D01*
X100245000Y-82950000D02*
X100245000Y-85103600D01*
%TO.N,P5*%
X119245000Y-105505000D02*
X119245000Y-105950000D01*
X151050000Y-103540000D02*
X147884000Y-106706000D01*
X100245000Y-101950000D02*
X100245000Y-104348000D01*
X100245000Y-101505000D02*
X100245000Y-101950000D01*
X43245000Y-125505000D02*
X43245000Y-125950000D01*
X138245000Y-111505000D02*
X138245000Y-111950000D01*
X62245000Y-117505000D02*
X62245000Y-117950000D01*
X62245000Y-117950000D02*
X57636900Y-122558000D01*
X45000000Y-123750000D02*
X43245000Y-125505000D01*
X152040000Y-60230000D02*
X151050000Y-61220000D01*
X158818000Y-60230000D02*
X152040000Y-60230000D01*
X81245000Y-105505000D02*
X81245000Y-105950000D01*
X151050000Y-61220000D02*
X151050000Y-103540000D01*
X140000000Y-109750000D02*
X138245000Y-111505000D01*
X121000000Y-103750000D02*
X119245000Y-105505000D01*
X81245000Y-105950000D02*
X81245000Y-115022000D01*
X102000000Y-99750000D02*
X100245000Y-101505000D01*
X160238000Y-58810000D02*
X158818000Y-60230000D01*
X64000000Y-115750000D02*
X62245000Y-117505000D01*
X57636900Y-122558000D02*
X57636900Y-123750000D01*
X147884000Y-106706000D02*
X147884000Y-109750000D01*
X83000000Y-103750000D02*
X81245000Y-105505000D01*
%TO.N,P6*%
X155752000Y-145059000D02*
X155122000Y-145688000D01*
X160238000Y-61350000D02*
X158838000Y-62750000D01*
X151450000Y-86164300D02*
X151743000Y-86457300D01*
X81245000Y-128505000D02*
X81245000Y-128950000D01*
X119464000Y-129930000D02*
X119464000Y-129980000D01*
X148771000Y-134416000D02*
X148771000Y-106399000D01*
X152307000Y-140489000D02*
X152307000Y-137194000D01*
X155752000Y-143934000D02*
X152307000Y-140489000D01*
X151790000Y-62750000D02*
X151450000Y-63090000D01*
X102000000Y-126750000D02*
X100245000Y-128505000D01*
X151743000Y-99215000D02*
X154408000Y-101880000D01*
X151450000Y-63090000D02*
X151450000Y-86164300D01*
X83000000Y-126750000D02*
X81245000Y-128505000D01*
X155752000Y-143934000D02*
X155752000Y-145059000D01*
X151743000Y-86457300D02*
X151743000Y-99215000D01*
X148771000Y-106399000D02*
X153290000Y-101880000D01*
X100245000Y-128505000D02*
X100245000Y-128950000D01*
X139412000Y-134978000D02*
X140879000Y-133511000D01*
X154408000Y-101880000D02*
X156540000Y-101880000D01*
X153290000Y-101880000D02*
X154408000Y-101880000D01*
X158838000Y-62750000D02*
X151790000Y-62750000D01*
X121404000Y-127990000D02*
X119464000Y-129930000D01*
X138478000Y-134978000D02*
X139412000Y-134978000D01*
%TO.N,P7*%
X151860000Y-66130000D02*
X152680000Y-65310000D01*
X155950000Y-88680000D02*
X151860000Y-84590000D01*
X161540000Y-87380000D02*
X160240000Y-88680000D01*
X158106000Y-63890000D02*
X160238000Y-63890000D01*
X152680000Y-65310000D02*
X156686000Y-65310000D01*
X160240000Y-88680000D02*
X155950000Y-88680000D01*
X156686000Y-65310000D02*
X158106000Y-63890000D01*
X151860000Y-84590000D02*
X151860000Y-66130000D01*
%TO.N,P9*%
X148530000Y-70750000D02*
X148530000Y-54580000D01*
X148790000Y-71010000D02*
X148530000Y-70750000D01*
X148530000Y-54580000D02*
X140000000Y-46050000D01*
X140000000Y-43850000D02*
X139252000Y-43850000D01*
X138702000Y-43300000D02*
X137700000Y-43300000D01*
X140000000Y-46050000D02*
X140000000Y-43850000D01*
X139252000Y-43850000D02*
X138702000Y-43300000D01*
%TO.N,DP21*%
X70000000Y-122992000D02*
X69592300Y-123399000D01*
X34893100Y-104857000D02*
X34893100Y-107207000D01*
X34924500Y-123826000D02*
X34924500Y-126498000D01*
X33757900Y-98040400D02*
X32000000Y-99798300D01*
X35000000Y-123750000D02*
X34924500Y-123826000D01*
X32352500Y-87355500D02*
X32352500Y-85750000D01*
X32901700Y-117897000D02*
X32000000Y-118798000D01*
X32000000Y-81550000D02*
X32000000Y-85397500D01*
X32000000Y-85397500D02*
X32352500Y-85750000D01*
X33690100Y-89127100D02*
X33690100Y-96761200D01*
X70000000Y-122550000D02*
X70000000Y-122992000D01*
X32352500Y-125330000D02*
X32352500Y-123750000D01*
X32000000Y-62550000D02*
X32000000Y-66397500D01*
X33690100Y-96761200D02*
X33757900Y-96829000D01*
X35000000Y-104750000D02*
X34893100Y-104857000D01*
X32000000Y-119550000D02*
X32000000Y-120529000D01*
X70352500Y-128350000D02*
X70352500Y-126750000D01*
X32000000Y-101502000D02*
X32352500Y-101854000D01*
X34890300Y-66859700D02*
X34890300Y-69439800D01*
X32000000Y-101502000D02*
X32000000Y-100550000D01*
X32000000Y-61597000D02*
X32000000Y-62550000D01*
X32000000Y-120529000D02*
X32000000Y-123398000D01*
X34900100Y-85849900D02*
X34900100Y-87917100D01*
X32352500Y-66750000D02*
X32352500Y-68339800D01*
X32000000Y-99798300D02*
X32000000Y-100550000D01*
X35000000Y-66750000D02*
X34890300Y-66859700D01*
X32352500Y-103156000D02*
X32352500Y-104750000D01*
X33100700Y-71229400D02*
X33100700Y-77580400D01*
X34893100Y-107207000D02*
X32901700Y-109199000D01*
X32000000Y-118798000D02*
X32000000Y-119550000D01*
X34890300Y-69439800D02*
X33100700Y-71229400D01*
X69592300Y-123399000D02*
X69088900Y-123399000D01*
X35000000Y-85750000D02*
X34900100Y-85849900D01*
X69592300Y-123399000D02*
X69592300Y-125990000D01*
X32901700Y-109199000D02*
X32901700Y-117897000D01*
X32352500Y-101854000D02*
X32352500Y-103156000D01*
X69592300Y-125990000D02*
X70352500Y-126750000D01*
X34900100Y-87917100D02*
X33690100Y-89127100D01*
X32000000Y-80571300D02*
X32000000Y-81550000D01*
X32000000Y-66397500D02*
X32352500Y-66750000D01*
X32000000Y-123398000D02*
X32352500Y-123750000D01*
X33757900Y-96829000D02*
X33757900Y-98040400D01*
%TO.N,r1c1*%
X46983100Y-112867000D02*
X46983100Y-106850000D01*
X54850000Y-107700000D02*
X56300000Y-107700000D01*
X42700000Y-114300000D02*
X43701700Y-114300000D01*
X43701700Y-114300000D02*
X44251700Y-114850000D01*
X44251700Y-114850000D02*
X45000000Y-114850000D01*
X45000000Y-114850000D02*
X46983100Y-112867000D01*
X54000000Y-106850000D02*
X54850000Y-107700000D01*
%TO.N,r1c0*%
X35850000Y-115700000D02*
X37300000Y-115700000D01*
X35000000Y-114850000D02*
X35850000Y-115700000D01*
%TO.N,r2c1*%
X54850000Y-88700000D02*
X56300000Y-88700000D01*
X54000000Y-87850000D02*
X54850000Y-88700000D01*
X43250000Y-95850000D02*
X42700000Y-95300000D01*
X54000000Y-87850000D02*
X54000000Y-90536200D01*
X45000000Y-95850000D02*
X43250000Y-95850000D01*
%TO.N,r2c0*%
X139252000Y-100850000D02*
X140000000Y-100850000D01*
X138201000Y-100300000D02*
X138201000Y-99855700D01*
X35850000Y-96700000D02*
X35000000Y-95850000D01*
X37300000Y-96700000D02*
X35850000Y-96700000D01*
X137700000Y-100300000D02*
X138201000Y-100300000D01*
X138201000Y-99855700D02*
X133025000Y-94679500D01*
X138702000Y-100300000D02*
X139252000Y-100850000D01*
X138201000Y-100300000D02*
X138702000Y-100300000D01*
%TO.N,r3c1*%
X45000000Y-76850000D02*
X45000000Y-71716300D01*
X45000000Y-71716300D02*
X47866300Y-68850000D01*
X54000000Y-68850000D02*
X54850000Y-69700000D01*
X43701700Y-76300000D02*
X42700000Y-76300000D01*
X44251700Y-76850000D02*
X43701700Y-76300000D01*
X45000000Y-76850000D02*
X44251700Y-76850000D01*
X54850000Y-69700000D02*
X56300000Y-69700000D01*
%TO.N,r3c0*%
X137700000Y-81300000D02*
X138250000Y-81850000D01*
X137700000Y-78840000D02*
X137570000Y-78710000D01*
X138250000Y-81850000D02*
X140000000Y-81850000D01*
X35000000Y-76850000D02*
X35850000Y-77700000D01*
X35850000Y-77700000D02*
X37300000Y-77700000D01*
X137700000Y-81300000D02*
X137700000Y-78840000D01*
%TO.N,r4c1*%
X43701700Y-57300000D02*
X42700000Y-57300000D01*
X56300000Y-50700000D02*
X54850000Y-50700000D01*
X50832500Y-49850000D02*
X45000000Y-55682500D01*
X54000000Y-49850000D02*
X50832500Y-49850000D01*
X44251700Y-57850000D02*
X43701700Y-57300000D01*
X45000000Y-57850000D02*
X44251700Y-57850000D01*
X54850000Y-50700000D02*
X54000000Y-49850000D01*
X45000000Y-55682500D02*
X45000000Y-57850000D01*
%TO.N,r4c0*%
X36991000Y-59810700D02*
X36991000Y-64715500D01*
X140000000Y-62850000D02*
X139252000Y-62850000D01*
X35000000Y-57850000D02*
X35850000Y-58700000D01*
X37300000Y-59501700D02*
X36991000Y-59810700D01*
X36991000Y-64715500D02*
X38309000Y-66033500D01*
X138702000Y-62300000D02*
X137700000Y-62300000D01*
X139252000Y-62850000D02*
X138702000Y-62300000D01*
X35850000Y-58700000D02*
X37300000Y-58700000D01*
X37300000Y-58700000D02*
X37300000Y-59501700D01*
%TO.N,DP20*%
X53921500Y-58789200D02*
X51391700Y-58789200D01*
X51000000Y-58397500D02*
X51352500Y-58750000D01*
X51000000Y-110798000D02*
X51000000Y-111550000D01*
X53960800Y-58789200D02*
X53921500Y-58789200D01*
X52728600Y-70863200D02*
X51000000Y-72591800D01*
X51391700Y-96789200D02*
X51352500Y-96750000D01*
X51000000Y-115398000D02*
X51352500Y-115750000D01*
X52812800Y-89985500D02*
X51000000Y-91798300D01*
X51431000Y-77828500D02*
X51352500Y-77750000D01*
X53921500Y-99011500D02*
X52232700Y-100700000D01*
X54000000Y-58750000D02*
X53960800Y-58789200D01*
X92000000Y-126750000D02*
X89352500Y-126750000D01*
X51000000Y-73550000D02*
X51000000Y-77397500D01*
X88048600Y-122500000D02*
X87873900Y-122500000D01*
X52314700Y-69685000D02*
X52728600Y-70098900D01*
X52728900Y-88447800D02*
X52812800Y-88531700D01*
X51000000Y-77397500D02*
X51352500Y-77750000D01*
X53921500Y-96789200D02*
X53921500Y-99011500D01*
X51000000Y-72591800D02*
X51000000Y-73550000D01*
X53921500Y-58789200D02*
X53921500Y-61244000D01*
X53921500Y-115789000D02*
X53921500Y-118302000D01*
X52812800Y-88531700D02*
X52812800Y-89985500D01*
X52728600Y-70098900D02*
X52728600Y-70863200D01*
X53921500Y-65908800D02*
X52314700Y-67515600D01*
X88549200Y-122550000D02*
X88098300Y-122550000D01*
X53921500Y-96789200D02*
X51391700Y-96789200D01*
X52232700Y-109566000D02*
X51000000Y-110798000D01*
X51000000Y-55507300D02*
X51000000Y-58397500D01*
X51000000Y-96397500D02*
X51352500Y-96750000D01*
X53960800Y-115789000D02*
X53921500Y-115789000D01*
X51000000Y-111550000D02*
X51000000Y-112510000D01*
X51000000Y-55507300D02*
X51000000Y-54550000D01*
X51000000Y-112510000D02*
X51000000Y-115398000D01*
X52728900Y-81726800D02*
X52728900Y-88447800D01*
X53921500Y-118302000D02*
X53921500Y-122329000D01*
X54000000Y-115750000D02*
X53960800Y-115789000D01*
X53921500Y-61244000D02*
X53921500Y-65908800D01*
X52314700Y-67515600D02*
X52314700Y-69685000D01*
X51000000Y-93514300D02*
X51000000Y-96397500D01*
X53960800Y-96789200D02*
X53921500Y-96789200D01*
X88098300Y-122550000D02*
X88048600Y-122500000D01*
X51000000Y-91798300D02*
X51000000Y-92550000D01*
X88549200Y-125947000D02*
X89352500Y-126750000D01*
X88549200Y-122550000D02*
X88549200Y-125947000D01*
X53921500Y-77828500D02*
X53921500Y-80534200D01*
X89000000Y-122550000D02*
X88549200Y-122550000D01*
X51391700Y-58789200D02*
X51352500Y-58750000D01*
X54000000Y-96750000D02*
X53960800Y-96789200D01*
X53921500Y-115789000D02*
X51391700Y-115789000D01*
X51000000Y-92550000D02*
X51000000Y-93514300D01*
X53921500Y-77828500D02*
X51431000Y-77828500D01*
X51391700Y-115789000D02*
X51352500Y-115750000D01*
X54000000Y-77750000D02*
X53921500Y-77828500D01*
X53921500Y-80534200D02*
X52728900Y-81726800D01*
X52232700Y-100700000D02*
X52232700Y-109566000D01*
%TO.N,r1c2*%
X74908800Y-95700000D02*
X75300000Y-95700000D01*
X64000000Y-106850000D02*
X62250000Y-106850000D01*
X62250000Y-106850000D02*
X61700000Y-106300000D01*
X74058800Y-94850000D02*
X74908800Y-95700000D01*
X63886800Y-101794000D02*
X63886800Y-106737000D01*
X73000000Y-94850000D02*
X74058800Y-94850000D01*
X63886800Y-106737000D02*
X64000000Y-106850000D01*
%TO.N,r2c2*%
X73850000Y-76700000D02*
X75300000Y-76700000D01*
X62701700Y-87300000D02*
X61700000Y-87300000D01*
X64000000Y-87850000D02*
X65611100Y-86238900D01*
X65611100Y-86238900D02*
X65611100Y-79700200D01*
X73000000Y-75850000D02*
X73850000Y-76700000D01*
X64000000Y-87850000D02*
X63251700Y-87850000D01*
X63251700Y-87850000D02*
X62701700Y-87300000D01*
%TO.N,r3c2*%
X63251700Y-68850000D02*
X62701700Y-68300000D01*
X73000000Y-56850000D02*
X73850000Y-57700000D01*
X62701700Y-68300000D02*
X61700000Y-68300000D01*
X64000000Y-63432300D02*
X64000000Y-68850000D01*
X64000000Y-68850000D02*
X63251700Y-68850000D01*
X73850000Y-57700000D02*
X75300000Y-57700000D01*
X66675900Y-60756400D02*
X64000000Y-63432300D01*
%TO.N,r4c2*%
X73000000Y-37850000D02*
X73000000Y-38476100D01*
X73000000Y-38476100D02*
X71097300Y-40378800D01*
X63251700Y-49850000D02*
X64000000Y-49850000D01*
X71097300Y-40378800D02*
X70671200Y-40378800D01*
X73000000Y-37850000D02*
X73850000Y-38700000D01*
X65814800Y-45235200D02*
X65814800Y-48924500D01*
X70671200Y-40378800D02*
X65814800Y-45235200D01*
X62701700Y-49300000D02*
X63251700Y-49850000D01*
X61700000Y-49300000D02*
X62701700Y-49300000D01*
X73850000Y-38700000D02*
X75300000Y-38700000D01*
%TO.N,DP19*%
X107778000Y-122823000D02*
X107767000Y-122834000D01*
X107778000Y-122589000D02*
X107856000Y-122589000D01*
X70000000Y-99550000D02*
X70000000Y-100529000D01*
X107856000Y-122589000D02*
X108338000Y-122631000D01*
X70913000Y-78885300D02*
X70000000Y-79798300D01*
X70352500Y-67327500D02*
X70913000Y-67888000D01*
X70913000Y-67888000D02*
X70913000Y-78885300D01*
X107778000Y-122589000D02*
X107610000Y-122421000D01*
X70000000Y-100529000D02*
X70000000Y-103398000D01*
X70000000Y-84397500D02*
X70352500Y-84750000D01*
X70000000Y-103398000D02*
X70352500Y-103750000D01*
X70352500Y-46750000D02*
X70352500Y-48335100D01*
X70000000Y-42550000D02*
X70000000Y-46397500D01*
X69098300Y-61550000D02*
X68996300Y-61652000D01*
X69107800Y-81441200D02*
X69860500Y-81441200D01*
X79023200Y-65864600D02*
X76943900Y-65864600D01*
X71653300Y-84750000D02*
X70352500Y-84750000D01*
X69549200Y-61550000D02*
X69098300Y-61550000D01*
X70000000Y-42550000D02*
X70000000Y-42580000D01*
X76943900Y-65864600D02*
X76800300Y-66008200D01*
X108820000Y-122673000D02*
X108338000Y-122631000D01*
X107767000Y-125849000D02*
X108805000Y-126888000D01*
X70000000Y-80550000D02*
X70000000Y-81301700D01*
X73000000Y-84750000D02*
X71653300Y-84750000D01*
X107610000Y-122421000D02*
X107610000Y-115008000D01*
X107778000Y-122589000D02*
X107778000Y-122823000D01*
X69549200Y-64946700D02*
X70352500Y-65750000D01*
X68996300Y-61652000D02*
X68894300Y-61652000D01*
X70352500Y-65750000D02*
X70352500Y-67327500D01*
X71653300Y-84750000D02*
X71653300Y-93560100D01*
X70000000Y-61550000D02*
X69549200Y-61550000D01*
X70000000Y-81301700D02*
X70000000Y-84397500D01*
X108778000Y-122631000D02*
X108820000Y-122673000D01*
X81122900Y-63764900D02*
X79023200Y-65864600D01*
X85910800Y-51411100D02*
X85910800Y-63764900D01*
X69549200Y-61550000D02*
X69549200Y-64946700D01*
X107767000Y-122834000D02*
X107767000Y-125849000D01*
X107766000Y-122834000D02*
X107677000Y-122745000D01*
X107767000Y-122834000D02*
X107766000Y-122834000D01*
X73000000Y-103750000D02*
X70352500Y-103750000D01*
X108338000Y-122631000D02*
X108778000Y-122631000D01*
X70000000Y-42580000D02*
X69210000Y-43370000D01*
X108805000Y-126888000D02*
X108805000Y-128614000D01*
X69860500Y-81441200D02*
X70000000Y-81301700D01*
X70000000Y-79798300D02*
X70000000Y-80550000D01*
X70000000Y-46397500D02*
X70352500Y-46750000D01*
%TO.N,r1c3*%
X81701700Y-94300000D02*
X82251700Y-94850000D01*
X80700000Y-94300000D02*
X81701700Y-94300000D01*
X92850000Y-91700000D02*
X94300000Y-91700000D01*
X92000000Y-90850000D02*
X92850000Y-91700000D01*
X82251700Y-94850000D02*
X83000000Y-94850000D01*
%TO.N,r2c3*%
X82251700Y-75850000D02*
X83000000Y-75850000D01*
X92000000Y-71850000D02*
X92850000Y-72700000D01*
X81701700Y-75300000D02*
X82251700Y-75850000D01*
X92850000Y-72700000D02*
X94300000Y-72700000D01*
X80700000Y-75300000D02*
X81701700Y-75300000D01*
%TO.N,r3c3*%
X83000000Y-56850000D02*
X82251700Y-56850000D01*
X81701700Y-56300000D02*
X80700000Y-56300000D01*
X92850000Y-53700000D02*
X94300000Y-53700000D01*
X82251700Y-56850000D02*
X81701700Y-56300000D01*
X92000000Y-52850000D02*
X92850000Y-53700000D01*
%TO.N,r4c3*%
X81701700Y-37300000D02*
X80700000Y-37300000D01*
X92850000Y-34700000D02*
X94300000Y-34700000D01*
X92000000Y-33850000D02*
X92850000Y-34700000D01*
X82251700Y-37850000D02*
X81701700Y-37300000D01*
X83000000Y-37850000D02*
X82251700Y-37850000D01*
%TO.N,DP18*%
X89000000Y-57550000D02*
X89000000Y-56798300D01*
X92000000Y-80750000D02*
X89352500Y-80750000D01*
X89000000Y-95550000D02*
X89000000Y-94396600D01*
X89048100Y-75798300D02*
X89248700Y-75597700D01*
X90099800Y-74746600D02*
X89248700Y-75597700D01*
X88060000Y-95570300D02*
X88108800Y-95521500D01*
X129730000Y-126133000D02*
X129730000Y-126255000D01*
X89352500Y-99750000D02*
X88060000Y-98457500D01*
X89000000Y-76550000D02*
X89000000Y-80397500D01*
X91879500Y-99810200D02*
X89412700Y-99810200D01*
X87776100Y-44326400D02*
X89352500Y-42750000D01*
X90099800Y-86605200D02*
X90099800Y-93296800D01*
X91923600Y-61826400D02*
X92000000Y-61750000D01*
X88108800Y-95521500D02*
X88108900Y-95521500D01*
X89000000Y-58518100D02*
X89000000Y-61397500D01*
X88764600Y-94865800D02*
X88764600Y-94632000D01*
X89428900Y-61826400D02*
X89352500Y-61750000D01*
X91923600Y-61826400D02*
X89428900Y-61826400D01*
X91923600Y-64728300D02*
X90099800Y-66552100D01*
X89000000Y-57550000D02*
X89000000Y-58518100D01*
X89901700Y-55896600D02*
X89901700Y-52979400D01*
X127464000Y-123505000D02*
X127464000Y-119424000D01*
X91939800Y-99810200D02*
X91879500Y-99810200D01*
X92251200Y-84453800D02*
X90099800Y-86605200D01*
X87776100Y-50853800D02*
X87776100Y-44326400D01*
X89352500Y-42750000D02*
X92000000Y-42750000D01*
X91879500Y-99810200D02*
X91879500Y-101910000D01*
X90099800Y-66552100D02*
X90099800Y-74746600D01*
X88108900Y-95521500D02*
X88764600Y-94865800D01*
X129827000Y-125867000D02*
X129730000Y-126133000D01*
X90099800Y-93296800D02*
X89000000Y-94396600D01*
X129730000Y-128449000D02*
X128994000Y-129185000D01*
X89901700Y-52979400D02*
X87776100Y-50853800D01*
X129827000Y-125867000D02*
X127464000Y-123505000D01*
X89000000Y-38550000D02*
X89000000Y-39511400D01*
X129730000Y-126255000D02*
X129730000Y-128449000D01*
X91923600Y-61826400D02*
X91923600Y-64728300D01*
X92000000Y-80750000D02*
X92251200Y-81001200D01*
X89000000Y-56798300D02*
X89901700Y-55896600D01*
X89000000Y-76550000D02*
X89000000Y-75798300D01*
X127464000Y-119424000D02*
X126035000Y-117995000D01*
X89000000Y-39511400D02*
X89000000Y-42397500D01*
X126035000Y-117995000D02*
X126035000Y-113160000D01*
X89000000Y-61397500D02*
X89352500Y-61750000D01*
X92251200Y-81001200D02*
X92251200Y-84453800D01*
X130100000Y-125118000D02*
X129827000Y-125867000D01*
X89000000Y-80397500D02*
X89352500Y-80750000D01*
X128994000Y-129185000D02*
X129900000Y-130091000D01*
X129900000Y-130091000D02*
X131482000Y-130091000D01*
X89000000Y-42397500D02*
X89352500Y-42750000D01*
X89412700Y-99810200D02*
X89352500Y-99750000D01*
X88060000Y-98457500D02*
X88060000Y-95570300D01*
X88764600Y-94632000D02*
X89000000Y-94396600D01*
X89000000Y-75798300D02*
X89048100Y-75798300D01*
X92000000Y-99750000D02*
X91939800Y-99810200D01*
%TO.N,r1c4*%
X111850000Y-95700000D02*
X113300000Y-95700000D01*
X101252000Y-90850000D02*
X102000000Y-90850000D01*
X100702000Y-90300000D02*
X101252000Y-90850000D01*
X99700000Y-90300000D02*
X100702000Y-90300000D01*
X111000000Y-94850000D02*
X111850000Y-95700000D01*
X111000000Y-94850000D02*
X111000000Y-91395600D01*
%TO.N,r2c4*%
X99700000Y-71300000D02*
X100702000Y-71300000D01*
X111000000Y-75850000D02*
X111850000Y-76700000D01*
X101252000Y-71850000D02*
X102000000Y-71850000D01*
X100702000Y-71300000D02*
X101252000Y-71850000D01*
X111850000Y-76700000D02*
X113300000Y-76700000D01*
%TO.N,r3c4*%
X100702000Y-52300000D02*
X101252000Y-52850000D01*
X111850000Y-57700000D02*
X111000000Y-56850000D01*
X104248000Y-59011700D02*
X104568000Y-59331900D01*
X113300000Y-57700000D02*
X111850000Y-57700000D01*
X111000000Y-56850000D02*
X111000000Y-59331900D01*
X99700000Y-52300000D02*
X100702000Y-52300000D01*
X104248000Y-55098300D02*
X104248000Y-59011700D01*
X102000000Y-52850000D02*
X104248000Y-55098300D01*
X101252000Y-52850000D02*
X102000000Y-52850000D01*
%TO.N,r4c4*%
X111000000Y-37850000D02*
X111850000Y-38700000D01*
X111850000Y-38700000D02*
X113300000Y-38700000D01*
X100702000Y-33300000D02*
X99700000Y-33300000D01*
X101252000Y-33850000D02*
X100702000Y-33300000D01*
X102000000Y-33850000D02*
X101252000Y-33850000D01*
%TO.N,DP15*%
X107523000Y-91934100D02*
X107086000Y-91934100D01*
X108000000Y-98571700D02*
X108000000Y-99550000D01*
X110927000Y-87417100D02*
X110927000Y-88529600D01*
X110918000Y-118732000D02*
X110918000Y-106706000D01*
X110927000Y-88529600D02*
X107523000Y-91934100D01*
X108352000Y-43654200D02*
X108352000Y-48340800D01*
X108000000Y-100302000D02*
X107774000Y-100528000D01*
X108000000Y-62516700D02*
X108000000Y-61550000D01*
X107774000Y-102160000D02*
X107774000Y-103172000D01*
X106250000Y-95847000D02*
X106250000Y-98120500D01*
X148192000Y-137002000D02*
X150090000Y-135104000D01*
X107774000Y-103172000D02*
X108352000Y-103750000D01*
X108000000Y-43301700D02*
X108352000Y-43654200D01*
X150088000Y-134194000D02*
X150622000Y-133558000D01*
X109786000Y-52595800D02*
X109500000Y-52882300D01*
X109500000Y-59298300D02*
X108000000Y-60798300D01*
X108000000Y-80550000D02*
X108000000Y-81513600D01*
X108000000Y-62516700D02*
X108352000Y-62869200D01*
X109100000Y-69943300D02*
X109100000Y-78698500D01*
X108000000Y-60798300D02*
X108000000Y-61550000D01*
X108000000Y-84397500D02*
X108352000Y-84750000D01*
X113471000Y-121285000D02*
X110918000Y-118732000D01*
X110916000Y-65833800D02*
X110916000Y-68126900D01*
X111000000Y-84750000D02*
X110927000Y-84822800D01*
X108000000Y-41575600D02*
X108000000Y-42550000D01*
X111000000Y-103750000D02*
X110918000Y-103832000D01*
X107086000Y-91934100D02*
X106823000Y-92197300D01*
X110918000Y-103832000D02*
X110918000Y-106706000D01*
X108000000Y-81513600D02*
X108000000Y-84397500D01*
X106823000Y-95273900D02*
X106250000Y-95847000D01*
X113471000Y-132293000D02*
X113471000Y-121285000D01*
X150221000Y-139112000D02*
X150221000Y-138704000D01*
X108000000Y-99550000D02*
X108000000Y-100302000D01*
X109500000Y-52882300D02*
X109500000Y-59298300D01*
X108352000Y-84750000D02*
X108352000Y-86336300D01*
X108000000Y-79798300D02*
X108000000Y-80550000D01*
X106823000Y-92197300D02*
X106823000Y-95273900D01*
X150090000Y-134510000D02*
X150088000Y-134508000D01*
X150090000Y-135104000D02*
X150090000Y-134510000D01*
X111000000Y-65750000D02*
X110916000Y-65833800D01*
X107774000Y-100528000D02*
X107774000Y-102160000D01*
X150221000Y-138704000D02*
X149894000Y-138704000D01*
X109100000Y-78698500D02*
X108000000Y-79798300D01*
X151556000Y-140448000D02*
X150221000Y-139112000D01*
X150088000Y-134508000D02*
X150088000Y-134194000D01*
X149894000Y-138704000D02*
X148192000Y-137002000D01*
X108000000Y-42550000D02*
X108000000Y-43301700D01*
X108352000Y-65750000D02*
X108352000Y-64152400D01*
X110927000Y-84822800D02*
X110927000Y-87417100D01*
X110916000Y-68126900D02*
X109100000Y-69943300D01*
X108352000Y-62869200D02*
X108352000Y-64152400D01*
%TO.N,r1c5*%
X119702000Y-94300000D02*
X118700000Y-94300000D01*
X130000000Y-100850000D02*
X130850000Y-101700000D01*
X130850000Y-101700000D02*
X132300000Y-101700000D01*
X121000000Y-94850000D02*
X120252000Y-94850000D01*
X120252000Y-94850000D02*
X119702000Y-94300000D01*
%TO.N,r2c5*%
X118700000Y-75300000D02*
X119702000Y-75300000D01*
X119702000Y-75300000D02*
X120252000Y-75850000D01*
X130000000Y-81850000D02*
X130850000Y-82700000D01*
X130850000Y-82700000D02*
X132300000Y-82700000D01*
X120252000Y-75850000D02*
X121000000Y-75850000D01*
%TO.N,r3c5*%
X121000000Y-56850000D02*
X120252000Y-56850000D01*
X130000000Y-62850000D02*
X130850000Y-63700000D01*
X130850000Y-63700000D02*
X132300000Y-63700000D01*
X119702000Y-56300000D02*
X118700000Y-56300000D01*
X120252000Y-56850000D02*
X119702000Y-56300000D01*
%TO.N,r4c5*%
X120252000Y-37850000D02*
X119702000Y-37300000D01*
X130000000Y-43850000D02*
X130850000Y-44700000D01*
X130850000Y-44700000D02*
X132300000Y-44700000D01*
X119702000Y-37300000D02*
X118700000Y-37300000D01*
X121000000Y-37850000D02*
X120252000Y-37850000D01*
%TO.N,DP14*%
X127000000Y-105550000D02*
X127000000Y-106526000D01*
X128100000Y-84698500D02*
X127000000Y-85798300D01*
X128100000Y-58229000D02*
X128100000Y-65478500D01*
X127000000Y-85798300D02*
X127000000Y-86550000D01*
X128100000Y-75724600D02*
X128100000Y-84698500D01*
X127000000Y-106526000D02*
X127000000Y-109398000D01*
X128100000Y-95036700D02*
X128100000Y-103698000D01*
X127352000Y-52750000D02*
X127352000Y-54346800D01*
X127000000Y-87502800D02*
X127000000Y-90397500D01*
X127352000Y-92342200D02*
X128225000Y-93214300D01*
X127000000Y-48550000D02*
X127000000Y-52397500D01*
X127000000Y-52397500D02*
X127352000Y-52750000D01*
X127352000Y-90750000D02*
X127352000Y-92342200D01*
X130000000Y-71750000D02*
X129900000Y-71849700D01*
X127000000Y-86550000D02*
X127000000Y-87502800D01*
X129922000Y-90827800D02*
X129922000Y-93214300D01*
X127000000Y-104798000D02*
X127000000Y-105550000D01*
X129900000Y-73924100D02*
X128100000Y-75724600D01*
X127000000Y-109398000D02*
X127352000Y-109750000D01*
X127352000Y-109750000D02*
X127352000Y-111348000D01*
X130065000Y-56263900D02*
X128100000Y-58229000D01*
X127352000Y-72549300D02*
X127352000Y-71750000D01*
X130000000Y-52750000D02*
X130065000Y-52814900D01*
X127352000Y-72549800D02*
X127352000Y-72549300D01*
X130000000Y-90750000D02*
X129922000Y-90827800D01*
X127000000Y-71397500D02*
X127000000Y-67550000D01*
X127352000Y-71750000D02*
X127000000Y-71397500D01*
X130065000Y-52814900D02*
X130065000Y-56263900D01*
X128100000Y-103698000D02*
X127000000Y-104798000D01*
X129900000Y-71849700D02*
X129900000Y-73924100D01*
X127000000Y-66578300D02*
X127000000Y-67550000D01*
X127000000Y-47577700D02*
X127000000Y-48550000D01*
X127000000Y-90397500D02*
X127352000Y-90750000D01*
X129922000Y-93214300D02*
X128100000Y-95036700D01*
X127352000Y-73349700D02*
X127352000Y-72549800D01*
X128100000Y-65478500D02*
X127000000Y-66578300D01*
%TO.N,r0c2*%
X83000000Y-117850000D02*
X81250000Y-117850000D01*
X92000000Y-117850000D02*
X92850000Y-118700000D01*
X92850000Y-118700000D02*
X94300000Y-118700000D01*
X81250000Y-117850000D02*
X80700000Y-117300000D01*
%TO.N,r0c1*%
X73000000Y-117850000D02*
X73850000Y-118700000D01*
X73000000Y-117850000D02*
X68113400Y-112963000D01*
X73850000Y-118700000D02*
X75300000Y-118700000D01*
X68338600Y-98898500D02*
X68338600Y-97089400D01*
X67875000Y-96625800D02*
X68338600Y-97089400D01*
X67150000Y-93850000D02*
X67575000Y-93850000D01*
X67575000Y-93850000D02*
X67875000Y-93550000D01*
X67875000Y-93550000D02*
X67875000Y-96625800D01*
X68113400Y-99123700D02*
X68338600Y-98898500D01*
X68113400Y-112963000D02*
X68113400Y-99123700D01*
X68338600Y-97089400D02*
X69066000Y-97089400D01*
%TO.N,r0c3*%
X100702000Y-117300000D02*
X99700000Y-117300000D01*
X113172000Y-119206000D02*
X113367000Y-119206000D01*
X113367000Y-119206000D02*
X113901000Y-119253000D01*
X112695000Y-118729000D02*
X113172000Y-119206000D01*
X113901000Y-119253000D02*
X114388000Y-119253000D01*
X114388000Y-119253000D02*
X114435000Y-119300000D01*
X101252000Y-117850000D02*
X100702000Y-117300000D01*
X112695000Y-118729000D02*
X112218000Y-118252000D01*
X114435000Y-119300000D02*
X113901000Y-119253000D01*
X102000000Y-117850000D02*
X101252000Y-117850000D01*
%TO.N,r0c4*%
X134526000Y-121727000D02*
X134854000Y-122054000D01*
X134853000Y-122054000D02*
X134526000Y-121727000D01*
X136397000Y-123313000D02*
X135181000Y-122870000D01*
X122180000Y-119124000D02*
X121525000Y-118469000D01*
X135181000Y-122870000D02*
X135181000Y-122382000D01*
X135181000Y-122382000D02*
X134854000Y-122054000D01*
X121004000Y-118469000D02*
X119937000Y-118376000D01*
X134854000Y-122054000D02*
X134853000Y-122054000D01*
X121525000Y-118469000D02*
X121004000Y-118469000D01*
%TO.N,r0c5*%
X157157000Y-134016000D02*
X156336000Y-133326000D01*
X156336000Y-133194000D02*
X155941000Y-132800000D01*
X143165000Y-124390000D02*
X143165000Y-124286000D01*
X155941000Y-132800000D02*
X155941000Y-131964000D01*
X143923000Y-125148000D02*
X143165000Y-124390000D01*
X156336000Y-133326000D02*
X156336000Y-133194000D01*
X143165000Y-124286000D02*
X141950000Y-123844000D01*
%TO.N,c1c0*%
X163602000Y-138314000D02*
X163015000Y-137726000D01*
X163015000Y-137726000D02*
X163015000Y-137103000D01*
X162604000Y-136758000D02*
X162538000Y-136758000D01*
X162194000Y-136414000D02*
X162604000Y-136758000D01*
X163015000Y-137103000D02*
X162604000Y-136758000D01*
X162538000Y-136758000D02*
X162194000Y-136414000D01*
%TO.N,u01*%
X67875000Y-55550000D02*
X67875000Y-53747400D01*
X67679300Y-57681000D02*
X67679300Y-87347100D01*
X67150000Y-57151700D02*
X67679300Y-57681000D01*
X70350000Y-88850000D02*
X69925000Y-88850000D01*
X69925000Y-88850000D02*
X69625000Y-89150000D01*
X67150000Y-55850000D02*
X67150000Y-57151700D01*
X67150000Y-55850000D02*
X67575000Y-55850000D01*
X69625000Y-89150000D02*
X69625000Y-87346400D01*
X67575000Y-55850000D02*
X67875000Y-55550000D01*
%TO.N,u02*%
X107925000Y-51000000D02*
X107625000Y-51300000D01*
X69925000Y-50850000D02*
X69625000Y-51150000D01*
X104118000Y-49698300D02*
X104116000Y-49701000D01*
X107625000Y-49698300D02*
X104118000Y-49698300D01*
X108350000Y-51000000D02*
X107925000Y-51000000D01*
X69625000Y-52751700D02*
X68830900Y-52751700D01*
X68830900Y-52751700D02*
X68760800Y-52821800D01*
X107625000Y-51300000D02*
X107625000Y-49698300D01*
X69625000Y-51150000D02*
X69625000Y-52751700D01*
X70350000Y-50850000D02*
X69925000Y-50850000D01*
%TO.N,u03*%
X105875000Y-57521900D02*
X105700000Y-57696800D01*
X105875000Y-55700000D02*
X105875000Y-57521900D01*
X105700000Y-57696800D02*
X105700000Y-85773400D01*
X107625000Y-89300000D02*
X107625000Y-90901700D01*
X107625000Y-90901700D02*
X104910000Y-90901700D01*
X107625000Y-87698400D02*
X107625000Y-89300000D01*
X107925000Y-89000000D02*
X107625000Y-89300000D01*
X108350000Y-89000000D02*
X107925000Y-89000000D01*
X104910000Y-90901700D02*
X104516000Y-90507800D01*
X105700000Y-85773400D02*
X107625000Y-87698400D01*
X105150000Y-56000000D02*
X105575000Y-56000000D01*
X105575000Y-56000000D02*
X105875000Y-55700000D01*
%TO.N,u04*%
X105150000Y-94000000D02*
X105575000Y-94000000D01*
X144400000Y-101500000D02*
X144825000Y-101500000D01*
X105875000Y-93700000D02*
X105875000Y-91889000D01*
X105575000Y-94000000D02*
X105875000Y-93700000D01*
X144825000Y-101500000D02*
X145125000Y-101200000D01*
X145125000Y-101200000D02*
X145125000Y-99387300D01*
%TO.N,u05*%
X144400000Y-63500000D02*
X144825000Y-63500000D01*
X146499000Y-95198300D02*
X146875000Y-95198300D01*
X147600000Y-96500000D02*
X147175000Y-96500000D01*
X146282000Y-94981300D02*
X146499000Y-95198300D01*
X147175000Y-96500000D02*
X146875000Y-96800000D01*
X145125000Y-63200000D02*
X145125000Y-65010200D01*
X144825000Y-63500000D02*
X145125000Y-63200000D01*
X146875000Y-95198300D02*
X146875000Y-96800000D01*
%TO.N,u06*%
X143991000Y-60401700D02*
X143575000Y-59985500D01*
X147175000Y-58500000D02*
X146875000Y-58800000D01*
X146875000Y-60401700D02*
X143991000Y-60401700D01*
X146875000Y-58800000D02*
X146875000Y-60401700D01*
X147600000Y-58500000D02*
X147175000Y-58500000D01*
%TD*%
M02*
