%TF.GenerationSoftware,KiCad,Pcbnew,8.0.4*%
%TF.CreationDate,2024-08-10T13:55:05-06:00*%
%TF.ProjectId,staggered_col58,73746167-6765-4726-9564-5f636f6c3538,0.1*%
%TF.SameCoordinates,Original*%
%TF.FileFunction,OtherDrawing,Comment*%
%FSLAX46Y46*%
G04 Gerber Fmt 4.6, Leading zero omitted, Abs format (unit mm)*
G04 Created by KiCad (PCBNEW 8.0.4) date 2024-08-10 13:55:05*
%MOMM*%
%LPD*%
G01*
G04 APERTURE LIST*
%ADD10C,0.150000*%
%ADD11C,0.120000*%
%ADD12C,0.100000*%
G04 APERTURE END LIST*
D10*
%TO.C,MCU1*%
X165810000Y-33696000D02*
X165810000Y-38776000D01*
X158190000Y-33696000D02*
X165810000Y-33696000D01*
X158190000Y-38776000D02*
X158190000Y-33696000D01*
X165810000Y-38776000D02*
X158190000Y-38776000D01*
%TO.C,SW1*%
X47000000Y-126000000D02*
X47000000Y-127000000D01*
X47000000Y-113000000D02*
X46000000Y-113000000D01*
X46000000Y-127000000D02*
X47000000Y-127000000D01*
X47000000Y-113000000D02*
X47000000Y-114000000D01*
X33000000Y-114000000D02*
X33000000Y-113000000D01*
X33000000Y-127000000D02*
X34000000Y-127000000D01*
X34000000Y-113000000D02*
X33000000Y-113000000D01*
X33000000Y-127000000D02*
X33000000Y-126000000D01*
X31000000Y-111000000D02*
X49000000Y-111000000D01*
X49000000Y-129000000D01*
X31000000Y-129000000D01*
X31000000Y-111000000D01*
%TO.C,SW2*%
X47000000Y-107000000D02*
X47000000Y-108000000D01*
X47000000Y-94000000D02*
X46000000Y-94000000D01*
X46000000Y-108000000D02*
X47000000Y-108000000D01*
X47000000Y-94000000D02*
X47000000Y-95000000D01*
X33000000Y-95000000D02*
X33000000Y-94000000D01*
X33000000Y-108000000D02*
X34000000Y-108000000D01*
X34000000Y-94000000D02*
X33000000Y-94000000D01*
X33000000Y-108000000D02*
X33000000Y-107000000D01*
X31000000Y-92000000D02*
X49000000Y-92000000D01*
X49000000Y-110000000D01*
X31000000Y-110000000D01*
X31000000Y-92000000D01*
%TO.C,SW3*%
X47000000Y-88000000D02*
X47000000Y-89000000D01*
X47000000Y-75000000D02*
X46000000Y-75000000D01*
X46000000Y-89000000D02*
X47000000Y-89000000D01*
X47000000Y-75000000D02*
X47000000Y-76000000D01*
X33000000Y-76000000D02*
X33000000Y-75000000D01*
X33000000Y-89000000D02*
X34000000Y-89000000D01*
X34000000Y-75000000D02*
X33000000Y-75000000D01*
X33000000Y-89000000D02*
X33000000Y-88000000D01*
X31000000Y-73000000D02*
X49000000Y-73000000D01*
X49000000Y-91000000D01*
X31000000Y-91000000D01*
X31000000Y-73000000D01*
%TO.C,SW4*%
X47000000Y-69000000D02*
X47000000Y-70000000D01*
X47000000Y-56000000D02*
X46000000Y-56000000D01*
X46000000Y-70000000D02*
X47000000Y-70000000D01*
X47000000Y-56000000D02*
X47000000Y-57000000D01*
X33000000Y-57000000D02*
X33000000Y-56000000D01*
X33000000Y-70000000D02*
X34000000Y-70000000D01*
X34000000Y-56000000D02*
X33000000Y-56000000D01*
X33000000Y-70000000D02*
X33000000Y-69000000D01*
X31000000Y-54000000D02*
X49000000Y-54000000D01*
X49000000Y-72000000D01*
X31000000Y-72000000D01*
X31000000Y-54000000D01*
%TO.C,SW5*%
X67000000Y-116000000D02*
X67000000Y-117000000D01*
X67000000Y-103000000D02*
X66000000Y-103000000D01*
X66000000Y-117000000D02*
X67000000Y-117000000D01*
X67000000Y-103000000D02*
X67000000Y-104000000D01*
X53000000Y-104000000D02*
X53000000Y-103000000D01*
X53000000Y-117000000D02*
X54000000Y-117000000D01*
X54000000Y-103000000D02*
X53000000Y-103000000D01*
X53000000Y-117000000D02*
X53000000Y-116000000D01*
X51000000Y-101000000D02*
X69000000Y-101000000D01*
X69000000Y-119000000D01*
X51000000Y-119000000D01*
X51000000Y-101000000D01*
%TO.C,SW6*%
X67000000Y-97000000D02*
X67000000Y-98000000D01*
X67000000Y-84000000D02*
X66000000Y-84000000D01*
X66000000Y-98000000D02*
X67000000Y-98000000D01*
X67000000Y-84000000D02*
X67000000Y-85000000D01*
X53000000Y-85000000D02*
X53000000Y-84000000D01*
X53000000Y-98000000D02*
X54000000Y-98000000D01*
X54000000Y-84000000D02*
X53000000Y-84000000D01*
X53000000Y-98000000D02*
X53000000Y-97000000D01*
X51000000Y-82000000D02*
X69000000Y-82000000D01*
X69000000Y-100000000D01*
X51000000Y-100000000D01*
X51000000Y-82000000D01*
%TO.C,SW7*%
X67000000Y-78000000D02*
X67000000Y-79000000D01*
X67000000Y-65000000D02*
X66000000Y-65000000D01*
X66000000Y-79000000D02*
X67000000Y-79000000D01*
X67000000Y-65000000D02*
X67000000Y-66000000D01*
X53000000Y-66000000D02*
X53000000Y-65000000D01*
X53000000Y-79000000D02*
X54000000Y-79000000D01*
X54000000Y-65000000D02*
X53000000Y-65000000D01*
X53000000Y-79000000D02*
X53000000Y-78000000D01*
X51000000Y-63000000D02*
X69000000Y-63000000D01*
X69000000Y-81000000D01*
X51000000Y-81000000D01*
X51000000Y-63000000D01*
%TO.C,SW8*%
X67000000Y-59000000D02*
X67000000Y-60000000D01*
X67000000Y-46000000D02*
X66000000Y-46000000D01*
X66000000Y-60000000D02*
X67000000Y-60000000D01*
X67000000Y-46000000D02*
X67000000Y-47000000D01*
X53000000Y-47000000D02*
X53000000Y-46000000D01*
X53000000Y-60000000D02*
X54000000Y-60000000D01*
X54000000Y-46000000D02*
X53000000Y-46000000D01*
X53000000Y-60000000D02*
X53000000Y-59000000D01*
X51000000Y-44000000D02*
X69000000Y-44000000D01*
X69000000Y-62000000D01*
X51000000Y-62000000D01*
X51000000Y-44000000D01*
%TO.C,SW9*%
X87000000Y-104000000D02*
X87000000Y-105000000D01*
X87000000Y-91000000D02*
X86000000Y-91000000D01*
X86000000Y-105000000D02*
X87000000Y-105000000D01*
X87000000Y-91000000D02*
X87000000Y-92000000D01*
X73000000Y-92000000D02*
X73000000Y-91000000D01*
X73000000Y-105000000D02*
X74000000Y-105000000D01*
X74000000Y-91000000D02*
X73000000Y-91000000D01*
X73000000Y-105000000D02*
X73000000Y-104000000D01*
X71000000Y-89000000D02*
X89000000Y-89000000D01*
X89000000Y-107000000D01*
X71000000Y-107000000D01*
X71000000Y-89000000D01*
%TO.C,SW10*%
X87000000Y-85000000D02*
X87000000Y-86000000D01*
X87000000Y-72000000D02*
X86000000Y-72000000D01*
X86000000Y-86000000D02*
X87000000Y-86000000D01*
X87000000Y-72000000D02*
X87000000Y-73000000D01*
X73000000Y-73000000D02*
X73000000Y-72000000D01*
X73000000Y-86000000D02*
X74000000Y-86000000D01*
X74000000Y-72000000D02*
X73000000Y-72000000D01*
X73000000Y-86000000D02*
X73000000Y-85000000D01*
X71000000Y-70000000D02*
X89000000Y-70000000D01*
X89000000Y-88000000D01*
X71000000Y-88000000D01*
X71000000Y-70000000D01*
%TO.C,SW11*%
X87000000Y-66000000D02*
X87000000Y-67000000D01*
X87000000Y-53000000D02*
X86000000Y-53000000D01*
X86000000Y-67000000D02*
X87000000Y-67000000D01*
X87000000Y-53000000D02*
X87000000Y-54000000D01*
X73000000Y-54000000D02*
X73000000Y-53000000D01*
X73000000Y-67000000D02*
X74000000Y-67000000D01*
X74000000Y-53000000D02*
X73000000Y-53000000D01*
X73000000Y-67000000D02*
X73000000Y-66000000D01*
X71000000Y-51000000D02*
X89000000Y-51000000D01*
X89000000Y-69000000D01*
X71000000Y-69000000D01*
X71000000Y-51000000D01*
%TO.C,SW12*%
X87000000Y-47000000D02*
X87000000Y-48000000D01*
X87000000Y-34000000D02*
X86000000Y-34000000D01*
X86000000Y-48000000D02*
X87000000Y-48000000D01*
X87000000Y-34000000D02*
X87000000Y-35000000D01*
X73000000Y-35000000D02*
X73000000Y-34000000D01*
X73000000Y-48000000D02*
X74000000Y-48000000D01*
X74000000Y-34000000D02*
X73000000Y-34000000D01*
X73000000Y-48000000D02*
X73000000Y-47000000D01*
X71000000Y-32000000D02*
X89000000Y-32000000D01*
X89000000Y-50000000D01*
X71000000Y-50000000D01*
X71000000Y-32000000D01*
%TO.C,SW13*%
X107000000Y-100000000D02*
X107000000Y-101000000D01*
X107000000Y-87000000D02*
X106000000Y-87000000D01*
X106000000Y-101000000D02*
X107000000Y-101000000D01*
X107000000Y-87000000D02*
X107000000Y-88000000D01*
X93000000Y-88000000D02*
X93000000Y-87000000D01*
X93000000Y-101000000D02*
X94000000Y-101000000D01*
X94000000Y-87000000D02*
X93000000Y-87000000D01*
X93000000Y-101000000D02*
X93000000Y-100000000D01*
X91000000Y-85000000D02*
X109000000Y-85000000D01*
X109000000Y-103000000D01*
X91000000Y-103000000D01*
X91000000Y-85000000D01*
%TO.C,SW14*%
X107000000Y-81000000D02*
X107000000Y-82000000D01*
X107000000Y-68000000D02*
X106000000Y-68000000D01*
X106000000Y-82000000D02*
X107000000Y-82000000D01*
X107000000Y-68000000D02*
X107000000Y-69000000D01*
X93000000Y-69000000D02*
X93000000Y-68000000D01*
X93000000Y-82000000D02*
X94000000Y-82000000D01*
X94000000Y-68000000D02*
X93000000Y-68000000D01*
X93000000Y-82000000D02*
X93000000Y-81000000D01*
X91000000Y-66000000D02*
X109000000Y-66000000D01*
X109000000Y-84000000D01*
X91000000Y-84000000D01*
X91000000Y-66000000D01*
%TO.C,SW15*%
X107000000Y-62000000D02*
X107000000Y-63000000D01*
X107000000Y-49000000D02*
X106000000Y-49000000D01*
X106000000Y-63000000D02*
X107000000Y-63000000D01*
X107000000Y-49000000D02*
X107000000Y-50000000D01*
X93000000Y-50000000D02*
X93000000Y-49000000D01*
X93000000Y-63000000D02*
X94000000Y-63000000D01*
X94000000Y-49000000D02*
X93000000Y-49000000D01*
X93000000Y-63000000D02*
X93000000Y-62000000D01*
X91000000Y-47000000D02*
X109000000Y-47000000D01*
X109000000Y-65000000D01*
X91000000Y-65000000D01*
X91000000Y-47000000D01*
%TO.C,SW16*%
X107000000Y-43000000D02*
X107000000Y-44000000D01*
X107000000Y-30000000D02*
X106000000Y-30000000D01*
X106000000Y-44000000D02*
X107000000Y-44000000D01*
X107000000Y-30000000D02*
X107000000Y-31000000D01*
X93000000Y-31000000D02*
X93000000Y-30000000D01*
X93000000Y-44000000D02*
X94000000Y-44000000D01*
X94000000Y-30000000D02*
X93000000Y-30000000D01*
X93000000Y-44000000D02*
X93000000Y-43000000D01*
X91000000Y-28000000D02*
X109000000Y-28000000D01*
X109000000Y-46000000D01*
X91000000Y-46000000D01*
X91000000Y-28000000D01*
%TO.C,SW17*%
X127000000Y-104000000D02*
X127000000Y-105000000D01*
X127000000Y-91000000D02*
X126000000Y-91000000D01*
X126000000Y-105000000D02*
X127000000Y-105000000D01*
X127000000Y-91000000D02*
X127000000Y-92000000D01*
X113000000Y-92000000D02*
X113000000Y-91000000D01*
X113000000Y-105000000D02*
X114000000Y-105000000D01*
X114000000Y-91000000D02*
X113000000Y-91000000D01*
X113000000Y-105000000D02*
X113000000Y-104000000D01*
X111000000Y-89000000D02*
X129000000Y-89000000D01*
X129000000Y-107000000D01*
X111000000Y-107000000D01*
X111000000Y-89000000D01*
%TO.C,SW18*%
X127000000Y-85000000D02*
X127000000Y-86000000D01*
X127000000Y-72000000D02*
X126000000Y-72000000D01*
X126000000Y-86000000D02*
X127000000Y-86000000D01*
X127000000Y-72000000D02*
X127000000Y-73000000D01*
X113000000Y-73000000D02*
X113000000Y-72000000D01*
X113000000Y-86000000D02*
X114000000Y-86000000D01*
X114000000Y-72000000D02*
X113000000Y-72000000D01*
X113000000Y-86000000D02*
X113000000Y-85000000D01*
X111000000Y-70000000D02*
X129000000Y-70000000D01*
X129000000Y-88000000D01*
X111000000Y-88000000D01*
X111000000Y-70000000D01*
%TO.C,SW19*%
X127000000Y-66000000D02*
X127000000Y-67000000D01*
X127000000Y-53000000D02*
X126000000Y-53000000D01*
X126000000Y-67000000D02*
X127000000Y-67000000D01*
X127000000Y-53000000D02*
X127000000Y-54000000D01*
X113000000Y-54000000D02*
X113000000Y-53000000D01*
X113000000Y-67000000D02*
X114000000Y-67000000D01*
X114000000Y-53000000D02*
X113000000Y-53000000D01*
X113000000Y-67000000D02*
X113000000Y-66000000D01*
X111000000Y-51000000D02*
X129000000Y-51000000D01*
X129000000Y-69000000D01*
X111000000Y-69000000D01*
X111000000Y-51000000D01*
%TO.C,SW20*%
X127000000Y-47000000D02*
X127000000Y-48000000D01*
X127000000Y-34000000D02*
X126000000Y-34000000D01*
X126000000Y-48000000D02*
X127000000Y-48000000D01*
X127000000Y-34000000D02*
X127000000Y-35000000D01*
X113000000Y-35000000D02*
X113000000Y-34000000D01*
X113000000Y-48000000D02*
X114000000Y-48000000D01*
X114000000Y-34000000D02*
X113000000Y-34000000D01*
X113000000Y-48000000D02*
X113000000Y-47000000D01*
X111000000Y-32000000D02*
X129000000Y-32000000D01*
X129000000Y-50000000D01*
X111000000Y-50000000D01*
X111000000Y-32000000D01*
%TO.C,SW21*%
X147000000Y-110000000D02*
X147000000Y-111000000D01*
X147000000Y-97000000D02*
X146000000Y-97000000D01*
X146000000Y-111000000D02*
X147000000Y-111000000D01*
X147000000Y-97000000D02*
X147000000Y-98000000D01*
X133000000Y-98000000D02*
X133000000Y-97000000D01*
X133000000Y-111000000D02*
X134000000Y-111000000D01*
X134000000Y-97000000D02*
X133000000Y-97000000D01*
X133000000Y-111000000D02*
X133000000Y-110000000D01*
X131000000Y-95000000D02*
X149000000Y-95000000D01*
X149000000Y-113000000D01*
X131000000Y-113000000D01*
X131000000Y-95000000D01*
%TO.C,SW22*%
X147000000Y-91000000D02*
X147000000Y-92000000D01*
X147000000Y-78000000D02*
X146000000Y-78000000D01*
X146000000Y-92000000D02*
X147000000Y-92000000D01*
X147000000Y-78000000D02*
X147000000Y-79000000D01*
X133000000Y-79000000D02*
X133000000Y-78000000D01*
X133000000Y-92000000D02*
X134000000Y-92000000D01*
X134000000Y-78000000D02*
X133000000Y-78000000D01*
X133000000Y-92000000D02*
X133000000Y-91000000D01*
X131000000Y-76000000D02*
X149000000Y-76000000D01*
X149000000Y-94000000D01*
X131000000Y-94000000D01*
X131000000Y-76000000D01*
%TO.C,SW23*%
X147000000Y-72000000D02*
X147000000Y-73000000D01*
X147000000Y-59000000D02*
X146000000Y-59000000D01*
X146000000Y-73000000D02*
X147000000Y-73000000D01*
X147000000Y-59000000D02*
X147000000Y-60000000D01*
X133000000Y-60000000D02*
X133000000Y-59000000D01*
X133000000Y-73000000D02*
X134000000Y-73000000D01*
X134000000Y-59000000D02*
X133000000Y-59000000D01*
X133000000Y-73000000D02*
X133000000Y-72000000D01*
X131000000Y-57000000D02*
X149000000Y-57000000D01*
X149000000Y-75000000D01*
X131000000Y-75000000D01*
X131000000Y-57000000D01*
%TO.C,SW24*%
X147000000Y-53000000D02*
X147000000Y-54000000D01*
X147000000Y-40000000D02*
X146000000Y-40000000D01*
X146000000Y-54000000D02*
X147000000Y-54000000D01*
X147000000Y-40000000D02*
X147000000Y-41000000D01*
X133000000Y-41000000D02*
X133000000Y-40000000D01*
X133000000Y-54000000D02*
X134000000Y-54000000D01*
X134000000Y-40000000D02*
X133000000Y-40000000D01*
X133000000Y-54000000D02*
X133000000Y-53000000D01*
X131000000Y-38000000D02*
X149000000Y-38000000D01*
X149000000Y-56000000D01*
X131000000Y-56000000D01*
X131000000Y-38000000D01*
%TO.C,SW25*%
X87000000Y-126000000D02*
X87000000Y-127000000D01*
X87000000Y-113000000D02*
X86000000Y-113000000D01*
X86000000Y-127000000D02*
X87000000Y-127000000D01*
X87000000Y-113000000D02*
X87000000Y-114000000D01*
X73000000Y-114000000D02*
X73000000Y-113000000D01*
X73000000Y-127000000D02*
X74000000Y-127000000D01*
X74000000Y-113000000D02*
X73000000Y-113000000D01*
X73000000Y-127000000D02*
X73000000Y-126000000D01*
X71000000Y-111000000D02*
X89000000Y-111000000D01*
X89000000Y-129000000D01*
X71000000Y-129000000D01*
X71000000Y-111000000D01*
%TO.C,SW26*%
X107000000Y-126000000D02*
X107000000Y-127000000D01*
X107000000Y-113000000D02*
X106000000Y-113000000D01*
X106000000Y-127000000D02*
X107000000Y-127000000D01*
X107000000Y-113000000D02*
X107000000Y-114000000D01*
X93000000Y-114000000D02*
X93000000Y-113000000D01*
X93000000Y-127000000D02*
X94000000Y-127000000D01*
X94000000Y-113000000D02*
X93000000Y-113000000D01*
X93000000Y-127000000D02*
X93000000Y-126000000D01*
X91000000Y-111000000D02*
X109000000Y-111000000D01*
X109000000Y-129000000D01*
X91000000Y-129000000D01*
X91000000Y-111000000D01*
%TO.C,SW27*%
X126450428Y-127587258D02*
X126363273Y-128583453D01*
X127583453Y-114636727D02*
X126587258Y-114549572D01*
X125367078Y-128496297D02*
X126363273Y-128583453D01*
X127583453Y-114636727D02*
X127496297Y-115632922D01*
X113549572Y-114412742D02*
X113636727Y-113416547D01*
X112416547Y-127363273D02*
X113412742Y-127450428D01*
X114632922Y-113503703D02*
X113636727Y-113416547D01*
X112416547Y-127363273D02*
X112503703Y-126367078D01*
X129750154Y-112818649D02*
X128181351Y-130750154D01*
X110249846Y-129181351D01*
X111818649Y-111249846D01*
X129750154Y-112818649D01*
%TO.C,SW28*%
X145366127Y-133518797D02*
X145024107Y-134458489D01*
X149812389Y-121302793D02*
X148872697Y-120960773D01*
X144084415Y-134116469D02*
X145024107Y-134458489D01*
X149812389Y-121302793D02*
X149470369Y-122242485D01*
X136314673Y-117454203D02*
X136656693Y-116514511D01*
X131868411Y-129670207D02*
X132808103Y-130012227D01*
X137596385Y-116856531D02*
X136656693Y-116514511D01*
X131868411Y-129670207D02*
X132210431Y-128730515D01*
X152375815Y-120107448D02*
X146219452Y-137021915D01*
X129304985Y-130865552D01*
X135461348Y-113951085D01*
X152375815Y-120107448D01*
%TO.C,SW29*%
X160554885Y-145095180D02*
X159912098Y-145861224D01*
X168911124Y-135136602D02*
X168145080Y-134493815D01*
X159146053Y-145218437D02*
X159912098Y-145861224D01*
X168911124Y-135136602D02*
X168268337Y-135902647D01*
X157543715Y-126903620D02*
X158186502Y-126137576D01*
X149187476Y-136862198D02*
X149953520Y-137504985D01*
X158952547Y-126780363D02*
X158186502Y-126137576D01*
X149187476Y-136862198D02*
X149830263Y-136096153D01*
X171728788Y-134890088D02*
X160158612Y-148678888D01*
X146369812Y-137108712D01*
X157939988Y-123319912D01*
X171728788Y-134890088D01*
D11*
%TO.C,L1*%
X38400000Y-113600000D02*
X41600000Y-113600000D01*
X38400000Y-116400000D02*
X41600000Y-116400000D01*
X38400000Y-113600000D02*
X38400000Y-116400000D01*
X41600000Y-113600000D02*
X41600000Y-116400000D01*
X38400000Y-113950000D02*
X37060000Y-113950000D01*
X37060000Y-113950000D02*
X37060000Y-114630000D01*
X37060000Y-114630000D02*
X38400000Y-114630000D01*
X38400000Y-115350000D02*
X37060000Y-115350000D01*
X37060000Y-116030000D02*
X38400000Y-116030000D01*
X37060000Y-115350000D02*
X37060000Y-116030000D01*
X41600000Y-116030000D02*
X42940000Y-116030000D01*
X42940000Y-115350000D02*
X41600000Y-115350000D01*
X42940000Y-116030000D02*
X42940000Y-115350000D01*
X41600000Y-114630000D02*
X42940000Y-114630000D01*
X42940000Y-113950000D02*
X41600000Y-113950000D01*
X42940000Y-114630000D02*
X42940000Y-113950000D01*
X39200000Y-113600000D02*
X39200000Y-116400000D01*
X40800000Y-113600000D02*
X40800000Y-116400000D01*
X39000000Y-113600000D02*
X39000000Y-116400000D01*
X41000000Y-113600000D02*
X41000000Y-116400000D01*
X39200000Y-113600000D02*
X39200000Y-116400000D01*
X40800000Y-113600000D02*
X40800000Y-116400000D01*
X39000000Y-113600000D02*
X39000000Y-116400000D01*
X41000000Y-113600000D02*
X41000000Y-116400000D01*
%TO.C,L2*%
X38400000Y-94600000D02*
X41600000Y-94600000D01*
X38400000Y-97400000D02*
X41600000Y-97400000D01*
X38400000Y-94600000D02*
X38400000Y-97400000D01*
X41600000Y-94600000D02*
X41600000Y-97400000D01*
X38400000Y-94950000D02*
X37060000Y-94950000D01*
X37060000Y-94950000D02*
X37060000Y-95630000D01*
X37060000Y-95630000D02*
X38400000Y-95630000D01*
X38400000Y-96350000D02*
X37060000Y-96350000D01*
X37060000Y-97030000D02*
X38400000Y-97030000D01*
X37060000Y-96350000D02*
X37060000Y-97030000D01*
X41600000Y-97030000D02*
X42940000Y-97030000D01*
X42940000Y-96350000D02*
X41600000Y-96350000D01*
X42940000Y-97030000D02*
X42940000Y-96350000D01*
X41600000Y-95630000D02*
X42940000Y-95630000D01*
X42940000Y-94950000D02*
X41600000Y-94950000D01*
X42940000Y-95630000D02*
X42940000Y-94950000D01*
X39200000Y-94600000D02*
X39200000Y-97400000D01*
X40800000Y-94600000D02*
X40800000Y-97400000D01*
X39000000Y-94600000D02*
X39000000Y-97400000D01*
X41000000Y-94600000D02*
X41000000Y-97400000D01*
X39200000Y-94600000D02*
X39200000Y-97400000D01*
X40800000Y-94600000D02*
X40800000Y-97400000D01*
X39000000Y-94600000D02*
X39000000Y-97400000D01*
X41000000Y-94600000D02*
X41000000Y-97400000D01*
%TO.C,L3*%
X38400000Y-75600000D02*
X41600000Y-75600000D01*
X38400000Y-78400000D02*
X41600000Y-78400000D01*
X38400000Y-75600000D02*
X38400000Y-78400000D01*
X41600000Y-75600000D02*
X41600000Y-78400000D01*
X38400000Y-75950000D02*
X37060000Y-75950000D01*
X37060000Y-75950000D02*
X37060000Y-76630000D01*
X37060000Y-76630000D02*
X38400000Y-76630000D01*
X38400000Y-77350000D02*
X37060000Y-77350000D01*
X37060000Y-78030000D02*
X38400000Y-78030000D01*
X37060000Y-77350000D02*
X37060000Y-78030000D01*
X41600000Y-78030000D02*
X42940000Y-78030000D01*
X42940000Y-77350000D02*
X41600000Y-77350000D01*
X42940000Y-78030000D02*
X42940000Y-77350000D01*
X41600000Y-76630000D02*
X42940000Y-76630000D01*
X42940000Y-75950000D02*
X41600000Y-75950000D01*
X42940000Y-76630000D02*
X42940000Y-75950000D01*
X39200000Y-75600000D02*
X39200000Y-78400000D01*
X40800000Y-75600000D02*
X40800000Y-78400000D01*
X39000000Y-75600000D02*
X39000000Y-78400000D01*
X41000000Y-75600000D02*
X41000000Y-78400000D01*
X39200000Y-75600000D02*
X39200000Y-78400000D01*
X40800000Y-75600000D02*
X40800000Y-78400000D01*
X39000000Y-75600000D02*
X39000000Y-78400000D01*
X41000000Y-75600000D02*
X41000000Y-78400000D01*
%TO.C,L4*%
X38400000Y-56600000D02*
X41600000Y-56600000D01*
X38400000Y-59400000D02*
X41600000Y-59400000D01*
X38400000Y-56600000D02*
X38400000Y-59400000D01*
X41600000Y-56600000D02*
X41600000Y-59400000D01*
X38400000Y-56950000D02*
X37060000Y-56950000D01*
X37060000Y-56950000D02*
X37060000Y-57630000D01*
X37060000Y-57630000D02*
X38400000Y-57630000D01*
X38400000Y-58350000D02*
X37060000Y-58350000D01*
X37060000Y-59030000D02*
X38400000Y-59030000D01*
X37060000Y-58350000D02*
X37060000Y-59030000D01*
X41600000Y-59030000D02*
X42940000Y-59030000D01*
X42940000Y-58350000D02*
X41600000Y-58350000D01*
X42940000Y-59030000D02*
X42940000Y-58350000D01*
X41600000Y-57630000D02*
X42940000Y-57630000D01*
X42940000Y-56950000D02*
X41600000Y-56950000D01*
X42940000Y-57630000D02*
X42940000Y-56950000D01*
X39200000Y-56600000D02*
X39200000Y-59400000D01*
X40800000Y-56600000D02*
X40800000Y-59400000D01*
X39000000Y-56600000D02*
X39000000Y-59400000D01*
X41000000Y-56600000D02*
X41000000Y-59400000D01*
X39200000Y-56600000D02*
X39200000Y-59400000D01*
X40800000Y-56600000D02*
X40800000Y-59400000D01*
X39000000Y-56600000D02*
X39000000Y-59400000D01*
X41000000Y-56600000D02*
X41000000Y-59400000D01*
%TO.C,L5*%
X58400000Y-103600000D02*
X61600000Y-103600000D01*
X58400000Y-106400000D02*
X61600000Y-106400000D01*
X58400000Y-103600000D02*
X58400000Y-106400000D01*
X61600000Y-103600000D02*
X61600000Y-106400000D01*
X58400000Y-103950000D02*
X57060000Y-103950000D01*
X57060000Y-103950000D02*
X57060000Y-104630000D01*
X57060000Y-104630000D02*
X58400000Y-104630000D01*
X58400000Y-105350000D02*
X57060000Y-105350000D01*
X57060000Y-106030000D02*
X58400000Y-106030000D01*
X57060000Y-105350000D02*
X57060000Y-106030000D01*
X61600000Y-106030000D02*
X62940000Y-106030000D01*
X62940000Y-105350000D02*
X61600000Y-105350000D01*
X62940000Y-106030000D02*
X62940000Y-105350000D01*
X61600000Y-104630000D02*
X62940000Y-104630000D01*
X62940000Y-103950000D02*
X61600000Y-103950000D01*
X62940000Y-104630000D02*
X62940000Y-103950000D01*
X59200000Y-103600000D02*
X59200000Y-106400000D01*
X60800000Y-103600000D02*
X60800000Y-106400000D01*
X59000000Y-103600000D02*
X59000000Y-106400000D01*
X61000000Y-103600000D02*
X61000000Y-106400000D01*
X59200000Y-103600000D02*
X59200000Y-106400000D01*
X60800000Y-103600000D02*
X60800000Y-106400000D01*
X59000000Y-103600000D02*
X59000000Y-106400000D01*
X61000000Y-103600000D02*
X61000000Y-106400000D01*
%TO.C,L6*%
X58400000Y-84600000D02*
X61600000Y-84600000D01*
X58400000Y-87400000D02*
X61600000Y-87400000D01*
X58400000Y-84600000D02*
X58400000Y-87400000D01*
X61600000Y-84600000D02*
X61600000Y-87400000D01*
X58400000Y-84950000D02*
X57060000Y-84950000D01*
X57060000Y-84950000D02*
X57060000Y-85630000D01*
X57060000Y-85630000D02*
X58400000Y-85630000D01*
X58400000Y-86350000D02*
X57060000Y-86350000D01*
X57060000Y-87030000D02*
X58400000Y-87030000D01*
X57060000Y-86350000D02*
X57060000Y-87030000D01*
X61600000Y-87030000D02*
X62940000Y-87030000D01*
X62940000Y-86350000D02*
X61600000Y-86350000D01*
X62940000Y-87030000D02*
X62940000Y-86350000D01*
X61600000Y-85630000D02*
X62940000Y-85630000D01*
X62940000Y-84950000D02*
X61600000Y-84950000D01*
X62940000Y-85630000D02*
X62940000Y-84950000D01*
X59200000Y-84600000D02*
X59200000Y-87400000D01*
X60800000Y-84600000D02*
X60800000Y-87400000D01*
X59000000Y-84600000D02*
X59000000Y-87400000D01*
X61000000Y-84600000D02*
X61000000Y-87400000D01*
X59200000Y-84600000D02*
X59200000Y-87400000D01*
X60800000Y-84600000D02*
X60800000Y-87400000D01*
X59000000Y-84600000D02*
X59000000Y-87400000D01*
X61000000Y-84600000D02*
X61000000Y-87400000D01*
%TO.C,L7*%
X58400000Y-65600000D02*
X61600000Y-65600000D01*
X58400000Y-68400000D02*
X61600000Y-68400000D01*
X58400000Y-65600000D02*
X58400000Y-68400000D01*
X61600000Y-65600000D02*
X61600000Y-68400000D01*
X58400000Y-65950000D02*
X57060000Y-65950000D01*
X57060000Y-65950000D02*
X57060000Y-66630000D01*
X57060000Y-66630000D02*
X58400000Y-66630000D01*
X58400000Y-67350000D02*
X57060000Y-67350000D01*
X57060000Y-68030000D02*
X58400000Y-68030000D01*
X57060000Y-67350000D02*
X57060000Y-68030000D01*
X61600000Y-68030000D02*
X62940000Y-68030000D01*
X62940000Y-67350000D02*
X61600000Y-67350000D01*
X62940000Y-68030000D02*
X62940000Y-67350000D01*
X61600000Y-66630000D02*
X62940000Y-66630000D01*
X62940000Y-65950000D02*
X61600000Y-65950000D01*
X62940000Y-66630000D02*
X62940000Y-65950000D01*
X59200000Y-65600000D02*
X59200000Y-68400000D01*
X60800000Y-65600000D02*
X60800000Y-68400000D01*
X59000000Y-65600000D02*
X59000000Y-68400000D01*
X61000000Y-65600000D02*
X61000000Y-68400000D01*
X59200000Y-65600000D02*
X59200000Y-68400000D01*
X60800000Y-65600000D02*
X60800000Y-68400000D01*
X59000000Y-65600000D02*
X59000000Y-68400000D01*
X61000000Y-65600000D02*
X61000000Y-68400000D01*
%TO.C,L8*%
X58400000Y-46600000D02*
X61600000Y-46600000D01*
X58400000Y-49400000D02*
X61600000Y-49400000D01*
X58400000Y-46600000D02*
X58400000Y-49400000D01*
X61600000Y-46600000D02*
X61600000Y-49400000D01*
X58400000Y-46950000D02*
X57060000Y-46950000D01*
X57060000Y-46950000D02*
X57060000Y-47630000D01*
X57060000Y-47630000D02*
X58400000Y-47630000D01*
X58400000Y-48350000D02*
X57060000Y-48350000D01*
X57060000Y-49030000D02*
X58400000Y-49030000D01*
X57060000Y-48350000D02*
X57060000Y-49030000D01*
X61600000Y-49030000D02*
X62940000Y-49030000D01*
X62940000Y-48350000D02*
X61600000Y-48350000D01*
X62940000Y-49030000D02*
X62940000Y-48350000D01*
X61600000Y-47630000D02*
X62940000Y-47630000D01*
X62940000Y-46950000D02*
X61600000Y-46950000D01*
X62940000Y-47630000D02*
X62940000Y-46950000D01*
X59200000Y-46600000D02*
X59200000Y-49400000D01*
X60800000Y-46600000D02*
X60800000Y-49400000D01*
X59000000Y-46600000D02*
X59000000Y-49400000D01*
X61000000Y-46600000D02*
X61000000Y-49400000D01*
X59200000Y-46600000D02*
X59200000Y-49400000D01*
X60800000Y-46600000D02*
X60800000Y-49400000D01*
X59000000Y-46600000D02*
X59000000Y-49400000D01*
X61000000Y-46600000D02*
X61000000Y-49400000D01*
%TO.C,L9*%
X78400000Y-91600000D02*
X81600000Y-91600000D01*
X78400000Y-94400000D02*
X81600000Y-94400000D01*
X78400000Y-91600000D02*
X78400000Y-94400000D01*
X81600000Y-91600000D02*
X81600000Y-94400000D01*
X78400000Y-91950000D02*
X77060000Y-91950000D01*
X77060000Y-91950000D02*
X77060000Y-92630000D01*
X77060000Y-92630000D02*
X78400000Y-92630000D01*
X78400000Y-93350000D02*
X77060000Y-93350000D01*
X77060000Y-94030000D02*
X78400000Y-94030000D01*
X77060000Y-93350000D02*
X77060000Y-94030000D01*
X81600000Y-94030000D02*
X82940000Y-94030000D01*
X82940000Y-93350000D02*
X81600000Y-93350000D01*
X82940000Y-94030000D02*
X82940000Y-93350000D01*
X81600000Y-92630000D02*
X82940000Y-92630000D01*
X82940000Y-91950000D02*
X81600000Y-91950000D01*
X82940000Y-92630000D02*
X82940000Y-91950000D01*
X79200000Y-91600000D02*
X79200000Y-94400000D01*
X80800000Y-91600000D02*
X80800000Y-94400000D01*
X79000000Y-91600000D02*
X79000000Y-94400000D01*
X81000000Y-91600000D02*
X81000000Y-94400000D01*
X79200000Y-91600000D02*
X79200000Y-94400000D01*
X80800000Y-91600000D02*
X80800000Y-94400000D01*
X79000000Y-91600000D02*
X79000000Y-94400000D01*
X81000000Y-91600000D02*
X81000000Y-94400000D01*
%TO.C,L10*%
X78400000Y-72600000D02*
X81600000Y-72600000D01*
X78400000Y-75400000D02*
X81600000Y-75400000D01*
X78400000Y-72600000D02*
X78400000Y-75400000D01*
X81600000Y-72600000D02*
X81600000Y-75400000D01*
X78400000Y-72950000D02*
X77060000Y-72950000D01*
X77060000Y-72950000D02*
X77060000Y-73630000D01*
X77060000Y-73630000D02*
X78400000Y-73630000D01*
X78400000Y-74350000D02*
X77060000Y-74350000D01*
X77060000Y-75030000D02*
X78400000Y-75030000D01*
X77060000Y-74350000D02*
X77060000Y-75030000D01*
X81600000Y-75030000D02*
X82940000Y-75030000D01*
X82940000Y-74350000D02*
X81600000Y-74350000D01*
X82940000Y-75030000D02*
X82940000Y-74350000D01*
X81600000Y-73630000D02*
X82940000Y-73630000D01*
X82940000Y-72950000D02*
X81600000Y-72950000D01*
X82940000Y-73630000D02*
X82940000Y-72950000D01*
X79200000Y-72600000D02*
X79200000Y-75400000D01*
X80800000Y-72600000D02*
X80800000Y-75400000D01*
X79000000Y-72600000D02*
X79000000Y-75400000D01*
X81000000Y-72600000D02*
X81000000Y-75400000D01*
X79200000Y-72600000D02*
X79200000Y-75400000D01*
X80800000Y-72600000D02*
X80800000Y-75400000D01*
X79000000Y-72600000D02*
X79000000Y-75400000D01*
X81000000Y-72600000D02*
X81000000Y-75400000D01*
%TO.C,L11*%
X78400000Y-53600000D02*
X81600000Y-53600000D01*
X78400000Y-56400000D02*
X81600000Y-56400000D01*
X78400000Y-53600000D02*
X78400000Y-56400000D01*
X81600000Y-53600000D02*
X81600000Y-56400000D01*
X78400000Y-53950000D02*
X77060000Y-53950000D01*
X77060000Y-53950000D02*
X77060000Y-54630000D01*
X77060000Y-54630000D02*
X78400000Y-54630000D01*
X78400000Y-55350000D02*
X77060000Y-55350000D01*
X77060000Y-56030000D02*
X78400000Y-56030000D01*
X77060000Y-55350000D02*
X77060000Y-56030000D01*
X81600000Y-56030000D02*
X82940000Y-56030000D01*
X82940000Y-55350000D02*
X81600000Y-55350000D01*
X82940000Y-56030000D02*
X82940000Y-55350000D01*
X81600000Y-54630000D02*
X82940000Y-54630000D01*
X82940000Y-53950000D02*
X81600000Y-53950000D01*
X82940000Y-54630000D02*
X82940000Y-53950000D01*
X79200000Y-53600000D02*
X79200000Y-56400000D01*
X80800000Y-53600000D02*
X80800000Y-56400000D01*
X79000000Y-53600000D02*
X79000000Y-56400000D01*
X81000000Y-53600000D02*
X81000000Y-56400000D01*
X79200000Y-53600000D02*
X79200000Y-56400000D01*
X80800000Y-53600000D02*
X80800000Y-56400000D01*
X79000000Y-53600000D02*
X79000000Y-56400000D01*
X81000000Y-53600000D02*
X81000000Y-56400000D01*
%TO.C,L12*%
X78400000Y-34600000D02*
X81600000Y-34600000D01*
X78400000Y-37400000D02*
X81600000Y-37400000D01*
X78400000Y-34600000D02*
X78400000Y-37400000D01*
X81600000Y-34600000D02*
X81600000Y-37400000D01*
X78400000Y-34950000D02*
X77060000Y-34950000D01*
X77060000Y-34950000D02*
X77060000Y-35630000D01*
X77060000Y-35630000D02*
X78400000Y-35630000D01*
X78400000Y-36350000D02*
X77060000Y-36350000D01*
X77060000Y-37030000D02*
X78400000Y-37030000D01*
X77060000Y-36350000D02*
X77060000Y-37030000D01*
X81600000Y-37030000D02*
X82940000Y-37030000D01*
X82940000Y-36350000D02*
X81600000Y-36350000D01*
X82940000Y-37030000D02*
X82940000Y-36350000D01*
X81600000Y-35630000D02*
X82940000Y-35630000D01*
X82940000Y-34950000D02*
X81600000Y-34950000D01*
X82940000Y-35630000D02*
X82940000Y-34950000D01*
X79200000Y-34600000D02*
X79200000Y-37400000D01*
X80800000Y-34600000D02*
X80800000Y-37400000D01*
X79000000Y-34600000D02*
X79000000Y-37400000D01*
X81000000Y-34600000D02*
X81000000Y-37400000D01*
X79200000Y-34600000D02*
X79200000Y-37400000D01*
X80800000Y-34600000D02*
X80800000Y-37400000D01*
X79000000Y-34600000D02*
X79000000Y-37400000D01*
X81000000Y-34600000D02*
X81000000Y-37400000D01*
%TO.C,L13*%
X98400000Y-87600000D02*
X101600000Y-87600000D01*
X98400000Y-90400000D02*
X101600000Y-90400000D01*
X98400000Y-87600000D02*
X98400000Y-90400000D01*
X101600000Y-87600000D02*
X101600000Y-90400000D01*
X98400000Y-87950000D02*
X97060000Y-87950000D01*
X97060000Y-87950000D02*
X97060000Y-88630000D01*
X97060000Y-88630000D02*
X98400000Y-88630000D01*
X98400000Y-89350000D02*
X97060000Y-89350000D01*
X97060000Y-90030000D02*
X98400000Y-90030000D01*
X97060000Y-89350000D02*
X97060000Y-90030000D01*
X101600000Y-90030000D02*
X102940000Y-90030000D01*
X102940000Y-89350000D02*
X101600000Y-89350000D01*
X102940000Y-90030000D02*
X102940000Y-89350000D01*
X101600000Y-88630000D02*
X102940000Y-88630000D01*
X102940000Y-87950000D02*
X101600000Y-87950000D01*
X102940000Y-88630000D02*
X102940000Y-87950000D01*
X99200000Y-87600000D02*
X99200000Y-90400000D01*
X100800000Y-87600000D02*
X100800000Y-90400000D01*
X99000000Y-87600000D02*
X99000000Y-90400000D01*
X101000000Y-87600000D02*
X101000000Y-90400000D01*
X99200000Y-87600000D02*
X99200000Y-90400000D01*
X100800000Y-87600000D02*
X100800000Y-90400000D01*
X99000000Y-87600000D02*
X99000000Y-90400000D01*
X101000000Y-87600000D02*
X101000000Y-90400000D01*
%TO.C,L14*%
X98400000Y-68600000D02*
X101600000Y-68600000D01*
X98400000Y-71400000D02*
X101600000Y-71400000D01*
X98400000Y-68600000D02*
X98400000Y-71400000D01*
X101600000Y-68600000D02*
X101600000Y-71400000D01*
X98400000Y-68950000D02*
X97060000Y-68950000D01*
X97060000Y-68950000D02*
X97060000Y-69630000D01*
X97060000Y-69630000D02*
X98400000Y-69630000D01*
X98400000Y-70350000D02*
X97060000Y-70350000D01*
X97060000Y-71030000D02*
X98400000Y-71030000D01*
X97060000Y-70350000D02*
X97060000Y-71030000D01*
X101600000Y-71030000D02*
X102940000Y-71030000D01*
X102940000Y-70350000D02*
X101600000Y-70350000D01*
X102940000Y-71030000D02*
X102940000Y-70350000D01*
X101600000Y-69630000D02*
X102940000Y-69630000D01*
X102940000Y-68950000D02*
X101600000Y-68950000D01*
X102940000Y-69630000D02*
X102940000Y-68950000D01*
X99200000Y-68600000D02*
X99200000Y-71400000D01*
X100800000Y-68600000D02*
X100800000Y-71400000D01*
X99000000Y-68600000D02*
X99000000Y-71400000D01*
X101000000Y-68600000D02*
X101000000Y-71400000D01*
X99200000Y-68600000D02*
X99200000Y-71400000D01*
X100800000Y-68600000D02*
X100800000Y-71400000D01*
X99000000Y-68600000D02*
X99000000Y-71400000D01*
X101000000Y-68600000D02*
X101000000Y-71400000D01*
%TO.C,L15*%
X98400000Y-49600000D02*
X101600000Y-49600000D01*
X98400000Y-52400000D02*
X101600000Y-52400000D01*
X98400000Y-49600000D02*
X98400000Y-52400000D01*
X101600000Y-49600000D02*
X101600000Y-52400000D01*
X98400000Y-49950000D02*
X97060000Y-49950000D01*
X97060000Y-49950000D02*
X97060000Y-50630000D01*
X97060000Y-50630000D02*
X98400000Y-50630000D01*
X98400000Y-51350000D02*
X97060000Y-51350000D01*
X97060000Y-52030000D02*
X98400000Y-52030000D01*
X97060000Y-51350000D02*
X97060000Y-52030000D01*
X101600000Y-52030000D02*
X102940000Y-52030000D01*
X102940000Y-51350000D02*
X101600000Y-51350000D01*
X102940000Y-52030000D02*
X102940000Y-51350000D01*
X101600000Y-50630000D02*
X102940000Y-50630000D01*
X102940000Y-49950000D02*
X101600000Y-49950000D01*
X102940000Y-50630000D02*
X102940000Y-49950000D01*
X99200000Y-49600000D02*
X99200000Y-52400000D01*
X100800000Y-49600000D02*
X100800000Y-52400000D01*
X99000000Y-49600000D02*
X99000000Y-52400000D01*
X101000000Y-49600000D02*
X101000000Y-52400000D01*
X99200000Y-49600000D02*
X99200000Y-52400000D01*
X100800000Y-49600000D02*
X100800000Y-52400000D01*
X99000000Y-49600000D02*
X99000000Y-52400000D01*
X101000000Y-49600000D02*
X101000000Y-52400000D01*
%TO.C,L16*%
X98400000Y-30600000D02*
X101600000Y-30600000D01*
X98400000Y-33400000D02*
X101600000Y-33400000D01*
X98400000Y-30600000D02*
X98400000Y-33400000D01*
X101600000Y-30600000D02*
X101600000Y-33400000D01*
X98400000Y-30950000D02*
X97060000Y-30950000D01*
X97060000Y-30950000D02*
X97060000Y-31630000D01*
X97060000Y-31630000D02*
X98400000Y-31630000D01*
X98400000Y-32350000D02*
X97060000Y-32350000D01*
X97060000Y-33030000D02*
X98400000Y-33030000D01*
X97060000Y-32350000D02*
X97060000Y-33030000D01*
X101600000Y-33030000D02*
X102940000Y-33030000D01*
X102940000Y-32350000D02*
X101600000Y-32350000D01*
X102940000Y-33030000D02*
X102940000Y-32350000D01*
X101600000Y-31630000D02*
X102940000Y-31630000D01*
X102940000Y-30950000D02*
X101600000Y-30950000D01*
X102940000Y-31630000D02*
X102940000Y-30950000D01*
X99200000Y-30600000D02*
X99200000Y-33400000D01*
X100800000Y-30600000D02*
X100800000Y-33400000D01*
X99000000Y-30600000D02*
X99000000Y-33400000D01*
X101000000Y-30600000D02*
X101000000Y-33400000D01*
X99200000Y-30600000D02*
X99200000Y-33400000D01*
X100800000Y-30600000D02*
X100800000Y-33400000D01*
X99000000Y-30600000D02*
X99000000Y-33400000D01*
X101000000Y-30600000D02*
X101000000Y-33400000D01*
%TO.C,L17*%
X118400000Y-91600000D02*
X121600000Y-91600000D01*
X118400000Y-94400000D02*
X121600000Y-94400000D01*
X118400000Y-91600000D02*
X118400000Y-94400000D01*
X121600000Y-91600000D02*
X121600000Y-94400000D01*
X118400000Y-91950000D02*
X117060000Y-91950000D01*
X117060000Y-91950000D02*
X117060000Y-92630000D01*
X117060000Y-92630000D02*
X118400000Y-92630000D01*
X118400000Y-93350000D02*
X117060000Y-93350000D01*
X117060000Y-94030000D02*
X118400000Y-94030000D01*
X117060000Y-93350000D02*
X117060000Y-94030000D01*
X121600000Y-94030000D02*
X122940000Y-94030000D01*
X122940000Y-93350000D02*
X121600000Y-93350000D01*
X122940000Y-94030000D02*
X122940000Y-93350000D01*
X121600000Y-92630000D02*
X122940000Y-92630000D01*
X122940000Y-91950000D02*
X121600000Y-91950000D01*
X122940000Y-92630000D02*
X122940000Y-91950000D01*
X119200000Y-91600000D02*
X119200000Y-94400000D01*
X120800000Y-91600000D02*
X120800000Y-94400000D01*
X119000000Y-91600000D02*
X119000000Y-94400000D01*
X121000000Y-91600000D02*
X121000000Y-94400000D01*
X119200000Y-91600000D02*
X119200000Y-94400000D01*
X120800000Y-91600000D02*
X120800000Y-94400000D01*
X119000000Y-91600000D02*
X119000000Y-94400000D01*
X121000000Y-91600000D02*
X121000000Y-94400000D01*
%TO.C,L18*%
X118400000Y-72600000D02*
X121600000Y-72600000D01*
X118400000Y-75400000D02*
X121600000Y-75400000D01*
X118400000Y-72600000D02*
X118400000Y-75400000D01*
X121600000Y-72600000D02*
X121600000Y-75400000D01*
X118400000Y-72950000D02*
X117060000Y-72950000D01*
X117060000Y-72950000D02*
X117060000Y-73630000D01*
X117060000Y-73630000D02*
X118400000Y-73630000D01*
X118400000Y-74350000D02*
X117060000Y-74350000D01*
X117060000Y-75030000D02*
X118400000Y-75030000D01*
X117060000Y-74350000D02*
X117060000Y-75030000D01*
X121600000Y-75030000D02*
X122940000Y-75030000D01*
X122940000Y-74350000D02*
X121600000Y-74350000D01*
X122940000Y-75030000D02*
X122940000Y-74350000D01*
X121600000Y-73630000D02*
X122940000Y-73630000D01*
X122940000Y-72950000D02*
X121600000Y-72950000D01*
X122940000Y-73630000D02*
X122940000Y-72950000D01*
X119200000Y-72600000D02*
X119200000Y-75400000D01*
X120800000Y-72600000D02*
X120800000Y-75400000D01*
X119000000Y-72600000D02*
X119000000Y-75400000D01*
X121000000Y-72600000D02*
X121000000Y-75400000D01*
X119200000Y-72600000D02*
X119200000Y-75400000D01*
X120800000Y-72600000D02*
X120800000Y-75400000D01*
X119000000Y-72600000D02*
X119000000Y-75400000D01*
X121000000Y-72600000D02*
X121000000Y-75400000D01*
%TO.C,L19*%
X118400000Y-53600000D02*
X121600000Y-53600000D01*
X118400000Y-56400000D02*
X121600000Y-56400000D01*
X118400000Y-53600000D02*
X118400000Y-56400000D01*
X121600000Y-53600000D02*
X121600000Y-56400000D01*
X118400000Y-53950000D02*
X117060000Y-53950000D01*
X117060000Y-53950000D02*
X117060000Y-54630000D01*
X117060000Y-54630000D02*
X118400000Y-54630000D01*
X118400000Y-55350000D02*
X117060000Y-55350000D01*
X117060000Y-56030000D02*
X118400000Y-56030000D01*
X117060000Y-55350000D02*
X117060000Y-56030000D01*
X121600000Y-56030000D02*
X122940000Y-56030000D01*
X122940000Y-55350000D02*
X121600000Y-55350000D01*
X122940000Y-56030000D02*
X122940000Y-55350000D01*
X121600000Y-54630000D02*
X122940000Y-54630000D01*
X122940000Y-53950000D02*
X121600000Y-53950000D01*
X122940000Y-54630000D02*
X122940000Y-53950000D01*
X119200000Y-53600000D02*
X119200000Y-56400000D01*
X120800000Y-53600000D02*
X120800000Y-56400000D01*
X119000000Y-53600000D02*
X119000000Y-56400000D01*
X121000000Y-53600000D02*
X121000000Y-56400000D01*
X119200000Y-53600000D02*
X119200000Y-56400000D01*
X120800000Y-53600000D02*
X120800000Y-56400000D01*
X119000000Y-53600000D02*
X119000000Y-56400000D01*
X121000000Y-53600000D02*
X121000000Y-56400000D01*
%TO.C,L20*%
X118400000Y-34600000D02*
X121600000Y-34600000D01*
X118400000Y-37400000D02*
X121600000Y-37400000D01*
X118400000Y-34600000D02*
X118400000Y-37400000D01*
X121600000Y-34600000D02*
X121600000Y-37400000D01*
X118400000Y-34950000D02*
X117060000Y-34950000D01*
X117060000Y-34950000D02*
X117060000Y-35630000D01*
X117060000Y-35630000D02*
X118400000Y-35630000D01*
X118400000Y-36350000D02*
X117060000Y-36350000D01*
X117060000Y-37030000D02*
X118400000Y-37030000D01*
X117060000Y-36350000D02*
X117060000Y-37030000D01*
X121600000Y-37030000D02*
X122940000Y-37030000D01*
X122940000Y-36350000D02*
X121600000Y-36350000D01*
X122940000Y-37030000D02*
X122940000Y-36350000D01*
X121600000Y-35630000D02*
X122940000Y-35630000D01*
X122940000Y-34950000D02*
X121600000Y-34950000D01*
X122940000Y-35630000D02*
X122940000Y-34950000D01*
X119200000Y-34600000D02*
X119200000Y-37400000D01*
X120800000Y-34600000D02*
X120800000Y-37400000D01*
X119000000Y-34600000D02*
X119000000Y-37400000D01*
X121000000Y-34600000D02*
X121000000Y-37400000D01*
X119200000Y-34600000D02*
X119200000Y-37400000D01*
X120800000Y-34600000D02*
X120800000Y-37400000D01*
X119000000Y-34600000D02*
X119000000Y-37400000D01*
X121000000Y-34600000D02*
X121000000Y-37400000D01*
%TO.C,L21*%
X138400000Y-97600000D02*
X141600000Y-97600000D01*
X138400000Y-100400000D02*
X141600000Y-100400000D01*
X138400000Y-97600000D02*
X138400000Y-100400000D01*
X141600000Y-97600000D02*
X141600000Y-100400000D01*
X138400000Y-97950000D02*
X137060000Y-97950000D01*
X137060000Y-97950000D02*
X137060000Y-98630000D01*
X137060000Y-98630000D02*
X138400000Y-98630000D01*
X138400000Y-99350000D02*
X137060000Y-99350000D01*
X137060000Y-100030000D02*
X138400000Y-100030000D01*
X137060000Y-99350000D02*
X137060000Y-100030000D01*
X141600000Y-100030000D02*
X142940000Y-100030000D01*
X142940000Y-99350000D02*
X141600000Y-99350000D01*
X142940000Y-100030000D02*
X142940000Y-99350000D01*
X141600000Y-98630000D02*
X142940000Y-98630000D01*
X142940000Y-97950000D02*
X141600000Y-97950000D01*
X142940000Y-98630000D02*
X142940000Y-97950000D01*
X139200000Y-97600000D02*
X139200000Y-100400000D01*
X140800000Y-97600000D02*
X140800000Y-100400000D01*
X139000000Y-97600000D02*
X139000000Y-100400000D01*
X141000000Y-97600000D02*
X141000000Y-100400000D01*
X139200000Y-97600000D02*
X139200000Y-100400000D01*
X140800000Y-97600000D02*
X140800000Y-100400000D01*
X139000000Y-97600000D02*
X139000000Y-100400000D01*
X141000000Y-97600000D02*
X141000000Y-100400000D01*
%TO.C,L22*%
X138400000Y-78600000D02*
X141600000Y-78600000D01*
X138400000Y-81400000D02*
X141600000Y-81400000D01*
X138400000Y-78600000D02*
X138400000Y-81400000D01*
X141600000Y-78600000D02*
X141600000Y-81400000D01*
X138400000Y-78950000D02*
X137060000Y-78950000D01*
X137060000Y-78950000D02*
X137060000Y-79630000D01*
X137060000Y-79630000D02*
X138400000Y-79630000D01*
X138400000Y-80350000D02*
X137060000Y-80350000D01*
X137060000Y-81030000D02*
X138400000Y-81030000D01*
X137060000Y-80350000D02*
X137060000Y-81030000D01*
X141600000Y-81030000D02*
X142940000Y-81030000D01*
X142940000Y-80350000D02*
X141600000Y-80350000D01*
X142940000Y-81030000D02*
X142940000Y-80350000D01*
X141600000Y-79630000D02*
X142940000Y-79630000D01*
X142940000Y-78950000D02*
X141600000Y-78950000D01*
X142940000Y-79630000D02*
X142940000Y-78950000D01*
X139200000Y-78600000D02*
X139200000Y-81400000D01*
X140800000Y-78600000D02*
X140800000Y-81400000D01*
X139000000Y-78600000D02*
X139000000Y-81400000D01*
X141000000Y-78600000D02*
X141000000Y-81400000D01*
X139200000Y-78600000D02*
X139200000Y-81400000D01*
X140800000Y-78600000D02*
X140800000Y-81400000D01*
X139000000Y-78600000D02*
X139000000Y-81400000D01*
X141000000Y-78600000D02*
X141000000Y-81400000D01*
%TO.C,L23*%
X138400000Y-59600000D02*
X141600000Y-59600000D01*
X138400000Y-62400000D02*
X141600000Y-62400000D01*
X138400000Y-59600000D02*
X138400000Y-62400000D01*
X141600000Y-59600000D02*
X141600000Y-62400000D01*
X138400000Y-59950000D02*
X137060000Y-59950000D01*
X137060000Y-59950000D02*
X137060000Y-60630000D01*
X137060000Y-60630000D02*
X138400000Y-60630000D01*
X138400000Y-61350000D02*
X137060000Y-61350000D01*
X137060000Y-62030000D02*
X138400000Y-62030000D01*
X137060000Y-61350000D02*
X137060000Y-62030000D01*
X141600000Y-62030000D02*
X142940000Y-62030000D01*
X142940000Y-61350000D02*
X141600000Y-61350000D01*
X142940000Y-62030000D02*
X142940000Y-61350000D01*
X141600000Y-60630000D02*
X142940000Y-60630000D01*
X142940000Y-59950000D02*
X141600000Y-59950000D01*
X142940000Y-60630000D02*
X142940000Y-59950000D01*
X139200000Y-59600000D02*
X139200000Y-62400000D01*
X140800000Y-59600000D02*
X140800000Y-62400000D01*
X139000000Y-59600000D02*
X139000000Y-62400000D01*
X141000000Y-59600000D02*
X141000000Y-62400000D01*
X139200000Y-59600000D02*
X139200000Y-62400000D01*
X140800000Y-59600000D02*
X140800000Y-62400000D01*
X139000000Y-59600000D02*
X139000000Y-62400000D01*
X141000000Y-59600000D02*
X141000000Y-62400000D01*
%TO.C,L24*%
X138400000Y-40600000D02*
X141600000Y-40600000D01*
X138400000Y-43400000D02*
X141600000Y-43400000D01*
X138400000Y-40600000D02*
X138400000Y-43400000D01*
X141600000Y-40600000D02*
X141600000Y-43400000D01*
X138400000Y-40950000D02*
X137060000Y-40950000D01*
X137060000Y-40950000D02*
X137060000Y-41630000D01*
X137060000Y-41630000D02*
X138400000Y-41630000D01*
X138400000Y-42350000D02*
X137060000Y-42350000D01*
X137060000Y-43030000D02*
X138400000Y-43030000D01*
X137060000Y-42350000D02*
X137060000Y-43030000D01*
X141600000Y-43030000D02*
X142940000Y-43030000D01*
X142940000Y-42350000D02*
X141600000Y-42350000D01*
X142940000Y-43030000D02*
X142940000Y-42350000D01*
X141600000Y-41630000D02*
X142940000Y-41630000D01*
X142940000Y-40950000D02*
X141600000Y-40950000D01*
X142940000Y-41630000D02*
X142940000Y-40950000D01*
X139200000Y-40600000D02*
X139200000Y-43400000D01*
X140800000Y-40600000D02*
X140800000Y-43400000D01*
X139000000Y-40600000D02*
X139000000Y-43400000D01*
X141000000Y-40600000D02*
X141000000Y-43400000D01*
X139200000Y-40600000D02*
X139200000Y-43400000D01*
X140800000Y-40600000D02*
X140800000Y-43400000D01*
X139000000Y-40600000D02*
X139000000Y-43400000D01*
X141000000Y-40600000D02*
X141000000Y-43400000D01*
%TO.C,L25*%
X78400000Y-113600000D02*
X81600000Y-113600000D01*
X78400000Y-116400000D02*
X81600000Y-116400000D01*
X78400000Y-113600000D02*
X78400000Y-116400000D01*
X81600000Y-113600000D02*
X81600000Y-116400000D01*
X78400000Y-113950000D02*
X77060000Y-113950000D01*
X77060000Y-113950000D02*
X77060000Y-114630000D01*
X77060000Y-114630000D02*
X78400000Y-114630000D01*
X78400000Y-115350000D02*
X77060000Y-115350000D01*
X77060000Y-116030000D02*
X78400000Y-116030000D01*
X77060000Y-115350000D02*
X77060000Y-116030000D01*
X81600000Y-116030000D02*
X82940000Y-116030000D01*
X82940000Y-115350000D02*
X81600000Y-115350000D01*
X82940000Y-116030000D02*
X82940000Y-115350000D01*
X81600000Y-114630000D02*
X82940000Y-114630000D01*
X82940000Y-113950000D02*
X81600000Y-113950000D01*
X82940000Y-114630000D02*
X82940000Y-113950000D01*
X79200000Y-113600000D02*
X79200000Y-116400000D01*
X80800000Y-113600000D02*
X80800000Y-116400000D01*
X79000000Y-113600000D02*
X79000000Y-116400000D01*
X81000000Y-113600000D02*
X81000000Y-116400000D01*
X79200000Y-113600000D02*
X79200000Y-116400000D01*
X80800000Y-113600000D02*
X80800000Y-116400000D01*
X79000000Y-113600000D02*
X79000000Y-116400000D01*
X81000000Y-113600000D02*
X81000000Y-116400000D01*
%TO.C,L26*%
X98400000Y-113600000D02*
X101600000Y-113600000D01*
X98400000Y-116400000D02*
X101600000Y-116400000D01*
X98400000Y-113600000D02*
X98400000Y-116400000D01*
X101600000Y-113600000D02*
X101600000Y-116400000D01*
X98400000Y-113950000D02*
X97060000Y-113950000D01*
X97060000Y-113950000D02*
X97060000Y-114630000D01*
X97060000Y-114630000D02*
X98400000Y-114630000D01*
X98400000Y-115350000D02*
X97060000Y-115350000D01*
X97060000Y-116030000D02*
X98400000Y-116030000D01*
X97060000Y-115350000D02*
X97060000Y-116030000D01*
X101600000Y-116030000D02*
X102940000Y-116030000D01*
X102940000Y-115350000D02*
X101600000Y-115350000D01*
X102940000Y-116030000D02*
X102940000Y-115350000D01*
X101600000Y-114630000D02*
X102940000Y-114630000D01*
X102940000Y-113950000D02*
X101600000Y-113950000D01*
X102940000Y-114630000D02*
X102940000Y-113950000D01*
X99200000Y-113600000D02*
X99200000Y-116400000D01*
X100800000Y-113600000D02*
X100800000Y-116400000D01*
X99000000Y-113600000D02*
X99000000Y-116400000D01*
X101000000Y-113600000D02*
X101000000Y-116400000D01*
X99200000Y-113600000D02*
X99200000Y-116400000D01*
X100800000Y-113600000D02*
X100800000Y-116400000D01*
X99000000Y-113600000D02*
X99000000Y-116400000D01*
X101000000Y-113600000D02*
X101000000Y-116400000D01*
%TO.C,L27*%
X118963907Y-114484878D02*
X122151730Y-114763777D01*
X118719870Y-117274223D02*
X121907693Y-117553122D01*
X118963907Y-114484878D02*
X118719870Y-117274223D01*
X122151730Y-114763777D02*
X121907693Y-117553122D01*
X118933402Y-114833546D02*
X117598501Y-114716758D01*
X117598501Y-114716758D02*
X117539235Y-115394170D01*
X117539235Y-115394170D02*
X118874136Y-115510959D01*
X118811384Y-116228219D02*
X117476483Y-116111430D01*
X117417217Y-116788843D02*
X118752118Y-116905631D01*
X117476483Y-116111430D02*
X117417217Y-116788843D01*
X121939941Y-117184530D02*
X123274842Y-117301318D01*
X123334108Y-116623906D02*
X121999207Y-116507117D01*
X123274842Y-117301318D02*
X123334108Y-116623906D01*
X122061959Y-115789857D02*
X123396860Y-115906646D01*
X123456126Y-115229233D02*
X122121225Y-115112445D01*
X123396860Y-115906646D02*
X123456126Y-115229233D01*
X119760862Y-114554603D02*
X119516826Y-117343948D01*
X121354774Y-114694052D02*
X121110738Y-117483397D01*
X119561623Y-114537172D02*
X119317587Y-117326517D01*
X121554013Y-114711483D02*
X121309977Y-117500828D01*
X119760862Y-114554603D02*
X119516826Y-117343948D01*
X121354774Y-114694052D02*
X121110738Y-117483397D01*
X119561623Y-114537172D02*
X119317587Y-117326517D01*
X121554013Y-114711483D02*
X121309977Y-117500828D01*
%TO.C,L28*%
X141525820Y-118925198D02*
X144532836Y-120019663D01*
X140568164Y-121556337D02*
X143575180Y-122650802D01*
X141525820Y-118925198D02*
X140568164Y-121556337D01*
X144532836Y-120019663D02*
X143575180Y-122650802D01*
X141406113Y-119254091D02*
X140146925Y-118795784D01*
X140146925Y-118795784D02*
X139914351Y-119434775D01*
X139914351Y-119434775D02*
X141173539Y-119893082D01*
X140927285Y-120569660D02*
X139668097Y-120111353D01*
X139435523Y-120750344D02*
X140694711Y-121208651D01*
X139668097Y-120111353D02*
X139435523Y-120750344D01*
X143701727Y-122303116D02*
X144960916Y-122761423D01*
X145193489Y-122122432D02*
X143934301Y-121664125D01*
X144960916Y-122761423D02*
X145193489Y-122122432D01*
X144180556Y-120987546D02*
X145439744Y-121445853D01*
X145672317Y-120806862D02*
X144413129Y-120348555D01*
X145439744Y-121445853D02*
X145672317Y-120806862D01*
X142277574Y-119198814D02*
X141319918Y-121829954D01*
X143781082Y-119746046D02*
X142823426Y-122377186D01*
X142089636Y-119130410D02*
X141131979Y-121761550D01*
X143969021Y-119814450D02*
X143011364Y-122445590D01*
X142277574Y-119198814D02*
X141319918Y-121829954D01*
X143781082Y-119746046D02*
X142823426Y-122377186D01*
X142089636Y-119130410D02*
X141131979Y-121761550D01*
X143969021Y-119814450D02*
X143011364Y-122445590D01*
%TO.C,L29*%
X161937532Y-130068278D02*
X164388874Y-132125198D01*
X160137726Y-132213202D02*
X162589068Y-134270122D01*
X161937532Y-130068278D02*
X160137726Y-132213202D01*
X164388874Y-132125198D02*
X162589068Y-134270122D01*
X161712556Y-130336393D02*
X160686056Y-129475058D01*
X160686056Y-129475058D02*
X160248961Y-129995968D01*
X160248961Y-129995968D02*
X161275460Y-130857303D01*
X160812653Y-131408855D02*
X159786154Y-130547520D01*
X159349058Y-131068430D02*
X160375558Y-131929766D01*
X159786154Y-130547520D02*
X159349058Y-131068430D01*
X162826900Y-133986686D02*
X163853399Y-134848021D01*
X164290495Y-134327111D02*
X163263995Y-133465776D01*
X163853399Y-134848021D02*
X164290495Y-134327111D01*
X163726803Y-132914224D02*
X164753302Y-133775559D01*
X165190398Y-133254649D02*
X164163898Y-132393314D01*
X164753302Y-133775559D02*
X165190398Y-133254649D01*
X162550367Y-130582508D02*
X160750562Y-132727432D01*
X163776038Y-131610968D02*
X161976233Y-133755892D01*
X162397158Y-130453950D02*
X160597353Y-132598875D01*
X163929247Y-131739525D02*
X162129442Y-133884450D01*
X162550367Y-130582508D02*
X160750562Y-132727432D01*
X163776038Y-131610968D02*
X161976233Y-133755892D01*
X162397158Y-130453950D02*
X160597353Y-132598875D01*
X163929247Y-131739525D02*
X162129442Y-133884450D01*
D10*
%TO.C,TRRS1*%
X176000000Y-77500000D02*
X176000000Y-71900000D01*
X174000000Y-71900000D02*
X176000000Y-71900000D01*
X174000000Y-77500000D02*
X176000000Y-77500000D01*
X174000000Y-71650000D02*
X161900000Y-71650000D01*
X174000000Y-77750000D02*
X161900000Y-77750000D01*
X161900000Y-77750000D02*
X161900000Y-71650000D01*
X174000000Y-77750000D02*
X174000000Y-71650000D01*
D12*
%TO.C,RST1*%
X173850000Y-93650000D02*
X170350000Y-93650000D01*
X173850000Y-93650000D02*
X173850000Y-98350000D01*
X170350000Y-93650000D02*
X170350000Y-98350000D01*
X174850000Y-94700000D02*
X173850000Y-94700000D01*
X174850000Y-94700000D02*
X174850000Y-97300000D01*
X174850000Y-97300000D02*
X173850000Y-97300000D01*
X173850000Y-98350000D02*
X170350000Y-98350000D01*
%TD*%
M02*
