%TF.GenerationSoftware,KiCad,Pcbnew,8.0.4*%
%TF.CreationDate,2024-08-10T13:49:16-06:00*%
%TF.ProjectId,spacer_plate,73706163-6572-45f7-906c-6174652e6b69,0.1*%
%TF.SameCoordinates,Original*%
%TF.FileFunction,Drillmap*%
%TF.FilePolarity,Positive*%
%FSLAX45Y45*%
G04 Gerber Fmt 4.5, Leading zero omitted, Abs format (unit mm)*
G04 Created by KiCad (PCBNEW 8.0.4) date 2024-08-10 13:49:16*
%MOMM*%
%LPD*%
G01*
G04 APERTURE LIST*
%ADD10C,0.150000*%
%ADD11C,0.200000*%
G04 APERTURE END LIST*
D10*
X2900000Y-13200000D02*
X10800236Y-13200000D01*
X2800000Y-13100000D02*
X2800000Y-5400000D01*
X2900000Y-5300000D02*
X4900000Y-5300000D01*
X5100000Y-4100000D02*
X6900000Y-4100000D01*
X5000000Y-5200000D02*
X5000000Y-4200000D01*
X7100000Y-2900000D02*
X8900000Y-2900000D01*
X7000000Y-4000000D02*
X7000000Y-3000000D01*
X9100000Y-2500000D02*
X10900000Y-2500000D01*
X11000000Y-2600000D02*
X11000000Y-2800000D01*
X9000000Y-2800000D02*
X9000000Y-2600000D01*
X11100000Y-2900000D02*
X12900000Y-2900000D01*
X13000000Y-3000000D02*
X13000000Y-3400000D01*
X13100000Y-3500000D02*
X15300000Y-3500000D01*
X10808951Y-13200380D02*
X12845705Y-13378573D01*
X12871191Y-13384224D02*
X14461346Y-13962992D01*
X15984237Y-12100000D02*
X17518926Y-13387757D01*
X16117119Y-15213938D02*
X17531251Y-13528640D01*
X14491423Y-13980357D02*
X15976235Y-15226263D01*
X2900000Y-13200000D02*
G75*
G02*
X2800000Y-13100000I0J100000D01*
G01*
X2800000Y-5400000D02*
G75*
G02*
X2900000Y-5300000I100000J0D01*
G01*
X5000000Y-5200000D02*
G75*
G02*
X4900000Y-5300000I-100000J0D01*
G01*
X5000000Y-4200000D02*
G75*
G02*
X5100000Y-4100000I100000J0D01*
G01*
X7000000Y-4000000D02*
G75*
G02*
X6900000Y-4100000I-100000J0D01*
G01*
X7000000Y-3000000D02*
G75*
G02*
X7100000Y-2900000I100000J0D01*
G01*
X9000000Y-2800000D02*
G75*
G02*
X8900000Y-2900000I-100000J0D01*
G01*
X9000000Y-2600000D02*
G75*
G02*
X9100000Y-2500000I100000J0D01*
G01*
X10900000Y-2500000D02*
G75*
G02*
X11000000Y-2600000I0J-100000D01*
G01*
X11100000Y-2900000D02*
G75*
G02*
X11000000Y-2800000I0J100000D01*
G01*
X12900000Y-2900000D02*
G75*
G02*
X13000000Y-3000000I0J-100000D01*
G01*
X13100000Y-3500000D02*
G75*
G02*
X13000000Y-3400000I0J100000D01*
G01*
X17518926Y-13387757D02*
G75*
G02*
X17531251Y-13528639I-64276J-76603D01*
G01*
X16117119Y-15213938D02*
G75*
G02*
X15976232Y-15226268I-76609J64278D01*
G01*
X14461346Y-13962992D02*
G75*
G02*
X14491422Y-13980358I-34206J-93968D01*
G01*
X12845705Y-13378573D02*
G75*
G02*
X12871191Y-13384223I-8715J-99627D01*
G01*
X10800236Y-13200000D02*
G75*
G02*
X10808951Y-13200381I-6J-100040D01*
G01*
X5160000Y-12000000D02*
G75*
G02*
X4840000Y-12000000I-160000J0D01*
G01*
X4840000Y-12000000D02*
G75*
G02*
X5160000Y-12000000I160000J0D01*
G01*
X5160000Y-6300000D02*
G75*
G02*
X4840000Y-6300000I-160000J0D01*
G01*
X4840000Y-6300000D02*
G75*
G02*
X5160000Y-6300000I160000J0D01*
G01*
X9160000Y-10900000D02*
G75*
G02*
X8840000Y-10900000I-160000J0D01*
G01*
X8840000Y-10900000D02*
G75*
G02*
X9160000Y-10900000I160000J0D01*
G01*
X9160000Y-5000000D02*
G75*
G02*
X8840000Y-5000000I-160000J0D01*
G01*
X8840000Y-5000000D02*
G75*
G02*
X9160000Y-5000000I160000J0D01*
G01*
X14808200Y-11583393D02*
G75*
G02*
X14488200Y-11583393I-160000J0D01*
G01*
X14488200Y-11583393D02*
G75*
G02*
X14808200Y-11583393I160000J0D01*
G01*
X15160000Y-5600000D02*
G75*
G02*
X14840000Y-5600000I-160000J0D01*
G01*
X14840000Y-5600000D02*
G75*
G02*
X15160000Y-5600000I160000J0D01*
G01*
X15300000Y-12100000D02*
X15984237Y-12100000D01*
X15300000Y-3500000D02*
X15300000Y-12100000D01*
X3275000Y-12725000D02*
X4725000Y-12725000D01*
X4725000Y-12725000D02*
X4725000Y-11275000D01*
X4725000Y-11275000D02*
X3275000Y-11275000D01*
X3275000Y-11275000D02*
X3275000Y-12725000D01*
X3275000Y-10825000D02*
X4725000Y-10825000D01*
X4725000Y-10825000D02*
X4725000Y-9375000D01*
X4725000Y-9375000D02*
X3275000Y-9375000D01*
X3275000Y-9375000D02*
X3275000Y-10825000D01*
X3275000Y-8925000D02*
X4725000Y-8925000D01*
X4725000Y-8925000D02*
X4725000Y-7475000D01*
X4725000Y-7475000D02*
X3275000Y-7475000D01*
X3275000Y-7475000D02*
X3275000Y-8925000D01*
X3275000Y-7025000D02*
X4725000Y-7025000D01*
X4725000Y-7025000D02*
X4725000Y-5575000D01*
X4725000Y-5575000D02*
X3275000Y-5575000D01*
X3275000Y-5575000D02*
X3275000Y-7025000D01*
X5275000Y-11725000D02*
X6725000Y-11725000D01*
X6725000Y-11725000D02*
X6725000Y-10275000D01*
X6725000Y-10275000D02*
X5275000Y-10275000D01*
X5275000Y-10275000D02*
X5275000Y-11725000D01*
X5275000Y-9825000D02*
X6725000Y-9825000D01*
X6725000Y-9825000D02*
X6725000Y-8375000D01*
X6725000Y-8375000D02*
X5275000Y-8375000D01*
X5275000Y-8375000D02*
X5275000Y-9825000D01*
X5275000Y-7925000D02*
X6725000Y-7925000D01*
X6725000Y-7925000D02*
X6725000Y-6475000D01*
X6725000Y-6475000D02*
X5275000Y-6475000D01*
X5275000Y-6475000D02*
X5275000Y-7925000D01*
X5275000Y-6025000D02*
X6725000Y-6025000D01*
X6725000Y-6025000D02*
X6725000Y-4575000D01*
X6725000Y-4575000D02*
X5275000Y-4575000D01*
X5275000Y-4575000D02*
X5275000Y-6025000D01*
X7275000Y-10525000D02*
X8725000Y-10525000D01*
X8725000Y-10525000D02*
X8725000Y-9075000D01*
X8725000Y-9075000D02*
X7275000Y-9075000D01*
X7275000Y-9075000D02*
X7275000Y-10525000D01*
X7275000Y-8625000D02*
X8725000Y-8625000D01*
X8725000Y-8625000D02*
X8725000Y-7175000D01*
X8725000Y-7175000D02*
X7275000Y-7175000D01*
X7275000Y-7175000D02*
X7275000Y-8625000D01*
X7275000Y-6725000D02*
X8725000Y-6725000D01*
X8725000Y-6725000D02*
X8725000Y-5275000D01*
X8725000Y-5275000D02*
X7275000Y-5275000D01*
X7275000Y-5275000D02*
X7275000Y-6725000D01*
X7275000Y-4825000D02*
X8725000Y-4825000D01*
X8725000Y-4825000D02*
X8725000Y-3375000D01*
X8725000Y-3375000D02*
X7275000Y-3375000D01*
X7275000Y-3375000D02*
X7275000Y-4825000D01*
X9275000Y-10125000D02*
X10725000Y-10125000D01*
X10725000Y-10125000D02*
X10725000Y-8675000D01*
X10725000Y-8675000D02*
X9275000Y-8675000D01*
X9275000Y-8675000D02*
X9275000Y-10125000D01*
X9275000Y-8225000D02*
X10725000Y-8225000D01*
X10725000Y-8225000D02*
X10725000Y-6775000D01*
X10725000Y-6775000D02*
X9275000Y-6775000D01*
X9275000Y-6775000D02*
X9275000Y-8225000D01*
X9275000Y-6325000D02*
X10725000Y-6325000D01*
X10725000Y-6325000D02*
X10725000Y-4875000D01*
X10725000Y-4875000D02*
X9275000Y-4875000D01*
X9275000Y-4875000D02*
X9275000Y-6325000D01*
X9275000Y-4425000D02*
X10725000Y-4425000D01*
X10725000Y-4425000D02*
X10725000Y-2975000D01*
X10725000Y-2975000D02*
X9275000Y-2975000D01*
X9275000Y-2975000D02*
X9275000Y-4425000D01*
X11275000Y-10525000D02*
X12725000Y-10525000D01*
X12725000Y-10525000D02*
X12725000Y-9075000D01*
X12725000Y-9075000D02*
X11275000Y-9075000D01*
X11275000Y-9075000D02*
X11275000Y-10525000D01*
X11275000Y-8625000D02*
X12725000Y-8625000D01*
X12725000Y-8625000D02*
X12725000Y-7175000D01*
X12725000Y-7175000D02*
X11275000Y-7175000D01*
X11275000Y-7175000D02*
X11275000Y-8625000D01*
X11275000Y-6725000D02*
X12725000Y-6725000D01*
X12725000Y-6725000D02*
X12725000Y-5275000D01*
X12725000Y-5275000D02*
X11275000Y-5275000D01*
X11275000Y-5275000D02*
X11275000Y-6725000D01*
X11275000Y-4825000D02*
X12725000Y-4825000D01*
X12725000Y-4825000D02*
X12725000Y-3375000D01*
X12725000Y-3375000D02*
X11275000Y-3375000D01*
X11275000Y-3375000D02*
X11275000Y-4825000D01*
X13275000Y-11125000D02*
X14725000Y-11125000D01*
X14725000Y-11125000D02*
X14725000Y-9675000D01*
X14725000Y-9675000D02*
X13275000Y-9675000D01*
X13275000Y-9675000D02*
X13275000Y-11125000D01*
X13275000Y-9225000D02*
X14725000Y-9225000D01*
X14725000Y-9225000D02*
X14725000Y-7775000D01*
X14725000Y-7775000D02*
X13275000Y-7775000D01*
X13275000Y-7775000D02*
X13275000Y-9225000D01*
X13275000Y-7325000D02*
X14725000Y-7325000D01*
X14725000Y-7325000D02*
X14725000Y-5875000D01*
X14725000Y-5875000D02*
X13275000Y-5875000D01*
X13275000Y-5875000D02*
X13275000Y-7325000D01*
X13275000Y-5425000D02*
X14725000Y-5425000D01*
X14725000Y-5425000D02*
X14725000Y-3975000D01*
X14725000Y-3975000D02*
X13275000Y-3975000D01*
X13275000Y-3975000D02*
X13275000Y-5425000D01*
X7275000Y-12725000D02*
X8725000Y-12725000D01*
X8725000Y-12725000D02*
X8725000Y-11275000D01*
X8725000Y-11275000D02*
X7275000Y-11275000D01*
X7275000Y-11275000D02*
X7275000Y-12725000D01*
X9275000Y-12725000D02*
X10725000Y-12725000D01*
X10725000Y-12725000D02*
X10725000Y-11275000D01*
X10725000Y-11275000D02*
X9275000Y-11275000D01*
X9275000Y-11275000D02*
X9275000Y-12725000D01*
X11214571Y-12759053D02*
X12659053Y-12885429D01*
X12659053Y-12885429D02*
X12785429Y-11440947D01*
X12785429Y-11440947D02*
X11340947Y-11314571D01*
X11340947Y-11314571D02*
X11214571Y-12759053D01*
X13154797Y-12981963D02*
X14517352Y-13477893D01*
X14517352Y-13477893D02*
X15013281Y-12115338D01*
X15013281Y-12115338D02*
X13650727Y-11619409D01*
X13650727Y-11619409D02*
X13154797Y-12981963D01*
X14883528Y-13689305D02*
X15994293Y-14621347D01*
X15994293Y-14621347D02*
X16926335Y-13510582D01*
X16926335Y-13510582D02*
X15815570Y-12578540D01*
X15815570Y-12578540D02*
X14883528Y-13689305D01*
D11*
X3053277Y-15568646D02*
X3053277Y-15368646D01*
X3053277Y-15368646D02*
X3100896Y-15368646D01*
X3100896Y-15368646D02*
X3129467Y-15378170D01*
X3129467Y-15378170D02*
X3148515Y-15397218D01*
X3148515Y-15397218D02*
X3158039Y-15416265D01*
X3158039Y-15416265D02*
X3167562Y-15454360D01*
X3167562Y-15454360D02*
X3167562Y-15482932D01*
X3167562Y-15482932D02*
X3158039Y-15521027D01*
X3158039Y-15521027D02*
X3148515Y-15540075D01*
X3148515Y-15540075D02*
X3129467Y-15559122D01*
X3129467Y-15559122D02*
X3100896Y-15568646D01*
X3100896Y-15568646D02*
X3053277Y-15568646D01*
X3253277Y-15568646D02*
X3253277Y-15435313D01*
X3253277Y-15473408D02*
X3262801Y-15454360D01*
X3262801Y-15454360D02*
X3272324Y-15444837D01*
X3272324Y-15444837D02*
X3291372Y-15435313D01*
X3291372Y-15435313D02*
X3310420Y-15435313D01*
X3377086Y-15568646D02*
X3377086Y-15435313D01*
X3377086Y-15368646D02*
X3367562Y-15378170D01*
X3367562Y-15378170D02*
X3377086Y-15387694D01*
X3377086Y-15387694D02*
X3386610Y-15378170D01*
X3386610Y-15378170D02*
X3377086Y-15368646D01*
X3377086Y-15368646D02*
X3377086Y-15387694D01*
X3500896Y-15568646D02*
X3481848Y-15559122D01*
X3481848Y-15559122D02*
X3472324Y-15540075D01*
X3472324Y-15540075D02*
X3472324Y-15368646D01*
X3605658Y-15568646D02*
X3586610Y-15559122D01*
X3586610Y-15559122D02*
X3577086Y-15540075D01*
X3577086Y-15540075D02*
X3577086Y-15368646D01*
X3834229Y-15568646D02*
X3834229Y-15368646D01*
X3834229Y-15368646D02*
X3900896Y-15511503D01*
X3900896Y-15511503D02*
X3967562Y-15368646D01*
X3967562Y-15368646D02*
X3967562Y-15568646D01*
X4148515Y-15568646D02*
X4148515Y-15463884D01*
X4148515Y-15463884D02*
X4138991Y-15444837D01*
X4138991Y-15444837D02*
X4119943Y-15435313D01*
X4119943Y-15435313D02*
X4081848Y-15435313D01*
X4081848Y-15435313D02*
X4062801Y-15444837D01*
X4148515Y-15559122D02*
X4129467Y-15568646D01*
X4129467Y-15568646D02*
X4081848Y-15568646D01*
X4081848Y-15568646D02*
X4062801Y-15559122D01*
X4062801Y-15559122D02*
X4053277Y-15540075D01*
X4053277Y-15540075D02*
X4053277Y-15521027D01*
X4053277Y-15521027D02*
X4062801Y-15501979D01*
X4062801Y-15501979D02*
X4081848Y-15492456D01*
X4081848Y-15492456D02*
X4129467Y-15492456D01*
X4129467Y-15492456D02*
X4148515Y-15482932D01*
X4243753Y-15435313D02*
X4243753Y-15635313D01*
X4243753Y-15444837D02*
X4262801Y-15435313D01*
X4262801Y-15435313D02*
X4300896Y-15435313D01*
X4300896Y-15435313D02*
X4319944Y-15444837D01*
X4319944Y-15444837D02*
X4329467Y-15454360D01*
X4329467Y-15454360D02*
X4338991Y-15473408D01*
X4338991Y-15473408D02*
X4338991Y-15530551D01*
X4338991Y-15530551D02*
X4329467Y-15549598D01*
X4329467Y-15549598D02*
X4319944Y-15559122D01*
X4319944Y-15559122D02*
X4300896Y-15568646D01*
X4300896Y-15568646D02*
X4262801Y-15568646D01*
X4262801Y-15568646D02*
X4243753Y-15559122D01*
X4424705Y-15549598D02*
X4434229Y-15559122D01*
X4434229Y-15559122D02*
X4424705Y-15568646D01*
X4424705Y-15568646D02*
X4415182Y-15559122D01*
X4415182Y-15559122D02*
X4424705Y-15549598D01*
X4424705Y-15549598D02*
X4424705Y-15568646D01*
X4424705Y-15444837D02*
X4434229Y-15454360D01*
X4434229Y-15454360D02*
X4424705Y-15463884D01*
X4424705Y-15463884D02*
X4415182Y-15454360D01*
X4415182Y-15454360D02*
X4424705Y-15444837D01*
X4424705Y-15444837D02*
X4424705Y-15463884D01*
M02*
