%TF.GenerationSoftware,KiCad,Pcbnew,8.0.4*%
%TF.CreationDate,2024-08-10T13:54:46-06:00*%
%TF.ProjectId,staggered_col58,73746167-6765-4726-9564-5f636f6c3538,0.1*%
%TF.SameCoordinates,Original*%
%TF.FileFunction,Drillmap*%
%TF.FilePolarity,Positive*%
%FSLAX45Y45*%
G04 Gerber Fmt 4.5, Leading zero omitted, Abs format (unit mm)*
G04 Created by KiCad (PCBNEW 8.0.4) date 2024-08-10 13:54:46*
%MOMM*%
%LPD*%
G01*
G04 APERTURE LIST*
%ADD10C,0.150000*%
%ADD11C,0.120000*%
%ADD12C,0.200000*%
%ADD13C,0.100000*%
%ADD14C,0.190000*%
%ADD15C,0.300000*%
%ADD16C,0.320000*%
%ADD17C,0.500000*%
G04 APERTURE END LIST*
D10*
X2900000Y-13200000D02*
X10800236Y-13200000D01*
X2800000Y-13100000D02*
X2800000Y-5400000D01*
X2900000Y-5300000D02*
X4900000Y-5300000D01*
X5100000Y-4100000D02*
X6900000Y-4100000D01*
X5000000Y-5200000D02*
X5000000Y-4200000D01*
X7100000Y-2900000D02*
X8900000Y-2900000D01*
X7000000Y-4000000D02*
X7000000Y-3000000D01*
X9100000Y-2500000D02*
X10900000Y-2500000D01*
X11000000Y-2600000D02*
X11000000Y-2800000D01*
X9000000Y-2800000D02*
X9000000Y-2600000D01*
X11100000Y-2900000D02*
X12900000Y-2900000D01*
X13000000Y-3000000D02*
X13000000Y-3400000D01*
X15800000Y-11400000D02*
X15800000Y-11898776D01*
X17400000Y-11200000D02*
X17400000Y-3600000D01*
X17300000Y-11300000D02*
X15900000Y-11300000D01*
X13100000Y-3500000D02*
X17300000Y-3500000D01*
X10808951Y-13200380D02*
X12845705Y-13378573D01*
X12871191Y-13384224D02*
X14461346Y-13962992D01*
X15835721Y-11975380D02*
X17518926Y-13387757D01*
X16117119Y-15213938D02*
X17531251Y-13528640D01*
X14491423Y-13980357D02*
X15976235Y-15226263D01*
X2900000Y-13200000D02*
G75*
G02*
X2800000Y-13100000I0J100000D01*
G01*
X2800000Y-5400000D02*
G75*
G02*
X2900000Y-5300000I100000J0D01*
G01*
X5000000Y-5200000D02*
G75*
G02*
X4900000Y-5300000I-100000J0D01*
G01*
X5000000Y-4200000D02*
G75*
G02*
X5100000Y-4100000I100000J0D01*
G01*
X7000000Y-4000000D02*
G75*
G02*
X6900000Y-4100000I-100000J0D01*
G01*
X7000000Y-3000000D02*
G75*
G02*
X7100000Y-2900000I100000J0D01*
G01*
X9000000Y-2800000D02*
G75*
G02*
X8900000Y-2900000I-100000J0D01*
G01*
X9000000Y-2600000D02*
G75*
G02*
X9100000Y-2500000I100000J0D01*
G01*
X10900000Y-2500000D02*
G75*
G02*
X11000000Y-2600000I0J-100000D01*
G01*
X11100000Y-2900000D02*
G75*
G02*
X11000000Y-2800000I0J100000D01*
G01*
X12900000Y-2900000D02*
G75*
G02*
X13000000Y-3000000I0J-100000D01*
G01*
X13100000Y-3500000D02*
G75*
G02*
X13000000Y-3400000I0J100000D01*
G01*
X17300000Y-3500000D02*
G75*
G02*
X17400000Y-3600000I0J-100000D01*
G01*
X17400000Y-11200000D02*
G75*
G02*
X17300000Y-11300000I-100000J0D01*
G01*
X15800000Y-11400000D02*
G75*
G02*
X15900000Y-11300000I100000J0D01*
G01*
X15835721Y-11975380D02*
G75*
G02*
X15800003Y-11898776I64279J76600D01*
G01*
X17518926Y-13387757D02*
G75*
G02*
X17531251Y-13528639I-64276J-76603D01*
G01*
X16117119Y-15213938D02*
G75*
G02*
X15976232Y-15226268I-76609J64278D01*
G01*
X14461346Y-13962992D02*
G75*
G02*
X14491422Y-13980358I-34206J-93968D01*
G01*
X12845705Y-13378573D02*
G75*
G02*
X12871191Y-13384223I-8715J-99627D01*
G01*
X10800236Y-13200000D02*
G75*
G02*
X10808951Y-13200381I-6J-100040D01*
G01*
D11*
X3820000Y-11345000D02*
X4180000Y-11345000D01*
X4180000Y-11655000D01*
X3820000Y-11655000D01*
X3820000Y-11345000D01*
X3820000Y-9445000D02*
X4180000Y-9445000D01*
X4180000Y-9755000D01*
X3820000Y-9755000D01*
X3820000Y-9445000D01*
X3820000Y-7545000D02*
X4180000Y-7545000D01*
X4180000Y-7855000D01*
X3820000Y-7855000D01*
X3820000Y-7545000D01*
X3820000Y-5645000D02*
X4180000Y-5645000D01*
X4180000Y-5955000D01*
X3820000Y-5955000D01*
X3820000Y-5645000D01*
X5820000Y-10345000D02*
X6180000Y-10345000D01*
X6180000Y-10655000D01*
X5820000Y-10655000D01*
X5820000Y-10345000D01*
X5820000Y-8445000D02*
X6180000Y-8445000D01*
X6180000Y-8755000D01*
X5820000Y-8755000D01*
X5820000Y-8445000D01*
X5820000Y-6545000D02*
X6180000Y-6545000D01*
X6180000Y-6855000D01*
X5820000Y-6855000D01*
X5820000Y-6545000D01*
X5820000Y-4645000D02*
X6180000Y-4645000D01*
X6180000Y-4955000D01*
X5820000Y-4955000D01*
X5820000Y-4645000D01*
X7820000Y-9145000D02*
X8180000Y-9145000D01*
X8180000Y-9455000D01*
X7820000Y-9455000D01*
X7820000Y-9145000D01*
X7820000Y-7245000D02*
X8180000Y-7245000D01*
X8180000Y-7555000D01*
X7820000Y-7555000D01*
X7820000Y-7245000D01*
X7820000Y-5345000D02*
X8180000Y-5345000D01*
X8180000Y-5655000D01*
X7820000Y-5655000D01*
X7820000Y-5345000D01*
X7820000Y-3445000D02*
X8180000Y-3445000D01*
X8180000Y-3755000D01*
X7820000Y-3755000D01*
X7820000Y-3445000D01*
X9820000Y-8745000D02*
X10180000Y-8745000D01*
X10180000Y-9055000D01*
X9820000Y-9055000D01*
X9820000Y-8745000D01*
X9820000Y-6845000D02*
X10180000Y-6845000D01*
X10180000Y-7155000D01*
X9820000Y-7155000D01*
X9820000Y-6845000D01*
X9820000Y-4945000D02*
X10180000Y-4945000D01*
X10180000Y-5255000D01*
X9820000Y-5255000D01*
X9820000Y-4945000D01*
X9820000Y-3045000D02*
X10180000Y-3045000D01*
X10180000Y-3355000D01*
X9820000Y-3355000D01*
X9820000Y-3045000D01*
X11820000Y-9145000D02*
X12180000Y-9145000D01*
X12180000Y-9455000D01*
X11820000Y-9455000D01*
X11820000Y-9145000D01*
X11820000Y-7245000D02*
X12180000Y-7245000D01*
X12180000Y-7555000D01*
X11820000Y-7555000D01*
X11820000Y-7245000D01*
X11820000Y-5345000D02*
X12180000Y-5345000D01*
X12180000Y-5655000D01*
X11820000Y-5655000D01*
X11820000Y-5345000D01*
X11820000Y-3445000D02*
X12180000Y-3445000D01*
X12180000Y-3755000D01*
X11820000Y-3755000D01*
X11820000Y-3445000D01*
X13820000Y-9745000D02*
X14180000Y-9745000D01*
X14180000Y-10055000D01*
X13820000Y-10055000D01*
X13820000Y-9745000D01*
X13820000Y-7845000D02*
X14180000Y-7845000D01*
X14180000Y-8155000D01*
X13820000Y-8155000D01*
X13820000Y-7845000D01*
X13820000Y-5945000D02*
X14180000Y-5945000D01*
X14180000Y-6255000D01*
X13820000Y-6255000D01*
X13820000Y-5945000D01*
X13820000Y-4045000D02*
X14180000Y-4045000D01*
X14180000Y-4355000D01*
X13820000Y-4355000D01*
X13820000Y-4045000D01*
X7820000Y-11345000D02*
X8180000Y-11345000D01*
X8180000Y-11655000D01*
X7820000Y-11655000D01*
X7820000Y-11345000D01*
X9820000Y-11345000D02*
X10180000Y-11345000D01*
X10180000Y-11655000D01*
X9820000Y-11655000D01*
X9820000Y-11345000D01*
X12236404Y-11463178D02*
X12209386Y-11771998D01*
X11850756Y-11740622D01*
X11877774Y-11431802D01*
X12236404Y-11463178D01*
X14477208Y-11994711D02*
X14371181Y-12286016D01*
X14032892Y-12162889D01*
X14138918Y-11871584D01*
X14477208Y-11994711D01*
X16463850Y-13213885D02*
X16264586Y-13451359D01*
X15988810Y-13219955D01*
X16188074Y-12982481D01*
X16463850Y-13213885D01*
D12*
D13*
X17197500Y-10405000D02*
X17287500Y-10495000D01*
X17287500Y-10405000D02*
X17197500Y-10495000D01*
X17197500Y-10705000D02*
X17287500Y-10795000D01*
X17287500Y-10705000D02*
X17197500Y-10795000D01*
D10*
X16615000Y-7470000D02*
G75*
G02*
X16465000Y-7470000I-75000J0D01*
G01*
X16465000Y-7470000D02*
G75*
G02*
X16615000Y-7470000I75000J0D01*
G01*
X16615000Y-7700000D02*
G75*
G02*
X16465000Y-7700000I-75000J0D01*
G01*
X16465000Y-7700000D02*
G75*
G02*
X16615000Y-7700000I75000J0D01*
G01*
X17315000Y-7470000D02*
G75*
G02*
X17165000Y-7470000I-75000J0D01*
G01*
X17165000Y-7470000D02*
G75*
G02*
X17315000Y-7470000I75000J0D01*
G01*
X17315000Y-7700000D02*
G75*
G02*
X17165000Y-7700000I-75000J0D01*
G01*
X17165000Y-7700000D02*
G75*
G02*
X17315000Y-7700000I75000J0D01*
G01*
D14*
X3450000Y-6205000D02*
X3450000Y-6395000D01*
X3355000Y-6300000D02*
X3545000Y-6300000D01*
X3450000Y-8105000D02*
X3450000Y-8295000D01*
X3355000Y-8200000D02*
X3545000Y-8200000D01*
X3450000Y-10005000D02*
X3450000Y-10195000D01*
X3355000Y-10100000D02*
X3545000Y-10100000D01*
X3450000Y-11905000D02*
X3450000Y-12095000D01*
X3355000Y-12000000D02*
X3545000Y-12000000D01*
X4550000Y-6205000D02*
X4550000Y-6395000D01*
X4455000Y-6300000D02*
X4645000Y-6300000D01*
X4550000Y-8105000D02*
X4550000Y-8295000D01*
X4455000Y-8200000D02*
X4645000Y-8200000D01*
X4550000Y-10005000D02*
X4550000Y-10195000D01*
X4455000Y-10100000D02*
X4645000Y-10100000D01*
X4550000Y-11905000D02*
X4550000Y-12095000D01*
X4455000Y-12000000D02*
X4645000Y-12000000D01*
X5450000Y-5205000D02*
X5450000Y-5395000D01*
X5355000Y-5300000D02*
X5545000Y-5300000D01*
X5450000Y-7105000D02*
X5450000Y-7295000D01*
X5355000Y-7200000D02*
X5545000Y-7200000D01*
X5450000Y-9005000D02*
X5450000Y-9195000D01*
X5355000Y-9100000D02*
X5545000Y-9100000D01*
X5450000Y-10905000D02*
X5450000Y-11095000D01*
X5355000Y-11000000D02*
X5545000Y-11000000D01*
X6550000Y-5205000D02*
X6550000Y-5395000D01*
X6455000Y-5300000D02*
X6645000Y-5300000D01*
X6550000Y-7105000D02*
X6550000Y-7295000D01*
X6455000Y-7200000D02*
X6645000Y-7200000D01*
X6550000Y-9005000D02*
X6550000Y-9195000D01*
X6455000Y-9100000D02*
X6645000Y-9100000D01*
X6550000Y-10905000D02*
X6550000Y-11095000D01*
X6455000Y-11000000D02*
X6645000Y-11000000D01*
X7450000Y-4005000D02*
X7450000Y-4195000D01*
X7355000Y-4100000D02*
X7545000Y-4100000D01*
X7450000Y-5905000D02*
X7450000Y-6095000D01*
X7355000Y-6000000D02*
X7545000Y-6000000D01*
X7450000Y-7805000D02*
X7450000Y-7995000D01*
X7355000Y-7900000D02*
X7545000Y-7900000D01*
X7450000Y-9705000D02*
X7450000Y-9895000D01*
X7355000Y-9800000D02*
X7545000Y-9800000D01*
X7450000Y-11905000D02*
X7450000Y-12095000D01*
X7355000Y-12000000D02*
X7545000Y-12000000D01*
X8550000Y-4005000D02*
X8550000Y-4195000D01*
X8455000Y-4100000D02*
X8645000Y-4100000D01*
X8550000Y-5905000D02*
X8550000Y-6095000D01*
X8455000Y-6000000D02*
X8645000Y-6000000D01*
X8550000Y-7805000D02*
X8550000Y-7995000D01*
X8455000Y-7900000D02*
X8645000Y-7900000D01*
X8550000Y-9705000D02*
X8550000Y-9895000D01*
X8455000Y-9800000D02*
X8645000Y-9800000D01*
X8550000Y-11905000D02*
X8550000Y-12095000D01*
X8455000Y-12000000D02*
X8645000Y-12000000D01*
X9450000Y-3605000D02*
X9450000Y-3795000D01*
X9355000Y-3700000D02*
X9545000Y-3700000D01*
X9450000Y-5505000D02*
X9450000Y-5695000D01*
X9355000Y-5600000D02*
X9545000Y-5600000D01*
X9450000Y-7405000D02*
X9450000Y-7595000D01*
X9355000Y-7500000D02*
X9545000Y-7500000D01*
X9450000Y-9305000D02*
X9450000Y-9495000D01*
X9355000Y-9400000D02*
X9545000Y-9400000D01*
X9450000Y-11905000D02*
X9450000Y-12095000D01*
X9355000Y-12000000D02*
X9545000Y-12000000D01*
X10550000Y-3605000D02*
X10550000Y-3795000D01*
X10455000Y-3700000D02*
X10645000Y-3700000D01*
X10550000Y-5505000D02*
X10550000Y-5695000D01*
X10455000Y-5600000D02*
X10645000Y-5600000D01*
X10550000Y-7405000D02*
X10550000Y-7595000D01*
X10455000Y-7500000D02*
X10645000Y-7500000D01*
X10550000Y-9305000D02*
X10550000Y-9495000D01*
X10455000Y-9400000D02*
X10645000Y-9400000D01*
X10550000Y-11905000D02*
X10550000Y-12095000D01*
X10455000Y-12000000D02*
X10645000Y-12000000D01*
X11450000Y-4005000D02*
X11450000Y-4195000D01*
X11355000Y-4100000D02*
X11545000Y-4100000D01*
X11450000Y-5905000D02*
X11450000Y-6095000D01*
X11355000Y-6000000D02*
X11545000Y-6000000D01*
X11450000Y-7805000D02*
X11450000Y-7995000D01*
X11355000Y-7900000D02*
X11545000Y-7900000D01*
X11450000Y-9705000D02*
X11450000Y-9895000D01*
X11355000Y-9800000D02*
X11545000Y-9800000D01*
X11452093Y-11957064D02*
X11452093Y-12147064D01*
X11357093Y-12052064D02*
X11547093Y-12052064D01*
X12547907Y-12052936D02*
X12547907Y-12242936D01*
X12452907Y-12147936D02*
X12642907Y-12147936D01*
X12550000Y-4005000D02*
X12550000Y-4195000D01*
X12455000Y-4100000D02*
X12645000Y-4100000D01*
X12550000Y-5905000D02*
X12550000Y-6095000D01*
X12455000Y-6000000D02*
X12645000Y-6000000D01*
X12550000Y-7805000D02*
X12550000Y-7995000D01*
X12455000Y-7900000D02*
X12645000Y-7900000D01*
X12550000Y-9705000D02*
X12550000Y-9895000D01*
X12455000Y-9800000D02*
X12645000Y-9800000D01*
X13450000Y-4605000D02*
X13450000Y-4795000D01*
X13355000Y-4700000D02*
X13545000Y-4700000D01*
X13450000Y-6505000D02*
X13450000Y-6695000D01*
X13355000Y-6600000D02*
X13545000Y-6600000D01*
X13450000Y-8405000D02*
X13450000Y-8595000D01*
X13355000Y-8500000D02*
X13545000Y-8500000D01*
X13450000Y-10305000D02*
X13450000Y-10495000D01*
X13355000Y-10400000D02*
X13545000Y-10400000D01*
X13567209Y-12265539D02*
X13567209Y-12455539D01*
X13472209Y-12360539D02*
X13662209Y-12360539D01*
X14550000Y-4605000D02*
X14550000Y-4795000D01*
X14455000Y-4700000D02*
X14645000Y-4700000D01*
X14550000Y-6505000D02*
X14550000Y-6695000D01*
X14455000Y-6600000D02*
X14645000Y-6600000D01*
X14550000Y-8405000D02*
X14550000Y-8595000D01*
X14455000Y-8500000D02*
X14645000Y-8500000D01*
X14550000Y-10305000D02*
X14550000Y-10495000D01*
X14455000Y-10400000D02*
X14645000Y-10400000D01*
X14600871Y-12641761D02*
X14600871Y-12831761D01*
X14505871Y-12736761D02*
X14695871Y-12736761D01*
X15483606Y-13151407D02*
X15483606Y-13341407D01*
X15388606Y-13246407D02*
X15578606Y-13246407D01*
X16326254Y-13858473D02*
X16326254Y-14048473D01*
X16231254Y-13953473D02*
X16421254Y-13953473D01*
D15*
X3606067Y-6781067D02*
X3606067Y-6568933D01*
X3393933Y-6568933D01*
X3393933Y-6781067D01*
X3606067Y-6781067D01*
X3606067Y-8681067D02*
X3606067Y-8468933D01*
X3393933Y-8468933D01*
X3393933Y-8681067D01*
X3606067Y-8681067D01*
X3606067Y-10581067D02*
X3606067Y-10368933D01*
X3393933Y-10368933D01*
X3393933Y-10581067D01*
X3606067Y-10581067D01*
X3606067Y-12481067D02*
X3606067Y-12268933D01*
X3393933Y-12268933D01*
X3393933Y-12481067D01*
X3606067Y-12481067D01*
X4106067Y-7001067D02*
X4106067Y-6788933D01*
X3893933Y-6788933D01*
X3893933Y-7001067D01*
X4106067Y-7001067D01*
X4106067Y-8901067D02*
X4106067Y-8688933D01*
X3893933Y-8688933D01*
X3893933Y-8901067D01*
X4106067Y-8901067D01*
X4106067Y-10801067D02*
X4106067Y-10588933D01*
X3893933Y-10588933D01*
X3893933Y-10801067D01*
X4106067Y-10801067D01*
X4106067Y-12701067D02*
X4106067Y-12488933D01*
X3893933Y-12488933D01*
X3893933Y-12701067D01*
X4106067Y-12701067D01*
X4606067Y-6781067D02*
X4606067Y-6568933D01*
X4393933Y-6568933D01*
X4393933Y-6781067D01*
X4606067Y-6781067D01*
X4606067Y-8681067D02*
X4606067Y-8468933D01*
X4393933Y-8468933D01*
X4393933Y-8681067D01*
X4606067Y-8681067D01*
X4606067Y-10581067D02*
X4606067Y-10368933D01*
X4393933Y-10368933D01*
X4393933Y-10581067D01*
X4606067Y-10581067D01*
X4606067Y-12481067D02*
X4606067Y-12268933D01*
X4393933Y-12268933D01*
X4393933Y-12481067D01*
X4606067Y-12481067D01*
X5606067Y-5781067D02*
X5606067Y-5568933D01*
X5393933Y-5568933D01*
X5393933Y-5781067D01*
X5606067Y-5781067D01*
X5606067Y-7681067D02*
X5606067Y-7468933D01*
X5393933Y-7468933D01*
X5393933Y-7681067D01*
X5606067Y-7681067D01*
X5606067Y-9581067D02*
X5606067Y-9368933D01*
X5393933Y-9368933D01*
X5393933Y-9581067D01*
X5606067Y-9581067D01*
X5606067Y-11481067D02*
X5606067Y-11268933D01*
X5393933Y-11268933D01*
X5393933Y-11481067D01*
X5606067Y-11481067D01*
X6106067Y-6001067D02*
X6106067Y-5788933D01*
X5893933Y-5788933D01*
X5893933Y-6001067D01*
X6106067Y-6001067D01*
X6106067Y-7901067D02*
X6106067Y-7688933D01*
X5893933Y-7688933D01*
X5893933Y-7901067D01*
X6106067Y-7901067D01*
X6106067Y-9801067D02*
X6106067Y-9588933D01*
X5893933Y-9588933D01*
X5893933Y-9801067D01*
X6106067Y-9801067D01*
X6106067Y-11701067D02*
X6106067Y-11488933D01*
X5893933Y-11488933D01*
X5893933Y-11701067D01*
X6106067Y-11701067D01*
X6606067Y-5781067D02*
X6606067Y-5568933D01*
X6393933Y-5568933D01*
X6393933Y-5781067D01*
X6606067Y-5781067D01*
X6606067Y-7681067D02*
X6606067Y-7468933D01*
X6393933Y-7468933D01*
X6393933Y-7681067D01*
X6606067Y-7681067D01*
X6606067Y-9581067D02*
X6606067Y-9368933D01*
X6393933Y-9368933D01*
X6393933Y-9581067D01*
X6606067Y-9581067D01*
X6606067Y-11481067D02*
X6606067Y-11268933D01*
X6393933Y-11268933D01*
X6393933Y-11481067D01*
X6606067Y-11481067D01*
X7606067Y-4581067D02*
X7606067Y-4368933D01*
X7393933Y-4368933D01*
X7393933Y-4581067D01*
X7606067Y-4581067D01*
X7606067Y-6481067D02*
X7606067Y-6268933D01*
X7393933Y-6268933D01*
X7393933Y-6481067D01*
X7606067Y-6481067D01*
X7606067Y-8381067D02*
X7606067Y-8168933D01*
X7393933Y-8168933D01*
X7393933Y-8381067D01*
X7606067Y-8381067D01*
X7606067Y-10281067D02*
X7606067Y-10068933D01*
X7393933Y-10068933D01*
X7393933Y-10281067D01*
X7606067Y-10281067D01*
X7606067Y-12481067D02*
X7606067Y-12268933D01*
X7393933Y-12268933D01*
X7393933Y-12481067D01*
X7606067Y-12481067D01*
X8106067Y-4801067D02*
X8106067Y-4588933D01*
X7893933Y-4588933D01*
X7893933Y-4801067D01*
X8106067Y-4801067D01*
X8106067Y-6701067D02*
X8106067Y-6488933D01*
X7893933Y-6488933D01*
X7893933Y-6701067D01*
X8106067Y-6701067D01*
X8106067Y-8601067D02*
X8106067Y-8388933D01*
X7893933Y-8388933D01*
X7893933Y-8601067D01*
X8106067Y-8601067D01*
X8106067Y-10501067D02*
X8106067Y-10288933D01*
X7893933Y-10288933D01*
X7893933Y-10501067D01*
X8106067Y-10501067D01*
X8106067Y-12701067D02*
X8106067Y-12488933D01*
X7893933Y-12488933D01*
X7893933Y-12701067D01*
X8106067Y-12701067D01*
X8606067Y-4581067D02*
X8606067Y-4368933D01*
X8393933Y-4368933D01*
X8393933Y-4581067D01*
X8606067Y-4581067D01*
X8606067Y-6481067D02*
X8606067Y-6268933D01*
X8393933Y-6268933D01*
X8393933Y-6481067D01*
X8606067Y-6481067D01*
X8606067Y-8381067D02*
X8606067Y-8168933D01*
X8393933Y-8168933D01*
X8393933Y-8381067D01*
X8606067Y-8381067D01*
X8606067Y-10281067D02*
X8606067Y-10068933D01*
X8393933Y-10068933D01*
X8393933Y-10281067D01*
X8606067Y-10281067D01*
X8606067Y-12481067D02*
X8606067Y-12268933D01*
X8393933Y-12268933D01*
X8393933Y-12481067D01*
X8606067Y-12481067D01*
X9606067Y-4181067D02*
X9606067Y-3968933D01*
X9393933Y-3968933D01*
X9393933Y-4181067D01*
X9606067Y-4181067D01*
X9606067Y-6081067D02*
X9606067Y-5868933D01*
X9393933Y-5868933D01*
X9393933Y-6081067D01*
X9606067Y-6081067D01*
X9606067Y-7981067D02*
X9606067Y-7768933D01*
X9393933Y-7768933D01*
X9393933Y-7981067D01*
X9606067Y-7981067D01*
X9606067Y-9881067D02*
X9606067Y-9668933D01*
X9393933Y-9668933D01*
X9393933Y-9881067D01*
X9606067Y-9881067D01*
X9606067Y-12481067D02*
X9606067Y-12268933D01*
X9393933Y-12268933D01*
X9393933Y-12481067D01*
X9606067Y-12481067D01*
X10106067Y-4401067D02*
X10106067Y-4188933D01*
X9893933Y-4188933D01*
X9893933Y-4401067D01*
X10106067Y-4401067D01*
X10106067Y-6301067D02*
X10106067Y-6088933D01*
X9893933Y-6088933D01*
X9893933Y-6301067D01*
X10106067Y-6301067D01*
X10106067Y-8201067D02*
X10106067Y-7988933D01*
X9893933Y-7988933D01*
X9893933Y-8201067D01*
X10106067Y-8201067D01*
X10106067Y-10101067D02*
X10106067Y-9888933D01*
X9893933Y-9888933D01*
X9893933Y-10101067D01*
X10106067Y-10101067D01*
X10106067Y-12701067D02*
X10106067Y-12488933D01*
X9893933Y-12488933D01*
X9893933Y-12701067D01*
X10106067Y-12701067D01*
X10606067Y-4181067D02*
X10606067Y-3968933D01*
X10393933Y-3968933D01*
X10393933Y-4181067D01*
X10606067Y-4181067D01*
X10606067Y-6081067D02*
X10606067Y-5868933D01*
X10393933Y-5868933D01*
X10393933Y-6081067D01*
X10606067Y-6081067D01*
X10606067Y-7981067D02*
X10606067Y-7768933D01*
X10393933Y-7768933D01*
X10393933Y-7981067D01*
X10606067Y-7981067D01*
X10606067Y-9881067D02*
X10606067Y-9668933D01*
X10393933Y-9668933D01*
X10393933Y-9881067D01*
X10606067Y-9881067D01*
X10606067Y-12481067D02*
X10606067Y-12268933D01*
X10393933Y-12268933D01*
X10393933Y-12481067D01*
X10606067Y-12481067D01*
X11575286Y-12536062D02*
X11575286Y-12323928D01*
X11363152Y-12323928D01*
X11363152Y-12536062D01*
X11575286Y-12536062D01*
X11606067Y-4581067D02*
X11606067Y-4368933D01*
X11393933Y-4368933D01*
X11393933Y-4581067D01*
X11606067Y-4581067D01*
X11606067Y-6481067D02*
X11606067Y-6268933D01*
X11393933Y-6268933D01*
X11393933Y-6481067D01*
X11606067Y-6481067D01*
X11606067Y-8381067D02*
X11606067Y-8168933D01*
X11393933Y-8168933D01*
X11393933Y-8381067D01*
X11606067Y-8381067D01*
X11606067Y-10281067D02*
X11606067Y-10068933D01*
X11393933Y-10068933D01*
X11393933Y-10281067D01*
X11606067Y-10281067D01*
X12054209Y-12798803D02*
X12054209Y-12586669D01*
X11842075Y-12586669D01*
X11842075Y-12798803D01*
X12054209Y-12798803D01*
X12106067Y-4801067D02*
X12106067Y-4588933D01*
X11893933Y-4588933D01*
X11893933Y-4801067D01*
X12106067Y-4801067D01*
X12106067Y-6701067D02*
X12106067Y-6488933D01*
X11893933Y-6488933D01*
X11893933Y-6701067D01*
X12106067Y-6701067D01*
X12106067Y-8601067D02*
X12106067Y-8388933D01*
X11893933Y-8388933D01*
X11893933Y-8601067D01*
X12106067Y-8601067D01*
X12106067Y-10501067D02*
X12106067Y-10288933D01*
X11893933Y-10288933D01*
X11893933Y-10501067D01*
X12106067Y-10501067D01*
X12571481Y-12623218D02*
X12571481Y-12411084D01*
X12359347Y-12411084D01*
X12359347Y-12623218D01*
X12571481Y-12623218D01*
X12606067Y-4581067D02*
X12606067Y-4368933D01*
X12393933Y-4368933D01*
X12393933Y-4581067D01*
X12606067Y-4581067D01*
X12606067Y-6481067D02*
X12606067Y-6268933D01*
X12393933Y-6268933D01*
X12393933Y-6481067D01*
X12606067Y-6481067D01*
X12606067Y-8381067D02*
X12606067Y-8168933D01*
X12393933Y-8168933D01*
X12393933Y-8381067D01*
X12606067Y-8381067D01*
X12606067Y-10281067D02*
X12606067Y-10068933D01*
X12393933Y-10068933D01*
X12393933Y-10281067D01*
X12606067Y-10281067D01*
X13592003Y-12836092D02*
X13592003Y-12623958D01*
X13379869Y-12623958D01*
X13379869Y-12836092D01*
X13592003Y-12836092D01*
X13606067Y-5181067D02*
X13606067Y-4968933D01*
X13393933Y-4968933D01*
X13393933Y-5181067D01*
X13606067Y-5181067D01*
X13606067Y-7081067D02*
X13606067Y-6868933D01*
X13393933Y-6868933D01*
X13393933Y-7081067D01*
X13606067Y-7081067D01*
X13606067Y-8981067D02*
X13606067Y-8768933D01*
X13393933Y-8768933D01*
X13393933Y-8981067D01*
X13606067Y-8981067D01*
X13606067Y-10881067D02*
X13606067Y-10668933D01*
X13393933Y-10668933D01*
X13393933Y-10881067D01*
X13606067Y-10881067D01*
X13986605Y-13213834D02*
X13986605Y-13001700D01*
X13774471Y-13001700D01*
X13774471Y-13213834D01*
X13986605Y-13213834D01*
X14106067Y-5401067D02*
X14106067Y-5188933D01*
X13893933Y-5188933D01*
X13893933Y-5401067D01*
X14106067Y-5401067D01*
X14106067Y-7301067D02*
X14106067Y-7088933D01*
X13893933Y-7088933D01*
X13893933Y-7301067D01*
X14106067Y-7301067D01*
X14106067Y-9201067D02*
X14106067Y-8988933D01*
X13893933Y-8988933D01*
X13893933Y-9201067D01*
X14106067Y-9201067D01*
X14106067Y-11101067D02*
X14106067Y-10888933D01*
X13893933Y-10888933D01*
X13893933Y-11101067D01*
X14106067Y-11101067D01*
X14531696Y-13178112D02*
X14531696Y-12965978D01*
X14319562Y-12965978D01*
X14319562Y-13178112D01*
X14531696Y-13178112D01*
X14606067Y-5181067D02*
X14606067Y-4968933D01*
X14393933Y-4968933D01*
X14393933Y-5181067D01*
X14606067Y-5181067D01*
X14606067Y-7081067D02*
X14606067Y-6868933D01*
X14393933Y-6868933D01*
X14393933Y-7081067D01*
X14606067Y-7081067D01*
X14606067Y-8981067D02*
X14606067Y-8768933D01*
X14393933Y-8768933D01*
X14393933Y-8981067D01*
X14606067Y-8981067D01*
X14606067Y-10881067D02*
X14606067Y-10668933D01*
X14393933Y-10668933D01*
X14393933Y-10881067D01*
X14606067Y-10881067D01*
X15386929Y-13671880D02*
X15386929Y-13459746D01*
X15174795Y-13459746D01*
X15174795Y-13671880D01*
X15386929Y-13671880D01*
X15628538Y-14161803D02*
X15628538Y-13949669D01*
X15416404Y-13949669D01*
X15416404Y-14161803D01*
X15628538Y-14161803D01*
X16152974Y-14314667D02*
X16152974Y-14102533D01*
X15940840Y-14102533D01*
X15940840Y-14314667D01*
X16152974Y-14314667D01*
D16*
X5000000Y-6460000D02*
X5160000Y-6300000D01*
X5000000Y-6140000D01*
X4840000Y-6300000D01*
X5000000Y-6460000D01*
X5000000Y-12160000D02*
X5160000Y-12000000D01*
X5000000Y-11840000D01*
X4840000Y-12000000D01*
X5000000Y-12160000D01*
X9000000Y-5160000D02*
X9160000Y-5000000D01*
X9000000Y-4840000D01*
X8840000Y-5000000D01*
X9000000Y-5160000D01*
X9000000Y-11060000D02*
X9160000Y-10900000D01*
X9000000Y-10740000D01*
X8840000Y-10900000D01*
X9000000Y-11060000D01*
X14648200Y-11743390D02*
X14808200Y-11583390D01*
X14648200Y-11423390D01*
X14488200Y-11583390D01*
X14648200Y-11743390D01*
X15000000Y-5760000D02*
X15160000Y-5600000D01*
X15000000Y-5440000D01*
X14840000Y-5600000D01*
X15000000Y-5760000D01*
D17*
X3750000Y-6050000D02*
X4250000Y-6550000D01*
X4250000Y-6050000D02*
X3750000Y-6550000D01*
X4250000Y-6300000D02*
G75*
G02*
X3750000Y-6300000I-250000J0D01*
G01*
X3750000Y-6300000D02*
G75*
G02*
X4250000Y-6300000I250000J0D01*
G01*
X3750000Y-7950000D02*
X4250000Y-8450000D01*
X4250000Y-7950000D02*
X3750000Y-8450000D01*
X4250000Y-8200000D02*
G75*
G02*
X3750000Y-8200000I-250000J0D01*
G01*
X3750000Y-8200000D02*
G75*
G02*
X4250000Y-8200000I250000J0D01*
G01*
X3750000Y-9850000D02*
X4250000Y-10350000D01*
X4250000Y-9850000D02*
X3750000Y-10350000D01*
X4250000Y-10100000D02*
G75*
G02*
X3750000Y-10100000I-250000J0D01*
G01*
X3750000Y-10100000D02*
G75*
G02*
X4250000Y-10100000I250000J0D01*
G01*
X3750000Y-11750000D02*
X4250000Y-12250000D01*
X4250000Y-11750000D02*
X3750000Y-12250000D01*
X4250000Y-12000000D02*
G75*
G02*
X3750000Y-12000000I-250000J0D01*
G01*
X3750000Y-12000000D02*
G75*
G02*
X4250000Y-12000000I250000J0D01*
G01*
X5750000Y-5050000D02*
X6250000Y-5550000D01*
X6250000Y-5050000D02*
X5750000Y-5550000D01*
X6250000Y-5300000D02*
G75*
G02*
X5750000Y-5300000I-250000J0D01*
G01*
X5750000Y-5300000D02*
G75*
G02*
X6250000Y-5300000I250000J0D01*
G01*
X5750000Y-6950000D02*
X6250000Y-7450000D01*
X6250000Y-6950000D02*
X5750000Y-7450000D01*
X6250000Y-7200000D02*
G75*
G02*
X5750000Y-7200000I-250000J0D01*
G01*
X5750000Y-7200000D02*
G75*
G02*
X6250000Y-7200000I250000J0D01*
G01*
X5750000Y-8850000D02*
X6250000Y-9350000D01*
X6250000Y-8850000D02*
X5750000Y-9350000D01*
X6250000Y-9100000D02*
G75*
G02*
X5750000Y-9100000I-250000J0D01*
G01*
X5750000Y-9100000D02*
G75*
G02*
X6250000Y-9100000I250000J0D01*
G01*
X5750000Y-10750000D02*
X6250000Y-11250000D01*
X6250000Y-10750000D02*
X5750000Y-11250000D01*
X6250000Y-11000000D02*
G75*
G02*
X5750000Y-11000000I-250000J0D01*
G01*
X5750000Y-11000000D02*
G75*
G02*
X6250000Y-11000000I250000J0D01*
G01*
X7750000Y-3850000D02*
X8250000Y-4350000D01*
X8250000Y-3850000D02*
X7750000Y-4350000D01*
X8250000Y-4100000D02*
G75*
G02*
X7750000Y-4100000I-250000J0D01*
G01*
X7750000Y-4100000D02*
G75*
G02*
X8250000Y-4100000I250000J0D01*
G01*
X7750000Y-5750000D02*
X8250000Y-6250000D01*
X8250000Y-5750000D02*
X7750000Y-6250000D01*
X8250000Y-6000000D02*
G75*
G02*
X7750000Y-6000000I-250000J0D01*
G01*
X7750000Y-6000000D02*
G75*
G02*
X8250000Y-6000000I250000J0D01*
G01*
X7750000Y-7650000D02*
X8250000Y-8150000D01*
X8250000Y-7650000D02*
X7750000Y-8150000D01*
X8250000Y-7900000D02*
G75*
G02*
X7750000Y-7900000I-250000J0D01*
G01*
X7750000Y-7900000D02*
G75*
G02*
X8250000Y-7900000I250000J0D01*
G01*
X7750000Y-9550000D02*
X8250000Y-10050000D01*
X8250000Y-9550000D02*
X7750000Y-10050000D01*
X8250000Y-9800000D02*
G75*
G02*
X7750000Y-9800000I-250000J0D01*
G01*
X7750000Y-9800000D02*
G75*
G02*
X8250000Y-9800000I250000J0D01*
G01*
X7750000Y-11750000D02*
X8250000Y-12250000D01*
X8250000Y-11750000D02*
X7750000Y-12250000D01*
X8250000Y-12000000D02*
G75*
G02*
X7750000Y-12000000I-250000J0D01*
G01*
X7750000Y-12000000D02*
G75*
G02*
X8250000Y-12000000I250000J0D01*
G01*
X9750000Y-3450000D02*
X10250000Y-3950000D01*
X10250000Y-3450000D02*
X9750000Y-3950000D01*
X10250000Y-3700000D02*
G75*
G02*
X9750000Y-3700000I-250000J0D01*
G01*
X9750000Y-3700000D02*
G75*
G02*
X10250000Y-3700000I250000J0D01*
G01*
X9750000Y-5350000D02*
X10250000Y-5850000D01*
X10250000Y-5350000D02*
X9750000Y-5850000D01*
X10250000Y-5600000D02*
G75*
G02*
X9750000Y-5600000I-250000J0D01*
G01*
X9750000Y-5600000D02*
G75*
G02*
X10250000Y-5600000I250000J0D01*
G01*
X9750000Y-7250000D02*
X10250000Y-7750000D01*
X10250000Y-7250000D02*
X9750000Y-7750000D01*
X10250000Y-7500000D02*
G75*
G02*
X9750000Y-7500000I-250000J0D01*
G01*
X9750000Y-7500000D02*
G75*
G02*
X10250000Y-7500000I250000J0D01*
G01*
X9750000Y-9150000D02*
X10250000Y-9650000D01*
X10250000Y-9150000D02*
X9750000Y-9650000D01*
X10250000Y-9400000D02*
G75*
G02*
X9750000Y-9400000I-250000J0D01*
G01*
X9750000Y-9400000D02*
G75*
G02*
X10250000Y-9400000I250000J0D01*
G01*
X9750000Y-11750000D02*
X10250000Y-12250000D01*
X10250000Y-11750000D02*
X9750000Y-12250000D01*
X10250000Y-12000000D02*
G75*
G02*
X9750000Y-12000000I-250000J0D01*
G01*
X9750000Y-12000000D02*
G75*
G02*
X10250000Y-12000000I250000J0D01*
G01*
X11750000Y-3850000D02*
X12250000Y-4350000D01*
X12250000Y-3850000D02*
X11750000Y-4350000D01*
X12250000Y-4100000D02*
G75*
G02*
X11750000Y-4100000I-250000J0D01*
G01*
X11750000Y-4100000D02*
G75*
G02*
X12250000Y-4100000I250000J0D01*
G01*
X11750000Y-5750000D02*
X12250000Y-6250000D01*
X12250000Y-5750000D02*
X11750000Y-6250000D01*
X12250000Y-6000000D02*
G75*
G02*
X11750000Y-6000000I-250000J0D01*
G01*
X11750000Y-6000000D02*
G75*
G02*
X12250000Y-6000000I250000J0D01*
G01*
X11750000Y-7650000D02*
X12250000Y-8150000D01*
X12250000Y-7650000D02*
X11750000Y-8150000D01*
X12250000Y-7900000D02*
G75*
G02*
X11750000Y-7900000I-250000J0D01*
G01*
X11750000Y-7900000D02*
G75*
G02*
X12250000Y-7900000I250000J0D01*
G01*
X11750000Y-9550000D02*
X12250000Y-10050000D01*
X12250000Y-9550000D02*
X11750000Y-10050000D01*
X12250000Y-9800000D02*
G75*
G02*
X11750000Y-9800000I-250000J0D01*
G01*
X11750000Y-9800000D02*
G75*
G02*
X12250000Y-9800000I250000J0D01*
G01*
X11750000Y-11850000D02*
X12250000Y-12350000D01*
X12250000Y-11850000D02*
X11750000Y-12350000D01*
X12250000Y-12100000D02*
G75*
G02*
X11750000Y-12100000I-250000J0D01*
G01*
X11750000Y-12100000D02*
G75*
G02*
X12250000Y-12100000I250000J0D01*
G01*
X13750000Y-4450000D02*
X14250000Y-4950000D01*
X14250000Y-4450000D02*
X13750000Y-4950000D01*
X14250000Y-4700000D02*
G75*
G02*
X13750000Y-4700000I-250000J0D01*
G01*
X13750000Y-4700000D02*
G75*
G02*
X14250000Y-4700000I250000J0D01*
G01*
X13750000Y-6350000D02*
X14250000Y-6850000D01*
X14250000Y-6350000D02*
X13750000Y-6850000D01*
X14250000Y-6600000D02*
G75*
G02*
X13750000Y-6600000I-250000J0D01*
G01*
X13750000Y-6600000D02*
G75*
G02*
X14250000Y-6600000I250000J0D01*
G01*
X13750000Y-8250000D02*
X14250000Y-8750000D01*
X14250000Y-8250000D02*
X13750000Y-8750000D01*
X14250000Y-8500000D02*
G75*
G02*
X13750000Y-8500000I-250000J0D01*
G01*
X13750000Y-8500000D02*
G75*
G02*
X14250000Y-8500000I250000J0D01*
G01*
X13750000Y-10150000D02*
X14250000Y-10650000D01*
X14250000Y-10150000D02*
X13750000Y-10650000D01*
X14250000Y-10400000D02*
G75*
G02*
X13750000Y-10400000I-250000J0D01*
G01*
X13750000Y-10400000D02*
G75*
G02*
X14250000Y-10400000I250000J0D01*
G01*
X13834040Y-12298650D02*
X14334040Y-12798650D01*
X14334040Y-12298650D02*
X13834040Y-12798650D01*
X14334040Y-12548650D02*
G75*
G02*
X13834040Y-12548650I-250000J0D01*
G01*
X13834040Y-12548650D02*
G75*
G02*
X14334040Y-12548650I250000J0D01*
G01*
X15654930Y-13349940D02*
X16154930Y-13849940D01*
X16154930Y-13349940D02*
X15654930Y-13849940D01*
X16154930Y-13599940D02*
G75*
G02*
X15654930Y-13599940I-250000J0D01*
G01*
X15654930Y-13599940D02*
G75*
G02*
X16154930Y-13599940I250000J0D01*
G01*
D12*
X3053277Y-15568646D02*
X3053277Y-15368646D01*
X3053277Y-15368646D02*
X3100896Y-15368646D01*
X3100896Y-15368646D02*
X3129467Y-15378170D01*
X3129467Y-15378170D02*
X3148515Y-15397218D01*
X3148515Y-15397218D02*
X3158039Y-15416265D01*
X3158039Y-15416265D02*
X3167562Y-15454360D01*
X3167562Y-15454360D02*
X3167562Y-15482932D01*
X3167562Y-15482932D02*
X3158039Y-15521027D01*
X3158039Y-15521027D02*
X3148515Y-15540075D01*
X3148515Y-15540075D02*
X3129467Y-15559122D01*
X3129467Y-15559122D02*
X3100896Y-15568646D01*
X3100896Y-15568646D02*
X3053277Y-15568646D01*
X3253277Y-15568646D02*
X3253277Y-15435313D01*
X3253277Y-15473408D02*
X3262801Y-15454360D01*
X3262801Y-15454360D02*
X3272324Y-15444837D01*
X3272324Y-15444837D02*
X3291372Y-15435313D01*
X3291372Y-15435313D02*
X3310420Y-15435313D01*
X3377086Y-15568646D02*
X3377086Y-15435313D01*
X3377086Y-15368646D02*
X3367562Y-15378170D01*
X3367562Y-15378170D02*
X3377086Y-15387694D01*
X3377086Y-15387694D02*
X3386610Y-15378170D01*
X3386610Y-15378170D02*
X3377086Y-15368646D01*
X3377086Y-15368646D02*
X3377086Y-15387694D01*
X3500896Y-15568646D02*
X3481848Y-15559122D01*
X3481848Y-15559122D02*
X3472324Y-15540075D01*
X3472324Y-15540075D02*
X3472324Y-15368646D01*
X3605658Y-15568646D02*
X3586610Y-15559122D01*
X3586610Y-15559122D02*
X3577086Y-15540075D01*
X3577086Y-15540075D02*
X3577086Y-15368646D01*
X3834229Y-15568646D02*
X3834229Y-15368646D01*
X3834229Y-15368646D02*
X3900896Y-15511503D01*
X3900896Y-15511503D02*
X3967562Y-15368646D01*
X3967562Y-15368646D02*
X3967562Y-15568646D01*
X4148515Y-15568646D02*
X4148515Y-15463884D01*
X4148515Y-15463884D02*
X4138991Y-15444837D01*
X4138991Y-15444837D02*
X4119943Y-15435313D01*
X4119943Y-15435313D02*
X4081848Y-15435313D01*
X4081848Y-15435313D02*
X4062801Y-15444837D01*
X4148515Y-15559122D02*
X4129467Y-15568646D01*
X4129467Y-15568646D02*
X4081848Y-15568646D01*
X4081848Y-15568646D02*
X4062801Y-15559122D01*
X4062801Y-15559122D02*
X4053277Y-15540075D01*
X4053277Y-15540075D02*
X4053277Y-15521027D01*
X4053277Y-15521027D02*
X4062801Y-15501979D01*
X4062801Y-15501979D02*
X4081848Y-15492456D01*
X4081848Y-15492456D02*
X4129467Y-15492456D01*
X4129467Y-15492456D02*
X4148515Y-15482932D01*
X4243753Y-15435313D02*
X4243753Y-15635313D01*
X4243753Y-15444837D02*
X4262801Y-15435313D01*
X4262801Y-15435313D02*
X4300896Y-15435313D01*
X4300896Y-15435313D02*
X4319944Y-15444837D01*
X4319944Y-15444837D02*
X4329467Y-15454360D01*
X4329467Y-15454360D02*
X4338991Y-15473408D01*
X4338991Y-15473408D02*
X4338991Y-15530551D01*
X4338991Y-15530551D02*
X4329467Y-15549598D01*
X4329467Y-15549598D02*
X4319944Y-15559122D01*
X4319944Y-15559122D02*
X4300896Y-15568646D01*
X4300896Y-15568646D02*
X4262801Y-15568646D01*
X4262801Y-15568646D02*
X4243753Y-15559122D01*
X4424705Y-15549598D02*
X4434229Y-15559122D01*
X4434229Y-15559122D02*
X4424705Y-15568646D01*
X4424705Y-15568646D02*
X4415182Y-15559122D01*
X4415182Y-15559122D02*
X4424705Y-15549598D01*
X4424705Y-15549598D02*
X4424705Y-15568646D01*
X4424705Y-15444837D02*
X4434229Y-15454360D01*
X4434229Y-15454360D02*
X4424705Y-15463884D01*
X4424705Y-15463884D02*
X4415182Y-15454360D01*
X4415182Y-15454360D02*
X4424705Y-15444837D01*
X4424705Y-15444837D02*
X4424705Y-15463884D01*
D13*
X2702500Y-15852162D02*
X2792500Y-15942162D01*
X2792500Y-15852162D02*
X2702500Y-15942162D01*
D12*
X3091372Y-15788646D02*
X3110420Y-15788646D01*
X3110420Y-15788646D02*
X3129467Y-15798170D01*
X3129467Y-15798170D02*
X3138991Y-15807694D01*
X3138991Y-15807694D02*
X3148515Y-15826741D01*
X3148515Y-15826741D02*
X3158039Y-15864837D01*
X3158039Y-15864837D02*
X3158039Y-15912456D01*
X3158039Y-15912456D02*
X3148515Y-15950551D01*
X3148515Y-15950551D02*
X3138991Y-15969598D01*
X3138991Y-15969598D02*
X3129467Y-15979122D01*
X3129467Y-15979122D02*
X3110420Y-15988646D01*
X3110420Y-15988646D02*
X3091372Y-15988646D01*
X3091372Y-15988646D02*
X3072324Y-15979122D01*
X3072324Y-15979122D02*
X3062801Y-15969598D01*
X3062801Y-15969598D02*
X3053277Y-15950551D01*
X3053277Y-15950551D02*
X3043753Y-15912456D01*
X3043753Y-15912456D02*
X3043753Y-15864837D01*
X3043753Y-15864837D02*
X3053277Y-15826741D01*
X3053277Y-15826741D02*
X3062801Y-15807694D01*
X3062801Y-15807694D02*
X3072324Y-15798170D01*
X3072324Y-15798170D02*
X3091372Y-15788646D01*
X3243753Y-15969598D02*
X3253277Y-15979122D01*
X3253277Y-15979122D02*
X3243753Y-15988646D01*
X3243753Y-15988646D02*
X3234229Y-15979122D01*
X3234229Y-15979122D02*
X3243753Y-15969598D01*
X3243753Y-15969598D02*
X3243753Y-15988646D01*
X3348515Y-15988646D02*
X3386610Y-15988646D01*
X3386610Y-15988646D02*
X3405658Y-15979122D01*
X3405658Y-15979122D02*
X3415182Y-15969598D01*
X3415182Y-15969598D02*
X3434229Y-15941027D01*
X3434229Y-15941027D02*
X3443753Y-15902932D01*
X3443753Y-15902932D02*
X3443753Y-15826741D01*
X3443753Y-15826741D02*
X3434229Y-15807694D01*
X3434229Y-15807694D02*
X3424705Y-15798170D01*
X3424705Y-15798170D02*
X3405658Y-15788646D01*
X3405658Y-15788646D02*
X3367562Y-15788646D01*
X3367562Y-15788646D02*
X3348515Y-15798170D01*
X3348515Y-15798170D02*
X3338991Y-15807694D01*
X3338991Y-15807694D02*
X3329467Y-15826741D01*
X3329467Y-15826741D02*
X3329467Y-15874360D01*
X3329467Y-15874360D02*
X3338991Y-15893408D01*
X3338991Y-15893408D02*
X3348515Y-15902932D01*
X3348515Y-15902932D02*
X3367562Y-15912456D01*
X3367562Y-15912456D02*
X3405658Y-15912456D01*
X3405658Y-15912456D02*
X3424705Y-15902932D01*
X3424705Y-15902932D02*
X3434229Y-15893408D01*
X3434229Y-15893408D02*
X3443753Y-15874360D01*
X3567562Y-15788646D02*
X3586610Y-15788646D01*
X3586610Y-15788646D02*
X3605658Y-15798170D01*
X3605658Y-15798170D02*
X3615182Y-15807694D01*
X3615182Y-15807694D02*
X3624705Y-15826741D01*
X3624705Y-15826741D02*
X3634229Y-15864837D01*
X3634229Y-15864837D02*
X3634229Y-15912456D01*
X3634229Y-15912456D02*
X3624705Y-15950551D01*
X3624705Y-15950551D02*
X3615182Y-15969598D01*
X3615182Y-15969598D02*
X3605658Y-15979122D01*
X3605658Y-15979122D02*
X3586610Y-15988646D01*
X3586610Y-15988646D02*
X3567562Y-15988646D01*
X3567562Y-15988646D02*
X3548515Y-15979122D01*
X3548515Y-15979122D02*
X3538991Y-15969598D01*
X3538991Y-15969598D02*
X3529467Y-15950551D01*
X3529467Y-15950551D02*
X3519943Y-15912456D01*
X3519943Y-15912456D02*
X3519943Y-15864837D01*
X3519943Y-15864837D02*
X3529467Y-15826741D01*
X3529467Y-15826741D02*
X3538991Y-15807694D01*
X3538991Y-15807694D02*
X3548515Y-15798170D01*
X3548515Y-15798170D02*
X3567562Y-15788646D01*
X3758039Y-15788646D02*
X3777086Y-15788646D01*
X3777086Y-15788646D02*
X3796134Y-15798170D01*
X3796134Y-15798170D02*
X3805658Y-15807694D01*
X3805658Y-15807694D02*
X3815182Y-15826741D01*
X3815182Y-15826741D02*
X3824705Y-15864837D01*
X3824705Y-15864837D02*
X3824705Y-15912456D01*
X3824705Y-15912456D02*
X3815182Y-15950551D01*
X3815182Y-15950551D02*
X3805658Y-15969598D01*
X3805658Y-15969598D02*
X3796134Y-15979122D01*
X3796134Y-15979122D02*
X3777086Y-15988646D01*
X3777086Y-15988646D02*
X3758039Y-15988646D01*
X3758039Y-15988646D02*
X3738991Y-15979122D01*
X3738991Y-15979122D02*
X3729467Y-15969598D01*
X3729467Y-15969598D02*
X3719943Y-15950551D01*
X3719943Y-15950551D02*
X3710420Y-15912456D01*
X3710420Y-15912456D02*
X3710420Y-15864837D01*
X3710420Y-15864837D02*
X3719943Y-15826741D01*
X3719943Y-15826741D02*
X3729467Y-15807694D01*
X3729467Y-15807694D02*
X3738991Y-15798170D01*
X3738991Y-15798170D02*
X3758039Y-15788646D01*
X3910420Y-15988646D02*
X3910420Y-15855313D01*
X3910420Y-15874360D02*
X3919943Y-15864837D01*
X3919943Y-15864837D02*
X3938991Y-15855313D01*
X3938991Y-15855313D02*
X3967563Y-15855313D01*
X3967563Y-15855313D02*
X3986610Y-15864837D01*
X3986610Y-15864837D02*
X3996134Y-15883884D01*
X3996134Y-15883884D02*
X3996134Y-15988646D01*
X3996134Y-15883884D02*
X4005658Y-15864837D01*
X4005658Y-15864837D02*
X4024705Y-15855313D01*
X4024705Y-15855313D02*
X4053277Y-15855313D01*
X4053277Y-15855313D02*
X4072324Y-15864837D01*
X4072324Y-15864837D02*
X4081848Y-15883884D01*
X4081848Y-15883884D02*
X4081848Y-15988646D01*
X4177086Y-15988646D02*
X4177086Y-15855313D01*
X4177086Y-15874360D02*
X4186610Y-15864837D01*
X4186610Y-15864837D02*
X4205658Y-15855313D01*
X4205658Y-15855313D02*
X4234229Y-15855313D01*
X4234229Y-15855313D02*
X4253277Y-15864837D01*
X4253277Y-15864837D02*
X4262801Y-15883884D01*
X4262801Y-15883884D02*
X4262801Y-15988646D01*
X4262801Y-15883884D02*
X4272325Y-15864837D01*
X4272325Y-15864837D02*
X4291372Y-15855313D01*
X4291372Y-15855313D02*
X4319944Y-15855313D01*
X4319944Y-15855313D02*
X4338991Y-15864837D01*
X4338991Y-15864837D02*
X4348515Y-15883884D01*
X4348515Y-15883884D02*
X4348515Y-15988646D01*
X4738991Y-15779122D02*
X4567563Y-16036265D01*
X4996134Y-15788646D02*
X5015182Y-15788646D01*
X5015182Y-15788646D02*
X5034229Y-15798170D01*
X5034229Y-15798170D02*
X5043753Y-15807694D01*
X5043753Y-15807694D02*
X5053277Y-15826741D01*
X5053277Y-15826741D02*
X5062801Y-15864837D01*
X5062801Y-15864837D02*
X5062801Y-15912456D01*
X5062801Y-15912456D02*
X5053277Y-15950551D01*
X5053277Y-15950551D02*
X5043753Y-15969598D01*
X5043753Y-15969598D02*
X5034229Y-15979122D01*
X5034229Y-15979122D02*
X5015182Y-15988646D01*
X5015182Y-15988646D02*
X4996134Y-15988646D01*
X4996134Y-15988646D02*
X4977087Y-15979122D01*
X4977087Y-15979122D02*
X4967563Y-15969598D01*
X4967563Y-15969598D02*
X4958039Y-15950551D01*
X4958039Y-15950551D02*
X4948515Y-15912456D01*
X4948515Y-15912456D02*
X4948515Y-15864837D01*
X4948515Y-15864837D02*
X4958039Y-15826741D01*
X4958039Y-15826741D02*
X4967563Y-15807694D01*
X4967563Y-15807694D02*
X4977087Y-15798170D01*
X4977087Y-15798170D02*
X4996134Y-15788646D01*
X5148515Y-15969598D02*
X5158039Y-15979122D01*
X5158039Y-15979122D02*
X5148515Y-15988646D01*
X5148515Y-15988646D02*
X5138991Y-15979122D01*
X5138991Y-15979122D02*
X5148515Y-15969598D01*
X5148515Y-15969598D02*
X5148515Y-15988646D01*
X5281848Y-15788646D02*
X5300896Y-15788646D01*
X5300896Y-15788646D02*
X5319944Y-15798170D01*
X5319944Y-15798170D02*
X5329468Y-15807694D01*
X5329468Y-15807694D02*
X5338991Y-15826741D01*
X5338991Y-15826741D02*
X5348515Y-15864837D01*
X5348515Y-15864837D02*
X5348515Y-15912456D01*
X5348515Y-15912456D02*
X5338991Y-15950551D01*
X5338991Y-15950551D02*
X5329468Y-15969598D01*
X5329468Y-15969598D02*
X5319944Y-15979122D01*
X5319944Y-15979122D02*
X5300896Y-15988646D01*
X5300896Y-15988646D02*
X5281848Y-15988646D01*
X5281848Y-15988646D02*
X5262801Y-15979122D01*
X5262801Y-15979122D02*
X5253277Y-15969598D01*
X5253277Y-15969598D02*
X5243753Y-15950551D01*
X5243753Y-15950551D02*
X5234229Y-15912456D01*
X5234229Y-15912456D02*
X5234229Y-15864837D01*
X5234229Y-15864837D02*
X5243753Y-15826741D01*
X5243753Y-15826741D02*
X5253277Y-15807694D01*
X5253277Y-15807694D02*
X5262801Y-15798170D01*
X5262801Y-15798170D02*
X5281848Y-15788646D01*
X5415182Y-15788646D02*
X5538991Y-15788646D01*
X5538991Y-15788646D02*
X5472325Y-15864837D01*
X5472325Y-15864837D02*
X5500896Y-15864837D01*
X5500896Y-15864837D02*
X5519944Y-15874360D01*
X5519944Y-15874360D02*
X5529468Y-15883884D01*
X5529468Y-15883884D02*
X5538991Y-15902932D01*
X5538991Y-15902932D02*
X5538991Y-15950551D01*
X5538991Y-15950551D02*
X5529468Y-15969598D01*
X5529468Y-15969598D02*
X5519944Y-15979122D01*
X5519944Y-15979122D02*
X5500896Y-15988646D01*
X5500896Y-15988646D02*
X5443753Y-15988646D01*
X5443753Y-15988646D02*
X5424706Y-15979122D01*
X5424706Y-15979122D02*
X5415182Y-15969598D01*
X5719944Y-15788646D02*
X5624706Y-15788646D01*
X5624706Y-15788646D02*
X5615182Y-15883884D01*
X5615182Y-15883884D02*
X5624706Y-15874360D01*
X5624706Y-15874360D02*
X5643753Y-15864837D01*
X5643753Y-15864837D02*
X5691372Y-15864837D01*
X5691372Y-15864837D02*
X5710420Y-15874360D01*
X5710420Y-15874360D02*
X5719944Y-15883884D01*
X5719944Y-15883884D02*
X5729467Y-15902932D01*
X5729467Y-15902932D02*
X5729467Y-15950551D01*
X5729467Y-15950551D02*
X5719944Y-15969598D01*
X5719944Y-15969598D02*
X5710420Y-15979122D01*
X5710420Y-15979122D02*
X5691372Y-15988646D01*
X5691372Y-15988646D02*
X5643753Y-15988646D01*
X5643753Y-15988646D02*
X5624706Y-15979122D01*
X5624706Y-15979122D02*
X5615182Y-15969598D01*
X5900896Y-15855313D02*
X5900896Y-15988646D01*
X5853277Y-15779122D02*
X5805658Y-15921979D01*
X5805658Y-15921979D02*
X5929467Y-15921979D01*
X5996134Y-15788646D02*
X5996134Y-15826741D01*
X6072325Y-15788646D02*
X6072325Y-15826741D01*
X6367563Y-16064837D02*
X6358039Y-16055313D01*
X6358039Y-16055313D02*
X6338991Y-16026741D01*
X6338991Y-16026741D02*
X6329468Y-16007694D01*
X6329468Y-16007694D02*
X6319944Y-15979122D01*
X6319944Y-15979122D02*
X6310420Y-15931503D01*
X6310420Y-15931503D02*
X6310420Y-15893408D01*
X6310420Y-15893408D02*
X6319944Y-15845789D01*
X6319944Y-15845789D02*
X6329468Y-15817218D01*
X6329468Y-15817218D02*
X6338991Y-15798170D01*
X6338991Y-15798170D02*
X6358039Y-15769598D01*
X6358039Y-15769598D02*
X6367563Y-15760075D01*
X6434229Y-15807694D02*
X6443753Y-15798170D01*
X6443753Y-15798170D02*
X6462801Y-15788646D01*
X6462801Y-15788646D02*
X6510420Y-15788646D01*
X6510420Y-15788646D02*
X6529468Y-15798170D01*
X6529468Y-15798170D02*
X6538991Y-15807694D01*
X6538991Y-15807694D02*
X6548515Y-15826741D01*
X6548515Y-15826741D02*
X6548515Y-15845789D01*
X6548515Y-15845789D02*
X6538991Y-15874360D01*
X6538991Y-15874360D02*
X6424706Y-15988646D01*
X6424706Y-15988646D02*
X6548515Y-15988646D01*
X6786610Y-15988646D02*
X6786610Y-15788646D01*
X6872325Y-15988646D02*
X6872325Y-15883884D01*
X6872325Y-15883884D02*
X6862801Y-15864837D01*
X6862801Y-15864837D02*
X6843753Y-15855313D01*
X6843753Y-15855313D02*
X6815182Y-15855313D01*
X6815182Y-15855313D02*
X6796134Y-15864837D01*
X6796134Y-15864837D02*
X6786610Y-15874360D01*
X6996134Y-15988646D02*
X6977087Y-15979122D01*
X6977087Y-15979122D02*
X6967563Y-15969598D01*
X6967563Y-15969598D02*
X6958039Y-15950551D01*
X6958039Y-15950551D02*
X6958039Y-15893408D01*
X6958039Y-15893408D02*
X6967563Y-15874360D01*
X6967563Y-15874360D02*
X6977087Y-15864837D01*
X6977087Y-15864837D02*
X6996134Y-15855313D01*
X6996134Y-15855313D02*
X7024706Y-15855313D01*
X7024706Y-15855313D02*
X7043753Y-15864837D01*
X7043753Y-15864837D02*
X7053277Y-15874360D01*
X7053277Y-15874360D02*
X7062801Y-15893408D01*
X7062801Y-15893408D02*
X7062801Y-15950551D01*
X7062801Y-15950551D02*
X7053277Y-15969598D01*
X7053277Y-15969598D02*
X7043753Y-15979122D01*
X7043753Y-15979122D02*
X7024706Y-15988646D01*
X7024706Y-15988646D02*
X6996134Y-15988646D01*
X7177087Y-15988646D02*
X7158039Y-15979122D01*
X7158039Y-15979122D02*
X7148515Y-15960075D01*
X7148515Y-15960075D02*
X7148515Y-15788646D01*
X7329468Y-15979122D02*
X7310420Y-15988646D01*
X7310420Y-15988646D02*
X7272325Y-15988646D01*
X7272325Y-15988646D02*
X7253277Y-15979122D01*
X7253277Y-15979122D02*
X7243753Y-15960075D01*
X7243753Y-15960075D02*
X7243753Y-15883884D01*
X7243753Y-15883884D02*
X7253277Y-15864837D01*
X7253277Y-15864837D02*
X7272325Y-15855313D01*
X7272325Y-15855313D02*
X7310420Y-15855313D01*
X7310420Y-15855313D02*
X7329468Y-15864837D01*
X7329468Y-15864837D02*
X7338991Y-15883884D01*
X7338991Y-15883884D02*
X7338991Y-15902932D01*
X7338991Y-15902932D02*
X7243753Y-15921979D01*
X7415182Y-15979122D02*
X7434230Y-15988646D01*
X7434230Y-15988646D02*
X7472325Y-15988646D01*
X7472325Y-15988646D02*
X7491372Y-15979122D01*
X7491372Y-15979122D02*
X7500896Y-15960075D01*
X7500896Y-15960075D02*
X7500896Y-15950551D01*
X7500896Y-15950551D02*
X7491372Y-15931503D01*
X7491372Y-15931503D02*
X7472325Y-15921979D01*
X7472325Y-15921979D02*
X7443753Y-15921979D01*
X7443753Y-15921979D02*
X7424706Y-15912456D01*
X7424706Y-15912456D02*
X7415182Y-15893408D01*
X7415182Y-15893408D02*
X7415182Y-15883884D01*
X7415182Y-15883884D02*
X7424706Y-15864837D01*
X7424706Y-15864837D02*
X7443753Y-15855313D01*
X7443753Y-15855313D02*
X7472325Y-15855313D01*
X7472325Y-15855313D02*
X7491372Y-15864837D01*
X7567563Y-16064837D02*
X7577087Y-16055313D01*
X7577087Y-16055313D02*
X7596134Y-16026741D01*
X7596134Y-16026741D02*
X7605658Y-16007694D01*
X7605658Y-16007694D02*
X7615182Y-15979122D01*
X7615182Y-15979122D02*
X7624706Y-15931503D01*
X7624706Y-15931503D02*
X7624706Y-15893408D01*
X7624706Y-15893408D02*
X7615182Y-15845789D01*
X7615182Y-15845789D02*
X7605658Y-15817218D01*
X7605658Y-15817218D02*
X7596134Y-15798170D01*
X7596134Y-15798170D02*
X7577087Y-15769598D01*
X7577087Y-15769598D02*
X7567563Y-15760075D01*
X7929468Y-16064837D02*
X7919944Y-16055313D01*
X7919944Y-16055313D02*
X7900896Y-16026741D01*
X7900896Y-16026741D02*
X7891372Y-16007694D01*
X7891372Y-16007694D02*
X7881849Y-15979122D01*
X7881849Y-15979122D02*
X7872325Y-15931503D01*
X7872325Y-15931503D02*
X7872325Y-15893408D01*
X7872325Y-15893408D02*
X7881849Y-15845789D01*
X7881849Y-15845789D02*
X7891372Y-15817218D01*
X7891372Y-15817218D02*
X7900896Y-15798170D01*
X7900896Y-15798170D02*
X7919944Y-15769598D01*
X7919944Y-15769598D02*
X7929468Y-15760075D01*
X8005658Y-15855313D02*
X8005658Y-15988646D01*
X8005658Y-15874360D02*
X8015182Y-15864837D01*
X8015182Y-15864837D02*
X8034230Y-15855313D01*
X8034230Y-15855313D02*
X8062801Y-15855313D01*
X8062801Y-15855313D02*
X8081849Y-15864837D01*
X8081849Y-15864837D02*
X8091372Y-15883884D01*
X8091372Y-15883884D02*
X8091372Y-15988646D01*
X8215182Y-15988646D02*
X8196134Y-15979122D01*
X8196134Y-15979122D02*
X8186611Y-15969598D01*
X8186611Y-15969598D02*
X8177087Y-15950551D01*
X8177087Y-15950551D02*
X8177087Y-15893408D01*
X8177087Y-15893408D02*
X8186611Y-15874360D01*
X8186611Y-15874360D02*
X8196134Y-15864837D01*
X8196134Y-15864837D02*
X8215182Y-15855313D01*
X8215182Y-15855313D02*
X8243753Y-15855313D01*
X8243753Y-15855313D02*
X8262801Y-15864837D01*
X8262801Y-15864837D02*
X8272325Y-15874360D01*
X8272325Y-15874360D02*
X8281849Y-15893408D01*
X8281849Y-15893408D02*
X8281849Y-15950551D01*
X8281849Y-15950551D02*
X8272325Y-15969598D01*
X8272325Y-15969598D02*
X8262801Y-15979122D01*
X8262801Y-15979122D02*
X8243753Y-15988646D01*
X8243753Y-15988646D02*
X8215182Y-15988646D01*
X8338992Y-15855313D02*
X8415182Y-15855313D01*
X8367563Y-15788646D02*
X8367563Y-15960075D01*
X8367563Y-15960075D02*
X8377087Y-15979122D01*
X8377087Y-15979122D02*
X8396134Y-15988646D01*
X8396134Y-15988646D02*
X8415182Y-15988646D01*
X8634230Y-15855313D02*
X8634230Y-16055313D01*
X8634230Y-15864837D02*
X8653277Y-15855313D01*
X8653277Y-15855313D02*
X8691373Y-15855313D01*
X8691373Y-15855313D02*
X8710420Y-15864837D01*
X8710420Y-15864837D02*
X8719944Y-15874360D01*
X8719944Y-15874360D02*
X8729468Y-15893408D01*
X8729468Y-15893408D02*
X8729468Y-15950551D01*
X8729468Y-15950551D02*
X8719944Y-15969598D01*
X8719944Y-15969598D02*
X8710420Y-15979122D01*
X8710420Y-15979122D02*
X8691373Y-15988646D01*
X8691373Y-15988646D02*
X8653277Y-15988646D01*
X8653277Y-15988646D02*
X8634230Y-15979122D01*
X8843754Y-15988646D02*
X8824706Y-15979122D01*
X8824706Y-15979122D02*
X8815182Y-15960075D01*
X8815182Y-15960075D02*
X8815182Y-15788646D01*
X9005658Y-15988646D02*
X9005658Y-15883884D01*
X9005658Y-15883884D02*
X8996135Y-15864837D01*
X8996135Y-15864837D02*
X8977087Y-15855313D01*
X8977087Y-15855313D02*
X8938992Y-15855313D01*
X8938992Y-15855313D02*
X8919944Y-15864837D01*
X9005658Y-15979122D02*
X8986611Y-15988646D01*
X8986611Y-15988646D02*
X8938992Y-15988646D01*
X8938992Y-15988646D02*
X8919944Y-15979122D01*
X8919944Y-15979122D02*
X8910420Y-15960075D01*
X8910420Y-15960075D02*
X8910420Y-15941027D01*
X8910420Y-15941027D02*
X8919944Y-15921979D01*
X8919944Y-15921979D02*
X8938992Y-15912456D01*
X8938992Y-15912456D02*
X8986611Y-15912456D01*
X8986611Y-15912456D02*
X9005658Y-15902932D01*
X9072325Y-15855313D02*
X9148515Y-15855313D01*
X9100896Y-15788646D02*
X9100896Y-15960075D01*
X9100896Y-15960075D02*
X9110420Y-15979122D01*
X9110420Y-15979122D02*
X9129468Y-15988646D01*
X9129468Y-15988646D02*
X9148515Y-15988646D01*
X9291373Y-15979122D02*
X9272325Y-15988646D01*
X9272325Y-15988646D02*
X9234230Y-15988646D01*
X9234230Y-15988646D02*
X9215182Y-15979122D01*
X9215182Y-15979122D02*
X9205658Y-15960075D01*
X9205658Y-15960075D02*
X9205658Y-15883884D01*
X9205658Y-15883884D02*
X9215182Y-15864837D01*
X9215182Y-15864837D02*
X9234230Y-15855313D01*
X9234230Y-15855313D02*
X9272325Y-15855313D01*
X9272325Y-15855313D02*
X9291373Y-15864837D01*
X9291373Y-15864837D02*
X9300896Y-15883884D01*
X9300896Y-15883884D02*
X9300896Y-15902932D01*
X9300896Y-15902932D02*
X9205658Y-15921979D01*
X9472325Y-15988646D02*
X9472325Y-15788646D01*
X9472325Y-15979122D02*
X9453277Y-15988646D01*
X9453277Y-15988646D02*
X9415182Y-15988646D01*
X9415182Y-15988646D02*
X9396135Y-15979122D01*
X9396135Y-15979122D02*
X9386611Y-15969598D01*
X9386611Y-15969598D02*
X9377087Y-15950551D01*
X9377087Y-15950551D02*
X9377087Y-15893408D01*
X9377087Y-15893408D02*
X9386611Y-15874360D01*
X9386611Y-15874360D02*
X9396135Y-15864837D01*
X9396135Y-15864837D02*
X9415182Y-15855313D01*
X9415182Y-15855313D02*
X9453277Y-15855313D01*
X9453277Y-15855313D02*
X9472325Y-15864837D01*
X9548516Y-16064837D02*
X9558039Y-16055313D01*
X9558039Y-16055313D02*
X9577087Y-16026741D01*
X9577087Y-16026741D02*
X9586611Y-16007694D01*
X9586611Y-16007694D02*
X9596135Y-15979122D01*
X9596135Y-15979122D02*
X9605658Y-15931503D01*
X9605658Y-15931503D02*
X9605658Y-15893408D01*
X9605658Y-15893408D02*
X9596135Y-15845789D01*
X9596135Y-15845789D02*
X9586611Y-15817218D01*
X9586611Y-15817218D02*
X9577087Y-15798170D01*
X9577087Y-15798170D02*
X9558039Y-15769598D01*
X9558039Y-15769598D02*
X9548516Y-15760075D01*
D10*
X2792500Y-16161162D02*
G75*
G02*
X2642500Y-16161162I-75000J0D01*
G01*
X2642500Y-16161162D02*
G75*
G02*
X2792500Y-16161162I75000J0D01*
G01*
D12*
X3158039Y-16252646D02*
X3043753Y-16252646D01*
X3100896Y-16252646D02*
X3100896Y-16052646D01*
X3100896Y-16052646D02*
X3081848Y-16081218D01*
X3081848Y-16081218D02*
X3062801Y-16100265D01*
X3062801Y-16100265D02*
X3043753Y-16109789D01*
X3243753Y-16233598D02*
X3253277Y-16243122D01*
X3253277Y-16243122D02*
X3243753Y-16252646D01*
X3243753Y-16252646D02*
X3234229Y-16243122D01*
X3234229Y-16243122D02*
X3243753Y-16233598D01*
X3243753Y-16233598D02*
X3243753Y-16252646D01*
X3434229Y-16052646D02*
X3338991Y-16052646D01*
X3338991Y-16052646D02*
X3329467Y-16147884D01*
X3329467Y-16147884D02*
X3338991Y-16138360D01*
X3338991Y-16138360D02*
X3358039Y-16128837D01*
X3358039Y-16128837D02*
X3405658Y-16128837D01*
X3405658Y-16128837D02*
X3424705Y-16138360D01*
X3424705Y-16138360D02*
X3434229Y-16147884D01*
X3434229Y-16147884D02*
X3443753Y-16166932D01*
X3443753Y-16166932D02*
X3443753Y-16214551D01*
X3443753Y-16214551D02*
X3434229Y-16233598D01*
X3434229Y-16233598D02*
X3424705Y-16243122D01*
X3424705Y-16243122D02*
X3405658Y-16252646D01*
X3405658Y-16252646D02*
X3358039Y-16252646D01*
X3358039Y-16252646D02*
X3338991Y-16243122D01*
X3338991Y-16243122D02*
X3329467Y-16233598D01*
X3567562Y-16052646D02*
X3586610Y-16052646D01*
X3586610Y-16052646D02*
X3605658Y-16062170D01*
X3605658Y-16062170D02*
X3615182Y-16071694D01*
X3615182Y-16071694D02*
X3624705Y-16090741D01*
X3624705Y-16090741D02*
X3634229Y-16128837D01*
X3634229Y-16128837D02*
X3634229Y-16176456D01*
X3634229Y-16176456D02*
X3624705Y-16214551D01*
X3624705Y-16214551D02*
X3615182Y-16233598D01*
X3615182Y-16233598D02*
X3605658Y-16243122D01*
X3605658Y-16243122D02*
X3586610Y-16252646D01*
X3586610Y-16252646D02*
X3567562Y-16252646D01*
X3567562Y-16252646D02*
X3548515Y-16243122D01*
X3548515Y-16243122D02*
X3538991Y-16233598D01*
X3538991Y-16233598D02*
X3529467Y-16214551D01*
X3529467Y-16214551D02*
X3519943Y-16176456D01*
X3519943Y-16176456D02*
X3519943Y-16128837D01*
X3519943Y-16128837D02*
X3529467Y-16090741D01*
X3529467Y-16090741D02*
X3538991Y-16071694D01*
X3538991Y-16071694D02*
X3548515Y-16062170D01*
X3548515Y-16062170D02*
X3567562Y-16052646D01*
X3758039Y-16052646D02*
X3777086Y-16052646D01*
X3777086Y-16052646D02*
X3796134Y-16062170D01*
X3796134Y-16062170D02*
X3805658Y-16071694D01*
X3805658Y-16071694D02*
X3815182Y-16090741D01*
X3815182Y-16090741D02*
X3824705Y-16128837D01*
X3824705Y-16128837D02*
X3824705Y-16176456D01*
X3824705Y-16176456D02*
X3815182Y-16214551D01*
X3815182Y-16214551D02*
X3805658Y-16233598D01*
X3805658Y-16233598D02*
X3796134Y-16243122D01*
X3796134Y-16243122D02*
X3777086Y-16252646D01*
X3777086Y-16252646D02*
X3758039Y-16252646D01*
X3758039Y-16252646D02*
X3738991Y-16243122D01*
X3738991Y-16243122D02*
X3729467Y-16233598D01*
X3729467Y-16233598D02*
X3719943Y-16214551D01*
X3719943Y-16214551D02*
X3710420Y-16176456D01*
X3710420Y-16176456D02*
X3710420Y-16128837D01*
X3710420Y-16128837D02*
X3719943Y-16090741D01*
X3719943Y-16090741D02*
X3729467Y-16071694D01*
X3729467Y-16071694D02*
X3738991Y-16062170D01*
X3738991Y-16062170D02*
X3758039Y-16052646D01*
X3910420Y-16252646D02*
X3910420Y-16119313D01*
X3910420Y-16138360D02*
X3919943Y-16128837D01*
X3919943Y-16128837D02*
X3938991Y-16119313D01*
X3938991Y-16119313D02*
X3967563Y-16119313D01*
X3967563Y-16119313D02*
X3986610Y-16128837D01*
X3986610Y-16128837D02*
X3996134Y-16147884D01*
X3996134Y-16147884D02*
X3996134Y-16252646D01*
X3996134Y-16147884D02*
X4005658Y-16128837D01*
X4005658Y-16128837D02*
X4024705Y-16119313D01*
X4024705Y-16119313D02*
X4053277Y-16119313D01*
X4053277Y-16119313D02*
X4072324Y-16128837D01*
X4072324Y-16128837D02*
X4081848Y-16147884D01*
X4081848Y-16147884D02*
X4081848Y-16252646D01*
X4177086Y-16252646D02*
X4177086Y-16119313D01*
X4177086Y-16138360D02*
X4186610Y-16128837D01*
X4186610Y-16128837D02*
X4205658Y-16119313D01*
X4205658Y-16119313D02*
X4234229Y-16119313D01*
X4234229Y-16119313D02*
X4253277Y-16128837D01*
X4253277Y-16128837D02*
X4262801Y-16147884D01*
X4262801Y-16147884D02*
X4262801Y-16252646D01*
X4262801Y-16147884D02*
X4272325Y-16128837D01*
X4272325Y-16128837D02*
X4291372Y-16119313D01*
X4291372Y-16119313D02*
X4319944Y-16119313D01*
X4319944Y-16119313D02*
X4338991Y-16128837D01*
X4338991Y-16128837D02*
X4348515Y-16147884D01*
X4348515Y-16147884D02*
X4348515Y-16252646D01*
X4738991Y-16043122D02*
X4567563Y-16300265D01*
X4996134Y-16052646D02*
X5015182Y-16052646D01*
X5015182Y-16052646D02*
X5034229Y-16062170D01*
X5034229Y-16062170D02*
X5043753Y-16071694D01*
X5043753Y-16071694D02*
X5053277Y-16090741D01*
X5053277Y-16090741D02*
X5062801Y-16128837D01*
X5062801Y-16128837D02*
X5062801Y-16176456D01*
X5062801Y-16176456D02*
X5053277Y-16214551D01*
X5053277Y-16214551D02*
X5043753Y-16233598D01*
X5043753Y-16233598D02*
X5034229Y-16243122D01*
X5034229Y-16243122D02*
X5015182Y-16252646D01*
X5015182Y-16252646D02*
X4996134Y-16252646D01*
X4996134Y-16252646D02*
X4977087Y-16243122D01*
X4977087Y-16243122D02*
X4967563Y-16233598D01*
X4967563Y-16233598D02*
X4958039Y-16214551D01*
X4958039Y-16214551D02*
X4948515Y-16176456D01*
X4948515Y-16176456D02*
X4948515Y-16128837D01*
X4948515Y-16128837D02*
X4958039Y-16090741D01*
X4958039Y-16090741D02*
X4967563Y-16071694D01*
X4967563Y-16071694D02*
X4977087Y-16062170D01*
X4977087Y-16062170D02*
X4996134Y-16052646D01*
X5148515Y-16233598D02*
X5158039Y-16243122D01*
X5158039Y-16243122D02*
X5148515Y-16252646D01*
X5148515Y-16252646D02*
X5138991Y-16243122D01*
X5138991Y-16243122D02*
X5148515Y-16233598D01*
X5148515Y-16233598D02*
X5148515Y-16252646D01*
X5281848Y-16052646D02*
X5300896Y-16052646D01*
X5300896Y-16052646D02*
X5319944Y-16062170D01*
X5319944Y-16062170D02*
X5329468Y-16071694D01*
X5329468Y-16071694D02*
X5338991Y-16090741D01*
X5338991Y-16090741D02*
X5348515Y-16128837D01*
X5348515Y-16128837D02*
X5348515Y-16176456D01*
X5348515Y-16176456D02*
X5338991Y-16214551D01*
X5338991Y-16214551D02*
X5329468Y-16233598D01*
X5329468Y-16233598D02*
X5319944Y-16243122D01*
X5319944Y-16243122D02*
X5300896Y-16252646D01*
X5300896Y-16252646D02*
X5281848Y-16252646D01*
X5281848Y-16252646D02*
X5262801Y-16243122D01*
X5262801Y-16243122D02*
X5253277Y-16233598D01*
X5253277Y-16233598D02*
X5243753Y-16214551D01*
X5243753Y-16214551D02*
X5234229Y-16176456D01*
X5234229Y-16176456D02*
X5234229Y-16128837D01*
X5234229Y-16128837D02*
X5243753Y-16090741D01*
X5243753Y-16090741D02*
X5253277Y-16071694D01*
X5253277Y-16071694D02*
X5262801Y-16062170D01*
X5262801Y-16062170D02*
X5281848Y-16052646D01*
X5529468Y-16052646D02*
X5434229Y-16052646D01*
X5434229Y-16052646D02*
X5424706Y-16147884D01*
X5424706Y-16147884D02*
X5434229Y-16138360D01*
X5434229Y-16138360D02*
X5453277Y-16128837D01*
X5453277Y-16128837D02*
X5500896Y-16128837D01*
X5500896Y-16128837D02*
X5519944Y-16138360D01*
X5519944Y-16138360D02*
X5529468Y-16147884D01*
X5529468Y-16147884D02*
X5538991Y-16166932D01*
X5538991Y-16166932D02*
X5538991Y-16214551D01*
X5538991Y-16214551D02*
X5529468Y-16233598D01*
X5529468Y-16233598D02*
X5519944Y-16243122D01*
X5519944Y-16243122D02*
X5500896Y-16252646D01*
X5500896Y-16252646D02*
X5453277Y-16252646D01*
X5453277Y-16252646D02*
X5434229Y-16243122D01*
X5434229Y-16243122D02*
X5424706Y-16233598D01*
X5634229Y-16252646D02*
X5672325Y-16252646D01*
X5672325Y-16252646D02*
X5691372Y-16243122D01*
X5691372Y-16243122D02*
X5700896Y-16233598D01*
X5700896Y-16233598D02*
X5719944Y-16205027D01*
X5719944Y-16205027D02*
X5729467Y-16166932D01*
X5729467Y-16166932D02*
X5729467Y-16090741D01*
X5729467Y-16090741D02*
X5719944Y-16071694D01*
X5719944Y-16071694D02*
X5710420Y-16062170D01*
X5710420Y-16062170D02*
X5691372Y-16052646D01*
X5691372Y-16052646D02*
X5653277Y-16052646D01*
X5653277Y-16052646D02*
X5634229Y-16062170D01*
X5634229Y-16062170D02*
X5624706Y-16071694D01*
X5624706Y-16071694D02*
X5615182Y-16090741D01*
X5615182Y-16090741D02*
X5615182Y-16138360D01*
X5615182Y-16138360D02*
X5624706Y-16157408D01*
X5624706Y-16157408D02*
X5634229Y-16166932D01*
X5634229Y-16166932D02*
X5653277Y-16176456D01*
X5653277Y-16176456D02*
X5691372Y-16176456D01*
X5691372Y-16176456D02*
X5710420Y-16166932D01*
X5710420Y-16166932D02*
X5719944Y-16157408D01*
X5719944Y-16157408D02*
X5729467Y-16138360D01*
X5919944Y-16252646D02*
X5805658Y-16252646D01*
X5862801Y-16252646D02*
X5862801Y-16052646D01*
X5862801Y-16052646D02*
X5843753Y-16081218D01*
X5843753Y-16081218D02*
X5824706Y-16100265D01*
X5824706Y-16100265D02*
X5805658Y-16109789D01*
X5996134Y-16052646D02*
X5996134Y-16090741D01*
X6072325Y-16052646D02*
X6072325Y-16090741D01*
X6367563Y-16328837D02*
X6358039Y-16319313D01*
X6358039Y-16319313D02*
X6338991Y-16290741D01*
X6338991Y-16290741D02*
X6329468Y-16271694D01*
X6329468Y-16271694D02*
X6319944Y-16243122D01*
X6319944Y-16243122D02*
X6310420Y-16195503D01*
X6310420Y-16195503D02*
X6310420Y-16157408D01*
X6310420Y-16157408D02*
X6319944Y-16109789D01*
X6319944Y-16109789D02*
X6329468Y-16081218D01*
X6329468Y-16081218D02*
X6338991Y-16062170D01*
X6338991Y-16062170D02*
X6358039Y-16033598D01*
X6358039Y-16033598D02*
X6367563Y-16024075D01*
X6529468Y-16119313D02*
X6529468Y-16252646D01*
X6481848Y-16043122D02*
X6434229Y-16185979D01*
X6434229Y-16185979D02*
X6558039Y-16185979D01*
X6786610Y-16252646D02*
X6786610Y-16052646D01*
X6872325Y-16252646D02*
X6872325Y-16147884D01*
X6872325Y-16147884D02*
X6862801Y-16128837D01*
X6862801Y-16128837D02*
X6843753Y-16119313D01*
X6843753Y-16119313D02*
X6815182Y-16119313D01*
X6815182Y-16119313D02*
X6796134Y-16128837D01*
X6796134Y-16128837D02*
X6786610Y-16138360D01*
X6996134Y-16252646D02*
X6977087Y-16243122D01*
X6977087Y-16243122D02*
X6967563Y-16233598D01*
X6967563Y-16233598D02*
X6958039Y-16214551D01*
X6958039Y-16214551D02*
X6958039Y-16157408D01*
X6958039Y-16157408D02*
X6967563Y-16138360D01*
X6967563Y-16138360D02*
X6977087Y-16128837D01*
X6977087Y-16128837D02*
X6996134Y-16119313D01*
X6996134Y-16119313D02*
X7024706Y-16119313D01*
X7024706Y-16119313D02*
X7043753Y-16128837D01*
X7043753Y-16128837D02*
X7053277Y-16138360D01*
X7053277Y-16138360D02*
X7062801Y-16157408D01*
X7062801Y-16157408D02*
X7062801Y-16214551D01*
X7062801Y-16214551D02*
X7053277Y-16233598D01*
X7053277Y-16233598D02*
X7043753Y-16243122D01*
X7043753Y-16243122D02*
X7024706Y-16252646D01*
X7024706Y-16252646D02*
X6996134Y-16252646D01*
X7177087Y-16252646D02*
X7158039Y-16243122D01*
X7158039Y-16243122D02*
X7148515Y-16224075D01*
X7148515Y-16224075D02*
X7148515Y-16052646D01*
X7329468Y-16243122D02*
X7310420Y-16252646D01*
X7310420Y-16252646D02*
X7272325Y-16252646D01*
X7272325Y-16252646D02*
X7253277Y-16243122D01*
X7253277Y-16243122D02*
X7243753Y-16224075D01*
X7243753Y-16224075D02*
X7243753Y-16147884D01*
X7243753Y-16147884D02*
X7253277Y-16128837D01*
X7253277Y-16128837D02*
X7272325Y-16119313D01*
X7272325Y-16119313D02*
X7310420Y-16119313D01*
X7310420Y-16119313D02*
X7329468Y-16128837D01*
X7329468Y-16128837D02*
X7338991Y-16147884D01*
X7338991Y-16147884D02*
X7338991Y-16166932D01*
X7338991Y-16166932D02*
X7243753Y-16185979D01*
X7415182Y-16243122D02*
X7434230Y-16252646D01*
X7434230Y-16252646D02*
X7472325Y-16252646D01*
X7472325Y-16252646D02*
X7491372Y-16243122D01*
X7491372Y-16243122D02*
X7500896Y-16224075D01*
X7500896Y-16224075D02*
X7500896Y-16214551D01*
X7500896Y-16214551D02*
X7491372Y-16195503D01*
X7491372Y-16195503D02*
X7472325Y-16185979D01*
X7472325Y-16185979D02*
X7443753Y-16185979D01*
X7443753Y-16185979D02*
X7424706Y-16176456D01*
X7424706Y-16176456D02*
X7415182Y-16157408D01*
X7415182Y-16157408D02*
X7415182Y-16147884D01*
X7415182Y-16147884D02*
X7424706Y-16128837D01*
X7424706Y-16128837D02*
X7443753Y-16119313D01*
X7443753Y-16119313D02*
X7472325Y-16119313D01*
X7472325Y-16119313D02*
X7491372Y-16128837D01*
X7567563Y-16328837D02*
X7577087Y-16319313D01*
X7577087Y-16319313D02*
X7596134Y-16290741D01*
X7596134Y-16290741D02*
X7605658Y-16271694D01*
X7605658Y-16271694D02*
X7615182Y-16243122D01*
X7615182Y-16243122D02*
X7624706Y-16195503D01*
X7624706Y-16195503D02*
X7624706Y-16157408D01*
X7624706Y-16157408D02*
X7615182Y-16109789D01*
X7615182Y-16109789D02*
X7605658Y-16081218D01*
X7605658Y-16081218D02*
X7596134Y-16062170D01*
X7596134Y-16062170D02*
X7577087Y-16033598D01*
X7577087Y-16033598D02*
X7567563Y-16024075D01*
X7929468Y-16328837D02*
X7919944Y-16319313D01*
X7919944Y-16319313D02*
X7900896Y-16290741D01*
X7900896Y-16290741D02*
X7891372Y-16271694D01*
X7891372Y-16271694D02*
X7881849Y-16243122D01*
X7881849Y-16243122D02*
X7872325Y-16195503D01*
X7872325Y-16195503D02*
X7872325Y-16157408D01*
X7872325Y-16157408D02*
X7881849Y-16109789D01*
X7881849Y-16109789D02*
X7891372Y-16081218D01*
X7891372Y-16081218D02*
X7900896Y-16062170D01*
X7900896Y-16062170D02*
X7919944Y-16033598D01*
X7919944Y-16033598D02*
X7929468Y-16024075D01*
X8005658Y-16119313D02*
X8005658Y-16252646D01*
X8005658Y-16138360D02*
X8015182Y-16128837D01*
X8015182Y-16128837D02*
X8034230Y-16119313D01*
X8034230Y-16119313D02*
X8062801Y-16119313D01*
X8062801Y-16119313D02*
X8081849Y-16128837D01*
X8081849Y-16128837D02*
X8091372Y-16147884D01*
X8091372Y-16147884D02*
X8091372Y-16252646D01*
X8215182Y-16252646D02*
X8196134Y-16243122D01*
X8196134Y-16243122D02*
X8186611Y-16233598D01*
X8186611Y-16233598D02*
X8177087Y-16214551D01*
X8177087Y-16214551D02*
X8177087Y-16157408D01*
X8177087Y-16157408D02*
X8186611Y-16138360D01*
X8186611Y-16138360D02*
X8196134Y-16128837D01*
X8196134Y-16128837D02*
X8215182Y-16119313D01*
X8215182Y-16119313D02*
X8243753Y-16119313D01*
X8243753Y-16119313D02*
X8262801Y-16128837D01*
X8262801Y-16128837D02*
X8272325Y-16138360D01*
X8272325Y-16138360D02*
X8281849Y-16157408D01*
X8281849Y-16157408D02*
X8281849Y-16214551D01*
X8281849Y-16214551D02*
X8272325Y-16233598D01*
X8272325Y-16233598D02*
X8262801Y-16243122D01*
X8262801Y-16243122D02*
X8243753Y-16252646D01*
X8243753Y-16252646D02*
X8215182Y-16252646D01*
X8338992Y-16119313D02*
X8415182Y-16119313D01*
X8367563Y-16052646D02*
X8367563Y-16224075D01*
X8367563Y-16224075D02*
X8377087Y-16243122D01*
X8377087Y-16243122D02*
X8396134Y-16252646D01*
X8396134Y-16252646D02*
X8415182Y-16252646D01*
X8634230Y-16119313D02*
X8634230Y-16319313D01*
X8634230Y-16128837D02*
X8653277Y-16119313D01*
X8653277Y-16119313D02*
X8691373Y-16119313D01*
X8691373Y-16119313D02*
X8710420Y-16128837D01*
X8710420Y-16128837D02*
X8719944Y-16138360D01*
X8719944Y-16138360D02*
X8729468Y-16157408D01*
X8729468Y-16157408D02*
X8729468Y-16214551D01*
X8729468Y-16214551D02*
X8719944Y-16233598D01*
X8719944Y-16233598D02*
X8710420Y-16243122D01*
X8710420Y-16243122D02*
X8691373Y-16252646D01*
X8691373Y-16252646D02*
X8653277Y-16252646D01*
X8653277Y-16252646D02*
X8634230Y-16243122D01*
X8843754Y-16252646D02*
X8824706Y-16243122D01*
X8824706Y-16243122D02*
X8815182Y-16224075D01*
X8815182Y-16224075D02*
X8815182Y-16052646D01*
X9005658Y-16252646D02*
X9005658Y-16147884D01*
X9005658Y-16147884D02*
X8996135Y-16128837D01*
X8996135Y-16128837D02*
X8977087Y-16119313D01*
X8977087Y-16119313D02*
X8938992Y-16119313D01*
X8938992Y-16119313D02*
X8919944Y-16128837D01*
X9005658Y-16243122D02*
X8986611Y-16252646D01*
X8986611Y-16252646D02*
X8938992Y-16252646D01*
X8938992Y-16252646D02*
X8919944Y-16243122D01*
X8919944Y-16243122D02*
X8910420Y-16224075D01*
X8910420Y-16224075D02*
X8910420Y-16205027D01*
X8910420Y-16205027D02*
X8919944Y-16185979D01*
X8919944Y-16185979D02*
X8938992Y-16176456D01*
X8938992Y-16176456D02*
X8986611Y-16176456D01*
X8986611Y-16176456D02*
X9005658Y-16166932D01*
X9072325Y-16119313D02*
X9148515Y-16119313D01*
X9100896Y-16052646D02*
X9100896Y-16224075D01*
X9100896Y-16224075D02*
X9110420Y-16243122D01*
X9110420Y-16243122D02*
X9129468Y-16252646D01*
X9129468Y-16252646D02*
X9148515Y-16252646D01*
X9291373Y-16243122D02*
X9272325Y-16252646D01*
X9272325Y-16252646D02*
X9234230Y-16252646D01*
X9234230Y-16252646D02*
X9215182Y-16243122D01*
X9215182Y-16243122D02*
X9205658Y-16224075D01*
X9205658Y-16224075D02*
X9205658Y-16147884D01*
X9205658Y-16147884D02*
X9215182Y-16128837D01*
X9215182Y-16128837D02*
X9234230Y-16119313D01*
X9234230Y-16119313D02*
X9272325Y-16119313D01*
X9272325Y-16119313D02*
X9291373Y-16128837D01*
X9291373Y-16128837D02*
X9300896Y-16147884D01*
X9300896Y-16147884D02*
X9300896Y-16166932D01*
X9300896Y-16166932D02*
X9205658Y-16185979D01*
X9472325Y-16252646D02*
X9472325Y-16052646D01*
X9472325Y-16243122D02*
X9453277Y-16252646D01*
X9453277Y-16252646D02*
X9415182Y-16252646D01*
X9415182Y-16252646D02*
X9396135Y-16243122D01*
X9396135Y-16243122D02*
X9386611Y-16233598D01*
X9386611Y-16233598D02*
X9377087Y-16214551D01*
X9377087Y-16214551D02*
X9377087Y-16157408D01*
X9377087Y-16157408D02*
X9386611Y-16138360D01*
X9386611Y-16138360D02*
X9396135Y-16128837D01*
X9396135Y-16128837D02*
X9415182Y-16119313D01*
X9415182Y-16119313D02*
X9453277Y-16119313D01*
X9453277Y-16119313D02*
X9472325Y-16128837D01*
X9548516Y-16328837D02*
X9558039Y-16319313D01*
X9558039Y-16319313D02*
X9577087Y-16290741D01*
X9577087Y-16290741D02*
X9586611Y-16271694D01*
X9586611Y-16271694D02*
X9596135Y-16243122D01*
X9596135Y-16243122D02*
X9605658Y-16195503D01*
X9605658Y-16195503D02*
X9605658Y-16157408D01*
X9605658Y-16157408D02*
X9596135Y-16109789D01*
X9596135Y-16109789D02*
X9586611Y-16081218D01*
X9586611Y-16081218D02*
X9577087Y-16062170D01*
X9577087Y-16062170D02*
X9558039Y-16033598D01*
X9558039Y-16033598D02*
X9548516Y-16024075D01*
D14*
X2697500Y-16336162D02*
X2697500Y-16526162D01*
X2602500Y-16431162D02*
X2792500Y-16431162D01*
D12*
X3158039Y-16522646D02*
X3043753Y-16522646D01*
X3100896Y-16522646D02*
X3100896Y-16322646D01*
X3100896Y-16322646D02*
X3081848Y-16351218D01*
X3081848Y-16351218D02*
X3062801Y-16370265D01*
X3062801Y-16370265D02*
X3043753Y-16379789D01*
X3243753Y-16503598D02*
X3253277Y-16513122D01*
X3253277Y-16513122D02*
X3243753Y-16522646D01*
X3243753Y-16522646D02*
X3234229Y-16513122D01*
X3234229Y-16513122D02*
X3243753Y-16503598D01*
X3243753Y-16503598D02*
X3243753Y-16522646D01*
X3348515Y-16522646D02*
X3386610Y-16522646D01*
X3386610Y-16522646D02*
X3405658Y-16513122D01*
X3405658Y-16513122D02*
X3415182Y-16503598D01*
X3415182Y-16503598D02*
X3434229Y-16475027D01*
X3434229Y-16475027D02*
X3443753Y-16436932D01*
X3443753Y-16436932D02*
X3443753Y-16360741D01*
X3443753Y-16360741D02*
X3434229Y-16341694D01*
X3434229Y-16341694D02*
X3424705Y-16332170D01*
X3424705Y-16332170D02*
X3405658Y-16322646D01*
X3405658Y-16322646D02*
X3367562Y-16322646D01*
X3367562Y-16322646D02*
X3348515Y-16332170D01*
X3348515Y-16332170D02*
X3338991Y-16341694D01*
X3338991Y-16341694D02*
X3329467Y-16360741D01*
X3329467Y-16360741D02*
X3329467Y-16408360D01*
X3329467Y-16408360D02*
X3338991Y-16427408D01*
X3338991Y-16427408D02*
X3348515Y-16436932D01*
X3348515Y-16436932D02*
X3367562Y-16446456D01*
X3367562Y-16446456D02*
X3405658Y-16446456D01*
X3405658Y-16446456D02*
X3424705Y-16436932D01*
X3424705Y-16436932D02*
X3434229Y-16427408D01*
X3434229Y-16427408D02*
X3443753Y-16408360D01*
X3567562Y-16322646D02*
X3586610Y-16322646D01*
X3586610Y-16322646D02*
X3605658Y-16332170D01*
X3605658Y-16332170D02*
X3615182Y-16341694D01*
X3615182Y-16341694D02*
X3624705Y-16360741D01*
X3624705Y-16360741D02*
X3634229Y-16398837D01*
X3634229Y-16398837D02*
X3634229Y-16446456D01*
X3634229Y-16446456D02*
X3624705Y-16484551D01*
X3624705Y-16484551D02*
X3615182Y-16503598D01*
X3615182Y-16503598D02*
X3605658Y-16513122D01*
X3605658Y-16513122D02*
X3586610Y-16522646D01*
X3586610Y-16522646D02*
X3567562Y-16522646D01*
X3567562Y-16522646D02*
X3548515Y-16513122D01*
X3548515Y-16513122D02*
X3538991Y-16503598D01*
X3538991Y-16503598D02*
X3529467Y-16484551D01*
X3529467Y-16484551D02*
X3519943Y-16446456D01*
X3519943Y-16446456D02*
X3519943Y-16398837D01*
X3519943Y-16398837D02*
X3529467Y-16360741D01*
X3529467Y-16360741D02*
X3538991Y-16341694D01*
X3538991Y-16341694D02*
X3548515Y-16332170D01*
X3548515Y-16332170D02*
X3567562Y-16322646D01*
X3758039Y-16322646D02*
X3777086Y-16322646D01*
X3777086Y-16322646D02*
X3796134Y-16332170D01*
X3796134Y-16332170D02*
X3805658Y-16341694D01*
X3805658Y-16341694D02*
X3815182Y-16360741D01*
X3815182Y-16360741D02*
X3824705Y-16398837D01*
X3824705Y-16398837D02*
X3824705Y-16446456D01*
X3824705Y-16446456D02*
X3815182Y-16484551D01*
X3815182Y-16484551D02*
X3805658Y-16503598D01*
X3805658Y-16503598D02*
X3796134Y-16513122D01*
X3796134Y-16513122D02*
X3777086Y-16522646D01*
X3777086Y-16522646D02*
X3758039Y-16522646D01*
X3758039Y-16522646D02*
X3738991Y-16513122D01*
X3738991Y-16513122D02*
X3729467Y-16503598D01*
X3729467Y-16503598D02*
X3719943Y-16484551D01*
X3719943Y-16484551D02*
X3710420Y-16446456D01*
X3710420Y-16446456D02*
X3710420Y-16398837D01*
X3710420Y-16398837D02*
X3719943Y-16360741D01*
X3719943Y-16360741D02*
X3729467Y-16341694D01*
X3729467Y-16341694D02*
X3738991Y-16332170D01*
X3738991Y-16332170D02*
X3758039Y-16322646D01*
X3910420Y-16522646D02*
X3910420Y-16389313D01*
X3910420Y-16408360D02*
X3919943Y-16398837D01*
X3919943Y-16398837D02*
X3938991Y-16389313D01*
X3938991Y-16389313D02*
X3967563Y-16389313D01*
X3967563Y-16389313D02*
X3986610Y-16398837D01*
X3986610Y-16398837D02*
X3996134Y-16417884D01*
X3996134Y-16417884D02*
X3996134Y-16522646D01*
X3996134Y-16417884D02*
X4005658Y-16398837D01*
X4005658Y-16398837D02*
X4024705Y-16389313D01*
X4024705Y-16389313D02*
X4053277Y-16389313D01*
X4053277Y-16389313D02*
X4072324Y-16398837D01*
X4072324Y-16398837D02*
X4081848Y-16417884D01*
X4081848Y-16417884D02*
X4081848Y-16522646D01*
X4177086Y-16522646D02*
X4177086Y-16389313D01*
X4177086Y-16408360D02*
X4186610Y-16398837D01*
X4186610Y-16398837D02*
X4205658Y-16389313D01*
X4205658Y-16389313D02*
X4234229Y-16389313D01*
X4234229Y-16389313D02*
X4253277Y-16398837D01*
X4253277Y-16398837D02*
X4262801Y-16417884D01*
X4262801Y-16417884D02*
X4262801Y-16522646D01*
X4262801Y-16417884D02*
X4272325Y-16398837D01*
X4272325Y-16398837D02*
X4291372Y-16389313D01*
X4291372Y-16389313D02*
X4319944Y-16389313D01*
X4319944Y-16389313D02*
X4338991Y-16398837D01*
X4338991Y-16398837D02*
X4348515Y-16417884D01*
X4348515Y-16417884D02*
X4348515Y-16522646D01*
X4738991Y-16313122D02*
X4567563Y-16570265D01*
X4996134Y-16322646D02*
X5015182Y-16322646D01*
X5015182Y-16322646D02*
X5034229Y-16332170D01*
X5034229Y-16332170D02*
X5043753Y-16341694D01*
X5043753Y-16341694D02*
X5053277Y-16360741D01*
X5053277Y-16360741D02*
X5062801Y-16398837D01*
X5062801Y-16398837D02*
X5062801Y-16446456D01*
X5062801Y-16446456D02*
X5053277Y-16484551D01*
X5053277Y-16484551D02*
X5043753Y-16503598D01*
X5043753Y-16503598D02*
X5034229Y-16513122D01*
X5034229Y-16513122D02*
X5015182Y-16522646D01*
X5015182Y-16522646D02*
X4996134Y-16522646D01*
X4996134Y-16522646D02*
X4977087Y-16513122D01*
X4977087Y-16513122D02*
X4967563Y-16503598D01*
X4967563Y-16503598D02*
X4958039Y-16484551D01*
X4958039Y-16484551D02*
X4948515Y-16446456D01*
X4948515Y-16446456D02*
X4948515Y-16398837D01*
X4948515Y-16398837D02*
X4958039Y-16360741D01*
X4958039Y-16360741D02*
X4967563Y-16341694D01*
X4967563Y-16341694D02*
X4977087Y-16332170D01*
X4977087Y-16332170D02*
X4996134Y-16322646D01*
X5148515Y-16503598D02*
X5158039Y-16513122D01*
X5158039Y-16513122D02*
X5148515Y-16522646D01*
X5148515Y-16522646D02*
X5138991Y-16513122D01*
X5138991Y-16513122D02*
X5148515Y-16503598D01*
X5148515Y-16503598D02*
X5148515Y-16522646D01*
X5281848Y-16322646D02*
X5300896Y-16322646D01*
X5300896Y-16322646D02*
X5319944Y-16332170D01*
X5319944Y-16332170D02*
X5329468Y-16341694D01*
X5329468Y-16341694D02*
X5338991Y-16360741D01*
X5338991Y-16360741D02*
X5348515Y-16398837D01*
X5348515Y-16398837D02*
X5348515Y-16446456D01*
X5348515Y-16446456D02*
X5338991Y-16484551D01*
X5338991Y-16484551D02*
X5329468Y-16503598D01*
X5329468Y-16503598D02*
X5319944Y-16513122D01*
X5319944Y-16513122D02*
X5300896Y-16522646D01*
X5300896Y-16522646D02*
X5281848Y-16522646D01*
X5281848Y-16522646D02*
X5262801Y-16513122D01*
X5262801Y-16513122D02*
X5253277Y-16503598D01*
X5253277Y-16503598D02*
X5243753Y-16484551D01*
X5243753Y-16484551D02*
X5234229Y-16446456D01*
X5234229Y-16446456D02*
X5234229Y-16398837D01*
X5234229Y-16398837D02*
X5243753Y-16360741D01*
X5243753Y-16360741D02*
X5253277Y-16341694D01*
X5253277Y-16341694D02*
X5262801Y-16332170D01*
X5262801Y-16332170D02*
X5281848Y-16322646D01*
X5415182Y-16322646D02*
X5548515Y-16322646D01*
X5548515Y-16322646D02*
X5462801Y-16522646D01*
X5710420Y-16389313D02*
X5710420Y-16522646D01*
X5662801Y-16313122D02*
X5615182Y-16455979D01*
X5615182Y-16455979D02*
X5738991Y-16455979D01*
X5843753Y-16408360D02*
X5824706Y-16398837D01*
X5824706Y-16398837D02*
X5815182Y-16389313D01*
X5815182Y-16389313D02*
X5805658Y-16370265D01*
X5805658Y-16370265D02*
X5805658Y-16360741D01*
X5805658Y-16360741D02*
X5815182Y-16341694D01*
X5815182Y-16341694D02*
X5824706Y-16332170D01*
X5824706Y-16332170D02*
X5843753Y-16322646D01*
X5843753Y-16322646D02*
X5881848Y-16322646D01*
X5881848Y-16322646D02*
X5900896Y-16332170D01*
X5900896Y-16332170D02*
X5910420Y-16341694D01*
X5910420Y-16341694D02*
X5919944Y-16360741D01*
X5919944Y-16360741D02*
X5919944Y-16370265D01*
X5919944Y-16370265D02*
X5910420Y-16389313D01*
X5910420Y-16389313D02*
X5900896Y-16398837D01*
X5900896Y-16398837D02*
X5881848Y-16408360D01*
X5881848Y-16408360D02*
X5843753Y-16408360D01*
X5843753Y-16408360D02*
X5824706Y-16417884D01*
X5824706Y-16417884D02*
X5815182Y-16427408D01*
X5815182Y-16427408D02*
X5805658Y-16446456D01*
X5805658Y-16446456D02*
X5805658Y-16484551D01*
X5805658Y-16484551D02*
X5815182Y-16503598D01*
X5815182Y-16503598D02*
X5824706Y-16513122D01*
X5824706Y-16513122D02*
X5843753Y-16522646D01*
X5843753Y-16522646D02*
X5881848Y-16522646D01*
X5881848Y-16522646D02*
X5900896Y-16513122D01*
X5900896Y-16513122D02*
X5910420Y-16503598D01*
X5910420Y-16503598D02*
X5919944Y-16484551D01*
X5919944Y-16484551D02*
X5919944Y-16446456D01*
X5919944Y-16446456D02*
X5910420Y-16427408D01*
X5910420Y-16427408D02*
X5900896Y-16417884D01*
X5900896Y-16417884D02*
X5881848Y-16408360D01*
X5996134Y-16322646D02*
X5996134Y-16360741D01*
X6072325Y-16322646D02*
X6072325Y-16360741D01*
X6367563Y-16598837D02*
X6358039Y-16589313D01*
X6358039Y-16589313D02*
X6338991Y-16560741D01*
X6338991Y-16560741D02*
X6329468Y-16541694D01*
X6329468Y-16541694D02*
X6319944Y-16513122D01*
X6319944Y-16513122D02*
X6310420Y-16465503D01*
X6310420Y-16465503D02*
X6310420Y-16427408D01*
X6310420Y-16427408D02*
X6319944Y-16379789D01*
X6319944Y-16379789D02*
X6329468Y-16351218D01*
X6329468Y-16351218D02*
X6338991Y-16332170D01*
X6338991Y-16332170D02*
X6358039Y-16303598D01*
X6358039Y-16303598D02*
X6367563Y-16294075D01*
X6538991Y-16322646D02*
X6443753Y-16322646D01*
X6443753Y-16322646D02*
X6434229Y-16417884D01*
X6434229Y-16417884D02*
X6443753Y-16408360D01*
X6443753Y-16408360D02*
X6462801Y-16398837D01*
X6462801Y-16398837D02*
X6510420Y-16398837D01*
X6510420Y-16398837D02*
X6529468Y-16408360D01*
X6529468Y-16408360D02*
X6538991Y-16417884D01*
X6538991Y-16417884D02*
X6548515Y-16436932D01*
X6548515Y-16436932D02*
X6548515Y-16484551D01*
X6548515Y-16484551D02*
X6538991Y-16503598D01*
X6538991Y-16503598D02*
X6529468Y-16513122D01*
X6529468Y-16513122D02*
X6510420Y-16522646D01*
X6510420Y-16522646D02*
X6462801Y-16522646D01*
X6462801Y-16522646D02*
X6443753Y-16513122D01*
X6443753Y-16513122D02*
X6434229Y-16503598D01*
X6662801Y-16408360D02*
X6643753Y-16398837D01*
X6643753Y-16398837D02*
X6634229Y-16389313D01*
X6634229Y-16389313D02*
X6624706Y-16370265D01*
X6624706Y-16370265D02*
X6624706Y-16360741D01*
X6624706Y-16360741D02*
X6634229Y-16341694D01*
X6634229Y-16341694D02*
X6643753Y-16332170D01*
X6643753Y-16332170D02*
X6662801Y-16322646D01*
X6662801Y-16322646D02*
X6700896Y-16322646D01*
X6700896Y-16322646D02*
X6719944Y-16332170D01*
X6719944Y-16332170D02*
X6729468Y-16341694D01*
X6729468Y-16341694D02*
X6738991Y-16360741D01*
X6738991Y-16360741D02*
X6738991Y-16370265D01*
X6738991Y-16370265D02*
X6729468Y-16389313D01*
X6729468Y-16389313D02*
X6719944Y-16398837D01*
X6719944Y-16398837D02*
X6700896Y-16408360D01*
X6700896Y-16408360D02*
X6662801Y-16408360D01*
X6662801Y-16408360D02*
X6643753Y-16417884D01*
X6643753Y-16417884D02*
X6634229Y-16427408D01*
X6634229Y-16427408D02*
X6624706Y-16446456D01*
X6624706Y-16446456D02*
X6624706Y-16484551D01*
X6624706Y-16484551D02*
X6634229Y-16503598D01*
X6634229Y-16503598D02*
X6643753Y-16513122D01*
X6643753Y-16513122D02*
X6662801Y-16522646D01*
X6662801Y-16522646D02*
X6700896Y-16522646D01*
X6700896Y-16522646D02*
X6719944Y-16513122D01*
X6719944Y-16513122D02*
X6729468Y-16503598D01*
X6729468Y-16503598D02*
X6738991Y-16484551D01*
X6738991Y-16484551D02*
X6738991Y-16446456D01*
X6738991Y-16446456D02*
X6729468Y-16427408D01*
X6729468Y-16427408D02*
X6719944Y-16417884D01*
X6719944Y-16417884D02*
X6700896Y-16408360D01*
X6977087Y-16522646D02*
X6977087Y-16322646D01*
X7062801Y-16522646D02*
X7062801Y-16417884D01*
X7062801Y-16417884D02*
X7053277Y-16398837D01*
X7053277Y-16398837D02*
X7034230Y-16389313D01*
X7034230Y-16389313D02*
X7005658Y-16389313D01*
X7005658Y-16389313D02*
X6986610Y-16398837D01*
X6986610Y-16398837D02*
X6977087Y-16408360D01*
X7186610Y-16522646D02*
X7167563Y-16513122D01*
X7167563Y-16513122D02*
X7158039Y-16503598D01*
X7158039Y-16503598D02*
X7148515Y-16484551D01*
X7148515Y-16484551D02*
X7148515Y-16427408D01*
X7148515Y-16427408D02*
X7158039Y-16408360D01*
X7158039Y-16408360D02*
X7167563Y-16398837D01*
X7167563Y-16398837D02*
X7186610Y-16389313D01*
X7186610Y-16389313D02*
X7215182Y-16389313D01*
X7215182Y-16389313D02*
X7234230Y-16398837D01*
X7234230Y-16398837D02*
X7243753Y-16408360D01*
X7243753Y-16408360D02*
X7253277Y-16427408D01*
X7253277Y-16427408D02*
X7253277Y-16484551D01*
X7253277Y-16484551D02*
X7243753Y-16503598D01*
X7243753Y-16503598D02*
X7234230Y-16513122D01*
X7234230Y-16513122D02*
X7215182Y-16522646D01*
X7215182Y-16522646D02*
X7186610Y-16522646D01*
X7367563Y-16522646D02*
X7348515Y-16513122D01*
X7348515Y-16513122D02*
X7338991Y-16494075D01*
X7338991Y-16494075D02*
X7338991Y-16322646D01*
X7519944Y-16513122D02*
X7500896Y-16522646D01*
X7500896Y-16522646D02*
X7462801Y-16522646D01*
X7462801Y-16522646D02*
X7443753Y-16513122D01*
X7443753Y-16513122D02*
X7434230Y-16494075D01*
X7434230Y-16494075D02*
X7434230Y-16417884D01*
X7434230Y-16417884D02*
X7443753Y-16398837D01*
X7443753Y-16398837D02*
X7462801Y-16389313D01*
X7462801Y-16389313D02*
X7500896Y-16389313D01*
X7500896Y-16389313D02*
X7519944Y-16398837D01*
X7519944Y-16398837D02*
X7529468Y-16417884D01*
X7529468Y-16417884D02*
X7529468Y-16436932D01*
X7529468Y-16436932D02*
X7434230Y-16455979D01*
X7605658Y-16513122D02*
X7624706Y-16522646D01*
X7624706Y-16522646D02*
X7662801Y-16522646D01*
X7662801Y-16522646D02*
X7681849Y-16513122D01*
X7681849Y-16513122D02*
X7691372Y-16494075D01*
X7691372Y-16494075D02*
X7691372Y-16484551D01*
X7691372Y-16484551D02*
X7681849Y-16465503D01*
X7681849Y-16465503D02*
X7662801Y-16455979D01*
X7662801Y-16455979D02*
X7634230Y-16455979D01*
X7634230Y-16455979D02*
X7615182Y-16446456D01*
X7615182Y-16446456D02*
X7605658Y-16427408D01*
X7605658Y-16427408D02*
X7605658Y-16417884D01*
X7605658Y-16417884D02*
X7615182Y-16398837D01*
X7615182Y-16398837D02*
X7634230Y-16389313D01*
X7634230Y-16389313D02*
X7662801Y-16389313D01*
X7662801Y-16389313D02*
X7681849Y-16398837D01*
X7758039Y-16598837D02*
X7767563Y-16589313D01*
X7767563Y-16589313D02*
X7786611Y-16560741D01*
X7786611Y-16560741D02*
X7796134Y-16541694D01*
X7796134Y-16541694D02*
X7805658Y-16513122D01*
X7805658Y-16513122D02*
X7815182Y-16465503D01*
X7815182Y-16465503D02*
X7815182Y-16427408D01*
X7815182Y-16427408D02*
X7805658Y-16379789D01*
X7805658Y-16379789D02*
X7796134Y-16351218D01*
X7796134Y-16351218D02*
X7786611Y-16332170D01*
X7786611Y-16332170D02*
X7767563Y-16303598D01*
X7767563Y-16303598D02*
X7758039Y-16294075D01*
X8119944Y-16598837D02*
X8110420Y-16589313D01*
X8110420Y-16589313D02*
X8091372Y-16560741D01*
X8091372Y-16560741D02*
X8081849Y-16541694D01*
X8081849Y-16541694D02*
X8072325Y-16513122D01*
X8072325Y-16513122D02*
X8062801Y-16465503D01*
X8062801Y-16465503D02*
X8062801Y-16427408D01*
X8062801Y-16427408D02*
X8072325Y-16379789D01*
X8072325Y-16379789D02*
X8081849Y-16351218D01*
X8081849Y-16351218D02*
X8091372Y-16332170D01*
X8091372Y-16332170D02*
X8110420Y-16303598D01*
X8110420Y-16303598D02*
X8119944Y-16294075D01*
X8196134Y-16389313D02*
X8196134Y-16522646D01*
X8196134Y-16408360D02*
X8205658Y-16398837D01*
X8205658Y-16398837D02*
X8224706Y-16389313D01*
X8224706Y-16389313D02*
X8253277Y-16389313D01*
X8253277Y-16389313D02*
X8272325Y-16398837D01*
X8272325Y-16398837D02*
X8281849Y-16417884D01*
X8281849Y-16417884D02*
X8281849Y-16522646D01*
X8405658Y-16522646D02*
X8386611Y-16513122D01*
X8386611Y-16513122D02*
X8377087Y-16503598D01*
X8377087Y-16503598D02*
X8367563Y-16484551D01*
X8367563Y-16484551D02*
X8367563Y-16427408D01*
X8367563Y-16427408D02*
X8377087Y-16408360D01*
X8377087Y-16408360D02*
X8386611Y-16398837D01*
X8386611Y-16398837D02*
X8405658Y-16389313D01*
X8405658Y-16389313D02*
X8434230Y-16389313D01*
X8434230Y-16389313D02*
X8453277Y-16398837D01*
X8453277Y-16398837D02*
X8462801Y-16408360D01*
X8462801Y-16408360D02*
X8472325Y-16427408D01*
X8472325Y-16427408D02*
X8472325Y-16484551D01*
X8472325Y-16484551D02*
X8462801Y-16503598D01*
X8462801Y-16503598D02*
X8453277Y-16513122D01*
X8453277Y-16513122D02*
X8434230Y-16522646D01*
X8434230Y-16522646D02*
X8405658Y-16522646D01*
X8529468Y-16389313D02*
X8605658Y-16389313D01*
X8558039Y-16322646D02*
X8558039Y-16494075D01*
X8558039Y-16494075D02*
X8567563Y-16513122D01*
X8567563Y-16513122D02*
X8586611Y-16522646D01*
X8586611Y-16522646D02*
X8605658Y-16522646D01*
X8824706Y-16389313D02*
X8824706Y-16589313D01*
X8824706Y-16398837D02*
X8843754Y-16389313D01*
X8843754Y-16389313D02*
X8881849Y-16389313D01*
X8881849Y-16389313D02*
X8900896Y-16398837D01*
X8900896Y-16398837D02*
X8910420Y-16408360D01*
X8910420Y-16408360D02*
X8919944Y-16427408D01*
X8919944Y-16427408D02*
X8919944Y-16484551D01*
X8919944Y-16484551D02*
X8910420Y-16503598D01*
X8910420Y-16503598D02*
X8900896Y-16513122D01*
X8900896Y-16513122D02*
X8881849Y-16522646D01*
X8881849Y-16522646D02*
X8843754Y-16522646D01*
X8843754Y-16522646D02*
X8824706Y-16513122D01*
X9034230Y-16522646D02*
X9015182Y-16513122D01*
X9015182Y-16513122D02*
X9005658Y-16494075D01*
X9005658Y-16494075D02*
X9005658Y-16322646D01*
X9196135Y-16522646D02*
X9196135Y-16417884D01*
X9196135Y-16417884D02*
X9186611Y-16398837D01*
X9186611Y-16398837D02*
X9167563Y-16389313D01*
X9167563Y-16389313D02*
X9129468Y-16389313D01*
X9129468Y-16389313D02*
X9110420Y-16398837D01*
X9196135Y-16513122D02*
X9177087Y-16522646D01*
X9177087Y-16522646D02*
X9129468Y-16522646D01*
X9129468Y-16522646D02*
X9110420Y-16513122D01*
X9110420Y-16513122D02*
X9100896Y-16494075D01*
X9100896Y-16494075D02*
X9100896Y-16475027D01*
X9100896Y-16475027D02*
X9110420Y-16455979D01*
X9110420Y-16455979D02*
X9129468Y-16446456D01*
X9129468Y-16446456D02*
X9177087Y-16446456D01*
X9177087Y-16446456D02*
X9196135Y-16436932D01*
X9262801Y-16389313D02*
X9338992Y-16389313D01*
X9291373Y-16322646D02*
X9291373Y-16494075D01*
X9291373Y-16494075D02*
X9300896Y-16513122D01*
X9300896Y-16513122D02*
X9319944Y-16522646D01*
X9319944Y-16522646D02*
X9338992Y-16522646D01*
X9481849Y-16513122D02*
X9462801Y-16522646D01*
X9462801Y-16522646D02*
X9424706Y-16522646D01*
X9424706Y-16522646D02*
X9405658Y-16513122D01*
X9405658Y-16513122D02*
X9396135Y-16494075D01*
X9396135Y-16494075D02*
X9396135Y-16417884D01*
X9396135Y-16417884D02*
X9405658Y-16398837D01*
X9405658Y-16398837D02*
X9424706Y-16389313D01*
X9424706Y-16389313D02*
X9462801Y-16389313D01*
X9462801Y-16389313D02*
X9481849Y-16398837D01*
X9481849Y-16398837D02*
X9491373Y-16417884D01*
X9491373Y-16417884D02*
X9491373Y-16436932D01*
X9491373Y-16436932D02*
X9396135Y-16455979D01*
X9662801Y-16522646D02*
X9662801Y-16322646D01*
X9662801Y-16513122D02*
X9643754Y-16522646D01*
X9643754Y-16522646D02*
X9605658Y-16522646D01*
X9605658Y-16522646D02*
X9586611Y-16513122D01*
X9586611Y-16513122D02*
X9577087Y-16503598D01*
X9577087Y-16503598D02*
X9567563Y-16484551D01*
X9567563Y-16484551D02*
X9567563Y-16427408D01*
X9567563Y-16427408D02*
X9577087Y-16408360D01*
X9577087Y-16408360D02*
X9586611Y-16398837D01*
X9586611Y-16398837D02*
X9605658Y-16389313D01*
X9605658Y-16389313D02*
X9643754Y-16389313D01*
X9643754Y-16389313D02*
X9662801Y-16398837D01*
X9738992Y-16598837D02*
X9748516Y-16589313D01*
X9748516Y-16589313D02*
X9767563Y-16560741D01*
X9767563Y-16560741D02*
X9777087Y-16541694D01*
X9777087Y-16541694D02*
X9786611Y-16513122D01*
X9786611Y-16513122D02*
X9796135Y-16465503D01*
X9796135Y-16465503D02*
X9796135Y-16427408D01*
X9796135Y-16427408D02*
X9786611Y-16379789D01*
X9786611Y-16379789D02*
X9777087Y-16351218D01*
X9777087Y-16351218D02*
X9767563Y-16332170D01*
X9767563Y-16332170D02*
X9748516Y-16303598D01*
X9748516Y-16303598D02*
X9738992Y-16294075D01*
X2763211Y-16811874D02*
X2763211Y-16670451D01*
X2621789Y-16670451D01*
X2621789Y-16811874D01*
X2763211Y-16811874D01*
X3034229Y-16632646D02*
X3158039Y-16632646D01*
X3158039Y-16632646D02*
X3091372Y-16708837D01*
X3091372Y-16708837D02*
X3119943Y-16708837D01*
X3119943Y-16708837D02*
X3138991Y-16718360D01*
X3138991Y-16718360D02*
X3148515Y-16727884D01*
X3148515Y-16727884D02*
X3158039Y-16746932D01*
X3158039Y-16746932D02*
X3158039Y-16794551D01*
X3158039Y-16794551D02*
X3148515Y-16813599D01*
X3148515Y-16813599D02*
X3138991Y-16823122D01*
X3138991Y-16823122D02*
X3119943Y-16832646D01*
X3119943Y-16832646D02*
X3062801Y-16832646D01*
X3062801Y-16832646D02*
X3043753Y-16823122D01*
X3043753Y-16823122D02*
X3034229Y-16813599D01*
X3243753Y-16813599D02*
X3253277Y-16823122D01*
X3253277Y-16823122D02*
X3243753Y-16832646D01*
X3243753Y-16832646D02*
X3234229Y-16823122D01*
X3234229Y-16823122D02*
X3243753Y-16813599D01*
X3243753Y-16813599D02*
X3243753Y-16832646D01*
X3377086Y-16632646D02*
X3396134Y-16632646D01*
X3396134Y-16632646D02*
X3415182Y-16642170D01*
X3415182Y-16642170D02*
X3424705Y-16651694D01*
X3424705Y-16651694D02*
X3434229Y-16670741D01*
X3434229Y-16670741D02*
X3443753Y-16708837D01*
X3443753Y-16708837D02*
X3443753Y-16756456D01*
X3443753Y-16756456D02*
X3434229Y-16794551D01*
X3434229Y-16794551D02*
X3424705Y-16813599D01*
X3424705Y-16813599D02*
X3415182Y-16823122D01*
X3415182Y-16823122D02*
X3396134Y-16832646D01*
X3396134Y-16832646D02*
X3377086Y-16832646D01*
X3377086Y-16832646D02*
X3358039Y-16823122D01*
X3358039Y-16823122D02*
X3348515Y-16813599D01*
X3348515Y-16813599D02*
X3338991Y-16794551D01*
X3338991Y-16794551D02*
X3329467Y-16756456D01*
X3329467Y-16756456D02*
X3329467Y-16708837D01*
X3329467Y-16708837D02*
X3338991Y-16670741D01*
X3338991Y-16670741D02*
X3348515Y-16651694D01*
X3348515Y-16651694D02*
X3358039Y-16642170D01*
X3358039Y-16642170D02*
X3377086Y-16632646D01*
X3567562Y-16632646D02*
X3586610Y-16632646D01*
X3586610Y-16632646D02*
X3605658Y-16642170D01*
X3605658Y-16642170D02*
X3615182Y-16651694D01*
X3615182Y-16651694D02*
X3624705Y-16670741D01*
X3624705Y-16670741D02*
X3634229Y-16708837D01*
X3634229Y-16708837D02*
X3634229Y-16756456D01*
X3634229Y-16756456D02*
X3624705Y-16794551D01*
X3624705Y-16794551D02*
X3615182Y-16813599D01*
X3615182Y-16813599D02*
X3605658Y-16823122D01*
X3605658Y-16823122D02*
X3586610Y-16832646D01*
X3586610Y-16832646D02*
X3567562Y-16832646D01*
X3567562Y-16832646D02*
X3548515Y-16823122D01*
X3548515Y-16823122D02*
X3538991Y-16813599D01*
X3538991Y-16813599D02*
X3529467Y-16794551D01*
X3529467Y-16794551D02*
X3519943Y-16756456D01*
X3519943Y-16756456D02*
X3519943Y-16708837D01*
X3519943Y-16708837D02*
X3529467Y-16670741D01*
X3529467Y-16670741D02*
X3538991Y-16651694D01*
X3538991Y-16651694D02*
X3548515Y-16642170D01*
X3548515Y-16642170D02*
X3567562Y-16632646D01*
X3758039Y-16632646D02*
X3777086Y-16632646D01*
X3777086Y-16632646D02*
X3796134Y-16642170D01*
X3796134Y-16642170D02*
X3805658Y-16651694D01*
X3805658Y-16651694D02*
X3815182Y-16670741D01*
X3815182Y-16670741D02*
X3824705Y-16708837D01*
X3824705Y-16708837D02*
X3824705Y-16756456D01*
X3824705Y-16756456D02*
X3815182Y-16794551D01*
X3815182Y-16794551D02*
X3805658Y-16813599D01*
X3805658Y-16813599D02*
X3796134Y-16823122D01*
X3796134Y-16823122D02*
X3777086Y-16832646D01*
X3777086Y-16832646D02*
X3758039Y-16832646D01*
X3758039Y-16832646D02*
X3738991Y-16823122D01*
X3738991Y-16823122D02*
X3729467Y-16813599D01*
X3729467Y-16813599D02*
X3719943Y-16794551D01*
X3719943Y-16794551D02*
X3710420Y-16756456D01*
X3710420Y-16756456D02*
X3710420Y-16708837D01*
X3710420Y-16708837D02*
X3719943Y-16670741D01*
X3719943Y-16670741D02*
X3729467Y-16651694D01*
X3729467Y-16651694D02*
X3738991Y-16642170D01*
X3738991Y-16642170D02*
X3758039Y-16632646D01*
X3910420Y-16832646D02*
X3910420Y-16699313D01*
X3910420Y-16718360D02*
X3919943Y-16708837D01*
X3919943Y-16708837D02*
X3938991Y-16699313D01*
X3938991Y-16699313D02*
X3967563Y-16699313D01*
X3967563Y-16699313D02*
X3986610Y-16708837D01*
X3986610Y-16708837D02*
X3996134Y-16727884D01*
X3996134Y-16727884D02*
X3996134Y-16832646D01*
X3996134Y-16727884D02*
X4005658Y-16708837D01*
X4005658Y-16708837D02*
X4024705Y-16699313D01*
X4024705Y-16699313D02*
X4053277Y-16699313D01*
X4053277Y-16699313D02*
X4072324Y-16708837D01*
X4072324Y-16708837D02*
X4081848Y-16727884D01*
X4081848Y-16727884D02*
X4081848Y-16832646D01*
X4177086Y-16832646D02*
X4177086Y-16699313D01*
X4177086Y-16718360D02*
X4186610Y-16708837D01*
X4186610Y-16708837D02*
X4205658Y-16699313D01*
X4205658Y-16699313D02*
X4234229Y-16699313D01*
X4234229Y-16699313D02*
X4253277Y-16708837D01*
X4253277Y-16708837D02*
X4262801Y-16727884D01*
X4262801Y-16727884D02*
X4262801Y-16832646D01*
X4262801Y-16727884D02*
X4272325Y-16708837D01*
X4272325Y-16708837D02*
X4291372Y-16699313D01*
X4291372Y-16699313D02*
X4319944Y-16699313D01*
X4319944Y-16699313D02*
X4338991Y-16708837D01*
X4338991Y-16708837D02*
X4348515Y-16727884D01*
X4348515Y-16727884D02*
X4348515Y-16832646D01*
X4738991Y-16623122D02*
X4567563Y-16880265D01*
X4996134Y-16632646D02*
X5015182Y-16632646D01*
X5015182Y-16632646D02*
X5034229Y-16642170D01*
X5034229Y-16642170D02*
X5043753Y-16651694D01*
X5043753Y-16651694D02*
X5053277Y-16670741D01*
X5053277Y-16670741D02*
X5062801Y-16708837D01*
X5062801Y-16708837D02*
X5062801Y-16756456D01*
X5062801Y-16756456D02*
X5053277Y-16794551D01*
X5053277Y-16794551D02*
X5043753Y-16813599D01*
X5043753Y-16813599D02*
X5034229Y-16823122D01*
X5034229Y-16823122D02*
X5015182Y-16832646D01*
X5015182Y-16832646D02*
X4996134Y-16832646D01*
X4996134Y-16832646D02*
X4977087Y-16823122D01*
X4977087Y-16823122D02*
X4967563Y-16813599D01*
X4967563Y-16813599D02*
X4958039Y-16794551D01*
X4958039Y-16794551D02*
X4948515Y-16756456D01*
X4948515Y-16756456D02*
X4948515Y-16708837D01*
X4948515Y-16708837D02*
X4958039Y-16670741D01*
X4958039Y-16670741D02*
X4967563Y-16651694D01*
X4967563Y-16651694D02*
X4977087Y-16642170D01*
X4977087Y-16642170D02*
X4996134Y-16632646D01*
X5148515Y-16813599D02*
X5158039Y-16823122D01*
X5158039Y-16823122D02*
X5148515Y-16832646D01*
X5148515Y-16832646D02*
X5138991Y-16823122D01*
X5138991Y-16823122D02*
X5148515Y-16813599D01*
X5148515Y-16813599D02*
X5148515Y-16832646D01*
X5348515Y-16832646D02*
X5234229Y-16832646D01*
X5291372Y-16832646D02*
X5291372Y-16632646D01*
X5291372Y-16632646D02*
X5272325Y-16661218D01*
X5272325Y-16661218D02*
X5253277Y-16680265D01*
X5253277Y-16680265D02*
X5234229Y-16689789D01*
X5538991Y-16832646D02*
X5424706Y-16832646D01*
X5481848Y-16832646D02*
X5481848Y-16632646D01*
X5481848Y-16632646D02*
X5462801Y-16661218D01*
X5462801Y-16661218D02*
X5443753Y-16680265D01*
X5443753Y-16680265D02*
X5424706Y-16689789D01*
X5653277Y-16718360D02*
X5634229Y-16708837D01*
X5634229Y-16708837D02*
X5624706Y-16699313D01*
X5624706Y-16699313D02*
X5615182Y-16680265D01*
X5615182Y-16680265D02*
X5615182Y-16670741D01*
X5615182Y-16670741D02*
X5624706Y-16651694D01*
X5624706Y-16651694D02*
X5634229Y-16642170D01*
X5634229Y-16642170D02*
X5653277Y-16632646D01*
X5653277Y-16632646D02*
X5691372Y-16632646D01*
X5691372Y-16632646D02*
X5710420Y-16642170D01*
X5710420Y-16642170D02*
X5719944Y-16651694D01*
X5719944Y-16651694D02*
X5729467Y-16670741D01*
X5729467Y-16670741D02*
X5729467Y-16680265D01*
X5729467Y-16680265D02*
X5719944Y-16699313D01*
X5719944Y-16699313D02*
X5710420Y-16708837D01*
X5710420Y-16708837D02*
X5691372Y-16718360D01*
X5691372Y-16718360D02*
X5653277Y-16718360D01*
X5653277Y-16718360D02*
X5634229Y-16727884D01*
X5634229Y-16727884D02*
X5624706Y-16737408D01*
X5624706Y-16737408D02*
X5615182Y-16756456D01*
X5615182Y-16756456D02*
X5615182Y-16794551D01*
X5615182Y-16794551D02*
X5624706Y-16813599D01*
X5624706Y-16813599D02*
X5634229Y-16823122D01*
X5634229Y-16823122D02*
X5653277Y-16832646D01*
X5653277Y-16832646D02*
X5691372Y-16832646D01*
X5691372Y-16832646D02*
X5710420Y-16823122D01*
X5710420Y-16823122D02*
X5719944Y-16813599D01*
X5719944Y-16813599D02*
X5729467Y-16794551D01*
X5729467Y-16794551D02*
X5729467Y-16756456D01*
X5729467Y-16756456D02*
X5719944Y-16737408D01*
X5719944Y-16737408D02*
X5710420Y-16727884D01*
X5710420Y-16727884D02*
X5691372Y-16718360D01*
X5919944Y-16832646D02*
X5805658Y-16832646D01*
X5862801Y-16832646D02*
X5862801Y-16632646D01*
X5862801Y-16632646D02*
X5843753Y-16661218D01*
X5843753Y-16661218D02*
X5824706Y-16680265D01*
X5824706Y-16680265D02*
X5805658Y-16689789D01*
X5996134Y-16632646D02*
X5996134Y-16670741D01*
X6072325Y-16632646D02*
X6072325Y-16670741D01*
X6367563Y-16908837D02*
X6358039Y-16899313D01*
X6358039Y-16899313D02*
X6338991Y-16870741D01*
X6338991Y-16870741D02*
X6329468Y-16851694D01*
X6329468Y-16851694D02*
X6319944Y-16823122D01*
X6319944Y-16823122D02*
X6310420Y-16775503D01*
X6310420Y-16775503D02*
X6310420Y-16737408D01*
X6310420Y-16737408D02*
X6319944Y-16689789D01*
X6319944Y-16689789D02*
X6329468Y-16661218D01*
X6329468Y-16661218D02*
X6338991Y-16642170D01*
X6338991Y-16642170D02*
X6358039Y-16613598D01*
X6358039Y-16613598D02*
X6367563Y-16604075D01*
X6472325Y-16718360D02*
X6453277Y-16708837D01*
X6453277Y-16708837D02*
X6443753Y-16699313D01*
X6443753Y-16699313D02*
X6434229Y-16680265D01*
X6434229Y-16680265D02*
X6434229Y-16670741D01*
X6434229Y-16670741D02*
X6443753Y-16651694D01*
X6443753Y-16651694D02*
X6453277Y-16642170D01*
X6453277Y-16642170D02*
X6472325Y-16632646D01*
X6472325Y-16632646D02*
X6510420Y-16632646D01*
X6510420Y-16632646D02*
X6529468Y-16642170D01*
X6529468Y-16642170D02*
X6538991Y-16651694D01*
X6538991Y-16651694D02*
X6548515Y-16670741D01*
X6548515Y-16670741D02*
X6548515Y-16680265D01*
X6548515Y-16680265D02*
X6538991Y-16699313D01*
X6538991Y-16699313D02*
X6529468Y-16708837D01*
X6529468Y-16708837D02*
X6510420Y-16718360D01*
X6510420Y-16718360D02*
X6472325Y-16718360D01*
X6472325Y-16718360D02*
X6453277Y-16727884D01*
X6453277Y-16727884D02*
X6443753Y-16737408D01*
X6443753Y-16737408D02*
X6434229Y-16756456D01*
X6434229Y-16756456D02*
X6434229Y-16794551D01*
X6434229Y-16794551D02*
X6443753Y-16813599D01*
X6443753Y-16813599D02*
X6453277Y-16823122D01*
X6453277Y-16823122D02*
X6472325Y-16832646D01*
X6472325Y-16832646D02*
X6510420Y-16832646D01*
X6510420Y-16832646D02*
X6529468Y-16823122D01*
X6529468Y-16823122D02*
X6538991Y-16813599D01*
X6538991Y-16813599D02*
X6548515Y-16794551D01*
X6548515Y-16794551D02*
X6548515Y-16756456D01*
X6548515Y-16756456D02*
X6538991Y-16737408D01*
X6538991Y-16737408D02*
X6529468Y-16727884D01*
X6529468Y-16727884D02*
X6510420Y-16718360D01*
X6615182Y-16632646D02*
X6748515Y-16632646D01*
X6748515Y-16632646D02*
X6662801Y-16832646D01*
X6977087Y-16832646D02*
X6977087Y-16632646D01*
X7062801Y-16832646D02*
X7062801Y-16727884D01*
X7062801Y-16727884D02*
X7053277Y-16708837D01*
X7053277Y-16708837D02*
X7034230Y-16699313D01*
X7034230Y-16699313D02*
X7005658Y-16699313D01*
X7005658Y-16699313D02*
X6986610Y-16708837D01*
X6986610Y-16708837D02*
X6977087Y-16718360D01*
X7186610Y-16832646D02*
X7167563Y-16823122D01*
X7167563Y-16823122D02*
X7158039Y-16813599D01*
X7158039Y-16813599D02*
X7148515Y-16794551D01*
X7148515Y-16794551D02*
X7148515Y-16737408D01*
X7148515Y-16737408D02*
X7158039Y-16718360D01*
X7158039Y-16718360D02*
X7167563Y-16708837D01*
X7167563Y-16708837D02*
X7186610Y-16699313D01*
X7186610Y-16699313D02*
X7215182Y-16699313D01*
X7215182Y-16699313D02*
X7234230Y-16708837D01*
X7234230Y-16708837D02*
X7243753Y-16718360D01*
X7243753Y-16718360D02*
X7253277Y-16737408D01*
X7253277Y-16737408D02*
X7253277Y-16794551D01*
X7253277Y-16794551D02*
X7243753Y-16813599D01*
X7243753Y-16813599D02*
X7234230Y-16823122D01*
X7234230Y-16823122D02*
X7215182Y-16832646D01*
X7215182Y-16832646D02*
X7186610Y-16832646D01*
X7367563Y-16832646D02*
X7348515Y-16823122D01*
X7348515Y-16823122D02*
X7338991Y-16804075D01*
X7338991Y-16804075D02*
X7338991Y-16632646D01*
X7519944Y-16823122D02*
X7500896Y-16832646D01*
X7500896Y-16832646D02*
X7462801Y-16832646D01*
X7462801Y-16832646D02*
X7443753Y-16823122D01*
X7443753Y-16823122D02*
X7434230Y-16804075D01*
X7434230Y-16804075D02*
X7434230Y-16727884D01*
X7434230Y-16727884D02*
X7443753Y-16708837D01*
X7443753Y-16708837D02*
X7462801Y-16699313D01*
X7462801Y-16699313D02*
X7500896Y-16699313D01*
X7500896Y-16699313D02*
X7519944Y-16708837D01*
X7519944Y-16708837D02*
X7529468Y-16727884D01*
X7529468Y-16727884D02*
X7529468Y-16746932D01*
X7529468Y-16746932D02*
X7434230Y-16765979D01*
X7605658Y-16823122D02*
X7624706Y-16832646D01*
X7624706Y-16832646D02*
X7662801Y-16832646D01*
X7662801Y-16832646D02*
X7681849Y-16823122D01*
X7681849Y-16823122D02*
X7691372Y-16804075D01*
X7691372Y-16804075D02*
X7691372Y-16794551D01*
X7691372Y-16794551D02*
X7681849Y-16775503D01*
X7681849Y-16775503D02*
X7662801Y-16765979D01*
X7662801Y-16765979D02*
X7634230Y-16765979D01*
X7634230Y-16765979D02*
X7615182Y-16756456D01*
X7615182Y-16756456D02*
X7605658Y-16737408D01*
X7605658Y-16737408D02*
X7605658Y-16727884D01*
X7605658Y-16727884D02*
X7615182Y-16708837D01*
X7615182Y-16708837D02*
X7634230Y-16699313D01*
X7634230Y-16699313D02*
X7662801Y-16699313D01*
X7662801Y-16699313D02*
X7681849Y-16708837D01*
X7758039Y-16908837D02*
X7767563Y-16899313D01*
X7767563Y-16899313D02*
X7786611Y-16870741D01*
X7786611Y-16870741D02*
X7796134Y-16851694D01*
X7796134Y-16851694D02*
X7805658Y-16823122D01*
X7805658Y-16823122D02*
X7815182Y-16775503D01*
X7815182Y-16775503D02*
X7815182Y-16737408D01*
X7815182Y-16737408D02*
X7805658Y-16689789D01*
X7805658Y-16689789D02*
X7796134Y-16661218D01*
X7796134Y-16661218D02*
X7786611Y-16642170D01*
X7786611Y-16642170D02*
X7767563Y-16613598D01*
X7767563Y-16613598D02*
X7758039Y-16604075D01*
X8119944Y-16908837D02*
X8110420Y-16899313D01*
X8110420Y-16899313D02*
X8091372Y-16870741D01*
X8091372Y-16870741D02*
X8081849Y-16851694D01*
X8081849Y-16851694D02*
X8072325Y-16823122D01*
X8072325Y-16823122D02*
X8062801Y-16775503D01*
X8062801Y-16775503D02*
X8062801Y-16737408D01*
X8062801Y-16737408D02*
X8072325Y-16689789D01*
X8072325Y-16689789D02*
X8081849Y-16661218D01*
X8081849Y-16661218D02*
X8091372Y-16642170D01*
X8091372Y-16642170D02*
X8110420Y-16613598D01*
X8110420Y-16613598D02*
X8119944Y-16604075D01*
X8196134Y-16699313D02*
X8196134Y-16832646D01*
X8196134Y-16718360D02*
X8205658Y-16708837D01*
X8205658Y-16708837D02*
X8224706Y-16699313D01*
X8224706Y-16699313D02*
X8253277Y-16699313D01*
X8253277Y-16699313D02*
X8272325Y-16708837D01*
X8272325Y-16708837D02*
X8281849Y-16727884D01*
X8281849Y-16727884D02*
X8281849Y-16832646D01*
X8405658Y-16832646D02*
X8386611Y-16823122D01*
X8386611Y-16823122D02*
X8377087Y-16813599D01*
X8377087Y-16813599D02*
X8367563Y-16794551D01*
X8367563Y-16794551D02*
X8367563Y-16737408D01*
X8367563Y-16737408D02*
X8377087Y-16718360D01*
X8377087Y-16718360D02*
X8386611Y-16708837D01*
X8386611Y-16708837D02*
X8405658Y-16699313D01*
X8405658Y-16699313D02*
X8434230Y-16699313D01*
X8434230Y-16699313D02*
X8453277Y-16708837D01*
X8453277Y-16708837D02*
X8462801Y-16718360D01*
X8462801Y-16718360D02*
X8472325Y-16737408D01*
X8472325Y-16737408D02*
X8472325Y-16794551D01*
X8472325Y-16794551D02*
X8462801Y-16813599D01*
X8462801Y-16813599D02*
X8453277Y-16823122D01*
X8453277Y-16823122D02*
X8434230Y-16832646D01*
X8434230Y-16832646D02*
X8405658Y-16832646D01*
X8529468Y-16699313D02*
X8605658Y-16699313D01*
X8558039Y-16632646D02*
X8558039Y-16804075D01*
X8558039Y-16804075D02*
X8567563Y-16823122D01*
X8567563Y-16823122D02*
X8586611Y-16832646D01*
X8586611Y-16832646D02*
X8605658Y-16832646D01*
X8824706Y-16699313D02*
X8824706Y-16899313D01*
X8824706Y-16708837D02*
X8843754Y-16699313D01*
X8843754Y-16699313D02*
X8881849Y-16699313D01*
X8881849Y-16699313D02*
X8900896Y-16708837D01*
X8900896Y-16708837D02*
X8910420Y-16718360D01*
X8910420Y-16718360D02*
X8919944Y-16737408D01*
X8919944Y-16737408D02*
X8919944Y-16794551D01*
X8919944Y-16794551D02*
X8910420Y-16813599D01*
X8910420Y-16813599D02*
X8900896Y-16823122D01*
X8900896Y-16823122D02*
X8881849Y-16832646D01*
X8881849Y-16832646D02*
X8843754Y-16832646D01*
X8843754Y-16832646D02*
X8824706Y-16823122D01*
X9034230Y-16832646D02*
X9015182Y-16823122D01*
X9015182Y-16823122D02*
X9005658Y-16804075D01*
X9005658Y-16804075D02*
X9005658Y-16632646D01*
X9196135Y-16832646D02*
X9196135Y-16727884D01*
X9196135Y-16727884D02*
X9186611Y-16708837D01*
X9186611Y-16708837D02*
X9167563Y-16699313D01*
X9167563Y-16699313D02*
X9129468Y-16699313D01*
X9129468Y-16699313D02*
X9110420Y-16708837D01*
X9196135Y-16823122D02*
X9177087Y-16832646D01*
X9177087Y-16832646D02*
X9129468Y-16832646D01*
X9129468Y-16832646D02*
X9110420Y-16823122D01*
X9110420Y-16823122D02*
X9100896Y-16804075D01*
X9100896Y-16804075D02*
X9100896Y-16785027D01*
X9100896Y-16785027D02*
X9110420Y-16765979D01*
X9110420Y-16765979D02*
X9129468Y-16756456D01*
X9129468Y-16756456D02*
X9177087Y-16756456D01*
X9177087Y-16756456D02*
X9196135Y-16746932D01*
X9262801Y-16699313D02*
X9338992Y-16699313D01*
X9291373Y-16632646D02*
X9291373Y-16804075D01*
X9291373Y-16804075D02*
X9300896Y-16823122D01*
X9300896Y-16823122D02*
X9319944Y-16832646D01*
X9319944Y-16832646D02*
X9338992Y-16832646D01*
X9481849Y-16823122D02*
X9462801Y-16832646D01*
X9462801Y-16832646D02*
X9424706Y-16832646D01*
X9424706Y-16832646D02*
X9405658Y-16823122D01*
X9405658Y-16823122D02*
X9396135Y-16804075D01*
X9396135Y-16804075D02*
X9396135Y-16727884D01*
X9396135Y-16727884D02*
X9405658Y-16708837D01*
X9405658Y-16708837D02*
X9424706Y-16699313D01*
X9424706Y-16699313D02*
X9462801Y-16699313D01*
X9462801Y-16699313D02*
X9481849Y-16708837D01*
X9481849Y-16708837D02*
X9491373Y-16727884D01*
X9491373Y-16727884D02*
X9491373Y-16746932D01*
X9491373Y-16746932D02*
X9396135Y-16765979D01*
X9662801Y-16832646D02*
X9662801Y-16632646D01*
X9662801Y-16823122D02*
X9643754Y-16832646D01*
X9643754Y-16832646D02*
X9605658Y-16832646D01*
X9605658Y-16832646D02*
X9586611Y-16823122D01*
X9586611Y-16823122D02*
X9577087Y-16813599D01*
X9577087Y-16813599D02*
X9567563Y-16794551D01*
X9567563Y-16794551D02*
X9567563Y-16737408D01*
X9567563Y-16737408D02*
X9577087Y-16718360D01*
X9577087Y-16718360D02*
X9586611Y-16708837D01*
X9586611Y-16708837D02*
X9605658Y-16699313D01*
X9605658Y-16699313D02*
X9643754Y-16699313D01*
X9643754Y-16699313D02*
X9662801Y-16708837D01*
X9738992Y-16908837D02*
X9748516Y-16899313D01*
X9748516Y-16899313D02*
X9767563Y-16870741D01*
X9767563Y-16870741D02*
X9777087Y-16851694D01*
X9777087Y-16851694D02*
X9786611Y-16823122D01*
X9786611Y-16823122D02*
X9796135Y-16775503D01*
X9796135Y-16775503D02*
X9796135Y-16737408D01*
X9796135Y-16737408D02*
X9786611Y-16689789D01*
X9786611Y-16689789D02*
X9777087Y-16661218D01*
X9777087Y-16661218D02*
X9767563Y-16642170D01*
X9767563Y-16642170D02*
X9748516Y-16613598D01*
X9748516Y-16613598D02*
X9738992Y-16604075D01*
X2692500Y-17161162D02*
X2792500Y-17061162D01*
X2692500Y-16961162D01*
X2592500Y-17061162D01*
X2692500Y-17161162D01*
X3034229Y-16952646D02*
X3158039Y-16952646D01*
X3158039Y-16952646D02*
X3091372Y-17028837D01*
X3091372Y-17028837D02*
X3119943Y-17028837D01*
X3119943Y-17028837D02*
X3138991Y-17038360D01*
X3138991Y-17038360D02*
X3148515Y-17047884D01*
X3148515Y-17047884D02*
X3158039Y-17066932D01*
X3158039Y-17066932D02*
X3158039Y-17114551D01*
X3158039Y-17114551D02*
X3148515Y-17133599D01*
X3148515Y-17133599D02*
X3138991Y-17143122D01*
X3138991Y-17143122D02*
X3119943Y-17152646D01*
X3119943Y-17152646D02*
X3062801Y-17152646D01*
X3062801Y-17152646D02*
X3043753Y-17143122D01*
X3043753Y-17143122D02*
X3034229Y-17133599D01*
X3243753Y-17133599D02*
X3253277Y-17143122D01*
X3253277Y-17143122D02*
X3243753Y-17152646D01*
X3243753Y-17152646D02*
X3234229Y-17143122D01*
X3234229Y-17143122D02*
X3243753Y-17133599D01*
X3243753Y-17133599D02*
X3243753Y-17152646D01*
X3329467Y-16971694D02*
X3338991Y-16962170D01*
X3338991Y-16962170D02*
X3358039Y-16952646D01*
X3358039Y-16952646D02*
X3405658Y-16952646D01*
X3405658Y-16952646D02*
X3424705Y-16962170D01*
X3424705Y-16962170D02*
X3434229Y-16971694D01*
X3434229Y-16971694D02*
X3443753Y-16990741D01*
X3443753Y-16990741D02*
X3443753Y-17009789D01*
X3443753Y-17009789D02*
X3434229Y-17038360D01*
X3434229Y-17038360D02*
X3319943Y-17152646D01*
X3319943Y-17152646D02*
X3443753Y-17152646D01*
X3567562Y-16952646D02*
X3586610Y-16952646D01*
X3586610Y-16952646D02*
X3605658Y-16962170D01*
X3605658Y-16962170D02*
X3615182Y-16971694D01*
X3615182Y-16971694D02*
X3624705Y-16990741D01*
X3624705Y-16990741D02*
X3634229Y-17028837D01*
X3634229Y-17028837D02*
X3634229Y-17076456D01*
X3634229Y-17076456D02*
X3624705Y-17114551D01*
X3624705Y-17114551D02*
X3615182Y-17133599D01*
X3615182Y-17133599D02*
X3605658Y-17143122D01*
X3605658Y-17143122D02*
X3586610Y-17152646D01*
X3586610Y-17152646D02*
X3567562Y-17152646D01*
X3567562Y-17152646D02*
X3548515Y-17143122D01*
X3548515Y-17143122D02*
X3538991Y-17133599D01*
X3538991Y-17133599D02*
X3529467Y-17114551D01*
X3529467Y-17114551D02*
X3519943Y-17076456D01*
X3519943Y-17076456D02*
X3519943Y-17028837D01*
X3519943Y-17028837D02*
X3529467Y-16990741D01*
X3529467Y-16990741D02*
X3538991Y-16971694D01*
X3538991Y-16971694D02*
X3548515Y-16962170D01*
X3548515Y-16962170D02*
X3567562Y-16952646D01*
X3758039Y-16952646D02*
X3777086Y-16952646D01*
X3777086Y-16952646D02*
X3796134Y-16962170D01*
X3796134Y-16962170D02*
X3805658Y-16971694D01*
X3805658Y-16971694D02*
X3815182Y-16990741D01*
X3815182Y-16990741D02*
X3824705Y-17028837D01*
X3824705Y-17028837D02*
X3824705Y-17076456D01*
X3824705Y-17076456D02*
X3815182Y-17114551D01*
X3815182Y-17114551D02*
X3805658Y-17133599D01*
X3805658Y-17133599D02*
X3796134Y-17143122D01*
X3796134Y-17143122D02*
X3777086Y-17152646D01*
X3777086Y-17152646D02*
X3758039Y-17152646D01*
X3758039Y-17152646D02*
X3738991Y-17143122D01*
X3738991Y-17143122D02*
X3729467Y-17133599D01*
X3729467Y-17133599D02*
X3719943Y-17114551D01*
X3719943Y-17114551D02*
X3710420Y-17076456D01*
X3710420Y-17076456D02*
X3710420Y-17028837D01*
X3710420Y-17028837D02*
X3719943Y-16990741D01*
X3719943Y-16990741D02*
X3729467Y-16971694D01*
X3729467Y-16971694D02*
X3738991Y-16962170D01*
X3738991Y-16962170D02*
X3758039Y-16952646D01*
X3910420Y-17152646D02*
X3910420Y-17019313D01*
X3910420Y-17038360D02*
X3919943Y-17028837D01*
X3919943Y-17028837D02*
X3938991Y-17019313D01*
X3938991Y-17019313D02*
X3967563Y-17019313D01*
X3967563Y-17019313D02*
X3986610Y-17028837D01*
X3986610Y-17028837D02*
X3996134Y-17047884D01*
X3996134Y-17047884D02*
X3996134Y-17152646D01*
X3996134Y-17047884D02*
X4005658Y-17028837D01*
X4005658Y-17028837D02*
X4024705Y-17019313D01*
X4024705Y-17019313D02*
X4053277Y-17019313D01*
X4053277Y-17019313D02*
X4072324Y-17028837D01*
X4072324Y-17028837D02*
X4081848Y-17047884D01*
X4081848Y-17047884D02*
X4081848Y-17152646D01*
X4177086Y-17152646D02*
X4177086Y-17019313D01*
X4177086Y-17038360D02*
X4186610Y-17028837D01*
X4186610Y-17028837D02*
X4205658Y-17019313D01*
X4205658Y-17019313D02*
X4234229Y-17019313D01*
X4234229Y-17019313D02*
X4253277Y-17028837D01*
X4253277Y-17028837D02*
X4262801Y-17047884D01*
X4262801Y-17047884D02*
X4262801Y-17152646D01*
X4262801Y-17047884D02*
X4272325Y-17028837D01*
X4272325Y-17028837D02*
X4291372Y-17019313D01*
X4291372Y-17019313D02*
X4319944Y-17019313D01*
X4319944Y-17019313D02*
X4338991Y-17028837D01*
X4338991Y-17028837D02*
X4348515Y-17047884D01*
X4348515Y-17047884D02*
X4348515Y-17152646D01*
X4738991Y-16943122D02*
X4567563Y-17200265D01*
X4996134Y-16952646D02*
X5015182Y-16952646D01*
X5015182Y-16952646D02*
X5034229Y-16962170D01*
X5034229Y-16962170D02*
X5043753Y-16971694D01*
X5043753Y-16971694D02*
X5053277Y-16990741D01*
X5053277Y-16990741D02*
X5062801Y-17028837D01*
X5062801Y-17028837D02*
X5062801Y-17076456D01*
X5062801Y-17076456D02*
X5053277Y-17114551D01*
X5053277Y-17114551D02*
X5043753Y-17133599D01*
X5043753Y-17133599D02*
X5034229Y-17143122D01*
X5034229Y-17143122D02*
X5015182Y-17152646D01*
X5015182Y-17152646D02*
X4996134Y-17152646D01*
X4996134Y-17152646D02*
X4977087Y-17143122D01*
X4977087Y-17143122D02*
X4967563Y-17133599D01*
X4967563Y-17133599D02*
X4958039Y-17114551D01*
X4958039Y-17114551D02*
X4948515Y-17076456D01*
X4948515Y-17076456D02*
X4948515Y-17028837D01*
X4948515Y-17028837D02*
X4958039Y-16990741D01*
X4958039Y-16990741D02*
X4967563Y-16971694D01*
X4967563Y-16971694D02*
X4977087Y-16962170D01*
X4977087Y-16962170D02*
X4996134Y-16952646D01*
X5148515Y-17133599D02*
X5158039Y-17143122D01*
X5158039Y-17143122D02*
X5148515Y-17152646D01*
X5148515Y-17152646D02*
X5138991Y-17143122D01*
X5138991Y-17143122D02*
X5148515Y-17133599D01*
X5148515Y-17133599D02*
X5148515Y-17152646D01*
X5348515Y-17152646D02*
X5234229Y-17152646D01*
X5291372Y-17152646D02*
X5291372Y-16952646D01*
X5291372Y-16952646D02*
X5272325Y-16981218D01*
X5272325Y-16981218D02*
X5253277Y-17000265D01*
X5253277Y-17000265D02*
X5234229Y-17009789D01*
X5424706Y-16971694D02*
X5434229Y-16962170D01*
X5434229Y-16962170D02*
X5453277Y-16952646D01*
X5453277Y-16952646D02*
X5500896Y-16952646D01*
X5500896Y-16952646D02*
X5519944Y-16962170D01*
X5519944Y-16962170D02*
X5529468Y-16971694D01*
X5529468Y-16971694D02*
X5538991Y-16990741D01*
X5538991Y-16990741D02*
X5538991Y-17009789D01*
X5538991Y-17009789D02*
X5529468Y-17038360D01*
X5529468Y-17038360D02*
X5415182Y-17152646D01*
X5415182Y-17152646D02*
X5538991Y-17152646D01*
X5710420Y-16952646D02*
X5672325Y-16952646D01*
X5672325Y-16952646D02*
X5653277Y-16962170D01*
X5653277Y-16962170D02*
X5643753Y-16971694D01*
X5643753Y-16971694D02*
X5624706Y-17000265D01*
X5624706Y-17000265D02*
X5615182Y-17038360D01*
X5615182Y-17038360D02*
X5615182Y-17114551D01*
X5615182Y-17114551D02*
X5624706Y-17133599D01*
X5624706Y-17133599D02*
X5634229Y-17143122D01*
X5634229Y-17143122D02*
X5653277Y-17152646D01*
X5653277Y-17152646D02*
X5691372Y-17152646D01*
X5691372Y-17152646D02*
X5710420Y-17143122D01*
X5710420Y-17143122D02*
X5719944Y-17133599D01*
X5719944Y-17133599D02*
X5729467Y-17114551D01*
X5729467Y-17114551D02*
X5729467Y-17066932D01*
X5729467Y-17066932D02*
X5719944Y-17047884D01*
X5719944Y-17047884D02*
X5710420Y-17038360D01*
X5710420Y-17038360D02*
X5691372Y-17028837D01*
X5691372Y-17028837D02*
X5653277Y-17028837D01*
X5653277Y-17028837D02*
X5634229Y-17038360D01*
X5634229Y-17038360D02*
X5624706Y-17047884D01*
X5624706Y-17047884D02*
X5615182Y-17066932D01*
X5853277Y-16952646D02*
X5872325Y-16952646D01*
X5872325Y-16952646D02*
X5891372Y-16962170D01*
X5891372Y-16962170D02*
X5900896Y-16971694D01*
X5900896Y-16971694D02*
X5910420Y-16990741D01*
X5910420Y-16990741D02*
X5919944Y-17028837D01*
X5919944Y-17028837D02*
X5919944Y-17076456D01*
X5919944Y-17076456D02*
X5910420Y-17114551D01*
X5910420Y-17114551D02*
X5900896Y-17133599D01*
X5900896Y-17133599D02*
X5891372Y-17143122D01*
X5891372Y-17143122D02*
X5872325Y-17152646D01*
X5872325Y-17152646D02*
X5853277Y-17152646D01*
X5853277Y-17152646D02*
X5834229Y-17143122D01*
X5834229Y-17143122D02*
X5824706Y-17133599D01*
X5824706Y-17133599D02*
X5815182Y-17114551D01*
X5815182Y-17114551D02*
X5805658Y-17076456D01*
X5805658Y-17076456D02*
X5805658Y-17028837D01*
X5805658Y-17028837D02*
X5815182Y-16990741D01*
X5815182Y-16990741D02*
X5824706Y-16971694D01*
X5824706Y-16971694D02*
X5834229Y-16962170D01*
X5834229Y-16962170D02*
X5853277Y-16952646D01*
X5996134Y-16952646D02*
X5996134Y-16990741D01*
X6072325Y-16952646D02*
X6072325Y-16990741D01*
X6367563Y-17228837D02*
X6358039Y-17219313D01*
X6358039Y-17219313D02*
X6338991Y-17190741D01*
X6338991Y-17190741D02*
X6329468Y-17171694D01*
X6329468Y-17171694D02*
X6319944Y-17143122D01*
X6319944Y-17143122D02*
X6310420Y-17095503D01*
X6310420Y-17095503D02*
X6310420Y-17057408D01*
X6310420Y-17057408D02*
X6319944Y-17009789D01*
X6319944Y-17009789D02*
X6329468Y-16981218D01*
X6329468Y-16981218D02*
X6338991Y-16962170D01*
X6338991Y-16962170D02*
X6358039Y-16933599D01*
X6358039Y-16933599D02*
X6367563Y-16924075D01*
X6529468Y-16952646D02*
X6491372Y-16952646D01*
X6491372Y-16952646D02*
X6472325Y-16962170D01*
X6472325Y-16962170D02*
X6462801Y-16971694D01*
X6462801Y-16971694D02*
X6443753Y-17000265D01*
X6443753Y-17000265D02*
X6434229Y-17038360D01*
X6434229Y-17038360D02*
X6434229Y-17114551D01*
X6434229Y-17114551D02*
X6443753Y-17133599D01*
X6443753Y-17133599D02*
X6453277Y-17143122D01*
X6453277Y-17143122D02*
X6472325Y-17152646D01*
X6472325Y-17152646D02*
X6510420Y-17152646D01*
X6510420Y-17152646D02*
X6529468Y-17143122D01*
X6529468Y-17143122D02*
X6538991Y-17133599D01*
X6538991Y-17133599D02*
X6548515Y-17114551D01*
X6548515Y-17114551D02*
X6548515Y-17066932D01*
X6548515Y-17066932D02*
X6538991Y-17047884D01*
X6538991Y-17047884D02*
X6529468Y-17038360D01*
X6529468Y-17038360D02*
X6510420Y-17028837D01*
X6510420Y-17028837D02*
X6472325Y-17028837D01*
X6472325Y-17028837D02*
X6453277Y-17038360D01*
X6453277Y-17038360D02*
X6443753Y-17047884D01*
X6443753Y-17047884D02*
X6434229Y-17066932D01*
X6786610Y-17152646D02*
X6786610Y-16952646D01*
X6872325Y-17152646D02*
X6872325Y-17047884D01*
X6872325Y-17047884D02*
X6862801Y-17028837D01*
X6862801Y-17028837D02*
X6843753Y-17019313D01*
X6843753Y-17019313D02*
X6815182Y-17019313D01*
X6815182Y-17019313D02*
X6796134Y-17028837D01*
X6796134Y-17028837D02*
X6786610Y-17038360D01*
X6996134Y-17152646D02*
X6977087Y-17143122D01*
X6977087Y-17143122D02*
X6967563Y-17133599D01*
X6967563Y-17133599D02*
X6958039Y-17114551D01*
X6958039Y-17114551D02*
X6958039Y-17057408D01*
X6958039Y-17057408D02*
X6967563Y-17038360D01*
X6967563Y-17038360D02*
X6977087Y-17028837D01*
X6977087Y-17028837D02*
X6996134Y-17019313D01*
X6996134Y-17019313D02*
X7024706Y-17019313D01*
X7024706Y-17019313D02*
X7043753Y-17028837D01*
X7043753Y-17028837D02*
X7053277Y-17038360D01*
X7053277Y-17038360D02*
X7062801Y-17057408D01*
X7062801Y-17057408D02*
X7062801Y-17114551D01*
X7062801Y-17114551D02*
X7053277Y-17133599D01*
X7053277Y-17133599D02*
X7043753Y-17143122D01*
X7043753Y-17143122D02*
X7024706Y-17152646D01*
X7024706Y-17152646D02*
X6996134Y-17152646D01*
X7177087Y-17152646D02*
X7158039Y-17143122D01*
X7158039Y-17143122D02*
X7148515Y-17124075D01*
X7148515Y-17124075D02*
X7148515Y-16952646D01*
X7329468Y-17143122D02*
X7310420Y-17152646D01*
X7310420Y-17152646D02*
X7272325Y-17152646D01*
X7272325Y-17152646D02*
X7253277Y-17143122D01*
X7253277Y-17143122D02*
X7243753Y-17124075D01*
X7243753Y-17124075D02*
X7243753Y-17047884D01*
X7243753Y-17047884D02*
X7253277Y-17028837D01*
X7253277Y-17028837D02*
X7272325Y-17019313D01*
X7272325Y-17019313D02*
X7310420Y-17019313D01*
X7310420Y-17019313D02*
X7329468Y-17028837D01*
X7329468Y-17028837D02*
X7338991Y-17047884D01*
X7338991Y-17047884D02*
X7338991Y-17066932D01*
X7338991Y-17066932D02*
X7243753Y-17085980D01*
X7415182Y-17143122D02*
X7434230Y-17152646D01*
X7434230Y-17152646D02*
X7472325Y-17152646D01*
X7472325Y-17152646D02*
X7491372Y-17143122D01*
X7491372Y-17143122D02*
X7500896Y-17124075D01*
X7500896Y-17124075D02*
X7500896Y-17114551D01*
X7500896Y-17114551D02*
X7491372Y-17095503D01*
X7491372Y-17095503D02*
X7472325Y-17085980D01*
X7472325Y-17085980D02*
X7443753Y-17085980D01*
X7443753Y-17085980D02*
X7424706Y-17076456D01*
X7424706Y-17076456D02*
X7415182Y-17057408D01*
X7415182Y-17057408D02*
X7415182Y-17047884D01*
X7415182Y-17047884D02*
X7424706Y-17028837D01*
X7424706Y-17028837D02*
X7443753Y-17019313D01*
X7443753Y-17019313D02*
X7472325Y-17019313D01*
X7472325Y-17019313D02*
X7491372Y-17028837D01*
X7567563Y-17228837D02*
X7577087Y-17219313D01*
X7577087Y-17219313D02*
X7596134Y-17190741D01*
X7596134Y-17190741D02*
X7605658Y-17171694D01*
X7605658Y-17171694D02*
X7615182Y-17143122D01*
X7615182Y-17143122D02*
X7624706Y-17095503D01*
X7624706Y-17095503D02*
X7624706Y-17057408D01*
X7624706Y-17057408D02*
X7615182Y-17009789D01*
X7615182Y-17009789D02*
X7605658Y-16981218D01*
X7605658Y-16981218D02*
X7596134Y-16962170D01*
X7596134Y-16962170D02*
X7577087Y-16933599D01*
X7577087Y-16933599D02*
X7567563Y-16924075D01*
X7929468Y-17228837D02*
X7919944Y-17219313D01*
X7919944Y-17219313D02*
X7900896Y-17190741D01*
X7900896Y-17190741D02*
X7891372Y-17171694D01*
X7891372Y-17171694D02*
X7881849Y-17143122D01*
X7881849Y-17143122D02*
X7872325Y-17095503D01*
X7872325Y-17095503D02*
X7872325Y-17057408D01*
X7872325Y-17057408D02*
X7881849Y-17009789D01*
X7881849Y-17009789D02*
X7891372Y-16981218D01*
X7891372Y-16981218D02*
X7900896Y-16962170D01*
X7900896Y-16962170D02*
X7919944Y-16933599D01*
X7919944Y-16933599D02*
X7929468Y-16924075D01*
X8005658Y-17019313D02*
X8005658Y-17152646D01*
X8005658Y-17038360D02*
X8015182Y-17028837D01*
X8015182Y-17028837D02*
X8034230Y-17019313D01*
X8034230Y-17019313D02*
X8062801Y-17019313D01*
X8062801Y-17019313D02*
X8081849Y-17028837D01*
X8081849Y-17028837D02*
X8091372Y-17047884D01*
X8091372Y-17047884D02*
X8091372Y-17152646D01*
X8215182Y-17152646D02*
X8196134Y-17143122D01*
X8196134Y-17143122D02*
X8186611Y-17133599D01*
X8186611Y-17133599D02*
X8177087Y-17114551D01*
X8177087Y-17114551D02*
X8177087Y-17057408D01*
X8177087Y-17057408D02*
X8186611Y-17038360D01*
X8186611Y-17038360D02*
X8196134Y-17028837D01*
X8196134Y-17028837D02*
X8215182Y-17019313D01*
X8215182Y-17019313D02*
X8243753Y-17019313D01*
X8243753Y-17019313D02*
X8262801Y-17028837D01*
X8262801Y-17028837D02*
X8272325Y-17038360D01*
X8272325Y-17038360D02*
X8281849Y-17057408D01*
X8281849Y-17057408D02*
X8281849Y-17114551D01*
X8281849Y-17114551D02*
X8272325Y-17133599D01*
X8272325Y-17133599D02*
X8262801Y-17143122D01*
X8262801Y-17143122D02*
X8243753Y-17152646D01*
X8243753Y-17152646D02*
X8215182Y-17152646D01*
X8338992Y-17019313D02*
X8415182Y-17019313D01*
X8367563Y-16952646D02*
X8367563Y-17124075D01*
X8367563Y-17124075D02*
X8377087Y-17143122D01*
X8377087Y-17143122D02*
X8396134Y-17152646D01*
X8396134Y-17152646D02*
X8415182Y-17152646D01*
X8634230Y-17019313D02*
X8634230Y-17219313D01*
X8634230Y-17028837D02*
X8653277Y-17019313D01*
X8653277Y-17019313D02*
X8691373Y-17019313D01*
X8691373Y-17019313D02*
X8710420Y-17028837D01*
X8710420Y-17028837D02*
X8719944Y-17038360D01*
X8719944Y-17038360D02*
X8729468Y-17057408D01*
X8729468Y-17057408D02*
X8729468Y-17114551D01*
X8729468Y-17114551D02*
X8719944Y-17133599D01*
X8719944Y-17133599D02*
X8710420Y-17143122D01*
X8710420Y-17143122D02*
X8691373Y-17152646D01*
X8691373Y-17152646D02*
X8653277Y-17152646D01*
X8653277Y-17152646D02*
X8634230Y-17143122D01*
X8843754Y-17152646D02*
X8824706Y-17143122D01*
X8824706Y-17143122D02*
X8815182Y-17124075D01*
X8815182Y-17124075D02*
X8815182Y-16952646D01*
X9005658Y-17152646D02*
X9005658Y-17047884D01*
X9005658Y-17047884D02*
X8996135Y-17028837D01*
X8996135Y-17028837D02*
X8977087Y-17019313D01*
X8977087Y-17019313D02*
X8938992Y-17019313D01*
X8938992Y-17019313D02*
X8919944Y-17028837D01*
X9005658Y-17143122D02*
X8986611Y-17152646D01*
X8986611Y-17152646D02*
X8938992Y-17152646D01*
X8938992Y-17152646D02*
X8919944Y-17143122D01*
X8919944Y-17143122D02*
X8910420Y-17124075D01*
X8910420Y-17124075D02*
X8910420Y-17105027D01*
X8910420Y-17105027D02*
X8919944Y-17085980D01*
X8919944Y-17085980D02*
X8938992Y-17076456D01*
X8938992Y-17076456D02*
X8986611Y-17076456D01*
X8986611Y-17076456D02*
X9005658Y-17066932D01*
X9072325Y-17019313D02*
X9148515Y-17019313D01*
X9100896Y-16952646D02*
X9100896Y-17124075D01*
X9100896Y-17124075D02*
X9110420Y-17143122D01*
X9110420Y-17143122D02*
X9129468Y-17152646D01*
X9129468Y-17152646D02*
X9148515Y-17152646D01*
X9291373Y-17143122D02*
X9272325Y-17152646D01*
X9272325Y-17152646D02*
X9234230Y-17152646D01*
X9234230Y-17152646D02*
X9215182Y-17143122D01*
X9215182Y-17143122D02*
X9205658Y-17124075D01*
X9205658Y-17124075D02*
X9205658Y-17047884D01*
X9205658Y-17047884D02*
X9215182Y-17028837D01*
X9215182Y-17028837D02*
X9234230Y-17019313D01*
X9234230Y-17019313D02*
X9272325Y-17019313D01*
X9272325Y-17019313D02*
X9291373Y-17028837D01*
X9291373Y-17028837D02*
X9300896Y-17047884D01*
X9300896Y-17047884D02*
X9300896Y-17066932D01*
X9300896Y-17066932D02*
X9205658Y-17085980D01*
X9472325Y-17152646D02*
X9472325Y-16952646D01*
X9472325Y-17143122D02*
X9453277Y-17152646D01*
X9453277Y-17152646D02*
X9415182Y-17152646D01*
X9415182Y-17152646D02*
X9396135Y-17143122D01*
X9396135Y-17143122D02*
X9386611Y-17133599D01*
X9386611Y-17133599D02*
X9377087Y-17114551D01*
X9377087Y-17114551D02*
X9377087Y-17057408D01*
X9377087Y-17057408D02*
X9386611Y-17038360D01*
X9386611Y-17038360D02*
X9396135Y-17028837D01*
X9396135Y-17028837D02*
X9415182Y-17019313D01*
X9415182Y-17019313D02*
X9453277Y-17019313D01*
X9453277Y-17019313D02*
X9472325Y-17028837D01*
X9548516Y-17228837D02*
X9558039Y-17219313D01*
X9558039Y-17219313D02*
X9577087Y-17190741D01*
X9577087Y-17190741D02*
X9586611Y-17171694D01*
X9586611Y-17171694D02*
X9596135Y-17143122D01*
X9596135Y-17143122D02*
X9605658Y-17095503D01*
X9605658Y-17095503D02*
X9605658Y-17057408D01*
X9605658Y-17057408D02*
X9596135Y-17009789D01*
X9596135Y-17009789D02*
X9586611Y-16981218D01*
X9586611Y-16981218D02*
X9577087Y-16962170D01*
X9577087Y-16962170D02*
X9558039Y-16933599D01*
X9558039Y-16933599D02*
X9548516Y-16924075D01*
X2592500Y-17281162D02*
X2792500Y-17481162D01*
X2792500Y-17281162D02*
X2592500Y-17481162D01*
X2792500Y-17381162D02*
G75*
G02*
X2592500Y-17381162I-100000J0D01*
G01*
X2592500Y-17381162D02*
G75*
G02*
X2792500Y-17381162I100000J0D01*
G01*
X3148515Y-17272646D02*
X3053277Y-17272646D01*
X3053277Y-17272646D02*
X3043753Y-17367884D01*
X3043753Y-17367884D02*
X3053277Y-17358360D01*
X3053277Y-17358360D02*
X3072324Y-17348837D01*
X3072324Y-17348837D02*
X3119943Y-17348837D01*
X3119943Y-17348837D02*
X3138991Y-17358360D01*
X3138991Y-17358360D02*
X3148515Y-17367884D01*
X3148515Y-17367884D02*
X3158039Y-17386932D01*
X3158039Y-17386932D02*
X3158039Y-17434551D01*
X3158039Y-17434551D02*
X3148515Y-17453599D01*
X3148515Y-17453599D02*
X3138991Y-17463122D01*
X3138991Y-17463122D02*
X3119943Y-17472646D01*
X3119943Y-17472646D02*
X3072324Y-17472646D01*
X3072324Y-17472646D02*
X3053277Y-17463122D01*
X3053277Y-17463122D02*
X3043753Y-17453599D01*
X3243753Y-17453599D02*
X3253277Y-17463122D01*
X3253277Y-17463122D02*
X3243753Y-17472646D01*
X3243753Y-17472646D02*
X3234229Y-17463122D01*
X3234229Y-17463122D02*
X3243753Y-17453599D01*
X3243753Y-17453599D02*
X3243753Y-17472646D01*
X3377086Y-17272646D02*
X3396134Y-17272646D01*
X3396134Y-17272646D02*
X3415182Y-17282170D01*
X3415182Y-17282170D02*
X3424705Y-17291694D01*
X3424705Y-17291694D02*
X3434229Y-17310741D01*
X3434229Y-17310741D02*
X3443753Y-17348837D01*
X3443753Y-17348837D02*
X3443753Y-17396456D01*
X3443753Y-17396456D02*
X3434229Y-17434551D01*
X3434229Y-17434551D02*
X3424705Y-17453599D01*
X3424705Y-17453599D02*
X3415182Y-17463122D01*
X3415182Y-17463122D02*
X3396134Y-17472646D01*
X3396134Y-17472646D02*
X3377086Y-17472646D01*
X3377086Y-17472646D02*
X3358039Y-17463122D01*
X3358039Y-17463122D02*
X3348515Y-17453599D01*
X3348515Y-17453599D02*
X3338991Y-17434551D01*
X3338991Y-17434551D02*
X3329467Y-17396456D01*
X3329467Y-17396456D02*
X3329467Y-17348837D01*
X3329467Y-17348837D02*
X3338991Y-17310741D01*
X3338991Y-17310741D02*
X3348515Y-17291694D01*
X3348515Y-17291694D02*
X3358039Y-17282170D01*
X3358039Y-17282170D02*
X3377086Y-17272646D01*
X3567562Y-17272646D02*
X3586610Y-17272646D01*
X3586610Y-17272646D02*
X3605658Y-17282170D01*
X3605658Y-17282170D02*
X3615182Y-17291694D01*
X3615182Y-17291694D02*
X3624705Y-17310741D01*
X3624705Y-17310741D02*
X3634229Y-17348837D01*
X3634229Y-17348837D02*
X3634229Y-17396456D01*
X3634229Y-17396456D02*
X3624705Y-17434551D01*
X3624705Y-17434551D02*
X3615182Y-17453599D01*
X3615182Y-17453599D02*
X3605658Y-17463122D01*
X3605658Y-17463122D02*
X3586610Y-17472646D01*
X3586610Y-17472646D02*
X3567562Y-17472646D01*
X3567562Y-17472646D02*
X3548515Y-17463122D01*
X3548515Y-17463122D02*
X3538991Y-17453599D01*
X3538991Y-17453599D02*
X3529467Y-17434551D01*
X3529467Y-17434551D02*
X3519943Y-17396456D01*
X3519943Y-17396456D02*
X3519943Y-17348837D01*
X3519943Y-17348837D02*
X3529467Y-17310741D01*
X3529467Y-17310741D02*
X3538991Y-17291694D01*
X3538991Y-17291694D02*
X3548515Y-17282170D01*
X3548515Y-17282170D02*
X3567562Y-17272646D01*
X3758039Y-17272646D02*
X3777086Y-17272646D01*
X3777086Y-17272646D02*
X3796134Y-17282170D01*
X3796134Y-17282170D02*
X3805658Y-17291694D01*
X3805658Y-17291694D02*
X3815182Y-17310741D01*
X3815182Y-17310741D02*
X3824705Y-17348837D01*
X3824705Y-17348837D02*
X3824705Y-17396456D01*
X3824705Y-17396456D02*
X3815182Y-17434551D01*
X3815182Y-17434551D02*
X3805658Y-17453599D01*
X3805658Y-17453599D02*
X3796134Y-17463122D01*
X3796134Y-17463122D02*
X3777086Y-17472646D01*
X3777086Y-17472646D02*
X3758039Y-17472646D01*
X3758039Y-17472646D02*
X3738991Y-17463122D01*
X3738991Y-17463122D02*
X3729467Y-17453599D01*
X3729467Y-17453599D02*
X3719943Y-17434551D01*
X3719943Y-17434551D02*
X3710420Y-17396456D01*
X3710420Y-17396456D02*
X3710420Y-17348837D01*
X3710420Y-17348837D02*
X3719943Y-17310741D01*
X3719943Y-17310741D02*
X3729467Y-17291694D01*
X3729467Y-17291694D02*
X3738991Y-17282170D01*
X3738991Y-17282170D02*
X3758039Y-17272646D01*
X3910420Y-17472646D02*
X3910420Y-17339313D01*
X3910420Y-17358360D02*
X3919943Y-17348837D01*
X3919943Y-17348837D02*
X3938991Y-17339313D01*
X3938991Y-17339313D02*
X3967563Y-17339313D01*
X3967563Y-17339313D02*
X3986610Y-17348837D01*
X3986610Y-17348837D02*
X3996134Y-17367884D01*
X3996134Y-17367884D02*
X3996134Y-17472646D01*
X3996134Y-17367884D02*
X4005658Y-17348837D01*
X4005658Y-17348837D02*
X4024705Y-17339313D01*
X4024705Y-17339313D02*
X4053277Y-17339313D01*
X4053277Y-17339313D02*
X4072324Y-17348837D01*
X4072324Y-17348837D02*
X4081848Y-17367884D01*
X4081848Y-17367884D02*
X4081848Y-17472646D01*
X4177086Y-17472646D02*
X4177086Y-17339313D01*
X4177086Y-17358360D02*
X4186610Y-17348837D01*
X4186610Y-17348837D02*
X4205658Y-17339313D01*
X4205658Y-17339313D02*
X4234229Y-17339313D01*
X4234229Y-17339313D02*
X4253277Y-17348837D01*
X4253277Y-17348837D02*
X4262801Y-17367884D01*
X4262801Y-17367884D02*
X4262801Y-17472646D01*
X4262801Y-17367884D02*
X4272325Y-17348837D01*
X4272325Y-17348837D02*
X4291372Y-17339313D01*
X4291372Y-17339313D02*
X4319944Y-17339313D01*
X4319944Y-17339313D02*
X4338991Y-17348837D01*
X4338991Y-17348837D02*
X4348515Y-17367884D01*
X4348515Y-17367884D02*
X4348515Y-17472646D01*
X4738991Y-17263122D02*
X4567563Y-17520265D01*
X4996134Y-17272646D02*
X5015182Y-17272646D01*
X5015182Y-17272646D02*
X5034229Y-17282170D01*
X5034229Y-17282170D02*
X5043753Y-17291694D01*
X5043753Y-17291694D02*
X5053277Y-17310741D01*
X5053277Y-17310741D02*
X5062801Y-17348837D01*
X5062801Y-17348837D02*
X5062801Y-17396456D01*
X5062801Y-17396456D02*
X5053277Y-17434551D01*
X5053277Y-17434551D02*
X5043753Y-17453599D01*
X5043753Y-17453599D02*
X5034229Y-17463122D01*
X5034229Y-17463122D02*
X5015182Y-17472646D01*
X5015182Y-17472646D02*
X4996134Y-17472646D01*
X4996134Y-17472646D02*
X4977087Y-17463122D01*
X4977087Y-17463122D02*
X4967563Y-17453599D01*
X4967563Y-17453599D02*
X4958039Y-17434551D01*
X4958039Y-17434551D02*
X4948515Y-17396456D01*
X4948515Y-17396456D02*
X4948515Y-17348837D01*
X4948515Y-17348837D02*
X4958039Y-17310741D01*
X4958039Y-17310741D02*
X4967563Y-17291694D01*
X4967563Y-17291694D02*
X4977087Y-17282170D01*
X4977087Y-17282170D02*
X4996134Y-17272646D01*
X5148515Y-17453599D02*
X5158039Y-17463122D01*
X5158039Y-17463122D02*
X5148515Y-17472646D01*
X5148515Y-17472646D02*
X5138991Y-17463122D01*
X5138991Y-17463122D02*
X5148515Y-17453599D01*
X5148515Y-17453599D02*
X5148515Y-17472646D01*
X5348515Y-17472646D02*
X5234229Y-17472646D01*
X5291372Y-17472646D02*
X5291372Y-17272646D01*
X5291372Y-17272646D02*
X5272325Y-17301218D01*
X5272325Y-17301218D02*
X5253277Y-17320265D01*
X5253277Y-17320265D02*
X5234229Y-17329789D01*
X5443753Y-17472646D02*
X5481848Y-17472646D01*
X5481848Y-17472646D02*
X5500896Y-17463122D01*
X5500896Y-17463122D02*
X5510420Y-17453599D01*
X5510420Y-17453599D02*
X5529468Y-17425027D01*
X5529468Y-17425027D02*
X5538991Y-17386932D01*
X5538991Y-17386932D02*
X5538991Y-17310741D01*
X5538991Y-17310741D02*
X5529468Y-17291694D01*
X5529468Y-17291694D02*
X5519944Y-17282170D01*
X5519944Y-17282170D02*
X5500896Y-17272646D01*
X5500896Y-17272646D02*
X5462801Y-17272646D01*
X5462801Y-17272646D02*
X5443753Y-17282170D01*
X5443753Y-17282170D02*
X5434229Y-17291694D01*
X5434229Y-17291694D02*
X5424706Y-17310741D01*
X5424706Y-17310741D02*
X5424706Y-17358360D01*
X5424706Y-17358360D02*
X5434229Y-17377408D01*
X5434229Y-17377408D02*
X5443753Y-17386932D01*
X5443753Y-17386932D02*
X5462801Y-17396456D01*
X5462801Y-17396456D02*
X5500896Y-17396456D01*
X5500896Y-17396456D02*
X5519944Y-17386932D01*
X5519944Y-17386932D02*
X5529468Y-17377408D01*
X5529468Y-17377408D02*
X5538991Y-17358360D01*
X5710420Y-17272646D02*
X5672325Y-17272646D01*
X5672325Y-17272646D02*
X5653277Y-17282170D01*
X5653277Y-17282170D02*
X5643753Y-17291694D01*
X5643753Y-17291694D02*
X5624706Y-17320265D01*
X5624706Y-17320265D02*
X5615182Y-17358360D01*
X5615182Y-17358360D02*
X5615182Y-17434551D01*
X5615182Y-17434551D02*
X5624706Y-17453599D01*
X5624706Y-17453599D02*
X5634229Y-17463122D01*
X5634229Y-17463122D02*
X5653277Y-17472646D01*
X5653277Y-17472646D02*
X5691372Y-17472646D01*
X5691372Y-17472646D02*
X5710420Y-17463122D01*
X5710420Y-17463122D02*
X5719944Y-17453599D01*
X5719944Y-17453599D02*
X5729467Y-17434551D01*
X5729467Y-17434551D02*
X5729467Y-17386932D01*
X5729467Y-17386932D02*
X5719944Y-17367884D01*
X5719944Y-17367884D02*
X5710420Y-17358360D01*
X5710420Y-17358360D02*
X5691372Y-17348837D01*
X5691372Y-17348837D02*
X5653277Y-17348837D01*
X5653277Y-17348837D02*
X5634229Y-17358360D01*
X5634229Y-17358360D02*
X5624706Y-17367884D01*
X5624706Y-17367884D02*
X5615182Y-17386932D01*
X5824706Y-17472646D02*
X5862801Y-17472646D01*
X5862801Y-17472646D02*
X5881848Y-17463122D01*
X5881848Y-17463122D02*
X5891372Y-17453599D01*
X5891372Y-17453599D02*
X5910420Y-17425027D01*
X5910420Y-17425027D02*
X5919944Y-17386932D01*
X5919944Y-17386932D02*
X5919944Y-17310741D01*
X5919944Y-17310741D02*
X5910420Y-17291694D01*
X5910420Y-17291694D02*
X5900896Y-17282170D01*
X5900896Y-17282170D02*
X5881848Y-17272646D01*
X5881848Y-17272646D02*
X5843753Y-17272646D01*
X5843753Y-17272646D02*
X5824706Y-17282170D01*
X5824706Y-17282170D02*
X5815182Y-17291694D01*
X5815182Y-17291694D02*
X5805658Y-17310741D01*
X5805658Y-17310741D02*
X5805658Y-17358360D01*
X5805658Y-17358360D02*
X5815182Y-17377408D01*
X5815182Y-17377408D02*
X5824706Y-17386932D01*
X5824706Y-17386932D02*
X5843753Y-17396456D01*
X5843753Y-17396456D02*
X5881848Y-17396456D01*
X5881848Y-17396456D02*
X5900896Y-17386932D01*
X5900896Y-17386932D02*
X5910420Y-17377408D01*
X5910420Y-17377408D02*
X5919944Y-17358360D01*
X5996134Y-17272646D02*
X5996134Y-17310741D01*
X6072325Y-17272646D02*
X6072325Y-17310741D01*
X6367563Y-17548837D02*
X6358039Y-17539313D01*
X6358039Y-17539313D02*
X6338991Y-17510741D01*
X6338991Y-17510741D02*
X6329468Y-17491694D01*
X6329468Y-17491694D02*
X6319944Y-17463122D01*
X6319944Y-17463122D02*
X6310420Y-17415503D01*
X6310420Y-17415503D02*
X6310420Y-17377408D01*
X6310420Y-17377408D02*
X6319944Y-17329789D01*
X6319944Y-17329789D02*
X6329468Y-17301218D01*
X6329468Y-17301218D02*
X6338991Y-17282170D01*
X6338991Y-17282170D02*
X6358039Y-17253599D01*
X6358039Y-17253599D02*
X6367563Y-17244075D01*
X6434229Y-17291694D02*
X6443753Y-17282170D01*
X6443753Y-17282170D02*
X6462801Y-17272646D01*
X6462801Y-17272646D02*
X6510420Y-17272646D01*
X6510420Y-17272646D02*
X6529468Y-17282170D01*
X6529468Y-17282170D02*
X6538991Y-17291694D01*
X6538991Y-17291694D02*
X6548515Y-17310741D01*
X6548515Y-17310741D02*
X6548515Y-17329789D01*
X6548515Y-17329789D02*
X6538991Y-17358360D01*
X6538991Y-17358360D02*
X6424706Y-17472646D01*
X6424706Y-17472646D02*
X6548515Y-17472646D01*
X6643753Y-17472646D02*
X6681848Y-17472646D01*
X6681848Y-17472646D02*
X6700896Y-17463122D01*
X6700896Y-17463122D02*
X6710420Y-17453599D01*
X6710420Y-17453599D02*
X6729468Y-17425027D01*
X6729468Y-17425027D02*
X6738991Y-17386932D01*
X6738991Y-17386932D02*
X6738991Y-17310741D01*
X6738991Y-17310741D02*
X6729468Y-17291694D01*
X6729468Y-17291694D02*
X6719944Y-17282170D01*
X6719944Y-17282170D02*
X6700896Y-17272646D01*
X6700896Y-17272646D02*
X6662801Y-17272646D01*
X6662801Y-17272646D02*
X6643753Y-17282170D01*
X6643753Y-17282170D02*
X6634229Y-17291694D01*
X6634229Y-17291694D02*
X6624706Y-17310741D01*
X6624706Y-17310741D02*
X6624706Y-17358360D01*
X6624706Y-17358360D02*
X6634229Y-17377408D01*
X6634229Y-17377408D02*
X6643753Y-17386932D01*
X6643753Y-17386932D02*
X6662801Y-17396456D01*
X6662801Y-17396456D02*
X6700896Y-17396456D01*
X6700896Y-17396456D02*
X6719944Y-17386932D01*
X6719944Y-17386932D02*
X6729468Y-17377408D01*
X6729468Y-17377408D02*
X6738991Y-17358360D01*
X6977087Y-17472646D02*
X6977087Y-17272646D01*
X7062801Y-17472646D02*
X7062801Y-17367884D01*
X7062801Y-17367884D02*
X7053277Y-17348837D01*
X7053277Y-17348837D02*
X7034230Y-17339313D01*
X7034230Y-17339313D02*
X7005658Y-17339313D01*
X7005658Y-17339313D02*
X6986610Y-17348837D01*
X6986610Y-17348837D02*
X6977087Y-17358360D01*
X7186610Y-17472646D02*
X7167563Y-17463122D01*
X7167563Y-17463122D02*
X7158039Y-17453599D01*
X7158039Y-17453599D02*
X7148515Y-17434551D01*
X7148515Y-17434551D02*
X7148515Y-17377408D01*
X7148515Y-17377408D02*
X7158039Y-17358360D01*
X7158039Y-17358360D02*
X7167563Y-17348837D01*
X7167563Y-17348837D02*
X7186610Y-17339313D01*
X7186610Y-17339313D02*
X7215182Y-17339313D01*
X7215182Y-17339313D02*
X7234230Y-17348837D01*
X7234230Y-17348837D02*
X7243753Y-17358360D01*
X7243753Y-17358360D02*
X7253277Y-17377408D01*
X7253277Y-17377408D02*
X7253277Y-17434551D01*
X7253277Y-17434551D02*
X7243753Y-17453599D01*
X7243753Y-17453599D02*
X7234230Y-17463122D01*
X7234230Y-17463122D02*
X7215182Y-17472646D01*
X7215182Y-17472646D02*
X7186610Y-17472646D01*
X7367563Y-17472646D02*
X7348515Y-17463122D01*
X7348515Y-17463122D02*
X7338991Y-17444075D01*
X7338991Y-17444075D02*
X7338991Y-17272646D01*
X7519944Y-17463122D02*
X7500896Y-17472646D01*
X7500896Y-17472646D02*
X7462801Y-17472646D01*
X7462801Y-17472646D02*
X7443753Y-17463122D01*
X7443753Y-17463122D02*
X7434230Y-17444075D01*
X7434230Y-17444075D02*
X7434230Y-17367884D01*
X7434230Y-17367884D02*
X7443753Y-17348837D01*
X7443753Y-17348837D02*
X7462801Y-17339313D01*
X7462801Y-17339313D02*
X7500896Y-17339313D01*
X7500896Y-17339313D02*
X7519944Y-17348837D01*
X7519944Y-17348837D02*
X7529468Y-17367884D01*
X7529468Y-17367884D02*
X7529468Y-17386932D01*
X7529468Y-17386932D02*
X7434230Y-17405980D01*
X7605658Y-17463122D02*
X7624706Y-17472646D01*
X7624706Y-17472646D02*
X7662801Y-17472646D01*
X7662801Y-17472646D02*
X7681849Y-17463122D01*
X7681849Y-17463122D02*
X7691372Y-17444075D01*
X7691372Y-17444075D02*
X7691372Y-17434551D01*
X7691372Y-17434551D02*
X7681849Y-17415503D01*
X7681849Y-17415503D02*
X7662801Y-17405980D01*
X7662801Y-17405980D02*
X7634230Y-17405980D01*
X7634230Y-17405980D02*
X7615182Y-17396456D01*
X7615182Y-17396456D02*
X7605658Y-17377408D01*
X7605658Y-17377408D02*
X7605658Y-17367884D01*
X7605658Y-17367884D02*
X7615182Y-17348837D01*
X7615182Y-17348837D02*
X7634230Y-17339313D01*
X7634230Y-17339313D02*
X7662801Y-17339313D01*
X7662801Y-17339313D02*
X7681849Y-17348837D01*
X7758039Y-17548837D02*
X7767563Y-17539313D01*
X7767563Y-17539313D02*
X7786611Y-17510741D01*
X7786611Y-17510741D02*
X7796134Y-17491694D01*
X7796134Y-17491694D02*
X7805658Y-17463122D01*
X7805658Y-17463122D02*
X7815182Y-17415503D01*
X7815182Y-17415503D02*
X7815182Y-17377408D01*
X7815182Y-17377408D02*
X7805658Y-17329789D01*
X7805658Y-17329789D02*
X7796134Y-17301218D01*
X7796134Y-17301218D02*
X7786611Y-17282170D01*
X7786611Y-17282170D02*
X7767563Y-17253599D01*
X7767563Y-17253599D02*
X7758039Y-17244075D01*
X8119944Y-17548837D02*
X8110420Y-17539313D01*
X8110420Y-17539313D02*
X8091372Y-17510741D01*
X8091372Y-17510741D02*
X8081849Y-17491694D01*
X8081849Y-17491694D02*
X8072325Y-17463122D01*
X8072325Y-17463122D02*
X8062801Y-17415503D01*
X8062801Y-17415503D02*
X8062801Y-17377408D01*
X8062801Y-17377408D02*
X8072325Y-17329789D01*
X8072325Y-17329789D02*
X8081849Y-17301218D01*
X8081849Y-17301218D02*
X8091372Y-17282170D01*
X8091372Y-17282170D02*
X8110420Y-17253599D01*
X8110420Y-17253599D02*
X8119944Y-17244075D01*
X8196134Y-17339313D02*
X8196134Y-17472646D01*
X8196134Y-17358360D02*
X8205658Y-17348837D01*
X8205658Y-17348837D02*
X8224706Y-17339313D01*
X8224706Y-17339313D02*
X8253277Y-17339313D01*
X8253277Y-17339313D02*
X8272325Y-17348837D01*
X8272325Y-17348837D02*
X8281849Y-17367884D01*
X8281849Y-17367884D02*
X8281849Y-17472646D01*
X8405658Y-17472646D02*
X8386611Y-17463122D01*
X8386611Y-17463122D02*
X8377087Y-17453599D01*
X8377087Y-17453599D02*
X8367563Y-17434551D01*
X8367563Y-17434551D02*
X8367563Y-17377408D01*
X8367563Y-17377408D02*
X8377087Y-17358360D01*
X8377087Y-17358360D02*
X8386611Y-17348837D01*
X8386611Y-17348837D02*
X8405658Y-17339313D01*
X8405658Y-17339313D02*
X8434230Y-17339313D01*
X8434230Y-17339313D02*
X8453277Y-17348837D01*
X8453277Y-17348837D02*
X8462801Y-17358360D01*
X8462801Y-17358360D02*
X8472325Y-17377408D01*
X8472325Y-17377408D02*
X8472325Y-17434551D01*
X8472325Y-17434551D02*
X8462801Y-17453599D01*
X8462801Y-17453599D02*
X8453277Y-17463122D01*
X8453277Y-17463122D02*
X8434230Y-17472646D01*
X8434230Y-17472646D02*
X8405658Y-17472646D01*
X8529468Y-17339313D02*
X8605658Y-17339313D01*
X8558039Y-17272646D02*
X8558039Y-17444075D01*
X8558039Y-17444075D02*
X8567563Y-17463122D01*
X8567563Y-17463122D02*
X8586611Y-17472646D01*
X8586611Y-17472646D02*
X8605658Y-17472646D01*
X8824706Y-17339313D02*
X8824706Y-17539313D01*
X8824706Y-17348837D02*
X8843754Y-17339313D01*
X8843754Y-17339313D02*
X8881849Y-17339313D01*
X8881849Y-17339313D02*
X8900896Y-17348837D01*
X8900896Y-17348837D02*
X8910420Y-17358360D01*
X8910420Y-17358360D02*
X8919944Y-17377408D01*
X8919944Y-17377408D02*
X8919944Y-17434551D01*
X8919944Y-17434551D02*
X8910420Y-17453599D01*
X8910420Y-17453599D02*
X8900896Y-17463122D01*
X8900896Y-17463122D02*
X8881849Y-17472646D01*
X8881849Y-17472646D02*
X8843754Y-17472646D01*
X8843754Y-17472646D02*
X8824706Y-17463122D01*
X9034230Y-17472646D02*
X9015182Y-17463122D01*
X9015182Y-17463122D02*
X9005658Y-17444075D01*
X9005658Y-17444075D02*
X9005658Y-17272646D01*
X9196135Y-17472646D02*
X9196135Y-17367884D01*
X9196135Y-17367884D02*
X9186611Y-17348837D01*
X9186611Y-17348837D02*
X9167563Y-17339313D01*
X9167563Y-17339313D02*
X9129468Y-17339313D01*
X9129468Y-17339313D02*
X9110420Y-17348837D01*
X9196135Y-17463122D02*
X9177087Y-17472646D01*
X9177087Y-17472646D02*
X9129468Y-17472646D01*
X9129468Y-17472646D02*
X9110420Y-17463122D01*
X9110420Y-17463122D02*
X9100896Y-17444075D01*
X9100896Y-17444075D02*
X9100896Y-17425027D01*
X9100896Y-17425027D02*
X9110420Y-17405980D01*
X9110420Y-17405980D02*
X9129468Y-17396456D01*
X9129468Y-17396456D02*
X9177087Y-17396456D01*
X9177087Y-17396456D02*
X9196135Y-17386932D01*
X9262801Y-17339313D02*
X9338992Y-17339313D01*
X9291373Y-17272646D02*
X9291373Y-17444075D01*
X9291373Y-17444075D02*
X9300896Y-17463122D01*
X9300896Y-17463122D02*
X9319944Y-17472646D01*
X9319944Y-17472646D02*
X9338992Y-17472646D01*
X9481849Y-17463122D02*
X9462801Y-17472646D01*
X9462801Y-17472646D02*
X9424706Y-17472646D01*
X9424706Y-17472646D02*
X9405658Y-17463122D01*
X9405658Y-17463122D02*
X9396135Y-17444075D01*
X9396135Y-17444075D02*
X9396135Y-17367884D01*
X9396135Y-17367884D02*
X9405658Y-17348837D01*
X9405658Y-17348837D02*
X9424706Y-17339313D01*
X9424706Y-17339313D02*
X9462801Y-17339313D01*
X9462801Y-17339313D02*
X9481849Y-17348837D01*
X9481849Y-17348837D02*
X9491373Y-17367884D01*
X9491373Y-17367884D02*
X9491373Y-17386932D01*
X9491373Y-17386932D02*
X9396135Y-17405980D01*
X9662801Y-17472646D02*
X9662801Y-17272646D01*
X9662801Y-17463122D02*
X9643754Y-17472646D01*
X9643754Y-17472646D02*
X9605658Y-17472646D01*
X9605658Y-17472646D02*
X9586611Y-17463122D01*
X9586611Y-17463122D02*
X9577087Y-17453599D01*
X9577087Y-17453599D02*
X9567563Y-17434551D01*
X9567563Y-17434551D02*
X9567563Y-17377408D01*
X9567563Y-17377408D02*
X9577087Y-17358360D01*
X9577087Y-17358360D02*
X9586611Y-17348837D01*
X9586611Y-17348837D02*
X9605658Y-17339313D01*
X9605658Y-17339313D02*
X9643754Y-17339313D01*
X9643754Y-17339313D02*
X9662801Y-17348837D01*
X9738992Y-17548837D02*
X9748516Y-17539313D01*
X9748516Y-17539313D02*
X9767563Y-17510741D01*
X9767563Y-17510741D02*
X9777087Y-17491694D01*
X9777087Y-17491694D02*
X9786611Y-17463122D01*
X9786611Y-17463122D02*
X9796135Y-17415503D01*
X9796135Y-17415503D02*
X9796135Y-17377408D01*
X9796135Y-17377408D02*
X9786611Y-17329789D01*
X9786611Y-17329789D02*
X9777087Y-17301218D01*
X9777087Y-17301218D02*
X9767563Y-17282170D01*
X9767563Y-17282170D02*
X9748516Y-17253599D01*
X9748516Y-17253599D02*
X9738992Y-17244075D01*
M02*
