%TF.GenerationSoftware,KiCad,Pcbnew,8.0.4*%
%TF.CreationDate,2024-08-10T13:55:05-06:00*%
%TF.ProjectId,staggered_col58,73746167-6765-4726-9564-5f636f6c3538,0.1*%
%TF.SameCoordinates,Original*%
%TF.FileFunction,AssemblyDrawing,Top*%
%FSLAX46Y46*%
G04 Gerber Fmt 4.6, Leading zero omitted, Abs format (unit mm)*
G04 Created by KiCad (PCBNEW 8.0.4) date 2024-08-10 13:55:05*
%MOMM*%
%LPD*%
G01*
G04 APERTURE LIST*
%ADD10C,0.150000*%
%ADD11C,0.100000*%
%ADD12C,0.120000*%
G04 APERTURE END LIST*
D10*
X167854819Y-84976190D02*
X167854819Y-84404762D01*
X168854819Y-84690476D02*
X167854819Y-84690476D01*
X168854819Y-83500000D02*
X168378628Y-83833333D01*
X168854819Y-84071428D02*
X167854819Y-84071428D01*
X167854819Y-84071428D02*
X167854819Y-83690476D01*
X167854819Y-83690476D02*
X167902438Y-83595238D01*
X167902438Y-83595238D02*
X167950057Y-83547619D01*
X167950057Y-83547619D02*
X168045295Y-83500000D01*
X168045295Y-83500000D02*
X168188152Y-83500000D01*
X168188152Y-83500000D02*
X168283390Y-83547619D01*
X168283390Y-83547619D02*
X168331009Y-83595238D01*
X168331009Y-83595238D02*
X168378628Y-83690476D01*
X168378628Y-83690476D02*
X168378628Y-84071428D01*
X168854819Y-82500000D02*
X168378628Y-82833333D01*
X168854819Y-83071428D02*
X167854819Y-83071428D01*
X167854819Y-83071428D02*
X167854819Y-82690476D01*
X167854819Y-82690476D02*
X167902438Y-82595238D01*
X167902438Y-82595238D02*
X167950057Y-82547619D01*
X167950057Y-82547619D02*
X168045295Y-82500000D01*
X168045295Y-82500000D02*
X168188152Y-82500000D01*
X168188152Y-82500000D02*
X168283390Y-82547619D01*
X168283390Y-82547619D02*
X168331009Y-82595238D01*
X168331009Y-82595238D02*
X168378628Y-82690476D01*
X168378628Y-82690476D02*
X168378628Y-83071428D01*
X168807200Y-82119047D02*
X168854819Y-81976190D01*
X168854819Y-81976190D02*
X168854819Y-81738095D01*
X168854819Y-81738095D02*
X168807200Y-81642857D01*
X168807200Y-81642857D02*
X168759580Y-81595238D01*
X168759580Y-81595238D02*
X168664342Y-81547619D01*
X168664342Y-81547619D02*
X168569104Y-81547619D01*
X168569104Y-81547619D02*
X168473866Y-81595238D01*
X168473866Y-81595238D02*
X168426247Y-81642857D01*
X168426247Y-81642857D02*
X168378628Y-81738095D01*
X168378628Y-81738095D02*
X168331009Y-81928571D01*
X168331009Y-81928571D02*
X168283390Y-82023809D01*
X168283390Y-82023809D02*
X168235771Y-82071428D01*
X168235771Y-82071428D02*
X168140533Y-82119047D01*
X168140533Y-82119047D02*
X168045295Y-82119047D01*
X168045295Y-82119047D02*
X167950057Y-82071428D01*
X167950057Y-82071428D02*
X167902438Y-82023809D01*
X167902438Y-82023809D02*
X167854819Y-81928571D01*
X167854819Y-81928571D02*
X167854819Y-81690476D01*
X167854819Y-81690476D02*
X167902438Y-81547619D01*
X168473866Y-81119047D02*
X168473866Y-80357143D01*
X168854819Y-79880952D02*
X167854819Y-79880952D01*
X167854819Y-79880952D02*
X167854819Y-79500000D01*
X167854819Y-79500000D02*
X167902438Y-79404762D01*
X167902438Y-79404762D02*
X167950057Y-79357143D01*
X167950057Y-79357143D02*
X168045295Y-79309524D01*
X168045295Y-79309524D02*
X168188152Y-79309524D01*
X168188152Y-79309524D02*
X168283390Y-79357143D01*
X168283390Y-79357143D02*
X168331009Y-79404762D01*
X168331009Y-79404762D02*
X168378628Y-79500000D01*
X168378628Y-79500000D02*
X168378628Y-79880952D01*
X167854819Y-78595238D02*
X168569104Y-78595238D01*
X168569104Y-78595238D02*
X168711961Y-78642857D01*
X168711961Y-78642857D02*
X168807200Y-78738095D01*
X168807200Y-78738095D02*
X168854819Y-78880952D01*
X168854819Y-78880952D02*
X168854819Y-78976190D01*
X168473866Y-78119047D02*
X168473866Y-77357143D01*
X167854819Y-76976190D02*
X167854819Y-76357143D01*
X167854819Y-76357143D02*
X168235771Y-76690476D01*
X168235771Y-76690476D02*
X168235771Y-76547619D01*
X168235771Y-76547619D02*
X168283390Y-76452381D01*
X168283390Y-76452381D02*
X168331009Y-76404762D01*
X168331009Y-76404762D02*
X168426247Y-76357143D01*
X168426247Y-76357143D02*
X168664342Y-76357143D01*
X168664342Y-76357143D02*
X168759580Y-76404762D01*
X168759580Y-76404762D02*
X168807200Y-76452381D01*
X168807200Y-76452381D02*
X168854819Y-76547619D01*
X168854819Y-76547619D02*
X168854819Y-76833333D01*
X168854819Y-76833333D02*
X168807200Y-76928571D01*
X168807200Y-76928571D02*
X168759580Y-76976190D01*
X167950057Y-75976190D02*
X167902438Y-75928571D01*
X167902438Y-75928571D02*
X167854819Y-75833333D01*
X167854819Y-75833333D02*
X167854819Y-75595238D01*
X167854819Y-75595238D02*
X167902438Y-75500000D01*
X167902438Y-75500000D02*
X167950057Y-75452381D01*
X167950057Y-75452381D02*
X168045295Y-75404762D01*
X168045295Y-75404762D02*
X168140533Y-75404762D01*
X168140533Y-75404762D02*
X168283390Y-75452381D01*
X168283390Y-75452381D02*
X168854819Y-76023809D01*
X168854819Y-76023809D02*
X168854819Y-75404762D01*
X167854819Y-74785714D02*
X167854819Y-74690476D01*
X167854819Y-74690476D02*
X167902438Y-74595238D01*
X167902438Y-74595238D02*
X167950057Y-74547619D01*
X167950057Y-74547619D02*
X168045295Y-74500000D01*
X168045295Y-74500000D02*
X168235771Y-74452381D01*
X168235771Y-74452381D02*
X168473866Y-74452381D01*
X168473866Y-74452381D02*
X168664342Y-74500000D01*
X168664342Y-74500000D02*
X168759580Y-74547619D01*
X168759580Y-74547619D02*
X168807200Y-74595238D01*
X168807200Y-74595238D02*
X168854819Y-74690476D01*
X168854819Y-74690476D02*
X168854819Y-74785714D01*
X168854819Y-74785714D02*
X168807200Y-74880952D01*
X168807200Y-74880952D02*
X168759580Y-74928571D01*
X168759580Y-74928571D02*
X168664342Y-74976190D01*
X168664342Y-74976190D02*
X168473866Y-75023809D01*
X168473866Y-75023809D02*
X168235771Y-75023809D01*
X168235771Y-75023809D02*
X168045295Y-74976190D01*
X168045295Y-74976190D02*
X167950057Y-74928571D01*
X167950057Y-74928571D02*
X167902438Y-74880952D01*
X167902438Y-74880952D02*
X167854819Y-74785714D01*
X168569104Y-74071428D02*
X168569104Y-73595238D01*
X168854819Y-74166666D02*
X167854819Y-73833333D01*
X167854819Y-73833333D02*
X168854819Y-73500000D01*
X168473866Y-73166666D02*
X168473866Y-72404762D01*
X168854819Y-71500000D02*
X167854819Y-71500000D01*
X168807200Y-71500000D02*
X168854819Y-71595238D01*
X168854819Y-71595238D02*
X168854819Y-71785714D01*
X168854819Y-71785714D02*
X168807200Y-71880952D01*
X168807200Y-71880952D02*
X168759580Y-71928571D01*
X168759580Y-71928571D02*
X168664342Y-71976190D01*
X168664342Y-71976190D02*
X168378628Y-71976190D01*
X168378628Y-71976190D02*
X168283390Y-71928571D01*
X168283390Y-71928571D02*
X168235771Y-71880952D01*
X168235771Y-71880952D02*
X168188152Y-71785714D01*
X168188152Y-71785714D02*
X168188152Y-71595238D01*
X168188152Y-71595238D02*
X168235771Y-71500000D01*
X168188152Y-70595238D02*
X168854819Y-70595238D01*
X168188152Y-71023809D02*
X168711961Y-71023809D01*
X168711961Y-71023809D02*
X168807200Y-70976190D01*
X168807200Y-70976190D02*
X168854819Y-70880952D01*
X168854819Y-70880952D02*
X168854819Y-70738095D01*
X168854819Y-70738095D02*
X168807200Y-70642857D01*
X168807200Y-70642857D02*
X168759580Y-70595238D01*
X168854819Y-69690476D02*
X168331009Y-69690476D01*
X168331009Y-69690476D02*
X168235771Y-69738095D01*
X168235771Y-69738095D02*
X168188152Y-69833333D01*
X168188152Y-69833333D02*
X168188152Y-70023809D01*
X168188152Y-70023809D02*
X168235771Y-70119047D01*
X168807200Y-69690476D02*
X168854819Y-69785714D01*
X168854819Y-69785714D02*
X168854819Y-70023809D01*
X168854819Y-70023809D02*
X168807200Y-70119047D01*
X168807200Y-70119047D02*
X168711961Y-70166666D01*
X168711961Y-70166666D02*
X168616723Y-70166666D01*
X168616723Y-70166666D02*
X168521485Y-70119047D01*
X168521485Y-70119047D02*
X168473866Y-70023809D01*
X168473866Y-70023809D02*
X168473866Y-69785714D01*
X168473866Y-69785714D02*
X168426247Y-69690476D01*
X168854819Y-69071428D02*
X168807200Y-69166666D01*
X168807200Y-69166666D02*
X168711961Y-69214285D01*
X168711961Y-69214285D02*
X167854819Y-69214285D01*
D11*
%TO.C,PWR1*%
X171095000Y-102650000D02*
X171095000Y-109350000D01*
X173695000Y-102650000D02*
X171095000Y-102650000D01*
X173695000Y-109350000D02*
X173695000Y-102650000D01*
X171095000Y-109350000D02*
X173695000Y-109350000D01*
X174995000Y-106100000D02*
X173695000Y-106100000D01*
X175045000Y-106150000D02*
X174995000Y-106100000D01*
X175245000Y-106350000D02*
X175045000Y-106150000D01*
X175245000Y-107200000D02*
X175245000Y-106350000D01*
X175045000Y-107400000D02*
X175245000Y-107200000D01*
X173745000Y-107400000D02*
X175045000Y-107400000D01*
D12*
%TO.C,Rotary1*%
X163040000Y-89880000D02*
X163040000Y-95880000D01*
X166040000Y-92880000D02*
X160040000Y-92880000D01*
X167740000Y-86880000D02*
X168840000Y-87880000D01*
X157240000Y-86880000D02*
X167740000Y-86880000D01*
X157240000Y-98880000D02*
X157240000Y-86880000D01*
X168840000Y-98880000D02*
X157240000Y-98880000D01*
X168840000Y-87880000D02*
X168840000Y-98880000D01*
X166040000Y-92880000D02*
G75*
G02*
X160040000Y-92880000I-3000000J0D01*
G01*
X160040000Y-92880000D02*
G75*
G02*
X166040000Y-92880000I3000000J0D01*
G01*
%TD*%
M02*
