%TF.GenerationSoftware,KiCad,Pcbnew,8.0.4*%
%TF.CreationDate,2024-08-10T13:55:05-06:00*%
%TF.ProjectId,staggered_col58,73746167-6765-4726-9564-5f636f6c3538,0.1*%
%TF.SameCoordinates,Original*%
%TF.FileFunction,Soldermask,Bot*%
%TF.FilePolarity,Negative*%
%FSLAX46Y46*%
G04 Gerber Fmt 4.6, Leading zero omitted, Abs format (unit mm)*
G04 Created by KiCad (PCBNEW 8.0.4) date 2024-08-10 13:55:05*
%MOMM*%
%LPD*%
G01*
G04 APERTURE LIST*
G04 Aperture macros list*
%AMRoundRect*
0 Rectangle with rounded corners*
0 $1 Rounding radius*
0 $2 $3 $4 $5 $6 $7 $8 $9 X,Y pos of 4 corners*
0 Add a 4 corners polygon primitive as box body*
4,1,4,$2,$3,$4,$5,$6,$7,$8,$9,$2,$3,0*
0 Add four circle primitives for the rounded corners*
1,1,$1+$1,$2,$3*
1,1,$1+$1,$4,$5*
1,1,$1+$1,$6,$7*
1,1,$1+$1,$8,$9*
0 Add four rect primitives between the rounded corners*
20,1,$1+$1,$2,$3,$4,$5,0*
20,1,$1+$1,$4,$5,$6,$7,0*
20,1,$1+$1,$6,$7,$8,$9,0*
20,1,$1+$1,$8,$9,$2,$3,0*%
%AMFreePoly0*
4,1,14,1.335355,1.335355,1.350000,1.300000,1.350000,-1.300000,1.335355,-1.335355,1.300000,-1.350000,-0.117000,-1.350000,-0.152355,-1.335355,-1.335355,-0.152355,-1.350000,-0.117000,-1.350000,1.300000,-1.335355,1.335355,-1.300000,1.350000,1.300000,1.350000,1.335355,1.335355,1.335355,1.335355,$1*%
G04 Aperture macros list end*
%ADD10C,3.300000*%
%ADD11RoundRect,0.050000X-0.876300X0.876300X-0.876300X-0.876300X0.876300X-0.876300X0.876300X0.876300X0*%
%ADD12C,1.852600*%
%ADD13C,5.100000*%
%ADD14C,2.000000*%
%ADD15C,3.100000*%
%ADD16FreePoly0,180.000000*%
%ADD17RoundRect,0.050000X1.300000X1.300000X-1.300000X1.300000X-1.300000X-1.300000X1.300000X-1.300000X0*%
%ADD18FreePoly0,175.000000*%
%ADD19RoundRect,0.050000X1.408356X1.181751X-1.181751X1.408356X-1.408356X-1.181751X1.181751X-1.408356X0*%
%ADD20FreePoly0,160.000000*%
%ADD21RoundRect,0.050000X1.666227X0.776974X-0.776974X1.666227X-1.666227X-0.776974X0.776974X-1.666227X0*%
%ADD22FreePoly0,140.000000*%
%ADD23RoundRect,0.050000X1.831482X0.160234X-0.160234X1.831482X-1.831482X-0.160234X0.160234X-1.831482X0*%
%ADD24RoundRect,0.050000X-0.450000X-0.600000X0.450000X-0.600000X0.450000X0.600000X-0.450000X0.600000X0*%
%ADD25RoundRect,0.050000X-0.889000X-0.889000X0.889000X-0.889000X0.889000X0.889000X-0.889000X0.889000X0*%
%ADD26C,2.005000*%
%ADD27RoundRect,0.050000X-0.500581X-0.558497X0.395994X-0.636937X0.500581X0.558497X-0.395994X0.636937X0*%
%ADD28RoundRect,0.050000X-0.963099X-0.808136X0.808136X-0.963099X0.963099X0.808136X-0.808136X0.963099X0*%
%ADD29RoundRect,0.050000X-0.628074X-0.409907X0.217650X-0.717725X0.628074X0.409907X-0.217650X0.717725X0*%
%ADD30RoundRect,0.050000X-1.139443X-0.531331X0.531331X-1.139443X1.139443X0.531331X-0.531331X1.139443X0*%
%ADD31RoundRect,0.050000X-0.730393X-0.170372X-0.040953X-0.748881X0.730393X0.170372X0.040953X0.748881X0*%
%ADD32RoundRect,0.050000X-1.252452X-0.109575X0.109575X-1.252452X1.252452X0.109575X-0.109575X1.252452X0*%
%ADD33RoundRect,0.050000X-0.700000X-0.500000X0.700000X-0.500000X0.700000X0.500000X-0.700000X0.500000X0*%
%ADD34RoundRect,0.050000X-0.740914X-0.437088X0.653758X-0.559106X0.740914X0.437088X-0.653758X0.559106X0*%
%ADD35RoundRect,0.050000X-0.828795X-0.230432X0.486775X-0.709260X0.828795X0.230432X-0.486775X0.709260X0*%
%ADD36RoundRect,0.050000X-0.857625X0.066929X0.214837X-0.832974X0.857625X-0.066929X-0.214837X0.832974X0*%
%ADD37C,1.600000*%
%ADD38O,2.300000X1.700000*%
%ADD39RoundRect,0.050000X0.500000X-0.775000X0.500000X0.775000X-0.500000X0.775000X-0.500000X-0.775000X0*%
%ADD40RoundRect,0.050000X-0.400000X0.500000X-0.400000X-0.500000X0.400000X-0.500000X0.400000X0.500000X0*%
%ADD41RoundRect,0.050000X-0.750000X0.350000X-0.750000X-0.350000X0.750000X-0.350000X0.750000X0.350000X0*%
%ADD42C,1.000000*%
%ADD43RoundRect,0.050000X-1.000000X1.000000X-1.000000X-1.000000X1.000000X-1.000000X1.000000X1.000000X0*%
%ADD44C,2.100000*%
%ADD45RoundRect,0.050000X-1.000000X1.600000X-1.000000X-1.600000X1.000000X-1.600000X1.000000X1.600000X0*%
%ADD46RoundRect,0.050000X-0.500000X1.300000X-0.500000X-1.300000X0.500000X-1.300000X0.500000X1.300000X0*%
%ADD47RoundRect,0.050000X-0.600000X1.000000X-0.600000X-1.000000X0.600000X-1.000000X0.600000X1.000000X0*%
G04 APERTURE END LIST*
D10*
%TO.C,M3_1*%
X50000000Y-120000000D03*
%TD*%
%TO.C,M3_2*%
X50000000Y-63000000D03*
%TD*%
%TO.C,M3_3*%
X90000000Y-109000000D03*
%TD*%
%TO.C,M3_4*%
X90000000Y-50000000D03*
%TD*%
%TO.C,M3_5*%
X146482000Y-115833900D03*
%TD*%
%TO.C,M3_6*%
X150000000Y-56000000D03*
%TD*%
D11*
%TO.C,MCU1*%
X154380000Y-39030000D03*
D12*
X154380000Y-41570000D03*
X154380000Y-44110000D03*
X154380000Y-46650000D03*
X154380000Y-49190000D03*
X154380000Y-51730000D03*
X154380000Y-54270000D03*
X154380000Y-56810000D03*
X154380000Y-59350000D03*
X154380000Y-61890000D03*
X154380000Y-64430000D03*
X154380000Y-66970000D03*
X169620000Y-39030000D03*
X169620000Y-41570000D03*
X169620000Y-44110000D03*
X169620000Y-46650000D03*
X169620000Y-49190000D03*
X169620000Y-51730000D03*
X169620000Y-54270000D03*
X169620000Y-56810000D03*
X169620000Y-59350000D03*
X169620000Y-61890000D03*
X169620000Y-64430000D03*
X169620000Y-66970000D03*
%TD*%
D13*
%TO.C,SW1*%
X40000000Y-120000000D03*
D14*
X34500000Y-120000000D03*
X45500000Y-120000000D03*
X35000000Y-114850000D03*
X45000000Y-114850000D03*
D15*
X40000000Y-125950000D03*
X45000000Y-123750000D03*
D16*
X43275000Y-125950000D03*
D17*
X31725000Y-123750000D03*
D15*
X35000000Y-123750000D03*
%TD*%
D13*
%TO.C,SW2*%
X40000000Y-101000000D03*
D14*
X34500000Y-101000000D03*
X45500000Y-101000000D03*
X35000000Y-95850000D03*
X45000000Y-95850000D03*
D15*
X40000000Y-106950000D03*
X45000000Y-104750000D03*
D16*
X43275000Y-106950000D03*
D17*
X31725000Y-104750000D03*
D15*
X35000000Y-104750000D03*
%TD*%
D13*
%TO.C,SW3*%
X40000000Y-82000000D03*
D14*
X34500000Y-82000000D03*
X45500000Y-82000000D03*
X35000000Y-76850000D03*
X45000000Y-76850000D03*
D15*
X40000000Y-87950000D03*
X45000000Y-85750000D03*
D16*
X43275000Y-87950000D03*
D17*
X31725000Y-85750000D03*
D15*
X35000000Y-85750000D03*
%TD*%
D13*
%TO.C,SW4*%
X40000000Y-63000000D03*
D14*
X34500000Y-63000000D03*
X45500000Y-63000000D03*
X35000000Y-57850000D03*
X45000000Y-57850000D03*
D15*
X40000000Y-68950000D03*
X45000000Y-66750000D03*
D16*
X43275000Y-68950000D03*
D17*
X31725000Y-66750000D03*
D15*
X35000000Y-66750000D03*
%TD*%
D13*
%TO.C,SW5*%
X60000000Y-110000000D03*
D14*
X54500000Y-110000000D03*
X65500000Y-110000000D03*
X55000000Y-104850000D03*
X65000000Y-104850000D03*
D15*
X60000000Y-115950000D03*
X65000000Y-113750000D03*
D16*
X63275000Y-115950000D03*
D17*
X51725000Y-113750000D03*
D15*
X55000000Y-113750000D03*
%TD*%
D13*
%TO.C,SW6*%
X60000000Y-91000000D03*
D14*
X54500000Y-91000000D03*
X65500000Y-91000000D03*
X55000000Y-85850000D03*
X65000000Y-85850000D03*
D15*
X60000000Y-96950000D03*
X65000000Y-94750000D03*
D16*
X63275000Y-96950000D03*
D17*
X51725000Y-94750000D03*
D15*
X55000000Y-94750000D03*
%TD*%
D13*
%TO.C,SW7*%
X60000000Y-72000000D03*
D14*
X54500000Y-72000000D03*
X65500000Y-72000000D03*
X55000000Y-66850000D03*
X65000000Y-66850000D03*
D15*
X60000000Y-77950000D03*
X65000000Y-75750000D03*
D16*
X63275000Y-77950000D03*
D17*
X51725000Y-75750000D03*
D15*
X55000000Y-75750000D03*
%TD*%
D13*
%TO.C,SW8*%
X60000000Y-53000000D03*
D14*
X54500000Y-53000000D03*
X65500000Y-53000000D03*
X55000000Y-47850000D03*
X65000000Y-47850000D03*
D15*
X60000000Y-58950000D03*
X65000000Y-56750000D03*
D16*
X63275000Y-58950000D03*
D17*
X51725000Y-56750000D03*
D15*
X55000000Y-56750000D03*
%TD*%
D13*
%TO.C,SW9*%
X80000000Y-98000000D03*
D14*
X74500000Y-98000000D03*
X85500000Y-98000000D03*
X75000000Y-92850000D03*
X85000000Y-92850000D03*
D15*
X80000000Y-103950000D03*
X85000000Y-101750000D03*
D16*
X83275000Y-103950000D03*
D17*
X71725000Y-101750000D03*
D15*
X75000000Y-101750000D03*
%TD*%
D13*
%TO.C,SW10*%
X80000000Y-79000000D03*
D14*
X74500000Y-79000000D03*
X85500000Y-79000000D03*
X75000000Y-73850000D03*
X85000000Y-73850000D03*
D15*
X80000000Y-84950000D03*
X85000000Y-82750000D03*
D16*
X83275000Y-84950000D03*
D17*
X71725000Y-82750000D03*
D15*
X75000000Y-82750000D03*
%TD*%
D13*
%TO.C,SW11*%
X80000000Y-60000000D03*
D14*
X74500000Y-60000000D03*
X85500000Y-60000000D03*
X75000000Y-54850000D03*
X85000000Y-54850000D03*
D15*
X80000000Y-65950000D03*
X85000000Y-63750000D03*
D16*
X83275000Y-65950000D03*
D17*
X71725000Y-63750000D03*
D15*
X75000000Y-63750000D03*
%TD*%
D13*
%TO.C,SW12*%
X80000000Y-41000000D03*
D14*
X74500000Y-41000000D03*
X85500000Y-41000000D03*
X75000000Y-35850000D03*
X85000000Y-35850000D03*
D15*
X80000000Y-46950000D03*
X85000000Y-44750000D03*
D16*
X83275000Y-46950000D03*
D17*
X71725000Y-44750000D03*
D15*
X75000000Y-44750000D03*
%TD*%
D13*
%TO.C,SW13*%
X100000000Y-94000000D03*
D14*
X94500000Y-94000000D03*
X105500000Y-94000000D03*
X95000000Y-88850000D03*
X105000000Y-88850000D03*
D15*
X100000000Y-99950000D03*
X105000000Y-97750000D03*
D16*
X103275000Y-99950000D03*
D17*
X91725000Y-97750000D03*
D15*
X95000000Y-97750000D03*
%TD*%
D13*
%TO.C,SW14*%
X100000000Y-75000000D03*
D14*
X94500000Y-75000000D03*
X105500000Y-75000000D03*
X95000000Y-69850000D03*
X105000000Y-69850000D03*
D15*
X100000000Y-80950000D03*
X105000000Y-78750000D03*
D16*
X103275000Y-80950000D03*
D17*
X91725000Y-78750000D03*
D15*
X95000000Y-78750000D03*
%TD*%
D13*
%TO.C,SW15*%
X100000000Y-56000000D03*
D14*
X94500000Y-56000000D03*
X105500000Y-56000000D03*
X95000000Y-50850000D03*
X105000000Y-50850000D03*
D15*
X100000000Y-61950000D03*
X105000000Y-59750000D03*
D16*
X103275000Y-61950000D03*
D17*
X91725000Y-59750000D03*
D15*
X95000000Y-59750000D03*
%TD*%
D13*
%TO.C,SW16*%
X100000000Y-37000000D03*
D14*
X94500000Y-37000000D03*
X105500000Y-37000000D03*
X95000000Y-31850000D03*
X105000000Y-31850000D03*
D15*
X100000000Y-42950000D03*
X105000000Y-40750000D03*
D16*
X103275000Y-42950000D03*
D17*
X91725000Y-40750000D03*
D15*
X95000000Y-40750000D03*
%TD*%
D13*
%TO.C,SW17*%
X120000000Y-98000000D03*
D14*
X114500000Y-98000000D03*
X125500000Y-98000000D03*
X115000000Y-92850000D03*
X125000000Y-92850000D03*
D15*
X120000000Y-103950000D03*
X125000000Y-101750000D03*
D16*
X123275000Y-103950000D03*
D17*
X111725000Y-101750000D03*
D15*
X115000000Y-101750000D03*
%TD*%
D13*
%TO.C,SW18*%
X120000000Y-79000000D03*
D14*
X114500000Y-79000000D03*
X125500000Y-79000000D03*
X115000000Y-73850000D03*
X125000000Y-73850000D03*
D15*
X120000000Y-84950000D03*
X125000000Y-82750000D03*
D16*
X123275000Y-84950000D03*
D17*
X111725000Y-82750000D03*
D15*
X115000000Y-82750000D03*
%TD*%
D13*
%TO.C,SW19*%
X120000000Y-60000000D03*
D14*
X114500000Y-60000000D03*
X125500000Y-60000000D03*
X115000000Y-54850000D03*
X125000000Y-54850000D03*
D15*
X120000000Y-65950000D03*
X125000000Y-63750000D03*
D16*
X123275000Y-65950000D03*
D17*
X111725000Y-63750000D03*
D15*
X115000000Y-63750000D03*
%TD*%
D13*
%TO.C,SW20*%
X120000000Y-41000000D03*
D14*
X114500000Y-41000000D03*
X125500000Y-41000000D03*
X115000000Y-35850000D03*
X125000000Y-35850000D03*
D15*
X120000000Y-46950000D03*
X125000000Y-44750000D03*
D16*
X123275000Y-46950000D03*
D17*
X111725000Y-44750000D03*
D15*
X115000000Y-44750000D03*
%TD*%
D13*
%TO.C,SW21*%
X140000000Y-104000000D03*
D14*
X134500000Y-104000000D03*
X145500000Y-104000000D03*
X135000000Y-98850000D03*
X145000000Y-98850000D03*
D15*
X140000000Y-109950000D03*
X145000000Y-107750000D03*
D16*
X143275000Y-109950000D03*
D17*
X131725000Y-107750000D03*
D15*
X135000000Y-107750000D03*
%TD*%
D13*
%TO.C,SW22*%
X140000000Y-85000000D03*
D14*
X134500000Y-85000000D03*
X145500000Y-85000000D03*
X135000000Y-79850000D03*
X145000000Y-79850000D03*
D15*
X140000000Y-90950000D03*
X145000000Y-88750000D03*
D16*
X143275000Y-90950000D03*
D17*
X131725000Y-88750000D03*
D15*
X135000000Y-88750000D03*
%TD*%
D13*
%TO.C,SW23*%
X140000000Y-66000000D03*
D14*
X134500000Y-66000000D03*
X145500000Y-66000000D03*
X135000000Y-60850000D03*
X145000000Y-60850000D03*
D15*
X140000000Y-71950000D03*
X145000000Y-69750000D03*
D16*
X143275000Y-71950000D03*
D17*
X131725000Y-69750000D03*
D15*
X135000000Y-69750000D03*
%TD*%
D13*
%TO.C,SW24*%
X140000000Y-47000000D03*
D14*
X134500000Y-47000000D03*
X145500000Y-47000000D03*
X135000000Y-41850000D03*
X145000000Y-41850000D03*
D15*
X140000000Y-52950000D03*
X145000000Y-50750000D03*
D16*
X143275000Y-52950000D03*
D17*
X131725000Y-50750000D03*
D15*
X135000000Y-50750000D03*
%TD*%
D13*
%TO.C,SW25*%
X80000000Y-120000000D03*
D14*
X74500000Y-120000000D03*
X85500000Y-120000000D03*
X75000000Y-114850000D03*
X85000000Y-114850000D03*
D15*
X80000000Y-125950000D03*
X85000000Y-123750000D03*
D16*
X83275000Y-125950000D03*
D17*
X71725000Y-123750000D03*
D15*
X75000000Y-123750000D03*
%TD*%
D13*
%TO.C,SW26*%
X100000000Y-120000000D03*
D14*
X94500000Y-120000000D03*
X105500000Y-120000000D03*
X95000000Y-114850000D03*
X105000000Y-114850000D03*
D15*
X100000000Y-125950000D03*
X105000000Y-123750000D03*
D16*
X103275000Y-125950000D03*
D17*
X91725000Y-123750000D03*
D15*
X95000000Y-123750000D03*
%TD*%
D13*
%TO.C,SW27*%
X120000000Y-121000000D03*
D14*
X114520929Y-120520643D03*
X125479071Y-121479357D03*
X115467879Y-115433819D03*
X125429826Y-116305376D03*
D15*
X119481423Y-126927358D03*
X124654139Y-125171509D03*
D18*
X122743961Y-127212794D03*
D19*
X111429655Y-124014516D03*
D15*
X114692192Y-124299951D03*
%TD*%
D13*
%TO.C,SW28*%
X140840400Y-125486500D03*
D14*
X135672091Y-123605389D03*
X146008709Y-127367611D03*
X137903341Y-118936982D03*
X147300267Y-122357184D03*
D15*
X138805380Y-131077671D03*
X144256288Y-130720448D03*
D20*
X141882873Y-132197787D03*
D21*
X131781868Y-126180131D03*
D15*
X134859361Y-127300247D03*
%TD*%
D13*
%TO.C,SW29*%
X159049300Y-135999400D03*
D14*
X154836056Y-132464068D03*
X163262544Y-139534732D03*
X158529434Y-128840333D03*
X166189878Y-135268209D03*
D15*
X155224714Y-140557364D03*
X160469069Y-142086005D03*
D22*
X157733509Y-142662494D03*
D23*
X150299829Y-133552999D03*
D15*
X152808624Y-135658129D03*
%TD*%
D24*
%TO.C,D1*%
X41650000Y-128500000D03*
X38350000Y-128500000D03*
D25*
X37100000Y-128500000D03*
D26*
X42900000Y-128500000D03*
%TD*%
D24*
%TO.C,D2*%
X41650000Y-109500000D03*
X38350000Y-109500000D03*
D25*
X37100000Y-109500000D03*
D26*
X42900000Y-109500000D03*
%TD*%
D24*
%TO.C,D3*%
X41650000Y-90500000D03*
X38350000Y-90500000D03*
D25*
X37100000Y-90500000D03*
D26*
X42900000Y-90500000D03*
%TD*%
D24*
%TO.C,D4*%
X41650000Y-71500000D03*
X38350000Y-71500000D03*
D25*
X37100000Y-71500000D03*
D26*
X42900000Y-71500000D03*
%TD*%
D24*
%TO.C,D5*%
X61650000Y-118500000D03*
X58350000Y-118500000D03*
D25*
X57100000Y-118500000D03*
D26*
X62900000Y-118500000D03*
%TD*%
D24*
%TO.C,D6*%
X61650000Y-99500000D03*
X58350000Y-99500000D03*
D25*
X57100000Y-99500000D03*
D26*
X62900000Y-99500000D03*
%TD*%
D24*
%TO.C,D7*%
X61650000Y-80500000D03*
X58350000Y-80500000D03*
D25*
X57100000Y-80500000D03*
D26*
X62900000Y-80500000D03*
%TD*%
D24*
%TO.C,D8*%
X61650000Y-61500000D03*
X58350000Y-61500000D03*
D25*
X57100000Y-61500000D03*
D26*
X62900000Y-61500000D03*
%TD*%
D24*
%TO.C,D9*%
X81650000Y-106500000D03*
X78350000Y-106500000D03*
D25*
X77100000Y-106500000D03*
D26*
X82900000Y-106500000D03*
%TD*%
D24*
%TO.C,D10*%
X81650000Y-87500000D03*
X78350000Y-87500000D03*
D25*
X77100000Y-87500000D03*
D26*
X82900000Y-87500000D03*
%TD*%
D24*
%TO.C,D11*%
X81650000Y-68500000D03*
X78350000Y-68500000D03*
D25*
X77100000Y-68500000D03*
D26*
X82900000Y-68500000D03*
%TD*%
D24*
%TO.C,D12*%
X81650000Y-49500000D03*
X78350000Y-49500000D03*
D25*
X77100000Y-49500000D03*
D26*
X82900000Y-49500000D03*
%TD*%
D24*
%TO.C,D13*%
X101650000Y-102500000D03*
X98350000Y-102500000D03*
D25*
X97100000Y-102500000D03*
D26*
X102900000Y-102500000D03*
%TD*%
D24*
%TO.C,D14*%
X101650000Y-83500000D03*
X98350000Y-83500000D03*
D25*
X97100000Y-83500000D03*
D26*
X102900000Y-83500000D03*
%TD*%
D24*
%TO.C,D15*%
X101650000Y-64500000D03*
X98350000Y-64500000D03*
D25*
X97100000Y-64500000D03*
D26*
X102900000Y-64500000D03*
%TD*%
D24*
%TO.C,D16*%
X101650000Y-45500000D03*
X98350000Y-45500000D03*
D25*
X97100000Y-45500000D03*
D26*
X102900000Y-45500000D03*
%TD*%
D24*
%TO.C,D17*%
X121650000Y-106500000D03*
X118350000Y-106500000D03*
D25*
X117100000Y-106500000D03*
D26*
X122900000Y-106500000D03*
%TD*%
D24*
%TO.C,D18*%
X121650000Y-87500000D03*
X118350000Y-87500000D03*
D25*
X117100000Y-87500000D03*
D26*
X122900000Y-87500000D03*
%TD*%
D24*
%TO.C,D19*%
X121650000Y-68500000D03*
X118350000Y-68500000D03*
D25*
X117100000Y-68500000D03*
D26*
X122900000Y-68500000D03*
%TD*%
D24*
%TO.C,D20*%
X121650000Y-49500000D03*
X118350000Y-49500000D03*
D25*
X117100000Y-49500000D03*
D26*
X122900000Y-49500000D03*
%TD*%
D24*
%TO.C,D21*%
X141650000Y-112500000D03*
X138350000Y-112500000D03*
D25*
X137100000Y-112500000D03*
D26*
X142900000Y-112500000D03*
%TD*%
D24*
%TO.C,D22*%
X141650000Y-93500000D03*
X138350000Y-93500000D03*
D25*
X137100000Y-93500000D03*
D26*
X142900000Y-93500000D03*
%TD*%
D24*
%TO.C,D23*%
X141650000Y-74500000D03*
X138350000Y-74500000D03*
D25*
X137100000Y-74500000D03*
D26*
X142900000Y-74500000D03*
%TD*%
D24*
%TO.C,D24*%
X141650000Y-55500000D03*
X138350000Y-55500000D03*
D25*
X137100000Y-55500000D03*
D26*
X142900000Y-55500000D03*
%TD*%
D24*
%TO.C,D25*%
X81650000Y-128500000D03*
X78350000Y-128500000D03*
D25*
X77100000Y-128500000D03*
D26*
X82900000Y-128500000D03*
%TD*%
D24*
%TO.C,D26*%
X101650000Y-128500000D03*
X98350000Y-128500000D03*
D25*
X97100000Y-128500000D03*
D26*
X102900000Y-128500000D03*
%TD*%
D27*
%TO.C,D27*%
X120902921Y-129611507D03*
X117615479Y-129323893D03*
D28*
X116370235Y-129214948D03*
D26*
X122148165Y-129720452D03*
%TD*%
D29*
%TO.C,D28*%
X139483693Y-134038233D03*
X136382707Y-132909567D03*
D30*
X135208091Y-132482042D03*
D26*
X140658309Y-134465758D03*
%TD*%
D31*
%TO.C,D29*%
X154849573Y-143571400D03*
X152321627Y-141450200D03*
D32*
X151364071Y-140646716D03*
D26*
X155807129Y-144374884D03*
%TD*%
D33*
%TO.C,L1*%
X42700000Y-114300000D03*
X42700000Y-115700000D03*
X37300000Y-114300000D03*
X37300000Y-115700000D03*
%TD*%
%TO.C,L2*%
X42700000Y-95300000D03*
X42700000Y-96700000D03*
X37300000Y-95300000D03*
X37300000Y-96700000D03*
%TD*%
%TO.C,L3*%
X42700000Y-76300000D03*
X42700000Y-77700000D03*
X37300000Y-76300000D03*
X37300000Y-77700000D03*
%TD*%
%TO.C,L4*%
X42700000Y-57300000D03*
X42700000Y-58700000D03*
X37300000Y-57300000D03*
X37300000Y-58700000D03*
%TD*%
%TO.C,L5*%
X62700000Y-104300000D03*
X62700000Y-105700000D03*
X57300000Y-104300000D03*
X57300000Y-105700000D03*
%TD*%
%TO.C,L6*%
X62700000Y-85300000D03*
X62700000Y-86700000D03*
X57300000Y-85300000D03*
X57300000Y-86700000D03*
%TD*%
%TO.C,L7*%
X62700000Y-66300000D03*
X62700000Y-67700000D03*
X57300000Y-66300000D03*
X57300000Y-67700000D03*
%TD*%
%TO.C,L8*%
X62700000Y-47300000D03*
X62700000Y-48700000D03*
X57300000Y-47300000D03*
X57300000Y-48700000D03*
%TD*%
%TO.C,L9*%
X82700000Y-92300000D03*
X82700000Y-93700000D03*
X77300000Y-92300000D03*
X77300000Y-93700000D03*
%TD*%
%TO.C,L10*%
X82700000Y-73300000D03*
X82700000Y-74700000D03*
X77300000Y-73300000D03*
X77300000Y-74700000D03*
%TD*%
%TO.C,L11*%
X82700000Y-54300000D03*
X82700000Y-55700000D03*
X77300000Y-54300000D03*
X77300000Y-55700000D03*
%TD*%
%TO.C,L12*%
X82700000Y-35300000D03*
X82700000Y-36700000D03*
X77300000Y-35300000D03*
X77300000Y-36700000D03*
%TD*%
%TO.C,L13*%
X102700000Y-88300000D03*
X102700000Y-89700000D03*
X97300000Y-88300000D03*
X97300000Y-89700000D03*
%TD*%
%TO.C,L14*%
X102700000Y-69300000D03*
X102700000Y-70700000D03*
X97300000Y-69300000D03*
X97300000Y-70700000D03*
%TD*%
%TO.C,L15*%
X102700000Y-50300000D03*
X102700000Y-51700000D03*
X97300000Y-50300000D03*
X97300000Y-51700000D03*
%TD*%
%TO.C,L16*%
X102700000Y-31300000D03*
X102700000Y-32700000D03*
X97300000Y-31300000D03*
X97300000Y-32700000D03*
%TD*%
%TO.C,L17*%
X122700000Y-92300000D03*
X122700000Y-93700000D03*
X117300000Y-92300000D03*
X117300000Y-93700000D03*
%TD*%
%TO.C,L18*%
X122700000Y-73300000D03*
X122700000Y-74700000D03*
X117300000Y-73300000D03*
X117300000Y-74700000D03*
%TD*%
%TO.C,L19*%
X122700000Y-54300000D03*
X122700000Y-55700000D03*
X117300000Y-54300000D03*
X117300000Y-55700000D03*
%TD*%
%TO.C,L20*%
X122700000Y-35300000D03*
X122700000Y-36700000D03*
X117300000Y-35300000D03*
X117300000Y-36700000D03*
%TD*%
%TO.C,L21*%
X142700000Y-98300000D03*
X142700000Y-99700000D03*
X137300000Y-98300000D03*
X137300000Y-99700000D03*
%TD*%
%TO.C,L22*%
X142700000Y-79300000D03*
X142700000Y-80700000D03*
X137300000Y-79300000D03*
X137300000Y-80700000D03*
%TD*%
%TO.C,L23*%
X142700000Y-60300000D03*
X142700000Y-61700000D03*
X137300000Y-60300000D03*
X137300000Y-61700000D03*
%TD*%
%TO.C,L24*%
X142700000Y-41300000D03*
X142700000Y-42700000D03*
X137300000Y-41300000D03*
X137300000Y-42700000D03*
%TD*%
%TO.C,L25*%
X82700000Y-114300000D03*
X82700000Y-115700000D03*
X77300000Y-114300000D03*
X77300000Y-115700000D03*
%TD*%
%TO.C,L26*%
X102700000Y-114300000D03*
X102700000Y-115700000D03*
X97300000Y-114300000D03*
X97300000Y-115700000D03*
%TD*%
D34*
%TO.C,L27*%
X123186535Y-115556984D03*
X123064517Y-116951657D03*
X117807083Y-115086343D03*
X117685065Y-116481016D03*
%TD*%
D35*
%TO.C,L28*%
X145327084Y-121053670D03*
X144848256Y-122369239D03*
X140252744Y-119206761D03*
X139773916Y-120522330D03*
%TD*%
D36*
%TO.C,L29*%
X164781571Y-133368495D03*
X163881669Y-134440958D03*
X160644931Y-129897442D03*
X159745029Y-130969905D03*
%TD*%
D37*
%TO.C,TRRS1*%
X165400000Y-74700000D03*
X172400000Y-74700000D03*
X165400000Y-77000000D03*
X172400000Y-77000000D03*
D38*
X162700000Y-74700000D03*
X163800000Y-79300000D03*
X167800000Y-79300000D03*
X170800000Y-79300000D03*
X162700000Y-77000000D03*
X163800000Y-72400000D03*
X167800000Y-72400000D03*
X170800000Y-72400000D03*
%TD*%
D39*
%TO.C,RST1*%
X172950000Y-93375000D03*
X171250000Y-93375000D03*
X172950000Y-98625000D03*
X171250000Y-98625000D03*
%TD*%
D40*
%TO.C,PWR1*%
X171315000Y-102350000D03*
X173525000Y-102350000D03*
X171315000Y-109650000D03*
X173525000Y-109650000D03*
D41*
X170665000Y-103750000D03*
X170665000Y-106750000D03*
X170665000Y-108250000D03*
D42*
X172425000Y-104500000D03*
X172425000Y-107500000D03*
%TD*%
D43*
%TO.C,Rotary1*%
X165540000Y-85380000D03*
D44*
X163040000Y-85380000D03*
X160540000Y-85380000D03*
D37*
X165540000Y-99880000D03*
X160540000Y-99880000D03*
D45*
X168640000Y-92880000D03*
X157440000Y-92880000D03*
%TD*%
D46*
%TO.C,UB_1*%
X70875000Y-89800000D03*
X69125000Y-89800000D03*
X69125000Y-94200000D03*
X70875000Y-94200000D03*
D47*
X71600000Y-89500000D03*
X68400000Y-89500000D03*
X68400000Y-94500000D03*
X71600000Y-94500000D03*
%TD*%
D46*
%TO.C,UB_2*%
X70875000Y-51800000D03*
X69125000Y-51800000D03*
X69125000Y-56200000D03*
X70875000Y-56200000D03*
D47*
X71600000Y-51500000D03*
X68400000Y-51500000D03*
X68400000Y-56500000D03*
X71600000Y-56500000D03*
%TD*%
D46*
%TO.C,UB_3*%
X110875000Y-91800000D03*
X109125000Y-91800000D03*
X109125000Y-96200000D03*
X110875000Y-96200000D03*
D47*
X111600000Y-91500000D03*
X108400000Y-91500000D03*
X108400000Y-96500000D03*
X111600000Y-96500000D03*
%TD*%
D46*
%TO.C,UB_4*%
X110875000Y-53800000D03*
X109125000Y-53800000D03*
X109125000Y-58200000D03*
X110875000Y-58200000D03*
D47*
X111600000Y-53500000D03*
X108400000Y-53500000D03*
X108400000Y-58500000D03*
X111600000Y-58500000D03*
%TD*%
D46*
%TO.C,UB_5*%
X153875000Y-113800000D03*
X152125000Y-113800000D03*
X152125000Y-118200000D03*
X153875000Y-118200000D03*
D47*
X154600000Y-113500000D03*
X151400000Y-113500000D03*
X151400000Y-118500000D03*
X154600000Y-118500000D03*
%TD*%
D46*
%TO.C,UB_6*%
X153875000Y-83800000D03*
X152125000Y-83800000D03*
X152125000Y-88200000D03*
X153875000Y-88200000D03*
D47*
X154600000Y-83500000D03*
X151400000Y-83500000D03*
X151400000Y-88500000D03*
X154600000Y-88500000D03*
%TD*%
M02*
