M48
; DRILL file {KiCad 8.0.4} date 2024-08-10T13:54:50-0600
; FORMAT={-:-/ absolute / metric / decimal}
; #@! TF.CreationDate,2024-08-10T13:54:50-06:00
; #@! TF.GenerationSoftware,Kicad,Pcbnew,8.0.4
; #@! TF.FileFunction,Plated,1,2,PTH
FMAT,2
METRIC
; #@! TA.AperFunction,Plated,PTH,ViaDrill
T1C0.300
; #@! TA.AperFunction,Plated,PTH,ComponentDrill
T2C0.900
; #@! TA.AperFunction,Plated,PTH,ComponentDrill
T3C0.991
; #@! TA.AperFunction,Plated,PTH,ComponentDrill
T4C1.000
; #@! TA.AperFunction,Plated,PTH,ComponentDrill
T5C1.092
; #@! TA.AperFunction,Plated,PTH,ComponentDrill
T6C1.500
; #@! TA.AperFunction,Plated,PTH,ComponentDrill
T7C1.600
%
G90
G05
T1
X36.2Y-58.7
X36.2Y-77.7
X36.2Y-96.7
X36.2Y-115.7
X38.355Y-67.247
X38.379Y-105.285
X42.201Y-123.7
X42.544Y-85.499
X43.8Y-58.7
X43.8Y-77.7
X43.8Y-96.7
X43.8Y-115.7
X43.97Y-101.874
X49.864Y-71.753
X51.725Y-100.472
X54.343Y-81.768
X55.669Y-62.53
X56.2Y-48.7
X56.2Y-67.7
X56.2Y-86.7
X56.2Y-105.7
X58.377Y-95.255
X59.96Y-56.475
X62.302Y-75.759
X63.8Y-48.7
X63.8Y-67.7
X63.8Y-86.7
X63.8Y-105.7
X67.284Y-53.014
X68.241Y-92.567
X68.4Y-47.116
X68.959Y-84.688
X69.112Y-63.354
X70.875Y-54.118
X71.426Y-71.115
X71.6Y-96.015
X73.709Y-53.512
X74.321Y-109.352
X76.2Y-36.7
X76.2Y-55.7
X76.2Y-74.7
X76.2Y-93.7
X76.2Y-115.7
X79.852Y-82.686
X80.071Y-101.699
X82.285Y-123.438
X82.594Y-63.88
X83.8Y-36.7
X83.8Y-55.7
X83.8Y-74.7
X83.8Y-93.7
X83.8Y-115.7
X87.587Y-85.578
X87.891Y-42.602
X88.109Y-84.561
X91.9Y-84.705
X92.184Y-46.791
X92.951Y-64.82
X95.594Y-65.049
X95.609Y-103.59
X96.2Y-32.7
X96.2Y-51.7
X96.2Y-70.7
X96.2Y-89.7
X96.2Y-115.7
X101.471Y-66.382
X102.004Y-78.847
X103.8Y-32.7
X103.8Y-51.7
X103.8Y-70.7
X103.8Y-89.7
X103.8Y-115.7
X104.461Y-64.188
X104.594Y-104.22
X107.799Y-94.93
X108.33Y-86.524
X108.365Y-48.564
X110.125Y-80.99
X110.14Y-129.798
X111.175Y-55.617
X111.725Y-107.343
X111.941Y-93.004
X115.467Y-87.81
X116.2Y-36.7
X116.2Y-55.7
X116.2Y-74.7
X116.2Y-93.7
X116.589Y-116.385
X118.069Y-44.934
X118.347Y-102.236
X122.072Y-89.33
X123.8Y-36.7
X123.8Y-55.7
X123.8Y-74.7
X123.8Y-93.7
X124.16Y-117.048
X124.584Y-68.848
X130.787Y-109.862
X131.994Y-94.948
X135.126Y-115.22
X135.243Y-75.825
X136.2Y-42.7
X136.2Y-61.7
X136.2Y-80.7
X136.2Y-99.7
X138.373Y-108.261
X138.551Y-70.144
X138.74Y-120.146
X140.993Y-130.023
X141.452Y-51.072
X142.227Y-88.614
X143.8Y-42.7
X143.8Y-61.7
X143.8Y-80.7
X143.8Y-99.7
X145.882Y-122.746
X148.058Y-74.501
X149.381Y-136.749
X150.076Y-112.8
X151.94Y-78.64
X152.2Y-116.38
X152.82Y-108.603
X153.0Y-115.452
X153.946Y-116.005
X154.192Y-78.608
X154.877Y-86.967
X157.061Y-70.407
X158.902Y-130.263
X164.724Y-135.148
X169.488Y-105.907
X169.858Y-102.785
X171.25Y-95.689
T3
X37.1Y-71.5
X37.1Y-90.5
X37.1Y-109.5
X37.1Y-128.5
X42.9Y-71.5
X42.9Y-90.5
X42.9Y-109.5
X42.9Y-128.5
X57.1Y-61.5
X57.1Y-80.5
X57.1Y-99.5
X57.1Y-118.5
X62.9Y-61.5
X62.9Y-80.5
X62.9Y-99.5
X62.9Y-118.5
X77.1Y-49.5
X77.1Y-68.5
X77.1Y-87.5
X77.1Y-106.5
X77.1Y-128.5
X82.9Y-49.5
X82.9Y-68.5
X82.9Y-87.5
X82.9Y-106.5
X82.9Y-128.5
X97.1Y-45.5
X97.1Y-64.5
X97.1Y-83.5
X97.1Y-102.5
X97.1Y-128.5
X102.9Y-45.5
X102.9Y-64.5
X102.9Y-83.5
X102.9Y-102.5
X102.9Y-128.5
X116.37Y-129.215
X117.1Y-49.5
X117.1Y-68.5
X117.1Y-87.5
X117.1Y-106.5
X122.148Y-129.72
X122.9Y-49.5
X122.9Y-68.5
X122.9Y-87.5
X122.9Y-106.5
X135.208Y-132.482
X137.1Y-55.5
X137.1Y-74.5
X137.1Y-93.5
X137.1Y-112.5
X140.658Y-134.466
X142.9Y-55.5
X142.9Y-74.5
X142.9Y-93.5
X142.9Y-112.5
X151.364Y-140.647
X155.807Y-144.375
T4
X160.54Y-85.38
X160.54Y-99.88
X163.04Y-85.38
X165.54Y-85.38
X165.54Y-99.88
T5
X154.38Y-39.03
X154.38Y-41.57
X154.38Y-44.11
X154.38Y-46.65
X154.38Y-49.19
X154.38Y-51.73
X154.38Y-54.27
X154.38Y-56.81
X154.38Y-59.35
X154.38Y-61.89
X154.38Y-64.43
X154.38Y-66.97
X169.62Y-39.03
X169.62Y-41.57
X169.62Y-44.11
X169.62Y-46.65
X169.62Y-49.19
X169.62Y-51.73
X169.62Y-54.27
X169.62Y-56.81
X169.62Y-59.35
X169.62Y-61.89
X169.62Y-64.43
X169.62Y-66.97
T7
X35.0Y-57.85
X35.0Y-76.85
X35.0Y-95.85
X35.0Y-114.85
X45.0Y-57.85
X45.0Y-76.85
X45.0Y-95.85
X45.0Y-114.85
X55.0Y-47.85
X55.0Y-66.85
X55.0Y-85.85
X55.0Y-104.85
X65.0Y-47.85
X65.0Y-66.85
X65.0Y-85.85
X65.0Y-104.85
X75.0Y-35.85
X75.0Y-54.85
X75.0Y-73.85
X75.0Y-92.85
X75.0Y-114.85
X85.0Y-35.85
X85.0Y-54.85
X85.0Y-73.85
X85.0Y-92.85
X85.0Y-114.85
X95.0Y-31.85
X95.0Y-50.85
X95.0Y-69.85
X95.0Y-88.85
X95.0Y-114.85
X105.0Y-31.85
X105.0Y-50.85
X105.0Y-69.85
X105.0Y-88.85
X105.0Y-114.85
X115.0Y-35.85
X115.0Y-54.85
X115.0Y-73.85
X115.0Y-92.85
X115.468Y-115.434
X125.0Y-35.85
X125.0Y-54.85
X125.0Y-73.85
X125.0Y-92.85
X125.43Y-116.305
X135.0Y-41.85
X135.0Y-60.85
X135.0Y-79.85
X135.0Y-98.85
X137.903Y-118.937
X145.0Y-41.85
X145.0Y-60.85
X145.0Y-79.85
X145.0Y-98.85
X147.3Y-122.357
X158.529Y-128.84
X166.19Y-135.268
T2
G00X163.0Y-74.7
M15
G01X162.4Y-74.7
M16
G05
G00X163.0Y-77.0
M15
G01X162.4Y-77.0
M16
G05
G00X164.1Y-72.4
M15
G01X163.5Y-72.4
M16
G05
G00X164.1Y-79.3
M15
G01X163.5Y-79.3
M16
G05
G00X168.1Y-72.4
M15
G01X167.5Y-72.4
M16
G05
G00X168.1Y-79.3
M15
G01X167.5Y-79.3
M16
G05
G00X171.1Y-72.4
M15
G01X170.5Y-72.4
M16
G05
G00X171.1Y-79.3
M15
G01X170.5Y-79.3
M16
G05
T6
G00X157.44Y-92.23
M15
G01X157.44Y-93.53
M16
G05
G00X168.64Y-92.23
M15
G01X168.64Y-93.53
M16
G05
M30
