%TF.GenerationSoftware,KiCad,Pcbnew,8.0.4*%
%TF.CreationDate,2024-08-10T13:55:05-06:00*%
%TF.ProjectId,staggered_col58,73746167-6765-4726-9564-5f636f6c3538,0.1*%
%TF.SameCoordinates,Original*%
%TF.FileFunction,Copper,L2,Bot*%
%TF.FilePolarity,Positive*%
%FSLAX46Y46*%
G04 Gerber Fmt 4.6, Leading zero omitted, Abs format (unit mm)*
G04 Created by KiCad (PCBNEW 8.0.4) date 2024-08-10 13:55:05*
%MOMM*%
%LPD*%
G01*
G04 APERTURE LIST*
G04 Aperture macros list*
%AMRotRect*
0 Rectangle, with rotation*
0 The origin of the aperture is its center*
0 $1 length*
0 $2 width*
0 $3 Rotation angle, in degrees counterclockwise*
0 Add horizontal line*
21,1,$1,$2,0,0,$3*%
%AMOutline5P*
0 Free polygon, 5 corners , with rotation*
0 The origin of the aperture is its center*
0 number of corners: always 5*
0 $1 to $10 corner X, Y*
0 $11 Rotation angle, in degrees counterclockwise*
0 create outline with 5 corners*
4,1,5,$1,$2,$3,$4,$5,$6,$7,$8,$9,$10,$1,$2,$11*%
%AMOutline6P*
0 Free polygon, 6 corners , with rotation*
0 The origin of the aperture is its center*
0 number of corners: always 6*
0 $1 to $12 corner X, Y*
0 $13 Rotation angle, in degrees counterclockwise*
0 create outline with 6 corners*
4,1,6,$1,$2,$3,$4,$5,$6,$7,$8,$9,$10,$11,$12,$1,$2,$13*%
%AMOutline7P*
0 Free polygon, 7 corners , with rotation*
0 The origin of the aperture is its center*
0 number of corners: always 7*
0 $1 to $14 corner X, Y*
0 $15 Rotation angle, in degrees counterclockwise*
0 create outline with 7 corners*
4,1,7,$1,$2,$3,$4,$5,$6,$7,$8,$9,$10,$11,$12,$13,$14,$1,$2,$15*%
%AMOutline8P*
0 Free polygon, 8 corners , with rotation*
0 The origin of the aperture is its center*
0 number of corners: always 8*
0 $1 to $16 corner X, Y*
0 $17 Rotation angle, in degrees counterclockwise*
0 create outline with 8 corners*
4,1,8,$1,$2,$3,$4,$5,$6,$7,$8,$9,$10,$11,$12,$13,$14,$15,$16,$1,$2,$17*%
G04 Aperture macros list end*
%TA.AperFunction,ComponentPad*%
%ADD10R,1.752600X1.752600*%
%TD*%
%TA.AperFunction,ComponentPad*%
%ADD11C,1.752600*%
%TD*%
%TA.AperFunction,ComponentPad*%
%ADD12C,1.900000*%
%TD*%
%TA.AperFunction,SMDPad,CuDef*%
%ADD13Outline5P,-1.300000X1.300000X1.300000X1.300000X1.300000X-1.300000X-0.117000X-1.300000X-1.300000X-0.117000X180.000000*%
%TD*%
%TA.AperFunction,SMDPad,CuDef*%
%ADD14R,2.600000X2.600000*%
%TD*%
%TA.AperFunction,SMDPad,CuDef*%
%ADD15Outline5P,-1.300000X1.300000X1.300000X1.300000X1.300000X-1.300000X-0.117000X-1.300000X-1.300000X-0.117000X175.000000*%
%TD*%
%TA.AperFunction,SMDPad,CuDef*%
%ADD16RotRect,2.600000X2.600000X175.000000*%
%TD*%
%TA.AperFunction,SMDPad,CuDef*%
%ADD17Outline5P,-1.300000X1.300000X1.300000X1.300000X1.300000X-1.300000X-0.117000X-1.300000X-1.300000X-0.117000X160.000000*%
%TD*%
%TA.AperFunction,SMDPad,CuDef*%
%ADD18RotRect,2.600000X2.600000X160.000000*%
%TD*%
%TA.AperFunction,SMDPad,CuDef*%
%ADD19Outline5P,-1.300000X1.300000X1.300000X1.300000X1.300000X-1.300000X-0.117000X-1.300000X-1.300000X-0.117000X140.000000*%
%TD*%
%TA.AperFunction,SMDPad,CuDef*%
%ADD20RotRect,2.600000X2.600000X140.000000*%
%TD*%
%TA.AperFunction,SMDPad,CuDef*%
%ADD21R,0.900000X1.200000*%
%TD*%
%TA.AperFunction,ComponentPad*%
%ADD22R,1.778000X1.778000*%
%TD*%
%TA.AperFunction,ComponentPad*%
%ADD23C,1.905000*%
%TD*%
%TA.AperFunction,SMDPad,CuDef*%
%ADD24RotRect,0.900000X1.200000X355.000000*%
%TD*%
%TA.AperFunction,ComponentPad*%
%ADD25RotRect,1.778000X1.778000X355.000000*%
%TD*%
%TA.AperFunction,SMDPad,CuDef*%
%ADD26RotRect,0.900000X1.200000X340.000000*%
%TD*%
%TA.AperFunction,ComponentPad*%
%ADD27RotRect,1.778000X1.778000X340.000000*%
%TD*%
%TA.AperFunction,SMDPad,CuDef*%
%ADD28RotRect,0.900000X1.200000X320.000000*%
%TD*%
%TA.AperFunction,ComponentPad*%
%ADD29RotRect,1.778000X1.778000X320.000000*%
%TD*%
%TA.AperFunction,SMDPad,CuDef*%
%ADD30R,1.400000X1.000000*%
%TD*%
%TA.AperFunction,SMDPad,CuDef*%
%ADD31RotRect,1.400000X1.000000X355.000000*%
%TD*%
%TA.AperFunction,SMDPad,CuDef*%
%ADD32RotRect,1.400000X1.000000X340.000000*%
%TD*%
%TA.AperFunction,SMDPad,CuDef*%
%ADD33RotRect,1.400000X1.000000X320.000000*%
%TD*%
%TA.AperFunction,ComponentPad*%
%ADD34O,2.200000X1.600000*%
%TD*%
%TA.AperFunction,SMDPad,CuDef*%
%ADD35R,1.000000X1.550000*%
%TD*%
%TA.AperFunction,SMDPad,CuDef*%
%ADD36R,0.800000X1.000000*%
%TD*%
%TA.AperFunction,SMDPad,CuDef*%
%ADD37R,1.500000X0.700000*%
%TD*%
%TA.AperFunction,ComponentPad*%
%ADD38R,2.000000X2.000000*%
%TD*%
%TA.AperFunction,ComponentPad*%
%ADD39C,2.000000*%
%TD*%
%TA.AperFunction,ComponentPad*%
%ADD40C,1.500000*%
%TD*%
%TA.AperFunction,ComponentPad*%
%ADD41R,2.000000X3.200000*%
%TD*%
%TA.AperFunction,SMDPad,CuDef*%
%ADD42R,1.000000X2.600000*%
%TD*%
%TA.AperFunction,SMDPad,CuDef*%
%ADD43R,1.200000X2.000000*%
%TD*%
%TA.AperFunction,ViaPad*%
%ADD44C,0.600000*%
%TD*%
%TA.AperFunction,ViaPad*%
%ADD45C,0.560000*%
%TD*%
%TA.AperFunction,Conductor*%
%ADD46C,0.200000*%
%TD*%
%TA.AperFunction,Conductor*%
%ADD47C,0.250000*%
%TD*%
G04 APERTURE END LIST*
D10*
%TO.P,MCU1,1*%
%TO.N,RAW*%
X154380000Y-39030000D03*
D11*
%TO.P,MCU1,2*%
%TO.N,GND*%
X154380000Y-41570000D03*
%TO.P,MCU1,3*%
%TO.N,RST*%
X154380000Y-44110000D03*
%TO.P,MCU1,4*%
%TO.N,VCC*%
X154380000Y-46650000D03*
%TO.P,MCU1,5*%
%TO.N,P21*%
X154380000Y-49190000D03*
%TO.P,MCU1,6*%
%TO.N,P20*%
X154380000Y-51730000D03*
%TO.P,MCU1,7*%
%TO.N,P19*%
X154380000Y-54270000D03*
%TO.P,MCU1,8*%
%TO.N,P18*%
X154380000Y-56810000D03*
%TO.P,MCU1,9*%
%TO.N,P15*%
X154380000Y-59350000D03*
%TO.P,MCU1,10*%
%TO.N,P14*%
X154380000Y-61890000D03*
%TO.P,MCU1,11*%
%TO.N,P16*%
X154380000Y-64430000D03*
%TO.P,MCU1,12*%
%TO.N,P10*%
X154380000Y-66970000D03*
%TO.P,MCU1,13*%
%TO.N,P1*%
X169620000Y-39030000D03*
%TO.P,MCU1,14*%
%TO.N,P0*%
X169620000Y-41570000D03*
%TO.P,MCU1,15*%
%TO.N,GND*%
X169620000Y-44110000D03*
%TO.P,MCU1,16*%
X169620000Y-46650000D03*
%TO.P,MCU1,17*%
%TO.N,P2*%
X169620000Y-49190000D03*
%TO.P,MCU1,18*%
%TO.N,P3*%
X169620000Y-51730000D03*
%TO.P,MCU1,19*%
%TO.N,P4*%
X169620000Y-54270000D03*
%TO.P,MCU1,20*%
%TO.N,P5*%
X169620000Y-56810000D03*
%TO.P,MCU1,21*%
%TO.N,P6*%
X169620000Y-59350000D03*
%TO.P,MCU1,22*%
%TO.N,P7*%
X169620000Y-61890000D03*
%TO.P,MCU1,23*%
%TO.N,P8*%
X169620000Y-64430000D03*
%TO.P,MCU1,24*%
%TO.N,P9*%
X169620000Y-66970000D03*
%TD*%
D12*
%TO.P,SW1,*%
%TO.N,P1010*%
X35000000Y-114850000D03*
%TO.N,P1011*%
X45000000Y-114850000D03*
D13*
%TO.P,SW1,1*%
%TO.N,P5*%
X43275000Y-125950000D03*
D14*
%TO.P,SW1,2*%
%TO.N,DP21*%
X31725000Y-123750000D03*
%TD*%
D12*
%TO.P,SW2,*%
%TO.N,P1020*%
X35000000Y-95850000D03*
%TO.N,P1021*%
X45000000Y-95850000D03*
D13*
%TO.P,SW2,1*%
%TO.N,P4*%
X43275000Y-106950000D03*
D14*
%TO.P,SW2,2*%
%TO.N,DP21*%
X31725000Y-104750000D03*
%TD*%
D12*
%TO.P,SW3,*%
%TO.N,P1030*%
X35000000Y-76850000D03*
%TO.N,P1031*%
X45000000Y-76850000D03*
D13*
%TO.P,SW3,1*%
%TO.N,P3*%
X43275000Y-87950000D03*
D14*
%TO.P,SW3,2*%
%TO.N,DP21*%
X31725000Y-85750000D03*
%TD*%
D12*
%TO.P,SW4,*%
%TO.N,P1040*%
X35000000Y-57850000D03*
%TO.N,P1041*%
X45000000Y-57850000D03*
D13*
%TO.P,SW4,1*%
%TO.N,P2*%
X43275000Y-68950000D03*
D14*
%TO.P,SW4,2*%
%TO.N,DP21*%
X31725000Y-66750000D03*
%TD*%
D12*
%TO.P,SW5,*%
%TO.N,P1011*%
X55000000Y-104850000D03*
%TO.N,P1012*%
X65000000Y-104850000D03*
D13*
%TO.P,SW5,1*%
%TO.N,P5*%
X63275000Y-115950000D03*
D14*
%TO.P,SW5,2*%
%TO.N,DP20*%
X51725000Y-113750000D03*
%TD*%
D12*
%TO.P,SW6,*%
%TO.N,P1021*%
X55000000Y-85850000D03*
%TO.N,P1022*%
X65000000Y-85850000D03*
D13*
%TO.P,SW6,1*%
%TO.N,P4*%
X63275000Y-96950000D03*
D14*
%TO.P,SW6,2*%
%TO.N,DP20*%
X51725000Y-94750000D03*
%TD*%
D12*
%TO.P,SW7,*%
%TO.N,P1031*%
X55000000Y-66850000D03*
%TO.N,P1032*%
X65000000Y-66850000D03*
D13*
%TO.P,SW7,1*%
%TO.N,P3*%
X63275000Y-77950000D03*
D14*
%TO.P,SW7,2*%
%TO.N,DP20*%
X51725000Y-75750000D03*
%TD*%
D12*
%TO.P,SW8,*%
%TO.N,P1041*%
X55000000Y-47850000D03*
%TO.N,P1042*%
X65000000Y-47850000D03*
D13*
%TO.P,SW8,1*%
%TO.N,P2*%
X63275000Y-58950000D03*
D14*
%TO.P,SW8,2*%
%TO.N,DP20*%
X51725000Y-56750000D03*
%TD*%
D12*
%TO.P,SW9,*%
%TO.N,P1012*%
X75000000Y-92850000D03*
%TO.N,P1013*%
X85000000Y-92850000D03*
D13*
%TO.P,SW9,1*%
%TO.N,P5*%
X83275000Y-103950000D03*
D14*
%TO.P,SW9,2*%
%TO.N,DP19*%
X71725000Y-101750000D03*
%TD*%
D12*
%TO.P,SW10,*%
%TO.N,P1022*%
X75000000Y-73850000D03*
%TO.N,P1023*%
X85000000Y-73850000D03*
D13*
%TO.P,SW10,1*%
%TO.N,P4*%
X83275000Y-84950000D03*
D14*
%TO.P,SW10,2*%
%TO.N,DP19*%
X71725000Y-82750000D03*
%TD*%
D12*
%TO.P,SW11,*%
%TO.N,P1032*%
X75000000Y-54850000D03*
%TO.N,P1033*%
X85000000Y-54850000D03*
D13*
%TO.P,SW11,1*%
%TO.N,P3*%
X83275000Y-65950000D03*
D14*
%TO.P,SW11,2*%
%TO.N,DP19*%
X71725000Y-63750000D03*
%TD*%
D12*
%TO.P,SW12,*%
%TO.N,P1042*%
X75000000Y-35850000D03*
%TO.N,P1043*%
X85000000Y-35850000D03*
D13*
%TO.P,SW12,1*%
%TO.N,P2*%
X83275000Y-46950000D03*
D14*
%TO.P,SW12,2*%
%TO.N,DP19*%
X71725000Y-44750000D03*
%TD*%
D12*
%TO.P,SW13,*%
%TO.N,P1013*%
X95000000Y-88850000D03*
%TO.N,P1014*%
X105000000Y-88850000D03*
D13*
%TO.P,SW13,1*%
%TO.N,P5*%
X103275000Y-99950000D03*
D14*
%TO.P,SW13,2*%
%TO.N,DP18*%
X91725000Y-97750000D03*
%TD*%
D12*
%TO.P,SW14,*%
%TO.N,P1023*%
X95000000Y-69850000D03*
%TO.N,P1024*%
X105000000Y-69850000D03*
D13*
%TO.P,SW14,1*%
%TO.N,P4*%
X103275000Y-80950000D03*
D14*
%TO.P,SW14,2*%
%TO.N,DP18*%
X91725000Y-78750000D03*
%TD*%
D12*
%TO.P,SW15,*%
%TO.N,P1033*%
X95000000Y-50850000D03*
%TO.N,P1034*%
X105000000Y-50850000D03*
D13*
%TO.P,SW15,1*%
%TO.N,P3*%
X103275000Y-61950000D03*
D14*
%TO.P,SW15,2*%
%TO.N,DP18*%
X91725000Y-59750000D03*
%TD*%
D12*
%TO.P,SW16,*%
%TO.N,P1043*%
X95000000Y-31850000D03*
%TO.N,P1044*%
X105000000Y-31850000D03*
D13*
%TO.P,SW16,1*%
%TO.N,P2*%
X103275000Y-42950000D03*
D14*
%TO.P,SW16,2*%
%TO.N,DP18*%
X91725000Y-40750000D03*
%TD*%
D12*
%TO.P,SW17,*%
%TO.N,P1014*%
X115000000Y-92850000D03*
%TO.N,P1015*%
X125000000Y-92850000D03*
D13*
%TO.P,SW17,1*%
%TO.N,P5*%
X123275000Y-103950000D03*
D14*
%TO.P,SW17,2*%
%TO.N,DP15*%
X111725000Y-101750000D03*
%TD*%
D12*
%TO.P,SW18,*%
%TO.N,P1024*%
X115000000Y-73850000D03*
%TO.N,P1025*%
X125000000Y-73850000D03*
D13*
%TO.P,SW18,1*%
%TO.N,P4*%
X123275000Y-84950000D03*
D14*
%TO.P,SW18,2*%
%TO.N,DP15*%
X111725000Y-82750000D03*
%TD*%
D12*
%TO.P,SW19,*%
%TO.N,P1034*%
X115000000Y-54850000D03*
%TO.N,P1035*%
X125000000Y-54850000D03*
D13*
%TO.P,SW19,1*%
%TO.N,P3*%
X123275000Y-65950000D03*
D14*
%TO.P,SW19,2*%
%TO.N,DP15*%
X111725000Y-63750000D03*
%TD*%
D12*
%TO.P,SW20,*%
%TO.N,P1044*%
X115000000Y-35850000D03*
%TO.N,P1045*%
X125000000Y-35850000D03*
D13*
%TO.P,SW20,1*%
%TO.N,P2*%
X123275000Y-46950000D03*
D14*
%TO.P,SW20,2*%
%TO.N,DP15*%
X111725000Y-44750000D03*
%TD*%
D12*
%TO.P,SW21,*%
%TO.N,P1015*%
X135000000Y-98850000D03*
%TO.N,P1020*%
X145000000Y-98850000D03*
D13*
%TO.P,SW21,1*%
%TO.N,P5*%
X143275000Y-109950000D03*
D14*
%TO.P,SW21,2*%
%TO.N,DP14*%
X131725000Y-107750000D03*
%TD*%
D12*
%TO.P,SW22,*%
%TO.N,P1025*%
X135000000Y-79850000D03*
%TO.N,P1030*%
X145000000Y-79850000D03*
D13*
%TO.P,SW22,1*%
%TO.N,P4*%
X143275000Y-90950000D03*
D14*
%TO.P,SW22,2*%
%TO.N,DP14*%
X131725000Y-88750000D03*
%TD*%
D12*
%TO.P,SW23,*%
%TO.N,P1035*%
X135000000Y-60850000D03*
%TO.N,P1040*%
X145000000Y-60850000D03*
D13*
%TO.P,SW23,1*%
%TO.N,P3*%
X143275000Y-71950000D03*
D14*
%TO.P,SW23,2*%
%TO.N,DP14*%
X131725000Y-69750000D03*
%TD*%
D12*
%TO.P,SW24,*%
%TO.N,P1045*%
X135000000Y-41850000D03*
%TO.N,P10*%
X145000000Y-41850000D03*
D13*
%TO.P,SW24,1*%
%TO.N,P2*%
X143275000Y-52950000D03*
D14*
%TO.P,SW24,2*%
%TO.N,DP14*%
X131725000Y-50750000D03*
%TD*%
D12*
%TO.P,SW25,*%
%TO.N,P1001*%
X75000000Y-114850000D03*
%TO.N,P1002*%
X85000000Y-114850000D03*
D13*
%TO.P,SW25,1*%
%TO.N,P6*%
X83275000Y-125950000D03*
D14*
%TO.P,SW25,2*%
%TO.N,DP19*%
X71725000Y-123750000D03*
%TD*%
D12*
%TO.P,SW26,*%
%TO.N,P1002*%
X95000000Y-114850000D03*
%TO.N,P1003*%
X105000000Y-114850000D03*
D13*
%TO.P,SW26,1*%
%TO.N,P6*%
X103275000Y-125950000D03*
D14*
%TO.P,SW26,2*%
%TO.N,DP18*%
X91725000Y-123750000D03*
%TD*%
D12*
%TO.P,SW27,*%
%TO.N,P1003*%
X115467879Y-115433819D03*
%TO.N,P1004*%
X125429826Y-116305376D03*
D15*
%TO.P,SW27,1*%
%TO.N,P6*%
X122743961Y-127212794D03*
D16*
%TO.P,SW27,2*%
%TO.N,DP15*%
X111429655Y-124014516D03*
%TD*%
D12*
%TO.P,SW28,*%
%TO.N,P1004*%
X137903341Y-118936982D03*
%TO.N,P1005*%
X147300267Y-122357184D03*
D17*
%TO.P,SW28,1*%
%TO.N,P6*%
X141882873Y-132197787D03*
D18*
%TO.P,SW28,2*%
%TO.N,DP14*%
X131781868Y-126180131D03*
%TD*%
D12*
%TO.P,SW29,*%
%TO.N,P1005*%
X158529434Y-128840333D03*
%TO.N,P1010*%
X166189878Y-135268209D03*
D19*
%TO.P,SW29,1*%
%TO.N,P6*%
X157733509Y-142662494D03*
D20*
%TO.P,SW29,2*%
%TO.N,DP16*%
X150299829Y-133552999D03*
%TD*%
D21*
%TO.P,D1,2*%
%TO.N,DP21*%
X41650000Y-128500000D03*
%TO.P,D1,1*%
%TO.N,P21*%
X38350000Y-128500000D03*
D22*
X37100000Y-128500000D03*
D23*
%TO.P,D1,2*%
%TO.N,DP21*%
X42900000Y-128500000D03*
%TD*%
D21*
%TO.P,D2,2*%
%TO.N,DP21*%
X41650000Y-109500000D03*
%TO.P,D2,1*%
%TO.N,P21*%
X38350000Y-109500000D03*
D22*
X37100000Y-109500000D03*
D23*
%TO.P,D2,2*%
%TO.N,DP21*%
X42900000Y-109500000D03*
%TD*%
D21*
%TO.P,D3,2*%
%TO.N,DP21*%
X41650000Y-90500000D03*
%TO.P,D3,1*%
%TO.N,P21*%
X38350000Y-90500000D03*
D22*
X37100000Y-90500000D03*
D23*
%TO.P,D3,2*%
%TO.N,DP21*%
X42900000Y-90500000D03*
%TD*%
D21*
%TO.P,D4,2*%
%TO.N,DP21*%
X41650000Y-71500000D03*
%TO.P,D4,1*%
%TO.N,P21*%
X38350000Y-71500000D03*
D22*
X37100000Y-71500000D03*
D23*
%TO.P,D4,2*%
%TO.N,DP21*%
X42900000Y-71500000D03*
%TD*%
D21*
%TO.P,D5,2*%
%TO.N,DP20*%
X61650000Y-118500000D03*
%TO.P,D5,1*%
%TO.N,P20*%
X58350000Y-118500000D03*
D22*
X57100000Y-118500000D03*
D23*
%TO.P,D5,2*%
%TO.N,DP20*%
X62900000Y-118500000D03*
%TD*%
D21*
%TO.P,D6,2*%
%TO.N,DP20*%
X61650000Y-99500000D03*
%TO.P,D6,1*%
%TO.N,P20*%
X58350000Y-99500000D03*
D22*
X57100000Y-99500000D03*
D23*
%TO.P,D6,2*%
%TO.N,DP20*%
X62900000Y-99500000D03*
%TD*%
D21*
%TO.P,D7,2*%
%TO.N,DP20*%
X61650000Y-80500000D03*
%TO.P,D7,1*%
%TO.N,P20*%
X58350000Y-80500000D03*
D22*
X57100000Y-80500000D03*
D23*
%TO.P,D7,2*%
%TO.N,DP20*%
X62900000Y-80500000D03*
%TD*%
D21*
%TO.P,D8,2*%
%TO.N,DP20*%
X61650000Y-61500000D03*
%TO.P,D8,1*%
%TO.N,P20*%
X58350000Y-61500000D03*
D22*
X57100000Y-61500000D03*
D23*
%TO.P,D8,2*%
%TO.N,DP20*%
X62900000Y-61500000D03*
%TD*%
D21*
%TO.P,D9,2*%
%TO.N,DP19*%
X81650000Y-106500000D03*
%TO.P,D9,1*%
%TO.N,P19*%
X78350000Y-106500000D03*
D22*
X77100000Y-106500000D03*
D23*
%TO.P,D9,2*%
%TO.N,DP19*%
X82900000Y-106500000D03*
%TD*%
D21*
%TO.P,D10,2*%
%TO.N,DP19*%
X81650000Y-87500000D03*
%TO.P,D10,1*%
%TO.N,P19*%
X78350000Y-87500000D03*
D22*
X77100000Y-87500000D03*
D23*
%TO.P,D10,2*%
%TO.N,DP19*%
X82900000Y-87500000D03*
%TD*%
D21*
%TO.P,D11,2*%
%TO.N,DP19*%
X81650000Y-68500000D03*
%TO.P,D11,1*%
%TO.N,P19*%
X78350000Y-68500000D03*
D22*
X77100000Y-68500000D03*
D23*
%TO.P,D11,2*%
%TO.N,DP19*%
X82900000Y-68500000D03*
%TD*%
D21*
%TO.P,D12,2*%
%TO.N,DP19*%
X81650000Y-49500000D03*
%TO.P,D12,1*%
%TO.N,P19*%
X78350000Y-49500000D03*
D22*
X77100000Y-49500000D03*
D23*
%TO.P,D12,2*%
%TO.N,DP19*%
X82900000Y-49500000D03*
%TD*%
D21*
%TO.P,D13,2*%
%TO.N,DP18*%
X101650000Y-102500000D03*
%TO.P,D13,1*%
%TO.N,P18*%
X98350000Y-102500000D03*
D22*
X97100000Y-102500000D03*
D23*
%TO.P,D13,2*%
%TO.N,DP18*%
X102900000Y-102500000D03*
%TD*%
D21*
%TO.P,D14,2*%
%TO.N,DP18*%
X101650000Y-83500000D03*
%TO.P,D14,1*%
%TO.N,P18*%
X98350000Y-83500000D03*
D22*
X97100000Y-83500000D03*
D23*
%TO.P,D14,2*%
%TO.N,DP18*%
X102900000Y-83500000D03*
%TD*%
D21*
%TO.P,D15,2*%
%TO.N,DP18*%
X101650000Y-64500000D03*
%TO.P,D15,1*%
%TO.N,P18*%
X98350000Y-64500000D03*
D22*
X97100000Y-64500000D03*
D23*
%TO.P,D15,2*%
%TO.N,DP18*%
X102900000Y-64500000D03*
%TD*%
D21*
%TO.P,D16,2*%
%TO.N,DP18*%
X101650000Y-45500000D03*
%TO.P,D16,1*%
%TO.N,P18*%
X98350000Y-45500000D03*
D22*
X97100000Y-45500000D03*
D23*
%TO.P,D16,2*%
%TO.N,DP18*%
X102900000Y-45500000D03*
%TD*%
D21*
%TO.P,D17,2*%
%TO.N,DP15*%
X121650000Y-106500000D03*
%TO.P,D17,1*%
%TO.N,P15*%
X118350000Y-106500000D03*
D22*
X117100000Y-106500000D03*
D23*
%TO.P,D17,2*%
%TO.N,DP15*%
X122900000Y-106500000D03*
%TD*%
D21*
%TO.P,D18,2*%
%TO.N,DP15*%
X121650000Y-87500000D03*
%TO.P,D18,1*%
%TO.N,P15*%
X118350000Y-87500000D03*
D22*
X117100000Y-87500000D03*
D23*
%TO.P,D18,2*%
%TO.N,DP15*%
X122900000Y-87500000D03*
%TD*%
D21*
%TO.P,D19,2*%
%TO.N,DP15*%
X121650000Y-68500000D03*
%TO.P,D19,1*%
%TO.N,P15*%
X118350000Y-68500000D03*
D22*
X117100000Y-68500000D03*
D23*
%TO.P,D19,2*%
%TO.N,DP15*%
X122900000Y-68500000D03*
%TD*%
D21*
%TO.P,D20,2*%
%TO.N,DP15*%
X121650000Y-49500000D03*
%TO.P,D20,1*%
%TO.N,P15*%
X118350000Y-49500000D03*
D22*
X117100000Y-49500000D03*
D23*
%TO.P,D20,2*%
%TO.N,DP15*%
X122900000Y-49500000D03*
%TD*%
D21*
%TO.P,D21,2*%
%TO.N,DP14*%
X141650000Y-112500000D03*
%TO.P,D21,1*%
%TO.N,P14*%
X138350000Y-112500000D03*
D22*
X137100000Y-112500000D03*
D23*
%TO.P,D21,2*%
%TO.N,DP14*%
X142900000Y-112500000D03*
%TD*%
D21*
%TO.P,D22,2*%
%TO.N,DP14*%
X141650000Y-93500000D03*
%TO.P,D22,1*%
%TO.N,P14*%
X138350000Y-93500000D03*
D22*
X137100000Y-93500000D03*
D23*
%TO.P,D22,2*%
%TO.N,DP14*%
X142900000Y-93500000D03*
%TD*%
D21*
%TO.P,D23,2*%
%TO.N,DP14*%
X141650000Y-74500000D03*
%TO.P,D23,1*%
%TO.N,P14*%
X138350000Y-74500000D03*
D22*
X137100000Y-74500000D03*
D23*
%TO.P,D23,2*%
%TO.N,DP14*%
X142900000Y-74500000D03*
%TD*%
D21*
%TO.P,D24,2*%
%TO.N,DP14*%
X141650000Y-55500000D03*
%TO.P,D24,1*%
%TO.N,P14*%
X138350000Y-55500000D03*
D22*
X137100000Y-55500000D03*
D23*
%TO.P,D24,2*%
%TO.N,DP14*%
X142900000Y-55500000D03*
%TD*%
D21*
%TO.P,D25,2*%
%TO.N,DP19*%
X81650000Y-128500000D03*
%TO.P,D25,1*%
%TO.N,P19*%
X78350000Y-128500000D03*
D22*
X77100000Y-128500000D03*
D23*
%TO.P,D25,2*%
%TO.N,DP19*%
X82900000Y-128500000D03*
%TD*%
D21*
%TO.P,D26,2*%
%TO.N,DP18*%
X101650000Y-128500000D03*
%TO.P,D26,1*%
%TO.N,P18*%
X98350000Y-128500000D03*
D22*
X97100000Y-128500000D03*
D23*
%TO.P,D26,2*%
%TO.N,DP18*%
X102900000Y-128500000D03*
%TD*%
D24*
%TO.P,D27,2*%
%TO.N,DP15*%
X120902921Y-129611507D03*
%TO.P,D27,1*%
%TO.N,P15*%
X117615479Y-129323893D03*
D25*
X116370235Y-129214948D03*
D23*
%TO.P,D27,2*%
%TO.N,DP15*%
X122148165Y-129720452D03*
%TD*%
D26*
%TO.P,D28,2*%
%TO.N,DP14*%
X139483693Y-134038233D03*
%TO.P,D28,1*%
%TO.N,P14*%
X136382707Y-132909567D03*
D27*
X135208091Y-132482042D03*
D23*
%TO.P,D28,2*%
%TO.N,DP14*%
X140658309Y-134465758D03*
%TD*%
D28*
%TO.P,D29,2*%
%TO.N,DP16*%
X154849573Y-143571400D03*
%TO.P,D29,1*%
%TO.N,P16*%
X152321627Y-141450200D03*
D29*
X151364071Y-140646716D03*
D23*
%TO.P,D29,2*%
%TO.N,DP16*%
X155807129Y-144374884D03*
%TD*%
D30*
%TO.P,L1,2*%
%TO.N,P1011*%
X42700000Y-114300000D03*
%TO.P,L1,1*%
%TO.N,VCC*%
X42700000Y-115700000D03*
%TO.P,L1,3*%
%TO.N,GND*%
X37300000Y-114300000D03*
%TO.P,L1,4*%
%TO.N,P1010*%
X37300000Y-115700000D03*
%TD*%
%TO.P,L2,2*%
%TO.N,P1021*%
X42700000Y-95300000D03*
%TO.P,L2,1*%
%TO.N,VCC*%
X42700000Y-96700000D03*
%TO.P,L2,3*%
%TO.N,GND*%
X37300000Y-95300000D03*
%TO.P,L2,4*%
%TO.N,P1020*%
X37300000Y-96700000D03*
%TD*%
%TO.P,L3,2*%
%TO.N,P1031*%
X42700000Y-76300000D03*
%TO.P,L3,1*%
%TO.N,VCC*%
X42700000Y-77700000D03*
%TO.P,L3,3*%
%TO.N,GND*%
X37300000Y-76300000D03*
%TO.P,L3,4*%
%TO.N,P1030*%
X37300000Y-77700000D03*
%TD*%
%TO.P,L4,2*%
%TO.N,P1041*%
X42700000Y-57300000D03*
%TO.P,L4,1*%
%TO.N,VCC*%
X42700000Y-58700000D03*
%TO.P,L4,3*%
%TO.N,GND*%
X37300000Y-57300000D03*
%TO.P,L4,4*%
%TO.N,P1040*%
X37300000Y-58700000D03*
%TD*%
%TO.P,L5,2*%
%TO.N,P1012*%
X62700000Y-104300000D03*
%TO.P,L5,1*%
%TO.N,VCC*%
X62700000Y-105700000D03*
%TO.P,L5,3*%
%TO.N,GND*%
X57300000Y-104300000D03*
%TO.P,L5,4*%
%TO.N,P1011*%
X57300000Y-105700000D03*
%TD*%
%TO.P,L6,2*%
%TO.N,P1022*%
X62700000Y-85300000D03*
%TO.P,L6,1*%
%TO.N,VCC*%
X62700000Y-86700000D03*
%TO.P,L6,3*%
%TO.N,GND*%
X57300000Y-85300000D03*
%TO.P,L6,4*%
%TO.N,P1021*%
X57300000Y-86700000D03*
%TD*%
%TO.P,L7,2*%
%TO.N,P1032*%
X62700000Y-66300000D03*
%TO.P,L7,1*%
%TO.N,VCC*%
X62700000Y-67700000D03*
%TO.P,L7,3*%
%TO.N,GND*%
X57300000Y-66300000D03*
%TO.P,L7,4*%
%TO.N,P1031*%
X57300000Y-67700000D03*
%TD*%
%TO.P,L8,2*%
%TO.N,P1042*%
X62700000Y-47300000D03*
%TO.P,L8,1*%
%TO.N,VCC*%
X62700000Y-48700000D03*
%TO.P,L8,3*%
%TO.N,GND*%
X57300000Y-47300000D03*
%TO.P,L8,4*%
%TO.N,P1041*%
X57300000Y-48700000D03*
%TD*%
%TO.P,L9,2*%
%TO.N,P1013*%
X82700000Y-92300000D03*
%TO.P,L9,1*%
%TO.N,VCC*%
X82700000Y-93700000D03*
%TO.P,L9,3*%
%TO.N,GND*%
X77300000Y-92300000D03*
%TO.P,L9,4*%
%TO.N,P1012*%
X77300000Y-93700000D03*
%TD*%
%TO.P,L10,2*%
%TO.N,P1023*%
X82700000Y-73300000D03*
%TO.P,L10,1*%
%TO.N,VCC*%
X82700000Y-74700000D03*
%TO.P,L10,3*%
%TO.N,GND*%
X77300000Y-73300000D03*
%TO.P,L10,4*%
%TO.N,P1022*%
X77300000Y-74700000D03*
%TD*%
%TO.P,L11,2*%
%TO.N,P1033*%
X82700000Y-54300000D03*
%TO.P,L11,1*%
%TO.N,VCC*%
X82700000Y-55700000D03*
%TO.P,L11,3*%
%TO.N,GND*%
X77300000Y-54300000D03*
%TO.P,L11,4*%
%TO.N,P1032*%
X77300000Y-55700000D03*
%TD*%
%TO.P,L12,2*%
%TO.N,P1043*%
X82700000Y-35300000D03*
%TO.P,L12,1*%
%TO.N,VCC*%
X82700000Y-36700000D03*
%TO.P,L12,3*%
%TO.N,GND*%
X77300000Y-35300000D03*
%TO.P,L12,4*%
%TO.N,P1042*%
X77300000Y-36700000D03*
%TD*%
%TO.P,L13,2*%
%TO.N,P1014*%
X102700000Y-88300000D03*
%TO.P,L13,1*%
%TO.N,VCC*%
X102700000Y-89700000D03*
%TO.P,L13,3*%
%TO.N,GND*%
X97300000Y-88300000D03*
%TO.P,L13,4*%
%TO.N,P1013*%
X97300000Y-89700000D03*
%TD*%
%TO.P,L14,2*%
%TO.N,P1024*%
X102700000Y-69300000D03*
%TO.P,L14,1*%
%TO.N,VCC*%
X102700000Y-70700000D03*
%TO.P,L14,3*%
%TO.N,GND*%
X97300000Y-69300000D03*
%TO.P,L14,4*%
%TO.N,P1023*%
X97300000Y-70700000D03*
%TD*%
%TO.P,L15,2*%
%TO.N,P1034*%
X102700000Y-50300000D03*
%TO.P,L15,1*%
%TO.N,VCC*%
X102700000Y-51700000D03*
%TO.P,L15,3*%
%TO.N,GND*%
X97300000Y-50300000D03*
%TO.P,L15,4*%
%TO.N,P1033*%
X97300000Y-51700000D03*
%TD*%
%TO.P,L16,2*%
%TO.N,P1044*%
X102700000Y-31300000D03*
%TO.P,L16,1*%
%TO.N,VCC*%
X102700000Y-32700000D03*
%TO.P,L16,3*%
%TO.N,GND*%
X97300000Y-31300000D03*
%TO.P,L16,4*%
%TO.N,P1043*%
X97300000Y-32700000D03*
%TD*%
%TO.P,L17,2*%
%TO.N,P1015*%
X122700000Y-92300000D03*
%TO.P,L17,1*%
%TO.N,VCC*%
X122700000Y-93700000D03*
%TO.P,L17,3*%
%TO.N,GND*%
X117300000Y-92300000D03*
%TO.P,L17,4*%
%TO.N,P1014*%
X117300000Y-93700000D03*
%TD*%
%TO.P,L18,2*%
%TO.N,P1025*%
X122700000Y-73300000D03*
%TO.P,L18,1*%
%TO.N,VCC*%
X122700000Y-74700000D03*
%TO.P,L18,3*%
%TO.N,GND*%
X117300000Y-73300000D03*
%TO.P,L18,4*%
%TO.N,P1024*%
X117300000Y-74700000D03*
%TD*%
%TO.P,L19,2*%
%TO.N,P1035*%
X122700000Y-54300000D03*
%TO.P,L19,1*%
%TO.N,VCC*%
X122700000Y-55700000D03*
%TO.P,L19,3*%
%TO.N,GND*%
X117300000Y-54300000D03*
%TO.P,L19,4*%
%TO.N,P1034*%
X117300000Y-55700000D03*
%TD*%
%TO.P,L20,2*%
%TO.N,P1045*%
X122700000Y-35300000D03*
%TO.P,L20,1*%
%TO.N,VCC*%
X122700000Y-36700000D03*
%TO.P,L20,3*%
%TO.N,GND*%
X117300000Y-35300000D03*
%TO.P,L20,4*%
%TO.N,P1044*%
X117300000Y-36700000D03*
%TD*%
%TO.P,L21,2*%
%TO.N,P1020*%
X142700000Y-98300000D03*
%TO.P,L21,1*%
%TO.N,VCC*%
X142700000Y-99700000D03*
%TO.P,L21,3*%
%TO.N,GND*%
X137300000Y-98300000D03*
%TO.P,L21,4*%
%TO.N,P1015*%
X137300000Y-99700000D03*
%TD*%
%TO.P,L22,2*%
%TO.N,P1030*%
X142700000Y-79300000D03*
%TO.P,L22,1*%
%TO.N,VCC*%
X142700000Y-80700000D03*
%TO.P,L22,3*%
%TO.N,GND*%
X137300000Y-79300000D03*
%TO.P,L22,4*%
%TO.N,P1025*%
X137300000Y-80700000D03*
%TD*%
%TO.P,L23,2*%
%TO.N,P1040*%
X142700000Y-60300000D03*
%TO.P,L23,1*%
%TO.N,VCC*%
X142700000Y-61700000D03*
%TO.P,L23,3*%
%TO.N,GND*%
X137300000Y-60300000D03*
%TO.P,L23,4*%
%TO.N,P1035*%
X137300000Y-61700000D03*
%TD*%
%TO.P,L24,2*%
%TO.N,P10*%
X142700000Y-41300000D03*
%TO.P,L24,1*%
%TO.N,VCC*%
X142700000Y-42700000D03*
%TO.P,L24,3*%
%TO.N,GND*%
X137300000Y-41300000D03*
%TO.P,L24,4*%
%TO.N,P1045*%
X137300000Y-42700000D03*
%TD*%
%TO.P,L25,2*%
%TO.N,P1002*%
X82700000Y-114300000D03*
%TO.P,L25,1*%
%TO.N,VCC*%
X82700000Y-115700000D03*
%TO.P,L25,3*%
%TO.N,GND*%
X77300000Y-114300000D03*
%TO.P,L25,4*%
%TO.N,P1001*%
X77300000Y-115700000D03*
%TD*%
%TO.P,L26,2*%
%TO.N,P1003*%
X102700000Y-114300000D03*
%TO.P,L26,1*%
%TO.N,VCC*%
X102700000Y-115700000D03*
%TO.P,L26,3*%
%TO.N,GND*%
X97300000Y-114300000D03*
%TO.P,L26,4*%
%TO.N,P1002*%
X97300000Y-115700000D03*
%TD*%
D31*
%TO.P,L27,2*%
%TO.N,P1004*%
X123186535Y-115556984D03*
%TO.P,L27,1*%
%TO.N,VCC*%
X123064517Y-116951657D03*
%TO.P,L27,3*%
%TO.N,GND*%
X117807083Y-115086343D03*
%TO.P,L27,4*%
%TO.N,P1003*%
X117685065Y-116481016D03*
%TD*%
D32*
%TO.P,L28,2*%
%TO.N,P1005*%
X145327084Y-121053670D03*
%TO.P,L28,1*%
%TO.N,VCC*%
X144848256Y-122369239D03*
%TO.P,L28,3*%
%TO.N,GND*%
X140252744Y-119206761D03*
%TO.P,L28,4*%
%TO.N,P1004*%
X139773916Y-120522330D03*
%TD*%
D33*
%TO.P,L29,2*%
%TO.N,P1010*%
X164781571Y-133368495D03*
%TO.P,L29,1*%
%TO.N,VCC*%
X163881669Y-134440958D03*
%TO.P,L29,3*%
%TO.N,GND*%
X160644931Y-129897442D03*
%TO.P,L29,4*%
%TO.N,P1005*%
X159745029Y-130969905D03*
%TD*%
D34*
%TO.P,TRRS1,1*%
%TO.N,VCC*%
X162700000Y-74700000D03*
%TO.P,TRRS1,2*%
%TO.N,P0*%
X163800000Y-79300000D03*
%TO.P,TRRS1,3*%
%TO.N,P1*%
X167800000Y-79300000D03*
%TO.P,TRRS1,4*%
%TO.N,GND*%
X170800000Y-79300000D03*
%TO.P,TRRS1,1*%
%TO.N,VCC*%
X162700000Y-77000000D03*
%TO.P,TRRS1,2*%
%TO.N,P0*%
X163800000Y-72400000D03*
%TO.P,TRRS1,3*%
%TO.N,P1*%
X167800000Y-72400000D03*
%TO.P,TRRS1,4*%
%TO.N,GND*%
X170800000Y-72400000D03*
%TD*%
D35*
%TO.P,RST1,1*%
%TO.N,GND*%
X172950000Y-93375000D03*
%TO.P,RST1,2*%
%TO.N,RST*%
X171250000Y-93375000D03*
%TO.P,RST1,3*%
%TO.N,GND*%
X172950000Y-98625000D03*
%TO.P,RST1,4*%
%TO.N,RST*%
X171250000Y-98625000D03*
%TD*%
D36*
%TO.P,PWR1,*%
%TO.N,*%
X171315000Y-102350000D03*
X173525000Y-102350000D03*
X171315000Y-109650000D03*
X173525000Y-109650000D03*
D37*
%TO.P,PWR1,1*%
%TO.N,BAT_P*%
X170665000Y-103750000D03*
%TO.P,PWR1,2*%
%TO.N,RAW*%
X170665000Y-106750000D03*
%TO.P,PWR1,3*%
%TO.N,N/C*%
X170665000Y-108250000D03*
%TD*%
D38*
%TO.P,Rotary1,A*%
%TO.N,P7*%
X165540000Y-85380000D03*
D39*
%TO.P,Rotary1,C*%
%TO.N,GND*%
X163040000Y-85380000D03*
%TO.P,Rotary1,B*%
%TO.N,P8*%
X160540000Y-85380000D03*
D40*
%TO.P,Rotary1,1*%
%TO.N,P16*%
X165540000Y-99880000D03*
%TO.P,Rotary1,2*%
%TO.N,P4*%
X160540000Y-99880000D03*
D41*
%TO.P,Rotary1,*%
%TO.N,*%
X168640000Y-92880000D03*
X157440000Y-92880000D03*
%TD*%
D42*
%TO.P,UB_1,1*%
%TO.N,VCC*%
X70875000Y-89800000D03*
%TO.P,UB_1,2*%
%TO.N,P10u01*%
X69125000Y-89800000D03*
%TO.P,UB_1,3*%
%TO.N,GND*%
X69125000Y-94200000D03*
%TO.P,UB_1,4*%
%TO.N,P1001*%
X70875000Y-94200000D03*
D43*
%TO.P,UB_1,11*%
%TO.N,VCC*%
X71600000Y-89500000D03*
%TO.P,UB_1,22*%
%TO.N,P10u01*%
X68400000Y-89500000D03*
%TO.P,UB_1,33*%
%TO.N,GND*%
X68400000Y-94500000D03*
%TO.P,UB_1,44*%
%TO.N,P1001*%
X71600000Y-94500000D03*
%TD*%
D42*
%TO.P,UB_2,1*%
%TO.N,VCC*%
X70875000Y-51800000D03*
%TO.P,UB_2,2*%
%TO.N,P10u02*%
X69125000Y-51800000D03*
%TO.P,UB_2,3*%
%TO.N,GND*%
X69125000Y-56200000D03*
%TO.P,UB_2,4*%
%TO.N,P10u01*%
X70875000Y-56200000D03*
D43*
%TO.P,UB_2,11*%
%TO.N,VCC*%
X71600000Y-51500000D03*
%TO.P,UB_2,22*%
%TO.N,P10u02*%
X68400000Y-51500000D03*
%TO.P,UB_2,33*%
%TO.N,GND*%
X68400000Y-56500000D03*
%TO.P,UB_2,44*%
%TO.N,P10u01*%
X71600000Y-56500000D03*
%TD*%
D42*
%TO.P,UB_3,1*%
%TO.N,VCC*%
X110875000Y-91800000D03*
%TO.P,UB_3,2*%
%TO.N,P10u03*%
X109125000Y-91800000D03*
%TO.P,UB_3,3*%
%TO.N,GND*%
X109125000Y-96200000D03*
%TO.P,UB_3,4*%
%TO.N,P10u02*%
X110875000Y-96200000D03*
D43*
%TO.P,UB_3,11*%
%TO.N,VCC*%
X111600000Y-91500000D03*
%TO.P,UB_3,22*%
%TO.N,P10u03*%
X108400000Y-91500000D03*
%TO.P,UB_3,33*%
%TO.N,GND*%
X108400000Y-96500000D03*
%TO.P,UB_3,44*%
%TO.N,P10u02*%
X111600000Y-96500000D03*
%TD*%
D42*
%TO.P,UB_4,1*%
%TO.N,VCC*%
X110875000Y-53800000D03*
%TO.P,UB_4,2*%
%TO.N,P10u04*%
X109125000Y-53800000D03*
%TO.P,UB_4,3*%
%TO.N,GND*%
X109125000Y-58200000D03*
%TO.P,UB_4,4*%
%TO.N,P10u03*%
X110875000Y-58200000D03*
D43*
%TO.P,UB_4,11*%
%TO.N,VCC*%
X111600000Y-53500000D03*
%TO.P,UB_4,22*%
%TO.N,P10u04*%
X108400000Y-53500000D03*
%TO.P,UB_4,33*%
%TO.N,GND*%
X108400000Y-58500000D03*
%TO.P,UB_4,44*%
%TO.N,P10u03*%
X111600000Y-58500000D03*
%TD*%
D42*
%TO.P,UB_5,1*%
%TO.N,VCC*%
X153875000Y-113800000D03*
%TO.P,UB_5,2*%
%TO.N,P10u05*%
X152125000Y-113800000D03*
%TO.P,UB_5,3*%
%TO.N,GND*%
X152125000Y-118200000D03*
%TO.P,UB_5,4*%
%TO.N,P10u04*%
X153875000Y-118200000D03*
D43*
%TO.P,UB_5,11*%
%TO.N,VCC*%
X154600000Y-113500000D03*
%TO.P,UB_5,22*%
%TO.N,P10u05*%
X151400000Y-113500000D03*
%TO.P,UB_5,33*%
%TO.N,GND*%
X151400000Y-118500000D03*
%TO.P,UB_5,44*%
%TO.N,P10u04*%
X154600000Y-118500000D03*
%TD*%
D42*
%TO.P,UB_6,1*%
%TO.N,VCC*%
X153875000Y-83800000D03*
%TO.P,UB_6,2*%
%TO.N,P10u06*%
X152125000Y-83800000D03*
%TO.P,UB_6,3*%
%TO.N,GND*%
X152125000Y-88200000D03*
%TO.P,UB_6,4*%
%TO.N,P10u05*%
X153875000Y-88200000D03*
D43*
%TO.P,UB_6,11*%
%TO.N,VCC*%
X154600000Y-83500000D03*
%TO.P,UB_6,22*%
%TO.N,P10u06*%
X151400000Y-83500000D03*
%TO.P,UB_6,33*%
%TO.N,GND*%
X151400000Y-88500000D03*
%TO.P,UB_6,44*%
%TO.N,P10u05*%
X154600000Y-88500000D03*
%TD*%
D44*
%TO.N,P10u06*%
X151940300Y-78639700D03*
%TO.N,P10u05*%
X152820300Y-108602700D03*
X154876800Y-86967200D03*
%TO.N,P10u04*%
X153945700Y-116004900D03*
X108365400Y-48563900D03*
X110124900Y-80989600D03*
%TO.N,P10u03*%
X111175000Y-55616700D03*
X108329600Y-86523800D03*
%TO.N,P10u02*%
X111940600Y-93003800D03*
X68400000Y-47116000D03*
X87587000Y-85577600D03*
%TO.N,P10u01*%
X70875000Y-54118500D03*
X71426400Y-71115100D03*
X68959300Y-84688300D03*
%TO.N,BAT_P*%
X169858400Y-102784800D03*
%TO.N,P1001*%
X74320700Y-109352400D03*
X71600000Y-96014700D03*
%TO.N,DP14*%
X131994100Y-94948400D03*
X140993200Y-130023100D03*
%TO.N,DP15*%
X111725000Y-107343300D03*
X115467000Y-87810500D03*
%TO.N,DP18*%
X95609200Y-103589900D03*
X91900100Y-84704700D03*
X92184300Y-46790700D03*
X95593700Y-65049100D03*
%TO.N,DP19*%
X88109200Y-84561400D03*
%TO.N,DP20*%
X54343300Y-81767600D03*
X51725000Y-100471800D03*
X55669200Y-62529700D03*
%TO.N,P1010*%
X152200000Y-116380500D03*
%TO.N,P6*%
X82285000Y-123437500D03*
X110140100Y-129797600D03*
X149381300Y-136749500D03*
%TO.N,P5*%
X42200900Y-123699600D03*
X104594500Y-104219700D03*
X130787500Y-109862400D03*
X80070600Y-101699100D03*
X138373200Y-108261200D03*
X157060800Y-70406700D03*
X118346900Y-102236000D03*
%TO.N,P4*%
X142226800Y-88613500D03*
X58377100Y-95255500D03*
X38379200Y-105285000D03*
X102004000Y-78846600D03*
X122072500Y-89329700D03*
X79852300Y-82685600D03*
X43969600Y-101874100D03*
%TO.N,P3*%
X62301800Y-75759100D03*
X148058300Y-74501300D03*
X138550900Y-70143500D03*
X104461300Y-64187800D03*
X42544500Y-85498900D03*
X92950800Y-64820200D03*
X82593700Y-63880300D03*
X124584100Y-68848100D03*
%TO.N,P2*%
X141452500Y-51072400D03*
X59959700Y-56475000D03*
X38355400Y-67247100D03*
X87891100Y-42602200D03*
X118069400Y-44934300D03*
%TO.N,P14*%
X135242800Y-75824800D03*
X135126300Y-115219700D03*
%TO.N,P18*%
X101471300Y-66382300D03*
%TO.N,P19*%
X73708900Y-53512100D03*
D45*
%TO.N,VCC*%
X43800000Y-115700000D03*
X43800000Y-96700000D03*
X43800000Y-77700000D03*
X43800000Y-58700000D03*
X63800000Y-105700000D03*
X63800000Y-86700000D03*
X63800000Y-67700000D03*
X63800000Y-48700000D03*
X83800000Y-93700000D03*
X83800000Y-74700000D03*
X83800000Y-55700000D03*
X83800000Y-36700000D03*
X103800000Y-89700000D03*
X103800000Y-70700000D03*
X103800000Y-51700000D03*
X103800000Y-32700000D03*
X123800000Y-93700000D03*
X123800000Y-74700000D03*
X123800000Y-55700000D03*
X123800000Y-36700000D03*
X143800000Y-99700000D03*
X143800000Y-80700000D03*
X143800000Y-61700000D03*
X143800000Y-42700000D03*
X83800000Y-115700000D03*
X103800000Y-115700000D03*
X124160000Y-117048000D03*
X145882000Y-122746000D03*
X164724000Y-135148000D03*
D44*
X154192300Y-78608300D03*
X153000000Y-115451700D03*
%TO.N,RST*%
X171250000Y-95688900D03*
D45*
%TO.N,GND*%
X36200000Y-115700000D03*
X36200000Y-96700000D03*
X36200000Y-77700000D03*
X36200000Y-58700000D03*
X56200000Y-105700000D03*
X56200000Y-86700000D03*
X56200000Y-67700000D03*
X56200000Y-48700000D03*
X76200000Y-93700000D03*
X76200000Y-74700000D03*
X76200000Y-55700000D03*
X76200000Y-36700000D03*
X96200000Y-89700000D03*
X96200000Y-70700000D03*
X96200000Y-51700000D03*
X96200000Y-32700000D03*
X116200000Y-93700000D03*
X116200000Y-74700000D03*
X116200000Y-55700000D03*
X116200000Y-36700000D03*
X136200000Y-99700000D03*
X136200000Y-80700000D03*
X136200000Y-61700000D03*
X136200000Y-42700000D03*
X76200000Y-115700000D03*
X96200000Y-115700000D03*
X116589000Y-116385000D03*
X138740000Y-120146000D03*
X158902000Y-130263000D03*
D44*
X69111800Y-63353700D03*
X49863700Y-71753400D03*
X68240800Y-92566600D03*
X150075800Y-112800100D03*
X67284100Y-53014300D03*
X107799000Y-94930100D03*
%TO.N,RAW*%
X169488400Y-105907400D03*
%TD*%
D46*
%TO.N,P10u06*%
X151825000Y-78755000D02*
X151825000Y-83500000D01*
X151940300Y-78639700D02*
X151825000Y-78755000D01*
X151400000Y-83500000D02*
X151825000Y-83500000D01*
X151825000Y-83500000D02*
X152125000Y-83800000D01*
%TO.N,P10u05*%
X154300000Y-88200000D02*
X154600000Y-88500000D01*
X153875000Y-88200000D02*
X154300000Y-88200000D01*
X151400000Y-113500000D02*
X151825000Y-113500000D01*
X151825000Y-113500000D02*
X152125000Y-113800000D01*
X151825000Y-109598000D02*
X151825000Y-113500000D01*
X152820300Y-108602700D02*
X151825000Y-109598000D01*
X153875000Y-107548000D02*
X152820300Y-108602700D01*
X153875000Y-88200000D02*
X153875000Y-107548000D01*
X154644100Y-87199900D02*
X154600000Y-87199900D01*
X154876800Y-86967200D02*
X154644100Y-87199900D01*
X154600000Y-88500000D02*
X154600000Y-87199900D01*
%TO.N,P10u04*%
X108825000Y-53500000D02*
X109125000Y-53800000D01*
X108400000Y-53500000D02*
X108825000Y-53500000D01*
X154300000Y-118200000D02*
X154600000Y-118500000D01*
X153875000Y-118200000D02*
X154300000Y-118200000D01*
X109125000Y-53800000D02*
X109125000Y-52199900D01*
X153945700Y-116529200D02*
X153875000Y-116599900D01*
X153945700Y-116004900D02*
X153945700Y-116529200D01*
X153875000Y-118200000D02*
X153875000Y-116599900D01*
X109125000Y-49323500D02*
X108365400Y-48563900D01*
X109125000Y-52199900D02*
X109125000Y-49323500D01*
X110124900Y-62268600D02*
X110124900Y-80989600D01*
X112500200Y-59893300D02*
X110124900Y-62268600D01*
X112500200Y-52321700D02*
X112500200Y-59893300D01*
X112378400Y-52199900D02*
X112500200Y-52321700D01*
X109125000Y-52199900D02*
X112378400Y-52199900D01*
%TO.N,P10u03*%
X110875000Y-58200000D02*
X110875000Y-56599900D01*
X111175000Y-56299900D02*
X111175000Y-55616700D01*
X110875000Y-56599900D02*
X111175000Y-56299900D01*
X111600000Y-58500000D02*
X110875000Y-58500000D01*
X110875000Y-58500000D02*
X110875000Y-58200000D01*
X108825000Y-91500000D02*
X109125000Y-91800000D01*
X108400000Y-91500000D02*
X108825000Y-91500000D01*
X108400000Y-86523800D02*
X108329600Y-86523800D01*
X108400000Y-62722100D02*
X108400000Y-86523800D01*
X110875000Y-60247100D02*
X108400000Y-62722100D01*
X110875000Y-58500000D02*
X110875000Y-60247100D01*
X108400000Y-86523800D02*
X108400000Y-91500000D01*
%TO.N,P10u02*%
X111175000Y-96500000D02*
X110875000Y-96200000D01*
X111600000Y-96500000D02*
X111175000Y-96500000D01*
X111940600Y-93534300D02*
X111940600Y-93003800D01*
X110875000Y-94599900D02*
X111940600Y-93534300D01*
X110875000Y-96200000D02*
X110875000Y-94599900D01*
X68400000Y-51500000D02*
X68400000Y-50849900D01*
X69125000Y-51574900D02*
X69125000Y-51800000D01*
X68400000Y-50849900D02*
X69125000Y-51574900D01*
X68400000Y-47116000D02*
X68400000Y-50849900D01*
X71042100Y-53400100D02*
X69125000Y-53400100D01*
X72500200Y-54858200D02*
X71042100Y-53400100D01*
X72500200Y-59446000D02*
X72500200Y-54858200D01*
X70124800Y-61821400D02*
X72500200Y-59446000D01*
X70124800Y-65233400D02*
X70124800Y-61821400D01*
X75406300Y-70514900D02*
X70124800Y-65233400D01*
X83490300Y-70514900D02*
X75406300Y-70514900D01*
X87508900Y-74533500D02*
X83490300Y-70514900D01*
X87508900Y-85499500D02*
X87508900Y-74533500D01*
X87587000Y-85577600D02*
X87508900Y-85499500D01*
X69125000Y-51800000D02*
X69125000Y-53400100D01*
%TO.N,P10u01*%
X70875000Y-56200000D02*
X70875000Y-54599900D01*
X70875000Y-54599900D02*
X70875000Y-54118500D01*
X71600000Y-56500000D02*
X71175000Y-56500000D01*
X71175000Y-56500000D02*
X70875000Y-56200000D01*
X69724600Y-57950400D02*
X71175000Y-56500000D01*
X69724600Y-69413300D02*
X69724600Y-57950400D01*
X71426400Y-71115100D02*
X69724600Y-69413300D01*
X68825000Y-84822600D02*
X68959300Y-84688300D01*
X68825000Y-89500000D02*
X68825000Y-84822600D01*
X68400000Y-89500000D02*
X68825000Y-89500000D01*
X68825000Y-89500000D02*
X69125000Y-89800000D01*
%TO.N,BAT_P*%
X170665000Y-103591400D02*
X169858400Y-102784800D01*
X170665000Y-103750000D02*
X170665000Y-103591400D01*
%TO.N,DP16*%
X155755300Y-144374900D02*
X155484600Y-144104200D01*
X155807100Y-144374900D02*
X155755300Y-144374900D01*
X154849600Y-143571400D02*
X155484600Y-144104200D01*
X154046800Y-142870800D02*
X154214600Y-143038600D01*
X151799000Y-142870800D02*
X154046800Y-142870800D01*
X149788200Y-140860000D02*
X151799000Y-142870800D01*
X149788200Y-140246200D02*
X149788200Y-140860000D01*
X150235800Y-139798600D02*
X149788200Y-140246200D01*
X150235800Y-135940600D02*
X150235800Y-139798600D01*
X149181200Y-134886000D02*
X150235800Y-135940600D01*
X150299800Y-133553000D02*
X149181200Y-134886000D01*
X154849600Y-143571400D02*
X154214600Y-143038600D01*
D47*
%TO.N,P1005*%
X147441000Y-121823000D02*
X145327000Y-121054000D01*
D46*
X145327000Y-121053800D02*
X145327000Y-121054000D01*
X145327100Y-121053700D02*
X145327000Y-121053800D01*
X158535500Y-128840300D02*
X158567500Y-128872300D01*
X158529400Y-128840300D02*
X158535500Y-128840300D01*
D47*
X158567500Y-128872300D02*
X158921000Y-128451000D01*
X159745000Y-130970000D02*
X159193500Y-131019500D01*
D46*
X159695400Y-131019500D02*
X159745000Y-130969900D01*
X159193500Y-131019500D02*
X159695400Y-131019500D01*
D47*
X157839000Y-130396000D02*
X157790000Y-129799000D01*
X158642000Y-131069000D02*
X157839000Y-130396000D01*
X159193500Y-131019500D02*
X158642000Y-131069000D01*
X157790000Y-129799000D02*
X158567500Y-128872300D01*
D46*
X147441000Y-122282600D02*
X147441000Y-121823000D01*
X147374900Y-122282600D02*
X147441000Y-122282600D01*
X147300300Y-122357200D02*
X147374900Y-122282600D01*
X150273600Y-122282600D02*
X157790000Y-129799000D01*
X147441000Y-122282600D02*
X150273600Y-122282600D01*
D47*
%TO.N,P1004*%
X124307500Y-115655000D02*
X123187000Y-115557000D01*
D46*
X124252500Y-115650400D02*
X124252500Y-115650300D01*
X124257100Y-115655000D02*
X124252500Y-115650400D01*
X124307500Y-115655000D02*
X124257100Y-115655000D01*
X123186500Y-115557000D02*
X124252500Y-115650300D01*
D47*
X125428000Y-115753000D02*
X124307500Y-115655000D01*
D46*
X137933000Y-118937000D02*
X137949900Y-118953900D01*
X137903300Y-118937000D02*
X137933000Y-118937000D01*
D47*
X137949900Y-118953900D02*
X138138000Y-118437000D01*
D46*
X125428000Y-116303600D02*
X125428000Y-115753000D01*
X125429800Y-116305400D02*
X125428000Y-116303600D01*
X139757900Y-120522300D02*
X139744200Y-120536000D01*
X139773900Y-120522300D02*
X139757900Y-120522300D01*
D47*
X139774000Y-120522000D02*
X139744200Y-120536000D01*
X137536000Y-120091000D02*
X137949900Y-118953900D01*
X137787000Y-120634000D02*
X137536000Y-120091000D01*
X138772000Y-120993000D02*
X137787000Y-120634000D01*
X139744200Y-120536000D02*
X138772000Y-120993000D01*
%TO.N,P1003*%
X104950000Y-114300000D02*
X102700000Y-114300000D01*
D46*
X117685100Y-116481000D02*
X117685000Y-116481000D01*
X115513500Y-115433800D02*
X115517900Y-115438200D01*
X115467900Y-115433800D02*
X115513500Y-115433800D01*
D47*
X115412000Y-116644000D02*
X115517900Y-115438200D01*
X115795000Y-117104000D02*
X115412000Y-116644000D01*
X116839000Y-117195000D02*
X115795000Y-117104000D01*
X117685000Y-116481000D02*
X116839000Y-117195000D01*
X115517900Y-115438200D02*
X115566000Y-114890000D01*
D46*
X104950000Y-114800000D02*
X104950000Y-114300000D01*
X105000000Y-114850000D02*
X104950000Y-114800000D01*
%TO.N,P1001*%
X75047900Y-114802100D02*
X75050000Y-114802100D01*
X75000000Y-114850000D02*
X75047900Y-114802100D01*
D47*
X75050000Y-116060000D02*
X75050000Y-114802100D01*
X75471000Y-116485000D02*
X75050000Y-116060000D01*
X76519000Y-116485000D02*
X75471000Y-116485000D01*
X77300000Y-115700000D02*
X76519000Y-116485000D01*
D46*
X71175000Y-94500000D02*
X70875000Y-94200000D01*
X71600000Y-94500000D02*
X71175000Y-94500000D01*
D47*
X75050000Y-114802100D02*
X75050000Y-114551000D01*
X75050000Y-114551000D02*
X75050000Y-114300000D01*
D46*
X71600000Y-94500000D02*
X71600000Y-95800100D01*
X71600000Y-95800100D02*
X71600000Y-96014700D01*
X74320700Y-113821700D02*
X74320700Y-109352400D01*
X75050000Y-114551000D02*
X74320700Y-113821700D01*
D47*
%TO.N,P1002*%
X84950000Y-114300000D02*
X82700000Y-114300000D01*
D46*
X95047900Y-114802100D02*
X95050000Y-114802100D01*
X95000000Y-114850000D02*
X95047900Y-114802100D01*
D47*
X95050000Y-116060000D02*
X95050000Y-114802100D01*
X95471000Y-116485000D02*
X95050000Y-116060000D01*
X96519000Y-116485000D02*
X95471000Y-116485000D01*
X97300000Y-115700000D02*
X96519000Y-116485000D01*
X95050000Y-114802100D02*
X95050000Y-114300000D01*
D46*
X84950000Y-114800000D02*
X84950000Y-114300000D01*
X85000000Y-114850000D02*
X84950000Y-114800000D01*
%TO.N,DP14*%
X140555500Y-134465800D02*
X140658300Y-134465800D01*
X140496600Y-134406900D02*
X140555500Y-134465800D01*
X140496600Y-134406800D02*
X140496600Y-134406900D01*
X141650000Y-93500000D02*
X142900000Y-93500000D01*
X141650000Y-112500000D02*
X142900000Y-112500000D01*
X141650000Y-55500000D02*
X140899900Y-55500000D01*
X131725000Y-50750000D02*
X131725000Y-52350100D01*
X141650000Y-55500000D02*
X142400100Y-55500000D01*
X142900000Y-55500000D02*
X142400100Y-55500000D01*
X141650000Y-74500000D02*
X140899900Y-74500000D01*
X141650000Y-74500000D02*
X142400100Y-74500000D01*
X142900000Y-74500000D02*
X142400100Y-74500000D01*
X135491400Y-75224700D02*
X134841500Y-75224700D01*
X135972600Y-75705900D02*
X135491400Y-75224700D01*
X139694000Y-75705900D02*
X135972600Y-75705900D01*
X140899900Y-74500000D02*
X139694000Y-75705900D01*
X134841500Y-74466600D02*
X131725000Y-71350100D01*
X134841500Y-75224700D02*
X134841500Y-74466600D01*
X131725000Y-78341200D02*
X134841500Y-75224700D01*
X131725000Y-87149900D02*
X131725000Y-78341200D01*
X131725000Y-88750000D02*
X131725000Y-87149900D01*
X131725000Y-70079400D02*
X131725000Y-71350100D01*
X131725000Y-70079400D02*
X131725000Y-69750000D01*
X131725000Y-61028300D02*
X136064100Y-56689200D01*
X131725000Y-68149900D02*
X131725000Y-61028300D01*
X139710700Y-56689200D02*
X136064100Y-56689200D01*
X140899900Y-55500000D02*
X139710700Y-56689200D01*
X136064100Y-56689200D02*
X131725000Y-52350100D01*
X131725000Y-69750000D02*
X131725000Y-68149900D01*
X139483700Y-134038200D02*
X140496600Y-134406800D01*
X131781900Y-126180100D02*
X132528300Y-124129200D01*
X131725000Y-94948400D02*
X131725000Y-88750000D01*
X131725000Y-94948400D02*
X131994100Y-94948400D01*
X132528300Y-124129200D02*
X132919100Y-124129200D01*
X136220100Y-125250000D02*
X140993200Y-130023100D01*
X134039900Y-125250000D02*
X136220100Y-125250000D01*
X132919100Y-124129200D02*
X134039900Y-125250000D01*
X141650000Y-112500000D02*
X140899900Y-112500000D01*
X131725000Y-94948400D02*
X131725000Y-107750000D01*
X131735800Y-109350100D02*
X137892800Y-115507100D01*
X131725000Y-109350100D02*
X131735800Y-109350100D01*
X132919100Y-120480800D02*
X137892800Y-115507100D01*
X132919100Y-124129200D02*
X132919100Y-120480800D01*
X137892800Y-115507100D02*
X140899900Y-112500000D01*
X131725000Y-107750000D02*
X131725000Y-109350100D01*
D47*
%TO.N,P1045*%
X124950000Y-35300000D02*
X122700000Y-35300000D01*
D46*
X124950000Y-35800000D02*
X124950000Y-35300000D01*
X125000000Y-35850000D02*
X124950000Y-35800000D01*
X135047900Y-41802100D02*
X135050000Y-41802100D01*
X135000000Y-41850000D02*
X135047900Y-41802100D01*
D47*
X135050000Y-43060000D02*
X135050000Y-41802100D01*
X135471000Y-43485000D02*
X135050000Y-43060000D01*
X136519000Y-43485000D02*
X135471000Y-43485000D01*
X137300000Y-42700000D02*
X136519000Y-43485000D01*
X135050000Y-41802100D02*
X135050000Y-41300000D01*
%TO.N,P1035*%
X124950000Y-54300000D02*
X122700000Y-54300000D01*
D46*
X124950000Y-54800000D02*
X124950000Y-54300000D01*
X125000000Y-54850000D02*
X124950000Y-54800000D01*
X135047900Y-60802100D02*
X135050000Y-60802100D01*
X135000000Y-60850000D02*
X135047900Y-60802100D01*
D47*
X135050000Y-62060000D02*
X135050000Y-60802100D01*
X135471000Y-62485000D02*
X135050000Y-62060000D01*
X136519000Y-62485000D02*
X135471000Y-62485000D01*
X137300000Y-61700000D02*
X136519000Y-62485000D01*
X135050000Y-60802100D02*
X135050000Y-60300000D01*
%TO.N,P1025*%
X124950000Y-73300000D02*
X122700000Y-73300000D01*
D46*
X124950000Y-73800000D02*
X124950000Y-73300000D01*
X125000000Y-73850000D02*
X124950000Y-73800000D01*
X135047900Y-79802100D02*
X135050000Y-79802100D01*
X135000000Y-79850000D02*
X135047900Y-79802100D01*
D47*
X135050000Y-81060000D02*
X135050000Y-79802100D01*
X135471000Y-81485000D02*
X135050000Y-81060000D01*
X136519000Y-81485000D02*
X135471000Y-81485000D01*
X137300000Y-80700000D02*
X136519000Y-81485000D01*
X135050000Y-79802100D02*
X135050000Y-79300000D01*
%TO.N,P1015*%
X124950000Y-92300000D02*
X122700000Y-92300000D01*
D46*
X124950000Y-92800000D02*
X124950000Y-92300000D01*
X125000000Y-92850000D02*
X124950000Y-92800000D01*
X135047900Y-98802100D02*
X135050000Y-98802100D01*
X135000000Y-98850000D02*
X135047900Y-98802100D01*
D47*
X135050000Y-100060000D02*
X135050000Y-98802100D01*
X135471000Y-100485000D02*
X135050000Y-100060000D01*
X136519000Y-100485000D02*
X135471000Y-100485000D01*
X137300000Y-99700000D02*
X136519000Y-100485000D01*
X135050000Y-98802100D02*
X135050000Y-98300000D01*
D46*
%TO.N,DP15*%
X120077200Y-129539300D02*
X120077200Y-129539200D01*
X120005000Y-129611500D02*
X120077200Y-129539300D01*
X118785300Y-129611500D02*
X120005000Y-129611500D01*
X117912000Y-130484800D02*
X118785300Y-129611500D01*
X115425000Y-130484800D02*
X117912000Y-130484800D01*
X111429700Y-126489500D02*
X115425000Y-130484800D01*
X111429700Y-125899700D02*
X111429700Y-126489500D01*
X111278000Y-125748000D02*
X111429700Y-125899700D01*
X120902900Y-129611500D02*
X120077200Y-129539200D01*
X122900000Y-106500000D02*
X122400100Y-106500000D01*
X111429700Y-124014500D02*
X111278000Y-125748000D01*
X111429700Y-124014500D02*
X111581400Y-122281100D01*
X122025100Y-106500000D02*
X121740700Y-106500000D01*
X121650000Y-106500000D02*
X121740700Y-106500000D01*
X122025100Y-106500000D02*
X122400100Y-106500000D01*
X111581400Y-111106000D02*
X111581400Y-122281100D01*
X111725000Y-110962400D02*
X111581400Y-111106000D01*
X111725000Y-107343300D02*
X111725000Y-110962400D01*
X111725000Y-107343300D02*
X111725000Y-101750000D01*
X111725000Y-101750000D02*
X111725000Y-100149900D01*
X111725000Y-82750000D02*
X111725000Y-84350100D01*
X112567200Y-87810500D02*
X115467000Y-87810500D01*
X112567200Y-99307700D02*
X112567200Y-87810500D01*
X111725000Y-100149900D02*
X112567200Y-99307700D01*
X112567200Y-85192300D02*
X111725000Y-84350100D01*
X112567200Y-87810500D02*
X112567200Y-85192300D01*
X121650000Y-68500000D02*
X122400100Y-68500000D01*
X122900000Y-68500000D02*
X122400100Y-68500000D01*
X121650000Y-49500000D02*
X122400100Y-49500000D01*
X111725000Y-63750000D02*
X111725000Y-62149900D01*
X111725000Y-44750000D02*
X111725000Y-46350100D01*
X121765300Y-129720500D02*
X121728600Y-129683800D01*
X122148200Y-129720500D02*
X121765300Y-129720500D01*
X120902900Y-129611500D02*
X121728600Y-129683800D01*
X111725000Y-82750000D02*
X111725000Y-63750000D01*
X112949800Y-47574900D02*
X111725000Y-46350100D01*
X112949800Y-60925100D02*
X112949800Y-47574900D01*
X111725000Y-62149900D02*
X112949800Y-60925100D01*
X122400100Y-49500000D02*
X122900000Y-49500000D01*
X122900000Y-87500000D02*
X121650000Y-87500000D01*
X127050200Y-71723800D02*
X124811200Y-69484800D01*
X127050200Y-85742700D02*
X127050200Y-71723800D01*
X122815600Y-89977300D02*
X127050200Y-85742700D01*
X121767800Y-89977300D02*
X122815600Y-89977300D01*
X121441400Y-89650900D02*
X121767800Y-89977300D01*
X121441400Y-88608700D02*
X121441400Y-89650900D01*
X121650000Y-88400100D02*
X121441400Y-88608700D01*
X127079700Y-67216300D02*
X124811200Y-69484800D01*
X127079700Y-53679700D02*
X127079700Y-67216300D01*
X122900000Y-49500000D02*
X127079700Y-53679700D01*
X123884800Y-69484800D02*
X122900000Y-68500000D01*
X124811200Y-69484800D02*
X123884800Y-69484800D01*
X121650000Y-87500000D02*
X121650000Y-88400100D01*
D47*
%TO.N,P1044*%
X104950000Y-31300000D02*
X102700000Y-31300000D01*
D46*
X104950000Y-31800000D02*
X104950000Y-31300000D01*
X105000000Y-31850000D02*
X104950000Y-31800000D01*
X115047900Y-35802100D02*
X115050000Y-35802100D01*
X115000000Y-35850000D02*
X115047900Y-35802100D01*
D47*
X115050000Y-37060000D02*
X115050000Y-35802100D01*
X115471000Y-37485000D02*
X115050000Y-37060000D01*
X116519000Y-37485000D02*
X115471000Y-37485000D01*
X117300000Y-36700000D02*
X116519000Y-37485000D01*
X115050000Y-35802100D02*
X115050000Y-35300000D01*
%TO.N,P1034*%
X104950000Y-50300000D02*
X102700000Y-50300000D01*
D46*
X104950000Y-50800000D02*
X104950000Y-50300000D01*
X105000000Y-50850000D02*
X104950000Y-50800000D01*
X115047900Y-54802100D02*
X115050000Y-54802100D01*
X115000000Y-54850000D02*
X115047900Y-54802100D01*
D47*
X115050000Y-56060000D02*
X115050000Y-54802100D01*
X115471000Y-56485000D02*
X115050000Y-56060000D01*
X116519000Y-56485000D02*
X115471000Y-56485000D01*
X117300000Y-55700000D02*
X116519000Y-56485000D01*
X115050000Y-54802100D02*
X115050000Y-54300000D01*
%TO.N,P1024*%
X104950000Y-69300000D02*
X102700000Y-69300000D01*
D46*
X105000000Y-69350000D02*
X104950000Y-69300000D01*
X105000000Y-69850000D02*
X105000000Y-69350000D01*
X115047900Y-73802100D02*
X115050000Y-73802100D01*
X115000000Y-73850000D02*
X115047900Y-73802100D01*
D47*
X115050000Y-75060000D02*
X115050000Y-73802100D01*
X115471000Y-75485000D02*
X115050000Y-75060000D01*
X116519000Y-75485000D02*
X115471000Y-75485000D01*
X117300000Y-74700000D02*
X116519000Y-75485000D01*
X115050000Y-73802100D02*
X115050000Y-73300000D01*
%TO.N,P1014*%
X104950000Y-88300000D02*
X102700000Y-88300000D01*
D46*
X104950000Y-88800000D02*
X104950000Y-88300000D01*
X105000000Y-88850000D02*
X104950000Y-88800000D01*
X115047900Y-92802100D02*
X115050000Y-92802100D01*
X115000000Y-92850000D02*
X115047900Y-92802100D01*
D47*
X115050000Y-94060000D02*
X115050000Y-92802100D01*
X115471000Y-94485000D02*
X115050000Y-94060000D01*
X116519000Y-94485000D02*
X115471000Y-94485000D01*
X117300000Y-93700000D02*
X116519000Y-94485000D01*
X115050000Y-92802100D02*
X115050000Y-92300000D01*
D46*
%TO.N,DP18*%
X101650000Y-83500000D02*
X102900000Y-83500000D01*
X101650000Y-102500000D02*
X102900000Y-102500000D01*
X101650000Y-128500000D02*
X100899900Y-128500000D01*
X91725000Y-78750000D02*
X91725000Y-77149900D01*
X102900000Y-64500000D02*
X101650000Y-64500000D01*
X102900000Y-45500000D02*
X102400100Y-45500000D01*
X91725000Y-125386300D02*
X91725000Y-123750000D01*
X96027900Y-129689200D02*
X91725000Y-125386300D01*
X99710700Y-129689200D02*
X96027900Y-129689200D01*
X100899900Y-128500000D02*
X99710700Y-129689200D01*
X91725000Y-123750000D02*
X91725000Y-122149900D01*
X91725000Y-97750000D02*
X91725000Y-99350100D01*
X102025100Y-45500000D02*
X102400100Y-45500000D01*
X92209100Y-103589900D02*
X95609200Y-103589900D01*
X92209100Y-121665800D02*
X92209100Y-103589900D01*
X91725000Y-122149900D02*
X92209100Y-121665800D01*
X92209100Y-99834200D02*
X91725000Y-99350100D01*
X92209100Y-103589900D02*
X92209100Y-99834200D01*
X91725000Y-78750000D02*
X91725000Y-80350100D01*
X91725000Y-97750000D02*
X91725000Y-96149900D01*
X102900000Y-128500000D02*
X101650000Y-128500000D01*
X91900100Y-80525200D02*
X91900100Y-84704700D01*
X91725000Y-80350100D02*
X91900100Y-80525200D01*
X91900100Y-95974800D02*
X91725000Y-96149900D01*
X91900100Y-84704700D02*
X91900100Y-95974800D01*
X91725000Y-59750000D02*
X91725000Y-58149900D01*
X91725000Y-40750000D02*
X91725000Y-42350100D01*
X102025100Y-45500000D02*
X101650000Y-45500000D01*
X92184300Y-57690600D02*
X92184300Y-46790700D01*
X91725000Y-58149900D02*
X92184300Y-57690600D01*
X92184300Y-42809400D02*
X91725000Y-42350100D01*
X92184300Y-46790700D02*
X92184300Y-42809400D01*
X91725000Y-59750000D02*
X91725000Y-61350100D01*
X93550900Y-65049100D02*
X95593700Y-65049100D01*
X93550900Y-65260800D02*
X93550900Y-65049100D01*
X91725000Y-67086700D02*
X93550900Y-65260800D01*
X91725000Y-77149900D02*
X91725000Y-67086700D01*
X93550900Y-63176000D02*
X91725000Y-61350100D01*
X93550900Y-65049100D02*
X93550900Y-63176000D01*
D47*
%TO.N,P1043*%
X84950000Y-35300000D02*
X82700000Y-35300000D01*
D46*
X95047900Y-31802100D02*
X95050000Y-31802100D01*
X95000000Y-31850000D02*
X95047900Y-31802100D01*
D47*
X95050000Y-31802100D02*
X95050000Y-31300000D01*
X95471000Y-33485000D02*
X95050000Y-33060000D01*
X96519000Y-33485000D02*
X95471000Y-33485000D01*
X97300000Y-32700000D02*
X96519000Y-33485000D01*
X95050000Y-33060000D02*
X95050000Y-31802100D01*
D46*
X85000000Y-35300000D02*
X84950000Y-35300000D01*
X87240000Y-33060000D02*
X85000000Y-35300000D01*
X95050000Y-33060000D02*
X87240000Y-33060000D01*
X85000000Y-35300000D02*
X85000000Y-35850000D01*
D47*
%TO.N,P1033*%
X84950000Y-54300000D02*
X82700000Y-54300000D01*
D46*
X95047900Y-50802100D02*
X95050000Y-50802100D01*
X95000000Y-50850000D02*
X95047900Y-50802100D01*
D47*
X95050000Y-52060000D02*
X95050000Y-50802100D01*
X95471000Y-52485000D02*
X95050000Y-52060000D01*
X96519000Y-52485000D02*
X95471000Y-52485000D01*
X97300000Y-51700000D02*
X96519000Y-52485000D01*
X95050000Y-50802100D02*
X95050000Y-50300000D01*
D46*
X84950000Y-54800000D02*
X84950000Y-54300000D01*
X85000000Y-54850000D02*
X84950000Y-54800000D01*
D47*
%TO.N,P1023*%
X84950000Y-73300000D02*
X82700000Y-73300000D01*
D46*
X84950000Y-73800000D02*
X84950000Y-73300000D01*
X85000000Y-73850000D02*
X84950000Y-73800000D01*
X95047900Y-69802100D02*
X95050000Y-69802100D01*
X95000000Y-69850000D02*
X95047900Y-69802100D01*
D47*
X95050000Y-71060000D02*
X95050000Y-69802100D01*
X95471000Y-71485000D02*
X95050000Y-71060000D01*
X96519000Y-71485000D02*
X95471000Y-71485000D01*
X97300000Y-70700000D02*
X96519000Y-71485000D01*
X95050000Y-69802100D02*
X95050000Y-69300000D01*
%TO.N,P1013*%
X84950000Y-92300000D02*
X82700000Y-92300000D01*
D46*
X84950000Y-92800000D02*
X84950000Y-92300000D01*
X85000000Y-92850000D02*
X84950000Y-92800000D01*
X95047900Y-88802100D02*
X95050000Y-88802100D01*
X95000000Y-88850000D02*
X95047900Y-88802100D01*
D47*
X95050000Y-90060000D02*
X95050000Y-88802100D01*
X95471000Y-90485000D02*
X95050000Y-90060000D01*
X96519000Y-90485000D02*
X95471000Y-90485000D01*
X97300000Y-89700000D02*
X96519000Y-90485000D01*
X95050000Y-88802100D02*
X95050000Y-88300000D01*
D46*
%TO.N,DP19*%
X81650000Y-128500000D02*
X80899900Y-128500000D01*
X82900000Y-106500000D02*
X81650000Y-106500000D01*
X81650000Y-68500000D02*
X80899900Y-68500000D01*
X82900000Y-49500000D02*
X81650000Y-49500000D01*
X81650000Y-49500000D02*
X80899900Y-49500000D01*
X71725000Y-44750000D02*
X71725000Y-46350100D01*
X71725000Y-63750000D02*
X71725000Y-62149900D01*
X75670400Y-50295500D02*
X71725000Y-46350100D01*
X75670400Y-50619000D02*
X75670400Y-50295500D01*
X75800400Y-50749000D02*
X75670400Y-50619000D01*
X79650900Y-50749000D02*
X75800400Y-50749000D01*
X80899900Y-49500000D02*
X79650900Y-50749000D01*
X72949800Y-60925100D02*
X71725000Y-62149900D01*
X72949800Y-53339600D02*
X72949800Y-60925100D01*
X75670400Y-50619000D02*
X72949800Y-53339600D01*
X71725000Y-65352000D02*
X71725000Y-63750000D01*
X76087500Y-69714500D02*
X71725000Y-65352000D01*
X79685400Y-69714500D02*
X76087500Y-69714500D01*
X80899900Y-68500000D02*
X79685400Y-69714500D01*
X71725000Y-125386300D02*
X71725000Y-123750000D01*
X76027900Y-129689200D02*
X71725000Y-125386300D01*
X79710700Y-129689200D02*
X76027900Y-129689200D01*
X80899900Y-128500000D02*
X79710700Y-129689200D01*
X81650000Y-68500000D02*
X82400100Y-68500000D01*
X82900000Y-68500000D02*
X82400100Y-68500000D01*
X81650000Y-128500000D02*
X82900000Y-128500000D01*
X87062700Y-109748100D02*
X83814600Y-106500000D01*
X87062700Y-125224600D02*
X87062700Y-109748100D01*
X83787300Y-128500000D02*
X87062700Y-125224600D01*
X82900000Y-128500000D02*
X83787300Y-128500000D01*
X83814600Y-106500000D02*
X82900000Y-106500000D01*
X85895500Y-99680100D02*
X85944100Y-99728700D01*
X83201900Y-99680100D02*
X85895500Y-99680100D01*
X81807500Y-101074500D02*
X83201900Y-99680100D01*
X77842300Y-101074500D02*
X81807500Y-101074500D01*
X76419100Y-99651300D02*
X77842300Y-101074500D01*
X73823700Y-99651300D02*
X76419100Y-99651300D01*
X71725000Y-101750000D02*
X73823700Y-99651300D01*
X87073800Y-103240800D02*
X83814600Y-106500000D01*
X87073800Y-100858400D02*
X87073800Y-103240800D01*
X85944100Y-99728700D02*
X87073800Y-100858400D01*
X88109200Y-73709200D02*
X88109200Y-84561400D01*
X82900000Y-68500000D02*
X88109200Y-73709200D01*
X88250600Y-84702800D02*
X88109200Y-84561400D01*
X88250600Y-97422200D02*
X88250600Y-84702800D01*
X85944100Y-99728700D02*
X88250600Y-97422200D01*
X82900000Y-87500000D02*
X81650000Y-87500000D01*
X76064100Y-88689200D02*
X71725000Y-84350100D01*
X79710700Y-88689200D02*
X76064100Y-88689200D01*
X80899900Y-87500000D02*
X79710700Y-88689200D01*
X81650000Y-87500000D02*
X80899900Y-87500000D01*
X71725000Y-82750000D02*
X71725000Y-84350100D01*
D47*
%TO.N,P1042*%
X75050000Y-36180000D02*
X75050000Y-35300000D01*
D46*
X75000000Y-36130000D02*
X75000000Y-35850000D01*
X75050000Y-36180000D02*
X75000000Y-36130000D01*
D47*
X64950000Y-47300000D02*
X62700000Y-47300000D01*
X75471000Y-37485000D02*
X75050000Y-37060000D01*
X76519000Y-37485000D02*
X75471000Y-37485000D01*
X77300000Y-36700000D02*
X76519000Y-37485000D01*
X75050000Y-37060000D02*
X75050000Y-36180000D01*
D46*
X64950000Y-47800000D02*
X64950000Y-47300000D01*
X65000000Y-47850000D02*
X64950000Y-47800000D01*
X75049900Y-37060000D02*
X75050000Y-37060000D01*
X75049900Y-37200100D02*
X75049900Y-37060000D01*
X64950000Y-47300000D02*
X75049900Y-37200100D01*
D47*
%TO.N,P1032*%
X64950000Y-66300000D02*
X62700000Y-66300000D01*
X75050000Y-54799000D02*
X75050000Y-54300000D01*
D46*
X75000000Y-54849000D02*
X75050000Y-54799000D01*
X75000000Y-54850000D02*
X75000000Y-54849000D01*
D47*
X75050000Y-56060000D02*
X75050000Y-54799000D01*
X75471000Y-56485000D02*
X75050000Y-56060000D01*
X76519000Y-56485000D02*
X75471000Y-56485000D01*
X77300000Y-55700000D02*
X76519000Y-56485000D01*
D46*
X64950000Y-66800000D02*
X64950000Y-66300000D01*
X65000000Y-66850000D02*
X64950000Y-66800000D01*
D47*
%TO.N,P1022*%
X64950000Y-85300000D02*
X62700000Y-85300000D01*
X75050000Y-73802100D02*
X75050000Y-73300000D01*
D46*
X75047900Y-73802100D02*
X75000000Y-73850000D01*
X75050000Y-73802100D02*
X75047900Y-73802100D01*
D47*
X75471000Y-75485000D02*
X75260500Y-75272500D01*
X76519000Y-75485000D02*
X75471000Y-75485000D01*
X77300000Y-74700000D02*
X76519000Y-75485000D01*
X75050000Y-75060000D02*
X75050000Y-73802100D01*
X75260500Y-75272500D02*
X75050000Y-75060000D01*
D46*
X65000000Y-85300000D02*
X65000000Y-85850000D01*
X65233000Y-85300000D02*
X65000000Y-85300000D01*
X75260500Y-75272500D02*
X65233000Y-85300000D01*
X65000000Y-85300000D02*
X64950000Y-85300000D01*
D47*
%TO.N,P1012*%
X64950000Y-104300000D02*
X62700000Y-104300000D01*
X75050000Y-93125100D02*
X75050000Y-92300000D01*
D46*
X75000000Y-93075100D02*
X75000000Y-92850000D01*
X75050000Y-93125100D02*
X75000000Y-93075100D01*
D47*
X75050000Y-94060000D02*
X75050000Y-93125100D01*
X75059900Y-94070000D02*
X75050000Y-94060000D01*
X75471000Y-94485000D02*
X75059900Y-94070000D01*
X76519000Y-94485000D02*
X75471000Y-94485000D01*
X77300000Y-93700000D02*
X76519000Y-94485000D01*
D46*
X65000000Y-104850000D02*
X65000000Y-104300000D01*
X67839700Y-101460300D02*
X65000000Y-104300000D01*
X67839700Y-101290200D02*
X67839700Y-101460300D01*
X75059900Y-94070000D02*
X67839700Y-101290200D01*
X65000000Y-104300000D02*
X64950000Y-104300000D01*
%TO.N,DP20*%
X61650000Y-99500000D02*
X62900000Y-99500000D01*
X61650000Y-118500000D02*
X62900000Y-118500000D01*
X61650000Y-80500000D02*
X62900000Y-80500000D01*
X51725000Y-94750000D02*
X51725000Y-96350100D01*
X51725000Y-94750000D02*
X51725000Y-93149900D01*
X51725000Y-76079400D02*
X51725000Y-77350100D01*
X59696900Y-119703000D02*
X60899900Y-118500000D01*
X56077900Y-119703000D02*
X59696900Y-119703000D01*
X51725000Y-115350100D02*
X56077900Y-119703000D01*
X51725000Y-113750000D02*
X51725000Y-115350100D01*
X61650000Y-118500000D02*
X60899900Y-118500000D01*
X51725000Y-113750000D02*
X51725000Y-112149900D01*
X52437500Y-81767600D02*
X54343300Y-81767600D01*
X52437500Y-78062600D02*
X52437500Y-81767600D01*
X51725000Y-77350100D02*
X52437500Y-78062600D01*
X52437500Y-92437400D02*
X51725000Y-93149900D01*
X52437500Y-81767600D02*
X52437500Y-92437400D01*
X51725000Y-96350100D02*
X51725000Y-100471800D01*
X51725000Y-100471800D02*
X51725000Y-112149900D01*
X62900000Y-61500000D02*
X61650000Y-61500000D01*
X51725000Y-76079400D02*
X51725000Y-75750000D01*
X51725000Y-75750000D02*
X51725000Y-74149900D01*
X51725000Y-56750000D02*
X51725000Y-58350100D01*
X51725000Y-66473900D02*
X51725000Y-74149900D01*
X55669200Y-62529700D02*
X51725000Y-66473900D01*
X55669200Y-62294300D02*
X51725000Y-58350100D01*
X55669200Y-62529700D02*
X55669200Y-62294300D01*
D47*
%TO.N,P1040*%
X144950000Y-60300000D02*
X142700000Y-60300000D01*
D46*
X144950000Y-60800000D02*
X144950000Y-60300000D01*
X145000000Y-60850000D02*
X144950000Y-60800000D01*
X35047900Y-57802100D02*
X35050000Y-57802100D01*
X35000000Y-57850000D02*
X35047900Y-57802100D01*
D47*
X35050000Y-59060000D02*
X35050000Y-57802100D01*
X35471000Y-59485000D02*
X35050000Y-59060000D01*
X36519000Y-59485000D02*
X35471000Y-59485000D01*
X37300000Y-58700000D02*
X36519000Y-59485000D01*
X35050000Y-57802100D02*
X35050000Y-57300000D01*
%TO.N,P1041*%
X55050000Y-48180000D02*
X55050000Y-47300000D01*
D46*
X55000000Y-48130000D02*
X55000000Y-47850000D01*
X55050000Y-48180000D02*
X55000000Y-48130000D01*
D47*
X44950000Y-57300000D02*
X42700000Y-57300000D01*
X55471000Y-49485000D02*
X55260500Y-49272500D01*
X56519000Y-49485000D02*
X55471000Y-49485000D01*
X57300000Y-48700000D02*
X56519000Y-49485000D01*
X55050000Y-49060000D02*
X55050000Y-48180000D01*
X55260500Y-49272500D02*
X55050000Y-49060000D01*
D46*
X47183000Y-57350000D02*
X45000000Y-57350000D01*
X55260500Y-49272500D02*
X47183000Y-57350000D01*
X45000000Y-57850000D02*
X45000000Y-57350000D01*
X45000000Y-57350000D02*
X44950000Y-57300000D01*
%TO.N,P1030*%
X35000000Y-76850000D02*
X35050000Y-76850000D01*
D47*
X35050000Y-78060000D02*
X35050000Y-76850000D01*
X35471000Y-78485000D02*
X35050000Y-78060000D01*
X36519000Y-78485000D02*
X35471000Y-78485000D01*
X37300000Y-77700000D02*
X36519000Y-78485000D01*
X35050000Y-76850000D02*
X35050000Y-76300000D01*
X144950000Y-79300000D02*
X142700000Y-79300000D01*
D46*
X144950000Y-79800000D02*
X144950000Y-79300000D01*
X145000000Y-79850000D02*
X144950000Y-79800000D01*
D47*
%TO.N,P1031*%
X44950000Y-76300000D02*
X42700000Y-76300000D01*
D46*
X55047900Y-66802100D02*
X55050000Y-66802100D01*
X55000000Y-66850000D02*
X55047900Y-66802100D01*
D47*
X55050000Y-68060000D02*
X55050000Y-66802100D01*
X55471000Y-68485000D02*
X55050000Y-68060000D01*
X56519000Y-68485000D02*
X55471000Y-68485000D01*
X57300000Y-67700000D02*
X56519000Y-68485000D01*
X55050000Y-66802100D02*
X55050000Y-66300000D01*
D46*
X45000000Y-76350000D02*
X44950000Y-76300000D01*
X45000000Y-76850000D02*
X45000000Y-76350000D01*
D47*
%TO.N,P1020*%
X144950000Y-98300000D02*
X142700000Y-98300000D01*
D46*
X35000000Y-95850000D02*
X35050000Y-95850000D01*
D47*
X35050000Y-97060000D02*
X35050000Y-95850000D01*
X35471000Y-97485000D02*
X35050000Y-97060000D01*
X36519000Y-97485000D02*
X35471000Y-97485000D01*
X37300000Y-96700000D02*
X36519000Y-97485000D01*
X35050000Y-95850000D02*
X35050000Y-95300000D01*
D46*
X144950000Y-98800000D02*
X144950000Y-98300000D01*
X145000000Y-98850000D02*
X144950000Y-98800000D01*
D47*
%TO.N,P1021*%
X44950000Y-95300000D02*
X42700000Y-95300000D01*
D46*
X44950000Y-95800000D02*
X44950000Y-95300000D01*
X45000000Y-95850000D02*
X44950000Y-95800000D01*
X55047900Y-85802100D02*
X55050000Y-85802100D01*
X55000000Y-85850000D02*
X55047900Y-85802100D01*
D47*
X55050000Y-87060000D02*
X55050000Y-85802100D01*
X55471000Y-87485000D02*
X55050000Y-87060000D01*
X56519000Y-87485000D02*
X55471000Y-87485000D01*
X57300000Y-86700000D02*
X56519000Y-87485000D01*
X55050000Y-85802100D02*
X55050000Y-85300000D01*
%TO.N,P1010*%
X165602400Y-134057500D02*
X164782000Y-133369000D01*
D46*
X164781600Y-133368500D02*
X165601300Y-134056400D01*
X165601300Y-134056400D02*
X165602400Y-134057500D01*
D47*
X166505000Y-134815000D02*
X165602400Y-134057500D01*
D46*
X166505000Y-134953100D02*
X166505000Y-134815000D01*
X166189900Y-135268200D02*
X166505000Y-134953100D01*
X35000000Y-114850000D02*
X35050000Y-114850000D01*
D47*
X35050000Y-116060000D02*
X35050000Y-114850000D01*
X35471000Y-116485000D02*
X35050000Y-116060000D01*
X36519000Y-116485000D02*
X35471000Y-116485000D01*
X37300000Y-115700000D02*
X36519000Y-116485000D01*
X35050000Y-114850000D02*
X35050000Y-114300000D01*
D46*
X164781600Y-133368500D02*
X165352200Y-132688600D01*
X152557000Y-116380500D02*
X152200000Y-116380500D01*
X152925200Y-116748700D02*
X152557000Y-116380500D01*
X152925200Y-119537800D02*
X152925200Y-116748700D01*
X165304200Y-131916800D02*
X152925200Y-119537800D01*
X165304200Y-132640600D02*
X165304200Y-131916800D01*
X165352200Y-132688600D02*
X165304200Y-132640600D01*
D47*
%TO.N,P1011*%
X44950000Y-114300000D02*
X42700000Y-114300000D01*
D46*
X55047900Y-104802100D02*
X55050000Y-104802100D01*
X55000000Y-104850000D02*
X55047900Y-104802100D01*
D47*
X55050000Y-106060000D02*
X55050000Y-104802100D01*
X55471000Y-106485000D02*
X55050000Y-106060000D01*
X56519000Y-106485000D02*
X55471000Y-106485000D01*
X57300000Y-105700000D02*
X56519000Y-106485000D01*
X55050000Y-104802100D02*
X55050000Y-104300000D01*
D46*
X44950000Y-114800000D02*
X44950000Y-114300000D01*
X45000000Y-114850000D02*
X44950000Y-114800000D01*
%TO.N,DP21*%
X41650000Y-128500000D02*
X42900000Y-128500000D01*
X39706800Y-129693100D02*
X40899900Y-128500000D01*
X36036500Y-129693100D02*
X39706800Y-129693100D01*
X31725000Y-125381600D02*
X36036500Y-129693100D01*
X31725000Y-123750000D02*
X31725000Y-125381600D01*
X41650000Y-128500000D02*
X40899900Y-128500000D01*
X42900000Y-71500000D02*
X42400100Y-71500000D01*
X42900000Y-90500000D02*
X41650000Y-90500000D01*
X42025100Y-71500000D02*
X42400100Y-71500000D01*
X42025100Y-71500000D02*
X41650000Y-71500000D01*
X41650000Y-71500000D02*
X40899900Y-71500000D01*
X31725000Y-66750000D02*
X31725000Y-68350100D01*
X39685700Y-72714200D02*
X36089100Y-72714200D01*
X40899900Y-71500000D02*
X39685700Y-72714200D01*
X36089100Y-72714200D02*
X31725000Y-68350100D01*
X42900000Y-109500000D02*
X41650000Y-109500000D01*
X41650000Y-109500000D02*
X40899900Y-109500000D01*
X31725000Y-115051700D02*
X31725000Y-123750000D01*
X36072900Y-110703800D02*
X31725000Y-115051700D01*
X31725000Y-106355900D02*
X36072900Y-110703800D01*
X31725000Y-104750000D02*
X31725000Y-106355900D01*
X39696100Y-110703800D02*
X40899900Y-109500000D01*
X36072900Y-110703800D02*
X39696100Y-110703800D01*
X31725000Y-77078300D02*
X31725000Y-85750000D01*
X36089100Y-72714200D02*
X31725000Y-77078300D01*
X41650000Y-90500000D02*
X40899900Y-90500000D01*
X31725000Y-96051700D02*
X31725000Y-104750000D01*
X36072900Y-91703800D02*
X31725000Y-96051700D01*
X31725000Y-87355900D02*
X36072900Y-91703800D01*
X31725000Y-85750000D02*
X31725000Y-87355900D01*
X39696100Y-91703800D02*
X40899900Y-90500000D01*
X36072900Y-91703800D02*
X39696100Y-91703800D01*
%TO.N,P6*%
X82285000Y-124960000D02*
X82285000Y-123437500D01*
X83275000Y-125950000D02*
X82285000Y-124960000D01*
X103275000Y-125950000D02*
X104875100Y-125950000D01*
X108722700Y-129797600D02*
X104875100Y-125950000D01*
X110140100Y-129797600D02*
X108722700Y-129797600D01*
X111345400Y-131002900D02*
X110140100Y-129797600D01*
X122707100Y-131002900D02*
X111345400Y-131002900D01*
X123420300Y-130289700D02*
X122707100Y-131002900D01*
X123420300Y-127889100D02*
X123420300Y-130289700D01*
X122744000Y-127212800D02*
X123420300Y-127889100D01*
X141882900Y-132197800D02*
X143469100Y-132775100D01*
X149381300Y-141018900D02*
X149381300Y-136749500D01*
X154033500Y-145671100D02*
X149381300Y-141018900D01*
X156312500Y-145671100D02*
X154033500Y-145671100D01*
X157733500Y-144250100D02*
X156312500Y-145671100D01*
X157733500Y-142662500D02*
X157733500Y-144250100D01*
X147443500Y-136749500D02*
X143469100Y-132775100D01*
X149381300Y-136749500D02*
X147443500Y-136749500D01*
%TO.N,P5*%
X42200900Y-124875900D02*
X42200900Y-123699600D01*
X43275000Y-125950000D02*
X42200900Y-124875900D01*
X104594500Y-101269500D02*
X104594500Y-104219700D01*
X103275000Y-99950000D02*
X104594500Y-101269500D01*
X123929400Y-103950000D02*
X124875100Y-103950000D01*
X63275000Y-115950000D02*
X64173500Y-116848500D01*
X57268800Y-125950000D02*
X43275000Y-125950000D01*
X64173500Y-119045300D02*
X57268800Y-125950000D01*
X64173500Y-116848500D02*
X64173500Y-119045300D01*
X80070600Y-101842100D02*
X80070600Y-101699100D01*
X79175900Y-101842100D02*
X80070600Y-101842100D01*
X70124800Y-110893200D02*
X79175900Y-101842100D01*
X70124800Y-111586800D02*
X70124800Y-110893200D01*
X64863100Y-116848500D02*
X70124800Y-111586800D01*
X64173500Y-116848500D02*
X64863100Y-116848500D01*
X81167100Y-101842100D02*
X83275000Y-103950000D01*
X80070600Y-101842100D02*
X81167100Y-101842100D01*
X124875100Y-103950000D02*
X130787500Y-109862400D01*
X142075600Y-108750600D02*
X142075600Y-107896600D01*
X143275000Y-109950000D02*
X142075600Y-108750600D01*
X138737800Y-107896600D02*
X138373200Y-108261200D01*
X142075600Y-107896600D02*
X138737800Y-107896600D01*
X157060800Y-83094100D02*
X157060800Y-70406700D01*
X154188100Y-85966800D02*
X157060800Y-83094100D01*
X151906500Y-85966800D02*
X154188100Y-85966800D01*
X149146500Y-88726800D02*
X151906500Y-85966800D01*
X149146500Y-97376100D02*
X149146500Y-88726800D01*
X143740100Y-102782500D02*
X149146500Y-97376100D01*
X143740100Y-106110600D02*
X143740100Y-102782500D01*
X142075600Y-107775100D02*
X143740100Y-106110600D01*
X142075600Y-107896600D02*
X142075600Y-107775100D01*
X123929400Y-103950000D02*
X123275000Y-103950000D01*
X118715400Y-101867500D02*
X118346900Y-102236000D01*
X121192500Y-101867500D02*
X118715400Y-101867500D01*
X123275000Y-103950000D02*
X121192500Y-101867500D01*
%TO.N,P4*%
X58751200Y-94881400D02*
X58377100Y-95255500D01*
X61206400Y-94881400D02*
X58751200Y-94881400D01*
X63275000Y-96950000D02*
X61206400Y-94881400D01*
X142226800Y-89901800D02*
X142226800Y-88613500D01*
X143275000Y-90950000D02*
X142226800Y-89901800D01*
X102004000Y-79679000D02*
X102004000Y-78846600D01*
X103275000Y-80950000D02*
X102004000Y-79679000D01*
X122891700Y-89329700D02*
X122072500Y-89329700D01*
X124192700Y-88028700D02*
X122891700Y-89329700D01*
X124192700Y-85867700D02*
X124192700Y-88028700D01*
X123275000Y-84950000D02*
X124192700Y-85867700D01*
X81010600Y-82685600D02*
X83275000Y-84950000D01*
X79852300Y-82685600D02*
X81010600Y-82685600D01*
X65701100Y-96950000D02*
X63275000Y-96950000D01*
X67341600Y-95309500D02*
X65701100Y-96950000D01*
X67341600Y-92606100D02*
X67341600Y-95309500D01*
X68088500Y-91859200D02*
X67341600Y-92606100D01*
X71676300Y-91859200D02*
X68088500Y-91859200D01*
X72735300Y-90800200D02*
X71676300Y-91859200D01*
X81405300Y-90800200D02*
X72735300Y-90800200D01*
X84160400Y-88045100D02*
X81405300Y-90800200D01*
X84160400Y-85835400D02*
X84160400Y-88045100D01*
X83275000Y-84950000D02*
X84160400Y-85835400D01*
X42925000Y-102918700D02*
X43969600Y-101874100D01*
X42925000Y-104898900D02*
X42925000Y-102918700D01*
X42925000Y-106600000D02*
X42925000Y-104898900D01*
X43275000Y-106950000D02*
X42925000Y-106600000D01*
X38765300Y-104898900D02*
X38379200Y-105285000D01*
X42925000Y-104898900D02*
X38765300Y-104898900D01*
%TO.N,P3*%
X62301800Y-76976800D02*
X63275000Y-77950000D01*
X62301800Y-75759100D02*
X62301800Y-76976800D01*
X103275000Y-63001500D02*
X103275000Y-61950000D01*
X104461300Y-64187800D02*
X103275000Y-63001500D01*
X138837600Y-69856800D02*
X138550900Y-70143500D01*
X141181800Y-69856800D02*
X138837600Y-69856800D01*
X143275000Y-71950000D02*
X141181800Y-69856800D01*
X143275000Y-71950000D02*
X144875100Y-71950000D01*
X147426400Y-74501300D02*
X148058300Y-74501300D01*
X144875100Y-71950000D02*
X147426400Y-74501300D01*
X42544500Y-87219500D02*
X42544500Y-85498900D01*
X43275000Y-87950000D02*
X42544500Y-87219500D01*
X82593700Y-65268700D02*
X82593700Y-63880300D01*
X83275000Y-65950000D02*
X82593700Y-65268700D01*
X91821000Y-65950000D02*
X92950800Y-64820200D01*
X83275000Y-65950000D02*
X91821000Y-65950000D01*
X124584100Y-67259100D02*
X124584100Y-68848100D01*
X123275000Y-65950000D02*
X124584100Y-67259100D01*
%TO.N,P2*%
X60800000Y-56475000D02*
X63275000Y-58950000D01*
X59959700Y-56475000D02*
X60800000Y-56475000D01*
X141452500Y-51127500D02*
X143275000Y-52950000D01*
X141452500Y-51072400D02*
X141452500Y-51127500D01*
X38741500Y-66861000D02*
X38355400Y-67247100D01*
X42930500Y-66861000D02*
X38741500Y-66861000D01*
X42930500Y-68605500D02*
X42930500Y-66861000D01*
X43275000Y-68950000D02*
X42930500Y-68605500D01*
X58242800Y-56475000D02*
X59959700Y-56475000D01*
X56419100Y-54651300D02*
X58242800Y-56475000D01*
X50742700Y-54651300D02*
X56419100Y-54651300D01*
X43846100Y-61547900D02*
X50742700Y-54651300D01*
X43846100Y-63642100D02*
X43846100Y-61547900D01*
X42930500Y-64557700D02*
X43846100Y-63642100D01*
X42930500Y-66861000D02*
X42930500Y-64557700D01*
X140713500Y-50333400D02*
X141452500Y-51072400D01*
X138101200Y-50333400D02*
X140713500Y-50333400D01*
X136317900Y-48550100D02*
X138101200Y-50333400D01*
X126475200Y-48550100D02*
X136317900Y-48550100D01*
X124875100Y-46950000D02*
X126475200Y-48550100D01*
X123275000Y-46950000D02*
X124875100Y-46950000D01*
X85707400Y-46950000D02*
X83275000Y-46950000D01*
X87891100Y-44766300D02*
X85707400Y-46950000D01*
X87891100Y-42602200D02*
X87891100Y-44766300D01*
X87891100Y-41527800D02*
X87891100Y-42602200D01*
X90738800Y-38680100D02*
X87891100Y-41527800D01*
X96505700Y-38680100D02*
X90738800Y-38680100D01*
X98668800Y-40843200D02*
X96505700Y-38680100D01*
X101168200Y-40843200D02*
X98668800Y-40843200D01*
X103275000Y-42950000D02*
X101168200Y-40843200D01*
X118069400Y-44874600D02*
X118069400Y-44934300D01*
X121199600Y-44874600D02*
X118069400Y-44874600D01*
X123275000Y-46950000D02*
X121199600Y-44874600D01*
X106621200Y-42950000D02*
X103275000Y-42950000D01*
X106885500Y-42685700D02*
X106621200Y-42950000D01*
X115880500Y-42685700D02*
X106885500Y-42685700D01*
X118069400Y-44874600D02*
X115880500Y-42685700D01*
%TO.N,P0*%
X161288300Y-78188400D02*
X162399900Y-79300000D01*
X161288300Y-73511600D02*
X161288300Y-78188400D01*
X162399900Y-72400000D02*
X161288300Y-73511600D01*
X163800000Y-72400000D02*
X162399900Y-72400000D01*
X163800000Y-79300000D02*
X162399900Y-79300000D01*
%TO.N,P1*%
X167800000Y-79300000D02*
X167800000Y-72400000D01*
X167800000Y-40850000D02*
X169620000Y-39030000D01*
X167800000Y-72400000D02*
X167800000Y-40850000D01*
D47*
%TO.N,P10*%
X144950000Y-41300000D02*
X142700000Y-41300000D01*
D46*
X148530000Y-45380000D02*
X145000000Y-41850000D01*
X154801100Y-45380000D02*
X148530000Y-45380000D01*
X155564800Y-46143700D02*
X154801100Y-45380000D01*
X155564800Y-47149900D02*
X155564800Y-46143700D01*
X154888200Y-47826500D02*
X155564800Y-47149900D01*
X154049100Y-47826500D02*
X154888200Y-47826500D01*
X153184600Y-48691000D02*
X154049100Y-47826500D01*
X153184600Y-65774600D02*
X153184600Y-48691000D01*
X154380000Y-66970000D02*
X153184600Y-65774600D01*
X145000000Y-41350000D02*
X144950000Y-41300000D01*
X145000000Y-41850000D02*
X145000000Y-41350000D01*
%TO.N,P16*%
X151415900Y-140646700D02*
X151686600Y-140917400D01*
X151364100Y-140646700D02*
X151415900Y-140646700D01*
X152321600Y-141450200D02*
X151686600Y-140917400D01*
X152321600Y-141450200D02*
X152942500Y-140710400D01*
X166859900Y-98560100D02*
X165540000Y-99880000D01*
X166859900Y-84214200D02*
X166859900Y-98560100D01*
X163757800Y-81112100D02*
X166859900Y-84214200D01*
X163577600Y-81112100D02*
X163757800Y-81112100D01*
X158677500Y-76212000D02*
X163577600Y-81112100D01*
X158677500Y-68727500D02*
X158677500Y-76212000D01*
X154380000Y-64430000D02*
X158677500Y-68727500D01*
X157686400Y-107733600D02*
X165540000Y-99880000D01*
X157686400Y-119941800D02*
X157686400Y-107733600D01*
X159409900Y-121665300D02*
X157686400Y-119941800D01*
X159409900Y-122231000D02*
X159409900Y-121665300D01*
X167892800Y-130713900D02*
X159409900Y-122231000D01*
X167892800Y-137051100D02*
X167892800Y-130713900D01*
X163895700Y-141048200D02*
X167892800Y-137051100D01*
X162604800Y-141048200D02*
X163895700Y-141048200D01*
X161352700Y-139796100D02*
X162604800Y-141048200D01*
X157825500Y-139796100D02*
X161352700Y-139796100D01*
X156502500Y-138473100D02*
X157825500Y-139796100D01*
X154324900Y-138473100D02*
X156502500Y-138473100D01*
X152942400Y-139855600D02*
X154324900Y-138473100D01*
X152942400Y-140710300D02*
X152942400Y-139855600D01*
X152942500Y-140710400D02*
X152942400Y-140710300D01*
%TO.N,P14*%
X138350000Y-55500000D02*
X137100000Y-55500000D01*
X137100000Y-74500000D02*
X138289100Y-74500000D01*
X138350000Y-74500000D02*
X138289100Y-74500000D01*
X138350000Y-93500000D02*
X137599900Y-93500000D01*
X137100000Y-93500000D02*
X137599900Y-93500000D01*
X133701800Y-77365800D02*
X135242800Y-75824800D01*
X133701800Y-81191800D02*
X133701800Y-77365800D01*
X136154100Y-83644100D02*
X133701800Y-81191800D01*
X136154100Y-85504300D02*
X136154100Y-83644100D01*
X137100000Y-86450200D02*
X136154100Y-85504300D01*
X137100000Y-93500000D02*
X137100000Y-86450200D01*
X136382700Y-132909600D02*
X135369800Y-132541000D01*
X138350000Y-112500000D02*
X137599900Y-112500000D01*
X135310900Y-132482000D02*
X135208100Y-132482000D01*
X135369800Y-132540900D02*
X135310900Y-132482000D01*
X135369800Y-132541000D02*
X135369800Y-132540900D01*
X135208100Y-132482000D02*
X133683900Y-131927300D01*
X129800100Y-120545900D02*
X135126300Y-115219700D01*
X129800100Y-127074000D02*
X129800100Y-120545900D01*
X133683900Y-130957800D02*
X129800100Y-127074000D01*
X133683900Y-131927300D02*
X133683900Y-130957800D01*
X137100000Y-112500000D02*
X137599900Y-112500000D01*
X137100000Y-93500000D02*
X137100000Y-94689100D01*
X133741800Y-98047300D02*
X137100000Y-94689100D01*
X133741800Y-100231800D02*
X133741800Y-98047300D01*
X136154100Y-102644100D02*
X133741800Y-100231800D01*
X136154100Y-104504300D02*
X136154100Y-102644100D01*
X137100000Y-105450200D02*
X136154100Y-104504300D01*
X137100000Y-112500000D02*
X137100000Y-105450200D01*
%TO.N,P15*%
X118350000Y-49500000D02*
X117599900Y-49500000D01*
X117615500Y-129323900D02*
X116789800Y-129251600D01*
X114188200Y-110600900D02*
X117100000Y-107689100D01*
X114188200Y-117405500D02*
X114188200Y-110600900D01*
X116742400Y-119959700D02*
X114188200Y-117405500D01*
X116742400Y-129214900D02*
X116742400Y-119959700D01*
X116370200Y-129214900D02*
X116742400Y-129214900D01*
X116753100Y-129214900D02*
X116789800Y-129251600D01*
X116742400Y-129214900D02*
X116753100Y-129214900D01*
X118350000Y-87500000D02*
X117975000Y-87500000D01*
X118350000Y-68500000D02*
X117668700Y-68500000D01*
X117100000Y-106500000D02*
X117100000Y-107094500D01*
X117100000Y-107094500D02*
X117100000Y-107689100D01*
X117599900Y-106594600D02*
X117599900Y-106500000D01*
X117100000Y-107094500D02*
X117599900Y-106594600D01*
X118350000Y-106500000D02*
X117599900Y-106500000D01*
X117100000Y-99981800D02*
X117100000Y-106500000D01*
X116925000Y-99806800D02*
X117100000Y-99981800D01*
X116925000Y-97010500D02*
X116925000Y-99806800D01*
X113743000Y-93828500D02*
X116925000Y-97010500D01*
X113743000Y-92046100D02*
X113743000Y-93828500D01*
X117100000Y-88689100D02*
X113743000Y-92046100D01*
X117100000Y-87500000D02*
X117100000Y-88689100D01*
X117975000Y-87500000D02*
X117100000Y-87500000D01*
X117100000Y-68500000D02*
X117100000Y-69689100D01*
X113741800Y-73047300D02*
X117100000Y-69689100D01*
X113741800Y-75231800D02*
X113741800Y-73047300D01*
X116154100Y-77644100D02*
X113741800Y-75231800D01*
X116154100Y-79504300D02*
X116154100Y-77644100D01*
X117100000Y-80450200D02*
X116154100Y-79504300D01*
X117100000Y-87500000D02*
X117100000Y-80450200D01*
X117100000Y-49500000D02*
X117599900Y-49500000D01*
X117100000Y-68500000D02*
X117668700Y-68500000D01*
X117100000Y-49500000D02*
X117100000Y-50689100D01*
X113745200Y-54043900D02*
X117100000Y-50689100D01*
X113745200Y-56993600D02*
X113745200Y-54043900D01*
X116154100Y-59402500D02*
X113745200Y-56993600D01*
X116154100Y-61436400D02*
X116154100Y-59402500D01*
X117100000Y-62382300D02*
X116154100Y-61436400D01*
X117100000Y-68500000D02*
X117100000Y-62382300D01*
%TO.N,P18*%
X98350000Y-128500000D02*
X97100000Y-128500000D01*
X93711700Y-107077400D02*
X97100000Y-103689100D01*
X93711700Y-115773700D02*
X93711700Y-107077400D01*
X96154100Y-118216100D02*
X93711700Y-115773700D01*
X96154100Y-121436400D02*
X96154100Y-118216100D01*
X97100000Y-122382300D02*
X96154100Y-121436400D01*
X97100000Y-128500000D02*
X97100000Y-122382300D01*
X100982400Y-66382300D02*
X101471300Y-66382300D01*
X99100100Y-64500000D02*
X100982400Y-66382300D01*
X98350000Y-64500000D02*
X99100100Y-64500000D01*
X98350000Y-64500000D02*
X97599900Y-64500000D01*
X97100000Y-64500000D02*
X97100000Y-65689100D01*
X97100000Y-102500000D02*
X97100000Y-103094500D01*
X97100000Y-103094500D02*
X97100000Y-103689100D01*
X97599900Y-102594600D02*
X97599900Y-102500000D01*
X97100000Y-103094500D02*
X97599900Y-102594600D01*
X98350000Y-102500000D02*
X97599900Y-102500000D01*
X97100000Y-76450200D02*
X97100000Y-83500000D01*
X96154100Y-75504300D02*
X97100000Y-76450200D01*
X96154100Y-73644100D02*
X96154100Y-75504300D01*
X93735500Y-71225500D02*
X96154100Y-73644100D01*
X93735500Y-69053600D02*
X93735500Y-71225500D01*
X97100000Y-65689100D02*
X93735500Y-69053600D01*
X97599900Y-97349700D02*
X97599900Y-102500000D01*
X96000200Y-95750000D02*
X97599900Y-97349700D01*
X96000200Y-92613800D02*
X96000200Y-95750000D01*
X93692000Y-90305600D02*
X96000200Y-92613800D01*
X93692000Y-88097100D02*
X93692000Y-90305600D01*
X97100000Y-84689100D02*
X93692000Y-88097100D01*
X97100000Y-83500000D02*
X97100000Y-84094500D01*
X97100000Y-84094500D02*
X97100000Y-84689100D01*
X97599900Y-83594600D02*
X97599900Y-83500000D01*
X97100000Y-84094500D02*
X97599900Y-83594600D01*
X98350000Y-83500000D02*
X97599900Y-83500000D01*
X97100000Y-64500000D02*
X97599900Y-64500000D01*
X96802700Y-46689100D02*
X97100000Y-46689100D01*
X93330300Y-50161500D02*
X96802700Y-46689100D01*
X93330300Y-52697700D02*
X93330300Y-50161500D01*
X96416500Y-55783900D02*
X93330300Y-52697700D01*
X96416500Y-57566700D02*
X96416500Y-55783900D01*
X97100000Y-58250200D02*
X96416500Y-57566700D01*
X97100000Y-64500000D02*
X97100000Y-58250200D01*
X97100000Y-45500000D02*
X97100000Y-46094500D01*
X97100000Y-46094500D02*
X97100000Y-46689100D01*
X97599900Y-45594600D02*
X97599900Y-45500000D01*
X97100000Y-46094500D02*
X97599900Y-45594600D01*
X98350000Y-45500000D02*
X97599900Y-45500000D01*
%TO.N,P19*%
X78350000Y-87500000D02*
X77100000Y-87500000D01*
X78350000Y-106500000D02*
X78289100Y-106500000D01*
X77100000Y-106500000D02*
X78289100Y-106500000D01*
X77100000Y-49500000D02*
X78350000Y-49500000D01*
X78350000Y-68500000D02*
X77100000Y-68500000D01*
X73708900Y-56957300D02*
X73708900Y-53512100D01*
X76154100Y-59402500D02*
X73708900Y-56957300D01*
X76154100Y-60504300D02*
X76154100Y-59402500D01*
X77100000Y-61450200D02*
X76154100Y-60504300D01*
X77100000Y-68500000D02*
X77100000Y-61450200D01*
X78350000Y-128500000D02*
X77100000Y-128500000D01*
X77100000Y-106500000D02*
X75910900Y-106500000D01*
X73716700Y-108694200D02*
X75910900Y-106500000D01*
X73716700Y-116194300D02*
X73716700Y-108694200D01*
X76154100Y-118631700D02*
X73716700Y-116194300D01*
X76154100Y-121436400D02*
X76154100Y-118631700D01*
X77100000Y-122382300D02*
X76154100Y-121436400D01*
X77100000Y-128500000D02*
X77100000Y-122382300D01*
%TO.N,P20*%
X58350000Y-80500000D02*
X57100000Y-80500000D01*
X58350000Y-118500000D02*
X57100000Y-118500000D01*
X57100000Y-99500000D02*
X57100000Y-100094500D01*
X58350000Y-99500000D02*
X57599900Y-99500000D01*
X57100000Y-93849800D02*
X57100000Y-99500000D01*
X56925000Y-93674800D02*
X57100000Y-93849800D01*
X56925000Y-90010500D02*
X56925000Y-93674800D01*
X53743000Y-86828500D02*
X56925000Y-90010500D01*
X53743000Y-85046100D02*
X53743000Y-86828500D01*
X57100000Y-81689100D02*
X53743000Y-85046100D01*
X57100000Y-80500000D02*
X57100000Y-81689100D01*
X57599900Y-99594600D02*
X57100000Y-100094500D01*
X57599900Y-99500000D02*
X57599900Y-99594600D01*
X57100000Y-112849800D02*
X57100000Y-118500000D01*
X56925000Y-112674800D02*
X57100000Y-112849800D01*
X56925000Y-109010500D02*
X56925000Y-112674800D01*
X53743000Y-105828500D02*
X56925000Y-109010500D01*
X53743000Y-103451500D02*
X53743000Y-105828500D01*
X57100000Y-100094500D02*
X53743000Y-103451500D01*
X57100000Y-74849800D02*
X57100000Y-80500000D01*
X56925000Y-74674800D02*
X57100000Y-74849800D01*
X56925000Y-71010500D02*
X56925000Y-74674800D01*
X53743000Y-67828500D02*
X56925000Y-71010500D01*
X53743000Y-66046100D02*
X53743000Y-67828500D01*
X57100000Y-62689100D02*
X53743000Y-66046100D01*
X57100000Y-61500000D02*
X57100000Y-62094500D01*
X57100000Y-62094500D02*
X57100000Y-62689100D01*
X57599900Y-61594600D02*
X57599900Y-61500000D01*
X57100000Y-62094500D02*
X57599900Y-61594600D01*
X58350000Y-61500000D02*
X57599900Y-61500000D01*
%TO.N,P21*%
X38350000Y-90500000D02*
X37100000Y-90500000D01*
X38350000Y-109500000D02*
X37100000Y-109500000D01*
X38350000Y-128500000D02*
X37100000Y-128500000D01*
X38350000Y-71500000D02*
X37100000Y-71500000D01*
D47*
%TO.N,VCC*%
X42700000Y-115700000D02*
X43800000Y-115700000D01*
X42700000Y-96700000D02*
X43800000Y-96700000D01*
X42700000Y-77700000D02*
X43800000Y-77700000D01*
X42700000Y-58700000D02*
X43800000Y-58700000D01*
X62700000Y-105700000D02*
X63800000Y-105700000D01*
X62700000Y-86700000D02*
X63800000Y-86700000D01*
X62700000Y-67700000D02*
X63800000Y-67700000D01*
X62700000Y-48700000D02*
X63800000Y-48700000D01*
X82700000Y-93700000D02*
X83800000Y-93700000D01*
X82700000Y-74700000D02*
X83800000Y-74700000D01*
X82700000Y-55700000D02*
X83800000Y-55700000D01*
X102700000Y-89700000D02*
X103800000Y-89700000D01*
X102700000Y-70700000D02*
X103800000Y-70700000D01*
X102700000Y-51700000D02*
X103800000Y-51700000D01*
X102700000Y-32700000D02*
X103800000Y-32700000D01*
X122700000Y-93700000D02*
X123800000Y-93700000D01*
X122700000Y-74700000D02*
X123800000Y-74700000D01*
X122700000Y-55700000D02*
X123800000Y-55700000D01*
X122700000Y-36700000D02*
X123800000Y-36700000D01*
X142700000Y-99700000D02*
X143800000Y-99700000D01*
X142700000Y-80700000D02*
X143800000Y-80700000D01*
X142700000Y-61700000D02*
X143800000Y-61700000D01*
X142700000Y-42700000D02*
X143800000Y-42700000D01*
X82700000Y-115700000D02*
X83800000Y-115700000D01*
X102700000Y-115700000D02*
X103800000Y-115700000D01*
X144848000Y-122369000D02*
X145365000Y-122557500D01*
X145365000Y-122557500D02*
X145882000Y-122746000D01*
D46*
X145036600Y-122557500D02*
X144848300Y-122369200D01*
X145365000Y-122557500D02*
X145036600Y-122557500D01*
X162700000Y-77000000D02*
X162700000Y-74700000D01*
D47*
X123064000Y-116952000D02*
X123612000Y-117000000D01*
X123612000Y-117000000D02*
X124160000Y-117048000D01*
D46*
X123112800Y-117000000D02*
X123064500Y-116951700D01*
X123612000Y-117000000D02*
X123112800Y-117000000D01*
X44215200Y-97115200D02*
X43800000Y-96700000D01*
X45512800Y-97115200D02*
X44215200Y-97115200D01*
X47056200Y-98658600D02*
X45512800Y-97115200D01*
X47056200Y-114614900D02*
X47056200Y-98658600D01*
X45536900Y-116134200D02*
X47056200Y-114614900D01*
X44234200Y-116134200D02*
X45536900Y-116134200D01*
X43800000Y-115700000D02*
X44234200Y-116134200D01*
X47050200Y-80950200D02*
X43800000Y-77700000D01*
X47050200Y-95577800D02*
X47050200Y-80950200D01*
X45512800Y-97115200D02*
X47050200Y-95577800D01*
X71300000Y-89800000D02*
X71600000Y-89500000D01*
X70875000Y-89800000D02*
X71300000Y-89800000D01*
X71600000Y-89500000D02*
X71600000Y-88199900D01*
X111175000Y-91500000D02*
X110875000Y-91800000D01*
X111600000Y-91500000D02*
X111175000Y-91500000D01*
X110875000Y-91800000D02*
X110875000Y-93400100D01*
X68491600Y-83949800D02*
X70124800Y-83949800D01*
X67174200Y-85267200D02*
X68491600Y-83949800D01*
X67174200Y-85455500D02*
X67174200Y-85267200D01*
X65479100Y-87150600D02*
X67174200Y-85455500D01*
X64250600Y-87150600D02*
X65479100Y-87150600D01*
X63800000Y-86700000D02*
X64250600Y-87150600D01*
X70124800Y-86724700D02*
X70124800Y-83949800D01*
X71600000Y-88199900D02*
X70124800Y-86724700D01*
X104228100Y-90128100D02*
X103800000Y-89700000D01*
X107068600Y-90128100D02*
X104228100Y-90128100D01*
X107515200Y-55415200D02*
X103800000Y-51700000D01*
X109784900Y-55415200D02*
X107515200Y-55415200D01*
X143800000Y-42700000D02*
X147750000Y-46650000D01*
X147750000Y-46650000D02*
X154380000Y-46650000D01*
X154175000Y-113500000D02*
X153875000Y-113800000D01*
X154600000Y-113500000D02*
X154175000Y-113500000D01*
D47*
X82700000Y-36700000D02*
X83525000Y-36700000D01*
X83525000Y-36700000D02*
X83800000Y-36700000D01*
D46*
X104207200Y-71107200D02*
X103800000Y-70700000D01*
X107068600Y-71107200D02*
X104207200Y-71107200D01*
X107068600Y-90128100D02*
X107068600Y-71107200D01*
X83800000Y-74700000D02*
X83800000Y-80426400D01*
X70124800Y-81290600D02*
X70124800Y-83949800D01*
X70735300Y-80680100D02*
X70124800Y-81290600D01*
X76798300Y-80680100D02*
X70735300Y-80680100D01*
X78193000Y-82074800D02*
X76798300Y-80680100D01*
X82151600Y-82074800D02*
X78193000Y-82074800D01*
X83800000Y-80426400D02*
X82151600Y-82074800D01*
X84240100Y-94140100D02*
X83800000Y-93700000D01*
X85491100Y-94140100D02*
X84240100Y-94140100D01*
X86985100Y-92646100D02*
X85491100Y-94140100D01*
X86985100Y-85250200D02*
X86985100Y-92646100D01*
X87108700Y-85126600D02*
X86985100Y-85250200D01*
X87108700Y-81943400D02*
X87108700Y-85126600D01*
X85733300Y-80568000D02*
X87108700Y-81943400D01*
X83941600Y-80568000D02*
X85733300Y-80568000D01*
X83800000Y-80426400D02*
X83941600Y-80568000D01*
X154192300Y-72092300D02*
X154192300Y-78608300D01*
X144888900Y-62788800D02*
X154192300Y-72092300D01*
X143800000Y-61700000D02*
X144888900Y-62788800D01*
X147750000Y-51250500D02*
X147750000Y-46650000D01*
X146567300Y-52433200D02*
X147750000Y-51250500D01*
X146567300Y-61110400D02*
X146567300Y-52433200D01*
X144888900Y-62788800D02*
X146567300Y-61110400D01*
X153875000Y-83800000D02*
X153875000Y-85400100D01*
X153051600Y-115400100D02*
X153000000Y-115451700D01*
X153875000Y-115400100D02*
X153051600Y-115400100D01*
X153875000Y-113800000D02*
X153875000Y-115400100D01*
X153879600Y-115404700D02*
X153875000Y-115400100D01*
X154194300Y-115404700D02*
X153879600Y-115404700D01*
X156538000Y-117748400D02*
X154194300Y-115404700D01*
X156538000Y-118354800D02*
X156538000Y-117748400D01*
X157010600Y-118827400D02*
X156538000Y-118354800D01*
X157010600Y-120114500D02*
X157010600Y-118827400D01*
X158868500Y-121972400D02*
X157010600Y-120114500D01*
X158868500Y-124915100D02*
X158868500Y-121972400D01*
X167216500Y-133263100D02*
X158868500Y-124915100D01*
X167216500Y-133987000D02*
X167216500Y-133263100D01*
X167440400Y-134210900D02*
X167216500Y-133987000D01*
X167440400Y-135794000D02*
X167440400Y-134210900D01*
X166672200Y-136562200D02*
X167440400Y-135794000D01*
X165670700Y-136562200D02*
X166672200Y-136562200D01*
X164513400Y-135404900D02*
X165670700Y-136562200D01*
X164513400Y-134971300D02*
X164513400Y-135404900D01*
X164513500Y-134971200D02*
X164513400Y-134971300D01*
D47*
X164513500Y-134971200D02*
X164724000Y-135148000D01*
D46*
X70875000Y-51800000D02*
X70875000Y-50199900D01*
X71175000Y-51500000D02*
X70875000Y-51800000D01*
X71600000Y-51500000D02*
X71175000Y-51500000D01*
X109925200Y-55555500D02*
X109784900Y-55415200D01*
X109925200Y-60459800D02*
X109925200Y-55555500D01*
X107068600Y-63316400D02*
X109925200Y-60459800D01*
X107068600Y-71107200D02*
X107068600Y-63316400D01*
X110875000Y-54325100D02*
X109784900Y-55415200D01*
X110875000Y-53800000D02*
X110875000Y-54325100D01*
X111300000Y-53800000D02*
X111600000Y-53500000D01*
X110875000Y-53800000D02*
X111300000Y-53800000D01*
D47*
X163882000Y-134441000D02*
X164513500Y-134971200D01*
D46*
X163881700Y-134441000D02*
X163882000Y-134441000D01*
X70875000Y-48742400D02*
X68616100Y-46483500D01*
X70875000Y-50199900D02*
X70875000Y-48742400D01*
X64245100Y-49145100D02*
X63800000Y-48700000D01*
X65493200Y-49145100D02*
X64245100Y-49145100D01*
X68154800Y-46483500D02*
X65493200Y-49145100D01*
X68616100Y-46483500D02*
X68154800Y-46483500D01*
X103800000Y-37559400D02*
X103800000Y-32700000D01*
X101256000Y-40103400D02*
X103800000Y-37559400D01*
X98770600Y-40103400D02*
X101256000Y-40103400D01*
X96154000Y-37486800D02*
X98770600Y-40103400D01*
X96154000Y-36463400D02*
X96154000Y-37486800D01*
X95150100Y-35459500D02*
X96154000Y-36463400D01*
X93649000Y-35459500D02*
X95150100Y-35459500D01*
X91986400Y-37122100D02*
X93649000Y-35459500D01*
X83836100Y-37122100D02*
X91986400Y-37122100D01*
X83836100Y-37011100D02*
X83836100Y-37122100D01*
X83525000Y-36700000D02*
X83836100Y-37011100D01*
X68616100Y-44810800D02*
X68616100Y-46483500D01*
X70746800Y-42680100D02*
X68616100Y-44810800D01*
X76798300Y-42680100D02*
X70746800Y-42680100D01*
X78198300Y-44080100D02*
X76798300Y-42680100D01*
X81284900Y-44080100D02*
X78198300Y-44080100D01*
X83836100Y-41528900D02*
X81284900Y-44080100D01*
X83836100Y-37122100D02*
X83836100Y-41528900D01*
X107068600Y-92240400D02*
X107068600Y-90128100D01*
X107942700Y-93114500D02*
X107068600Y-92240400D01*
X108187400Y-93114500D02*
X107942700Y-93114500D01*
X108473000Y-93400100D02*
X108187400Y-93114500D01*
X110875000Y-93400100D02*
X108473000Y-93400100D01*
X154600000Y-79016000D02*
X154600000Y-83500000D01*
X154192300Y-78608300D02*
X154600000Y-79016000D01*
X154175000Y-83500000D02*
X153875000Y-83800000D01*
X154600000Y-83500000D02*
X154175000Y-83500000D01*
X144200200Y-100100200D02*
X143800000Y-99700000D01*
X145573800Y-100100200D02*
X144200200Y-100100200D01*
X148500100Y-97173900D02*
X145573800Y-100100200D01*
X148500100Y-85400100D02*
X148500100Y-97173900D01*
X143800000Y-80700000D02*
X148500100Y-85400100D01*
X148500100Y-85400100D02*
X153875000Y-85400100D01*
%TO.N,RST*%
X171250000Y-98625000D02*
X171250000Y-95688900D01*
X171250000Y-95688900D02*
X171250000Y-93375000D01*
X171249900Y-92299900D02*
X171250000Y-92299900D01*
X171249900Y-85738500D02*
X171249900Y-92299900D01*
X165983300Y-80471900D02*
X171249900Y-85738500D01*
X165983300Y-78406800D02*
X165983300Y-80471900D01*
X166733400Y-77656700D02*
X165983300Y-78406800D01*
X166733400Y-74099100D02*
X166733400Y-77656700D01*
X165600000Y-72965700D02*
X166733400Y-74099100D01*
X165600000Y-55330000D02*
X165600000Y-72965700D01*
X154380000Y-44110000D02*
X165600000Y-55330000D01*
X171250000Y-93375000D02*
X171250000Y-92299900D01*
D47*
%TO.N,GND*%
X96200000Y-114900000D02*
X96200000Y-115700000D01*
X96600000Y-114300000D02*
X96200000Y-114900000D01*
X97300000Y-114300000D02*
X96600000Y-114300000D01*
X136200000Y-60900000D02*
X136200000Y-61700000D01*
X136600000Y-60300000D02*
X136200000Y-60900000D01*
X137300000Y-60300000D02*
X136600000Y-60300000D01*
X136200000Y-79900000D02*
X136200000Y-80700000D01*
X136600000Y-79300000D02*
X136200000Y-79900000D01*
X137300000Y-79300000D02*
X136600000Y-79300000D01*
X136200000Y-98900000D02*
X136200000Y-99700000D01*
X136600000Y-98300000D02*
X136200000Y-98900000D01*
X137300000Y-98300000D02*
X136600000Y-98300000D01*
X116200000Y-54900000D02*
X116200000Y-55700000D01*
X116600000Y-54300000D02*
X116200000Y-54900000D01*
X117300000Y-54300000D02*
X116600000Y-54300000D01*
X116200000Y-73900000D02*
X116200000Y-74700000D01*
X116600000Y-73300000D02*
X116200000Y-73900000D01*
X117300000Y-73300000D02*
X116600000Y-73300000D01*
X96200000Y-69900000D02*
X96200000Y-70700000D01*
X96600000Y-69300000D02*
X96200000Y-69900000D01*
X97300000Y-69300000D02*
X96600000Y-69300000D01*
X116200000Y-92900000D02*
X116200000Y-93700000D01*
X116600000Y-92300000D02*
X116200000Y-92900000D01*
X117300000Y-92300000D02*
X116600000Y-92300000D01*
D46*
X170800000Y-73500100D02*
X170800000Y-78199900D01*
X170800000Y-72400000D02*
X170800000Y-73500100D01*
X170800000Y-79300000D02*
X170800000Y-78199900D01*
D47*
X137300000Y-41300000D02*
X136600000Y-41300000D01*
X136200000Y-41900000D02*
X136200000Y-42700000D01*
X136600000Y-41300000D02*
X136200000Y-41900000D01*
D46*
X160619600Y-129872100D02*
X160615300Y-129872100D01*
X160644900Y-129897400D02*
X160619600Y-129872100D01*
D47*
X160645000Y-129897000D02*
X160615300Y-129872100D01*
D46*
X117807000Y-115086200D02*
X117807000Y-115086000D01*
X117807100Y-115086300D02*
X117807000Y-115086200D01*
D47*
X117300000Y-35300000D02*
X116955500Y-35300000D01*
X36200000Y-76900000D02*
X36200000Y-77700000D01*
X36600000Y-76300000D02*
X36200000Y-76900000D01*
X37300000Y-76300000D02*
X36600000Y-76300000D01*
X76200000Y-54900000D02*
X76200000Y-55700000D01*
X76600000Y-54300000D02*
X76200000Y-54900000D01*
X77300000Y-54300000D02*
X76600000Y-54300000D01*
X36200000Y-57900000D02*
X36200000Y-58700000D01*
X36600000Y-57300000D02*
X36200000Y-57900000D01*
X37300000Y-57300000D02*
X36600000Y-57300000D01*
X76200000Y-114900000D02*
X76200000Y-115700000D01*
X76600000Y-114300000D02*
X76200000Y-114900000D01*
X77300000Y-114300000D02*
X76600000Y-114300000D01*
X77300000Y-92300000D02*
X76600000Y-92300000D01*
X76200000Y-92900000D02*
X76200000Y-93700000D01*
X76600000Y-92300000D02*
X76200000Y-92900000D01*
X96200000Y-88900000D02*
X96200000Y-89700000D01*
X96600000Y-88300000D02*
X96200000Y-88900000D01*
X97300000Y-88300000D02*
X96600000Y-88300000D01*
D46*
X135798700Y-40498700D02*
X136600000Y-41300000D01*
X131421900Y-40498700D02*
X135798700Y-40498700D01*
X124771400Y-33848200D02*
X131421900Y-40498700D01*
X117863400Y-33848200D02*
X124771400Y-33848200D01*
X116955500Y-34756100D02*
X117863400Y-33848200D01*
X116955500Y-35300000D02*
X116955500Y-34756100D01*
X37300000Y-75362800D02*
X37300000Y-76300000D01*
X38237000Y-74425800D02*
X37300000Y-75362800D01*
X47191300Y-74425800D02*
X38237000Y-74425800D01*
X49863700Y-71753400D02*
X47191300Y-74425800D01*
D47*
X116659000Y-115588000D02*
X116589000Y-116385000D01*
X117110000Y-115025000D02*
X116659000Y-115588000D01*
X117807000Y-115086000D02*
X117110000Y-115025000D01*
D46*
X97300000Y-113390800D02*
X97300000Y-114300000D01*
X108400000Y-102290800D02*
X97300000Y-113390800D01*
X108400000Y-96500000D02*
X108400000Y-102290800D01*
X160109000Y-127784100D02*
X160109000Y-129448000D01*
X152125000Y-119800100D02*
X160109000Y-127784100D01*
D47*
X160615300Y-129872100D02*
X160109000Y-129448000D01*
X159417000Y-129650000D02*
X158902000Y-130263000D01*
X160109000Y-129448000D02*
X159417000Y-129650000D01*
D46*
X152125000Y-118200000D02*
X152125000Y-119800100D01*
X152654300Y-39844300D02*
X154380000Y-41570000D01*
X137822200Y-39844300D02*
X152654300Y-39844300D01*
X137300000Y-40366500D02*
X137822200Y-39844300D01*
X137300000Y-40499900D02*
X137300000Y-40366500D01*
X137300000Y-41300000D02*
X137300000Y-40499900D01*
X68400000Y-56500000D02*
X68400000Y-55849900D01*
X68400000Y-56500000D02*
X68400000Y-57800100D01*
D47*
X56200000Y-66900000D02*
X56200000Y-67700000D01*
X56600000Y-66300000D02*
X56200000Y-66900000D01*
X57300000Y-66300000D02*
X56600000Y-66300000D01*
X57300000Y-104300000D02*
X56950000Y-104300000D01*
X56200000Y-104900000D02*
X56200000Y-105700000D01*
X56600000Y-104300000D02*
X56200000Y-104900000D01*
X56950000Y-104300000D02*
X56600000Y-104300000D01*
D46*
X62328700Y-101871400D02*
X68400000Y-95800100D01*
X58853700Y-101871400D02*
X62328700Y-101871400D01*
X56950000Y-103775100D02*
X58853700Y-101871400D01*
X56950000Y-104300000D02*
X56950000Y-103775100D01*
X68400000Y-94500000D02*
X68400000Y-95150000D01*
X68400000Y-95150000D02*
X68400000Y-95800100D01*
X69125000Y-94425000D02*
X69125000Y-94200000D01*
X68400000Y-95150000D02*
X69125000Y-94425000D01*
X71678400Y-92599900D02*
X69125000Y-92599900D01*
X72687600Y-91590700D02*
X71678400Y-92599900D01*
X75890700Y-91590700D02*
X72687600Y-91590700D01*
X76600000Y-92300000D02*
X75890700Y-91590700D01*
X69125000Y-94200000D02*
X69125000Y-92599900D01*
X68274100Y-92599900D02*
X68240800Y-92566600D01*
X69125000Y-92599900D02*
X68274100Y-92599900D01*
X169620000Y-44110000D02*
X169620000Y-46650000D01*
X170800000Y-47830000D02*
X170800000Y-71299900D01*
X169620000Y-46650000D02*
X170800000Y-47830000D01*
X170800000Y-72400000D02*
X170800000Y-71299900D01*
X151400000Y-118500000D02*
X151400000Y-117849900D01*
X151774900Y-117849900D02*
X152125000Y-118200000D01*
X151400000Y-117849900D02*
X151774900Y-117849900D01*
X170800000Y-79300000D02*
X170800000Y-80400100D01*
X172950000Y-98625000D02*
X172950000Y-93375000D01*
X172950000Y-82550100D02*
X170800000Y-80400100D01*
X172950000Y-93375000D02*
X172950000Y-82550100D01*
D47*
X36200000Y-95900000D02*
X36200000Y-96700000D01*
X36600000Y-95300000D02*
X36200000Y-95900000D01*
X37300000Y-95300000D02*
X36600000Y-95300000D01*
X36200000Y-114900000D02*
X36200000Y-115700000D01*
X36600000Y-114300000D02*
X36200000Y-114900000D01*
X37300000Y-114300000D02*
X36600000Y-114300000D01*
D46*
X68774900Y-55849900D02*
X69125000Y-56200000D01*
X68400000Y-55849900D02*
X68774900Y-55849900D01*
D47*
X116200000Y-35900000D02*
X116200000Y-36700000D01*
X116600000Y-35300000D02*
X116200000Y-35900000D01*
X116611000Y-35300000D02*
X116600000Y-35300000D01*
X116955500Y-35300000D02*
X116611000Y-35300000D01*
D46*
X97300000Y-30379200D02*
X97300000Y-31300000D01*
X97829400Y-29849800D02*
X97300000Y-30379200D01*
X111160800Y-29849800D02*
X97829400Y-29849800D01*
X116611000Y-35300000D02*
X111160800Y-29849800D01*
X150075800Y-91124300D02*
X150075800Y-112800100D01*
X151400000Y-89800100D02*
X150075800Y-91124300D01*
X151400000Y-88500000D02*
X151400000Y-89150000D01*
X151400000Y-89150000D02*
X151400000Y-89800100D01*
X140252700Y-119206800D02*
X140650900Y-118112800D01*
X141071300Y-118112800D02*
X140650900Y-118112800D01*
X141180700Y-118003400D02*
X141071300Y-118112800D01*
X148598100Y-118003400D02*
X141180700Y-118003400D01*
X150075800Y-116525700D02*
X148598100Y-118003400D01*
X150075800Y-112800100D02*
X150075800Y-116525700D01*
X150075800Y-116525700D02*
X151400000Y-117849900D01*
X152125000Y-88425000D02*
X152125000Y-88200000D01*
X151400000Y-89150000D02*
X152125000Y-88425000D01*
X68400000Y-54130200D02*
X68400000Y-55849900D01*
X67284100Y-53014300D02*
X68400000Y-54130200D01*
X69111800Y-58511900D02*
X69111800Y-63353700D01*
X68400000Y-57800100D02*
X69111800Y-58511900D01*
D47*
X77300000Y-35300000D02*
X76950000Y-35300000D01*
X76200000Y-35900000D02*
X76200000Y-36700000D01*
X76600000Y-35300000D02*
X76200000Y-35900000D01*
X76950000Y-35300000D02*
X76600000Y-35300000D01*
D46*
X95845700Y-30545700D02*
X96600000Y-31300000D01*
X81160400Y-30545700D02*
X95845700Y-30545700D01*
X76950000Y-34756100D02*
X81160400Y-30545700D01*
X76950000Y-35300000D02*
X76950000Y-34756100D01*
D47*
X97300000Y-31300000D02*
X96600000Y-31300000D01*
X96200000Y-31900000D02*
X96200000Y-32700000D01*
X96600000Y-31300000D02*
X96200000Y-31900000D01*
D46*
X109125000Y-96200000D02*
X108700000Y-96200000D01*
X108700000Y-96200000D02*
X108400000Y-96500000D01*
X108700000Y-95831100D02*
X107799000Y-94930100D01*
X108700000Y-96200000D02*
X108700000Y-95831100D01*
X97300000Y-68383800D02*
X97300000Y-69300000D01*
X98477800Y-67206000D02*
X97300000Y-68383800D01*
X102318600Y-67206000D02*
X98477800Y-67206000D01*
X108400000Y-61124600D02*
X102318600Y-67206000D01*
X108400000Y-58500000D02*
X108400000Y-61124600D01*
X152357900Y-86367000D02*
X152125000Y-86599900D01*
X159239800Y-86367000D02*
X152357900Y-86367000D01*
X159601900Y-86729100D02*
X159239800Y-86367000D01*
X161690900Y-86729100D02*
X159601900Y-86729100D01*
X163040000Y-85380000D02*
X161690900Y-86729100D01*
X152125000Y-88200000D02*
X152125000Y-86599900D01*
X140131100Y-119162600D02*
X140131100Y-119162500D01*
X140175300Y-119206800D02*
X140131100Y-119162600D01*
X140252700Y-119206800D02*
X140175300Y-119206800D01*
D47*
X140253000Y-119207000D02*
X140131100Y-119162500D01*
X139014000Y-119394000D02*
X138740000Y-120146000D01*
X139595000Y-118967000D02*
X139014000Y-119394000D01*
X140131100Y-119162500D02*
X139595000Y-118967000D01*
X77300000Y-73300000D02*
X76600000Y-73300000D01*
X76200000Y-73900000D02*
X76200000Y-74700000D01*
X76600000Y-73300000D02*
X76200000Y-73900000D01*
D46*
X69111800Y-63353700D02*
X69111800Y-64798600D01*
X57300000Y-65396700D02*
X57300000Y-66300000D01*
X57898100Y-64798600D02*
X57300000Y-65396700D01*
X69111800Y-64798600D02*
X57898100Y-64798600D01*
D47*
X57300000Y-85300000D02*
X56950000Y-85300000D01*
X56200000Y-85900000D02*
X56200000Y-86700000D01*
X56600000Y-85300000D02*
X56200000Y-85900000D01*
X56950000Y-85300000D02*
X56600000Y-85300000D01*
D46*
X75880700Y-72580700D02*
X76600000Y-73300000D01*
X71841500Y-72580700D02*
X75880700Y-72580700D01*
X71841500Y-73339500D02*
X71841500Y-72580700D01*
X62826700Y-82354300D02*
X71841500Y-73339500D01*
X59363700Y-82354300D02*
X62826700Y-82354300D01*
X56950000Y-84768000D02*
X59363700Y-82354300D01*
X56950000Y-85300000D02*
X56950000Y-84768000D01*
X69111800Y-69851000D02*
X69111800Y-64798600D01*
X71841500Y-72580700D02*
X69111800Y-69851000D01*
X108825000Y-58500000D02*
X108400000Y-58500000D01*
X109125000Y-58200000D02*
X108825000Y-58500000D01*
X95868300Y-49568300D02*
X96600000Y-50300000D01*
X94503600Y-49568300D02*
X95868300Y-49568300D01*
X93746700Y-50325200D02*
X94503600Y-49568300D01*
X93746700Y-51577400D02*
X93746700Y-50325200D01*
X96949800Y-54780500D02*
X93746700Y-51577400D01*
X96949800Y-57304300D02*
X96949800Y-54780500D01*
X98703300Y-59057800D02*
X96949800Y-57304300D01*
X102174400Y-59057800D02*
X98703300Y-59057800D01*
X103547700Y-57684500D02*
X102174400Y-59057800D01*
X107136500Y-57684500D02*
X103547700Y-57684500D01*
X107621100Y-57199900D02*
X107136500Y-57684500D01*
X108400000Y-57199900D02*
X107621100Y-57199900D01*
D47*
X97300000Y-50300000D02*
X96600000Y-50300000D01*
X96200000Y-50900000D02*
X96200000Y-51700000D01*
X96600000Y-50300000D02*
X96200000Y-50900000D01*
D46*
X108400000Y-58500000D02*
X108400000Y-57199900D01*
D47*
X57300000Y-47300000D02*
X56950000Y-47300000D01*
X56200000Y-47900000D02*
X56200000Y-48700000D01*
X56600000Y-47300000D02*
X56200000Y-47900000D01*
X56950000Y-47300000D02*
X56600000Y-47300000D01*
D46*
X37300000Y-56416600D02*
X37300000Y-57300000D01*
X38435600Y-55281000D02*
X37300000Y-56416600D01*
X47569200Y-55281000D02*
X38435600Y-55281000D01*
X50623900Y-52226300D02*
X47569200Y-55281000D01*
X50623900Y-50419700D02*
X50623900Y-52226300D01*
X54455700Y-46587900D02*
X50623900Y-50419700D01*
X56237900Y-46587900D02*
X54455700Y-46587900D01*
X56950000Y-47300000D02*
X56237900Y-46587900D01*
%TO.N,RAW*%
X170665000Y-106750000D02*
X169614900Y-106750000D01*
X169614900Y-106033900D02*
X169488400Y-105907400D01*
X169614900Y-106750000D02*
X169614900Y-106033900D01*
X154380000Y-39030000D02*
X154380000Y-40206400D01*
X169258300Y-105677300D02*
X169488400Y-105907400D01*
X169258300Y-102536300D02*
X169258300Y-105677300D01*
X172050200Y-99744400D02*
X169258300Y-102536300D01*
X172050200Y-85773200D02*
X172050200Y-99744400D01*
X166383400Y-80106400D02*
X172050200Y-85773200D01*
X166383400Y-78855300D02*
X166383400Y-80106400D01*
X167133600Y-78105100D02*
X166383400Y-78855300D01*
X167133600Y-73650800D02*
X167133600Y-78105100D01*
X166321000Y-72838200D02*
X167133600Y-73650800D01*
X166321000Y-51779800D02*
X166321000Y-72838200D01*
X154747600Y-40206400D02*
X166321000Y-51779800D01*
X154380000Y-40206400D02*
X154747600Y-40206400D01*
%TD*%
M02*
