M48
; DRILL file {KiCad 8.0.4} date 2024-08-10T13:54:50-0600
; FORMAT={-:-/ absolute / metric / decimal}
; #@! TF.CreationDate,2024-08-10T13:54:50-06:00
; #@! TF.GenerationSoftware,Kicad,Pcbnew,8.0.4
; #@! TF.FileFunction,NonPlated,1,2,NPTH
FMAT,2
METRIC
; #@! TA.AperFunction,NonPlated,NPTH,ComponentDrill
T1C0.900
; #@! TA.AperFunction,NonPlated,NPTH,ComponentDrill
T2C1.500
; #@! TA.AperFunction,NonPlated,NPTH,ComponentDrill
T3C1.900
; #@! TA.AperFunction,NonPlated,NPTH,ComponentDrill
T4C3.000
; #@! TA.AperFunction,NonPlated,NPTH,ComponentDrill
T5C3.200
; #@! TA.AperFunction,NonPlated,NPTH,ComponentDrill
T6C5.000
%
G90
G05
T1
X172.425Y-104.5
X172.425Y-107.5
T2
X165.4Y-74.7
X165.4Y-77.0
X172.4Y-74.7
X172.4Y-77.0
T3
X34.5Y-63.0
X34.5Y-82.0
X34.5Y-101.0
X34.5Y-120.0
X45.5Y-63.0
X45.5Y-82.0
X45.5Y-101.0
X45.5Y-120.0
X54.5Y-53.0
X54.5Y-72.0
X54.5Y-91.0
X54.5Y-110.0
X65.5Y-53.0
X65.5Y-72.0
X65.5Y-91.0
X65.5Y-110.0
X74.5Y-41.0
X74.5Y-60.0
X74.5Y-79.0
X74.5Y-98.0
X74.5Y-120.0
X85.5Y-41.0
X85.5Y-60.0
X85.5Y-79.0
X85.5Y-98.0
X85.5Y-120.0
X94.5Y-37.0
X94.5Y-56.0
X94.5Y-75.0
X94.5Y-94.0
X94.5Y-120.0
X105.5Y-37.0
X105.5Y-56.0
X105.5Y-75.0
X105.5Y-94.0
X105.5Y-120.0
X114.5Y-41.0
X114.5Y-60.0
X114.5Y-79.0
X114.5Y-98.0
X114.521Y-120.521
X125.479Y-121.479
X125.5Y-41.0
X125.5Y-60.0
X125.5Y-79.0
X125.5Y-98.0
X134.5Y-47.0
X134.5Y-66.0
X134.5Y-85.0
X134.5Y-104.0
X135.672Y-123.605
X145.5Y-47.0
X145.5Y-66.0
X145.5Y-85.0
X145.5Y-104.0
X146.009Y-127.368
X154.836Y-132.464
X163.263Y-139.535
T4
X35.0Y-66.75
X35.0Y-85.75
X35.0Y-104.75
X35.0Y-123.75
X40.0Y-68.95
X40.0Y-87.95
X40.0Y-106.95
X40.0Y-125.95
X45.0Y-66.75
X45.0Y-85.75
X45.0Y-104.75
X45.0Y-123.75
X55.0Y-56.75
X55.0Y-75.75
X55.0Y-94.75
X55.0Y-113.75
X60.0Y-58.95
X60.0Y-77.95
X60.0Y-96.95
X60.0Y-115.95
X65.0Y-56.75
X65.0Y-75.75
X65.0Y-94.75
X65.0Y-113.75
X75.0Y-44.75
X75.0Y-63.75
X75.0Y-82.75
X75.0Y-101.75
X75.0Y-123.75
X80.0Y-46.95
X80.0Y-65.95
X80.0Y-84.95
X80.0Y-103.95
X80.0Y-125.95
X85.0Y-44.75
X85.0Y-63.75
X85.0Y-82.75
X85.0Y-101.75
X85.0Y-123.75
X95.0Y-40.75
X95.0Y-59.75
X95.0Y-78.75
X95.0Y-97.75
X95.0Y-123.75
X100.0Y-42.95
X100.0Y-61.95
X100.0Y-80.95
X100.0Y-99.95
X100.0Y-125.95
X105.0Y-40.75
X105.0Y-59.75
X105.0Y-78.75
X105.0Y-97.75
X105.0Y-123.75
X114.692Y-124.3
X115.0Y-44.75
X115.0Y-63.75
X115.0Y-82.75
X115.0Y-101.75
X119.481Y-126.927
X120.0Y-46.95
X120.0Y-65.95
X120.0Y-84.95
X120.0Y-103.95
X124.654Y-125.172
X125.0Y-44.75
X125.0Y-63.75
X125.0Y-82.75
X125.0Y-101.75
X134.859Y-127.3
X135.0Y-50.75
X135.0Y-69.75
X135.0Y-88.75
X135.0Y-107.75
X138.805Y-131.078
X140.0Y-52.95
X140.0Y-71.95
X140.0Y-90.95
X140.0Y-109.95
X144.256Y-130.72
X145.0Y-50.75
X145.0Y-69.75
X145.0Y-88.75
X145.0Y-107.75
X152.809Y-135.658
X155.225Y-140.557
X160.469Y-142.086
T5
X50.0Y-63.0
X50.0Y-120.0
X90.0Y-50.0
X90.0Y-109.0
X146.482Y-115.834
X150.0Y-56.0
T6
X40.0Y-63.0
X40.0Y-82.0
X40.0Y-101.0
X40.0Y-120.0
X60.0Y-53.0
X60.0Y-72.0
X60.0Y-91.0
X60.0Y-110.0
X80.0Y-41.0
X80.0Y-60.0
X80.0Y-79.0
X80.0Y-98.0
X80.0Y-120.0
X100.0Y-37.0
X100.0Y-56.0
X100.0Y-75.0
X100.0Y-94.0
X100.0Y-120.0
X120.0Y-41.0
X120.0Y-60.0
X120.0Y-79.0
X120.0Y-98.0
X120.0Y-121.0
X140.0Y-47.0
X140.0Y-66.0
X140.0Y-85.0
X140.0Y-104.0
X140.84Y-125.486
X159.049Y-135.999
M30
