%TF.GenerationSoftware,KiCad,Pcbnew,8.0.4*%
%TF.CreationDate,2024-08-10T13:43:54-06:00*%
%TF.ProjectId,top_bottom_plate,746f705f-626f-4747-946f-6d5f706c6174,0.1*%
%TF.SameCoordinates,Original*%
%TF.FileFunction,Drillmap*%
%TF.FilePolarity,Positive*%
%FSLAX45Y45*%
G04 Gerber Fmt 4.5, Leading zero omitted, Abs format (unit mm)*
G04 Created by KiCad (PCBNEW 8.0.4) date 2024-08-10 13:43:54*
%MOMM*%
%LPD*%
G01*
G04 APERTURE LIST*
%ADD10C,0.150000*%
%ADD11C,0.200000*%
G04 APERTURE END LIST*
D10*
X2900000Y-13200000D02*
X10800236Y-13200000D01*
X2800000Y-13100000D02*
X2800000Y-5400000D01*
X2900000Y-5300000D02*
X4900000Y-5300000D01*
X5100000Y-4100000D02*
X6900000Y-4100000D01*
X5000000Y-5200000D02*
X5000000Y-4200000D01*
X7100000Y-2900000D02*
X8900000Y-2900000D01*
X7000000Y-4000000D02*
X7000000Y-3000000D01*
X9100000Y-2500000D02*
X10900000Y-2500000D01*
X11000000Y-2600000D02*
X11000000Y-2800000D01*
X9000000Y-2800000D02*
X9000000Y-2600000D01*
X11100000Y-2900000D02*
X12900000Y-2900000D01*
X13000000Y-3000000D02*
X13000000Y-3400000D01*
X13100000Y-3500000D02*
X15300000Y-3500000D01*
X10808951Y-13200380D02*
X12845705Y-13378573D01*
X12871191Y-13384224D02*
X14461346Y-13962992D01*
X15984237Y-12100000D02*
X17518926Y-13387757D01*
X16117119Y-15213938D02*
X17531251Y-13528640D01*
X14491423Y-13980357D02*
X15976235Y-15226263D01*
X2900000Y-13200000D02*
G75*
G02*
X2800000Y-13100000I0J100000D01*
G01*
X2800000Y-5400000D02*
G75*
G02*
X2900000Y-5300000I100000J0D01*
G01*
X5000000Y-5200000D02*
G75*
G02*
X4900000Y-5300000I-100000J0D01*
G01*
X5000000Y-4200000D02*
G75*
G02*
X5100000Y-4100000I100000J0D01*
G01*
X7000000Y-4000000D02*
G75*
G02*
X6900000Y-4100000I-100000J0D01*
G01*
X7000000Y-3000000D02*
G75*
G02*
X7100000Y-2900000I100000J0D01*
G01*
X9000000Y-2800000D02*
G75*
G02*
X8900000Y-2900000I-100000J0D01*
G01*
X9000000Y-2600000D02*
G75*
G02*
X9100000Y-2500000I100000J0D01*
G01*
X10900000Y-2500000D02*
G75*
G02*
X11000000Y-2600000I0J-100000D01*
G01*
X11100000Y-2900000D02*
G75*
G02*
X11000000Y-2800000I0J100000D01*
G01*
X12900000Y-2900000D02*
G75*
G02*
X13000000Y-3000000I0J-100000D01*
G01*
X13100000Y-3500000D02*
G75*
G02*
X13000000Y-3400000I0J100000D01*
G01*
X17518926Y-13387757D02*
G75*
G02*
X17531251Y-13528639I-64276J-76603D01*
G01*
X16117119Y-15213938D02*
G75*
G02*
X15976232Y-15226268I-76609J64278D01*
G01*
X14461346Y-13962992D02*
G75*
G02*
X14491422Y-13980358I-34206J-93968D01*
G01*
X12845705Y-13378573D02*
G75*
G02*
X12871191Y-13384223I-8715J-99627D01*
G01*
X10800236Y-13200000D02*
G75*
G02*
X10808951Y-13200381I-6J-100040D01*
G01*
X3310000Y-12690000D02*
X4690000Y-12690000D01*
X4690000Y-12690000D02*
X4690000Y-11310000D01*
X4690000Y-11310000D02*
X3310000Y-11310000D01*
X3310000Y-11310000D02*
X3310000Y-12690000D01*
X3310000Y-10790000D02*
X4690000Y-10790000D01*
X4690000Y-10790000D02*
X4690000Y-9410000D01*
X4690000Y-9410000D02*
X3310000Y-9410000D01*
X3310000Y-9410000D02*
X3310000Y-10790000D01*
X3310000Y-8890000D02*
X4690000Y-8890000D01*
X4690000Y-8890000D02*
X4690000Y-7510000D01*
X4690000Y-7510000D02*
X3310000Y-7510000D01*
X3310000Y-7510000D02*
X3310000Y-8890000D01*
X3310000Y-6990000D02*
X4690000Y-6990000D01*
X4690000Y-6990000D02*
X4690000Y-5610000D01*
X4690000Y-5610000D02*
X3310000Y-5610000D01*
X3310000Y-5610000D02*
X3310000Y-6990000D01*
X5310000Y-11690000D02*
X6690000Y-11690000D01*
X6690000Y-11690000D02*
X6690000Y-10310000D01*
X6690000Y-10310000D02*
X5310000Y-10310000D01*
X5310000Y-10310000D02*
X5310000Y-11690000D01*
X5310000Y-9790000D02*
X6690000Y-9790000D01*
X6690000Y-9790000D02*
X6690000Y-8410000D01*
X6690000Y-8410000D02*
X5310000Y-8410000D01*
X5310000Y-8410000D02*
X5310000Y-9790000D01*
X5310000Y-7890000D02*
X6690000Y-7890000D01*
X6690000Y-7890000D02*
X6690000Y-6510000D01*
X6690000Y-6510000D02*
X5310000Y-6510000D01*
X5310000Y-6510000D02*
X5310000Y-7890000D01*
X5310000Y-5990000D02*
X6690000Y-5990000D01*
X6690000Y-5990000D02*
X6690000Y-4610000D01*
X6690000Y-4610000D02*
X5310000Y-4610000D01*
X5310000Y-4610000D02*
X5310000Y-5990000D01*
X7310000Y-10490000D02*
X8690000Y-10490000D01*
X8690000Y-10490000D02*
X8690000Y-9110000D01*
X8690000Y-9110000D02*
X7310000Y-9110000D01*
X7310000Y-9110000D02*
X7310000Y-10490000D01*
X7310000Y-8590000D02*
X8690000Y-8590000D01*
X8690000Y-8590000D02*
X8690000Y-7210000D01*
X8690000Y-7210000D02*
X7310000Y-7210000D01*
X7310000Y-7210000D02*
X7310000Y-8590000D01*
X7310000Y-6690000D02*
X8690000Y-6690000D01*
X8690000Y-6690000D02*
X8690000Y-5310000D01*
X8690000Y-5310000D02*
X7310000Y-5310000D01*
X7310000Y-5310000D02*
X7310000Y-6690000D01*
X7310000Y-4790000D02*
X8690000Y-4790000D01*
X8690000Y-4790000D02*
X8690000Y-3410000D01*
X8690000Y-3410000D02*
X7310000Y-3410000D01*
X7310000Y-3410000D02*
X7310000Y-4790000D01*
X9310000Y-10090000D02*
X10690000Y-10090000D01*
X10690000Y-10090000D02*
X10690000Y-8710000D01*
X10690000Y-8710000D02*
X9310000Y-8710000D01*
X9310000Y-8710000D02*
X9310000Y-10090000D01*
X9310000Y-8190000D02*
X10690000Y-8190000D01*
X10690000Y-8190000D02*
X10690000Y-6810000D01*
X10690000Y-6810000D02*
X9310000Y-6810000D01*
X9310000Y-6810000D02*
X9310000Y-8190000D01*
X9310000Y-6290000D02*
X10690000Y-6290000D01*
X10690000Y-6290000D02*
X10690000Y-4910000D01*
X10690000Y-4910000D02*
X9310000Y-4910000D01*
X9310000Y-4910000D02*
X9310000Y-6290000D01*
X9310000Y-4390000D02*
X10690000Y-4390000D01*
X10690000Y-4390000D02*
X10690000Y-3010000D01*
X10690000Y-3010000D02*
X9310000Y-3010000D01*
X9310000Y-3010000D02*
X9310000Y-4390000D01*
X11310000Y-10490000D02*
X12690000Y-10490000D01*
X12690000Y-10490000D02*
X12690000Y-9110000D01*
X12690000Y-9110000D02*
X11310000Y-9110000D01*
X11310000Y-9110000D02*
X11310000Y-10490000D01*
X11310000Y-8590000D02*
X12690000Y-8590000D01*
X12690000Y-8590000D02*
X12690000Y-7210000D01*
X12690000Y-7210000D02*
X11310000Y-7210000D01*
X11310000Y-7210000D02*
X11310000Y-8590000D01*
X11310000Y-6690000D02*
X12690000Y-6690000D01*
X12690000Y-6690000D02*
X12690000Y-5310000D01*
X12690000Y-5310000D02*
X11310000Y-5310000D01*
X11310000Y-5310000D02*
X11310000Y-6690000D01*
X11310000Y-4790000D02*
X12690000Y-4790000D01*
X12690000Y-4790000D02*
X12690000Y-3410000D01*
X12690000Y-3410000D02*
X11310000Y-3410000D01*
X11310000Y-3410000D02*
X11310000Y-4790000D01*
X13310000Y-11090000D02*
X14690000Y-11090000D01*
X14690000Y-11090000D02*
X14690000Y-9710000D01*
X14690000Y-9710000D02*
X13310000Y-9710000D01*
X13310000Y-9710000D02*
X13310000Y-11090000D01*
X13310000Y-9190000D02*
X14690000Y-9190000D01*
X14690000Y-9190000D02*
X14690000Y-7810000D01*
X14690000Y-7810000D02*
X13310000Y-7810000D01*
X13310000Y-7810000D02*
X13310000Y-9190000D01*
X13310000Y-7290000D02*
X14690000Y-7290000D01*
X14690000Y-7290000D02*
X14690000Y-5910000D01*
X14690000Y-5910000D02*
X13310000Y-5910000D01*
X13310000Y-5910000D02*
X13310000Y-7290000D01*
X13310000Y-5390000D02*
X14690000Y-5390000D01*
X14690000Y-5390000D02*
X14690000Y-4010000D01*
X14690000Y-4010000D02*
X13310000Y-4010000D01*
X13310000Y-4010000D02*
X13310000Y-5390000D01*
X7310000Y-12690000D02*
X8690000Y-12690000D01*
X8690000Y-12690000D02*
X8690000Y-11310000D01*
X8690000Y-11310000D02*
X7310000Y-11310000D01*
X7310000Y-11310000D02*
X7310000Y-12690000D01*
X9310000Y-12690000D02*
X10690000Y-12690000D01*
X10690000Y-12690000D02*
X10690000Y-11310000D01*
X10690000Y-11310000D02*
X9310000Y-11310000D01*
X9310000Y-11310000D02*
X9310000Y-12690000D01*
X11252488Y-12727237D02*
X12627237Y-12847512D01*
X12627237Y-12847512D02*
X12747512Y-11472763D01*
X12747512Y-11472763D02*
X11372763Y-11352488D01*
X11372763Y-11352488D02*
X11252488Y-12727237D01*
X13199657Y-12961045D02*
X14496433Y-13433033D01*
X14496433Y-13433033D02*
X14968421Y-12136257D01*
X14968421Y-12136257D02*
X13671645Y-11664269D01*
X13671645Y-11664269D02*
X13199657Y-12961045D01*
X14932838Y-13684991D02*
X15989979Y-14572038D01*
X15989979Y-14572038D02*
X16877026Y-13514896D01*
X16877026Y-13514896D02*
X15819884Y-12627849D01*
X15819884Y-12627849D02*
X14932838Y-13684991D01*
X5160000Y-12000000D02*
G75*
G02*
X4840000Y-12000000I-160000J0D01*
G01*
X4840000Y-12000000D02*
G75*
G02*
X5160000Y-12000000I160000J0D01*
G01*
X5160000Y-6300000D02*
G75*
G02*
X4840000Y-6300000I-160000J0D01*
G01*
X4840000Y-6300000D02*
G75*
G02*
X5160000Y-6300000I160000J0D01*
G01*
X9160000Y-10900000D02*
G75*
G02*
X8840000Y-10900000I-160000J0D01*
G01*
X8840000Y-10900000D02*
G75*
G02*
X9160000Y-10900000I160000J0D01*
G01*
X9160000Y-5000000D02*
G75*
G02*
X8840000Y-5000000I-160000J0D01*
G01*
X8840000Y-5000000D02*
G75*
G02*
X9160000Y-5000000I160000J0D01*
G01*
X14808200Y-11583393D02*
G75*
G02*
X14488200Y-11583393I-160000J0D01*
G01*
X14488200Y-11583393D02*
G75*
G02*
X14808200Y-11583393I160000J0D01*
G01*
X15160000Y-5600000D02*
G75*
G02*
X14840000Y-5600000I-160000J0D01*
G01*
X14840000Y-5600000D02*
G75*
G02*
X15160000Y-5600000I160000J0D01*
G01*
X15300000Y-12100000D02*
X15984237Y-12100000D01*
X15300000Y-3500000D02*
X15300000Y-12100000D01*
X17900000Y-13200000D02*
X25800235Y-13200000D01*
X17800000Y-13100000D02*
X17800000Y-5400000D01*
X17900000Y-5300000D02*
X19900000Y-5300000D01*
X20100000Y-4100000D02*
X21900000Y-4100000D01*
X20000000Y-5200000D02*
X20000000Y-4200000D01*
X22100000Y-2900000D02*
X23900000Y-2900000D01*
X22000000Y-4000000D02*
X22000000Y-3000000D01*
X24100000Y-2500000D02*
X25900000Y-2500000D01*
X26000000Y-2600000D02*
X26000000Y-2800000D01*
X24000000Y-2800000D02*
X24000000Y-2600000D01*
X26100000Y-2900000D02*
X27900000Y-2900000D01*
X28000000Y-3000000D02*
X28000000Y-3400000D01*
X30800000Y-11400000D02*
X30800000Y-11898776D01*
X32400000Y-11200000D02*
X32400000Y-3600000D01*
X32300000Y-11300000D02*
X30900000Y-11300000D01*
X28100000Y-3500000D02*
X32300000Y-3500000D01*
X25808951Y-13200380D02*
X27845705Y-13378573D01*
X27871191Y-13384224D02*
X29461346Y-13962992D01*
X30835721Y-11975380D02*
X32518926Y-13387757D01*
X31117119Y-15213938D02*
X32531251Y-13528640D01*
X29491423Y-13980357D02*
X30976235Y-15226263D01*
X17900000Y-13200000D02*
G75*
G02*
X17800000Y-13100000I0J100000D01*
G01*
X17800000Y-5400000D02*
G75*
G02*
X17900000Y-5300000I100000J0D01*
G01*
X20000000Y-5200000D02*
G75*
G02*
X19900000Y-5300000I-100000J0D01*
G01*
X20000000Y-4200000D02*
G75*
G02*
X20100000Y-4100000I100000J0D01*
G01*
X22000000Y-4000000D02*
G75*
G02*
X21900000Y-4100000I-100000J0D01*
G01*
X22000000Y-3000000D02*
G75*
G02*
X22100000Y-2900000I100000J0D01*
G01*
X24000000Y-2800000D02*
G75*
G02*
X23900000Y-2900000I-100000J0D01*
G01*
X24000000Y-2600000D02*
G75*
G02*
X24100000Y-2500000I100000J0D01*
G01*
X25900000Y-2500000D02*
G75*
G02*
X26000000Y-2600000I0J-100000D01*
G01*
X26100000Y-2900000D02*
G75*
G02*
X26000000Y-2800000I0J100000D01*
G01*
X27900000Y-2900000D02*
G75*
G02*
X28000000Y-3000000I0J-100000D01*
G01*
X28100000Y-3500000D02*
G75*
G02*
X28000000Y-3400000I0J100000D01*
G01*
X32300000Y-3500000D02*
G75*
G02*
X32400000Y-3600000I0J-100000D01*
G01*
X32400000Y-11200000D02*
G75*
G02*
X32300000Y-11300000I-100000J0D01*
G01*
X30800000Y-11400000D02*
G75*
G02*
X30900000Y-11300000I100000J0D01*
G01*
X30835721Y-11975380D02*
G75*
G02*
X30800003Y-11898776I64279J76600D01*
G01*
X32518926Y-13387757D02*
G75*
G02*
X32531251Y-13528639I-64276J-76603D01*
G01*
X31117119Y-15213938D02*
G75*
G02*
X30976232Y-15226268I-76609J64278D01*
G01*
X29461346Y-13962992D02*
G75*
G02*
X29491422Y-13980358I-34206J-93968D01*
G01*
X27845705Y-13378573D02*
G75*
G02*
X27871191Y-13384223I-8715J-99627D01*
G01*
X25800235Y-13200000D02*
G75*
G02*
X25808951Y-13200381I-6J-100040D01*
G01*
X20160000Y-12000000D02*
G75*
G02*
X19840000Y-12000000I-160000J0D01*
G01*
X19840000Y-12000000D02*
G75*
G02*
X20160000Y-12000000I160000J0D01*
G01*
X20160000Y-6300000D02*
G75*
G02*
X19840000Y-6300000I-160000J0D01*
G01*
X19840000Y-6300000D02*
G75*
G02*
X20160000Y-6300000I160000J0D01*
G01*
X24160000Y-10900000D02*
G75*
G02*
X23840000Y-10900000I-160000J0D01*
G01*
X23840000Y-10900000D02*
G75*
G02*
X24160000Y-10900000I160000J0D01*
G01*
X24160000Y-5000000D02*
G75*
G02*
X23840000Y-5000000I-160000J0D01*
G01*
X23840000Y-5000000D02*
G75*
G02*
X24160000Y-5000000I160000J0D01*
G01*
X29808200Y-11583393D02*
G75*
G02*
X29488200Y-11583393I-160000J0D01*
G01*
X29488200Y-11583393D02*
G75*
G02*
X29808200Y-11583393I160000J0D01*
G01*
X30160000Y-5600000D02*
G75*
G02*
X29840000Y-5600000I-160000J0D01*
G01*
X29840000Y-5600000D02*
G75*
G02*
X30160000Y-5600000I160000J0D01*
G01*
D11*
X3053277Y-15568646D02*
X3053277Y-15368646D01*
X3053277Y-15368646D02*
X3100896Y-15368646D01*
X3100896Y-15368646D02*
X3129467Y-15378170D01*
X3129467Y-15378170D02*
X3148515Y-15397218D01*
X3148515Y-15397218D02*
X3158039Y-15416265D01*
X3158039Y-15416265D02*
X3167562Y-15454360D01*
X3167562Y-15454360D02*
X3167562Y-15482932D01*
X3167562Y-15482932D02*
X3158039Y-15521027D01*
X3158039Y-15521027D02*
X3148515Y-15540075D01*
X3148515Y-15540075D02*
X3129467Y-15559122D01*
X3129467Y-15559122D02*
X3100896Y-15568646D01*
X3100896Y-15568646D02*
X3053277Y-15568646D01*
X3253277Y-15568646D02*
X3253277Y-15435313D01*
X3253277Y-15473408D02*
X3262801Y-15454360D01*
X3262801Y-15454360D02*
X3272324Y-15444837D01*
X3272324Y-15444837D02*
X3291372Y-15435313D01*
X3291372Y-15435313D02*
X3310420Y-15435313D01*
X3377086Y-15568646D02*
X3377086Y-15435313D01*
X3377086Y-15368646D02*
X3367562Y-15378170D01*
X3367562Y-15378170D02*
X3377086Y-15387694D01*
X3377086Y-15387694D02*
X3386610Y-15378170D01*
X3386610Y-15378170D02*
X3377086Y-15368646D01*
X3377086Y-15368646D02*
X3377086Y-15387694D01*
X3500896Y-15568646D02*
X3481848Y-15559122D01*
X3481848Y-15559122D02*
X3472324Y-15540075D01*
X3472324Y-15540075D02*
X3472324Y-15368646D01*
X3605658Y-15568646D02*
X3586610Y-15559122D01*
X3586610Y-15559122D02*
X3577086Y-15540075D01*
X3577086Y-15540075D02*
X3577086Y-15368646D01*
X3834229Y-15568646D02*
X3834229Y-15368646D01*
X3834229Y-15368646D02*
X3900896Y-15511503D01*
X3900896Y-15511503D02*
X3967562Y-15368646D01*
X3967562Y-15368646D02*
X3967562Y-15568646D01*
X4148515Y-15568646D02*
X4148515Y-15463884D01*
X4148515Y-15463884D02*
X4138991Y-15444837D01*
X4138991Y-15444837D02*
X4119943Y-15435313D01*
X4119943Y-15435313D02*
X4081848Y-15435313D01*
X4081848Y-15435313D02*
X4062801Y-15444837D01*
X4148515Y-15559122D02*
X4129467Y-15568646D01*
X4129467Y-15568646D02*
X4081848Y-15568646D01*
X4081848Y-15568646D02*
X4062801Y-15559122D01*
X4062801Y-15559122D02*
X4053277Y-15540075D01*
X4053277Y-15540075D02*
X4053277Y-15521027D01*
X4053277Y-15521027D02*
X4062801Y-15501979D01*
X4062801Y-15501979D02*
X4081848Y-15492456D01*
X4081848Y-15492456D02*
X4129467Y-15492456D01*
X4129467Y-15492456D02*
X4148515Y-15482932D01*
X4243753Y-15435313D02*
X4243753Y-15635313D01*
X4243753Y-15444837D02*
X4262801Y-15435313D01*
X4262801Y-15435313D02*
X4300896Y-15435313D01*
X4300896Y-15435313D02*
X4319944Y-15444837D01*
X4319944Y-15444837D02*
X4329467Y-15454360D01*
X4329467Y-15454360D02*
X4338991Y-15473408D01*
X4338991Y-15473408D02*
X4338991Y-15530551D01*
X4338991Y-15530551D02*
X4329467Y-15549598D01*
X4329467Y-15549598D02*
X4319944Y-15559122D01*
X4319944Y-15559122D02*
X4300896Y-15568646D01*
X4300896Y-15568646D02*
X4262801Y-15568646D01*
X4262801Y-15568646D02*
X4243753Y-15559122D01*
X4424705Y-15549598D02*
X4434229Y-15559122D01*
X4434229Y-15559122D02*
X4424705Y-15568646D01*
X4424705Y-15568646D02*
X4415182Y-15559122D01*
X4415182Y-15559122D02*
X4424705Y-15549598D01*
X4424705Y-15549598D02*
X4424705Y-15568646D01*
X4424705Y-15444837D02*
X4434229Y-15454360D01*
X4434229Y-15454360D02*
X4424705Y-15463884D01*
X4424705Y-15463884D02*
X4415182Y-15454360D01*
X4415182Y-15454360D02*
X4424705Y-15444837D01*
X4424705Y-15444837D02*
X4424705Y-15463884D01*
M02*
